Stepping through parsed MIDI structure:
File Name: C:\Users\Komrad36\Google Drive\VS Projects\SongOfTheFloppies\x64\Release\avicii-wake_me_up_v1.mid
File Size (bytes): 87781

> Delta-times appear before each event.

>>> MIDI Header:
File format: 0
Division: 120
# of tracks: 1
>>> Track 0:
# of MTrkEvents: 23770
0    |  Meta Event: MIDI Port: 0
0    |  Meta Event: Track Name: Wake_Me_Up_Avicii_Aloe_Bl_PR5499_F0
0    |  Meta Event: Copyright Notice: www.midiart.de
0    |  Meta Event: Time Signature: 4/4, 24 clocks/metronome tick, 8 clocks/qtr-note.
0    |  Meta Event: Key Signature: 2 sharps, major
0    |  Meta Event: Set Tempo: 483871 microsec per quarter note
New Division Decode: Ticks/QtrNote Method: 248 delta-time ticks per second.
0    |  Meta Event: Lyric: All Right Reserved www.midiart.de 
0    |  Meta Event: Lyric: 
30   |  SysEx Event: 5 byte message: 0x7e7f91fff7
0    |  SysEx Event: 10 byte message: 0x411042124007f041fff7
10   |  SysEx Event: 10 byte message: 0x41104212401305afff7
230  |  MIDI Event: Chan 1 Control/Mode Change: Channel Volume (0-127): 100
2    |  MIDI Event: Chan 1 Control/Mode Change: Channel Pan (0-127): 82
0    |  MIDI Event: Chan 1 Control/Mode Change: Bank Select (0-127): 0
1    |  MIDI Event: Chan 1 Control/Mode Change: LSB for Control 0 (Bank Select) (0-127): 0
1    |  MIDI Event: Chan 1 Program Change: Select Program (0-127): 25
2    |  MIDI Event: Chan 1 Control/Mode Change: Effects 1 (Default==Reverb) Depth (0-127): 30
2    |  MIDI Event: Chan 1 Control/Mode Change: Effects 3 (Default==Chorus) Depth (0-127): 20
1    |  MIDI Event: Chan 1 Control/Mode Change: Sound Controller 5 (default: Brightness) (0-127): 64
1    |  MIDI Event: Chan 2 Control/Mode Change: Channel Volume (0-127): 110
2    |  MIDI Event: Chan 2 Control/Mode Change: Channel Pan (0-127): 64
0    |  MIDI Event: Chan 2 Control/Mode Change: Bank Select (0-127): 1
1    |  MIDI Event: Chan 2 Control/Mode Change: LSB for Control 0 (Bank Select) (0-127): 0
1    |  MIDI Event: Chan 2 Program Change: Select Program (0-127): 38
2    |  MIDI Event: Chan 2 Control/Mode Change: Effects 1 (Default==Reverb) Depth (0-127): 0
2    |  MIDI Event: Chan 2 Control/Mode Change: Effects 3 (Default==Chorus) Depth (0-127): 30
2    |  MIDI Event: Chan 3 Control/Mode Change: Channel Volume (0-127): 100
2    |  MIDI Event: Chan 3 Control/Mode Change: Channel Pan (0-127): 64
0    |  MIDI Event: Chan 3 Control/Mode Change: Bank Select (0-127): 0
1    |  MIDI Event: Chan 3 Control/Mode Change: LSB for Control 0 (Bank Select) (0-127): 0
1    |  MIDI Event: Chan 3 Program Change: Select Program (0-127): 62
2    |  MIDI Event: Chan 3 Control/Mode Change: Effects 1 (Default==Reverb) Depth (0-127): 0
2    |  MIDI Event: Chan 3 Control/Mode Change: Effects 3 (Default==Chorus) Depth (0-127): 30
2    |  MIDI Event: Chan 4 Control/Mode Change: Channel Volume (0-127): 127
2    |  MIDI Event: Chan 4 Control/Mode Change: Channel Pan (0-127): 64
0    |  MIDI Event: Chan 4 Control/Mode Change: Bank Select (0-127): 0
1    |  MIDI Event: Chan 4 Control/Mode Change: LSB for Control 0 (Bank Select) (0-127): 0
1    |  MIDI Event: Chan 4 Program Change: Select Program (0-127): 26
2    |  MIDI Event: Chan 4 Control/Mode Change: Effects 1 (Default==Reverb) Depth (0-127): 60
2    |  MIDI Event: Chan 4 Control/Mode Change: Effects 3 (Default==Chorus) Depth (0-127): 10
2    |  MIDI Event: Chan 5 Control/Mode Change: Channel Volume (0-127): 100
2    |  MIDI Event: Chan 5 Control/Mode Change: Channel Pan (0-127): 44
0    |  MIDI Event: Chan 5 Control/Mode Change: Bank Select (0-127): 0
1    |  MIDI Event: Chan 5 Control/Mode Change: LSB for Control 0 (Bank Select) (0-127): 0
1    |  MIDI Event: Chan 5 Program Change: Select Program (0-127): 24
2    |  MIDI Event: Chan 5 Control/Mode Change: Effects 1 (Default==Reverb) Depth (0-127): 30
2    |  MIDI Event: Chan 5 Control/Mode Change: Effects 3 (Default==Chorus) Depth (0-127): 20
2    |  MIDI Event: Chan 6 Control/Mode Change: Channel Volume (0-127): 100
2    |  MIDI Event: Chan 6 Control/Mode Change: Channel Pan (0-127): 64
0    |  MIDI Event: Chan 6 Control/Mode Change: Bank Select (0-127): 0
1    |  MIDI Event: Chan 6 Control/Mode Change: LSB for Control 0 (Bank Select) (0-127): 0
1    |  MIDI Event: Chan 6 Program Change: Select Program (0-127): 27
2    |  MIDI Event: Chan 6 Control/Mode Change: Effects 1 (Default==Reverb) Depth (0-127): 60
2    |  MIDI Event: Chan 6 Control/Mode Change: Effects 3 (Default==Chorus) Depth (0-127): 50
2    |  MIDI Event: Chan 7 Control/Mode Change: Channel Volume (0-127): 110
2    |  MIDI Event: Chan 7 Control/Mode Change: Channel Pan (0-127): 64
0    |  MIDI Event: Chan 7 Control/Mode Change: Bank Select (0-127): 0
1    |  MIDI Event: Chan 7 Control/Mode Change: LSB for Control 0 (Bank Select) (0-127): 0
1    |  MIDI Event: Chan 7 Program Change: Select Program (0-127): 81
2    |  MIDI Event: Chan 7 Control/Mode Change: Effects 1 (Default==Reverb) Depth (0-127): 60
2    |  MIDI Event: Chan 7 Control/Mode Change: Effects 3 (Default==Chorus) Depth (0-127): 40
2    |  MIDI Event: Chan 8 Control/Mode Change: Channel Volume (0-127): 100
2    |  MIDI Event: Chan 8 Control/Mode Change: Channel Pan (0-127): 64
0    |  MIDI Event: Chan 8 Control/Mode Change: Bank Select (0-127): 0
1    |  MIDI Event: Chan 8 Control/Mode Change: LSB for Control 0 (Bank Select) (0-127): 0
1    |  MIDI Event: Chan 8 Program Change: Select Program (0-127): 0
2    |  MIDI Event: Chan 8 Control/Mode Change: Effects 1 (Default==Reverb) Depth (0-127): 40
2    |  MIDI Event: Chan 8 Control/Mode Change: Effects 3 (Default==Chorus) Depth (0-127): 0
2    |  MIDI Event: Chan 9 Control/Mode Change: Channel Volume (0-127): 100
2    |  MIDI Event: Chan 9 Control/Mode Change: Channel Pan (0-127): 64
0    |  MIDI Event: Chan 9 Control/Mode Change: Bank Select (0-127): 0
1    |  MIDI Event: Chan 9 Control/Mode Change: LSB for Control 0 (Bank Select) (0-127): 0
1    |  MIDI Event: Chan 9 Program Change: Select Program (0-127): 95
2    |  MIDI Event: Chan 9 Control/Mode Change: Effects 1 (Default==Reverb) Depth (0-127): 0
2    |  MIDI Event: Chan 9 Control/Mode Change: Effects 3 (Default==Chorus) Depth (0-127): 20
2    |  MIDI Event: Chan 10 Control/Mode Change: Channel Volume (0-127): 127
2    |  MIDI Event: Chan 10 Control/Mode Change: Channel Pan (0-127): 64
0    |  MIDI Event: Chan 10 Control/Mode Change: Bank Select (0-127): 0
1    |  MIDI Event: Chan 10 Control/Mode Change: LSB for Control 0 (Bank Select) (0-127): 0
1    |  MIDI Event: Chan 10 Program Change: Select Program (0-127): 0
2    |  MIDI Event: Chan 10 Control/Mode Change: Effects 1 (Default==Reverb) Depth (0-127): 30
2    |  MIDI Event: Chan 10 Control/Mode Change: Effects 3 (Default==Chorus) Depth (0-127): 0
2    |  MIDI Event: Chan 11 Control/Mode Change: Channel Volume (0-127): 100
2    |  MIDI Event: Chan 11 Control/Mode Change: Channel Pan (0-127): 64
0    |  MIDI Event: Chan 11 Control/Mode Change: Bank Select (0-127): 0
1    |  MIDI Event: Chan 11 Control/Mode Change: LSB for Control 0 (Bank Select) (0-127): 0
1    |  MIDI Event: Chan 11 Program Change: Select Program (0-127): 119
2    |  MIDI Event: Chan 11 Control/Mode Change: Effects 1 (Default==Reverb) Depth (0-127): 70
2    |  MIDI Event: Chan 11 Control/Mode Change: Effects 3 (Default==Chorus) Depth (0-127): 0
2    |  MIDI Event: Chan 12 Control/Mode Change: Channel Volume (0-127): 127
2    |  MIDI Event: Chan 12 Control/Mode Change: Channel Pan (0-127): 64
0    |  MIDI Event: Chan 12 Control/Mode Change: Bank Select (0-127): 0
1    |  MIDI Event: Chan 12 Control/Mode Change: LSB for Control 0 (Bank Select) (0-127): 0
1    |  MIDI Event: Chan 12 Program Change: Select Program (0-127): 121
2    |  MIDI Event: Chan 12 Control/Mode Change: Effects 1 (Default==Reverb) Depth (0-127): 100
2    |  MIDI Event: Chan 12 Control/Mode Change: Effects 3 (Default==Chorus) Depth (0-127): 50
2    |  MIDI Event: Chan 13 Control/Mode Change: Channel Volume (0-127): 50
2    |  MIDI Event: Chan 13 Control/Mode Change: Channel Pan (0-127): 64
1    |  MIDI Event: Chan 13 Control/Mode Change: Sound Controller 2 (default: Timbre/Harmonic Intens.) (0-127): 80
0    |  MIDI Event: Chan 13 Control/Mode Change: Bank Select (0-127): 3
0    |  MIDI Event: Chan 13 Control/Mode Change: LSB for Control 0 (Bank Select) (0-127): 0
1    |  MIDI Event: Chan 13 Program Change: Select Program (0-127): 122
1    |  MIDI Event: Chan 13 Control/Mode Change: Sound Controller 4 (default: Attack Time) (0-127): 0
1    |  MIDI Event: Chan 13 Control/Mode Change: Effects 1 (Default==Reverb) Depth (0-127): 0
1    |  MIDI Event: Chan 13 Control/Mode Change: Sound Controller 3 (default: Release Time) (0-127): 0
1    |  MIDI Event: Chan 13 Control/Mode Change: Effects 3 (Default==Chorus) Depth (0-127): 20
1    |  MIDI Event: Chan 13 Control/Mode Change: Sound Controller 6 (default: Decay Time) (0-127): 127
1    |  MIDI Event: Chan 14 Control/Mode Change: Channel Volume (0-127): 100
2    |  MIDI Event: Chan 14 Control/Mode Change: Channel Pan (0-127): 64
0    |  MIDI Event: Chan 14 Control/Mode Change: Bank Select (0-127): 1
1    |  MIDI Event: Chan 14 Control/Mode Change: LSB for Control 0 (Bank Select) (0-127): 0
1    |  MIDI Event: Chan 14 Program Change: Select Program (0-127): 80
2    |  MIDI Event: Chan 14 Control/Mode Change: Effects 1 (Default==Reverb) Depth (0-127): 30
2    |  MIDI Event: Chan 14 Control/Mode Change: Effects 3 (Default==Chorus) Depth (0-127): 0
2    |  MIDI Event: Chan 15 Control/Mode Change: Channel Volume (0-127): 100
2    |  MIDI Event: Chan 15 Control/Mode Change: Channel Pan (0-127): 64
0    |  MIDI Event: Chan 15 Control/Mode Change: Bank Select (0-127): 3
1    |  MIDI Event: Chan 15 Control/Mode Change: LSB for Control 0 (Bank Select) (0-127): 0
1    |  MIDI Event: Chan 15 Program Change: Select Program (0-127): 127
2    |  MIDI Event: Chan 15 Control/Mode Change: Effects 1 (Default==Reverb) Depth (0-127): 40
2    |  MIDI Event: Chan 15 Control/Mode Change: Effects 3 (Default==Chorus) Depth (0-127): 0
1    |  MIDI Event: Chan 15 Control/Mode Change: Sound Controller 5 (default: Brightness) (0-127): 30
54   |  MIDI Event: Chan 14 Control/Mode Change: RPN MSB (0-127): 0
1    |  MIDI Event: Chan 14 Control/Mode Change: RPN LSB (0-127): 0
1    |  MIDI Event: Chan 14 Control/Mode Change: Data Entry, MSB (0-127): 24
1    |  MIDI Event: Chan 14 Control/Mode Change: LSB for Control 6 (Data Entry) (0-127): 0
4    |  MIDI Event: Chan 10 Note ON: F#2, Velocity (0 - 127): 120
0    |  Meta Event: Lyric: www.midiart.de 
0    |  Meta Event: Lyric: 
29   |  MIDI Event: Chan 10 Note OFF: F#2, Velocity (0 - 127): 64
91   |  MIDI Event: Chan 10 Note ON: F#2, Velocity (0 - 127): 60
29   |  MIDI Event: Chan 10 Note OFF: F#2, Velocity (0 - 127): 64
91   |  MIDI Event: Chan 10 Note ON: F#2, Velocity (0 - 127): 62
29   |  MIDI Event: Chan 10 Note OFF: F#2, Velocity (0 - 127): 64
91   |  MIDI Event: Chan 10 Note ON: F#2, Velocity (0 - 127): 71
29   |  MIDI Event: Chan 10 Note OFF: F#2, Velocity (0 - 127): 64
91   |  MIDI Event: Chan 1 Note ON: B3, Velocity (0 - 127): 58
0    |  MIDI Event: Chan 1 Note ON: D4, Velocity (0 - 127): 91
0    |  MIDI Event: Chan 5 Note ON: B2, Velocity (0 - 127): 85
0    |  MIDI Event: Chan 5 Note ON: F#3, Velocity (0 - 127): 120
59   |  MIDI Event: Chan 5 Note OFF: F#3, Velocity (0 - 127): 64
0    |  MIDI Event: Chan 1 Note OFF: B3, Velocity (0 - 127): 64
0    |  MIDI Event: Chan 1 Note OFF: D4, Velocity (0 - 127): 64
0    |  MIDI Event: Chan 5 Note OFF: B2, Velocity (0 - 127): 64
1    |  MIDI Event: Chan 1 Note ON: B3, Velocity (0 - 127): 79
0    |  MIDI Event: Chan 1 Note ON: D4, Velocity (0 - 127): 95
0    |  MIDI Event: Chan 1 Note ON: F#4, Velocity (0 - 127): 74
0    |  MIDI Event: Chan 5 Note ON: D3, Velocity (0 - 127): 92
0    |  MIDI Event: Chan 5 Note ON: F#3, Velocity (0 - 127): 87
0    |  MIDI Event: Chan 5 Note ON: D4, Velocity (0 - 127): 95
89   |  MIDI Event: Chan 5 Note OFF: D4, Velocity (0 - 127): 64
0    |  MIDI Event: Chan 1 Note OFF: D4, Velocity (0 - 127): 64
0    |  MIDI Event: Chan 1 Note OFF: F#4, Velocity (0 - 127): 64
0    |  MIDI Event: Chan 1 Note OFF: B3, Velocity (0 - 127): 64
0    |  MIDI Event: Chan 5 Note OFF: F#3, Velocity (0 - 127): 64
0    |  MIDI Event: Chan 5 Note OFF: D3, Velocity (0 - 127): 64
1    |  MIDI Event: Chan 1 Note ON: B3, Velocity (0 - 127): 71
0    |  MIDI Event: Chan 1 Note ON: D4, Velocity (0 - 127): 91
0    |  MIDI Event: Chan 1 Note ON: F#4, Velocity (0 - 127): 60
0    |  MIDI Event: Chan 5 Note ON: F#3, Velocity (0 - 127): 109
0    |  MIDI Event: Chan 5 Note ON: B3, Velocity (0 - 127): 95
29   |  MIDI Event: Chan 5 Note OFF: B3, Velocity (0 - 127): 64
0    |  MIDI Event: Chan 1 Note OFF: F#4, Velocity (0 - 127): 64
0    |  MIDI Event: Chan 1 Note OFF: B3, Velocity (0 - 127): 64
0    |  MIDI Event: Chan 1 Note OFF: D4, Velocity (0 - 127): 64
0    |  MIDI Event: Chan 5 Note OFF: F#3, Velocity (0 - 127): 64
1    |  MIDI Event: Chan 1 Note ON: D4, Velocity (0 - 127): 80
0    |  MIDI Event: Chan 1 Note ON: F#4, Velocity (0 - 127): 62
0    |  MIDI Event: Chan 1 Note ON: B4, Velocity (0 - 127): 91
0    |  MIDI Event: Chan 5 Note ON: D3, Velocity (0 - 127): 103
0    |  MIDI Event: Chan 5 Note ON: F#3, Velocity (0 - 127): 115
29   |  MIDI Event: Chan 5 Note OFF: F#3, Velocity (0 - 127): 64
0    |  MIDI Event: Chan 1 Note OFF: B4, Velocity (0 - 127): 64
0    |  MIDI Event: Chan 1 Note OFF: D4, Velocity (0 - 127): 64
0    |  MIDI Event: Chan 1 Note OFF: F#4, Velocity (0 - 127): 64
0    |  MIDI Event: Chan 5 Note OFF: D3, Velocity (0 - 127): 64
1    |  MIDI Event: Chan 1 Note ON: B3, Velocity (0 - 127): 51
0    |  MIDI Event: Chan 1 Note ON: D4, Velocity (0 - 127): 85
0    |  MIDI Event: Chan 1 Note ON: F#4, Velocity (0 - 127): 59
0    |  MIDI Event: Chan 5 Note ON: B2, Velocity (0 - 127): 92
0    |  MIDI Event: Chan 5 Note ON: E3, Velocity (0 - 127): 98
29   |  MIDI Event: Chan 5 Note OFF: E3, Velocity (0 - 127): 64
0    |  MIDI Event: Chan 1 Note OFF: F#4, Velocity (0 - 127): 64
0    |  MIDI Event: Chan 1 Note OFF: B3, Velocity (0 - 127): 64
0    |  MIDI Event: Chan 1 Note OFF: D4, Velocity (0 - 127): 64
0    |  MIDI Event: Chan 5 Note OFF: B2, Velocity (0 - 127): 64
1    |  MIDI Event: Chan 1 Note ON: G3, Velocity (0 - 127): 74
0    |  MIDI Event: Chan 1 Note ON: B3, Velocity (0 - 127): 94
0    |  MIDI Event: Chan 1 Note ON: D4, Velocity (0 - 127): 91
0    |  MIDI Event: Chan 5 Note ON: G2, Velocity (0 - 127): 98
0    |  MIDI Event: Chan 5 Note ON: D3, Velocity (0 - 127): 116
59   |  MIDI Event: Chan 5 Note OFF: D3, Velocity (0 - 127): 64
0    |  MIDI Event: Chan 1 Note OFF: D4, Velocity (0 - 127): 64
0    |  MIDI Event: Chan 1 Note OFF: G3, Velocity (0 - 127): 64
0    |  MIDI Event: Chan 1 Note OFF: B3, Velocity (0 - 127): 64
0    |  MIDI Event: Chan 5 Note OFF: G2, Velocity (0 - 127): 64
1    |  MIDI Event: Chan 1 Note ON: B3, Velocity (0 - 127): 70
0    |  MIDI Event: Chan 1 Note ON: D4, Velocity (0 - 127): 94
0    |  MIDI Event: Chan 1 Note ON: G4, Velocity (0 - 127): 101
0    |  MIDI Event: Chan 5 Note ON: D3, Velocity (0 - 127): 79
0    |  MIDI Event: Chan 5 Note ON: G3, Velocity (0 - 127): 111
0    |  MIDI Event: Chan 5 Note ON: B3, Velocity (0 - 127): 100
89   |  MIDI Event: Chan 5 Note OFF: B3, Velocity (0 - 127): 64
0    |  MIDI Event: Chan 1 Note OFF: D4, Velocity (0 - 127): 64
0    |  MIDI Event: Chan 1 Note OFF: G4, Velocity (0 - 127): 64
0    |  MIDI Event: Chan 1 Note OFF: B3, Velocity (0 - 127): 64
0    |  MIDI Event: Chan 5 Note OFF: G3, Velocity (0 - 127): 64
0    |  MIDI Event: Chan 5 Note OFF: D3, Velocity (0 - 127): 64
1    |  MIDI Event: Chan 1 Note ON: B3, Velocity (0 - 127): 52
0    |  MIDI Event: Chan 1 Note ON: D4, Velocity (0 - 127): 85
0    |  MIDI Event: Chan 1 Note ON: G4, Velocity (0 - 127): 94
0    |  MIDI Event: Chan 5 Note ON: D3, Velocity (0 - 127): 82
0    |  MIDI Event: Chan 5 Note ON: G3, Velocity (0 - 127): 98
0    |  MIDI Event: Chan 5 Note ON: B3, Velocity (0 - 127): 85
29   |  MIDI Event: Chan 5 Note OFF: B3, Velocity (0 - 127): 64
0    |  MIDI Event: Chan 1 Note OFF: D4, Velocity (0 - 127): 64
0    |  MIDI Event: Chan 1 Note OFF: G4, Velocity (0 - 127): 64
0    |  MIDI Event: Chan 1 Note OFF: B3, Velocity (0 - 127): 64
0    |  MIDI Event: Chan 5 Note OFF: G3, Velocity (0 - 127): 64
0    |  MIDI Event: Chan 5 Note OFF: D3, Velocity (0 - 127): 64
1    |  MIDI Event: Chan 1 Note ON: D4, Velocity (0 - 127): 78
0    |  MIDI Event: Chan 1 Note ON: G4, Velocity (0 - 127): 100
0    |  MIDI Event: Chan 1 Note ON: B4, Velocity (0 - 127): 46
0    |  MIDI Event: Chan 5 Note ON: G2, Velocity (0 - 127): 109
0    |  MIDI Event: Chan 5 Note ON: D3, Velocity (0 - 127): 109
29   |  MIDI Event: Chan 5 Note OFF: D3, Velocity (0 - 127): 64
0    |  MIDI Event: Chan 1 Note OFF: B4, Velocity (0 - 127): 64
0    |  MIDI Event: Chan 1 Note OFF: D4, Velocity (0 - 127): 64
0    |  MIDI Event: Chan 1 Note OFF: G4, Velocity (0 - 127): 64
0    |  MIDI Event: Chan 5 Note OFF: G2, Velocity (0 - 127): 64
1    |  MIDI Event: Chan 1 Note ON: B3, Velocity (0 - 127): 45
0    |  MIDI Event: Chan 1 Note ON: D4, Velocity (0 - 127): 73
0    |  MIDI Event: Chan 1 Note ON: G4, Velocity (0 - 127): 86
0    |  MIDI Event: Chan 5 Note ON: G2, Velocity (0 - 127): 101
0    |  MIDI Event: Chan 5 Note ON: E3, Velocity (0 - 127): 116
29   |  MIDI Event: Chan 5 Note OFF: E3, Velocity (0 - 127): 64
0    |  MIDI Event: Chan 1 Note OFF: G4, Velocity (0 - 127): 64
0    |  MIDI Event: Chan 1 Note OFF: B3, Velocity (0 - 127): 64
0    |  MIDI Event: Chan 1 Note OFF: D4, Velocity (0 - 127): 64
0    |  MIDI Event: Chan 5 Note OFF: G2, Velocity (0 - 127): 64
1    |  MIDI Event: Chan 1 Note ON: F#3, Velocity (0 - 127): 35
0    |  MIDI Event: Chan 1 Note ON: A3, Velocity (0 - 127): 85
0    |  MIDI Event: Chan 1 Note ON: D4, Velocity (0 - 127): 79
0    |  MIDI Event: Chan 5 Note ON: A2, Velocity (0 - 127): 90
0    |  MIDI Event: Chan 5 Note ON: D3, Velocity (0 - 127): 105
59   |  MIDI Event: Chan 5 Note OFF: D3, Velocity (0 - 127): 64
0    |  MIDI Event: Chan 1 Note OFF: D4, Velocity (0 - 127): 64
0    |  MIDI Event: Chan 1 Note OFF: F#3, Velocity (0 - 127): 64
0    |  MIDI Event: Chan 1 Note OFF: A3, Velocity (0 - 127): 64
0    |  MIDI Event: Chan 5 Note OFF: A2, Velocity (0 - 127): 64
1    |  MIDI Event: Chan 1 Note ON: A3, Velocity (0 - 127): 69
0    |  MIDI Event: Chan 1 Note ON: D4, Velocity (0 - 127): 98
0    |  MIDI Event: Chan 1 Note ON: F#4, Velocity (0 - 127): 74
0    |  MIDI Event: Chan 5 Note ON: A2, Velocity (0 - 127): 100
0    |  MIDI Event: Chan 5 Note ON: D3, Velocity (0 - 127): 111
0    |  MIDI Event: Chan 5 Note ON: F#3, Velocity (0 - 127): 89
89   |  MIDI Event: Chan 5 Note OFF: F#3, Velocity (0 - 127): 64
0    |  MIDI Event: Chan 1 Note OFF: D4, Velocity (0 - 127): 64
0    |  MIDI Event: Chan 1 Note OFF: F#4, Velocity (0 - 127): 64
0    |  MIDI Event: Chan 1 Note OFF: A3, Velocity (0 - 127): 64
0    |  MIDI Event: Chan 5 Note OFF: D3, Velocity (0 - 127): 64
0    |  MIDI Event: Chan 5 Note OFF: A2, Velocity (0 - 127): 64
1    |  MIDI Event: Chan 1 Note ON: F#3, Velocity (0 - 127): 44
0    |  MIDI Event: Chan 1 Note ON: A3, Velocity (0 - 127): 78
0    |  MIDI Event: Chan 1 Note ON: D4, Velocity (0 - 127): 58
0    |  MIDI Event: Chan 5 Note ON: A2, Velocity (0 - 127): 85
0    |  MIDI Event: Chan 5 Note ON: D3, Velocity (0 - 127): 105
0    |  MIDI Event: Chan 5 Note ON: F#3, Velocity (0 - 127): 81
29   |  MIDI Event: Chan 5 Note OFF: F#3, Velocity (0 - 127): 64
0    |  MIDI Event: Chan 1 Note OFF: A3, Velocity (0 - 127): 64
0    |  MIDI Event: Chan 1 Note OFF: D4, Velocity (0 - 127): 64
0    |  MIDI Event: Chan 1 Note OFF: F#3, Velocity (0 - 127): 64
0    |  MIDI Event: Chan 5 Note OFF: D3, Velocity (0 - 127): 64
0    |  MIDI Event: Chan 5 Note OFF: A2, Velocity (0 - 127): 64
1    |  MIDI Event: Chan 1 Note ON: A3, Velocity (0 - 127): 57
0    |  MIDI Event: Chan 1 Note ON: D4, Velocity (0 - 127): 91
0    |  MIDI Event: Chan 1 Note ON: F#4, Velocity (0 - 127): 77
0    |  MIDI Event: Chan 5 Note ON: D3, Velocity (0 - 127): 109
0    |  MIDI Event: Chan 5 Note ON: F#3, Velocity (0 - 127): 89
0    |  MIDI Event: Chan 5 Note ON: A3, Velocity (0 - 127): 109
29   |  MIDI Event: Chan 5 Note OFF: A3, Velocity (0 - 127): 64
0    |  MIDI Event: Chan 1 Note OFF: D4, Velocity (0 - 127): 64
0    |  MIDI Event: Chan 1 Note OFF: F#4, Velocity (0 - 127): 64
0    |  MIDI Event: Chan 1 Note OFF: A3, Velocity (0 - 127): 64
0    |  MIDI Event: Chan 5 Note OFF: F#3, Velocity (0 - 127): 64
0    |  MIDI Event: Chan 5 Note OFF: D3, Velocity (0 - 127): 64
1    |  MIDI Event: Chan 1 Note ON: F#3, Velocity (0 - 127): 35
0    |  MIDI Event: Chan 1 Note ON: A3, Velocity (0 - 127): 79
0    |  MIDI Event: Chan 1 Note ON: D4, Velocity (0 - 127): 56
0    |  MIDI Event: Chan 5 Note ON: D3, Velocity (0 - 127): 111
0    |  MIDI Event: Chan 5 Note ON: F#3, Velocity (0 - 127): 100
0    |  MIDI Event: Chan 5 Note ON: A3, Velocity (0 - 127): 100
29   |  MIDI Event: Chan 5 Note OFF: A3, Velocity (0 - 127): 64
0    |  MIDI Event: Chan 1 Note OFF: A3, Velocity (0 - 127): 64
0    |  MIDI Event: Chan 1 Note OFF: D4, Velocity (0 - 127): 64
0    |  MIDI Event: Chan 1 Note OFF: F#3, Velocity (0 - 127): 64
0    |  MIDI Event: Chan 5 Note OFF: F#3, Velocity (0 - 127): 64
0    |  MIDI Event: Chan 5 Note OFF: D3, Velocity (0 - 127): 64
1    |  MIDI Event: Chan 1 Note ON: F#3, Velocity (0 - 127): 49
0    |  MIDI Event: Chan 1 Note ON: A3, Velocity (0 - 127): 85
0    |  MIDI Event: Chan 1 Note ON: D4, Velocity (0 - 127): 75
0    |  MIDI Event: Chan 5 Note ON: A2, Velocity (0 - 127): 105
0    |  MIDI Event: Chan 5 Note ON: D3, Velocity (0 - 127): 116
59   |  MIDI Event: Chan 5 Note OFF: D3, Velocity (0 - 127): 64
0    |  MIDI Event: Chan 1 Note OFF: D4, Velocity (0 - 127): 64
0    |  MIDI Event: Chan 1 Note OFF: F#3, Velocity (0 - 127): 64
0    |  MIDI Event: Chan 1 Note OFF: A3, Velocity (0 - 127): 64
0    |  MIDI Event: Chan 5 Note OFF: A2, Velocity (0 - 127): 64
1    |  MIDI Event: Chan 1 Note ON: A3, Velocity (0 - 127): 56
0    |  MIDI Event: Chan 1 Note ON: D4, Velocity (0 - 127): 84
0    |  MIDI Event: Chan 1 Note ON: F#4, Velocity (0 - 127): 49
0    |  MIDI Event: Chan 5 Note ON: D3, Velocity (0 - 127): 105
0    |  MIDI Event: Chan 5 Note ON: F#3, Velocity (0 - 127): 115
29   |  MIDI Event: Chan 5 Note OFF: F#3, Velocity (0 - 127): 64
0    |  MIDI Event: Chan 1 Note OFF: F#4, Velocity (0 - 127): 64
0    |  MIDI Event: Chan 1 Note OFF: A3, Velocity (0 - 127): 64
0    |  MIDI Event: Chan 1 Note OFF: D4, Velocity (0 - 127): 64
0    |  MIDI Event: Chan 5 Note OFF: D3, Velocity (0 - 127): 64
1    |  MIDI Event: Chan 1 Note ON: A3, Velocity (0 - 127): 84
0    |  MIDI Event: Chan 1 Note ON: D4, Velocity (0 - 127): 94
0    |  MIDI Event: Chan 1 Note ON: F#4, Velocity (0 - 127): 76
0    |  MIDI Event: Chan 5 Note ON: D3, Velocity (0 - 127): 100
0    |  MIDI Event: Chan 5 Note ON: F#3, Velocity (0 - 127): 92
29   |  MIDI Event: Chan 5 Note OFF: F#3, Velocity (0 - 127): 64
0    |  MIDI Event: Chan 1 Note OFF: F#4, Velocity (0 - 127): 64
0    |  MIDI Event: Chan 1 Note OFF: A3, Velocity (0 - 127): 64
0    |  MIDI Event: Chan 1 Note OFF: D4, Velocity (0 - 127): 64
0    |  MIDI Event: Chan 5 Note OFF: D3, Velocity (0 - 127): 64
1    |  MIDI Event: Chan 1 Note ON: E3, Velocity (0 - 127): 47
0    |  MIDI Event: Chan 1 Note ON: A3, Velocity (0 - 127): 89
0    |  MIDI Event: Chan 1 Note ON: C#4, Velocity (0 - 127): 52
0    |  MIDI Event: Chan 5 Note ON: A2, Velocity (0 - 127): 101
0    |  MIDI Event: Chan 5 Note ON: E3, Velocity (0 - 127): 101
59   |  MIDI Event: Chan 5 Note OFF: E3, Velocity (0 - 127): 64
0    |  MIDI Event: Chan 1 Note OFF: C#4, Velocity (0 - 127): 64
0    |  MIDI Event: Chan 1 Note OFF: E3, Velocity (0 - 127): 64
0    |  MIDI Event: Chan 1 Note OFF: A3, Velocity (0 - 127): 64
0    |  MIDI Event: Chan 5 Note OFF: A2, Velocity (0 - 127): 64
1    |  MIDI Event: Chan 1 Note ON: A3, Velocity (0 - 127): 51
0    |  MIDI Event: Chan 1 Note ON: C#4, Velocity (0 - 127): 52
0    |  MIDI Event: Chan 1 Note ON: E4, Velocity (0 - 127): 78
0    |  MIDI Event: Chan 5 Note ON: C#3, Velocity (0 - 127): 89
0    |  MIDI Event: Chan 5 Note ON: E3, Velocity (0 - 127): 101
0    |  MIDI Event: Chan 5 Note ON: A3, Velocity (0 - 127): 89
29   |  MIDI Event: Chan 5 Note OFF: A3, Velocity (0 - 127): 64
0    |  MIDI Event: Chan 1 Note OFF: C#4, Velocity (0 - 127): 64
0    |  MIDI Event: Chan 1 Note OFF: E4, Velocity (0 - 127): 64
0    |  MIDI Event: Chan 1 Note OFF: A3, Velocity (0 - 127): 64
0    |  MIDI Event: Chan 5 Note OFF: E3, Velocity (0 - 127): 64
0    |  MIDI Event: Chan 5 Note OFF: C#3, Velocity (0 - 127): 64
1    |  MIDI Event: Chan 1 Note ON: A3, Velocity (0 - 127): 73
0    |  MIDI Event: Chan 1 Note ON: C#4, Velocity (0 - 127): 52
0    |  MIDI Event: Chan 1 Note ON: E4, Velocity (0 - 127): 83
0    |  MIDI Event: Chan 5 Note ON: C#3, Velocity (0 - 127): 119
0    |  MIDI Event: Chan 5 Note ON: E3, Velocity (0 - 127): 118
0    |  MIDI Event: Chan 5 Note ON: A3, Velocity (0 - 127): 105
29   |  MIDI Event: Chan 5 Note OFF: A3, Velocity (0 - 127): 64
0    |  MIDI Event: Chan 1 Note OFF: C#4, Velocity (0 - 127): 64
0    |  MIDI Event: Chan 1 Note OFF: E4, Velocity (0 - 127): 64
0    |  MIDI Event: Chan 1 Note OFF: A3, Velocity (0 - 127): 64
0    |  MIDI Event: Chan 5 Note OFF: E3, Velocity (0 - 127): 64
0    |  MIDI Event: Chan 5 Note OFF: C#3, Velocity (0 - 127): 64
1    |  MIDI Event: Chan 1 Note ON: B3, Velocity (0 - 127): 58
0    |  MIDI Event: Chan 1 Note ON: D4, Velocity (0 - 127): 91
0    |  MIDI Event: Chan 5 Note ON: B2, Velocity (0 - 127): 85
0    |  MIDI Event: Chan 5 Note ON: F#3, Velocity (0 - 127): 120
59   |  MIDI Event: Chan 5 Note OFF: F#3, Velocity (0 - 127): 64
0    |  MIDI Event: Chan 1 Note OFF: B3, Velocity (0 - 127): 64
0    |  MIDI Event: Chan 1 Note OFF: D4, Velocity (0 - 127): 64
0    |  MIDI Event: Chan 5 Note OFF: B2, Velocity (0 - 127): 64
1    |  MIDI Event: Chan 1 Note ON: B3, Velocity (0 - 127): 79
0    |  MIDI Event: Chan 1 Note ON: D4, Velocity (0 - 127): 95
0    |  MIDI Event: Chan 1 Note ON: F#4, Velocity (0 - 127): 74
0    |  MIDI Event: Chan 5 Note ON: D3, Velocity (0 - 127): 92
0    |  MIDI Event: Chan 5 Note ON: F#3, Velocity (0 - 127): 87
0    |  MIDI Event: Chan 5 Note ON: D4, Velocity (0 - 127): 95
89   |  MIDI Event: Chan 5 Note OFF: D4, Velocity (0 - 127): 64
0    |  MIDI Event: Chan 1 Note OFF: D4, Velocity (0 - 127): 64
0    |  MIDI Event: Chan 1 Note OFF: F#4, Velocity (0 - 127): 64
0    |  MIDI Event: Chan 1 Note OFF: B3, Velocity (0 - 127): 64
0    |  MIDI Event: Chan 5 Note OFF: F#3, Velocity (0 - 127): 64
0    |  MIDI Event: Chan 5 Note OFF: D3, Velocity (0 - 127): 64
1    |  MIDI Event: Chan 1 Note ON: B3, Velocity (0 - 127): 71
0    |  MIDI Event: Chan 1 Note ON: D4, Velocity (0 - 127): 91
0    |  MIDI Event: Chan 1 Note ON: F#4, Velocity (0 - 127): 60
0    |  MIDI Event: Chan 5 Note ON: F#3, Velocity (0 - 127): 109
0    |  MIDI Event: Chan 5 Note ON: B3, Velocity (0 - 127): 95
29   |  MIDI Event: Chan 5 Note OFF: B3, Velocity (0 - 127): 64
0    |  MIDI Event: Chan 1 Note OFF: F#4, Velocity (0 - 127): 64
0    |  MIDI Event: Chan 1 Note OFF: B3, Velocity (0 - 127): 64
0    |  MIDI Event: Chan 1 Note OFF: D4, Velocity (0 - 127): 64
0    |  MIDI Event: Chan 5 Note OFF: F#3, Velocity (0 - 127): 64
1    |  MIDI Event: Chan 1 Note ON: D4, Velocity (0 - 127): 80
0    |  MIDI Event: Chan 1 Note ON: F#4, Velocity (0 - 127): 62
0    |  MIDI Event: Chan 1 Note ON: B4, Velocity (0 - 127): 91
0    |  MIDI Event: Chan 5 Note ON: D3, Velocity (0 - 127): 103
0    |  MIDI Event: Chan 5 Note ON: F#3, Velocity (0 - 127): 115
29   |  MIDI Event: Chan 5 Note OFF: F#3, Velocity (0 - 127): 64
0    |  MIDI Event: Chan 1 Note OFF: B4, Velocity (0 - 127): 64
0    |  MIDI Event: Chan 1 Note OFF: D4, Velocity (0 - 127): 64
0    |  MIDI Event: Chan 1 Note OFF: F#4, Velocity (0 - 127): 64
0    |  MIDI Event: Chan 5 Note OFF: D3, Velocity (0 - 127): 64
1    |  MIDI Event: Chan 1 Note ON: B3, Velocity (0 - 127): 51
0    |  MIDI Event: Chan 1 Note ON: D4, Velocity (0 - 127): 85
0    |  MIDI Event: Chan 1 Note ON: F#4, Velocity (0 - 127): 59
0    |  MIDI Event: Chan 5 Note ON: B2, Velocity (0 - 127): 92
0    |  MIDI Event: Chan 5 Note ON: E3, Velocity (0 - 127): 98
29   |  MIDI Event: Chan 5 Note OFF: E3, Velocity (0 - 127): 64
0    |  MIDI Event: Chan 1 Note OFF: F#4, Velocity (0 - 127): 64
0    |  MIDI Event: Chan 1 Note OFF: B3, Velocity (0 - 127): 64
0    |  MIDI Event: Chan 1 Note OFF: D4, Velocity (0 - 127): 64
0    |  MIDI Event: Chan 5 Note OFF: B2, Velocity (0 - 127): 64
1    |  MIDI Event: Chan 1 Note ON: G3, Velocity (0 - 127): 74
0    |  MIDI Event: Chan 1 Note ON: B3, Velocity (0 - 127): 94
0    |  MIDI Event: Chan 1 Note ON: D4, Velocity (0 - 127): 91
0    |  MIDI Event: Chan 5 Note ON: G2, Velocity (0 - 127): 98
0    |  MIDI Event: Chan 5 Note ON: D3, Velocity (0 - 127): 116
59   |  MIDI Event: Chan 5 Note OFF: D3, Velocity (0 - 127): 64
0    |  MIDI Event: Chan 1 Note OFF: D4, Velocity (0 - 127): 64
0    |  MIDI Event: Chan 1 Note OFF: G3, Velocity (0 - 127): 64
0    |  MIDI Event: Chan 1 Note OFF: B3, Velocity (0 - 127): 64
0    |  MIDI Event: Chan 5 Note OFF: G2, Velocity (0 - 127): 64
1    |  MIDI Event: Chan 1 Note ON: B3, Velocity (0 - 127): 70
0    |  MIDI Event: Chan 1 Note ON: D4, Velocity (0 - 127): 94
0    |  MIDI Event: Chan 1 Note ON: G4, Velocity (0 - 127): 101
0    |  MIDI Event: Chan 5 Note ON: D3, Velocity (0 - 127): 79
0    |  MIDI Event: Chan 5 Note ON: G3, Velocity (0 - 127): 111
0    |  MIDI Event: Chan 5 Note ON: B3, Velocity (0 - 127): 100
89   |  MIDI Event: Chan 5 Note OFF: B3, Velocity (0 - 127): 64
0    |  MIDI Event: Chan 1 Note OFF: D4, Velocity (0 - 127): 64
0    |  MIDI Event: Chan 1 Note OFF: G4, Velocity (0 - 127): 64
0    |  MIDI Event: Chan 1 Note OFF: B3, Velocity (0 - 127): 64
0    |  MIDI Event: Chan 5 Note OFF: G3, Velocity (0 - 127): 64
0    |  MIDI Event: Chan 5 Note OFF: D3, Velocity (0 - 127): 64
1    |  MIDI Event: Chan 1 Note ON: B3, Velocity (0 - 127): 52
0    |  MIDI Event: Chan 1 Note ON: D4, Velocity (0 - 127): 85
0    |  MIDI Event: Chan 1 Note ON: G4, Velocity (0 - 127): 94
0    |  MIDI Event: Chan 5 Note ON: D3, Velocity (0 - 127): 82
0    |  MIDI Event: Chan 5 Note ON: G3, Velocity (0 - 127): 98
0    |  MIDI Event: Chan 5 Note ON: B3, Velocity (0 - 127): 85
29   |  MIDI Event: Chan 5 Note OFF: B3, Velocity (0 - 127): 64
0    |  MIDI Event: Chan 1 Note OFF: D4, Velocity (0 - 127): 64
0    |  MIDI Event: Chan 1 Note OFF: G4, Velocity (0 - 127): 64
0    |  MIDI Event: Chan 1 Note OFF: B3, Velocity (0 - 127): 64
0    |  MIDI Event: Chan 5 Note OFF: G3, Velocity (0 - 127): 64
0    |  MIDI Event: Chan 5 Note OFF: D3, Velocity (0 - 127): 64
1    |  MIDI Event: Chan 1 Note ON: D4, Velocity (0 - 127): 78
0    |  MIDI Event: Chan 1 Note ON: G4, Velocity (0 - 127): 100
0    |  MIDI Event: Chan 1 Note ON: B4, Velocity (0 - 127): 46
0    |  MIDI Event: Chan 5 Note ON: G2, Velocity (0 - 127): 109
0    |  MIDI Event: Chan 5 Note ON: D3, Velocity (0 - 127): 109
29   |  MIDI Event: Chan 5 Note OFF: D3, Velocity (0 - 127): 64
0    |  MIDI Event: Chan 1 Note OFF: B4, Velocity (0 - 127): 64
0    |  MIDI Event: Chan 1 Note OFF: D4, Velocity (0 - 127): 64
0    |  MIDI Event: Chan 1 Note OFF: G4, Velocity (0 - 127): 64
0    |  MIDI Event: Chan 5 Note OFF: G2, Velocity (0 - 127): 64
1    |  MIDI Event: Chan 1 Note ON: B3, Velocity (0 - 127): 45
0    |  MIDI Event: Chan 1 Note ON: D4, Velocity (0 - 127): 73
0    |  MIDI Event: Chan 1 Note ON: G4, Velocity (0 - 127): 86
0    |  MIDI Event: Chan 5 Note ON: G2, Velocity (0 - 127): 101
0    |  MIDI Event: Chan 5 Note ON: E3, Velocity (0 - 127): 116
29   |  MIDI Event: Chan 5 Note OFF: E3, Velocity (0 - 127): 64
0    |  MIDI Event: Chan 1 Note OFF: G4, Velocity (0 - 127): 64
0    |  MIDI Event: Chan 1 Note OFF: B3, Velocity (0 - 127): 64
0    |  MIDI Event: Chan 1 Note OFF: D4, Velocity (0 - 127): 64
0    |  MIDI Event: Chan 5 Note OFF: G2, Velocity (0 - 127): 64
1    |  MIDI Event: Chan 1 Note ON: F#3, Velocity (0 - 127): 35
0    |  MIDI Event: Chan 1 Note ON: A3, Velocity (0 - 127): 85
0    |  MIDI Event: Chan 1 Note ON: D4, Velocity (0 - 127): 79
0    |  MIDI Event: Chan 5 Note ON: A2, Velocity (0 - 127): 90
0    |  MIDI Event: Chan 5 Note ON: D3, Velocity (0 - 127): 105
15   |  MIDI Event: Chan 1 Control/Mode Change: Sound Controller 5 (default: Brightness) (0-127): 62
0    |  MIDI Event: Chan 5 Control/Mode Change: Sound Controller 5 (default: Brightness) (0-127): 62
15   |  MIDI Event: Chan 1 Control/Mode Change: Sound Controller 5 (default: Brightness) (0-127): 61
0    |  MIDI Event: Chan 5 Control/Mode Change: Sound Controller 5 (default: Brightness) (0-127): 61
15   |  MIDI Event: Chan 1 Control/Mode Change: Sound Controller 5 (default: Brightness) (0-127): 60
0    |  MIDI Event: Chan 5 Control/Mode Change: Sound Controller 5 (default: Brightness) (0-127): 60
14   |  MIDI Event: Chan 5 Note OFF: D3, Velocity (0 - 127): 64
0    |  MIDI Event: Chan 1 Note OFF: D4, Velocity (0 - 127): 64
0    |  MIDI Event: Chan 1 Note OFF: F#3, Velocity (0 - 127): 64
0    |  MIDI Event: Chan 1 Note OFF: A3, Velocity (0 - 127): 64
0    |  MIDI Event: Chan 5 Note OFF: A2, Velocity (0 - 127): 64
1    |  MIDI Event: Chan 1 Control/Mode Change: Sound Controller 5 (default: Brightness) (0-127): 59
0    |  MIDI Event: Chan 1 Note ON: A3, Velocity (0 - 127): 69
0    |  MIDI Event: Chan 1 Note ON: D4, Velocity (0 - 127): 98
0    |  MIDI Event: Chan 1 Note ON: F#4, Velocity (0 - 127): 74
0    |  MIDI Event: Chan 5 Control/Mode Change: Sound Controller 5 (default: Brightness) (0-127): 59
0    |  MIDI Event: Chan 5 Note ON: A2, Velocity (0 - 127): 100
0    |  MIDI Event: Chan 5 Note ON: D3, Velocity (0 - 127): 111
0    |  MIDI Event: Chan 5 Note ON: F#3, Velocity (0 - 127): 89
15   |  MIDI Event: Chan 1 Control/Mode Change: Sound Controller 5 (default: Brightness) (0-127): 58
0    |  MIDI Event: Chan 5 Control/Mode Change: Sound Controller 5 (default: Brightness) (0-127): 58
15   |  MIDI Event: Chan 1 Control/Mode Change: Sound Controller 5 (default: Brightness) (0-127): 57
0    |  MIDI Event: Chan 5 Control/Mode Change: Sound Controller 5 (default: Brightness) (0-127): 57
15   |  MIDI Event: Chan 1 Control/Mode Change: Sound Controller 5 (default: Brightness) (0-127): 56
0    |  MIDI Event: Chan 5 Control/Mode Change: Sound Controller 5 (default: Brightness) (0-127): 56
15   |  MIDI Event: Chan 1 Control/Mode Change: Sound Controller 5 (default: Brightness) (0-127): 55
0    |  MIDI Event: Chan 5 Control/Mode Change: Sound Controller 5 (default: Brightness) (0-127): 55
15   |  MIDI Event: Chan 1 Control/Mode Change: Sound Controller 5 (default: Brightness) (0-127): 54
0    |  MIDI Event: Chan 5 Control/Mode Change: Sound Controller 5 (default: Brightness) (0-127): 54
14   |  MIDI Event: Chan 5 Note OFF: F#3, Velocity (0 - 127): 64
0    |  MIDI Event: Chan 1 Note OFF: D4, Velocity (0 - 127): 64
0    |  MIDI Event: Chan 1 Note OFF: F#4, Velocity (0 - 127): 64
0    |  MIDI Event: Chan 1 Note OFF: A3, Velocity (0 - 127): 64
0    |  MIDI Event: Chan 5 Note OFF: D3, Velocity (0 - 127): 64
0    |  MIDI Event: Chan 5 Note OFF: A2, Velocity (0 - 127): 64
1    |  MIDI Event: Chan 1 Control/Mode Change: Sound Controller 5 (default: Brightness) (0-127): 53
0    |  MIDI Event: Chan 1 Note ON: F#3, Velocity (0 - 127): 44
0    |  MIDI Event: Chan 1 Note ON: A3, Velocity (0 - 127): 78
0    |  MIDI Event: Chan 1 Note ON: D4, Velocity (0 - 127): 58
0    |  MIDI Event: Chan 5 Control/Mode Change: Sound Controller 5 (default: Brightness) (0-127): 53
0    |  MIDI Event: Chan 5 Note ON: A2, Velocity (0 - 127): 85
0    |  MIDI Event: Chan 5 Note ON: D3, Velocity (0 - 127): 105
0    |  MIDI Event: Chan 5 Note ON: F#3, Velocity (0 - 127): 81
15   |  MIDI Event: Chan 1 Control/Mode Change: Sound Controller 5 (default: Brightness) (0-127): 52
0    |  MIDI Event: Chan 5 Control/Mode Change: Sound Controller 5 (default: Brightness) (0-127): 52
14   |  MIDI Event: Chan 5 Note OFF: F#3, Velocity (0 - 127): 64
0    |  MIDI Event: Chan 1 Note OFF: A3, Velocity (0 - 127): 64
0    |  MIDI Event: Chan 1 Note OFF: D4, Velocity (0 - 127): 64
0    |  MIDI Event: Chan 1 Note OFF: F#3, Velocity (0 - 127): 64
0    |  MIDI Event: Chan 5 Note OFF: D3, Velocity (0 - 127): 64
0    |  MIDI Event: Chan 5 Note OFF: A2, Velocity (0 - 127): 64
1    |  MIDI Event: Chan 1 Control/Mode Change: Sound Controller 5 (default: Brightness) (0-127): 51
0    |  MIDI Event: Chan 1 Note ON: A3, Velocity (0 - 127): 57
0    |  MIDI Event: Chan 1 Note ON: D4, Velocity (0 - 127): 91
0    |  MIDI Event: Chan 1 Note ON: F#4, Velocity (0 - 127): 77
0    |  MIDI Event: Chan 5 Control/Mode Change: Sound Controller 5 (default: Brightness) (0-127): 51
0    |  MIDI Event: Chan 5 Note ON: D3, Velocity (0 - 127): 109
0    |  MIDI Event: Chan 5 Note ON: F#3, Velocity (0 - 127): 89
0    |  MIDI Event: Chan 5 Note ON: A3, Velocity (0 - 127): 109
15   |  MIDI Event: Chan 1 Control/Mode Change: Sound Controller 5 (default: Brightness) (0-127): 50
0    |  MIDI Event: Chan 5 Control/Mode Change: Sound Controller 5 (default: Brightness) (0-127): 50
14   |  MIDI Event: Chan 5 Note OFF: A3, Velocity (0 - 127): 64
0    |  MIDI Event: Chan 1 Note OFF: D4, Velocity (0 - 127): 64
0    |  MIDI Event: Chan 1 Note OFF: F#4, Velocity (0 - 127): 64
0    |  MIDI Event: Chan 1 Note OFF: A3, Velocity (0 - 127): 64
0    |  MIDI Event: Chan 5 Note OFF: F#3, Velocity (0 - 127): 64
0    |  MIDI Event: Chan 5 Note OFF: D3, Velocity (0 - 127): 64
1    |  MIDI Event: Chan 1 Control/Mode Change: Sound Controller 5 (default: Brightness) (0-127): 49
0    |  MIDI Event: Chan 1 Note ON: F#3, Velocity (0 - 127): 35
0    |  MIDI Event: Chan 1 Note ON: A3, Velocity (0 - 127): 79
0    |  MIDI Event: Chan 1 Note ON: D4, Velocity (0 - 127): 56
0    |  MIDI Event: Chan 5 Control/Mode Change: Sound Controller 5 (default: Brightness) (0-127): 49
0    |  MIDI Event: Chan 5 Note ON: D3, Velocity (0 - 127): 111
0    |  MIDI Event: Chan 5 Note ON: F#3, Velocity (0 - 127): 100
0    |  MIDI Event: Chan 5 Note ON: A3, Velocity (0 - 127): 100
15   |  MIDI Event: Chan 1 Control/Mode Change: Sound Controller 5 (default: Brightness) (0-127): 48
0    |  MIDI Event: Chan 5 Control/Mode Change: Sound Controller 5 (default: Brightness) (0-127): 48
14   |  MIDI Event: Chan 5 Note OFF: A3, Velocity (0 - 127): 64
0    |  MIDI Event: Chan 1 Note OFF: A3, Velocity (0 - 127): 64
0    |  MIDI Event: Chan 1 Note OFF: D4, Velocity (0 - 127): 64
0    |  MIDI Event: Chan 1 Note OFF: F#3, Velocity (0 - 127): 64
0    |  MIDI Event: Chan 5 Note OFF: F#3, Velocity (0 - 127): 64
0    |  MIDI Event: Chan 5 Note OFF: D3, Velocity (0 - 127): 64
1    |  MIDI Event: Chan 1 Control/Mode Change: Sound Controller 5 (default: Brightness) (0-127): 47
0    |  MIDI Event: Chan 1 Note ON: F#3, Velocity (0 - 127): 49
0    |  MIDI Event: Chan 1 Note ON: A3, Velocity (0 - 127): 85
0    |  MIDI Event: Chan 1 Note ON: D4, Velocity (0 - 127): 75
0    |  MIDI Event: Chan 5 Control/Mode Change: Sound Controller 5 (default: Brightness) (0-127): 47
0    |  MIDI Event: Chan 5 Note ON: A2, Velocity (0 - 127): 105
0    |  MIDI Event: Chan 5 Note ON: D3, Velocity (0 - 127): 116
15   |  MIDI Event: Chan 1 Control/Mode Change: Sound Controller 5 (default: Brightness) (0-127): 46
0    |  MIDI Event: Chan 5 Control/Mode Change: Sound Controller 5 (default: Brightness) (0-127): 46
15   |  MIDI Event: Chan 1 Control/Mode Change: Sound Controller 5 (default: Brightness) (0-127): 45
0    |  MIDI Event: Chan 5 Control/Mode Change: Sound Controller 5 (default: Brightness) (0-127): 45
15   |  MIDI Event: Chan 1 Control/Mode Change: Sound Controller 5 (default: Brightness) (0-127): 44
0    |  MIDI Event: Chan 5 Control/Mode Change: Sound Controller 5 (default: Brightness) (0-127): 44
14   |  MIDI Event: Chan 5 Note OFF: D3, Velocity (0 - 127): 64
0    |  MIDI Event: Chan 1 Note OFF: D4, Velocity (0 - 127): 64
0    |  MIDI Event: Chan 1 Note OFF: F#3, Velocity (0 - 127): 64
0    |  MIDI Event: Chan 1 Note OFF: A3, Velocity (0 - 127): 64
0    |  MIDI Event: Chan 5 Note OFF: A2, Velocity (0 - 127): 64
1    |  MIDI Event: Chan 1 Control/Mode Change: Sound Controller 5 (default: Brightness) (0-127): 43
0    |  MIDI Event: Chan 1 Note ON: A3, Velocity (0 - 127): 56
0    |  MIDI Event: Chan 1 Note ON: D4, Velocity (0 - 127): 84
0    |  MIDI Event: Chan 1 Note ON: F#4, Velocity (0 - 127): 49
0    |  MIDI Event: Chan 5 Control/Mode Change: Sound Controller 5 (default: Brightness) (0-127): 43
0    |  MIDI Event: Chan 5 Note ON: D3, Velocity (0 - 127): 105
0    |  MIDI Event: Chan 5 Note ON: F#3, Velocity (0 - 127): 115
15   |  MIDI Event: Chan 1 Control/Mode Change: Sound Controller 5 (default: Brightness) (0-127): 42
0    |  MIDI Event: Chan 5 Control/Mode Change: Sound Controller 5 (default: Brightness) (0-127): 42
14   |  MIDI Event: Chan 5 Note OFF: F#3, Velocity (0 - 127): 64
0    |  MIDI Event: Chan 1 Note OFF: F#4, Velocity (0 - 127): 64
0    |  MIDI Event: Chan 1 Note OFF: A3, Velocity (0 - 127): 64
0    |  MIDI Event: Chan 1 Note OFF: D4, Velocity (0 - 127): 64
0    |  MIDI Event: Chan 5 Note OFF: D3, Velocity (0 - 127): 64
1    |  MIDI Event: Chan 1 Control/Mode Change: Sound Controller 5 (default: Brightness) (0-127): 41
0    |  MIDI Event: Chan 1 Note ON: A3, Velocity (0 - 127): 84
0    |  MIDI Event: Chan 1 Note ON: D4, Velocity (0 - 127): 94
0    |  MIDI Event: Chan 1 Note ON: F#4, Velocity (0 - 127): 76
0    |  MIDI Event: Chan 5 Control/Mode Change: Sound Controller 5 (default: Brightness) (0-127): 41
0    |  MIDI Event: Chan 5 Note ON: D3, Velocity (0 - 127): 100
0    |  MIDI Event: Chan 5 Note ON: F#3, Velocity (0 - 127): 92
15   |  MIDI Event: Chan 1 Control/Mode Change: Sound Controller 5 (default: Brightness) (0-127): 40
0    |  MIDI Event: Chan 5 Control/Mode Change: Sound Controller 5 (default: Brightness) (0-127): 40
14   |  MIDI Event: Chan 5 Note OFF: F#3, Velocity (0 - 127): 64
0    |  MIDI Event: Chan 1 Note OFF: F#4, Velocity (0 - 127): 64
0    |  MIDI Event: Chan 1 Note OFF: A3, Velocity (0 - 127): 64
0    |  MIDI Event: Chan 1 Note OFF: D4, Velocity (0 - 127): 64
0    |  MIDI Event: Chan 5 Note OFF: D3, Velocity (0 - 127): 64
1    |  MIDI Event: Chan 1 Control/Mode Change: Sound Controller 5 (default: Brightness) (0-127): 39
0    |  MIDI Event: Chan 1 Note ON: E3, Velocity (0 - 127): 47
0    |  MIDI Event: Chan 1 Note ON: A3, Velocity (0 - 127): 89
0    |  MIDI Event: Chan 1 Note ON: C#4, Velocity (0 - 127): 52
0    |  MIDI Event: Chan 5 Control/Mode Change: Sound Controller 5 (default: Brightness) (0-127): 39
0    |  MIDI Event: Chan 5 Note ON: A2, Velocity (0 - 127): 101
0    |  MIDI Event: Chan 5 Note ON: E3, Velocity (0 - 127): 101
15   |  MIDI Event: Chan 1 Control/Mode Change: Sound Controller 5 (default: Brightness) (0-127): 38
0    |  MIDI Event: Chan 5 Control/Mode Change: Sound Controller 5 (default: Brightness) (0-127): 38
15   |  MIDI Event: Chan 1 Control/Mode Change: Sound Controller 5 (default: Brightness) (0-127): 37
0    |  MIDI Event: Chan 5 Control/Mode Change: Sound Controller 5 (default: Brightness) (0-127): 37
15   |  MIDI Event: Chan 1 Control/Mode Change: Sound Controller 5 (default: Brightness) (0-127): 36
0    |  MIDI Event: Chan 5 Control/Mode Change: Sound Controller 5 (default: Brightness) (0-127): 36
14   |  MIDI Event: Chan 5 Note OFF: E3, Velocity (0 - 127): 64
0    |  MIDI Event: Chan 1 Note OFF: C#4, Velocity (0 - 127): 64
0    |  MIDI Event: Chan 1 Note OFF: E3, Velocity (0 - 127): 64
0    |  MIDI Event: Chan 1 Note OFF: A3, Velocity (0 - 127): 64
0    |  MIDI Event: Chan 5 Note OFF: A2, Velocity (0 - 127): 64
1    |  MIDI Event: Chan 1 Control/Mode Change: Sound Controller 5 (default: Brightness) (0-127): 35
0    |  MIDI Event: Chan 1 Note ON: A3, Velocity (0 - 127): 51
0    |  MIDI Event: Chan 1 Note ON: C#4, Velocity (0 - 127): 52
0    |  MIDI Event: Chan 1 Note ON: E4, Velocity (0 - 127): 78
0    |  MIDI Event: Chan 5 Control/Mode Change: Sound Controller 5 (default: Brightness) (0-127): 35
0    |  MIDI Event: Chan 5 Note ON: C#3, Velocity (0 - 127): 89
0    |  MIDI Event: Chan 5 Note ON: E3, Velocity (0 - 127): 101
0    |  MIDI Event: Chan 5 Note ON: A3, Velocity (0 - 127): 89
15   |  MIDI Event: Chan 1 Control/Mode Change: Sound Controller 5 (default: Brightness) (0-127): 34
0    |  MIDI Event: Chan 5 Control/Mode Change: Sound Controller 5 (default: Brightness) (0-127): 34
14   |  MIDI Event: Chan 5 Note OFF: A3, Velocity (0 - 127): 64
0    |  MIDI Event: Chan 1 Note OFF: C#4, Velocity (0 - 127): 64
0    |  MIDI Event: Chan 1 Note OFF: E4, Velocity (0 - 127): 64
0    |  MIDI Event: Chan 1 Note OFF: A3, Velocity (0 - 127): 64
0    |  MIDI Event: Chan 5 Note OFF: E3, Velocity (0 - 127): 64
0    |  MIDI Event: Chan 5 Note OFF: C#3, Velocity (0 - 127): 64
1    |  MIDI Event: Chan 1 Control/Mode Change: Sound Controller 5 (default: Brightness) (0-127): 33
0    |  MIDI Event: Chan 1 Note ON: A3, Velocity (0 - 127): 73
0    |  MIDI Event: Chan 1 Note ON: C#4, Velocity (0 - 127): 52
0    |  MIDI Event: Chan 1 Note ON: E4, Velocity (0 - 127): 83
0    |  MIDI Event: Chan 5 Control/Mode Change: Sound Controller 5 (default: Brightness) (0-127): 33
0    |  MIDI Event: Chan 5 Note ON: C#3, Velocity (0 - 127): 119
0    |  MIDI Event: Chan 5 Note ON: E3, Velocity (0 - 127): 118
0    |  MIDI Event: Chan 5 Note ON: A3, Velocity (0 - 127): 105
29   |  MIDI Event: Chan 5 Note OFF: A3, Velocity (0 - 127): 64
0    |  MIDI Event: Chan 1 Note OFF: C#4, Velocity (0 - 127): 64
0    |  MIDI Event: Chan 1 Note OFF: E4, Velocity (0 - 127): 64
0    |  MIDI Event: Chan 1 Note OFF: A3, Velocity (0 - 127): 64
0    |  MIDI Event: Chan 5 Note OFF: E3, Velocity (0 - 127): 64
0    |  MIDI Event: Chan 5 Note OFF: C#3, Velocity (0 - 127): 64
1    |  MIDI Event: Chan 1 Note ON: B3, Velocity (0 - 127): 58
0    |  MIDI Event: Chan 1 Note ON: D4, Velocity (0 - 127): 91
0    |  MIDI Event: Chan 5 Note ON: B2, Velocity (0 - 127): 85
0    |  MIDI Event: Chan 5 Note ON: F#3, Velocity (0 - 127): 120
59   |  MIDI Event: Chan 5 Note OFF: F#3, Velocity (0 - 127): 64
0    |  MIDI Event: Chan 1 Note OFF: B3, Velocity (0 - 127): 64
0    |  MIDI Event: Chan 1 Note OFF: D4, Velocity (0 - 127): 64
0    |  MIDI Event: Chan 5 Note OFF: B2, Velocity (0 - 127): 64
1    |  MIDI Event: Chan 1 Note ON: B3, Velocity (0 - 127): 79
0    |  MIDI Event: Chan 1 Note ON: D4, Velocity (0 - 127): 95
0    |  MIDI Event: Chan 1 Note ON: F#4, Velocity (0 - 127): 74
0    |  MIDI Event: Chan 5 Note ON: D3, Velocity (0 - 127): 92
0    |  MIDI Event: Chan 5 Note ON: F#3, Velocity (0 - 127): 87
0    |  MIDI Event: Chan 5 Note ON: D4, Velocity (0 - 127): 95
60   |  MIDI Event: Chan 4 Note ON: B3, Velocity (0 - 127): 120
0    |  Meta Event: Lyric: Fee
29   |  MIDI Event: Chan 4 Note OFF: B3, Velocity (0 - 127): 64
0    |  MIDI Event: Chan 5 Note OFF: F#3, Velocity (0 - 127): 64
0    |  MIDI Event: Chan 1 Note OFF: D4, Velocity (0 - 127): 64
0    |  MIDI Event: Chan 1 Note OFF: F#4, Velocity (0 - 127): 64
0    |  MIDI Event: Chan 1 Note OFF: B3, Velocity (0 - 127): 64
0    |  MIDI Event: Chan 5 Note OFF: D4, Velocity (0 - 127): 64
0    |  MIDI Event: Chan 5 Note OFF: D3, Velocity (0 - 127): 64
1    |  MIDI Event: Chan 1 Note ON: B3, Velocity (0 - 127): 71
0    |  MIDI Event: Chan 1 Note ON: D4, Velocity (0 - 127): 91
0    |  MIDI Event: Chan 1 Note ON: F#4, Velocity (0 - 127): 60
0    |  MIDI Event: Chan 4 Note ON: B3, Velocity (0 - 127): 109
0    |  MIDI Event: Chan 5 Note ON: F#3, Velocity (0 - 127): 109
0    |  MIDI Event: Chan 5 Note ON: B3, Velocity (0 - 127): 95
0    |  Meta Event: Lyric: ling 
29   |  MIDI Event: Chan 5 Note OFF: B3, Velocity (0 - 127): 64
0    |  MIDI Event: Chan 1 Note OFF: D4, Velocity (0 - 127): 64
0    |  MIDI Event: Chan 1 Note OFF: F#4, Velocity (0 - 127): 64
0    |  MIDI Event: Chan 1 Note OFF: B3, Velocity (0 - 127): 64
0    |  MIDI Event: Chan 5 Note OFF: F#3, Velocity (0 - 127): 64
0    |  MIDI Event: Chan 4 Note OFF: B3, Velocity (0 - 127): 64
1    |  MIDI Event: Chan 1 Note ON: D4, Velocity (0 - 127): 80
0    |  MIDI Event: Chan 1 Note ON: F#4, Velocity (0 - 127): 62
0    |  MIDI Event: Chan 1 Note ON: B4, Velocity (0 - 127): 91
0    |  MIDI Event: Chan 5 Note ON: D3, Velocity (0 - 127): 103
0    |  MIDI Event: Chan 5 Note ON: F#3, Velocity (0 - 127): 115
29   |  MIDI Event: Chan 5 Note OFF: F#3, Velocity (0 - 127): 64
0    |  MIDI Event: Chan 1 Note OFF: B4, Velocity (0 - 127): 64
0    |  MIDI Event: Chan 1 Note OFF: D4, Velocity (0 - 127): 64
0    |  MIDI Event: Chan 1 Note OFF: F#4, Velocity (0 - 127): 64
0    |  MIDI Event: Chan 5 Note OFF: D3, Velocity (0 - 127): 64
1    |  MIDI Event: Chan 1 Note ON: B3, Velocity (0 - 127): 51
0    |  MIDI Event: Chan 1 Note ON: D4, Velocity (0 - 127): 85
0    |  MIDI Event: Chan 1 Note ON: F#4, Velocity (0 - 127): 59
0    |  MIDI Event: Chan 4 Note ON: B3, Velocity (0 - 127): 118
0    |  MIDI Event: Chan 5 Note ON: B2, Velocity (0 - 127): 92
0    |  MIDI Event: Chan 5 Note ON: E3, Velocity (0 - 127): 98
0    |  Meta Event: Lyric: my 
29   |  MIDI Event: Chan 5 Note OFF: E3, Velocity (0 - 127): 64
0    |  MIDI Event: Chan 1 Note OFF: D4, Velocity (0 - 127): 64
0    |  MIDI Event: Chan 1 Note OFF: F#4, Velocity (0 - 127): 64
0    |  MIDI Event: Chan 1 Note OFF: B3, Velocity (0 - 127): 64
0    |  MIDI Event: Chan 5 Note OFF: B2, Velocity (0 - 127): 64
0    |  MIDI Event: Chan 4 Note OFF: B3, Velocity (0 - 127): 64
1    |  MIDI Event: Chan 1 Note ON: G3, Velocity (0 - 127): 74
0    |  MIDI Event: Chan 1 Note ON: B3, Velocity (0 - 127): 94
0    |  MIDI Event: Chan 1 Note ON: D4, Velocity (0 - 127): 91
0    |  MIDI Event: Chan 4 Note ON: B3, Velocity (0 - 127): 120
0    |  MIDI Event: Chan 5 Note ON: G2, Velocity (0 - 127): 98
0    |  MIDI Event: Chan 5 Note ON: D3, Velocity (0 - 127): 116
0    |  Meta Event: Lyric: way 
59   |  MIDI Event: Chan 5 Note OFF: D3, Velocity (0 - 127): 64
0    |  MIDI Event: Chan 1 Note OFF: B3, Velocity (0 - 127): 64
0    |  MIDI Event: Chan 1 Note OFF: D4, Velocity (0 - 127): 64
0    |  MIDI Event: Chan 1 Note OFF: G3, Velocity (0 - 127): 64
0    |  MIDI Event: Chan 5 Note OFF: G2, Velocity (0 - 127): 64
0    |  MIDI Event: Chan 4 Note OFF: B3, Velocity (0 - 127): 64
1    |  MIDI Event: Chan 1 Note ON: B3, Velocity (0 - 127): 70
0    |  MIDI Event: Chan 1 Note ON: D4, Velocity (0 - 127): 94
0    |  MIDI Event: Chan 1 Note ON: G4, Velocity (0 - 127): 101
0    |  MIDI Event: Chan 5 Note ON: D3, Velocity (0 - 127): 79
0    |  MIDI Event: Chan 5 Note ON: G3, Velocity (0 - 127): 111
0    |  MIDI Event: Chan 5 Note ON: B3, Velocity (0 - 127): 100
60   |  MIDI Event: Chan 4 Note ON: A3, Velocity (0 - 127): 119
0    |  Meta Event: Lyric: through 
29   |  MIDI Event: Chan 5 Note OFF: B3, Velocity (0 - 127): 64
0    |  MIDI Event: Chan 5 Note OFF: D3, Velocity (0 - 127): 64
0    |  MIDI Event: Chan 1 Note OFF: D4, Velocity (0 - 127): 64
0    |  MIDI Event: Chan 1 Note OFF: G4, Velocity (0 - 127): 64
0    |  MIDI Event: Chan 1 Note OFF: B3, Velocity (0 - 127): 64
0    |  MIDI Event: Chan 5 Note OFF: G3, Velocity (0 - 127): 64
1    |  MIDI Event: Chan 1 Note ON: B3, Velocity (0 - 127): 52
0    |  MIDI Event: Chan 1 Note ON: D4, Velocity (0 - 127): 85
0    |  MIDI Event: Chan 1 Note ON: G4, Velocity (0 - 127): 94
0    |  MIDI Event: Chan 5 Note ON: D3, Velocity (0 - 127): 82
0    |  MIDI Event: Chan 5 Note ON: G3, Velocity (0 - 127): 98
0    |  MIDI Event: Chan 5 Note ON: B3, Velocity (0 - 127): 85
29   |  MIDI Event: Chan 5 Note OFF: B3, Velocity (0 - 127): 64
0    |  MIDI Event: Chan 5 Note OFF: D3, Velocity (0 - 127): 64
0    |  MIDI Event: Chan 1 Note OFF: B3, Velocity (0 - 127): 64
0    |  MIDI Event: Chan 1 Note OFF: D4, Velocity (0 - 127): 64
0    |  MIDI Event: Chan 1 Note OFF: G4, Velocity (0 - 127): 64
0    |  MIDI Event: Chan 5 Note OFF: G3, Velocity (0 - 127): 64
1    |  MIDI Event: Chan 1 Note ON: D4, Velocity (0 - 127): 78
0    |  MIDI Event: Chan 1 Note ON: G4, Velocity (0 - 127): 100
0    |  MIDI Event: Chan 1 Note ON: B4, Velocity (0 - 127): 46
0    |  MIDI Event: Chan 5 Note ON: G2, Velocity (0 - 127): 109
0    |  MIDI Event: Chan 5 Note ON: D3, Velocity (0 - 127): 109
29   |  MIDI Event: Chan 5 Note OFF: D3, Velocity (0 - 127): 64
0    |  MIDI Event: Chan 1 Note OFF: D4, Velocity (0 - 127): 64
0    |  MIDI Event: Chan 1 Note OFF: G4, Velocity (0 - 127): 64
0    |  MIDI Event: Chan 4 Note OFF: A3, Velocity (0 - 127): 64
0    |  MIDI Event: Chan 5 Note OFF: G2, Velocity (0 - 127): 64
0    |  MIDI Event: Chan 1 Note OFF: B4, Velocity (0 - 127): 64
1    |  MIDI Event: Chan 1 Note ON: B3, Velocity (0 - 127): 45
0    |  MIDI Event: Chan 1 Note ON: D4, Velocity (0 - 127): 73
0    |  MIDI Event: Chan 1 Note ON: G4, Velocity (0 - 127): 86
0    |  MIDI Event: Chan 4 Note ON: F#3, Velocity (0 - 127): 115
0    |  MIDI Event: Chan 5 Note ON: G2, Velocity (0 - 127): 101
0    |  MIDI Event: Chan 5 Note ON: E3, Velocity (0 - 127): 116
0    |  Meta Event: Lyric: the 
29   |  MIDI Event: Chan 5 Note OFF: E3, Velocity (0 - 127): 64
0    |  MIDI Event: Chan 1 Note OFF: D4, Velocity (0 - 127): 64
0    |  MIDI Event: Chan 1 Note OFF: G4, Velocity (0 - 127): 64
0    |  MIDI Event: Chan 1 Note OFF: B3, Velocity (0 - 127): 64
0    |  MIDI Event: Chan 5 Note OFF: G2, Velocity (0 - 127): 64
0    |  MIDI Event: Chan 4 Note OFF: F#3, Velocity (0 - 127): 64
1    |  MIDI Event: Chan 1 Note ON: F#3, Velocity (0 - 127): 35
0    |  MIDI Event: Chan 1 Note ON: A3, Velocity (0 - 127): 85
0    |  MIDI Event: Chan 1 Note ON: D4, Velocity (0 - 127): 79
0    |  MIDI Event: Chan 4 Note ON: A3, Velocity (0 - 127): 116
0    |  MIDI Event: Chan 5 Note ON: A2, Velocity (0 - 127): 90
0    |  MIDI Event: Chan 5 Note ON: D3, Velocity (0 - 127): 105
0    |  Meta Event: Lyric: dark
59   |  MIDI Event: Chan 5 Note OFF: D3, Velocity (0 - 127): 64
0    |  MIDI Event: Chan 1 Note OFF: A3, Velocity (0 - 127): 64
0    |  MIDI Event: Chan 1 Note OFF: F#3, Velocity (0 - 127): 64
0    |  MIDI Event: Chan 1 Note OFF: D4, Velocity (0 - 127): 64
0    |  MIDI Event: Chan 5 Note OFF: A2, Velocity (0 - 127): 64
1    |  MIDI Event: Chan 1 Note ON: A3, Velocity (0 - 127): 69
0    |  MIDI Event: Chan 1 Note ON: D4, Velocity (0 - 127): 98
0    |  MIDI Event: Chan 1 Note ON: F#4, Velocity (0 - 127): 74
0    |  MIDI Event: Chan 5 Note ON: A2, Velocity (0 - 127): 100
0    |  MIDI Event: Chan 5 Note ON: D3, Velocity (0 - 127): 111
0    |  MIDI Event: Chan 5 Note ON: F#3, Velocity (0 - 127): 89
29   |  MIDI Event: Chan 4 Note OFF: A3, Velocity (0 - 127): 64
31   |  MIDI Event: Chan 4 Note ON: D3, Velocity (0 - 127): 120
0    |  Meta Event: Lyric: ness 
0    |  Meta Event: Lyric: 
29   |  MIDI Event: Chan 5 Note OFF: D3, Velocity (0 - 127): 64
0    |  MIDI Event: Chan 5 Note OFF: A2, Velocity (0 - 127): 64
0    |  MIDI Event: Chan 1 Note OFF: D4, Velocity (0 - 127): 64
0    |  MIDI Event: Chan 1 Note OFF: F#4, Velocity (0 - 127): 64
0    |  MIDI Event: Chan 1 Note OFF: A3, Velocity (0 - 127): 64
0    |  MIDI Event: Chan 5 Note OFF: F#3, Velocity (0 - 127): 64
1    |  MIDI Event: Chan 1 Note ON: F#3, Velocity (0 - 127): 44
0    |  MIDI Event: Chan 1 Note ON: A3, Velocity (0 - 127): 78
0    |  MIDI Event: Chan 1 Note ON: D4, Velocity (0 - 127): 58
0    |  MIDI Event: Chan 5 Note ON: A2, Velocity (0 - 127): 85
0    |  MIDI Event: Chan 5 Note ON: D3, Velocity (0 - 127): 105
0    |  MIDI Event: Chan 5 Note ON: F#3, Velocity (0 - 127): 81
29   |  MIDI Event: Chan 5 Note OFF: F#3, Velocity (0 - 127): 64
0    |  MIDI Event: Chan 5 Note OFF: A2, Velocity (0 - 127): 64
0    |  MIDI Event: Chan 1 Note OFF: F#3, Velocity (0 - 127): 64
0    |  MIDI Event: Chan 1 Note OFF: A3, Velocity (0 - 127): 64
0    |  MIDI Event: Chan 1 Note OFF: D4, Velocity (0 - 127): 64
0    |  MIDI Event: Chan 5 Note OFF: D3, Velocity (0 - 127): 64
1    |  MIDI Event: Chan 1 Note ON: A3, Velocity (0 - 127): 57
0    |  MIDI Event: Chan 1 Note ON: D4, Velocity (0 - 127): 91
0    |  MIDI Event: Chan 1 Note ON: F#4, Velocity (0 - 127): 77
0    |  MIDI Event: Chan 5 Note ON: D3, Velocity (0 - 127): 109
0    |  MIDI Event: Chan 5 Note ON: F#3, Velocity (0 - 127): 89
0    |  MIDI Event: Chan 5 Note ON: A3, Velocity (0 - 127): 109
29   |  MIDI Event: Chan 5 Note OFF: A3, Velocity (0 - 127): 64
0    |  MIDI Event: Chan 5 Note OFF: D3, Velocity (0 - 127): 64
0    |  MIDI Event: Chan 1 Note OFF: A3, Velocity (0 - 127): 64
0    |  MIDI Event: Chan 1 Note OFF: D4, Velocity (0 - 127): 64
0    |  MIDI Event: Chan 1 Note OFF: F#4, Velocity (0 - 127): 64
0    |  MIDI Event: Chan 5 Note OFF: F#3, Velocity (0 - 127): 64
1    |  MIDI Event: Chan 1 Note ON: F#3, Velocity (0 - 127): 35
0    |  MIDI Event: Chan 1 Note ON: A3, Velocity (0 - 127): 79
0    |  MIDI Event: Chan 1 Note ON: D4, Velocity (0 - 127): 56
0    |  MIDI Event: Chan 5 Note ON: D3, Velocity (0 - 127): 111
0    |  MIDI Event: Chan 5 Note ON: F#3, Velocity (0 - 127): 100
0    |  MIDI Event: Chan 5 Note ON: A3, Velocity (0 - 127): 100
29   |  MIDI Event: Chan 5 Note OFF: A3, Velocity (0 - 127): 64
0    |  MIDI Event: Chan 5 Note OFF: D3, Velocity (0 - 127): 64
0    |  MIDI Event: Chan 1 Note OFF: F#3, Velocity (0 - 127): 64
0    |  MIDI Event: Chan 1 Note OFF: A3, Velocity (0 - 127): 64
0    |  MIDI Event: Chan 4 Note OFF: D3, Velocity (0 - 127): 64
0    |  MIDI Event: Chan 5 Note OFF: F#3, Velocity (0 - 127): 64
0    |  MIDI Event: Chan 1 Note OFF: D4, Velocity (0 - 127): 64
1    |  MIDI Event: Chan 1 Note ON: F#3, Velocity (0 - 127): 35
0    |  MIDI Event: Chan 1 Note ON: A3, Velocity (0 - 127): 85
0    |  MIDI Event: Chan 1 Note ON: D4, Velocity (0 - 127): 79
0    |  MIDI Event: Chan 5 Note ON: A2, Velocity (0 - 127): 90
0    |  MIDI Event: Chan 5 Note ON: D3, Velocity (0 - 127): 105
57   |  MIDI Event: Chan 1 Control/Mode Change: Sound Controller 5 (default: Brightness) (0-127): 34
0    |  MIDI Event: Chan 5 Control/Mode Change: Sound Controller 5 (default: Brightness) (0-127): 34
2    |  MIDI Event: Chan 5 Note OFF: D3, Velocity (0 - 127): 64
0    |  MIDI Event: Chan 1 Note OFF: D4, Velocity (0 - 127): 64
0    |  MIDI Event: Chan 1 Note OFF: F#3, Velocity (0 - 127): 64
0    |  MIDI Event: Chan 1 Note OFF: A3, Velocity (0 - 127): 64
0    |  MIDI Event: Chan 5 Note OFF: A2, Velocity (0 - 127): 64
1    |  MIDI Event: Chan 1 Note ON: A3, Velocity (0 - 127): 69
0    |  MIDI Event: Chan 1 Note ON: D4, Velocity (0 - 127): 98
0    |  MIDI Event: Chan 1 Note ON: F#4, Velocity (0 - 127): 74
0    |  MIDI Event: Chan 5 Note ON: A2, Velocity (0 - 127): 100
0    |  MIDI Event: Chan 5 Note ON: D3, Velocity (0 - 127): 111
0    |  MIDI Event: Chan 5 Note ON: F#3, Velocity (0 - 127): 89
89   |  MIDI Event: Chan 5 Note OFF: F#3, Velocity (0 - 127): 64
0    |  MIDI Event: Chan 1 Note OFF: D4, Velocity (0 - 127): 64
0    |  MIDI Event: Chan 1 Note OFF: F#4, Velocity (0 - 127): 64
0    |  MIDI Event: Chan 1 Note OFF: A3, Velocity (0 - 127): 64
0    |  MIDI Event: Chan 5 Note OFF: D3, Velocity (0 - 127): 64
0    |  MIDI Event: Chan 5 Note OFF: A2, Velocity (0 - 127): 64
1    |  MIDI Event: Chan 1 Note ON: F#3, Velocity (0 - 127): 44
0    |  MIDI Event: Chan 1 Note ON: A3, Velocity (0 - 127): 78
0    |  MIDI Event: Chan 1 Note ON: D4, Velocity (0 - 127): 58
0    |  MIDI Event: Chan 5 Note ON: A2, Velocity (0 - 127): 85
0    |  MIDI Event: Chan 5 Note ON: D3, Velocity (0 - 127): 105
0    |  MIDI Event: Chan 5 Note ON: F#3, Velocity (0 - 127): 81
29   |  MIDI Event: Chan 5 Note OFF: F#3, Velocity (0 - 127): 64
0    |  MIDI Event: Chan 1 Note OFF: A3, Velocity (0 - 127): 64
0    |  MIDI Event: Chan 1 Note OFF: D4, Velocity (0 - 127): 64
0    |  MIDI Event: Chan 1 Note OFF: F#3, Velocity (0 - 127): 64
0    |  MIDI Event: Chan 5 Note OFF: D3, Velocity (0 - 127): 64
0    |  MIDI Event: Chan 5 Note OFF: A2, Velocity (0 - 127): 64
1    |  MIDI Event: Chan 1 Note ON: A3, Velocity (0 - 127): 57
0    |  MIDI Event: Chan 1 Note ON: D4, Velocity (0 - 127): 91
0    |  MIDI Event: Chan 1 Note ON: F#4, Velocity (0 - 127): 77
0    |  MIDI Event: Chan 5 Note ON: D3, Velocity (0 - 127): 109
0    |  MIDI Event: Chan 5 Note ON: F#3, Velocity (0 - 127): 89
0    |  MIDI Event: Chan 5 Note ON: A3, Velocity (0 - 127): 109
29   |  MIDI Event: Chan 5 Note OFF: A3, Velocity (0 - 127): 64
0    |  MIDI Event: Chan 1 Note OFF: D4, Velocity (0 - 127): 64
0    |  MIDI Event: Chan 1 Note OFF: F#4, Velocity (0 - 127): 64
0    |  MIDI Event: Chan 1 Note OFF: A3, Velocity (0 - 127): 64
0    |  MIDI Event: Chan 5 Note OFF: F#3, Velocity (0 - 127): 64
0    |  MIDI Event: Chan 5 Note OFF: D3, Velocity (0 - 127): 64
1    |  MIDI Event: Chan 1 Note ON: F#3, Velocity (0 - 127): 35
0    |  MIDI Event: Chan 1 Note ON: A3, Velocity (0 - 127): 79
0    |  MIDI Event: Chan 1 Note ON: D4, Velocity (0 - 127): 56
0    |  MIDI Event: Chan 5 Note ON: D3, Velocity (0 - 127): 111
0    |  MIDI Event: Chan 5 Note ON: F#3, Velocity (0 - 127): 100
0    |  MIDI Event: Chan 5 Note ON: A3, Velocity (0 - 127): 100
4    |  MIDI Event: Chan 1 Control/Mode Change: Sound Controller 5 (default: Brightness) (0-127): 35
0    |  MIDI Event: Chan 5 Control/Mode Change: Sound Controller 5 (default: Brightness) (0-127): 35
25   |  MIDI Event: Chan 5 Note OFF: A3, Velocity (0 - 127): 64
0    |  MIDI Event: Chan 1 Note OFF: A3, Velocity (0 - 127): 64
0    |  MIDI Event: Chan 1 Note OFF: D4, Velocity (0 - 127): 64
0    |  MIDI Event: Chan 1 Note OFF: F#3, Velocity (0 - 127): 64
0    |  MIDI Event: Chan 5 Note OFF: F#3, Velocity (0 - 127): 64
0    |  MIDI Event: Chan 5 Note OFF: D3, Velocity (0 - 127): 64
1    |  MIDI Event: Chan 1 Note ON: B3, Velocity (0 - 127): 58
0    |  MIDI Event: Chan 1 Note ON: D4, Velocity (0 - 127): 91
0    |  MIDI Event: Chan 5 Note ON: B2, Velocity (0 - 127): 85
0    |  MIDI Event: Chan 5 Note ON: F#3, Velocity (0 - 127): 120
59   |  MIDI Event: Chan 5 Note OFF: F#3, Velocity (0 - 127): 64
0    |  MIDI Event: Chan 1 Note OFF: B3, Velocity (0 - 127): 64
0    |  MIDI Event: Chan 1 Note OFF: D4, Velocity (0 - 127): 64
0    |  MIDI Event: Chan 5 Note OFF: B2, Velocity (0 - 127): 64
1    |  MIDI Event: Chan 1 Note ON: B3, Velocity (0 - 127): 79
0    |  MIDI Event: Chan 1 Note ON: D4, Velocity (0 - 127): 95
0    |  MIDI Event: Chan 1 Note ON: F#4, Velocity (0 - 127): 74
0    |  MIDI Event: Chan 5 Note ON: D3, Velocity (0 - 127): 92
0    |  MIDI Event: Chan 5 Note ON: F#3, Velocity (0 - 127): 87
0    |  MIDI Event: Chan 5 Note ON: D4, Velocity (0 - 127): 95
60   |  MIDI Event: Chan 4 Note ON: B3, Velocity (0 - 127): 109
0    |  Meta Event: Lyric: Gui
10   |  MIDI Event: Chan 1 Control/Mode Change: Sound Controller 5 (default: Brightness) (0-127): 36
0    |  MIDI Event: Chan 5 Control/Mode Change: Sound Controller 5 (default: Brightness) (0-127): 36
19   |  MIDI Event: Chan 4 Note OFF: B3, Velocity (0 - 127): 64
0    |  MIDI Event: Chan 5 Note OFF: F#3, Velocity (0 - 127): 64
0    |  MIDI Event: Chan 1 Note OFF: D4, Velocity (0 - 127): 64
0    |  MIDI Event: Chan 1 Note OFF: F#4, Velocity (0 - 127): 64
0    |  MIDI Event: Chan 1 Note OFF: B3, Velocity (0 - 127): 64
0    |  MIDI Event: Chan 5 Note OFF: D4, Velocity (0 - 127): 64
0    |  MIDI Event: Chan 5 Note OFF: D3, Velocity (0 - 127): 64
1    |  MIDI Event: Chan 1 Note ON: B3, Velocity (0 - 127): 71
0    |  MIDI Event: Chan 1 Note ON: D4, Velocity (0 - 127): 91
0    |  MIDI Event: Chan 1 Note ON: F#4, Velocity (0 - 127): 60
0    |  MIDI Event: Chan 5 Note ON: F#3, Velocity (0 - 127): 109
0    |  MIDI Event: Chan 5 Note ON: B3, Velocity (0 - 127): 95
29   |  MIDI Event: Chan 5 Note OFF: B3, Velocity (0 - 127): 64
0    |  MIDI Event: Chan 1 Note OFF: F#4, Velocity (0 - 127): 64
0    |  MIDI Event: Chan 1 Note OFF: B3, Velocity (0 - 127): 64
0    |  MIDI Event: Chan 1 Note OFF: D4, Velocity (0 - 127): 64
0    |  MIDI Event: Chan 5 Note OFF: F#3, Velocity (0 - 127): 64
1    |  MIDI Event: Chan 1 Note ON: D4, Velocity (0 - 127): 80
0    |  MIDI Event: Chan 1 Note ON: F#4, Velocity (0 - 127): 62
0    |  MIDI Event: Chan 1 Note ON: B4, Velocity (0 - 127): 91
0    |  MIDI Event: Chan 4 Note ON: B3, Velocity (0 - 127): 105
0    |  MIDI Event: Chan 5 Note ON: D3, Velocity (0 - 127): 103
0    |  MIDI Event: Chan 5 Note ON: F#3, Velocity (0 - 127): 115
0    |  Meta Event: Lyric: ded 
29   |  MIDI Event: Chan 5 Note OFF: F#3, Velocity (0 - 127): 64
0    |  MIDI Event: Chan 1 Note OFF: F#4, Velocity (0 - 127): 64
0    |  MIDI Event: Chan 1 Note OFF: D4, Velocity (0 - 127): 64
0    |  MIDI Event: Chan 1 Note OFF: B4, Velocity (0 - 127): 64
0    |  MIDI Event: Chan 5 Note OFF: D3, Velocity (0 - 127): 64
1    |  MIDI Event: Chan 1 Note ON: B3, Velocity (0 - 127): 51
0    |  MIDI Event: Chan 1 Note ON: D4, Velocity (0 - 127): 85
0    |  MIDI Event: Chan 1 Note ON: F#4, Velocity (0 - 127): 59
0    |  MIDI Event: Chan 5 Note ON: B2, Velocity (0 - 127): 92
0    |  MIDI Event: Chan 5 Note ON: E3, Velocity (0 - 127): 98
29   |  MIDI Event: Chan 5 Note OFF: E3, Velocity (0 - 127): 64
0    |  MIDI Event: Chan 1 Note OFF: B3, Velocity (0 - 127): 64
0    |  MIDI Event: Chan 1 Note OFF: D4, Velocity (0 - 127): 64
0    |  MIDI Event: Chan 4 Note OFF: B3, Velocity (0 - 127): 64
0    |  MIDI Event: Chan 5 Note OFF: B2, Velocity (0 - 127): 64
0    |  MIDI Event: Chan 1 Note OFF: F#4, Velocity (0 - 127): 64
1    |  MIDI Event: Chan 1 Note ON: G3, Velocity (0 - 127): 74
0    |  MIDI Event: Chan 1 Note ON: B3, Velocity (0 - 127): 94
0    |  MIDI Event: Chan 1 Note ON: D4, Velocity (0 - 127): 91
0    |  MIDI Event: Chan 4 Note ON: B3, Velocity (0 - 127): 111
0    |  MIDI Event: Chan 5 Note ON: G2, Velocity (0 - 127): 98
0    |  MIDI Event: Chan 5 Note ON: D3, Velocity (0 - 127): 116
0    |  Meta Event: Lyric: by 
46   |  MIDI Event: Chan 1 Control/Mode Change: Sound Controller 5 (default: Brightness) (0-127): 37
0    |  MIDI Event: Chan 5 Control/Mode Change: Sound Controller 5 (default: Brightness) (0-127): 37
13   |  MIDI Event: Chan 5 Note OFF: D3, Velocity (0 - 127): 64
0    |  MIDI Event: Chan 1 Note OFF: B3, Velocity (0 - 127): 64
0    |  MIDI Event: Chan 1 Note OFF: D4, Velocity (0 - 127): 64
0    |  MIDI Event: Chan 1 Note OFF: G3, Velocity (0 - 127): 64
0    |  MIDI Event: Chan 5 Note OFF: G2, Velocity (0 - 127): 64
0    |  MIDI Event: Chan 4 Note OFF: B3, Velocity (0 - 127): 64
1    |  MIDI Event: Chan 1 Note ON: B3, Velocity (0 - 127): 70
0    |  MIDI Event: Chan 1 Note ON: D4, Velocity (0 - 127): 94
0    |  MIDI Event: Chan 1 Note ON: G4, Velocity (0 - 127): 101
0    |  MIDI Event: Chan 4 Note ON: A3, Velocity (0 - 127): 100
0    |  MIDI Event: Chan 5 Note ON: D3, Velocity (0 - 127): 79
0    |  MIDI Event: Chan 5 Note ON: G3, Velocity (0 - 127): 111
0    |  MIDI Event: Chan 5 Note ON: B3, Velocity (0 - 127): 100
0    |  Meta Event: Lyric: a 
59   |  MIDI Event: Chan 4 Note OFF: A3, Velocity (0 - 127): 64
1    |  MIDI Event: Chan 4 Note ON: A3, Velocity (0 - 127): 109
0    |  Meta Event: Lyric: bea
29   |  MIDI Event: Chan 5 Note OFF: G3, Velocity (0 - 127): 64
0    |  MIDI Event: Chan 5 Note OFF: D3, Velocity (0 - 127): 64
0    |  MIDI Event: Chan 1 Note OFF: D4, Velocity (0 - 127): 64
0    |  MIDI Event: Chan 1 Note OFF: G4, Velocity (0 - 127): 64
0    |  MIDI Event: Chan 1 Note OFF: B3, Velocity (0 - 127): 64
0    |  MIDI Event: Chan 5 Note OFF: B3, Velocity (0 - 127): 64
1    |  MIDI Event: Chan 1 Note ON: B3, Velocity (0 - 127): 52
0    |  MIDI Event: Chan 1 Note ON: D4, Velocity (0 - 127): 85
0    |  MIDI Event: Chan 1 Note ON: G4, Velocity (0 - 127): 94
0    |  MIDI Event: Chan 5 Note ON: D3, Velocity (0 - 127): 82
0    |  MIDI Event: Chan 5 Note ON: G3, Velocity (0 - 127): 98
0    |  MIDI Event: Chan 5 Note ON: B3, Velocity (0 - 127): 85
29   |  MIDI Event: Chan 5 Note OFF: B3, Velocity (0 - 127): 64
0    |  MIDI Event: Chan 5 Note OFF: D3, Velocity (0 - 127): 64
0    |  MIDI Event: Chan 1 Note OFF: B3, Velocity (0 - 127): 64
0    |  MIDI Event: Chan 1 Note OFF: D4, Velocity (0 - 127): 64
0    |  MIDI Event: Chan 4 Note OFF: A3, Velocity (0 - 127): 64
0    |  MIDI Event: Chan 5 Note OFF: G3, Velocity (0 - 127): 64
0    |  MIDI Event: Chan 1 Note OFF: G4, Velocity (0 - 127): 64
1    |  MIDI Event: Chan 1 Note ON: D4, Velocity (0 - 127): 78
0    |  MIDI Event: Chan 1 Note ON: G4, Velocity (0 - 127): 100
0    |  MIDI Event: Chan 1 Note ON: B4, Velocity (0 - 127): 46
0    |  MIDI Event: Chan 4 Note ON: F#3, Velocity (0 - 127): 89
0    |  MIDI Event: Chan 5 Note ON: G2, Velocity (0 - 127): 109
0    |  MIDI Event: Chan 5 Note ON: D3, Velocity (0 - 127): 109
0    |  Meta Event: Lyric: ting 
22   |  MIDI Event: Chan 1 Control/Mode Change: Sound Controller 5 (default: Brightness) (0-127): 38
0    |  MIDI Event: Chan 5 Control/Mode Change: Sound Controller 5 (default: Brightness) (0-127): 38
7    |  MIDI Event: Chan 5 Note OFF: D3, Velocity (0 - 127): 64
0    |  MIDI Event: Chan 1 Note OFF: G4, Velocity (0 - 127): 64
0    |  MIDI Event: Chan 1 Note OFF: B4, Velocity (0 - 127): 64
0    |  MIDI Event: Chan 1 Note OFF: D4, Velocity (0 - 127): 64
0    |  MIDI Event: Chan 5 Note OFF: G2, Velocity (0 - 127): 64
0    |  MIDI Event: Chan 4 Note OFF: F#3, Velocity (0 - 127): 64
1    |  MIDI Event: Chan 1 Note ON: B3, Velocity (0 - 127): 45
0    |  MIDI Event: Chan 1 Note ON: D4, Velocity (0 - 127): 73
0    |  MIDI Event: Chan 1 Note ON: G4, Velocity (0 - 127): 86
0    |  MIDI Event: Chan 5 Note ON: G2, Velocity (0 - 127): 101
0    |  MIDI Event: Chan 5 Note ON: E3, Velocity (0 - 127): 116
29   |  MIDI Event: Chan 5 Note OFF: E3, Velocity (0 - 127): 64
0    |  MIDI Event: Chan 1 Note OFF: G4, Velocity (0 - 127): 64
0    |  MIDI Event: Chan 1 Note OFF: B3, Velocity (0 - 127): 64
0    |  MIDI Event: Chan 1 Note OFF: D4, Velocity (0 - 127): 64
0    |  MIDI Event: Chan 5 Note OFF: G2, Velocity (0 - 127): 64
1    |  MIDI Event: Chan 1 Note ON: F#3, Velocity (0 - 127): 35
0    |  MIDI Event: Chan 1 Note ON: A3, Velocity (0 - 127): 85
0    |  MIDI Event: Chan 1 Note ON: D4, Velocity (0 - 127): 79
0    |  MIDI Event: Chan 4 Note ON: A3, Velocity (0 - 127): 107
0    |  MIDI Event: Chan 5 Note ON: A2, Velocity (0 - 127): 90
0    |  MIDI Event: Chan 5 Note ON: D3, Velocity (0 - 127): 105
0    |  Meta Event: Lyric: heart 
0    |  Meta Event: Lyric: 
59   |  MIDI Event: Chan 5 Note OFF: D3, Velocity (0 - 127): 64
0    |  MIDI Event: Chan 1 Note OFF: A3, Velocity (0 - 127): 64
0    |  MIDI Event: Chan 1 Note OFF: F#3, Velocity (0 - 127): 64
0    |  MIDI Event: Chan 1 Note OFF: D4, Velocity (0 - 127): 64
0    |  MIDI Event: Chan 5 Note OFF: A2, Velocity (0 - 127): 64
1    |  MIDI Event: Chan 1 Note ON: A3, Velocity (0 - 127): 69
0    |  MIDI Event: Chan 1 Note ON: D4, Velocity (0 - 127): 98
0    |  MIDI Event: Chan 1 Note ON: F#4, Velocity (0 - 127): 74
0    |  MIDI Event: Chan 5 Note ON: A2, Velocity (0 - 127): 100
0    |  MIDI Event: Chan 5 Note ON: D3, Velocity (0 - 127): 111
0    |  MIDI Event: Chan 5 Note ON: F#3, Velocity (0 - 127): 89
29   |  MIDI Event: Chan 4 Note OFF: A3, Velocity (0 - 127): 64
30   |  MIDI Event: Chan 1 Control/Mode Change: Sound Controller 5 (default: Brightness) (0-127): 39
0    |  MIDI Event: Chan 5 Control/Mode Change: Sound Controller 5 (default: Brightness) (0-127): 39
30   |  MIDI Event: Chan 5 Note OFF: D3, Velocity (0 - 127): 64
0    |  MIDI Event: Chan 1 Note OFF: D4, Velocity (0 - 127): 64
0    |  MIDI Event: Chan 1 Note OFF: F#4, Velocity (0 - 127): 64
0    |  MIDI Event: Chan 1 Note OFF: A3, Velocity (0 - 127): 64
0    |  MIDI Event: Chan 5 Note OFF: F#3, Velocity (0 - 127): 64
0    |  MIDI Event: Chan 5 Note OFF: A2, Velocity (0 - 127): 64
1    |  MIDI Event: Chan 1 Note ON: F#3, Velocity (0 - 127): 44
0    |  MIDI Event: Chan 1 Note ON: A3, Velocity (0 - 127): 78
0    |  MIDI Event: Chan 1 Note ON: D4, Velocity (0 - 127): 58
0    |  MIDI Event: Chan 5 Note ON: A2, Velocity (0 - 127): 85
0    |  MIDI Event: Chan 5 Note ON: D3, Velocity (0 - 127): 105
0    |  MIDI Event: Chan 5 Note ON: F#3, Velocity (0 - 127): 81
29   |  MIDI Event: Chan 5 Note OFF: F#3, Velocity (0 - 127): 64
0    |  MIDI Event: Chan 1 Note OFF: A3, Velocity (0 - 127): 64
0    |  MIDI Event: Chan 1 Note OFF: D4, Velocity (0 - 127): 64
0    |  MIDI Event: Chan 1 Note OFF: F#3, Velocity (0 - 127): 64
0    |  MIDI Event: Chan 5 Note OFF: D3, Velocity (0 - 127): 64
0    |  MIDI Event: Chan 5 Note OFF: A2, Velocity (0 - 127): 64
1    |  MIDI Event: Chan 1 Note ON: A3, Velocity (0 - 127): 57
0    |  MIDI Event: Chan 1 Note ON: D4, Velocity (0 - 127): 91
0    |  MIDI Event: Chan 1 Note ON: F#4, Velocity (0 - 127): 77
0    |  MIDI Event: Chan 5 Note ON: D3, Velocity (0 - 127): 109
0    |  MIDI Event: Chan 5 Note ON: F#3, Velocity (0 - 127): 89
0    |  MIDI Event: Chan 5 Note ON: A3, Velocity (0 - 127): 109
29   |  MIDI Event: Chan 5 Note OFF: A3, Velocity (0 - 127): 64
0    |  MIDI Event: Chan 1 Note OFF: D4, Velocity (0 - 127): 64
0    |  MIDI Event: Chan 1 Note OFF: F#4, Velocity (0 - 127): 64
0    |  MIDI Event: Chan 1 Note OFF: A3, Velocity (0 - 127): 64
0    |  MIDI Event: Chan 5 Note OFF: F#3, Velocity (0 - 127): 64
0    |  MIDI Event: Chan 5 Note OFF: D3, Velocity (0 - 127): 64
1    |  MIDI Event: Chan 1 Note ON: F#3, Velocity (0 - 127): 35
0    |  MIDI Event: Chan 1 Note ON: A3, Velocity (0 - 127): 79
0    |  MIDI Event: Chan 1 Note ON: D4, Velocity (0 - 127): 56
0    |  MIDI Event: Chan 5 Note ON: D3, Velocity (0 - 127): 111
0    |  MIDI Event: Chan 5 Note ON: F#3, Velocity (0 - 127): 100
0    |  MIDI Event: Chan 5 Note ON: A3, Velocity (0 - 127): 100
29   |  MIDI Event: Chan 5 Note OFF: A3, Velocity (0 - 127): 64
0    |  MIDI Event: Chan 1 Note OFF: A3, Velocity (0 - 127): 64
0    |  MIDI Event: Chan 1 Note OFF: D4, Velocity (0 - 127): 64
0    |  MIDI Event: Chan 1 Note OFF: F#3, Velocity (0 - 127): 64
0    |  MIDI Event: Chan 5 Note OFF: F#3, Velocity (0 - 127): 64
0    |  MIDI Event: Chan 5 Note OFF: D3, Velocity (0 - 127): 64
1    |  MIDI Event: Chan 1 Note ON: F#3, Velocity (0 - 127): 35
0    |  MIDI Event: Chan 1 Note ON: A3, Velocity (0 - 127): 85
0    |  MIDI Event: Chan 1 Note ON: D4, Velocity (0 - 127): 79
0    |  MIDI Event: Chan 5 Note ON: A2, Velocity (0 - 127): 90
0    |  MIDI Event: Chan 5 Note ON: D3, Velocity (0 - 127): 105
35   |  MIDI Event: Chan 1 Control/Mode Change: Sound Controller 5 (default: Brightness) (0-127): 40
0    |  MIDI Event: Chan 5 Control/Mode Change: Sound Controller 5 (default: Brightness) (0-127): 40
24   |  MIDI Event: Chan 5 Note OFF: D3, Velocity (0 - 127): 64
0    |  MIDI Event: Chan 1 Note OFF: D4, Velocity (0 - 127): 64
0    |  MIDI Event: Chan 1 Note OFF: F#3, Velocity (0 - 127): 64
0    |  MIDI Event: Chan 1 Note OFF: A3, Velocity (0 - 127): 64
0    |  MIDI Event: Chan 5 Note OFF: A2, Velocity (0 - 127): 64
1    |  MIDI Event: Chan 1 Note ON: A3, Velocity (0 - 127): 69
0    |  MIDI Event: Chan 1 Note ON: D4, Velocity (0 - 127): 98
0    |  MIDI Event: Chan 1 Note ON: F#4, Velocity (0 - 127): 74
0    |  MIDI Event: Chan 5 Note ON: A2, Velocity (0 - 127): 100
0    |  MIDI Event: Chan 5 Note ON: D3, Velocity (0 - 127): 111
0    |  MIDI Event: Chan 5 Note ON: F#3, Velocity (0 - 127): 89
89   |  MIDI Event: Chan 5 Note OFF: F#3, Velocity (0 - 127): 64
0    |  MIDI Event: Chan 1 Note OFF: D4, Velocity (0 - 127): 64
0    |  MIDI Event: Chan 1 Note OFF: F#4, Velocity (0 - 127): 64
0    |  MIDI Event: Chan 1 Note OFF: A3, Velocity (0 - 127): 64
0    |  MIDI Event: Chan 5 Note OFF: D3, Velocity (0 - 127): 64
0    |  MIDI Event: Chan 5 Note OFF: A2, Velocity (0 - 127): 64
1    |  MIDI Event: Chan 1 Note ON: F#3, Velocity (0 - 127): 44
0    |  MIDI Event: Chan 1 Note ON: A3, Velocity (0 - 127): 78
0    |  MIDI Event: Chan 1 Note ON: D4, Velocity (0 - 127): 58
0    |  MIDI Event: Chan 5 Note ON: A2, Velocity (0 - 127): 85
0    |  MIDI Event: Chan 5 Note ON: D3, Velocity (0 - 127): 105
0    |  MIDI Event: Chan 5 Note ON: F#3, Velocity (0 - 127): 81
29   |  MIDI Event: Chan 5 Note OFF: F#3, Velocity (0 - 127): 64
0    |  MIDI Event: Chan 1 Note OFF: A3, Velocity (0 - 127): 64
0    |  MIDI Event: Chan 1 Note OFF: D4, Velocity (0 - 127): 64
0    |  MIDI Event: Chan 1 Note OFF: F#3, Velocity (0 - 127): 64
0    |  MIDI Event: Chan 5 Note OFF: D3, Velocity (0 - 127): 64
0    |  MIDI Event: Chan 5 Note OFF: A2, Velocity (0 - 127): 64
1    |  MIDI Event: Chan 1 Note ON: A3, Velocity (0 - 127): 57
0    |  MIDI Event: Chan 1 Note ON: D4, Velocity (0 - 127): 91
0    |  MIDI Event: Chan 1 Note ON: F#4, Velocity (0 - 127): 77
0    |  MIDI Event: Chan 5 Note ON: D3, Velocity (0 - 127): 109
0    |  MIDI Event: Chan 5 Note ON: F#3, Velocity (0 - 127): 89
0    |  MIDI Event: Chan 5 Note ON: A3, Velocity (0 - 127): 109
11   |  MIDI Event: Chan 1 Control/Mode Change: Sound Controller 5 (default: Brightness) (0-127): 41
0    |  MIDI Event: Chan 5 Control/Mode Change: Sound Controller 5 (default: Brightness) (0-127): 41
18   |  MIDI Event: Chan 5 Note OFF: A3, Velocity (0 - 127): 64
0    |  MIDI Event: Chan 1 Note OFF: D4, Velocity (0 - 127): 64
0    |  MIDI Event: Chan 1 Note OFF: F#4, Velocity (0 - 127): 64
0    |  MIDI Event: Chan 1 Note OFF: A3, Velocity (0 - 127): 64
0    |  MIDI Event: Chan 5 Note OFF: F#3, Velocity (0 - 127): 64
0    |  MIDI Event: Chan 5 Note OFF: D3, Velocity (0 - 127): 64
1    |  MIDI Event: Chan 1 Note ON: F#3, Velocity (0 - 127): 35
0    |  MIDI Event: Chan 1 Note ON: A3, Velocity (0 - 127): 79
0    |  MIDI Event: Chan 1 Note ON: D4, Velocity (0 - 127): 56
0    |  MIDI Event: Chan 5 Note ON: D3, Velocity (0 - 127): 111
0    |  MIDI Event: Chan 5 Note ON: F#3, Velocity (0 - 127): 100
0    |  MIDI Event: Chan 5 Note ON: A3, Velocity (0 - 127): 100
29   |  MIDI Event: Chan 5 Note OFF: A3, Velocity (0 - 127): 64
0    |  MIDI Event: Chan 1 Note OFF: A3, Velocity (0 - 127): 64
0    |  MIDI Event: Chan 1 Note OFF: D4, Velocity (0 - 127): 64
0    |  MIDI Event: Chan 1 Note OFF: F#3, Velocity (0 - 127): 64
0    |  MIDI Event: Chan 5 Note OFF: F#3, Velocity (0 - 127): 64
0    |  MIDI Event: Chan 5 Note OFF: D3, Velocity (0 - 127): 64
1    |  MIDI Event: Chan 1 Note ON: B3, Velocity (0 - 127): 58
0    |  MIDI Event: Chan 1 Note ON: D4, Velocity (0 - 127): 91
0    |  MIDI Event: Chan 5 Note ON: B2, Velocity (0 - 127): 85
0    |  MIDI Event: Chan 5 Note ON: F#3, Velocity (0 - 127): 120
59   |  MIDI Event: Chan 5 Note OFF: F#3, Velocity (0 - 127): 64
0    |  MIDI Event: Chan 1 Note OFF: B3, Velocity (0 - 127): 64
0    |  MIDI Event: Chan 1 Note OFF: D4, Velocity (0 - 127): 64
0    |  MIDI Event: Chan 5 Note OFF: B2, Velocity (0 - 127): 64
1    |  MIDI Event: Chan 1 Note ON: B3, Velocity (0 - 127): 79
0    |  MIDI Event: Chan 1 Note ON: D4, Velocity (0 - 127): 95
0    |  MIDI Event: Chan 1 Note ON: F#4, Velocity (0 - 127): 74
0    |  MIDI Event: Chan 5 Note ON: D3, Velocity (0 - 127): 92
0    |  MIDI Event: Chan 5 Note ON: F#3, Velocity (0 - 127): 87
0    |  MIDI Event: Chan 5 Note ON: D4, Velocity (0 - 127): 95
47   |  MIDI Event: Chan 1 Control/Mode Change: Sound Controller 5 (default: Brightness) (0-127): 42
0    |  MIDI Event: Chan 5 Control/Mode Change: Sound Controller 5 (default: Brightness) (0-127): 42
13   |  MIDI Event: Chan 4 Note ON: B3, Velocity (0 - 127): 107
0    |  Meta Event: Lyric: I 
29   |  MIDI Event: Chan 4 Note OFF: B3, Velocity (0 - 127): 64
0    |  MIDI Event: Chan 5 Note OFF: F#3, Velocity (0 - 127): 64
0    |  MIDI Event: Chan 1 Note OFF: D4, Velocity (0 - 127): 64
0    |  MIDI Event: Chan 1 Note OFF: F#4, Velocity (0 - 127): 64
0    |  MIDI Event: Chan 1 Note OFF: B3, Velocity (0 - 127): 64
0    |  MIDI Event: Chan 5 Note OFF: D4, Velocity (0 - 127): 64
0    |  MIDI Event: Chan 5 Note OFF: D3, Velocity (0 - 127): 64
1    |  MIDI Event: Chan 1 Note ON: B3, Velocity (0 - 127): 71
0    |  MIDI Event: Chan 1 Note ON: D4, Velocity (0 - 127): 91
0    |  MIDI Event: Chan 1 Note ON: F#4, Velocity (0 - 127): 60
0    |  MIDI Event: Chan 4 Note ON: B3, Velocity (0 - 127): 111
0    |  MIDI Event: Chan 5 Note ON: F#3, Velocity (0 - 127): 109
0    |  MIDI Event: Chan 5 Note ON: B3, Velocity (0 - 127): 95
0    |  Meta Event: Lyric: can't 
29   |  MIDI Event: Chan 5 Note OFF: B3, Velocity (0 - 127): 64
0    |  MIDI Event: Chan 1 Note OFF: D4, Velocity (0 - 127): 64
0    |  MIDI Event: Chan 1 Note OFF: B3, Velocity (0 - 127): 64
0    |  MIDI Event: Chan 1 Note OFF: F#4, Velocity (0 - 127): 64
0    |  MIDI Event: Chan 5 Note OFF: F#3, Velocity (0 - 127): 64
1    |  MIDI Event: Chan 1 Note ON: D4, Velocity (0 - 127): 80
0    |  MIDI Event: Chan 1 Note ON: F#4, Velocity (0 - 127): 62
0    |  MIDI Event: Chan 1 Note ON: B4, Velocity (0 - 127): 91
0    |  MIDI Event: Chan 5 Note ON: D3, Velocity (0 - 127): 103
0    |  MIDI Event: Chan 5 Note ON: F#3, Velocity (0 - 127): 115
29   |  MIDI Event: Chan 5 Note OFF: F#3, Velocity (0 - 127): 64
0    |  MIDI Event: Chan 1 Note OFF: D4, Velocity (0 - 127): 64
0    |  MIDI Event: Chan 1 Note OFF: F#4, Velocity (0 - 127): 64
0    |  MIDI Event: Chan 4 Note OFF: B3, Velocity (0 - 127): 64
0    |  MIDI Event: Chan 5 Note OFF: D3, Velocity (0 - 127): 64
0    |  MIDI Event: Chan 1 Note OFF: B4, Velocity (0 - 127): 64
1    |  MIDI Event: Chan 1 Note ON: B3, Velocity (0 - 127): 51
0    |  MIDI Event: Chan 1 Note ON: D4, Velocity (0 - 127): 85
0    |  MIDI Event: Chan 1 Note ON: F#4, Velocity (0 - 127): 59
0    |  MIDI Event: Chan 5 Note ON: B2, Velocity (0 - 127): 92
0    |  MIDI Event: Chan 5 Note ON: E3, Velocity (0 - 127): 98
29   |  MIDI Event: Chan 5 Note OFF: E3, Velocity (0 - 127): 64
0    |  MIDI Event: Chan 1 Note OFF: F#4, Velocity (0 - 127): 64
0    |  MIDI Event: Chan 1 Note OFF: B3, Velocity (0 - 127): 64
0    |  MIDI Event: Chan 1 Note OFF: D4, Velocity (0 - 127): 64
0    |  MIDI Event: Chan 5 Note OFF: B2, Velocity (0 - 127): 64
1    |  MIDI Event: Chan 1 Note ON: G3, Velocity (0 - 127): 74
0    |  MIDI Event: Chan 1 Note ON: B3, Velocity (0 - 127): 94
0    |  MIDI Event: Chan 1 Note ON: D4, Velocity (0 - 127): 91
0    |  MIDI Event: Chan 4 Note ON: B3, Velocity (0 - 127): 111
0    |  MIDI Event: Chan 5 Note ON: G2, Velocity (0 - 127): 98
0    |  MIDI Event: Chan 5 Note ON: D3, Velocity (0 - 127): 116
0    |  Meta Event: Lyric: tell 
24   |  MIDI Event: Chan 1 Control/Mode Change: Sound Controller 5 (default: Brightness) (0-127): 43
0    |  MIDI Event: Chan 5 Control/Mode Change: Sound Controller 5 (default: Brightness) (0-127): 43
35   |  MIDI Event: Chan 5 Note OFF: D3, Velocity (0 - 127): 64
0    |  MIDI Event: Chan 1 Note OFF: B3, Velocity (0 - 127): 64
0    |  MIDI Event: Chan 1 Note OFF: G3, Velocity (0 - 127): 64
0    |  MIDI Event: Chan 1 Note OFF: D4, Velocity (0 - 127): 64
0    |  MIDI Event: Chan 5 Note OFF: G2, Velocity (0 - 127): 64
1    |  MIDI Event: Chan 1 Note ON: B3, Velocity (0 - 127): 70
0    |  MIDI Event: Chan 1 Note ON: D4, Velocity (0 - 127): 94
0    |  MIDI Event: Chan 1 Note ON: G4, Velocity (0 - 127): 101
0    |  MIDI Event: Chan 5 Note ON: D3, Velocity (0 - 127): 79
0    |  MIDI Event: Chan 5 Note ON: G3, Velocity (0 - 127): 111
0    |  MIDI Event: Chan 5 Note ON: B3, Velocity (0 - 127): 100
29   |  MIDI Event: Chan 4 Note OFF: B3, Velocity (0 - 127): 64
31   |  MIDI Event: Chan 4 Note ON: A3, Velocity (0 - 127): 98
0    |  Meta Event: Lyric: where 
0    |  Meta Event: Lyric: 
29   |  MIDI Event: Chan 5 Note OFF: G3, Velocity (0 - 127): 64
0    |  MIDI Event: Chan 5 Note OFF: D3, Velocity (0 - 127): 64
0    |  MIDI Event: Chan 1 Note OFF: D4, Velocity (0 - 127): 64
0    |  MIDI Event: Chan 1 Note OFF: G4, Velocity (0 - 127): 64
0    |  MIDI Event: Chan 1 Note OFF: B3, Velocity (0 - 127): 64
0    |  MIDI Event: Chan 5 Note OFF: B3, Velocity (0 - 127): 64
1    |  MIDI Event: Chan 1 Note ON: B3, Velocity (0 - 127): 52
0    |  MIDI Event: Chan 1 Note ON: D4, Velocity (0 - 127): 85
0    |  MIDI Event: Chan 1 Note ON: G4, Velocity (0 - 127): 94
0    |  MIDI Event: Chan 5 Note ON: D3, Velocity (0 - 127): 82
0    |  MIDI Event: Chan 5 Note ON: G3, Velocity (0 - 127): 98
0    |  MIDI Event: Chan 5 Note ON: B3, Velocity (0 - 127): 85
29   |  MIDI Event: Chan 5 Note OFF: B3, Velocity (0 - 127): 64
0    |  MIDI Event: Chan 5 Note OFF: D3, Velocity (0 - 127): 64
0    |  MIDI Event: Chan 1 Note OFF: B3, Velocity (0 - 127): 64
0    |  MIDI Event: Chan 1 Note OFF: D4, Velocity (0 - 127): 64
0    |  MIDI Event: Chan 4 Note OFF: A3, Velocity (0 - 127): 64
0    |  MIDI Event: Chan 5 Note OFF: G3, Velocity (0 - 127): 64
0    |  MIDI Event: Chan 1 Note OFF: G4, Velocity (0 - 127): 64
1    |  MIDI Event: Chan 1 Control/Mode Change: Sound Controller 5 (default: Brightness) (0-127): 44
0    |  MIDI Event: Chan 1 Note ON: D4, Velocity (0 - 127): 78
0    |  MIDI Event: Chan 1 Note ON: G4, Velocity (0 - 127): 100
0    |  MIDI Event: Chan 1 Note ON: B4, Velocity (0 - 127): 46
0    |  MIDI Event: Chan 5 Control/Mode Change: Sound Controller 5 (default: Brightness) (0-127): 44
0    |  MIDI Event: Chan 5 Note ON: G2, Velocity (0 - 127): 109
0    |  MIDI Event: Chan 5 Note ON: D3, Velocity (0 - 127): 109
29   |  MIDI Event: Chan 5 Note OFF: D3, Velocity (0 - 127): 64
0    |  MIDI Event: Chan 1 Note OFF: B4, Velocity (0 - 127): 64
0    |  MIDI Event: Chan 1 Note OFF: D4, Velocity (0 - 127): 64
0    |  MIDI Event: Chan 1 Note OFF: G4, Velocity (0 - 127): 64
0    |  MIDI Event: Chan 5 Note OFF: G2, Velocity (0 - 127): 64
1    |  MIDI Event: Chan 1 Note ON: B3, Velocity (0 - 127): 45
0    |  MIDI Event: Chan 1 Note ON: D4, Velocity (0 - 127): 73
0    |  MIDI Event: Chan 1 Note ON: G4, Velocity (0 - 127): 86
0    |  MIDI Event: Chan 4 Note ON: F#3, Velocity (0 - 127): 109
0    |  MIDI Event: Chan 5 Note ON: G2, Velocity (0 - 127): 101
0    |  MIDI Event: Chan 5 Note ON: E3, Velocity (0 - 127): 116
0    |  Meta Event: Lyric: the 
29   |  MIDI Event: Chan 5 Note OFF: E3, Velocity (0 - 127): 64
0    |  MIDI Event: Chan 1 Note OFF: D4, Velocity (0 - 127): 64
0    |  MIDI Event: Chan 1 Note OFF: G4, Velocity (0 - 127): 64
0    |  MIDI Event: Chan 1 Note OFF: B3, Velocity (0 - 127): 64
0    |  MIDI Event: Chan 5 Note OFF: G2, Velocity (0 - 127): 64
0    |  MIDI Event: Chan 4 Note OFF: F#3, Velocity (0 - 127): 64
1    |  MIDI Event: Chan 1 Note ON: F#3, Velocity (0 - 127): 35
0    |  MIDI Event: Chan 1 Note ON: A3, Velocity (0 - 127): 85
0    |  MIDI Event: Chan 1 Note ON: D4, Velocity (0 - 127): 79
0    |  MIDI Event: Chan 4 Note ON: A3, Velocity (0 - 127): 111
0    |  MIDI Event: Chan 5 Note ON: A2, Velocity (0 - 127): 90
0    |  MIDI Event: Chan 5 Note ON: D3, Velocity (0 - 127): 105
0    |  Meta Event: Lyric: jour
59   |  MIDI Event: Chan 5 Note OFF: D3, Velocity (0 - 127): 64
0    |  MIDI Event: Chan 1 Note OFF: A3, Velocity (0 - 127): 64
0    |  MIDI Event: Chan 1 Note OFF: F#3, Velocity (0 - 127): 64
0    |  MIDI Event: Chan 1 Note OFF: D4, Velocity (0 - 127): 64
0    |  MIDI Event: Chan 5 Note OFF: A2, Velocity (0 - 127): 64
1    |  MIDI Event: Chan 1 Note ON: A3, Velocity (0 - 127): 69
0    |  MIDI Event: Chan 1 Note ON: D4, Velocity (0 - 127): 98
0    |  MIDI Event: Chan 1 Note ON: F#4, Velocity (0 - 127): 74
0    |  MIDI Event: Chan 5 Note ON: A2, Velocity (0 - 127): 100
0    |  MIDI Event: Chan 5 Note ON: D3, Velocity (0 - 127): 111
0    |  MIDI Event: Chan 5 Note ON: F#3, Velocity (0 - 127): 89
36   |  MIDI Event: Chan 1 Control/Mode Change: Sound Controller 5 (default: Brightness) (0-127): 45
0    |  MIDI Event: Chan 5 Control/Mode Change: Sound Controller 5 (default: Brightness) (0-127): 45
23   |  MIDI Event: Chan 4 Note OFF: A3, Velocity (0 - 127): 64
1    |  MIDI Event: Chan 4 Note ON: F#3, Velocity (0 - 127): 111
0    |  Meta Event: Lyric: ney 
29   |  MIDI Event: Chan 5 Note OFF: D3, Velocity (0 - 127): 64
0    |  MIDI Event: Chan 5 Note OFF: A2, Velocity (0 - 127): 64
0    |  MIDI Event: Chan 1 Note OFF: D4, Velocity (0 - 127): 64
0    |  MIDI Event: Chan 1 Note OFF: F#4, Velocity (0 - 127): 64
0    |  MIDI Event: Chan 1 Note OFF: A3, Velocity (0 - 127): 64
0    |  MIDI Event: Chan 5 Note OFF: F#3, Velocity (0 - 127): 64
1    |  MIDI Event: Chan 1 Note ON: F#3, Velocity (0 - 127): 44
0    |  MIDI Event: Chan 1 Note ON: A3, Velocity (0 - 127): 78
0    |  MIDI Event: Chan 1 Note ON: D4, Velocity (0 - 127): 58
0    |  MIDI Event: Chan 5 Note ON: A2, Velocity (0 - 127): 85
0    |  MIDI Event: Chan 5 Note ON: D3, Velocity (0 - 127): 105
0    |  MIDI Event: Chan 5 Note ON: F#3, Velocity (0 - 127): 81
29   |  MIDI Event: Chan 5 Note OFF: F#3, Velocity (0 - 127): 64
0    |  MIDI Event: Chan 5 Note OFF: A2, Velocity (0 - 127): 64
0    |  MIDI Event: Chan 1 Note OFF: F#3, Velocity (0 - 127): 64
0    |  MIDI Event: Chan 1 Note OFF: A3, Velocity (0 - 127): 64
0    |  MIDI Event: Chan 1 Note OFF: D4, Velocity (0 - 127): 64
0    |  MIDI Event: Chan 5 Note OFF: D3, Velocity (0 - 127): 64
1    |  MIDI Event: Chan 1 Note ON: A3, Velocity (0 - 127): 57
0    |  MIDI Event: Chan 1 Note ON: D4, Velocity (0 - 127): 91
0    |  MIDI Event: Chan 1 Note ON: F#4, Velocity (0 - 127): 77
0    |  MIDI Event: Chan 5 Note ON: D3, Velocity (0 - 127): 109
0    |  MIDI Event: Chan 5 Note ON: F#3, Velocity (0 - 127): 89
0    |  MIDI Event: Chan 5 Note ON: A3, Velocity (0 - 127): 109
29   |  MIDI Event: Chan 5 Note OFF: A3, Velocity (0 - 127): 64
0    |  MIDI Event: Chan 5 Note OFF: D3, Velocity (0 - 127): 64
0    |  MIDI Event: Chan 1 Note OFF: A3, Velocity (0 - 127): 64
0    |  MIDI Event: Chan 1 Note OFF: D4, Velocity (0 - 127): 64
0    |  MIDI Event: Chan 4 Note OFF: F#3, Velocity (0 - 127): 64
0    |  MIDI Event: Chan 5 Note OFF: F#3, Velocity (0 - 127): 64
0    |  MIDI Event: Chan 1 Note OFF: F#4, Velocity (0 - 127): 64
1    |  MIDI Event: Chan 1 Note ON: F#3, Velocity (0 - 127): 35
0    |  MIDI Event: Chan 1 Note ON: A3, Velocity (0 - 127): 79
0    |  MIDI Event: Chan 1 Note ON: D4, Velocity (0 - 127): 56
0    |  MIDI Event: Chan 4 Note ON: E3, Velocity (0 - 127): 91
0    |  MIDI Event: Chan 5 Note ON: D3, Velocity (0 - 127): 111
0    |  MIDI Event: Chan 5 Note ON: F#3, Velocity (0 - 127): 100
0    |  MIDI Event: Chan 5 Note ON: A3, Velocity (0 - 127): 100
0    |  Meta Event: Lyric: will 
29   |  MIDI Event: Chan 5 Note OFF: A3, Velocity (0 - 127): 64
0    |  MIDI Event: Chan 5 Note OFF: D3, Velocity (0 - 127): 64
0    |  MIDI Event: Chan 1 Note OFF: A3, Velocity (0 - 127): 64
0    |  MIDI Event: Chan 1 Note OFF: D4, Velocity (0 - 127): 64
0    |  MIDI Event: Chan 1 Note OFF: F#3, Velocity (0 - 127): 64
0    |  MIDI Event: Chan 5 Note OFF: F#3, Velocity (0 - 127): 64
0    |  MIDI Event: Chan 4 Note OFF: E3, Velocity (0 - 127): 64
1    |  MIDI Event: Chan 1 Note ON: F#3, Velocity (0 - 127): 35
0    |  MIDI Event: Chan 1 Note ON: A3, Velocity (0 - 127): 85
0    |  MIDI Event: Chan 1 Note ON: D4, Velocity (0 - 127): 79
0    |  MIDI Event: Chan 4 Note ON: D3, Velocity (0 - 127): 116
0    |  MIDI Event: Chan 5 Note ON: A2, Velocity (0 - 127): 90
0    |  MIDI Event: Chan 5 Note ON: D3, Velocity (0 - 127): 105
0    |  Meta Event: Lyric: end 
0    |  Meta Event: Lyric: 
12   |  MIDI Event: Chan 1 Control/Mode Change: Sound Controller 5 (default: Brightness) (0-127): 46
0    |  MIDI Event: Chan 5 Control/Mode Change: Sound Controller 5 (default: Brightness) (0-127): 46
47   |  MIDI Event: Chan 5 Note OFF: D3, Velocity (0 - 127): 64
0    |  MIDI Event: Chan 1 Note OFF: A3, Velocity (0 - 127): 64
0    |  MIDI Event: Chan 1 Note OFF: F#3, Velocity (0 - 127): 64
0    |  MIDI Event: Chan 1 Note OFF: D4, Velocity (0 - 127): 64
0    |  MIDI Event: Chan 5 Note OFF: A2, Velocity (0 - 127): 64
1    |  MIDI Event: Chan 1 Note ON: A3, Velocity (0 - 127): 69
0    |  MIDI Event: Chan 1 Note ON: D4, Velocity (0 - 127): 98
0    |  MIDI Event: Chan 1 Note ON: F#4, Velocity (0 - 127): 74
0    |  MIDI Event: Chan 5 Note ON: A2, Velocity (0 - 127): 100
0    |  MIDI Event: Chan 5 Note ON: D3, Velocity (0 - 127): 111
0    |  MIDI Event: Chan 5 Note ON: F#3, Velocity (0 - 127): 89
59   |  MIDI Event: Chan 4 Note OFF: D3, Velocity (0 - 127): 64
30   |  MIDI Event: Chan 5 Note OFF: D3, Velocity (0 - 127): 64
0    |  MIDI Event: Chan 1 Note OFF: D4, Velocity (0 - 127): 64
0    |  MIDI Event: Chan 1 Note OFF: F#4, Velocity (0 - 127): 64
0    |  MIDI Event: Chan 1 Note OFF: A3, Velocity (0 - 127): 64
0    |  MIDI Event: Chan 5 Note OFF: F#3, Velocity (0 - 127): 64
0    |  MIDI Event: Chan 5 Note OFF: A2, Velocity (0 - 127): 64
1    |  MIDI Event: Chan 1 Note ON: F#3, Velocity (0 - 127): 44
0    |  MIDI Event: Chan 1 Note ON: A3, Velocity (0 - 127): 78
0    |  MIDI Event: Chan 1 Note ON: D4, Velocity (0 - 127): 58
0    |  MIDI Event: Chan 5 Note ON: A2, Velocity (0 - 127): 85
0    |  MIDI Event: Chan 5 Note ON: D3, Velocity (0 - 127): 105
0    |  MIDI Event: Chan 5 Note ON: F#3, Velocity (0 - 127): 81
19   |  MIDI Event: Chan 1 Control/Mode Change: Sound Controller 5 (default: Brightness) (0-127): 47
0    |  MIDI Event: Chan 5 Control/Mode Change: Sound Controller 5 (default: Brightness) (0-127): 47
10   |  MIDI Event: Chan 5 Note OFF: F#3, Velocity (0 - 127): 64
0    |  MIDI Event: Chan 1 Note OFF: A3, Velocity (0 - 127): 64
0    |  MIDI Event: Chan 1 Note OFF: D4, Velocity (0 - 127): 64
0    |  MIDI Event: Chan 1 Note OFF: F#3, Velocity (0 - 127): 64
0    |  MIDI Event: Chan 5 Note OFF: D3, Velocity (0 - 127): 64
0    |  MIDI Event: Chan 5 Note OFF: A2, Velocity (0 - 127): 64
1    |  MIDI Event: Chan 1 Note ON: A3, Velocity (0 - 127): 57
0    |  MIDI Event: Chan 1 Note ON: D4, Velocity (0 - 127): 91
0    |  MIDI Event: Chan 1 Note ON: F#4, Velocity (0 - 127): 77
0    |  MIDI Event: Chan 5 Note ON: D3, Velocity (0 - 127): 109
0    |  MIDI Event: Chan 5 Note ON: F#3, Velocity (0 - 127): 89
0    |  MIDI Event: Chan 5 Note ON: A3, Velocity (0 - 127): 109
29   |  MIDI Event: Chan 5 Note OFF: A3, Velocity (0 - 127): 64
0    |  MIDI Event: Chan 1 Note OFF: D4, Velocity (0 - 127): 64
0    |  MIDI Event: Chan 1 Note OFF: F#4, Velocity (0 - 127): 64
0    |  MIDI Event: Chan 1 Note OFF: A3, Velocity (0 - 127): 64
0    |  MIDI Event: Chan 5 Note OFF: F#3, Velocity (0 - 127): 64
0    |  MIDI Event: Chan 5 Note OFF: D3, Velocity (0 - 127): 64
1    |  MIDI Event: Chan 1 Note ON: F#3, Velocity (0 - 127): 35
0    |  MIDI Event: Chan 1 Note ON: A3, Velocity (0 - 127): 79
0    |  MIDI Event: Chan 1 Note ON: D4, Velocity (0 - 127): 56
0    |  MIDI Event: Chan 5 Note ON: D3, Velocity (0 - 127): 111
0    |  MIDI Event: Chan 5 Note ON: F#3, Velocity (0 - 127): 100
0    |  MIDI Event: Chan 5 Note ON: A3, Velocity (0 - 127): 100
29   |  MIDI Event: Chan 5 Note OFF: A3, Velocity (0 - 127): 64
0    |  MIDI Event: Chan 1 Note OFF: A3, Velocity (0 - 127): 64
0    |  MIDI Event: Chan 1 Note OFF: D4, Velocity (0 - 127): 64
0    |  MIDI Event: Chan 1 Note OFF: F#3, Velocity (0 - 127): 64
0    |  MIDI Event: Chan 5 Note OFF: F#3, Velocity (0 - 127): 64
0    |  MIDI Event: Chan 5 Note OFF: D3, Velocity (0 - 127): 64
1    |  MIDI Event: Chan 1 Note ON: B3, Velocity (0 - 127): 58
0    |  MIDI Event: Chan 1 Note ON: D4, Velocity (0 - 127): 91
0    |  MIDI Event: Chan 5 Note ON: B2, Velocity (0 - 127): 85
0    |  MIDI Event: Chan 5 Note ON: F#3, Velocity (0 - 127): 120
59   |  MIDI Event: Chan 5 Note OFF: F#3, Velocity (0 - 127): 64
0    |  MIDI Event: Chan 1 Note OFF: B3, Velocity (0 - 127): 64
0    |  MIDI Event: Chan 1 Note OFF: D4, Velocity (0 - 127): 64
0    |  MIDI Event: Chan 5 Note OFF: B2, Velocity (0 - 127): 64
1    |  MIDI Event: Chan 1 Note ON: B3, Velocity (0 - 127): 79
0    |  MIDI Event: Chan 1 Note ON: D4, Velocity (0 - 127): 95
0    |  MIDI Event: Chan 1 Note ON: F#4, Velocity (0 - 127): 74
0    |  MIDI Event: Chan 5 Note ON: D3, Velocity (0 - 127): 92
0    |  MIDI Event: Chan 5 Note ON: F#3, Velocity (0 - 127): 87
0    |  MIDI Event: Chan 5 Note ON: D4, Velocity (0 - 127): 95
25   |  MIDI Event: Chan 1 Control/Mode Change: Sound Controller 5 (default: Brightness) (0-127): 48
0    |  MIDI Event: Chan 5 Control/Mode Change: Sound Controller 5 (default: Brightness) (0-127): 48
64   |  MIDI Event: Chan 5 Note OFF: D4, Velocity (0 - 127): 64
0    |  MIDI Event: Chan 1 Note OFF: D4, Velocity (0 - 127): 64
0    |  MIDI Event: Chan 1 Note OFF: F#4, Velocity (0 - 127): 64
0    |  MIDI Event: Chan 1 Note OFF: B3, Velocity (0 - 127): 64
0    |  MIDI Event: Chan 5 Note OFF: F#3, Velocity (0 - 127): 64
0    |  MIDI Event: Chan 5 Note OFF: D3, Velocity (0 - 127): 64
1    |  MIDI Event: Chan 1 Note ON: B3, Velocity (0 - 127): 71
0    |  MIDI Event: Chan 1 Note ON: D4, Velocity (0 - 127): 91
0    |  MIDI Event: Chan 1 Note ON: F#4, Velocity (0 - 127): 60
0    |  MIDI Event: Chan 4 Note ON: E3, Velocity (0 - 127): 101
0    |  MIDI Event: Chan 5 Note ON: F#3, Velocity (0 - 127): 109
0    |  MIDI Event: Chan 5 Note ON: B3, Velocity (0 - 127): 95
0    |  Meta Event: Lyric: But 
29   |  MIDI Event: Chan 5 Note OFF: B3, Velocity (0 - 127): 64
0    |  MIDI Event: Chan 1 Note OFF: D4, Velocity (0 - 127): 64
0    |  MIDI Event: Chan 1 Note OFF: F#4, Velocity (0 - 127): 64
0    |  MIDI Event: Chan 1 Note OFF: B3, Velocity (0 - 127): 64
0    |  MIDI Event: Chan 5 Note OFF: F#3, Velocity (0 - 127): 64
0    |  MIDI Event: Chan 4 Note OFF: E3, Velocity (0 - 127): 64
1    |  MIDI Event: Chan 1 Note ON: D4, Velocity (0 - 127): 80
0    |  MIDI Event: Chan 1 Note ON: F#4, Velocity (0 - 127): 62
0    |  MIDI Event: Chan 1 Note ON: B4, Velocity (0 - 127): 91
0    |  MIDI Event: Chan 4 Note ON: F#3, Velocity (0 - 127): 120
0    |  MIDI Event: Chan 5 Note ON: D3, Velocity (0 - 127): 103
0    |  MIDI Event: Chan 5 Note ON: F#3, Velocity (0 - 127): 115
0    |  Meta Event: Lyric: I 
29   |  MIDI Event: Chan 5 Note OFF: F#3, Velocity (0 - 127): 64
0    |  MIDI Event: Chan 1 Note OFF: F#4, Velocity (0 - 127): 64
0    |  MIDI Event: Chan 1 Note OFF: D4, Velocity (0 - 127): 64
0    |  MIDI Event: Chan 1 Note OFF: B4, Velocity (0 - 127): 64
0    |  MIDI Event: Chan 5 Note OFF: D3, Velocity (0 - 127): 64
1    |  MIDI Event: Chan 1 Note ON: B3, Velocity (0 - 127): 51
0    |  MIDI Event: Chan 1 Note ON: D4, Velocity (0 - 127): 85
0    |  MIDI Event: Chan 1 Note ON: F#4, Velocity (0 - 127): 59
0    |  MIDI Event: Chan 5 Note ON: B2, Velocity (0 - 127): 92
0    |  MIDI Event: Chan 5 Note ON: E3, Velocity (0 - 127): 98
29   |  MIDI Event: Chan 5 Note OFF: E3, Velocity (0 - 127): 64
0    |  MIDI Event: Chan 1 Note OFF: B3, Velocity (0 - 127): 64
0    |  MIDI Event: Chan 1 Note OFF: D4, Velocity (0 - 127): 64
0    |  MIDI Event: Chan 4 Note OFF: F#3, Velocity (0 - 127): 64
0    |  MIDI Event: Chan 5 Note OFF: B2, Velocity (0 - 127): 64
0    |  MIDI Event: Chan 1 Note OFF: F#4, Velocity (0 - 127): 64
1    |  MIDI Event: Chan 1 Note ON: G3, Velocity (0 - 127): 74
0    |  MIDI Event: Chan 1 Note ON: B3, Velocity (0 - 127): 94
0    |  MIDI Event: Chan 1 Note ON: D4, Velocity (0 - 127): 91
0    |  MIDI Event: Chan 4 Note ON: G3, Velocity (0 - 127): 118
0    |  MIDI Event: Chan 5 Note ON: G2, Velocity (0 - 127): 98
0    |  MIDI Event: Chan 5 Note ON: D3, Velocity (0 - 127): 116
0    |  Meta Event: Lyric: know 
1    |  MIDI Event: Chan 1 Control/Mode Change: Sound Controller 5 (default: Brightness) (0-127): 49
0    |  MIDI Event: Chan 5 Control/Mode Change: Sound Controller 5 (default: Brightness) (0-127): 49
58   |  MIDI Event: Chan 5 Note OFF: D3, Velocity (0 - 127): 64
0    |  MIDI Event: Chan 1 Note OFF: B3, Velocity (0 - 127): 64
0    |  MIDI Event: Chan 1 Note OFF: G3, Velocity (0 - 127): 64
0    |  MIDI Event: Chan 1 Note OFF: D4, Velocity (0 - 127): 64
0    |  MIDI Event: Chan 5 Note OFF: G2, Velocity (0 - 127): 64
1    |  MIDI Event: Chan 1 Note ON: B3, Velocity (0 - 127): 70
0    |  MIDI Event: Chan 1 Note ON: D4, Velocity (0 - 127): 94
0    |  MIDI Event: Chan 1 Note ON: G4, Velocity (0 - 127): 101
0    |  MIDI Event: Chan 5 Note ON: D3, Velocity (0 - 127): 79
0    |  MIDI Event: Chan 5 Note ON: G3, Velocity (0 - 127): 111
0    |  MIDI Event: Chan 5 Note ON: B3, Velocity (0 - 127): 100
59   |  MIDI Event: Chan 4 Note OFF: G3, Velocity (0 - 127): 64
1    |  MIDI Event: Chan 4 Note ON: A3, Velocity (0 - 127): 101
0    |  Meta Event: Lyric: where 
29   |  MIDI Event: Chan 5 Note OFF: G3, Velocity (0 - 127): 64
0    |  MIDI Event: Chan 5 Note OFF: D3, Velocity (0 - 127): 64
0    |  MIDI Event: Chan 1 Note OFF: D4, Velocity (0 - 127): 64
0    |  MIDI Event: Chan 1 Note OFF: G4, Velocity (0 - 127): 64
0    |  MIDI Event: Chan 1 Note OFF: B3, Velocity (0 - 127): 64
0    |  MIDI Event: Chan 5 Note OFF: B3, Velocity (0 - 127): 64
1    |  MIDI Event: Chan 1 Note ON: B3, Velocity (0 - 127): 52
0    |  MIDI Event: Chan 1 Note ON: D4, Velocity (0 - 127): 85
0    |  MIDI Event: Chan 1 Note ON: G4, Velocity (0 - 127): 94
0    |  MIDI Event: Chan 5 Note ON: D3, Velocity (0 - 127): 82
0    |  MIDI Event: Chan 5 Note ON: G3, Velocity (0 - 127): 98
0    |  MIDI Event: Chan 5 Note ON: B3, Velocity (0 - 127): 85
7    |  MIDI Event: Chan 1 Control/Mode Change: Sound Controller 5 (default: Brightness) (0-127): 50
0    |  MIDI Event: Chan 5 Control/Mode Change: Sound Controller 5 (default: Brightness) (0-127): 50
22   |  MIDI Event: Chan 5 Note OFF: B3, Velocity (0 - 127): 64
0    |  MIDI Event: Chan 5 Note OFF: D3, Velocity (0 - 127): 64
0    |  MIDI Event: Chan 1 Note OFF: B3, Velocity (0 - 127): 64
0    |  MIDI Event: Chan 1 Note OFF: D4, Velocity (0 - 127): 64
0    |  MIDI Event: Chan 1 Note OFF: G4, Velocity (0 - 127): 64
0    |  MIDI Event: Chan 5 Note OFF: G3, Velocity (0 - 127): 64
1    |  MIDI Event: Chan 1 Note ON: D4, Velocity (0 - 127): 78
0    |  MIDI Event: Chan 1 Note ON: G4, Velocity (0 - 127): 100
0    |  MIDI Event: Chan 1 Note ON: B4, Velocity (0 - 127): 46
0    |  MIDI Event: Chan 5 Note ON: G2, Velocity (0 - 127): 109
0    |  MIDI Event: Chan 5 Note ON: D3, Velocity (0 - 127): 109
29   |  MIDI Event: Chan 5 Note OFF: D3, Velocity (0 - 127): 64
0    |  MIDI Event: Chan 1 Note OFF: D4, Velocity (0 - 127): 64
0    |  MIDI Event: Chan 1 Note OFF: G4, Velocity (0 - 127): 64
0    |  MIDI Event: Chan 4 Note OFF: A3, Velocity (0 - 127): 64
0    |  MIDI Event: Chan 5 Note OFF: G2, Velocity (0 - 127): 64
0    |  MIDI Event: Chan 1 Note OFF: B4, Velocity (0 - 127): 64
1    |  MIDI Event: Chan 1 Note ON: B3, Velocity (0 - 127): 45
0    |  MIDI Event: Chan 1 Note ON: D4, Velocity (0 - 127): 73
0    |  MIDI Event: Chan 1 Note ON: G4, Velocity (0 - 127): 86
0    |  MIDI Event: Chan 4 Note ON: A3, Velocity (0 - 127): 101
0    |  MIDI Event: Chan 5 Note ON: G2, Velocity (0 - 127): 101
0    |  MIDI Event: Chan 5 Note ON: E3, Velocity (0 - 127): 116
0    |  Meta Event: Lyric: it 
29   |  MIDI Event: Chan 5 Note OFF: E3, Velocity (0 - 127): 64
0    |  MIDI Event: Chan 1 Note OFF: D4, Velocity (0 - 127): 64
0    |  MIDI Event: Chan 1 Note OFF: G4, Velocity (0 - 127): 64
0    |  MIDI Event: Chan 1 Note OFF: B3, Velocity (0 - 127): 64
0    |  MIDI Event: Chan 5 Note OFF: G2, Velocity (0 - 127): 64
0    |  MIDI Event: Chan 4 Note OFF: A3, Velocity (0 - 127): 64
1    |  MIDI Event: Chan 1 Note ON: F#3, Velocity (0 - 127): 35
0    |  MIDI Event: Chan 1 Note ON: A3, Velocity (0 - 127): 85
0    |  MIDI Event: Chan 1 Note ON: D4, Velocity (0 - 127): 79
0    |  MIDI Event: Chan 4 Note ON: D3, Velocity (0 - 127): 113
0    |  MIDI Event: Chan 5 Note ON: A2, Velocity (0 - 127): 90
0    |  MIDI Event: Chan 5 Note ON: D3, Velocity (0 - 127): 105
0    |  Meta Event: Lyric: starts 
0    |  Meta Event: Lyric: 
59   |  MIDI Event: Chan 5 Note OFF: D3, Velocity (0 - 127): 64
0    |  MIDI Event: Chan 1 Note OFF: A3, Velocity (0 - 127): 64
0    |  MIDI Event: Chan 1 Note OFF: F#3, Velocity (0 - 127): 64
0    |  MIDI Event: Chan 1 Note OFF: D4, Velocity (0 - 127): 64
0    |  MIDI Event: Chan 5 Note OFF: A2, Velocity (0 - 127): 64
1    |  MIDI Event: Chan 1 Note ON: A3, Velocity (0 - 127): 69
0    |  MIDI Event: Chan 1 Note ON: D4, Velocity (0 - 127): 98
0    |  MIDI Event: Chan 1 Note ON: F#4, Velocity (0 - 127): 74
0    |  MIDI Event: Chan 5 Note ON: A2, Velocity (0 - 127): 100
0    |  MIDI Event: Chan 5 Note ON: D3, Velocity (0 - 127): 111
0    |  MIDI Event: Chan 5 Note ON: F#3, Velocity (0 - 127): 89
14   |  MIDI Event: Chan 1 Control/Mode Change: Sound Controller 5 (default: Brightness) (0-127): 51
0    |  MIDI Event: Chan 5 Control/Mode Change: Sound Controller 5 (default: Brightness) (0-127): 51
45   |  MIDI Event: Chan 4 Note OFF: D3, Velocity (0 - 127): 64
30   |  MIDI Event: Chan 5 Note OFF: D3, Velocity (0 - 127): 64
0    |  MIDI Event: Chan 1 Note OFF: D4, Velocity (0 - 127): 64
0    |  MIDI Event: Chan 1 Note OFF: F#4, Velocity (0 - 127): 64
0    |  MIDI Event: Chan 1 Note OFF: A3, Velocity (0 - 127): 64
0    |  MIDI Event: Chan 5 Note OFF: F#3, Velocity (0 - 127): 64
0    |  MIDI Event: Chan 5 Note OFF: A2, Velocity (0 - 127): 64
1    |  MIDI Event: Chan 1 Note ON: F#3, Velocity (0 - 127): 44
0    |  MIDI Event: Chan 1 Note ON: A3, Velocity (0 - 127): 78
0    |  MIDI Event: Chan 1 Note ON: D4, Velocity (0 - 127): 58
0    |  MIDI Event: Chan 5 Note ON: A2, Velocity (0 - 127): 85
0    |  MIDI Event: Chan 5 Note ON: D3, Velocity (0 - 127): 105
0    |  MIDI Event: Chan 5 Note ON: F#3, Velocity (0 - 127): 81
29   |  MIDI Event: Chan 5 Note OFF: F#3, Velocity (0 - 127): 64
0    |  MIDI Event: Chan 1 Note OFF: A3, Velocity (0 - 127): 64
0    |  MIDI Event: Chan 1 Note OFF: D4, Velocity (0 - 127): 64
0    |  MIDI Event: Chan 1 Note OFF: F#3, Velocity (0 - 127): 64
0    |  MIDI Event: Chan 5 Note OFF: D3, Velocity (0 - 127): 64
0    |  MIDI Event: Chan 5 Note OFF: A2, Velocity (0 - 127): 64
1    |  MIDI Event: Chan 1 Note ON: A3, Velocity (0 - 127): 57
0    |  MIDI Event: Chan 1 Note ON: D4, Velocity (0 - 127): 91
0    |  MIDI Event: Chan 1 Note ON: F#4, Velocity (0 - 127): 77
0    |  MIDI Event: Chan 5 Note ON: D3, Velocity (0 - 127): 109
0    |  MIDI Event: Chan 5 Note ON: F#3, Velocity (0 - 127): 89
0    |  MIDI Event: Chan 5 Note ON: A3, Velocity (0 - 127): 109
29   |  MIDI Event: Chan 5 Note OFF: A3, Velocity (0 - 127): 64
0    |  MIDI Event: Chan 1 Note OFF: D4, Velocity (0 - 127): 64
0    |  MIDI Event: Chan 1 Note OFF: F#4, Velocity (0 - 127): 64
0    |  MIDI Event: Chan 1 Note OFF: A3, Velocity (0 - 127): 64
0    |  MIDI Event: Chan 5 Note OFF: F#3, Velocity (0 - 127): 64
0    |  MIDI Event: Chan 5 Note OFF: D3, Velocity (0 - 127): 64
1    |  MIDI Event: Chan 1 Note ON: F#3, Velocity (0 - 127): 35
0    |  MIDI Event: Chan 1 Note ON: A3, Velocity (0 - 127): 79
0    |  MIDI Event: Chan 1 Note ON: D4, Velocity (0 - 127): 56
0    |  MIDI Event: Chan 5 Note ON: D3, Velocity (0 - 127): 111
0    |  MIDI Event: Chan 5 Note ON: F#3, Velocity (0 - 127): 100
0    |  MIDI Event: Chan 5 Note ON: A3, Velocity (0 - 127): 100
20   |  MIDI Event: Chan 1 Control/Mode Change: Sound Controller 5 (default: Brightness) (0-127): 52
0    |  MIDI Event: Chan 5 Control/Mode Change: Sound Controller 5 (default: Brightness) (0-127): 52
9    |  MIDI Event: Chan 5 Note OFF: A3, Velocity (0 - 127): 64
0    |  MIDI Event: Chan 1 Note OFF: A3, Velocity (0 - 127): 64
0    |  MIDI Event: Chan 1 Note OFF: D4, Velocity (0 - 127): 64
0    |  MIDI Event: Chan 1 Note OFF: F#3, Velocity (0 - 127): 64
0    |  MIDI Event: Chan 5 Note OFF: F#3, Velocity (0 - 127): 64
0    |  MIDI Event: Chan 5 Note OFF: D3, Velocity (0 - 127): 64
1    |  MIDI Event: Chan 1 Note ON: F#3, Velocity (0 - 127): 35
0    |  MIDI Event: Chan 1 Note ON: A3, Velocity (0 - 127): 85
0    |  MIDI Event: Chan 1 Note ON: D4, Velocity (0 - 127): 79
0    |  MIDI Event: Chan 5 Note ON: A2, Velocity (0 - 127): 90
0    |  MIDI Event: Chan 5 Note ON: D3, Velocity (0 - 127): 105
59   |  MIDI Event: Chan 5 Note OFF: D3, Velocity (0 - 127): 64
0    |  MIDI Event: Chan 1 Note OFF: D4, Velocity (0 - 127): 64
0    |  MIDI Event: Chan 1 Note OFF: F#3, Velocity (0 - 127): 64
0    |  MIDI Event: Chan 1 Note OFF: A3, Velocity (0 - 127): 64
0    |  MIDI Event: Chan 5 Note OFF: A2, Velocity (0 - 127): 64
1    |  MIDI Event: Chan 1 Note ON: A3, Velocity (0 - 127): 69
0    |  MIDI Event: Chan 1 Note ON: D4, Velocity (0 - 127): 98
0    |  MIDI Event: Chan 1 Note ON: F#4, Velocity (0 - 127): 74
0    |  MIDI Event: Chan 5 Note ON: A2, Velocity (0 - 127): 100
0    |  MIDI Event: Chan 5 Note ON: D3, Velocity (0 - 127): 111
0    |  MIDI Event: Chan 5 Note ON: F#3, Velocity (0 - 127): 89
86   |  MIDI Event: Chan 1 Control/Mode Change: Sound Controller 5 (default: Brightness) (0-127): 53
0    |  MIDI Event: Chan 5 Control/Mode Change: Sound Controller 5 (default: Brightness) (0-127): 53
3    |  MIDI Event: Chan 5 Note OFF: F#3, Velocity (0 - 127): 64
0    |  MIDI Event: Chan 1 Note OFF: D4, Velocity (0 - 127): 64
0    |  MIDI Event: Chan 1 Note OFF: F#4, Velocity (0 - 127): 64
0    |  MIDI Event: Chan 1 Note OFF: A3, Velocity (0 - 127): 64
0    |  MIDI Event: Chan 5 Note OFF: D3, Velocity (0 - 127): 64
0    |  MIDI Event: Chan 5 Note OFF: A2, Velocity (0 - 127): 64
1    |  MIDI Event: Chan 1 Note ON: F#3, Velocity (0 - 127): 44
0    |  MIDI Event: Chan 1 Note ON: A3, Velocity (0 - 127): 78
0    |  MIDI Event: Chan 1 Note ON: D4, Velocity (0 - 127): 58
0    |  MIDI Event: Chan 5 Note ON: A2, Velocity (0 - 127): 85
0    |  MIDI Event: Chan 5 Note ON: D3, Velocity (0 - 127): 105
0    |  MIDI Event: Chan 5 Note ON: F#3, Velocity (0 - 127): 81
29   |  MIDI Event: Chan 5 Note OFF: F#3, Velocity (0 - 127): 64
0    |  MIDI Event: Chan 1 Note OFF: A3, Velocity (0 - 127): 64
0    |  MIDI Event: Chan 1 Note OFF: D4, Velocity (0 - 127): 64
0    |  MIDI Event: Chan 1 Note OFF: F#3, Velocity (0 - 127): 64
0    |  MIDI Event: Chan 5 Note OFF: D3, Velocity (0 - 127): 64
0    |  MIDI Event: Chan 5 Note OFF: A2, Velocity (0 - 127): 64
1    |  MIDI Event: Chan 1 Note ON: A3, Velocity (0 - 127): 57
0    |  MIDI Event: Chan 1 Note ON: D4, Velocity (0 - 127): 91
0    |  MIDI Event: Chan 1 Note ON: F#4, Velocity (0 - 127): 77
0    |  MIDI Event: Chan 5 Note ON: D3, Velocity (0 - 127): 109
0    |  MIDI Event: Chan 5 Note ON: F#3, Velocity (0 - 127): 89
0    |  MIDI Event: Chan 5 Note ON: A3, Velocity (0 - 127): 109
29   |  MIDI Event: Chan 5 Note OFF: A3, Velocity (0 - 127): 64
0    |  MIDI Event: Chan 1 Note OFF: D4, Velocity (0 - 127): 64
0    |  MIDI Event: Chan 1 Note OFF: F#4, Velocity (0 - 127): 64
0    |  MIDI Event: Chan 1 Note OFF: A3, Velocity (0 - 127): 64
0    |  MIDI Event: Chan 5 Note OFF: F#3, Velocity (0 - 127): 64
0    |  MIDI Event: Chan 5 Note OFF: D3, Velocity (0 - 127): 64
1    |  MIDI Event: Chan 1 Note ON: F#3, Velocity (0 - 127): 35
0    |  MIDI Event: Chan 1 Note ON: A3, Velocity (0 - 127): 79
0    |  MIDI Event: Chan 1 Note ON: D4, Velocity (0 - 127): 56
0    |  MIDI Event: Chan 5 Note ON: D3, Velocity (0 - 127): 111
0    |  MIDI Event: Chan 5 Note ON: F#3, Velocity (0 - 127): 100
0    |  MIDI Event: Chan 5 Note ON: A3, Velocity (0 - 127): 100
29   |  MIDI Event: Chan 5 Note OFF: A3, Velocity (0 - 127): 64
0    |  MIDI Event: Chan 1 Note OFF: A3, Velocity (0 - 127): 64
0    |  MIDI Event: Chan 1 Note OFF: D4, Velocity (0 - 127): 64
0    |  MIDI Event: Chan 1 Note OFF: F#3, Velocity (0 - 127): 64
0    |  MIDI Event: Chan 5 Note OFF: F#3, Velocity (0 - 127): 64
0    |  MIDI Event: Chan 5 Note OFF: D3, Velocity (0 - 127): 64
1    |  MIDI Event: Chan 1 Note ON: B3, Velocity (0 - 127): 58
0    |  MIDI Event: Chan 1 Note ON: D4, Velocity (0 - 127): 91
0    |  MIDI Event: Chan 5 Note ON: B2, Velocity (0 - 127): 85
0    |  MIDI Event: Chan 5 Note ON: F#3, Velocity (0 - 127): 120
59   |  MIDI Event: Chan 5 Note OFF: F#3, Velocity (0 - 127): 64
0    |  MIDI Event: Chan 1 Note OFF: B3, Velocity (0 - 127): 64
0    |  MIDI Event: Chan 1 Note OFF: D4, Velocity (0 - 127): 64
0    |  MIDI Event: Chan 5 Note OFF: B2, Velocity (0 - 127): 64
1    |  MIDI Event: Chan 1 Note ON: B3, Velocity (0 - 127): 79
0    |  MIDI Event: Chan 1 Note ON: D4, Velocity (0 - 127): 95
0    |  MIDI Event: Chan 1 Note ON: F#4, Velocity (0 - 127): 74
0    |  MIDI Event: Chan 5 Note ON: D3, Velocity (0 - 127): 92
0    |  MIDI Event: Chan 5 Note ON: F#3, Velocity (0 - 127): 87
0    |  MIDI Event: Chan 5 Note ON: D4, Velocity (0 - 127): 95
2    |  MIDI Event: Chan 1 Control/Mode Change: Sound Controller 5 (default: Brightness) (0-127): 54
0    |  MIDI Event: Chan 5 Control/Mode Change: Sound Controller 5 (default: Brightness) (0-127): 54
28   |  MIDI Event: Chan 4 Note ON: D3, Velocity (0 - 127): 100
0    |  Meta Event: Lyric: They 
29   |  MIDI Event: Chan 4 Note OFF: D3, Velocity (0 - 127): 64
1    |  MIDI Event: Chan 4 Note ON: B3, Velocity (0 - 127): 111
0    |  Meta Event: Lyric: tell 
29   |  MIDI Event: Chan 4 Note OFF: B3, Velocity (0 - 127): 64
0    |  MIDI Event: Chan 5 Note OFF: D4, Velocity (0 - 127): 64
0    |  MIDI Event: Chan 1 Note OFF: D4, Velocity (0 - 127): 64
0    |  MIDI Event: Chan 1 Note OFF: F#4, Velocity (0 - 127): 64
0    |  MIDI Event: Chan 1 Note OFF: B3, Velocity (0 - 127): 64
0    |  MIDI Event: Chan 5 Note OFF: F#3, Velocity (0 - 127): 64
0    |  MIDI Event: Chan 5 Note OFF: D3, Velocity (0 - 127): 64
1    |  MIDI Event: Chan 1 Note ON: B3, Velocity (0 - 127): 71
0    |  MIDI Event: Chan 1 Note ON: D4, Velocity (0 - 127): 91
0    |  MIDI Event: Chan 1 Note ON: F#4, Velocity (0 - 127): 60
0    |  MIDI Event: Chan 5 Note ON: F#3, Velocity (0 - 127): 109
0    |  MIDI Event: Chan 5 Note ON: B3, Velocity (0 - 127): 95
29   |  MIDI Event: Chan 5 Note OFF: B3, Velocity (0 - 127): 64
0    |  MIDI Event: Chan 1 Note OFF: F#4, Velocity (0 - 127): 64
0    |  MIDI Event: Chan 1 Note OFF: B3, Velocity (0 - 127): 64
0    |  MIDI Event: Chan 1 Note OFF: D4, Velocity (0 - 127): 64
0    |  MIDI Event: Chan 5 Note OFF: F#3, Velocity (0 - 127): 64
1    |  MIDI Event: Chan 1 Note ON: D4, Velocity (0 - 127): 80
0    |  MIDI Event: Chan 1 Note ON: F#4, Velocity (0 - 127): 62
0    |  MIDI Event: Chan 1 Note ON: B4, Velocity (0 - 127): 91
0    |  MIDI Event: Chan 4 Note ON: B3, Velocity (0 - 127): 107
0    |  MIDI Event: Chan 5 Note ON: D3, Velocity (0 - 127): 103
0    |  MIDI Event: Chan 5 Note ON: F#3, Velocity (0 - 127): 115
0    |  Meta Event: Lyric: me 
0    |  Meta Event: Lyric: 
29   |  MIDI Event: Chan 5 Note OFF: F#3, Velocity (0 - 127): 64
0    |  MIDI Event: Chan 1 Note OFF: F#4, Velocity (0 - 127): 64
0    |  MIDI Event: Chan 1 Note OFF: B4, Velocity (0 - 127): 64
0    |  MIDI Event: Chan 1 Note OFF: D4, Velocity (0 - 127): 64
0    |  MIDI Event: Chan 5 Note OFF: D3, Velocity (0 - 127): 64
0    |  MIDI Event: Chan 4 Note OFF: B3, Velocity (0 - 127): 64
1    |  MIDI Event: Chan 1 Note ON: B3, Velocity (0 - 127): 51
0    |  MIDI Event: Chan 1 Note ON: D4, Velocity (0 - 127): 85
0    |  MIDI Event: Chan 1 Note ON: F#4, Velocity (0 - 127): 59
0    |  MIDI Event: Chan 4 Note ON: A3, Velocity (0 - 127): 116
0    |  MIDI Event: Chan 5 Note ON: B2, Velocity (0 - 127): 92
0    |  MIDI Event: Chan 5 Note ON: E3, Velocity (0 - 127): 98
0    |  Meta Event: Lyric: I'm 
9    |  MIDI Event: Chan 1 Control/Mode Change: Sound Controller 5 (default: Brightness) (0-127): 55
0    |  MIDI Event: Chan 5 Control/Mode Change: Sound Controller 5 (default: Brightness) (0-127): 55
20   |  MIDI Event: Chan 5 Note OFF: E3, Velocity (0 - 127): 64
0    |  MIDI Event: Chan 1 Note OFF: D4, Velocity (0 - 127): 64
0    |  MIDI Event: Chan 1 Note OFF: B3, Velocity (0 - 127): 64
0    |  MIDI Event: Chan 1 Note OFF: F#4, Velocity (0 - 127): 64
0    |  MIDI Event: Chan 5 Note OFF: B2, Velocity (0 - 127): 64
1    |  MIDI Event: Chan 1 Note ON: G3, Velocity (0 - 127): 74
0    |  MIDI Event: Chan 1 Note ON: B3, Velocity (0 - 127): 94
0    |  MIDI Event: Chan 1 Note ON: D4, Velocity (0 - 127): 91
0    |  MIDI Event: Chan 5 Note ON: G2, Velocity (0 - 127): 98
0    |  MIDI Event: Chan 5 Note ON: D3, Velocity (0 - 127): 116
59   |  MIDI Event: Chan 5 Note OFF: D3, Velocity (0 - 127): 64
0    |  MIDI Event: Chan 1 Note OFF: G3, Velocity (0 - 127): 64
0    |  MIDI Event: Chan 1 Note OFF: B3, Velocity (0 - 127): 64
0    |  MIDI Event: Chan 1 Note OFF: D4, Velocity (0 - 127): 64
0    |  MIDI Event: Chan 5 Note OFF: G2, Velocity (0 - 127): 64
1    |  MIDI Event: Chan 1 Note ON: B3, Velocity (0 - 127): 70
0    |  MIDI Event: Chan 1 Note ON: D4, Velocity (0 - 127): 94
0    |  MIDI Event: Chan 1 Note ON: G4, Velocity (0 - 127): 101
0    |  MIDI Event: Chan 5 Note ON: D3, Velocity (0 - 127): 79
0    |  MIDI Event: Chan 5 Note ON: G3, Velocity (0 - 127): 111
0    |  MIDI Event: Chan 5 Note ON: B3, Velocity (0 - 127): 100
29   |  MIDI Event: Chan 4 Note OFF: A3, Velocity (0 - 127): 64
31   |  MIDI Event: Chan 4 Note ON: A3, Velocity (0 - 127): 111
0    |  Meta Event: Lyric: to
15   |  MIDI Event: Chan 1 Control/Mode Change: Sound Controller 5 (default: Brightness) (0-127): 56
0    |  MIDI Event: Chan 5 Control/Mode Change: Sound Controller 5 (default: Brightness) (0-127): 56
14   |  MIDI Event: Chan 5 Note OFF: G3, Velocity (0 - 127): 64
0    |  MIDI Event: Chan 5 Note OFF: D3, Velocity (0 - 127): 64
0    |  MIDI Event: Chan 1 Note OFF: D4, Velocity (0 - 127): 64
0    |  MIDI Event: Chan 1 Note OFF: G4, Velocity (0 - 127): 64
0    |  MIDI Event: Chan 1 Note OFF: B3, Velocity (0 - 127): 64
0    |  MIDI Event: Chan 5 Note OFF: B3, Velocity (0 - 127): 64
1    |  MIDI Event: Chan 1 Note ON: B3, Velocity (0 - 127): 52
0    |  MIDI Event: Chan 1 Note ON: D4, Velocity (0 - 127): 85
0    |  MIDI Event: Chan 1 Note ON: G4, Velocity (0 - 127): 94
0    |  MIDI Event: Chan 5 Note ON: D3, Velocity (0 - 127): 82
0    |  MIDI Event: Chan 5 Note ON: G3, Velocity (0 - 127): 98
0    |  MIDI Event: Chan 5 Note ON: B3, Velocity (0 - 127): 85
29   |  MIDI Event: Chan 5 Note OFF: B3, Velocity (0 - 127): 64
0    |  MIDI Event: Chan 5 Note OFF: D3, Velocity (0 - 127): 64
0    |  MIDI Event: Chan 1 Note OFF: B3, Velocity (0 - 127): 64
0    |  MIDI Event: Chan 1 Note OFF: D4, Velocity (0 - 127): 64
0    |  MIDI Event: Chan 4 Note OFF: A3, Velocity (0 - 127): 64
0    |  MIDI Event: Chan 5 Note OFF: G3, Velocity (0 - 127): 64
0    |  MIDI Event: Chan 1 Note OFF: G4, Velocity (0 - 127): 64
1    |  MIDI Event: Chan 1 Note ON: D4, Velocity (0 - 127): 78
0    |  MIDI Event: Chan 1 Note ON: G4, Velocity (0 - 127): 100
0    |  MIDI Event: Chan 1 Note ON: B4, Velocity (0 - 127): 46
0    |  MIDI Event: Chan 4 Note ON: F#3, Velocity (0 - 127): 87
0    |  MIDI Event: Chan 5 Note ON: G2, Velocity (0 - 127): 109
0    |  MIDI Event: Chan 5 Note ON: D3, Velocity (0 - 127): 109
0    |  Meta Event: Lyric: o 
29   |  MIDI Event: Chan 5 Note OFF: D3, Velocity (0 - 127): 64
0    |  MIDI Event: Chan 1 Note OFF: G4, Velocity (0 - 127): 64
0    |  MIDI Event: Chan 1 Note OFF: B4, Velocity (0 - 127): 64
0    |  MIDI Event: Chan 1 Note OFF: D4, Velocity (0 - 127): 64
0    |  MIDI Event: Chan 5 Note OFF: G2, Velocity (0 - 127): 64
0    |  MIDI Event: Chan 4 Note OFF: F#3, Velocity (0 - 127): 64
1    |  MIDI Event: Chan 1 Note ON: B3, Velocity (0 - 127): 45
0    |  MIDI Event: Chan 1 Note ON: D4, Velocity (0 - 127): 73
0    |  MIDI Event: Chan 1 Note ON: G4, Velocity (0 - 127): 86
0    |  MIDI Event: Chan 4 Note ON: A3, Velocity (0 - 127): 107
0    |  MIDI Event: Chan 5 Note ON: G2, Velocity (0 - 127): 101
0    |  MIDI Event: Chan 5 Note ON: E3, Velocity (0 - 127): 116
0    |  Meta Event: Lyric: young 
29   |  MIDI Event: Chan 5 Note OFF: E3, Velocity (0 - 127): 64
0    |  MIDI Event: Chan 1 Note OFF: D4, Velocity (0 - 127): 64
0    |  MIDI Event: Chan 1 Note OFF: B3, Velocity (0 - 127): 64
0    |  MIDI Event: Chan 1 Note OFF: G4, Velocity (0 - 127): 64
0    |  MIDI Event: Chan 5 Note OFF: G2, Velocity (0 - 127): 64
1    |  MIDI Event: Chan 1 Note ON: F#3, Velocity (0 - 127): 35
0    |  MIDI Event: Chan 1 Note ON: A3, Velocity (0 - 127): 85
0    |  MIDI Event: Chan 1 Note ON: D4, Velocity (0 - 127): 79
0    |  MIDI Event: Chan 5 Note ON: A2, Velocity (0 - 127): 90
0    |  MIDI Event: Chan 5 Note ON: D3, Velocity (0 - 127): 105
29   |  MIDI Event: Chan 4 Note OFF: A3, Velocity (0 - 127): 64
22   |  MIDI Event: Chan 1 Control/Mode Change: Sound Controller 5 (default: Brightness) (0-127): 57
0    |  MIDI Event: Chan 5 Control/Mode Change: Sound Controller 5 (default: Brightness) (0-127): 57
8    |  MIDI Event: Chan 1 Note OFF: A3, Velocity (0 - 127): 64
0    |  MIDI Event: Chan 1 Note OFF: D4, Velocity (0 - 127): 64
0    |  MIDI Event: Chan 1 Note OFF: F#3, Velocity (0 - 127): 64
0    |  MIDI Event: Chan 5 Note OFF: D3, Velocity (0 - 127): 64
0    |  MIDI Event: Chan 5 Note OFF: A2, Velocity (0 - 127): 64
1    |  MIDI Event: Chan 1 Note ON: A3, Velocity (0 - 127): 69
0    |  MIDI Event: Chan 1 Note ON: D4, Velocity (0 - 127): 98
0    |  MIDI Event: Chan 1 Note ON: F#4, Velocity (0 - 127): 74
0    |  MIDI Event: Chan 4 Note ON: A3, Velocity (0 - 127): 111
0    |  MIDI Event: Chan 5 Note ON: A2, Velocity (0 - 127): 100
0    |  MIDI Event: Chan 5 Note ON: D3, Velocity (0 - 127): 111
0    |  MIDI Event: Chan 5 Note ON: F#3, Velocity (0 - 127): 89
0    |  Meta Event: Lyric: to 
29   |  MIDI Event: Chan 4 Note OFF: A3, Velocity (0 - 127): 64
31   |  MIDI Event: Chan 4 Note ON: F#3, Velocity (0 - 127): 119
0    |  Meta Event: Lyric: un
29   |  MIDI Event: Chan 4 Note OFF: F#3, Velocity (0 - 127): 64
0    |  MIDI Event: Chan 5 Note OFF: F#3, Velocity (0 - 127): 64
0    |  MIDI Event: Chan 1 Note OFF: D4, Velocity (0 - 127): 64
0    |  MIDI Event: Chan 1 Note OFF: F#4, Velocity (0 - 127): 64
0    |  MIDI Event: Chan 1 Note OFF: A3, Velocity (0 - 127): 64
0    |  MIDI Event: Chan 5 Note OFF: D3, Velocity (0 - 127): 64
0    |  MIDI Event: Chan 5 Note OFF: A2, Velocity (0 - 127): 64
1    |  MIDI Event: Chan 1 Note ON: F#3, Velocity (0 - 127): 44
0    |  MIDI Event: Chan 1 Note ON: A3, Velocity (0 - 127): 78
0    |  MIDI Event: Chan 1 Note ON: D4, Velocity (0 - 127): 58
0    |  MIDI Event: Chan 5 Note ON: A2, Velocity (0 - 127): 85
0    |  MIDI Event: Chan 5 Note ON: D3, Velocity (0 - 127): 105
0    |  MIDI Event: Chan 5 Note ON: F#3, Velocity (0 - 127): 81
29   |  MIDI Event: Chan 5 Note OFF: F#3, Velocity (0 - 127): 64
0    |  MIDI Event: Chan 1 Note OFF: A3, Velocity (0 - 127): 64
0    |  MIDI Event: Chan 1 Note OFF: D4, Velocity (0 - 127): 64
0    |  MIDI Event: Chan 1 Note OFF: F#3, Velocity (0 - 127): 64
0    |  MIDI Event: Chan 5 Note OFF: D3, Velocity (0 - 127): 64
0    |  MIDI Event: Chan 5 Note OFF: A2, Velocity (0 - 127): 64
1    |  MIDI Event: Chan 1 Note ON: A3, Velocity (0 - 127): 57
0    |  MIDI Event: Chan 1 Note ON: D4, Velocity (0 - 127): 91
0    |  MIDI Event: Chan 1 Note ON: F#4, Velocity (0 - 127): 77
0    |  MIDI Event: Chan 4 Note ON: E3, Velocity (0 - 127): 86
0    |  MIDI Event: Chan 5 Note ON: D3, Velocity (0 - 127): 109
0    |  MIDI Event: Chan 5 Note ON: F#3, Velocity (0 - 127): 89
0    |  MIDI Event: Chan 5 Note ON: A3, Velocity (0 - 127): 109
0    |  Meta Event: Lyric: der
27   |  MIDI Event: Chan 1 Control/Mode Change: Sound Controller 5 (default: Brightness) (0-127): 58
0    |  MIDI Event: Chan 5 Control/Mode Change: Sound Controller 5 (default: Brightness) (0-127): 58
2    |  MIDI Event: Chan 5 Note OFF: A3, Velocity (0 - 127): 64
0    |  MIDI Event: Chan 5 Note OFF: D3, Velocity (0 - 127): 64
0    |  MIDI Event: Chan 1 Note OFF: D4, Velocity (0 - 127): 64
0    |  MIDI Event: Chan 1 Note OFF: F#4, Velocity (0 - 127): 64
0    |  MIDI Event: Chan 1 Note OFF: A3, Velocity (0 - 127): 64
0    |  MIDI Event: Chan 5 Note OFF: F#3, Velocity (0 - 127): 64
0    |  MIDI Event: Chan 4 Note OFF: E3, Velocity (0 - 127): 64
1    |  MIDI Event: Chan 1 Note ON: F#3, Velocity (0 - 127): 35
0    |  MIDI Event: Chan 1 Note ON: A3, Velocity (0 - 127): 79
0    |  MIDI Event: Chan 1 Note ON: D4, Velocity (0 - 127): 56
0    |  MIDI Event: Chan 4 Note ON: D3, Velocity (0 - 127): 109
0    |  MIDI Event: Chan 5 Note ON: D3, Velocity (0 - 127): 111
0    |  MIDI Event: Chan 5 Note ON: F#3, Velocity (0 - 127): 100
0    |  MIDI Event: Chan 5 Note ON: A3, Velocity (0 - 127): 100
0    |  Meta Event: Lyric: stand 
0    |  Meta Event: Lyric: 
29   |  MIDI Event: Chan 5 Note OFF: A3, Velocity (0 - 127): 64
0    |  MIDI Event: Chan 5 Note OFF: D3, Velocity (0 - 127): 64
0    |  MIDI Event: Chan 1 Note OFF: A3, Velocity (0 - 127): 64
0    |  MIDI Event: Chan 1 Note OFF: F#3, Velocity (0 - 127): 64
0    |  MIDI Event: Chan 1 Note OFF: D4, Velocity (0 - 127): 64
0    |  MIDI Event: Chan 5 Note OFF: F#3, Velocity (0 - 127): 64
1    |  MIDI Event: Chan 1 Note ON: F#3, Velocity (0 - 127): 35
0    |  MIDI Event: Chan 1 Note ON: A3, Velocity (0 - 127): 85
0    |  MIDI Event: Chan 1 Note ON: D4, Velocity (0 - 127): 79
0    |  MIDI Event: Chan 5 Note ON: A2, Velocity (0 - 127): 90
0    |  MIDI Event: Chan 5 Note ON: D3, Velocity (0 - 127): 105
59   |  MIDI Event: Chan 5 Note OFF: D3, Velocity (0 - 127): 64
0    |  MIDI Event: Chan 1 Note OFF: F#3, Velocity (0 - 127): 64
0    |  MIDI Event: Chan 1 Note OFF: A3, Velocity (0 - 127): 64
0    |  MIDI Event: Chan 1 Note OFF: D4, Velocity (0 - 127): 64
0    |  MIDI Event: Chan 5 Note OFF: A2, Velocity (0 - 127): 64
1    |  MIDI Event: Chan 1 Note ON: A3, Velocity (0 - 127): 69
0    |  MIDI Event: Chan 1 Note ON: D4, Velocity (0 - 127): 98
0    |  MIDI Event: Chan 1 Note ON: F#4, Velocity (0 - 127): 74
0    |  MIDI Event: Chan 5 Note ON: A2, Velocity (0 - 127): 100
0    |  MIDI Event: Chan 5 Note ON: D3, Velocity (0 - 127): 111
0    |  MIDI Event: Chan 5 Note ON: F#3, Velocity (0 - 127): 89
59   |  MIDI Event: Chan 4 Note OFF: D3, Velocity (0 - 127): 64
5    |  MIDI Event: Chan 1 Control/Mode Change: Sound Controller 5 (default: Brightness) (0-127): 59
0    |  MIDI Event: Chan 5 Control/Mode Change: Sound Controller 5 (default: Brightness) (0-127): 59
25   |  MIDI Event: Chan 5 Note OFF: D3, Velocity (0 - 127): 64
0    |  MIDI Event: Chan 1 Note OFF: D4, Velocity (0 - 127): 64
0    |  MIDI Event: Chan 1 Note OFF: F#4, Velocity (0 - 127): 64
0    |  MIDI Event: Chan 1 Note OFF: A3, Velocity (0 - 127): 64
0    |  MIDI Event: Chan 5 Note OFF: F#3, Velocity (0 - 127): 64
0    |  MIDI Event: Chan 5 Note OFF: A2, Velocity (0 - 127): 64
1    |  MIDI Event: Chan 1 Note ON: F#3, Velocity (0 - 127): 44
0    |  MIDI Event: Chan 1 Note ON: A3, Velocity (0 - 127): 78
0    |  MIDI Event: Chan 1 Note ON: D4, Velocity (0 - 127): 58
0    |  MIDI Event: Chan 5 Note ON: A2, Velocity (0 - 127): 85
0    |  MIDI Event: Chan 5 Note ON: D3, Velocity (0 - 127): 105
0    |  MIDI Event: Chan 5 Note ON: F#3, Velocity (0 - 127): 81
29   |  MIDI Event: Chan 5 Note OFF: F#3, Velocity (0 - 127): 64
0    |  MIDI Event: Chan 1 Note OFF: A3, Velocity (0 - 127): 64
0    |  MIDI Event: Chan 1 Note OFF: D4, Velocity (0 - 127): 64
0    |  MIDI Event: Chan 1 Note OFF: F#3, Velocity (0 - 127): 64
0    |  MIDI Event: Chan 5 Note OFF: D3, Velocity (0 - 127): 64
0    |  MIDI Event: Chan 5 Note OFF: A2, Velocity (0 - 127): 64
1    |  MIDI Event: Chan 1 Note ON: A3, Velocity (0 - 127): 57
0    |  MIDI Event: Chan 1 Note ON: D4, Velocity (0 - 127): 91
0    |  MIDI Event: Chan 1 Note ON: F#4, Velocity (0 - 127): 77
0    |  MIDI Event: Chan 5 Note ON: D3, Velocity (0 - 127): 109
0    |  MIDI Event: Chan 5 Note ON: F#3, Velocity (0 - 127): 89
0    |  MIDI Event: Chan 5 Note ON: A3, Velocity (0 - 127): 109
29   |  MIDI Event: Chan 5 Note OFF: A3, Velocity (0 - 127): 64
0    |  MIDI Event: Chan 1 Note OFF: D4, Velocity (0 - 127): 64
0    |  MIDI Event: Chan 1 Note OFF: F#4, Velocity (0 - 127): 64
0    |  MIDI Event: Chan 1 Note OFF: A3, Velocity (0 - 127): 64
0    |  MIDI Event: Chan 5 Note OFF: F#3, Velocity (0 - 127): 64
0    |  MIDI Event: Chan 5 Note OFF: D3, Velocity (0 - 127): 64
1    |  MIDI Event: Chan 1 Note ON: F#3, Velocity (0 - 127): 35
0    |  MIDI Event: Chan 1 Note ON: A3, Velocity (0 - 127): 79
0    |  MIDI Event: Chan 1 Note ON: D4, Velocity (0 - 127): 56
0    |  MIDI Event: Chan 5 Note ON: D3, Velocity (0 - 127): 111
0    |  MIDI Event: Chan 5 Note ON: F#3, Velocity (0 - 127): 100
0    |  MIDI Event: Chan 5 Note ON: A3, Velocity (0 - 127): 100
29   |  MIDI Event: Chan 5 Note OFF: A3, Velocity (0 - 127): 64
0    |  MIDI Event: Chan 1 Note OFF: A3, Velocity (0 - 127): 64
0    |  MIDI Event: Chan 1 Note OFF: D4, Velocity (0 - 127): 64
0    |  MIDI Event: Chan 1 Note OFF: F#3, Velocity (0 - 127): 64
0    |  MIDI Event: Chan 5 Note OFF: F#3, Velocity (0 - 127): 64
0    |  MIDI Event: Chan 5 Note OFF: D3, Velocity (0 - 127): 64
1    |  MIDI Event: Chan 1 Note ON: B3, Velocity (0 - 127): 58
0    |  MIDI Event: Chan 1 Note ON: D4, Velocity (0 - 127): 91
0    |  MIDI Event: Chan 5 Note ON: B2, Velocity (0 - 127): 85
0    |  MIDI Event: Chan 5 Note ON: F#3, Velocity (0 - 127): 120
40   |  MIDI Event: Chan 1 Control/Mode Change: Sound Controller 5 (default: Brightness) (0-127): 60
0    |  MIDI Event: Chan 5 Control/Mode Change: Sound Controller 5 (default: Brightness) (0-127): 60
19   |  MIDI Event: Chan 5 Note OFF: F#3, Velocity (0 - 127): 64
0    |  MIDI Event: Chan 1 Note OFF: B3, Velocity (0 - 127): 64
0    |  MIDI Event: Chan 1 Note OFF: D4, Velocity (0 - 127): 64
0    |  MIDI Event: Chan 5 Note OFF: B2, Velocity (0 - 127): 64
1    |  MIDI Event: Chan 1 Note ON: B3, Velocity (0 - 127): 79
0    |  MIDI Event: Chan 1 Note ON: D4, Velocity (0 - 127): 95
0    |  MIDI Event: Chan 1 Note ON: F#4, Velocity (0 - 127): 74
0    |  MIDI Event: Chan 5 Note ON: D3, Velocity (0 - 127): 92
0    |  MIDI Event: Chan 5 Note ON: F#3, Velocity (0 - 127): 87
0    |  MIDI Event: Chan 5 Note ON: D4, Velocity (0 - 127): 95
30   |  MIDI Event: Chan 4 Note ON: D3, Velocity (0 - 127): 83
0    |  Meta Event: Lyric: They 
29   |  MIDI Event: Chan 4 Note OFF: D3, Velocity (0 - 127): 64
1    |  MIDI Event: Chan 4 Note ON: B3, Velocity (0 - 127): 107
0    |  Meta Event: Lyric: say 
29   |  MIDI Event: Chan 4 Note OFF: B3, Velocity (0 - 127): 64
0    |  MIDI Event: Chan 5 Note OFF: D4, Velocity (0 - 127): 64
0    |  MIDI Event: Chan 1 Note OFF: D4, Velocity (0 - 127): 64
0    |  MIDI Event: Chan 1 Note OFF: F#4, Velocity (0 - 127): 64
0    |  MIDI Event: Chan 1 Note OFF: B3, Velocity (0 - 127): 64
0    |  MIDI Event: Chan 5 Note OFF: F#3, Velocity (0 - 127): 64
0    |  MIDI Event: Chan 5 Note OFF: D3, Velocity (0 - 127): 64
1    |  MIDI Event: Chan 1 Note ON: B3, Velocity (0 - 127): 71
0    |  MIDI Event: Chan 1 Note ON: D4, Velocity (0 - 127): 91
0    |  MIDI Event: Chan 1 Note ON: F#4, Velocity (0 - 127): 60
0    |  MIDI Event: Chan 4 Note ON: B3, Velocity (0 - 127): 111
0    |  MIDI Event: Chan 5 Note ON: F#3, Velocity (0 - 127): 109
0    |  MIDI Event: Chan 5 Note ON: B3, Velocity (0 - 127): 95
0    |  Meta Event: Lyric: I'm 
29   |  MIDI Event: Chan 5 Note OFF: B3, Velocity (0 - 127): 64
0    |  MIDI Event: Chan 1 Note OFF: D4, Velocity (0 - 127): 64
0    |  MIDI Event: Chan 1 Note OFF: F#4, Velocity (0 - 127): 64
0    |  MIDI Event: Chan 1 Note OFF: B3, Velocity (0 - 127): 64
0    |  MIDI Event: Chan 5 Note OFF: F#3, Velocity (0 - 127): 64
0    |  MIDI Event: Chan 4 Note OFF: B3, Velocity (0 - 127): 64
1    |  MIDI Event: Chan 1 Note ON: D4, Velocity (0 - 127): 80
0    |  MIDI Event: Chan 1 Note ON: F#4, Velocity (0 - 127): 62
0    |  MIDI Event: Chan 1 Note ON: B4, Velocity (0 - 127): 91
0    |  MIDI Event: Chan 5 Note ON: D3, Velocity (0 - 127): 103
0    |  MIDI Event: Chan 5 Note ON: F#3, Velocity (0 - 127): 115
16   |  MIDI Event: Chan 1 Control/Mode Change: Sound Controller 5 (default: Brightness) (0-127): 61
0    |  MIDI Event: Chan 5 Control/Mode Change: Sound Controller 5 (default: Brightness) (0-127): 61
13   |  MIDI Event: Chan 5 Note OFF: F#3, Velocity (0 - 127): 64
0    |  MIDI Event: Chan 1 Note OFF: B4, Velocity (0 - 127): 64
0    |  MIDI Event: Chan 1 Note OFF: D4, Velocity (0 - 127): 64
0    |  MIDI Event: Chan 1 Note OFF: F#4, Velocity (0 - 127): 64
0    |  MIDI Event: Chan 5 Note OFF: D3, Velocity (0 - 127): 64
1    |  MIDI Event: Chan 1 Note ON: B3, Velocity (0 - 127): 51
0    |  MIDI Event: Chan 1 Note ON: D4, Velocity (0 - 127): 85
0    |  MIDI Event: Chan 1 Note ON: F#4, Velocity (0 - 127): 59
0    |  MIDI Event: Chan 4 Note ON: B3, Velocity (0 - 127): 91
0    |  MIDI Event: Chan 5 Note ON: B2, Velocity (0 - 127): 92
0    |  MIDI Event: Chan 5 Note ON: E3, Velocity (0 - 127): 98
0    |  Meta Event: Lyric: caught 
29   |  MIDI Event: Chan 5 Note OFF: E3, Velocity (0 - 127): 64
0    |  MIDI Event: Chan 1 Note OFF: D4, Velocity (0 - 127): 64
0    |  MIDI Event: Chan 1 Note OFF: F#4, Velocity (0 - 127): 64
0    |  MIDI Event: Chan 1 Note OFF: B3, Velocity (0 - 127): 64
0    |  MIDI Event: Chan 5 Note OFF: B2, Velocity (0 - 127): 64
0    |  MIDI Event: Chan 4 Note OFF: B3, Velocity (0 - 127): 64
1    |  MIDI Event: Chan 1 Note ON: G3, Velocity (0 - 127): 74
0    |  MIDI Event: Chan 1 Note ON: B3, Velocity (0 - 127): 94
0    |  MIDI Event: Chan 1 Note ON: D4, Velocity (0 - 127): 91
0    |  MIDI Event: Chan 5 Note ON: G2, Velocity (0 - 127): 98
0    |  MIDI Event: Chan 5 Note ON: D3, Velocity (0 - 127): 116
30   |  MIDI Event: Chan 4 Note ON: A3, Velocity (0 - 127): 116
0    |  Meta Event: Lyric: up 
29   |  MIDI Event: Chan 4 Note OFF: A3, Velocity (0 - 127): 64
0    |  MIDI Event: Chan 1 Note OFF: B3, Velocity (0 - 127): 64
0    |  MIDI Event: Chan 1 Note OFF: D4, Velocity (0 - 127): 64
0    |  MIDI Event: Chan 1 Note OFF: G3, Velocity (0 - 127): 64
0    |  MIDI Event: Chan 5 Note OFF: D3, Velocity (0 - 127): 64
0    |  MIDI Event: Chan 5 Note OFF: G2, Velocity (0 - 127): 64
1    |  MIDI Event: Chan 1 Note ON: B3, Velocity (0 - 127): 70
0    |  MIDI Event: Chan 1 Note ON: D4, Velocity (0 - 127): 94
0    |  MIDI Event: Chan 1 Note ON: G4, Velocity (0 - 127): 101
0    |  MIDI Event: Chan 5 Note ON: D3, Velocity (0 - 127): 79
0    |  MIDI Event: Chan 5 Note ON: G3, Velocity (0 - 127): 111
0    |  MIDI Event: Chan 5 Note ON: B3, Velocity (0 - 127): 100
30   |  MIDI Event: Chan 4 Note ON: A3, Velocity (0 - 127): 113
0    |  Meta Event: Lyric: in 
22   |  MIDI Event: Chan 1 Control/Mode Change: Sound Controller 5 (default: Brightness) (0-127): 62
0    |  MIDI Event: Chan 5 Control/Mode Change: Sound Controller 5 (default: Brightness) (0-127): 62
7    |  MIDI Event: Chan 4 Note OFF: A3, Velocity (0 - 127): 64
30   |  MIDI Event: Chan 5 Note OFF: G3, Velocity (0 - 127): 64
0    |  MIDI Event: Chan 1 Note OFF: D4, Velocity (0 - 127): 64
0    |  MIDI Event: Chan 1 Note OFF: G4, Velocity (0 - 127): 64
0    |  MIDI Event: Chan 1 Note OFF: B3, Velocity (0 - 127): 64
0    |  MIDI Event: Chan 5 Note OFF: B3, Velocity (0 - 127): 64
0    |  MIDI Event: Chan 5 Note OFF: D3, Velocity (0 - 127): 64
1    |  MIDI Event: Chan 1 Note ON: B3, Velocity (0 - 127): 52
0    |  MIDI Event: Chan 1 Note ON: D4, Velocity (0 - 127): 85
0    |  MIDI Event: Chan 1 Note ON: G4, Velocity (0 - 127): 94
0    |  MIDI Event: Chan 4 Note ON: F#3, Velocity (0 - 127): 115
0    |  MIDI Event: Chan 5 Note ON: D3, Velocity (0 - 127): 82
0    |  MIDI Event: Chan 5 Note ON: G3, Velocity (0 - 127): 98
0    |  MIDI Event: Chan 5 Note ON: B3, Velocity (0 - 127): 85
0    |  Meta Event: Lyric: a 
29   |  MIDI Event: Chan 5 Note OFF: B3, Velocity (0 - 127): 64
0    |  MIDI Event: Chan 5 Note OFF: D3, Velocity (0 - 127): 64
0    |  MIDI Event: Chan 1 Note OFF: D4, Velocity (0 - 127): 64
0    |  MIDI Event: Chan 1 Note OFF: G4, Velocity (0 - 127): 64
0    |  MIDI Event: Chan 1 Note OFF: B3, Velocity (0 - 127): 64
0    |  MIDI Event: Chan 5 Note OFF: G3, Velocity (0 - 127): 64
0    |  MIDI Event: Chan 4 Note OFF: F#3, Velocity (0 - 127): 64
1    |  MIDI Event: Chan 1 Note ON: D4, Velocity (0 - 127): 78
0    |  MIDI Event: Chan 1 Note ON: G4, Velocity (0 - 127): 100
0    |  MIDI Event: Chan 1 Note ON: B4, Velocity (0 - 127): 46
0    |  MIDI Event: Chan 5 Note ON: G2, Velocity (0 - 127): 109
0    |  MIDI Event: Chan 5 Note ON: D3, Velocity (0 - 127): 109
29   |  MIDI Event: Chan 5 Note OFF: D3, Velocity (0 - 127): 64
0    |  MIDI Event: Chan 1 Note OFF: B4, Velocity (0 - 127): 64
0    |  MIDI Event: Chan 1 Note OFF: D4, Velocity (0 - 127): 64
0    |  MIDI Event: Chan 1 Note OFF: G4, Velocity (0 - 127): 64
0    |  MIDI Event: Chan 5 Note OFF: G2, Velocity (0 - 127): 64
1    |  MIDI Event: Chan 1 Note ON: B3, Velocity (0 - 127): 45
0    |  MIDI Event: Chan 1 Note ON: D4, Velocity (0 - 127): 73
0    |  MIDI Event: Chan 1 Note ON: G4, Velocity (0 - 127): 86
0    |  MIDI Event: Chan 4 Note ON: A3, Velocity (0 - 127): 111
0    |  MIDI Event: Chan 5 Note ON: G2, Velocity (0 - 127): 101
0    |  MIDI Event: Chan 5 Note ON: E3, Velocity (0 - 127): 116
0    |  Meta Event: Lyric: dream 
0    |  Meta Event: Lyric: 
29   |  MIDI Event: Chan 5 Note OFF: E3, Velocity (0 - 127): 64
0    |  MIDI Event: Chan 1 Note OFF: D4, Velocity (0 - 127): 64
0    |  MIDI Event: Chan 1 Note OFF: B3, Velocity (0 - 127): 64
0    |  MIDI Event: Chan 1 Note OFF: G4, Velocity (0 - 127): 64
0    |  MIDI Event: Chan 5 Note OFF: G2, Velocity (0 - 127): 64
1    |  MIDI Event: Chan 1 Note ON: F#3, Velocity (0 - 127): 35
0    |  MIDI Event: Chan 1 Note ON: A3, Velocity (0 - 127): 85
0    |  MIDI Event: Chan 1 Note ON: D4, Velocity (0 - 127): 79
0    |  MIDI Event: Chan 5 Note ON: A2, Velocity (0 - 127): 90
0    |  MIDI Event: Chan 5 Note ON: D3, Velocity (0 - 127): 105
29   |  MIDI Event: Chan 1 Control/Mode Change: Sound Controller 5 (default: Brightness) (0-127): 63
0    |  MIDI Event: Chan 5 Control/Mode Change: Sound Controller 5 (default: Brightness) (0-127): 63
30   |  MIDI Event: Chan 5 Note OFF: D3, Velocity (0 - 127): 64
0    |  MIDI Event: Chan 1 Note OFF: F#3, Velocity (0 - 127): 64
0    |  MIDI Event: Chan 1 Note OFF: A3, Velocity (0 - 127): 64
0    |  MIDI Event: Chan 1 Note OFF: D4, Velocity (0 - 127): 64
0    |  MIDI Event: Chan 5 Note OFF: A2, Velocity (0 - 127): 64
1    |  MIDI Event: Chan 1 Note ON: A3, Velocity (0 - 127): 69
0    |  MIDI Event: Chan 1 Note ON: D4, Velocity (0 - 127): 98
0    |  MIDI Event: Chan 1 Note ON: F#4, Velocity (0 - 127): 74
0    |  MIDI Event: Chan 5 Note ON: A2, Velocity (0 - 127): 100
0    |  MIDI Event: Chan 5 Note ON: D3, Velocity (0 - 127): 111
0    |  MIDI Event: Chan 5 Note ON: F#3, Velocity (0 - 127): 89
89   |  MIDI Event: Chan 5 Note OFF: F#3, Velocity (0 - 127): 64
0    |  MIDI Event: Chan 5 Note OFF: A2, Velocity (0 - 127): 64
0    |  MIDI Event: Chan 1 Note OFF: A3, Velocity (0 - 127): 64
0    |  MIDI Event: Chan 1 Note OFF: D4, Velocity (0 - 127): 64
0    |  MIDI Event: Chan 4 Note OFF: A3, Velocity (0 - 127): 64
0    |  MIDI Event: Chan 5 Note OFF: D3, Velocity (0 - 127): 64
0    |  MIDI Event: Chan 1 Note OFF: F#4, Velocity (0 - 127): 64
1    |  MIDI Event: Chan 1 Note ON: F#3, Velocity (0 - 127): 44
0    |  MIDI Event: Chan 1 Note ON: A3, Velocity (0 - 127): 78
0    |  MIDI Event: Chan 1 Note ON: D4, Velocity (0 - 127): 58
0    |  MIDI Event: Chan 5 Note ON: A2, Velocity (0 - 127): 85
0    |  MIDI Event: Chan 5 Note ON: D3, Velocity (0 - 127): 105
0    |  MIDI Event: Chan 5 Note ON: F#3, Velocity (0 - 127): 81
29   |  MIDI Event: Chan 5 Note OFF: F#3, Velocity (0 - 127): 64
0    |  MIDI Event: Chan 1 Note OFF: A3, Velocity (0 - 127): 64
0    |  MIDI Event: Chan 1 Note OFF: D4, Velocity (0 - 127): 64
0    |  MIDI Event: Chan 1 Note OFF: F#3, Velocity (0 - 127): 64
0    |  MIDI Event: Chan 5 Note OFF: D3, Velocity (0 - 127): 64
0    |  MIDI Event: Chan 5 Note OFF: A2, Velocity (0 - 127): 64
1    |  MIDI Event: Chan 1 Note ON: A3, Velocity (0 - 127): 57
0    |  MIDI Event: Chan 1 Note ON: D4, Velocity (0 - 127): 91
0    |  MIDI Event: Chan 1 Note ON: F#4, Velocity (0 - 127): 77
0    |  MIDI Event: Chan 5 Note ON: D3, Velocity (0 - 127): 109
0    |  MIDI Event: Chan 5 Note ON: F#3, Velocity (0 - 127): 89
0    |  MIDI Event: Chan 5 Note ON: A3, Velocity (0 - 127): 109
29   |  MIDI Event: Chan 5 Note OFF: A3, Velocity (0 - 127): 64
0    |  MIDI Event: Chan 1 Note OFF: D4, Velocity (0 - 127): 64
0    |  MIDI Event: Chan 1 Note OFF: F#4, Velocity (0 - 127): 64
0    |  MIDI Event: Chan 1 Note OFF: A3, Velocity (0 - 127): 64
0    |  MIDI Event: Chan 5 Note OFF: F#3, Velocity (0 - 127): 64
0    |  MIDI Event: Chan 5 Note OFF: D3, Velocity (0 - 127): 64
1    |  MIDI Event: Chan 1 Note ON: F#3, Velocity (0 - 127): 35
0    |  MIDI Event: Chan 1 Note ON: A3, Velocity (0 - 127): 79
0    |  MIDI Event: Chan 1 Note ON: D4, Velocity (0 - 127): 56
0    |  MIDI Event: Chan 5 Note ON: D3, Velocity (0 - 127): 111
0    |  MIDI Event: Chan 5 Note ON: F#3, Velocity (0 - 127): 100
0    |  MIDI Event: Chan 5 Note ON: A3, Velocity (0 - 127): 100
29   |  MIDI Event: Chan 5 Note OFF: A3, Velocity (0 - 127): 64
0    |  MIDI Event: Chan 1 Note OFF: A3, Velocity (0 - 127): 64
0    |  MIDI Event: Chan 1 Note OFF: D4, Velocity (0 - 127): 64
0    |  MIDI Event: Chan 1 Note OFF: F#3, Velocity (0 - 127): 64
0    |  MIDI Event: Chan 5 Note OFF: F#3, Velocity (0 - 127): 64
0    |  MIDI Event: Chan 5 Note OFF: D3, Velocity (0 - 127): 64
1    |  MIDI Event: Chan 1 Note ON: F#3, Velocity (0 - 127): 35
0    |  MIDI Event: Chan 1 Note ON: A3, Velocity (0 - 127): 85
0    |  MIDI Event: Chan 1 Note ON: D4, Velocity (0 - 127): 79
0    |  MIDI Event: Chan 5 Note ON: A2, Velocity (0 - 127): 90
0    |  MIDI Event: Chan 5 Note ON: D3, Velocity (0 - 127): 105
59   |  MIDI Event: Chan 5 Note OFF: D3, Velocity (0 - 127): 64
0    |  MIDI Event: Chan 1 Note OFF: D4, Velocity (0 - 127): 64
0    |  MIDI Event: Chan 1 Note OFF: F#3, Velocity (0 - 127): 64
0    |  MIDI Event: Chan 1 Note OFF: A3, Velocity (0 - 127): 64
0    |  MIDI Event: Chan 5 Note OFF: A2, Velocity (0 - 127): 64
1    |  MIDI Event: Chan 1 Note ON: A3, Velocity (0 - 127): 69
0    |  MIDI Event: Chan 1 Note ON: D4, Velocity (0 - 127): 98
0    |  MIDI Event: Chan 1 Note ON: F#4, Velocity (0 - 127): 74
0    |  MIDI Event: Chan 5 Note ON: A2, Velocity (0 - 127): 100
0    |  MIDI Event: Chan 5 Note ON: D3, Velocity (0 - 127): 111
0    |  MIDI Event: Chan 5 Note ON: F#3, Velocity (0 - 127): 89
89   |  MIDI Event: Chan 5 Note OFF: F#3, Velocity (0 - 127): 64
0    |  MIDI Event: Chan 1 Note OFF: D4, Velocity (0 - 127): 64
0    |  MIDI Event: Chan 1 Note OFF: F#4, Velocity (0 - 127): 64
0    |  MIDI Event: Chan 1 Note OFF: A3, Velocity (0 - 127): 64
0    |  MIDI Event: Chan 5 Note OFF: D3, Velocity (0 - 127): 64
0    |  MIDI Event: Chan 5 Note OFF: A2, Velocity (0 - 127): 64
1    |  MIDI Event: Chan 1 Note ON: F#3, Velocity (0 - 127): 44
0    |  MIDI Event: Chan 1 Note ON: A3, Velocity (0 - 127): 78
0    |  MIDI Event: Chan 1 Note ON: D4, Velocity (0 - 127): 58
0    |  MIDI Event: Chan 5 Note ON: A2, Velocity (0 - 127): 85
0    |  MIDI Event: Chan 5 Note ON: D3, Velocity (0 - 127): 105
0    |  MIDI Event: Chan 5 Note ON: F#3, Velocity (0 - 127): 81
29   |  MIDI Event: Chan 5 Note OFF: F#3, Velocity (0 - 127): 64
0    |  MIDI Event: Chan 1 Note OFF: A3, Velocity (0 - 127): 64
0    |  MIDI Event: Chan 1 Note OFF: D4, Velocity (0 - 127): 64
0    |  MIDI Event: Chan 1 Note OFF: F#3, Velocity (0 - 127): 64
0    |  MIDI Event: Chan 5 Note OFF: D3, Velocity (0 - 127): 64
0    |  MIDI Event: Chan 5 Note OFF: A2, Velocity (0 - 127): 64
1    |  MIDI Event: Chan 1 Note ON: A3, Velocity (0 - 127): 57
0    |  MIDI Event: Chan 1 Note ON: D4, Velocity (0 - 127): 91
0    |  MIDI Event: Chan 1 Note ON: F#4, Velocity (0 - 127): 77
0    |  MIDI Event: Chan 5 Note ON: D3, Velocity (0 - 127): 109
0    |  MIDI Event: Chan 5 Note ON: F#3, Velocity (0 - 127): 89
0    |  MIDI Event: Chan 5 Note ON: A3, Velocity (0 - 127): 109
29   |  MIDI Event: Chan 5 Note OFF: A3, Velocity (0 - 127): 64
0    |  MIDI Event: Chan 1 Note OFF: D4, Velocity (0 - 127): 64
0    |  MIDI Event: Chan 1 Note OFF: F#4, Velocity (0 - 127): 64
0    |  MIDI Event: Chan 1 Note OFF: A3, Velocity (0 - 127): 64
0    |  MIDI Event: Chan 5 Note OFF: F#3, Velocity (0 - 127): 64
0    |  MIDI Event: Chan 5 Note OFF: D3, Velocity (0 - 127): 64
1    |  MIDI Event: Chan 1 Note ON: F#3, Velocity (0 - 127): 35
0    |  MIDI Event: Chan 1 Note ON: A3, Velocity (0 - 127): 79
0    |  MIDI Event: Chan 1 Note ON: D4, Velocity (0 - 127): 56
0    |  MIDI Event: Chan 5 Note ON: D3, Velocity (0 - 127): 111
0    |  MIDI Event: Chan 5 Note ON: F#3, Velocity (0 - 127): 100
0    |  MIDI Event: Chan 5 Note ON: A3, Velocity (0 - 127): 100
29   |  MIDI Event: Chan 5 Note OFF: A3, Velocity (0 - 127): 64
0    |  MIDI Event: Chan 1 Note OFF: A3, Velocity (0 - 127): 64
0    |  MIDI Event: Chan 1 Note OFF: D4, Velocity (0 - 127): 64
0    |  MIDI Event: Chan 1 Note OFF: F#3, Velocity (0 - 127): 64
0    |  MIDI Event: Chan 5 Note OFF: F#3, Velocity (0 - 127): 64
0    |  MIDI Event: Chan 5 Note OFF: D3, Velocity (0 - 127): 64
1    |  MIDI Event: Chan 1 Note ON: B3, Velocity (0 - 127): 58
0    |  MIDI Event: Chan 1 Note ON: D4, Velocity (0 - 127): 91
0    |  MIDI Event: Chan 5 Note ON: B2, Velocity (0 - 127): 85
0    |  MIDI Event: Chan 5 Note ON: F#3, Velocity (0 - 127): 120
59   |  MIDI Event: Chan 5 Note OFF: F#3, Velocity (0 - 127): 64
0    |  MIDI Event: Chan 1 Note OFF: B3, Velocity (0 - 127): 64
0    |  MIDI Event: Chan 1 Note OFF: D4, Velocity (0 - 127): 64
0    |  MIDI Event: Chan 5 Note OFF: B2, Velocity (0 - 127): 64
1    |  MIDI Event: Chan 1 Note ON: B3, Velocity (0 - 127): 79
0    |  MIDI Event: Chan 1 Note ON: D4, Velocity (0 - 127): 95
0    |  MIDI Event: Chan 1 Note ON: F#4, Velocity (0 - 127): 74
0    |  MIDI Event: Chan 5 Note ON: D3, Velocity (0 - 127): 92
0    |  MIDI Event: Chan 5 Note ON: F#3, Velocity (0 - 127): 87
0    |  MIDI Event: Chan 5 Note ON: D4, Velocity (0 - 127): 95
30   |  MIDI Event: Chan 4 Note ON: F#3, Velocity (0 - 127): 102
0    |  Meta Event: Lyric: Well 
29   |  MIDI Event: Chan 4 Note OFF: F#3, Velocity (0 - 127): 64
1    |  MIDI Event: Chan 4 Note ON: B3, Velocity (0 - 127): 116
0    |  Meta Event: Lyric: life 
29   |  MIDI Event: Chan 5 Note OFF: F#3, Velocity (0 - 127): 64
0    |  MIDI Event: Chan 5 Note OFF: D3, Velocity (0 - 127): 64
0    |  MIDI Event: Chan 1 Note OFF: D4, Velocity (0 - 127): 64
0    |  MIDI Event: Chan 1 Note OFF: F#4, Velocity (0 - 127): 64
0    |  MIDI Event: Chan 1 Note OFF: B3, Velocity (0 - 127): 64
0    |  MIDI Event: Chan 5 Note OFF: D4, Velocity (0 - 127): 64
1    |  MIDI Event: Chan 1 Note ON: B3, Velocity (0 - 127): 71
0    |  MIDI Event: Chan 1 Note ON: D4, Velocity (0 - 127): 91
0    |  MIDI Event: Chan 1 Note ON: F#4, Velocity (0 - 127): 60
0    |  MIDI Event: Chan 5 Note ON: F#3, Velocity (0 - 127): 109
0    |  MIDI Event: Chan 5 Note ON: B3, Velocity (0 - 127): 95
29   |  MIDI Event: Chan 5 Note OFF: B3, Velocity (0 - 127): 64
0    |  MIDI Event: Chan 1 Note OFF: B3, Velocity (0 - 127): 64
0    |  MIDI Event: Chan 1 Note OFF: D4, Velocity (0 - 127): 64
0    |  MIDI Event: Chan 4 Note OFF: B3, Velocity (0 - 127): 64
0    |  MIDI Event: Chan 5 Note OFF: F#3, Velocity (0 - 127): 64
0    |  MIDI Event: Chan 1 Note OFF: F#4, Velocity (0 - 127): 64
1    |  MIDI Event: Chan 1 Note ON: D4, Velocity (0 - 127): 80
0    |  MIDI Event: Chan 1 Note ON: F#4, Velocity (0 - 127): 62
0    |  MIDI Event: Chan 1 Note ON: B4, Velocity (0 - 127): 91
0    |  MIDI Event: Chan 4 Note ON: C#4, Velocity (0 - 127): 96
0    |  MIDI Event: Chan 5 Note ON: D3, Velocity (0 - 127): 103
0    |  MIDI Event: Chan 5 Note ON: F#3, Velocity (0 - 127): 115
0    |  Meta Event: Lyric: will 
29   |  MIDI Event: Chan 5 Note OFF: F#3, Velocity (0 - 127): 64
0    |  MIDI Event: Chan 1 Note OFF: F#4, Velocity (0 - 127): 64
0    |  MIDI Event: Chan 1 Note OFF: B4, Velocity (0 - 127): 64
0    |  MIDI Event: Chan 1 Note OFF: D4, Velocity (0 - 127): 64
0    |  MIDI Event: Chan 5 Note OFF: D3, Velocity (0 - 127): 64
0    |  MIDI Event: Chan 4 Note OFF: C#4, Velocity (0 - 127): 64
1    |  MIDI Event: Chan 1 Note ON: B3, Velocity (0 - 127): 51
0    |  MIDI Event: Chan 1 Note ON: D4, Velocity (0 - 127): 85
0    |  MIDI Event: Chan 1 Note ON: F#4, Velocity (0 - 127): 59
0    |  MIDI Event: Chan 4 Note ON: D4, Velocity (0 - 127): 118
0    |  MIDI Event: Chan 5 Note ON: B2, Velocity (0 - 127): 92
0    |  MIDI Event: Chan 5 Note ON: E3, Velocity (0 - 127): 98
0    |  Meta Event: Lyric: pass 
29   |  MIDI Event: Chan 5 Note OFF: E3, Velocity (0 - 127): 64
0    |  MIDI Event: Chan 1 Note OFF: D4, Velocity (0 - 127): 64
0    |  MIDI Event: Chan 1 Note OFF: B3, Velocity (0 - 127): 64
0    |  MIDI Event: Chan 1 Note OFF: F#4, Velocity (0 - 127): 64
0    |  MIDI Event: Chan 5 Note OFF: B2, Velocity (0 - 127): 64
1    |  MIDI Event: Chan 1 Note ON: G3, Velocity (0 - 127): 74
0    |  MIDI Event: Chan 1 Note ON: B3, Velocity (0 - 127): 94
0    |  MIDI Event: Chan 1 Note ON: D4, Velocity (0 - 127): 91
0    |  MIDI Event: Chan 5 Note ON: G2, Velocity (0 - 127): 98
0    |  MIDI Event: Chan 5 Note ON: D3, Velocity (0 - 127): 116
29   |  MIDI Event: Chan 4 Note OFF: D4, Velocity (0 - 127): 64
1    |  MIDI Event: Chan 4 Note ON: C#4, Velocity (0 - 127): 96
0    |  Meta Event: Lyric: me 
29   |  MIDI Event: Chan 1 Note OFF: B3, Velocity (0 - 127): 64
0    |  MIDI Event: Chan 5 Note OFF: G2, Velocity (0 - 127): 64
0    |  MIDI Event: Chan 1 Note OFF: D4, Velocity (0 - 127): 64
0    |  MIDI Event: Chan 1 Note OFF: G3, Velocity (0 - 127): 64
0    |  MIDI Event: Chan 5 Note OFF: D3, Velocity (0 - 127): 64
1    |  MIDI Event: Chan 1 Note ON: B3, Velocity (0 - 127): 70
0    |  MIDI Event: Chan 1 Note ON: D4, Velocity (0 - 127): 94
0    |  MIDI Event: Chan 1 Note ON: G4, Velocity (0 - 127): 101
0    |  MIDI Event: Chan 5 Note ON: D3, Velocity (0 - 127): 79
0    |  MIDI Event: Chan 5 Note ON: G3, Velocity (0 - 127): 111
0    |  MIDI Event: Chan 5 Note ON: B3, Velocity (0 - 127): 100
29   |  MIDI Event: Chan 4 Note OFF: C#4, Velocity (0 - 127): 64
1    |  MIDI Event: Chan 4 Note ON: B3, Velocity (0 - 127): 105
0    |  Meta Event: Lyric: by 
0    |  Meta Event: Lyric: 
29   |  MIDI Event: Chan 4 Note OFF: B3, Velocity (0 - 127): 64
30   |  MIDI Event: Chan 5 Note OFF: B3, Velocity (0 - 127): 64
0    |  MIDI Event: Chan 1 Note OFF: D4, Velocity (0 - 127): 64
0    |  MIDI Event: Chan 1 Note OFF: G4, Velocity (0 - 127): 64
0    |  MIDI Event: Chan 1 Note OFF: B3, Velocity (0 - 127): 64
0    |  MIDI Event: Chan 5 Note OFF: G3, Velocity (0 - 127): 64
0    |  MIDI Event: Chan 5 Note OFF: D3, Velocity (0 - 127): 64
1    |  MIDI Event: Chan 1 Note ON: B3, Velocity (0 - 127): 52
0    |  MIDI Event: Chan 1 Note ON: D4, Velocity (0 - 127): 85
0    |  MIDI Event: Chan 1 Note ON: G4, Velocity (0 - 127): 94
0    |  MIDI Event: Chan 4 Note ON: A3, Velocity (0 - 127): 111
0    |  MIDI Event: Chan 5 Note ON: D3, Velocity (0 - 127): 82
0    |  MIDI Event: Chan 5 Note ON: G3, Velocity (0 - 127): 98
0    |  MIDI Event: Chan 5 Note ON: B3, Velocity (0 - 127): 85
0    |  Meta Event: Lyric: if 
29   |  MIDI Event: Chan 5 Note OFF: B3, Velocity (0 - 127): 64
0    |  MIDI Event: Chan 5 Note OFF: D3, Velocity (0 - 127): 64
0    |  MIDI Event: Chan 1 Note OFF: D4, Velocity (0 - 127): 64
0    |  MIDI Event: Chan 1 Note OFF: G4, Velocity (0 - 127): 64
0    |  MIDI Event: Chan 1 Note OFF: B3, Velocity (0 - 127): 64
0    |  MIDI Event: Chan 5 Note OFF: G3, Velocity (0 - 127): 64
0    |  MIDI Event: Chan 4 Note OFF: A3, Velocity (0 - 127): 64
1    |  MIDI Event: Chan 1 Note ON: D4, Velocity (0 - 127): 78
0    |  MIDI Event: Chan 1 Note ON: G4, Velocity (0 - 127): 100
0    |  MIDI Event: Chan 1 Note ON: B4, Velocity (0 - 127): 46
0    |  MIDI Event: Chan 5 Note ON: G2, Velocity (0 - 127): 109
0    |  MIDI Event: Chan 5 Note ON: D3, Velocity (0 - 127): 109
29   |  MIDI Event: Chan 5 Note OFF: D3, Velocity (0 - 127): 64
0    |  MIDI Event: Chan 1 Note OFF: B4, Velocity (0 - 127): 64
0    |  MIDI Event: Chan 1 Note OFF: D4, Velocity (0 - 127): 64
0    |  MIDI Event: Chan 1 Note OFF: G4, Velocity (0 - 127): 64
0    |  MIDI Event: Chan 5 Note OFF: G2, Velocity (0 - 127): 64
1    |  MIDI Event: Chan 1 Note ON: B3, Velocity (0 - 127): 45
0    |  MIDI Event: Chan 1 Note ON: D4, Velocity (0 - 127): 73
0    |  MIDI Event: Chan 1 Note ON: G4, Velocity (0 - 127): 86
0    |  MIDI Event: Chan 4 Note ON: A3, Velocity (0 - 127): 113
0    |  MIDI Event: Chan 5 Note ON: G2, Velocity (0 - 127): 101
0    |  MIDI Event: Chan 5 Note ON: E3, Velocity (0 - 127): 116
0    |  Meta Event: Lyric: I 
29   |  MIDI Event: Chan 5 Note OFF: E3, Velocity (0 - 127): 64
0    |  MIDI Event: Chan 1 Note OFF: D4, Velocity (0 - 127): 64
0    |  MIDI Event: Chan 1 Note OFF: B3, Velocity (0 - 127): 64
0    |  MIDI Event: Chan 1 Note OFF: G4, Velocity (0 - 127): 64
0    |  MIDI Event: Chan 5 Note OFF: G2, Velocity (0 - 127): 64
1    |  MIDI Event: Chan 1 Note ON: F#3, Velocity (0 - 127): 35
0    |  MIDI Event: Chan 1 Note ON: A3, Velocity (0 - 127): 85
0    |  MIDI Event: Chan 1 Note ON: D4, Velocity (0 - 127): 79
0    |  MIDI Event: Chan 5 Note ON: A2, Velocity (0 - 127): 90
0    |  MIDI Event: Chan 5 Note ON: D3, Velocity (0 - 127): 105
29   |  MIDI Event: Chan 4 Note OFF: A3, Velocity (0 - 127): 64
1    |  MIDI Event: Chan 4 Note ON: A3, Velocity (0 - 127): 105
0    |  Meta Event: Lyric: don't 
29   |  MIDI Event: Chan 1 Note OFF: A3, Velocity (0 - 127): 64
0    |  MIDI Event: Chan 5 Note OFF: A2, Velocity (0 - 127): 64
0    |  MIDI Event: Chan 1 Note OFF: D4, Velocity (0 - 127): 64
0    |  MIDI Event: Chan 1 Note OFF: F#3, Velocity (0 - 127): 64
0    |  MIDI Event: Chan 5 Note OFF: D3, Velocity (0 - 127): 64
1    |  MIDI Event: Chan 1 Note ON: A3, Velocity (0 - 127): 69
0    |  MIDI Event: Chan 1 Note ON: D4, Velocity (0 - 127): 98
0    |  MIDI Event: Chan 1 Note ON: F#4, Velocity (0 - 127): 74
0    |  MIDI Event: Chan 5 Note ON: A2, Velocity (0 - 127): 100
0    |  MIDI Event: Chan 5 Note ON: D3, Velocity (0 - 127): 111
0    |  MIDI Event: Chan 5 Note ON: F#3, Velocity (0 - 127): 89
29   |  MIDI Event: Chan 4 Note OFF: A3, Velocity (0 - 127): 64
1    |  MIDI Event: Chan 4 Note ON: F#3, Velocity (0 - 127): 109
0    |  Meta Event: Lyric: o
59   |  MIDI Event: Chan 4 Note OFF: F#3, Velocity (0 - 127): 64
0    |  MIDI Event: Chan 5 Note OFF: F#3, Velocity (0 - 127): 64
0    |  MIDI Event: Chan 1 Note OFF: D4, Velocity (0 - 127): 64
0    |  MIDI Event: Chan 1 Note OFF: F#4, Velocity (0 - 127): 64
0    |  MIDI Event: Chan 1 Note OFF: A3, Velocity (0 - 127): 64
0    |  MIDI Event: Chan 5 Note OFF: D3, Velocity (0 - 127): 64
0    |  MIDI Event: Chan 5 Note OFF: A2, Velocity (0 - 127): 64
1    |  MIDI Event: Chan 1 Note ON: F#3, Velocity (0 - 127): 44
0    |  MIDI Event: Chan 1 Note ON: A3, Velocity (0 - 127): 78
0    |  MIDI Event: Chan 1 Note ON: D4, Velocity (0 - 127): 58
0    |  MIDI Event: Chan 4 Note ON: E3, Velocity (0 - 127): 95
0    |  MIDI Event: Chan 5 Note ON: A2, Velocity (0 - 127): 85
0    |  MIDI Event: Chan 5 Note ON: D3, Velocity (0 - 127): 105
0    |  MIDI Event: Chan 5 Note ON: F#3, Velocity (0 - 127): 81
0    |  Meta Event: Lyric: pen 
29   |  MIDI Event: Chan 5 Note OFF: F#3, Velocity (0 - 127): 64
0    |  MIDI Event: Chan 5 Note OFF: A2, Velocity (0 - 127): 64
0    |  MIDI Event: Chan 1 Note OFF: A3, Velocity (0 - 127): 64
0    |  MIDI Event: Chan 1 Note OFF: F#3, Velocity (0 - 127): 64
0    |  MIDI Event: Chan 1 Note OFF: D4, Velocity (0 - 127): 64
0    |  MIDI Event: Chan 5 Note OFF: D3, Velocity (0 - 127): 64
1    |  MIDI Event: Chan 1 Note ON: A3, Velocity (0 - 127): 57
0    |  MIDI Event: Chan 1 Note ON: D4, Velocity (0 - 127): 91
0    |  MIDI Event: Chan 1 Note ON: F#4, Velocity (0 - 127): 77
0    |  MIDI Event: Chan 5 Note ON: D3, Velocity (0 - 127): 109
0    |  MIDI Event: Chan 5 Note ON: F#3, Velocity (0 - 127): 89
0    |  MIDI Event: Chan 5 Note ON: A3, Velocity (0 - 127): 109
29   |  MIDI Event: Chan 5 Note OFF: A3, Velocity (0 - 127): 64
0    |  MIDI Event: Chan 5 Note OFF: D3, Velocity (0 - 127): 64
0    |  MIDI Event: Chan 1 Note OFF: A3, Velocity (0 - 127): 64
0    |  MIDI Event: Chan 1 Note OFF: D4, Velocity (0 - 127): 64
0    |  MIDI Event: Chan 4 Note OFF: E3, Velocity (0 - 127): 64
0    |  MIDI Event: Chan 5 Note OFF: F#3, Velocity (0 - 127): 64
0    |  MIDI Event: Chan 1 Note OFF: F#4, Velocity (0 - 127): 64
1    |  MIDI Event: Chan 1 Note ON: F#3, Velocity (0 - 127): 35
0    |  MIDI Event: Chan 1 Note ON: A3, Velocity (0 - 127): 79
0    |  MIDI Event: Chan 1 Note ON: D4, Velocity (0 - 127): 56
0    |  MIDI Event: Chan 4 Note ON: D3, Velocity (0 - 127): 116
0    |  MIDI Event: Chan 5 Note ON: D3, Velocity (0 - 127): 111
0    |  MIDI Event: Chan 5 Note ON: F#3, Velocity (0 - 127): 100
0    |  MIDI Event: Chan 5 Note ON: A3, Velocity (0 - 127): 100
0    |  Meta Event: Lyric: up 
29   |  MIDI Event: Chan 5 Note OFF: A3, Velocity (0 - 127): 64
0    |  MIDI Event: Chan 5 Note OFF: D3, Velocity (0 - 127): 64
0    |  MIDI Event: Chan 1 Note OFF: A3, Velocity (0 - 127): 64
0    |  MIDI Event: Chan 1 Note OFF: F#3, Velocity (0 - 127): 64
0    |  MIDI Event: Chan 1 Note OFF: D4, Velocity (0 - 127): 64
0    |  MIDI Event: Chan 5 Note OFF: F#3, Velocity (0 - 127): 64
1    |  MIDI Event: Chan 1 Note ON: F#3, Velocity (0 - 127): 35
0    |  MIDI Event: Chan 1 Note ON: A3, Velocity (0 - 127): 85
0    |  MIDI Event: Chan 1 Note ON: D4, Velocity (0 - 127): 79
0    |  MIDI Event: Chan 5 Note ON: A2, Velocity (0 - 127): 90
0    |  MIDI Event: Chan 5 Note ON: D3, Velocity (0 - 127): 105
29   |  MIDI Event: Chan 4 Note OFF: D3, Velocity (0 - 127): 64
1    |  MIDI Event: Chan 4 Note ON: E3, Velocity (0 - 127): 111
0    |  Meta Event: Lyric: my 
29   |  MIDI Event: Chan 1 Note OFF: A3, Velocity (0 - 127): 64
0    |  MIDI Event: Chan 5 Note OFF: A2, Velocity (0 - 127): 64
0    |  MIDI Event: Chan 1 Note OFF: D4, Velocity (0 - 127): 64
0    |  MIDI Event: Chan 1 Note OFF: F#3, Velocity (0 - 127): 64
0    |  MIDI Event: Chan 5 Note OFF: D3, Velocity (0 - 127): 64
1    |  MIDI Event: Chan 1 Note ON: A3, Velocity (0 - 127): 69
0    |  MIDI Event: Chan 1 Note ON: D4, Velocity (0 - 127): 98
0    |  MIDI Event: Chan 1 Note ON: F#4, Velocity (0 - 127): 74
0    |  MIDI Event: Chan 5 Note ON: A2, Velocity (0 - 127): 100
0    |  MIDI Event: Chan 5 Note ON: D3, Velocity (0 - 127): 111
0    |  MIDI Event: Chan 5 Note ON: F#3, Velocity (0 - 127): 89
59   |  MIDI Event: Chan 4 Note OFF: E3, Velocity (0 - 127): 64
1    |  MIDI Event: Chan 4 Note ON: F#3, Velocity (0 - 127): 120
0    |  Meta Event: Lyric: eyes 
0    |  Meta Event: Lyric: 
29   |  MIDI Event: Chan 5 Note OFF: D3, Velocity (0 - 127): 64
0    |  MIDI Event: Chan 5 Note OFF: A2, Velocity (0 - 127): 64
0    |  MIDI Event: Chan 1 Note OFF: D4, Velocity (0 - 127): 64
0    |  MIDI Event: Chan 1 Note OFF: F#4, Velocity (0 - 127): 64
0    |  MIDI Event: Chan 1 Note OFF: A3, Velocity (0 - 127): 64
0    |  MIDI Event: Chan 5 Note OFF: F#3, Velocity (0 - 127): 64
1    |  MIDI Event: Chan 1 Note ON: F#3, Velocity (0 - 127): 44
0    |  MIDI Event: Chan 1 Note ON: A3, Velocity (0 - 127): 78
0    |  MIDI Event: Chan 1 Note ON: D4, Velocity (0 - 127): 58
0    |  MIDI Event: Chan 5 Note ON: A2, Velocity (0 - 127): 85
0    |  MIDI Event: Chan 5 Note ON: D3, Velocity (0 - 127): 105
0    |  MIDI Event: Chan 5 Note ON: F#3, Velocity (0 - 127): 81
29   |  MIDI Event: Chan 5 Note OFF: F#3, Velocity (0 - 127): 64
0    |  MIDI Event: Chan 5 Note OFF: A2, Velocity (0 - 127): 64
0    |  MIDI Event: Chan 1 Note OFF: F#3, Velocity (0 - 127): 64
0    |  MIDI Event: Chan 1 Note OFF: A3, Velocity (0 - 127): 64
0    |  MIDI Event: Chan 1 Note OFF: D4, Velocity (0 - 127): 64
0    |  MIDI Event: Chan 5 Note OFF: D3, Velocity (0 - 127): 64
1    |  MIDI Event: Chan 1 Note ON: A3, Velocity (0 - 127): 57
0    |  MIDI Event: Chan 1 Note ON: D4, Velocity (0 - 127): 91
0    |  MIDI Event: Chan 1 Note ON: F#4, Velocity (0 - 127): 77
0    |  MIDI Event: Chan 5 Note ON: D3, Velocity (0 - 127): 109
0    |  MIDI Event: Chan 5 Note ON: F#3, Velocity (0 - 127): 89
0    |  MIDI Event: Chan 5 Note ON: A3, Velocity (0 - 127): 109
29   |  MIDI Event: Chan 5 Note OFF: A3, Velocity (0 - 127): 64
0    |  MIDI Event: Chan 5 Note OFF: D3, Velocity (0 - 127): 64
0    |  MIDI Event: Chan 1 Note OFF: A3, Velocity (0 - 127): 64
0    |  MIDI Event: Chan 1 Note OFF: D4, Velocity (0 - 127): 64
0    |  MIDI Event: Chan 1 Note OFF: F#4, Velocity (0 - 127): 64
0    |  MIDI Event: Chan 5 Note OFF: F#3, Velocity (0 - 127): 64
1    |  MIDI Event: Chan 1 Note ON: F#3, Velocity (0 - 127): 35
0    |  MIDI Event: Chan 1 Note ON: A3, Velocity (0 - 127): 79
0    |  MIDI Event: Chan 1 Note ON: D4, Velocity (0 - 127): 56
0    |  MIDI Event: Chan 5 Note ON: D3, Velocity (0 - 127): 111
0    |  MIDI Event: Chan 5 Note ON: F#3, Velocity (0 - 127): 100
0    |  MIDI Event: Chan 5 Note ON: A3, Velocity (0 - 127): 100
29   |  MIDI Event: Chan 5 Note OFF: A3, Velocity (0 - 127): 64
0    |  MIDI Event: Chan 5 Note OFF: D3, Velocity (0 - 127): 64
0    |  MIDI Event: Chan 1 Note OFF: F#3, Velocity (0 - 127): 64
0    |  MIDI Event: Chan 1 Note OFF: A3, Velocity (0 - 127): 64
0    |  MIDI Event: Chan 4 Note OFF: F#3, Velocity (0 - 127): 64
0    |  MIDI Event: Chan 5 Note OFF: F#3, Velocity (0 - 127): 64
0    |  MIDI Event: Chan 1 Note OFF: D4, Velocity (0 - 127): 64
1    |  MIDI Event: Chan 1 Note ON: B3, Velocity (0 - 127): 58
0    |  MIDI Event: Chan 1 Note ON: D4, Velocity (0 - 127): 91
0    |  MIDI Event: Chan 5 Note ON: B2, Velocity (0 - 127): 85
0    |  MIDI Event: Chan 5 Note ON: F#3, Velocity (0 - 127): 120
59   |  MIDI Event: Chan 5 Note OFF: F#3, Velocity (0 - 127): 64
0    |  MIDI Event: Chan 1 Note OFF: B3, Velocity (0 - 127): 64
0    |  MIDI Event: Chan 1 Note OFF: D4, Velocity (0 - 127): 64
0    |  MIDI Event: Chan 5 Note OFF: B2, Velocity (0 - 127): 64
1    |  MIDI Event: Chan 1 Note ON: B3, Velocity (0 - 127): 79
0    |  MIDI Event: Chan 1 Note ON: D4, Velocity (0 - 127): 95
0    |  MIDI Event: Chan 1 Note ON: F#4, Velocity (0 - 127): 74
0    |  MIDI Event: Chan 5 Note ON: D3, Velocity (0 - 127): 92
0    |  MIDI Event: Chan 5 Note ON: F#3, Velocity (0 - 127): 87
0    |  MIDI Event: Chan 5 Note ON: D4, Velocity (0 - 127): 95
89   |  MIDI Event: Chan 5 Note OFF: D4, Velocity (0 - 127): 64
0    |  MIDI Event: Chan 1 Note OFF: D4, Velocity (0 - 127): 64
0    |  MIDI Event: Chan 1 Note OFF: F#4, Velocity (0 - 127): 64
0    |  MIDI Event: Chan 1 Note OFF: B3, Velocity (0 - 127): 64
0    |  MIDI Event: Chan 5 Note OFF: F#3, Velocity (0 - 127): 64
0    |  MIDI Event: Chan 5 Note OFF: D3, Velocity (0 - 127): 64
1    |  MIDI Event: Chan 1 Note ON: B3, Velocity (0 - 127): 71
0    |  MIDI Event: Chan 1 Note ON: D4, Velocity (0 - 127): 91
0    |  MIDI Event: Chan 1 Note ON: F#4, Velocity (0 - 127): 60
0    |  MIDI Event: Chan 4 Note ON: E3, Velocity (0 - 127): 101
0    |  MIDI Event: Chan 5 Note ON: F#3, Velocity (0 - 127): 109
0    |  MIDI Event: Chan 5 Note ON: B3, Velocity (0 - 127): 95
0    |  Meta Event: Lyric: Well 
29   |  MIDI Event: Chan 5 Note OFF: B3, Velocity (0 - 127): 64
0    |  MIDI Event: Chan 1 Note OFF: D4, Velocity (0 - 127): 64
0    |  MIDI Event: Chan 1 Note OFF: F#4, Velocity (0 - 127): 64
0    |  MIDI Event: Chan 1 Note OFF: B3, Velocity (0 - 127): 64
0    |  MIDI Event: Chan 5 Note OFF: F#3, Velocity (0 - 127): 64
0    |  MIDI Event: Chan 4 Note OFF: E3, Velocity (0 - 127): 64
1    |  MIDI Event: Chan 1 Note ON: D4, Velocity (0 - 127): 80
0    |  MIDI Event: Chan 1 Note ON: F#4, Velocity (0 - 127): 62
0    |  MIDI Event: Chan 1 Note ON: B4, Velocity (0 - 127): 91
0    |  MIDI Event: Chan 4 Note ON: F#3, Velocity (0 - 127): 119
0    |  MIDI Event: Chan 5 Note ON: D3, Velocity (0 - 127): 103
0    |  MIDI Event: Chan 5 Note ON: F#3, Velocity (0 - 127): 115
0    |  Meta Event: Lyric: that's 
29   |  MIDI Event: Chan 5 Note OFF: F#3, Velocity (0 - 127): 64
0    |  MIDI Event: Chan 1 Note OFF: F#4, Velocity (0 - 127): 64
0    |  MIDI Event: Chan 1 Note OFF: B4, Velocity (0 - 127): 64
0    |  MIDI Event: Chan 1 Note OFF: D4, Velocity (0 - 127): 64
0    |  MIDI Event: Chan 5 Note OFF: D3, Velocity (0 - 127): 64
0    |  MIDI Event: Chan 4 Note OFF: F#3, Velocity (0 - 127): 64
1    |  MIDI Event: Chan 1 Note ON: B3, Velocity (0 - 127): 51
0    |  MIDI Event: Chan 1 Note ON: D4, Velocity (0 - 127): 85
0    |  MIDI Event: Chan 1 Note ON: F#4, Velocity (0 - 127): 59
0    |  MIDI Event: Chan 5 Note ON: B2, Velocity (0 - 127): 92
0    |  MIDI Event: Chan 5 Note ON: E3, Velocity (0 - 127): 98
29   |  MIDI Event: Chan 5 Note OFF: E3, Velocity (0 - 127): 64
0    |  MIDI Event: Chan 1 Note OFF: F#4, Velocity (0 - 127): 64
0    |  MIDI Event: Chan 1 Note OFF: B3, Velocity (0 - 127): 64
0    |  MIDI Event: Chan 1 Note OFF: D4, Velocity (0 - 127): 64
0    |  MIDI Event: Chan 5 Note OFF: B2, Velocity (0 - 127): 64
1    |  MIDI Event: Chan 1 Note ON: G3, Velocity (0 - 127): 74
0    |  MIDI Event: Chan 1 Note ON: B3, Velocity (0 - 127): 94
0    |  MIDI Event: Chan 1 Note ON: D4, Velocity (0 - 127): 91
0    |  MIDI Event: Chan 4 Note ON: G3, Velocity (0 - 127): 111
0    |  MIDI Event: Chan 5 Note ON: G2, Velocity (0 - 127): 98
0    |  MIDI Event: Chan 5 Note ON: D3, Velocity (0 - 127): 116
0    |  Meta Event: Lyric: fine 
59   |  MIDI Event: Chan 5 Note OFF: D3, Velocity (0 - 127): 64
0    |  MIDI Event: Chan 1 Note OFF: B3, Velocity (0 - 127): 64
0    |  MIDI Event: Chan 1 Note OFF: G3, Velocity (0 - 127): 64
0    |  MIDI Event: Chan 1 Note OFF: D4, Velocity (0 - 127): 64
0    |  MIDI Event: Chan 5 Note OFF: G2, Velocity (0 - 127): 64
1    |  MIDI Event: Chan 1 Note ON: B3, Velocity (0 - 127): 70
0    |  MIDI Event: Chan 1 Note ON: D4, Velocity (0 - 127): 94
0    |  MIDI Event: Chan 1 Note ON: G4, Velocity (0 - 127): 101
0    |  MIDI Event: Chan 5 Note ON: D3, Velocity (0 - 127): 79
0    |  MIDI Event: Chan 5 Note ON: G3, Velocity (0 - 127): 111
0    |  MIDI Event: Chan 5 Note ON: B3, Velocity (0 - 127): 100
29   |  MIDI Event: Chan 4 Note OFF: G3, Velocity (0 - 127): 64
31   |  MIDI Event: Chan 4 Note ON: A3, Velocity (0 - 127): 109
0    |  Meta Event: Lyric: by 
29   |  MIDI Event: Chan 5 Note OFF: G3, Velocity (0 - 127): 64
0    |  MIDI Event: Chan 5 Note OFF: D3, Velocity (0 - 127): 64
0    |  MIDI Event: Chan 1 Note OFF: D4, Velocity (0 - 127): 64
0    |  MIDI Event: Chan 1 Note OFF: G4, Velocity (0 - 127): 64
0    |  MIDI Event: Chan 1 Note OFF: B3, Velocity (0 - 127): 64
0    |  MIDI Event: Chan 5 Note OFF: B3, Velocity (0 - 127): 64
1    |  MIDI Event: Chan 1 Note ON: B3, Velocity (0 - 127): 52
0    |  MIDI Event: Chan 1 Note ON: D4, Velocity (0 - 127): 85
0    |  MIDI Event: Chan 1 Note ON: G4, Velocity (0 - 127): 94
0    |  MIDI Event: Chan 5 Note ON: D3, Velocity (0 - 127): 82
0    |  MIDI Event: Chan 5 Note ON: G3, Velocity (0 - 127): 98
0    |  MIDI Event: Chan 5 Note ON: B3, Velocity (0 - 127): 85
29   |  MIDI Event: Chan 5 Note OFF: B3, Velocity (0 - 127): 64
0    |  MIDI Event: Chan 5 Note OFF: D3, Velocity (0 - 127): 64
0    |  MIDI Event: Chan 1 Note OFF: B3, Velocity (0 - 127): 64
0    |  MIDI Event: Chan 1 Note OFF: D4, Velocity (0 - 127): 64
0    |  MIDI Event: Chan 1 Note OFF: G4, Velocity (0 - 127): 64
0    |  MIDI Event: Chan 5 Note OFF: G3, Velocity (0 - 127): 64
1    |  MIDI Event: Chan 1 Note ON: D4, Velocity (0 - 127): 78
0    |  MIDI Event: Chan 1 Note ON: G4, Velocity (0 - 127): 100
0    |  MIDI Event: Chan 1 Note ON: B4, Velocity (0 - 127): 46
0    |  MIDI Event: Chan 5 Note ON: G2, Velocity (0 - 127): 109
0    |  MIDI Event: Chan 5 Note ON: D3, Velocity (0 - 127): 109
29   |  MIDI Event: Chan 5 Note OFF: D3, Velocity (0 - 127): 64
0    |  MIDI Event: Chan 1 Note OFF: D4, Velocity (0 - 127): 64
0    |  MIDI Event: Chan 1 Note OFF: G4, Velocity (0 - 127): 64
0    |  MIDI Event: Chan 4 Note OFF: A3, Velocity (0 - 127): 64
0    |  MIDI Event: Chan 5 Note OFF: G2, Velocity (0 - 127): 64
0    |  MIDI Event: Chan 1 Note OFF: B4, Velocity (0 - 127): 64
1    |  MIDI Event: Chan 1 Note ON: B3, Velocity (0 - 127): 45
0    |  MIDI Event: Chan 1 Note ON: D4, Velocity (0 - 127): 73
0    |  MIDI Event: Chan 1 Note ON: G4, Velocity (0 - 127): 86
0    |  MIDI Event: Chan 4 Note ON: D3, Velocity (0 - 127): 116
0    |  MIDI Event: Chan 5 Note ON: G2, Velocity (0 - 127): 101
0    |  MIDI Event: Chan 5 Note ON: E3, Velocity (0 - 127): 116
0    |  Meta Event: Lyric: me 
0    |  Meta Event: Lyric: 
29   |  MIDI Event: Chan 5 Note OFF: E3, Velocity (0 - 127): 64
0    |  MIDI Event: Chan 1 Note OFF: D4, Velocity (0 - 127): 64
0    |  MIDI Event: Chan 1 Note OFF: B3, Velocity (0 - 127): 64
0    |  MIDI Event: Chan 1 Note OFF: G4, Velocity (0 - 127): 64
0    |  MIDI Event: Chan 5 Note OFF: G2, Velocity (0 - 127): 64
1    |  MIDI Event: Chan 1 Note ON: F#3, Velocity (0 - 127): 35
0    |  MIDI Event: Chan 1 Note ON: A3, Velocity (0 - 127): 85
0    |  MIDI Event: Chan 1 Note ON: D4, Velocity (0 - 127): 79
0    |  MIDI Event: Chan 5 Note ON: A2, Velocity (0 - 127): 90
0    |  MIDI Event: Chan 5 Note ON: D3, Velocity (0 - 127): 105
59   |  MIDI Event: Chan 5 Note OFF: D3, Velocity (0 - 127): 64
0    |  MIDI Event: Chan 1 Note OFF: F#3, Velocity (0 - 127): 64
0    |  MIDI Event: Chan 1 Note OFF: A3, Velocity (0 - 127): 64
0    |  MIDI Event: Chan 1 Note OFF: D4, Velocity (0 - 127): 64
0    |  MIDI Event: Chan 5 Note OFF: A2, Velocity (0 - 127): 64
1    |  MIDI Event: Chan 1 Note ON: A3, Velocity (0 - 127): 69
0    |  MIDI Event: Chan 1 Note ON: D4, Velocity (0 - 127): 98
0    |  MIDI Event: Chan 1 Note ON: F#4, Velocity (0 - 127): 74
0    |  MIDI Event: Chan 5 Note ON: A2, Velocity (0 - 127): 100
0    |  MIDI Event: Chan 5 Note ON: D3, Velocity (0 - 127): 111
0    |  MIDI Event: Chan 5 Note ON: F#3, Velocity (0 - 127): 89
59   |  MIDI Event: Chan 4 Note OFF: D3, Velocity (0 - 127): 64
30   |  MIDI Event: Chan 5 Note OFF: D3, Velocity (0 - 127): 64
0    |  MIDI Event: Chan 1 Note OFF: D4, Velocity (0 - 127): 64
0    |  MIDI Event: Chan 1 Note OFF: F#4, Velocity (0 - 127): 64
0    |  MIDI Event: Chan 1 Note OFF: A3, Velocity (0 - 127): 64
0    |  MIDI Event: Chan 5 Note OFF: F#3, Velocity (0 - 127): 64
0    |  MIDI Event: Chan 5 Note OFF: A2, Velocity (0 - 127): 64
1    |  MIDI Event: Chan 1 Note ON: F#3, Velocity (0 - 127): 44
0    |  MIDI Event: Chan 1 Note ON: A3, Velocity (0 - 127): 78
0    |  MIDI Event: Chan 1 Note ON: D4, Velocity (0 - 127): 58
0    |  MIDI Event: Chan 5 Note ON: A2, Velocity (0 - 127): 85
0    |  MIDI Event: Chan 5 Note ON: D3, Velocity (0 - 127): 105
0    |  MIDI Event: Chan 5 Note ON: F#3, Velocity (0 - 127): 81
29   |  MIDI Event: Chan 5 Note OFF: F#3, Velocity (0 - 127): 64
0    |  MIDI Event: Chan 1 Note OFF: A3, Velocity (0 - 127): 64
0    |  MIDI Event: Chan 1 Note OFF: D4, Velocity (0 - 127): 64
0    |  MIDI Event: Chan 1 Note OFF: F#3, Velocity (0 - 127): 64
0    |  MIDI Event: Chan 5 Note OFF: D3, Velocity (0 - 127): 64
0    |  MIDI Event: Chan 5 Note OFF: A2, Velocity (0 - 127): 64
1    |  MIDI Event: Chan 1 Note ON: A3, Velocity (0 - 127): 57
0    |  MIDI Event: Chan 1 Note ON: D4, Velocity (0 - 127): 91
0    |  MIDI Event: Chan 1 Note ON: F#4, Velocity (0 - 127): 77
0    |  MIDI Event: Chan 5 Note ON: D3, Velocity (0 - 127): 109
0    |  MIDI Event: Chan 5 Note ON: F#3, Velocity (0 - 127): 89
0    |  MIDI Event: Chan 5 Note ON: A3, Velocity (0 - 127): 109
29   |  MIDI Event: Chan 5 Note OFF: A3, Velocity (0 - 127): 64
0    |  MIDI Event: Chan 1 Note OFF: D4, Velocity (0 - 127): 64
0    |  MIDI Event: Chan 1 Note OFF: F#4, Velocity (0 - 127): 64
0    |  MIDI Event: Chan 1 Note OFF: A3, Velocity (0 - 127): 64
0    |  MIDI Event: Chan 5 Note OFF: F#3, Velocity (0 - 127): 64
0    |  MIDI Event: Chan 5 Note OFF: D3, Velocity (0 - 127): 64
1    |  MIDI Event: Chan 1 Note ON: F#3, Velocity (0 - 127): 35
0    |  MIDI Event: Chan 1 Note ON: A3, Velocity (0 - 127): 79
0    |  MIDI Event: Chan 1 Note ON: D4, Velocity (0 - 127): 56
0    |  MIDI Event: Chan 5 Note ON: D3, Velocity (0 - 127): 111
0    |  MIDI Event: Chan 5 Note ON: F#3, Velocity (0 - 127): 100
0    |  MIDI Event: Chan 5 Note ON: A3, Velocity (0 - 127): 100
29   |  MIDI Event: Chan 5 Note OFF: A3, Velocity (0 - 127): 64
0    |  MIDI Event: Chan 1 Note OFF: A3, Velocity (0 - 127): 64
0    |  MIDI Event: Chan 1 Note OFF: D4, Velocity (0 - 127): 64
0    |  MIDI Event: Chan 1 Note OFF: F#3, Velocity (0 - 127): 64
0    |  MIDI Event: Chan 5 Note OFF: F#3, Velocity (0 - 127): 64
0    |  MIDI Event: Chan 5 Note OFF: D3, Velocity (0 - 127): 64
1    |  MIDI Event: Chan 1 Note ON: F#3, Velocity (0 - 127): 35
0    |  MIDI Event: Chan 1 Note ON: A3, Velocity (0 - 127): 85
0    |  MIDI Event: Chan 1 Note ON: D4, Velocity (0 - 127): 79
0    |  MIDI Event: Chan 5 Note ON: A2, Velocity (0 - 127): 90
0    |  MIDI Event: Chan 5 Note ON: D3, Velocity (0 - 127): 105
59   |  MIDI Event: Chan 5 Note OFF: D3, Velocity (0 - 127): 64
0    |  MIDI Event: Chan 1 Note OFF: D4, Velocity (0 - 127): 64
0    |  MIDI Event: Chan 1 Note OFF: F#3, Velocity (0 - 127): 64
0    |  MIDI Event: Chan 1 Note OFF: A3, Velocity (0 - 127): 64
0    |  MIDI Event: Chan 5 Note OFF: A2, Velocity (0 - 127): 64
1    |  MIDI Event: Chan 1 Note ON: A3, Velocity (0 - 127): 69
0    |  MIDI Event: Chan 1 Note ON: D4, Velocity (0 - 127): 98
0    |  MIDI Event: Chan 1 Note ON: F#4, Velocity (0 - 127): 74
0    |  MIDI Event: Chan 4 Note ON: B3, Velocity (0 - 127): 116
0    |  MIDI Event: Chan 5 Note ON: A2, Velocity (0 - 127): 100
0    |  MIDI Event: Chan 5 Note ON: D3, Velocity (0 - 127): 111
0    |  MIDI Event: Chan 5 Note ON: F#3, Velocity (0 - 127): 89
0    |  Meta Event: Lyric: So 
29   |  MIDI Event: Chan 4 Note OFF: B3, Velocity (0 - 127): 64
31   |  MIDI Event: Chan 4 Note ON: B3, Velocity (0 - 127): 111
0    |  Meta Event: Lyric: wake 
29   |  MIDI Event: Chan 4 Note OFF: B3, Velocity (0 - 127): 64
0    |  MIDI Event: Chan 5 Note OFF: F#3, Velocity (0 - 127): 64
0    |  MIDI Event: Chan 1 Note OFF: D4, Velocity (0 - 127): 64
0    |  MIDI Event: Chan 1 Note OFF: F#4, Velocity (0 - 127): 64
0    |  MIDI Event: Chan 1 Note OFF: A3, Velocity (0 - 127): 64
0    |  MIDI Event: Chan 5 Note OFF: D3, Velocity (0 - 127): 64
0    |  MIDI Event: Chan 5 Note OFF: A2, Velocity (0 - 127): 64
1    |  MIDI Event: Chan 1 Note ON: F#3, Velocity (0 - 127): 44
0    |  MIDI Event: Chan 1 Note ON: A3, Velocity (0 - 127): 78
0    |  MIDI Event: Chan 1 Note ON: D4, Velocity (0 - 127): 58
0    |  MIDI Event: Chan 5 Note ON: A2, Velocity (0 - 127): 85
0    |  MIDI Event: Chan 5 Note ON: D3, Velocity (0 - 127): 105
0    |  MIDI Event: Chan 5 Note ON: F#3, Velocity (0 - 127): 81
29   |  MIDI Event: Chan 5 Note OFF: F#3, Velocity (0 - 127): 64
0    |  MIDI Event: Chan 1 Note OFF: A3, Velocity (0 - 127): 64
0    |  MIDI Event: Chan 1 Note OFF: D4, Velocity (0 - 127): 64
0    |  MIDI Event: Chan 1 Note OFF: F#3, Velocity (0 - 127): 64
0    |  MIDI Event: Chan 5 Note OFF: D3, Velocity (0 - 127): 64
0    |  MIDI Event: Chan 5 Note OFF: A2, Velocity (0 - 127): 64
1    |  MIDI Event: Chan 1 Note ON: A3, Velocity (0 - 127): 57
0    |  MIDI Event: Chan 1 Note ON: D4, Velocity (0 - 127): 91
0    |  MIDI Event: Chan 1 Note ON: F#4, Velocity (0 - 127): 77
0    |  MIDI Event: Chan 4 Note ON: C#4, Velocity (0 - 127): 119
0    |  MIDI Event: Chan 5 Note ON: D3, Velocity (0 - 127): 109
0    |  MIDI Event: Chan 5 Note ON: F#3, Velocity (0 - 127): 89
0    |  MIDI Event: Chan 5 Note ON: A3, Velocity (0 - 127): 109
0    |  Meta Event: Lyric: me 
29   |  MIDI Event: Chan 5 Note OFF: A3, Velocity (0 - 127): 64
0    |  MIDI Event: Chan 5 Note OFF: D3, Velocity (0 - 127): 64
0    |  MIDI Event: Chan 1 Note OFF: D4, Velocity (0 - 127): 64
0    |  MIDI Event: Chan 1 Note OFF: F#4, Velocity (0 - 127): 64
0    |  MIDI Event: Chan 1 Note OFF: A3, Velocity (0 - 127): 64
0    |  MIDI Event: Chan 5 Note OFF: F#3, Velocity (0 - 127): 64
0    |  MIDI Event: Chan 4 Note OFF: C#4, Velocity (0 - 127): 64
1    |  MIDI Event: Chan 1 Note ON: F#3, Velocity (0 - 127): 35
0    |  MIDI Event: Chan 1 Note ON: A3, Velocity (0 - 127): 79
0    |  MIDI Event: Chan 1 Note ON: D4, Velocity (0 - 127): 56
0    |  MIDI Event: Chan 5 Note ON: D3, Velocity (0 - 127): 111
0    |  MIDI Event: Chan 5 Note ON: F#3, Velocity (0 - 127): 100
0    |  MIDI Event: Chan 5 Note ON: A3, Velocity (0 - 127): 100
29   |  MIDI Event: Chan 5 Note OFF: A3, Velocity (0 - 127): 64
0    |  MIDI Event: Chan 1 Note OFF: A3, Velocity (0 - 127): 64
0    |  MIDI Event: Chan 1 Note OFF: D4, Velocity (0 - 127): 64
0    |  MIDI Event: Chan 1 Note OFF: F#3, Velocity (0 - 127): 64
0    |  MIDI Event: Chan 5 Note OFF: F#3, Velocity (0 - 127): 64
0    |  MIDI Event: Chan 5 Note OFF: D3, Velocity (0 - 127): 64
1    |  MIDI Event: Chan 1 Note ON: B3, Velocity (0 - 127): 58
0    |  MIDI Event: Chan 1 Note ON: D4, Velocity (0 - 127): 91
0    |  MIDI Event: Chan 2 Note ON: B1, Velocity (0 - 127): 100
0    |  MIDI Event: Chan 4 Note ON: D4, Velocity (0 - 127): 120
0    |  MIDI Event: Chan 5 Note ON: B2, Velocity (0 - 127): 85
0    |  MIDI Event: Chan 5 Note ON: F#3, Velocity (0 - 127): 120
0    |  MIDI Event: Chan 10 Note ON: B1, Velocity (0 - 127): 120
0    |  Meta Event: Lyric: up 
29   |  MIDI Event: Chan 10 Note OFF: B1, Velocity (0 - 127): 64
30   |  MIDI Event: Chan 5 Note OFF: B2, Velocity (0 - 127): 64
0    |  MIDI Event: Chan 1 Note OFF: D4, Velocity (0 - 127): 64
0    |  MIDI Event: Chan 1 Note OFF: B3, Velocity (0 - 127): 64
0    |  MIDI Event: Chan 5 Note OFF: F#3, Velocity (0 - 127): 64
1    |  MIDI Event: Chan 1 Note ON: B3, Velocity (0 - 127): 79
0    |  MIDI Event: Chan 1 Note ON: D4, Velocity (0 - 127): 95
0    |  MIDI Event: Chan 1 Note ON: F#4, Velocity (0 - 127): 74
0    |  MIDI Event: Chan 5 Note ON: D3, Velocity (0 - 127): 92
0    |  MIDI Event: Chan 5 Note ON: F#3, Velocity (0 - 127): 87
0    |  MIDI Event: Chan 5 Note ON: D4, Velocity (0 - 127): 95
0    |  MIDI Event: Chan 10 Note ON: D#2, Velocity (0 - 127): 120
29   |  MIDI Event: Chan 10 Note OFF: D#2, Velocity (0 - 127): 64
0    |  MIDI Event: Chan 4 Note OFF: D4, Velocity (0 - 127): 64
30   |  MIDI Event: Chan 2 Note OFF: B1, Velocity (0 - 127): 64
1    |  MIDI Event: Chan 2 Note ON: B1, Velocity (0 - 127): 100
0    |  MIDI Event: Chan 4 Note ON: D4, Velocity (0 - 127): 119
0    |  MIDI Event: Chan 10 Note ON: B1, Velocity (0 - 127): 120
0    |  Meta Event: Lyric: when 
29   |  MIDI Event: Chan 10 Note OFF: B1, Velocity (0 - 127): 64
0    |  MIDI Event: Chan 5 Note OFF: D4, Velocity (0 - 127): 64
0    |  MIDI Event: Chan 5 Note OFF: D3, Velocity (0 - 127): 64
0    |  MIDI Event: Chan 1 Note OFF: D4, Velocity (0 - 127): 64
0    |  MIDI Event: Chan 1 Note OFF: B3, Velocity (0 - 127): 64
0    |  MIDI Event: Chan 1 Note OFF: F#4, Velocity (0 - 127): 64
0    |  MIDI Event: Chan 5 Note OFF: F#3, Velocity (0 - 127): 64
1    |  MIDI Event: Chan 1 Note ON: B3, Velocity (0 - 127): 71
0    |  MIDI Event: Chan 1 Note ON: D4, Velocity (0 - 127): 91
0    |  MIDI Event: Chan 1 Note ON: F#4, Velocity (0 - 127): 60
0    |  MIDI Event: Chan 5 Note ON: F#3, Velocity (0 - 127): 109
0    |  MIDI Event: Chan 5 Note ON: B3, Velocity (0 - 127): 95
29   |  MIDI Event: Chan 5 Note OFF: B3, Velocity (0 - 127): 64
0    |  MIDI Event: Chan 1 Note OFF: F#4, Velocity (0 - 127): 64
0    |  MIDI Event: Chan 1 Note OFF: D4, Velocity (0 - 127): 64
0    |  MIDI Event: Chan 1 Note OFF: B3, Velocity (0 - 127): 64
0    |  MIDI Event: Chan 5 Note OFF: F#3, Velocity (0 - 127): 64
1    |  MIDI Event: Chan 1 Note ON: D4, Velocity (0 - 127): 80
0    |  MIDI Event: Chan 1 Note ON: F#4, Velocity (0 - 127): 62
0    |  MIDI Event: Chan 1 Note ON: B4, Velocity (0 - 127): 91
0    |  MIDI Event: Chan 5 Note ON: D3, Velocity (0 - 127): 103
0    |  MIDI Event: Chan 5 Note ON: F#3, Velocity (0 - 127): 115
0    |  MIDI Event: Chan 10 Note ON: D#2, Velocity (0 - 127): 120
29   |  MIDI Event: Chan 10 Note OFF: D#2, Velocity (0 - 127): 64
0    |  MIDI Event: Chan 5 Note OFF: F#3, Velocity (0 - 127): 64
0    |  MIDI Event: Chan 1 Note OFF: B4, Velocity (0 - 127): 64
0    |  MIDI Event: Chan 4 Note OFF: D4, Velocity (0 - 127): 64
0    |  MIDI Event: Chan 1 Note OFF: D4, Velocity (0 - 127): 64
0    |  MIDI Event: Chan 1 Note OFF: F#4, Velocity (0 - 127): 64
0    |  MIDI Event: Chan 5 Note OFF: D3, Velocity (0 - 127): 64
1    |  MIDI Event: Chan 1 Note ON: B3, Velocity (0 - 127): 51
0    |  MIDI Event: Chan 1 Note ON: D4, Velocity (0 - 127): 85
0    |  MIDI Event: Chan 1 Note ON: F#4, Velocity (0 - 127): 59
0    |  MIDI Event: Chan 5 Note ON: B2, Velocity (0 - 127): 92
0    |  MIDI Event: Chan 5 Note ON: E3, Velocity (0 - 127): 98
29   |  MIDI Event: Chan 5 Note OFF: E3, Velocity (0 - 127): 64
0    |  MIDI Event: Chan 1 Note OFF: B3, Velocity (0 - 127): 64
0    |  MIDI Event: Chan 1 Note OFF: D4, Velocity (0 - 127): 64
0    |  MIDI Event: Chan 2 Note OFF: B1, Velocity (0 - 127): 64
0    |  MIDI Event: Chan 5 Note OFF: B2, Velocity (0 - 127): 64
0    |  MIDI Event: Chan 1 Note OFF: F#4, Velocity (0 - 127): 64
1    |  MIDI Event: Chan 1 Note ON: G3, Velocity (0 - 127): 74
0    |  MIDI Event: Chan 1 Note ON: B3, Velocity (0 - 127): 94
0    |  MIDI Event: Chan 1 Note ON: D4, Velocity (0 - 127): 91
0    |  MIDI Event: Chan 2 Note ON: G1, Velocity (0 - 127): 100
0    |  MIDI Event: Chan 4 Note ON: B3, Velocity (0 - 127): 103
0    |  MIDI Event: Chan 5 Note ON: G2, Velocity (0 - 127): 98
0    |  MIDI Event: Chan 5 Note ON: D3, Velocity (0 - 127): 116
0    |  MIDI Event: Chan 10 Note ON: B1, Velocity (0 - 127): 120
0    |  Meta Event: Lyric: it's 
29   |  MIDI Event: Chan 10 Note OFF: B1, Velocity (0 - 127): 64
30   |  MIDI Event: Chan 5 Note OFF: D3, Velocity (0 - 127): 64
0    |  MIDI Event: Chan 1 Note OFF: D4, Velocity (0 - 127): 64
0    |  MIDI Event: Chan 1 Note OFF: B3, Velocity (0 - 127): 64
0    |  MIDI Event: Chan 1 Note OFF: G3, Velocity (0 - 127): 64
0    |  MIDI Event: Chan 5 Note OFF: G2, Velocity (0 - 127): 64
1    |  MIDI Event: Chan 1 Note ON: B3, Velocity (0 - 127): 70
0    |  MIDI Event: Chan 1 Note ON: D4, Velocity (0 - 127): 94
0    |  MIDI Event: Chan 1 Note ON: G4, Velocity (0 - 127): 101
0    |  MIDI Event: Chan 5 Note ON: D3, Velocity (0 - 127): 79
0    |  MIDI Event: Chan 5 Note ON: G3, Velocity (0 - 127): 111
0    |  MIDI Event: Chan 5 Note ON: B3, Velocity (0 - 127): 100
0    |  MIDI Event: Chan 10 Note ON: D#2, Velocity (0 - 127): 120
29   |  MIDI Event: Chan 10 Note OFF: D#2, Velocity (0 - 127): 64
0    |  MIDI Event: Chan 4 Note OFF: B3, Velocity (0 - 127): 64
30   |  MIDI Event: Chan 2 Note OFF: G1, Velocity (0 - 127): 64
1    |  MIDI Event: Chan 2 Note ON: G1, Velocity (0 - 127): 100
0    |  MIDI Event: Chan 4 Note ON: A3, Velocity (0 - 127): 113
0    |  MIDI Event: Chan 10 Note ON: B1, Velocity (0 - 127): 120
0    |  Meta Event: Lyric: all 
29   |  MIDI Event: Chan 10 Note OFF: B1, Velocity (0 - 127): 64
0    |  MIDI Event: Chan 5 Note OFF: B3, Velocity (0 - 127): 64
0    |  MIDI Event: Chan 5 Note OFF: D3, Velocity (0 - 127): 64
0    |  MIDI Event: Chan 1 Note OFF: D4, Velocity (0 - 127): 64
0    |  MIDI Event: Chan 1 Note OFF: B3, Velocity (0 - 127): 64
0    |  MIDI Event: Chan 1 Note OFF: G4, Velocity (0 - 127): 64
0    |  MIDI Event: Chan 5 Note OFF: G3, Velocity (0 - 127): 64
1    |  MIDI Event: Chan 1 Note ON: B3, Velocity (0 - 127): 52
0    |  MIDI Event: Chan 1 Note ON: D4, Velocity (0 - 127): 85
0    |  MIDI Event: Chan 1 Note ON: G4, Velocity (0 - 127): 94
0    |  MIDI Event: Chan 5 Note ON: D3, Velocity (0 - 127): 82
0    |  MIDI Event: Chan 5 Note ON: G3, Velocity (0 - 127): 98
0    |  MIDI Event: Chan 5 Note ON: B3, Velocity (0 - 127): 85
29   |  MIDI Event: Chan 5 Note OFF: B3, Velocity (0 - 127): 64
0    |  MIDI Event: Chan 5 Note OFF: G3, Velocity (0 - 127): 64
0    |  MIDI Event: Chan 1 Note OFF: G4, Velocity (0 - 127): 64
0    |  MIDI Event: Chan 4 Note OFF: A3, Velocity (0 - 127): 64
0    |  MIDI Event: Chan 1 Note OFF: B3, Velocity (0 - 127): 64
0    |  MIDI Event: Chan 1 Note OFF: D4, Velocity (0 - 127): 64
0    |  MIDI Event: Chan 5 Note OFF: D3, Velocity (0 - 127): 64
1    |  MIDI Event: Chan 1 Note ON: D4, Velocity (0 - 127): 78
0    |  MIDI Event: Chan 1 Note ON: G4, Velocity (0 - 127): 100
0    |  MIDI Event: Chan 1 Note ON: B4, Velocity (0 - 127): 46
0    |  MIDI Event: Chan 5 Note ON: G2, Velocity (0 - 127): 109
0    |  MIDI Event: Chan 5 Note ON: D3, Velocity (0 - 127): 109
0    |  MIDI Event: Chan 10 Note ON: D#2, Velocity (0 - 127): 120
29   |  MIDI Event: Chan 10 Note OFF: D#2, Velocity (0 - 127): 64
0    |  MIDI Event: Chan 5 Note OFF: G2, Velocity (0 - 127): 64
0    |  MIDI Event: Chan 1 Note OFF: D4, Velocity (0 - 127): 64
0    |  MIDI Event: Chan 1 Note OFF: G4, Velocity (0 - 127): 64
0    |  MIDI Event: Chan 1 Note OFF: B4, Velocity (0 - 127): 64
0    |  MIDI Event: Chan 5 Note OFF: D3, Velocity (0 - 127): 64
1    |  MIDI Event: Chan 1 Note ON: B3, Velocity (0 - 127): 45
0    |  MIDI Event: Chan 1 Note ON: D4, Velocity (0 - 127): 73
0    |  MIDI Event: Chan 1 Note ON: G4, Velocity (0 - 127): 86
0    |  MIDI Event: Chan 4 Note ON: A3, Velocity (0 - 127): 111
0    |  MIDI Event: Chan 5 Note ON: G2, Velocity (0 - 127): 101
0    |  MIDI Event: Chan 5 Note ON: E3, Velocity (0 - 127): 116
0    |  Meta Event: Lyric: o
29   |  MIDI Event: Chan 5 Note OFF: E3, Velocity (0 - 127): 64
0    |  MIDI Event: Chan 1 Note OFF: G4, Velocity (0 - 127): 64
0    |  MIDI Event: Chan 1 Note OFF: B3, Velocity (0 - 127): 64
0    |  MIDI Event: Chan 1 Note OFF: D4, Velocity (0 - 127): 64
0    |  MIDI Event: Chan 2 Note OFF: G1, Velocity (0 - 127): 64
0    |  MIDI Event: Chan 5 Note OFF: G2, Velocity (0 - 127): 64
1    |  MIDI Event: Chan 1 Note ON: F#3, Velocity (0 - 127): 35
0    |  MIDI Event: Chan 1 Note ON: A3, Velocity (0 - 127): 85
0    |  MIDI Event: Chan 1 Note ON: D4, Velocity (0 - 127): 79
0    |  MIDI Event: Chan 2 Note ON: D2, Velocity (0 - 127): 100
0    |  MIDI Event: Chan 5 Note ON: A2, Velocity (0 - 127): 90
0    |  MIDI Event: Chan 5 Note ON: D3, Velocity (0 - 127): 105
0    |  MIDI Event: Chan 10 Note ON: B1, Velocity (0 - 127): 120
29   |  MIDI Event: Chan 10 Note OFF: B1, Velocity (0 - 127): 64
0    |  MIDI Event: Chan 4 Note OFF: A3, Velocity (0 - 127): 64
30   |  MIDI Event: Chan 5 Note OFF: A2, Velocity (0 - 127): 64
0    |  MIDI Event: Chan 1 Note OFF: A3, Velocity (0 - 127): 64
0    |  MIDI Event: Chan 1 Note OFF: F#3, Velocity (0 - 127): 64
0    |  MIDI Event: Chan 1 Note OFF: D4, Velocity (0 - 127): 64
0    |  MIDI Event: Chan 5 Note OFF: D3, Velocity (0 - 127): 64
1    |  MIDI Event: Chan 1 Note ON: A3, Velocity (0 - 127): 69
0    |  MIDI Event: Chan 1 Note ON: D4, Velocity (0 - 127): 98
0    |  MIDI Event: Chan 1 Note ON: F#4, Velocity (0 - 127): 74
0    |  MIDI Event: Chan 4 Note ON: D3, Velocity (0 - 127): 120
0    |  MIDI Event: Chan 5 Note ON: A2, Velocity (0 - 127): 100
0    |  MIDI Event: Chan 5 Note ON: D3, Velocity (0 - 127): 111
0    |  MIDI Event: Chan 5 Note ON: F#3, Velocity (0 - 127): 89
0    |  MIDI Event: Chan 10 Note ON: D#2, Velocity (0 - 127): 119
0    |  Meta Event: Lyric: ver 
0    |  Meta Event: Lyric: 
29   |  MIDI Event: Chan 10 Note OFF: D#2, Velocity (0 - 127): 64
0    |  MIDI Event: Chan 4 Note OFF: D3, Velocity (0 - 127): 64
30   |  MIDI Event: Chan 2 Note OFF: D2, Velocity (0 - 127): 64
1    |  MIDI Event: Chan 2 Note ON: D2, Velocity (0 - 127): 100
0    |  MIDI Event: Chan 10 Note ON: B1, Velocity (0 - 127): 120
29   |  MIDI Event: Chan 10 Note OFF: B1, Velocity (0 - 127): 64
0    |  MIDI Event: Chan 5 Note OFF: F#3, Velocity (0 - 127): 64
0    |  MIDI Event: Chan 5 Note OFF: A2, Velocity (0 - 127): 64
0    |  MIDI Event: Chan 1 Note OFF: D4, Velocity (0 - 127): 64
0    |  MIDI Event: Chan 1 Note OFF: F#4, Velocity (0 - 127): 64
0    |  MIDI Event: Chan 1 Note OFF: A3, Velocity (0 - 127): 64
0    |  MIDI Event: Chan 5 Note OFF: D3, Velocity (0 - 127): 64
1    |  MIDI Event: Chan 1 Note ON: F#3, Velocity (0 - 127): 44
0    |  MIDI Event: Chan 1 Note ON: A3, Velocity (0 - 127): 78
0    |  MIDI Event: Chan 1 Note ON: D4, Velocity (0 - 127): 58
0    |  MIDI Event: Chan 5 Note ON: A2, Velocity (0 - 127): 85
0    |  MIDI Event: Chan 5 Note ON: D3, Velocity (0 - 127): 105
0    |  MIDI Event: Chan 5 Note ON: F#3, Velocity (0 - 127): 81
29   |  MIDI Event: Chan 5 Note OFF: F#3, Velocity (0 - 127): 64
0    |  MIDI Event: Chan 5 Note OFF: A2, Velocity (0 - 127): 64
0    |  MIDI Event: Chan 1 Note OFF: F#3, Velocity (0 - 127): 64
0    |  MIDI Event: Chan 1 Note OFF: A3, Velocity (0 - 127): 64
0    |  MIDI Event: Chan 1 Note OFF: D4, Velocity (0 - 127): 64
0    |  MIDI Event: Chan 5 Note OFF: D3, Velocity (0 - 127): 64
1    |  MIDI Event: Chan 1 Note ON: A3, Velocity (0 - 127): 57
0    |  MIDI Event: Chan 1 Note ON: D4, Velocity (0 - 127): 91
0    |  MIDI Event: Chan 1 Note ON: F#4, Velocity (0 - 127): 77
0    |  MIDI Event: Chan 5 Note ON: D3, Velocity (0 - 127): 109
0    |  MIDI Event: Chan 5 Note ON: F#3, Velocity (0 - 127): 89
0    |  MIDI Event: Chan 5 Note ON: A3, Velocity (0 - 127): 109
0    |  MIDI Event: Chan 10 Note ON: D#2, Velocity (0 - 127): 120
29   |  MIDI Event: Chan 10 Note OFF: D#2, Velocity (0 - 127): 64
0    |  MIDI Event: Chan 5 Note OFF: A3, Velocity (0 - 127): 64
0    |  MIDI Event: Chan 5 Note OFF: D3, Velocity (0 - 127): 64
0    |  MIDI Event: Chan 1 Note OFF: A3, Velocity (0 - 127): 64
0    |  MIDI Event: Chan 1 Note OFF: D4, Velocity (0 - 127): 64
0    |  MIDI Event: Chan 1 Note OFF: F#4, Velocity (0 - 127): 64
0    |  MIDI Event: Chan 5 Note OFF: F#3, Velocity (0 - 127): 64
1    |  MIDI Event: Chan 1 Note ON: F#3, Velocity (0 - 127): 35
0    |  MIDI Event: Chan 1 Note ON: A3, Velocity (0 - 127): 79
0    |  MIDI Event: Chan 1 Note ON: D4, Velocity (0 - 127): 56
0    |  MIDI Event: Chan 5 Note ON: D3, Velocity (0 - 127): 111
0    |  MIDI Event: Chan 5 Note ON: F#3, Velocity (0 - 127): 100
0    |  MIDI Event: Chan 5 Note ON: A3, Velocity (0 - 127): 100
29   |  MIDI Event: Chan 5 Note OFF: A3, Velocity (0 - 127): 64
0    |  MIDI Event: Chan 5 Note OFF: D3, Velocity (0 - 127): 64
0    |  MIDI Event: Chan 1 Note OFF: F#3, Velocity (0 - 127): 64
0    |  MIDI Event: Chan 1 Note OFF: A3, Velocity (0 - 127): 64
0    |  MIDI Event: Chan 2 Note OFF: D2, Velocity (0 - 127): 64
0    |  MIDI Event: Chan 5 Note OFF: F#3, Velocity (0 - 127): 64
0    |  MIDI Event: Chan 1 Note OFF: D4, Velocity (0 - 127): 64
1    |  MIDI Event: Chan 1 Note ON: F#3, Velocity (0 - 127): 49
0    |  MIDI Event: Chan 1 Note ON: A3, Velocity (0 - 127): 85
0    |  MIDI Event: Chan 1 Note ON: D4, Velocity (0 - 127): 75
0    |  MIDI Event: Chan 2 Note ON: D2, Velocity (0 - 127): 100
0    |  MIDI Event: Chan 5 Note ON: A2, Velocity (0 - 127): 105
0    |  MIDI Event: Chan 5 Note ON: D3, Velocity (0 - 127): 116
0    |  MIDI Event: Chan 10 Note ON: B1, Velocity (0 - 127): 120
29   |  MIDI Event: Chan 10 Note OFF: B1, Velocity (0 - 127): 64
30   |  MIDI Event: Chan 5 Note OFF: A2, Velocity (0 - 127): 64
0    |  MIDI Event: Chan 1 Note OFF: A3, Velocity (0 - 127): 64
0    |  MIDI Event: Chan 1 Note OFF: F#3, Velocity (0 - 127): 64
0    |  MIDI Event: Chan 1 Note OFF: D4, Velocity (0 - 127): 64
0    |  MIDI Event: Chan 5 Note OFF: D3, Velocity (0 - 127): 64
1    |  MIDI Event: Chan 1 Note ON: A3, Velocity (0 - 127): 56
0    |  MIDI Event: Chan 1 Note ON: D4, Velocity (0 - 127): 84
0    |  MIDI Event: Chan 1 Note ON: F#4, Velocity (0 - 127): 49
0    |  MIDI Event: Chan 5 Note ON: D3, Velocity (0 - 127): 105
0    |  MIDI Event: Chan 5 Note ON: F#3, Velocity (0 - 127): 115
0    |  MIDI Event: Chan 10 Note ON: D#2, Velocity (0 - 127): 115
29   |  MIDI Event: Chan 10 Note OFF: D#2, Velocity (0 - 127): 64
0    |  MIDI Event: Chan 5 Note OFF: D3, Velocity (0 - 127): 64
0    |  MIDI Event: Chan 1 Note OFF: A3, Velocity (0 - 127): 64
0    |  MIDI Event: Chan 1 Note OFF: D4, Velocity (0 - 127): 64
0    |  MIDI Event: Chan 1 Note OFF: F#4, Velocity (0 - 127): 64
0    |  MIDI Event: Chan 5 Note OFF: F#3, Velocity (0 - 127): 64
1    |  MIDI Event: Chan 1 Note ON: A3, Velocity (0 - 127): 84
0    |  MIDI Event: Chan 1 Note ON: D4, Velocity (0 - 127): 94
0    |  MIDI Event: Chan 1 Note ON: F#4, Velocity (0 - 127): 76
0    |  MIDI Event: Chan 5 Note ON: D3, Velocity (0 - 127): 100
0    |  MIDI Event: Chan 5 Note ON: F#3, Velocity (0 - 127): 92
29   |  MIDI Event: Chan 5 Note OFF: F#3, Velocity (0 - 127): 64
0    |  MIDI Event: Chan 1 Note OFF: A3, Velocity (0 - 127): 64
0    |  MIDI Event: Chan 1 Note OFF: D4, Velocity (0 - 127): 64
0    |  MIDI Event: Chan 2 Note OFF: D2, Velocity (0 - 127): 64
0    |  MIDI Event: Chan 5 Note OFF: D3, Velocity (0 - 127): 64
0    |  MIDI Event: Chan 1 Note OFF: F#4, Velocity (0 - 127): 64
1    |  MIDI Event: Chan 1 Note ON: E3, Velocity (0 - 127): 47
0    |  MIDI Event: Chan 1 Note ON: A3, Velocity (0 - 127): 89
0    |  MIDI Event: Chan 1 Note ON: C#4, Velocity (0 - 127): 52
0    |  MIDI Event: Chan 2 Note ON: A1, Velocity (0 - 127): 100
0    |  MIDI Event: Chan 4 Note ON: B3, Velocity (0 - 127): 118
0    |  MIDI Event: Chan 5 Note ON: A2, Velocity (0 - 127): 101
0    |  MIDI Event: Chan 5 Note ON: E3, Velocity (0 - 127): 101
0    |  MIDI Event: Chan 10 Note ON: B1, Velocity (0 - 127): 120
0    |  Meta Event: Lyric: When 
29   |  MIDI Event: Chan 10 Note OFF: B1, Velocity (0 - 127): 64
30   |  MIDI Event: Chan 5 Note OFF: E3, Velocity (0 - 127): 64
0    |  MIDI Event: Chan 4 Note OFF: B3, Velocity (0 - 127): 64
0    |  MIDI Event: Chan 1 Note OFF: A3, Velocity (0 - 127): 64
0    |  MIDI Event: Chan 1 Note OFF: E3, Velocity (0 - 127): 64
0    |  MIDI Event: Chan 1 Note OFF: C#4, Velocity (0 - 127): 64
0    |  MIDI Event: Chan 5 Note OFF: A2, Velocity (0 - 127): 64
1    |  MIDI Event: Chan 1 Note ON: A3, Velocity (0 - 127): 51
0    |  MIDI Event: Chan 1 Note ON: C#4, Velocity (0 - 127): 52
0    |  MIDI Event: Chan 1 Note ON: E4, Velocity (0 - 127): 78
0    |  MIDI Event: Chan 4 Note ON: C#4, Velocity (0 - 127): 120
0    |  MIDI Event: Chan 5 Note ON: C#3, Velocity (0 - 127): 89
0    |  MIDI Event: Chan 5 Note ON: E3, Velocity (0 - 127): 101
0    |  MIDI Event: Chan 5 Note ON: A3, Velocity (0 - 127): 89
0    |  MIDI Event: Chan 10 Note ON: D#2, Velocity (0 - 127): 119
0    |  Meta Event: Lyric: I'm 
29   |  MIDI Event: Chan 10 Note OFF: D#2, Velocity (0 - 127): 64
0    |  MIDI Event: Chan 1 Note OFF: E4, Velocity (0 - 127): 64
0    |  MIDI Event: Chan 5 Note OFF: A3, Velocity (0 - 127): 64
0    |  MIDI Event: Chan 4 Note OFF: C#4, Velocity (0 - 127): 64
0    |  MIDI Event: Chan 1 Note OFF: A3, Velocity (0 - 127): 64
0    |  MIDI Event: Chan 1 Note OFF: C#4, Velocity (0 - 127): 64
0    |  MIDI Event: Chan 5 Note OFF: E3, Velocity (0 - 127): 64
0    |  MIDI Event: Chan 5 Note OFF: C#3, Velocity (0 - 127): 64
1    |  MIDI Event: Chan 1 Note ON: A3, Velocity (0 - 127): 73
0    |  MIDI Event: Chan 1 Note ON: C#4, Velocity (0 - 127): 52
0    |  MIDI Event: Chan 1 Note ON: E4, Velocity (0 - 127): 83
0    |  MIDI Event: Chan 5 Note ON: C#3, Velocity (0 - 127): 119
0    |  MIDI Event: Chan 5 Note ON: E3, Velocity (0 - 127): 118
0    |  MIDI Event: Chan 5 Note ON: A3, Velocity (0 - 127): 105
29   |  MIDI Event: Chan 5 Note OFF: A3, Velocity (0 - 127): 64
0    |  MIDI Event: Chan 5 Note OFF: C#3, Velocity (0 - 127): 64
0    |  MIDI Event: Chan 1 Note OFF: A3, Velocity (0 - 127): 64
0    |  MIDI Event: Chan 1 Note OFF: C#4, Velocity (0 - 127): 64
0    |  MIDI Event: Chan 2 Note OFF: A1, Velocity (0 - 127): 64
0    |  MIDI Event: Chan 5 Note OFF: E3, Velocity (0 - 127): 64
0    |  MIDI Event: Chan 1 Note OFF: E4, Velocity (0 - 127): 64
1    |  MIDI Event: Chan 1 Note ON: B3, Velocity (0 - 127): 58
0    |  MIDI Event: Chan 1 Note ON: D4, Velocity (0 - 127): 91
0    |  MIDI Event: Chan 2 Note ON: B1, Velocity (0 - 127): 100
0    |  MIDI Event: Chan 4 Note ON: D4, Velocity (0 - 127): 116
0    |  MIDI Event: Chan 5 Note ON: B2, Velocity (0 - 127): 85
0    |  MIDI Event: Chan 5 Note ON: F#3, Velocity (0 - 127): 120
0    |  MIDI Event: Chan 10 Note ON: B1, Velocity (0 - 127): 120
0    |  Meta Event: Lyric: wi
29   |  MIDI Event: Chan 10 Note OFF: B1, Velocity (0 - 127): 64
30   |  MIDI Event: Chan 5 Note OFF: B2, Velocity (0 - 127): 64
0    |  MIDI Event: Chan 1 Note OFF: D4, Velocity (0 - 127): 64
0    |  MIDI Event: Chan 1 Note OFF: B3, Velocity (0 - 127): 64
0    |  MIDI Event: Chan 5 Note OFF: F#3, Velocity (0 - 127): 64
1    |  MIDI Event: Chan 1 Note ON: B3, Velocity (0 - 127): 79
0    |  MIDI Event: Chan 1 Note ON: D4, Velocity (0 - 127): 95
0    |  MIDI Event: Chan 1 Note ON: F#4, Velocity (0 - 127): 74
0    |  MIDI Event: Chan 5 Note ON: D3, Velocity (0 - 127): 92
0    |  MIDI Event: Chan 5 Note ON: F#3, Velocity (0 - 127): 87
0    |  MIDI Event: Chan 5 Note ON: D4, Velocity (0 - 127): 95
0    |  MIDI Event: Chan 10 Note ON: D#2, Velocity (0 - 127): 119
29   |  MIDI Event: Chan 10 Note OFF: D#2, Velocity (0 - 127): 64
0    |  MIDI Event: Chan 4 Note OFF: D4, Velocity (0 - 127): 64
30   |  MIDI Event: Chan 2 Note OFF: B1, Velocity (0 - 127): 64
1    |  MIDI Event: Chan 2 Note ON: B1, Velocity (0 - 127): 100
0    |  MIDI Event: Chan 4 Note ON: D4, Velocity (0 - 127): 120
0    |  MIDI Event: Chan 10 Note ON: B1, Velocity (0 - 127): 120
0    |  Meta Event: Lyric: ser 
29   |  MIDI Event: Chan 10 Note OFF: B1, Velocity (0 - 127): 64
0    |  MIDI Event: Chan 5 Note OFF: D4, Velocity (0 - 127): 64
0    |  MIDI Event: Chan 5 Note OFF: D3, Velocity (0 - 127): 64
0    |  MIDI Event: Chan 1 Note OFF: D4, Velocity (0 - 127): 64
0    |  MIDI Event: Chan 1 Note OFF: B3, Velocity (0 - 127): 64
0    |  MIDI Event: Chan 1 Note OFF: F#4, Velocity (0 - 127): 64
0    |  MIDI Event: Chan 5 Note OFF: F#3, Velocity (0 - 127): 64
1    |  MIDI Event: Chan 1 Note ON: B3, Velocity (0 - 127): 71
0    |  MIDI Event: Chan 1 Note ON: D4, Velocity (0 - 127): 91
0    |  MIDI Event: Chan 1 Note ON: F#4, Velocity (0 - 127): 60
0    |  MIDI Event: Chan 5 Note ON: F#3, Velocity (0 - 127): 109
0    |  MIDI Event: Chan 5 Note ON: B3, Velocity (0 - 127): 95
29   |  MIDI Event: Chan 5 Note OFF: B3, Velocity (0 - 127): 64
0    |  MIDI Event: Chan 1 Note OFF: F#4, Velocity (0 - 127): 64
0    |  MIDI Event: Chan 1 Note OFF: D4, Velocity (0 - 127): 64
0    |  MIDI Event: Chan 1 Note OFF: B3, Velocity (0 - 127): 64
0    |  MIDI Event: Chan 5 Note OFF: F#3, Velocity (0 - 127): 64
1    |  MIDI Event: Chan 1 Note ON: D4, Velocity (0 - 127): 80
0    |  MIDI Event: Chan 1 Note ON: F#4, Velocity (0 - 127): 62
0    |  MIDI Event: Chan 1 Note ON: B4, Velocity (0 - 127): 91
0    |  MIDI Event: Chan 5 Note ON: D3, Velocity (0 - 127): 103
0    |  MIDI Event: Chan 5 Note ON: F#3, Velocity (0 - 127): 115
0    |  MIDI Event: Chan 10 Note ON: D#2, Velocity (0 - 127): 120
29   |  MIDI Event: Chan 10 Note OFF: D#2, Velocity (0 - 127): 64
0    |  MIDI Event: Chan 5 Note OFF: F#3, Velocity (0 - 127): 64
0    |  MIDI Event: Chan 1 Note OFF: B4, Velocity (0 - 127): 64
0    |  MIDI Event: Chan 1 Note OFF: F#4, Velocity (0 - 127): 64
0    |  MIDI Event: Chan 1 Note OFF: D4, Velocity (0 - 127): 64
0    |  MIDI Event: Chan 5 Note OFF: D3, Velocity (0 - 127): 64
1    |  MIDI Event: Chan 1 Note ON: B3, Velocity (0 - 127): 51
0    |  MIDI Event: Chan 1 Note ON: D4, Velocity (0 - 127): 85
0    |  MIDI Event: Chan 1 Note ON: F#4, Velocity (0 - 127): 59
0    |  MIDI Event: Chan 5 Note ON: B2, Velocity (0 - 127): 92
0    |  MIDI Event: Chan 5 Note ON: E3, Velocity (0 - 127): 98
29   |  MIDI Event: Chan 5 Note OFF: E3, Velocity (0 - 127): 64
0    |  MIDI Event: Chan 1 Note OFF: F#4, Velocity (0 - 127): 64
0    |  MIDI Event: Chan 4 Note OFF: D4, Velocity (0 - 127): 64
0    |  MIDI Event: Chan 1 Note OFF: B3, Velocity (0 - 127): 64
0    |  MIDI Event: Chan 2 Note OFF: B1, Velocity (0 - 127): 64
0    |  MIDI Event: Chan 5 Note OFF: B2, Velocity (0 - 127): 64
0    |  MIDI Event: Chan 1 Note OFF: D4, Velocity (0 - 127): 64
1    |  MIDI Event: Chan 1 Note ON: G3, Velocity (0 - 127): 74
0    |  MIDI Event: Chan 1 Note ON: B3, Velocity (0 - 127): 94
0    |  MIDI Event: Chan 1 Note ON: D4, Velocity (0 - 127): 91
0    |  MIDI Event: Chan 2 Note ON: G1, Velocity (0 - 127): 100
0    |  MIDI Event: Chan 4 Note ON: B3, Velocity (0 - 127): 116
0    |  MIDI Event: Chan 5 Note ON: G2, Velocity (0 - 127): 98
0    |  MIDI Event: Chan 5 Note ON: D3, Velocity (0 - 127): 116
0    |  MIDI Event: Chan 10 Note ON: B1, Velocity (0 - 127): 120
0    |  Meta Event: Lyric: and 
29   |  MIDI Event: Chan 10 Note OFF: B1, Velocity (0 - 127): 64
30   |  MIDI Event: Chan 5 Note OFF: D3, Velocity (0 - 127): 64
0    |  MIDI Event: Chan 1 Note OFF: D4, Velocity (0 - 127): 64
0    |  MIDI Event: Chan 1 Note OFF: B3, Velocity (0 - 127): 64
0    |  MIDI Event: Chan 1 Note OFF: G3, Velocity (0 - 127): 64
0    |  MIDI Event: Chan 5 Note OFF: G2, Velocity (0 - 127): 64
1    |  MIDI Event: Chan 1 Note ON: B3, Velocity (0 - 127): 70
0    |  MIDI Event: Chan 1 Note ON: D4, Velocity (0 - 127): 94
0    |  MIDI Event: Chan 1 Note ON: G4, Velocity (0 - 127): 101
0    |  MIDI Event: Chan 5 Note ON: D3, Velocity (0 - 127): 79
0    |  MIDI Event: Chan 5 Note ON: G3, Velocity (0 - 127): 111
0    |  MIDI Event: Chan 5 Note ON: B3, Velocity (0 - 127): 100
0    |  MIDI Event: Chan 10 Note ON: D#2, Velocity (0 - 127): 120
29   |  MIDI Event: Chan 10 Note OFF: D#2, Velocity (0 - 127): 64
0    |  MIDI Event: Chan 4 Note OFF: B3, Velocity (0 - 127): 64
30   |  MIDI Event: Chan 2 Note OFF: G1, Velocity (0 - 127): 64
1    |  MIDI Event: Chan 2 Note ON: G1, Velocity (0 - 127): 100
0    |  MIDI Event: Chan 4 Note ON: A3, Velocity (0 - 127): 120
0    |  MIDI Event: Chan 10 Note ON: B1, Velocity (0 - 127): 120
0    |  Meta Event: Lyric: I'm 
29   |  MIDI Event: Chan 10 Note OFF: B1, Velocity (0 - 127): 64
0    |  MIDI Event: Chan 5 Note OFF: B3, Velocity (0 - 127): 64
0    |  MIDI Event: Chan 5 Note OFF: D3, Velocity (0 - 127): 64
0    |  MIDI Event: Chan 1 Note OFF: D4, Velocity (0 - 127): 64
0    |  MIDI Event: Chan 1 Note OFF: B3, Velocity (0 - 127): 64
0    |  MIDI Event: Chan 1 Note OFF: G4, Velocity (0 - 127): 64
0    |  MIDI Event: Chan 5 Note OFF: G3, Velocity (0 - 127): 64
1    |  MIDI Event: Chan 1 Note ON: B3, Velocity (0 - 127): 52
0    |  MIDI Event: Chan 1 Note ON: D4, Velocity (0 - 127): 85
0    |  MIDI Event: Chan 1 Note ON: G4, Velocity (0 - 127): 94
0    |  MIDI Event: Chan 5 Note ON: D3, Velocity (0 - 127): 82
0    |  MIDI Event: Chan 5 Note ON: G3, Velocity (0 - 127): 98
0    |  MIDI Event: Chan 5 Note ON: B3, Velocity (0 - 127): 85
29   |  MIDI Event: Chan 5 Note OFF: B3, Velocity (0 - 127): 64
0    |  MIDI Event: Chan 5 Note OFF: G3, Velocity (0 - 127): 64
0    |  MIDI Event: Chan 1 Note OFF: G4, Velocity (0 - 127): 64
0    |  MIDI Event: Chan 4 Note OFF: A3, Velocity (0 - 127): 64
0    |  MIDI Event: Chan 1 Note OFF: B3, Velocity (0 - 127): 64
0    |  MIDI Event: Chan 1 Note OFF: D4, Velocity (0 - 127): 64
0    |  MIDI Event: Chan 5 Note OFF: D3, Velocity (0 - 127): 64
1    |  MIDI Event: Chan 1 Note ON: D4, Velocity (0 - 127): 78
0    |  MIDI Event: Chan 1 Note ON: G4, Velocity (0 - 127): 100
0    |  MIDI Event: Chan 1 Note ON: B4, Velocity (0 - 127): 46
0    |  MIDI Event: Chan 5 Note ON: G2, Velocity (0 - 127): 109
0    |  MIDI Event: Chan 5 Note ON: D3, Velocity (0 - 127): 109
0    |  MIDI Event: Chan 10 Note ON: D#2, Velocity (0 - 127): 120
29   |  MIDI Event: Chan 10 Note OFF: D#2, Velocity (0 - 127): 64
0    |  MIDI Event: Chan 5 Note OFF: G2, Velocity (0 - 127): 64
0    |  MIDI Event: Chan 1 Note OFF: D4, Velocity (0 - 127): 64
0    |  MIDI Event: Chan 1 Note OFF: G4, Velocity (0 - 127): 64
0    |  MIDI Event: Chan 1 Note OFF: B4, Velocity (0 - 127): 64
0    |  MIDI Event: Chan 5 Note OFF: D3, Velocity (0 - 127): 64
1    |  MIDI Event: Chan 1 Note ON: B3, Velocity (0 - 127): 45
0    |  MIDI Event: Chan 1 Note ON: D4, Velocity (0 - 127): 73
0    |  MIDI Event: Chan 1 Note ON: G4, Velocity (0 - 127): 86
0    |  MIDI Event: Chan 4 Note ON: B3, Velocity (0 - 127): 120
0    |  MIDI Event: Chan 5 Note ON: G2, Velocity (0 - 127): 101
0    |  MIDI Event: Chan 5 Note ON: E3, Velocity (0 - 127): 116
0    |  Meta Event: Lyric: ol
29   |  MIDI Event: Chan 5 Note OFF: E3, Velocity (0 - 127): 64
0    |  MIDI Event: Chan 1 Note OFF: G4, Velocity (0 - 127): 64
0    |  MIDI Event: Chan 1 Note OFF: B3, Velocity (0 - 127): 64
0    |  MIDI Event: Chan 1 Note OFF: D4, Velocity (0 - 127): 64
0    |  MIDI Event: Chan 2 Note OFF: G1, Velocity (0 - 127): 64
0    |  MIDI Event: Chan 5 Note OFF: G2, Velocity (0 - 127): 64
1    |  MIDI Event: Chan 1 Note ON: F#3, Velocity (0 - 127): 35
0    |  MIDI Event: Chan 1 Note ON: A3, Velocity (0 - 127): 85
0    |  MIDI Event: Chan 1 Note ON: D4, Velocity (0 - 127): 79
0    |  MIDI Event: Chan 2 Note ON: D2, Velocity (0 - 127): 100
0    |  MIDI Event: Chan 5 Note ON: A2, Velocity (0 - 127): 90
0    |  MIDI Event: Chan 5 Note ON: D3, Velocity (0 - 127): 105
0    |  MIDI Event: Chan 10 Note ON: B1, Velocity (0 - 127): 120
29   |  MIDI Event: Chan 10 Note OFF: B1, Velocity (0 - 127): 64
30   |  MIDI Event: Chan 4 Note OFF: B3, Velocity (0 - 127): 64
0    |  MIDI Event: Chan 1 Note OFF: D4, Velocity (0 - 127): 64
0    |  MIDI Event: Chan 1 Note OFF: F#3, Velocity (0 - 127): 64
0    |  MIDI Event: Chan 5 Note OFF: D3, Velocity (0 - 127): 64
0    |  MIDI Event: Chan 1 Note OFF: A3, Velocity (0 - 127): 64
0    |  MIDI Event: Chan 5 Note OFF: A2, Velocity (0 - 127): 64
1    |  MIDI Event: Chan 1 Note ON: A3, Velocity (0 - 127): 69
0    |  MIDI Event: Chan 1 Note ON: D4, Velocity (0 - 127): 98
0    |  MIDI Event: Chan 1 Note ON: F#4, Velocity (0 - 127): 74
0    |  MIDI Event: Chan 4 Note ON: A3, Velocity (0 - 127): 120
0    |  MIDI Event: Chan 5 Note ON: A2, Velocity (0 - 127): 100
0    |  MIDI Event: Chan 5 Note ON: D3, Velocity (0 - 127): 111
0    |  MIDI Event: Chan 5 Note ON: F#3, Velocity (0 - 127): 89
0    |  MIDI Event: Chan 10 Note ON: D#2, Velocity (0 - 127): 120
0    |  Meta Event: Lyric: der 
0    |  Meta Event: Lyric: 
29   |  MIDI Event: Chan 10 Note OFF: D#2, Velocity (0 - 127): 64
0    |  MIDI Event: Chan 4 Note OFF: A3, Velocity (0 - 127): 64
30   |  MIDI Event: Chan 2 Note OFF: D2, Velocity (0 - 127): 64
1    |  MIDI Event: Chan 2 Note ON: D2, Velocity (0 - 127): 100
0    |  MIDI Event: Chan 10 Note ON: B1, Velocity (0 - 127): 120
29   |  MIDI Event: Chan 10 Note OFF: B1, Velocity (0 - 127): 64
0    |  MIDI Event: Chan 5 Note OFF: F#3, Velocity (0 - 127): 64
0    |  MIDI Event: Chan 5 Note OFF: A2, Velocity (0 - 127): 64
0    |  MIDI Event: Chan 1 Note OFF: D4, Velocity (0 - 127): 64
0    |  MIDI Event: Chan 1 Note OFF: F#4, Velocity (0 - 127): 64
0    |  MIDI Event: Chan 1 Note OFF: A3, Velocity (0 - 127): 64
0    |  MIDI Event: Chan 5 Note OFF: D3, Velocity (0 - 127): 64
1    |  MIDI Event: Chan 1 Note ON: F#3, Velocity (0 - 127): 44
0    |  MIDI Event: Chan 1 Note ON: A3, Velocity (0 - 127): 78
0    |  MIDI Event: Chan 1 Note ON: D4, Velocity (0 - 127): 58
0    |  MIDI Event: Chan 5 Note ON: A2, Velocity (0 - 127): 85
0    |  MIDI Event: Chan 5 Note ON: D3, Velocity (0 - 127): 105
0    |  MIDI Event: Chan 5 Note ON: F#3, Velocity (0 - 127): 81
29   |  MIDI Event: Chan 5 Note OFF: F#3, Velocity (0 - 127): 64
0    |  MIDI Event: Chan 5 Note OFF: A2, Velocity (0 - 127): 64
0    |  MIDI Event: Chan 1 Note OFF: F#3, Velocity (0 - 127): 64
0    |  MIDI Event: Chan 1 Note OFF: A3, Velocity (0 - 127): 64
0    |  MIDI Event: Chan 1 Note OFF: D4, Velocity (0 - 127): 64
0    |  MIDI Event: Chan 5 Note OFF: D3, Velocity (0 - 127): 64
1    |  MIDI Event: Chan 1 Note ON: A3, Velocity (0 - 127): 57
0    |  MIDI Event: Chan 1 Note ON: D4, Velocity (0 - 127): 91
0    |  MIDI Event: Chan 1 Note ON: F#4, Velocity (0 - 127): 77
0    |  MIDI Event: Chan 5 Note ON: D3, Velocity (0 - 127): 109
0    |  MIDI Event: Chan 5 Note ON: F#3, Velocity (0 - 127): 89
0    |  MIDI Event: Chan 5 Note ON: A3, Velocity (0 - 127): 109
0    |  MIDI Event: Chan 10 Note ON: D#2, Velocity (0 - 127): 120
29   |  MIDI Event: Chan 10 Note OFF: D#2, Velocity (0 - 127): 64
0    |  MIDI Event: Chan 5 Note OFF: A3, Velocity (0 - 127): 64
0    |  MIDI Event: Chan 5 Note OFF: D3, Velocity (0 - 127): 64
0    |  MIDI Event: Chan 1 Note OFF: A3, Velocity (0 - 127): 64
0    |  MIDI Event: Chan 1 Note OFF: D4, Velocity (0 - 127): 64
0    |  MIDI Event: Chan 1 Note OFF: F#4, Velocity (0 - 127): 64
0    |  MIDI Event: Chan 5 Note OFF: F#3, Velocity (0 - 127): 64
1    |  MIDI Event: Chan 1 Note ON: F#3, Velocity (0 - 127): 35
0    |  MIDI Event: Chan 1 Note ON: A3, Velocity (0 - 127): 79
0    |  MIDI Event: Chan 1 Note ON: D4, Velocity (0 - 127): 56
0    |  MIDI Event: Chan 5 Note ON: D3, Velocity (0 - 127): 111
0    |  MIDI Event: Chan 5 Note ON: F#3, Velocity (0 - 127): 100
0    |  MIDI Event: Chan 5 Note ON: A3, Velocity (0 - 127): 100
29   |  MIDI Event: Chan 5 Note OFF: A3, Velocity (0 - 127): 64
0    |  MIDI Event: Chan 5 Note OFF: D3, Velocity (0 - 127): 64
0    |  MIDI Event: Chan 1 Note OFF: F#3, Velocity (0 - 127): 64
0    |  MIDI Event: Chan 1 Note OFF: A3, Velocity (0 - 127): 64
0    |  MIDI Event: Chan 2 Note OFF: D2, Velocity (0 - 127): 64
0    |  MIDI Event: Chan 5 Note OFF: F#3, Velocity (0 - 127): 64
0    |  MIDI Event: Chan 1 Note OFF: D4, Velocity (0 - 127): 64
1    |  MIDI Event: Chan 1 Note ON: F#3, Velocity (0 - 127): 49
0    |  MIDI Event: Chan 1 Note ON: A3, Velocity (0 - 127): 85
0    |  MIDI Event: Chan 1 Note ON: D4, Velocity (0 - 127): 75
0    |  MIDI Event: Chan 2 Note ON: D2, Velocity (0 - 127): 100
0    |  MIDI Event: Chan 5 Note ON: A2, Velocity (0 - 127): 105
0    |  MIDI Event: Chan 5 Note ON: D3, Velocity (0 - 127): 116
0    |  MIDI Event: Chan 10 Note ON: B1, Velocity (0 - 127): 119
29   |  MIDI Event: Chan 10 Note OFF: B1, Velocity (0 - 127): 64
30   |  MIDI Event: Chan 5 Note OFF: A2, Velocity (0 - 127): 64
0    |  MIDI Event: Chan 1 Note OFF: A3, Velocity (0 - 127): 64
0    |  MIDI Event: Chan 1 Note OFF: F#3, Velocity (0 - 127): 64
0    |  MIDI Event: Chan 1 Note OFF: D4, Velocity (0 - 127): 64
0    |  MIDI Event: Chan 5 Note OFF: D3, Velocity (0 - 127): 64
1    |  MIDI Event: Chan 1 Note ON: A3, Velocity (0 - 127): 56
0    |  MIDI Event: Chan 1 Note ON: D4, Velocity (0 - 127): 84
0    |  MIDI Event: Chan 1 Note ON: F#4, Velocity (0 - 127): 49
0    |  MIDI Event: Chan 5 Note ON: D3, Velocity (0 - 127): 105
0    |  MIDI Event: Chan 5 Note ON: F#3, Velocity (0 - 127): 115
0    |  MIDI Event: Chan 10 Note ON: D#2, Velocity (0 - 127): 120
29   |  MIDI Event: Chan 10 Note OFF: D#2, Velocity (0 - 127): 64
0    |  MIDI Event: Chan 5 Note OFF: D3, Velocity (0 - 127): 64
0    |  MIDI Event: Chan 1 Note OFF: A3, Velocity (0 - 127): 64
0    |  MIDI Event: Chan 1 Note OFF: D4, Velocity (0 - 127): 64
0    |  MIDI Event: Chan 1 Note OFF: F#4, Velocity (0 - 127): 64
0    |  MIDI Event: Chan 5 Note OFF: F#3, Velocity (0 - 127): 64
1    |  MIDI Event: Chan 1 Note ON: A3, Velocity (0 - 127): 84
0    |  MIDI Event: Chan 1 Note ON: D4, Velocity (0 - 127): 94
0    |  MIDI Event: Chan 1 Note ON: F#4, Velocity (0 - 127): 76
0    |  MIDI Event: Chan 5 Note ON: D3, Velocity (0 - 127): 100
0    |  MIDI Event: Chan 5 Note ON: F#3, Velocity (0 - 127): 92
29   |  MIDI Event: Chan 5 Note OFF: F#3, Velocity (0 - 127): 64
0    |  MIDI Event: Chan 1 Note OFF: A3, Velocity (0 - 127): 64
0    |  MIDI Event: Chan 1 Note OFF: D4, Velocity (0 - 127): 64
0    |  MIDI Event: Chan 2 Note OFF: D2, Velocity (0 - 127): 64
0    |  MIDI Event: Chan 5 Note OFF: D3, Velocity (0 - 127): 64
0    |  MIDI Event: Chan 1 Note OFF: F#4, Velocity (0 - 127): 64
1    |  MIDI Event: Chan 1 Note ON: E3, Velocity (0 - 127): 47
0    |  MIDI Event: Chan 1 Note ON: A3, Velocity (0 - 127): 89
0    |  MIDI Event: Chan 1 Note ON: C#4, Velocity (0 - 127): 52
0    |  MIDI Event: Chan 2 Note ON: F#1, Velocity (0 - 127): 100
0    |  MIDI Event: Chan 4 Note ON: B3, Velocity (0 - 127): 119
0    |  MIDI Event: Chan 5 Note ON: A2, Velocity (0 - 127): 101
0    |  MIDI Event: Chan 5 Note ON: E3, Velocity (0 - 127): 101
0    |  MIDI Event: Chan 10 Note ON: B1, Velocity (0 - 127): 120
0    |  Meta Event: Lyric: All 
29   |  MIDI Event: Chan 10 Note OFF: B1, Velocity (0 - 127): 64
0    |  MIDI Event: Chan 4 Note OFF: B3, Velocity (0 - 127): 64
30   |  MIDI Event: Chan 5 Note OFF: A2, Velocity (0 - 127): 64
0    |  MIDI Event: Chan 1 Note OFF: A3, Velocity (0 - 127): 64
0    |  MIDI Event: Chan 1 Note OFF: E3, Velocity (0 - 127): 64
0    |  MIDI Event: Chan 1 Note OFF: C#4, Velocity (0 - 127): 64
0    |  MIDI Event: Chan 5 Note OFF: E3, Velocity (0 - 127): 64
1    |  MIDI Event: Chan 1 Note ON: A3, Velocity (0 - 127): 51
0    |  MIDI Event: Chan 1 Note ON: C#4, Velocity (0 - 127): 52
0    |  MIDI Event: Chan 1 Note ON: E4, Velocity (0 - 127): 78
0    |  MIDI Event: Chan 4 Note ON: C#4, Velocity (0 - 127): 120
0    |  MIDI Event: Chan 5 Note ON: C#3, Velocity (0 - 127): 89
0    |  MIDI Event: Chan 5 Note ON: E3, Velocity (0 - 127): 101
0    |  MIDI Event: Chan 5 Note ON: A3, Velocity (0 - 127): 89
0    |  MIDI Event: Chan 10 Note ON: D#2, Velocity (0 - 127): 120
0    |  Meta Event: Lyric: this 
29   |  MIDI Event: Chan 10 Note OFF: D#2, Velocity (0 - 127): 64
0    |  MIDI Event: Chan 1 Note OFF: E4, Velocity (0 - 127): 64
0    |  MIDI Event: Chan 5 Note OFF: A3, Velocity (0 - 127): 64
0    |  MIDI Event: Chan 4 Note OFF: C#4, Velocity (0 - 127): 64
0    |  MIDI Event: Chan 1 Note OFF: A3, Velocity (0 - 127): 64
0    |  MIDI Event: Chan 1 Note OFF: C#4, Velocity (0 - 127): 64
0    |  MIDI Event: Chan 5 Note OFF: E3, Velocity (0 - 127): 64
0    |  MIDI Event: Chan 5 Note OFF: C#3, Velocity (0 - 127): 64
1    |  MIDI Event: Chan 1 Note ON: A3, Velocity (0 - 127): 73
0    |  MIDI Event: Chan 1 Note ON: C#4, Velocity (0 - 127): 52
0    |  MIDI Event: Chan 1 Note ON: E4, Velocity (0 - 127): 83
0    |  MIDI Event: Chan 5 Note ON: C#3, Velocity (0 - 127): 119
0    |  MIDI Event: Chan 5 Note ON: E3, Velocity (0 - 127): 118
0    |  MIDI Event: Chan 5 Note ON: A3, Velocity (0 - 127): 105
29   |  MIDI Event: Chan 5 Note OFF: A3, Velocity (0 - 127): 64
0    |  MIDI Event: Chan 5 Note OFF: C#3, Velocity (0 - 127): 64
0    |  MIDI Event: Chan 1 Note OFF: A3, Velocity (0 - 127): 64
0    |  MIDI Event: Chan 1 Note OFF: C#4, Velocity (0 - 127): 64
0    |  MIDI Event: Chan 2 Note OFF: F#1, Velocity (0 - 127): 64
0    |  MIDI Event: Chan 5 Note OFF: E3, Velocity (0 - 127): 64
0    |  MIDI Event: Chan 1 Note OFF: E4, Velocity (0 - 127): 64
1    |  MIDI Event: Chan 1 Note ON: B3, Velocity (0 - 127): 58
0    |  MIDI Event: Chan 1 Note ON: D4, Velocity (0 - 127): 91
0    |  MIDI Event: Chan 2 Note ON: B1, Velocity (0 - 127): 100
0    |  MIDI Event: Chan 4 Note ON: D4, Velocity (0 - 127): 116
0    |  MIDI Event: Chan 5 Note ON: B2, Velocity (0 - 127): 85
0    |  MIDI Event: Chan 5 Note ON: F#3, Velocity (0 - 127): 120
0    |  MIDI Event: Chan 10 Note ON: B1, Velocity (0 - 127): 120
0    |  Meta Event: Lyric: time 
29   |  MIDI Event: Chan 10 Note OFF: B1, Velocity (0 - 127): 64
30   |  MIDI Event: Chan 5 Note OFF: B2, Velocity (0 - 127): 64
0    |  MIDI Event: Chan 1 Note OFF: D4, Velocity (0 - 127): 64
0    |  MIDI Event: Chan 1 Note OFF: B3, Velocity (0 - 127): 64
0    |  MIDI Event: Chan 5 Note OFF: F#3, Velocity (0 - 127): 64
1    |  MIDI Event: Chan 1 Note ON: B3, Velocity (0 - 127): 79
0    |  MIDI Event: Chan 1 Note ON: D4, Velocity (0 - 127): 95
0    |  MIDI Event: Chan 1 Note ON: F#4, Velocity (0 - 127): 74
0    |  MIDI Event: Chan 5 Note ON: D3, Velocity (0 - 127): 92
0    |  MIDI Event: Chan 5 Note ON: F#3, Velocity (0 - 127): 87
0    |  MIDI Event: Chan 5 Note ON: D4, Velocity (0 - 127): 95
0    |  MIDI Event: Chan 10 Note ON: D#2, Velocity (0 - 127): 120
29   |  MIDI Event: Chan 10 Note OFF: D#2, Velocity (0 - 127): 64
0    |  MIDI Event: Chan 4 Note OFF: D4, Velocity (0 - 127): 64
30   |  MIDI Event: Chan 2 Note OFF: B1, Velocity (0 - 127): 64
1    |  MIDI Event: Chan 2 Note ON: B1, Velocity (0 - 127): 100
0    |  MIDI Event: Chan 4 Note ON: F#4, Velocity (0 - 127): 120
0    |  MIDI Event: Chan 10 Note ON: B1, Velocity (0 - 127): 120
0    |  Meta Event: Lyric: I 
29   |  MIDI Event: Chan 10 Note OFF: B1, Velocity (0 - 127): 64
0    |  MIDI Event: Chan 1 Note OFF: D4, Velocity (0 - 127): 64
0    |  MIDI Event: Chan 5 Note OFF: D4, Velocity (0 - 127): 64
0    |  MIDI Event: Chan 4 Note OFF: F#4, Velocity (0 - 127): 64
0    |  MIDI Event: Chan 1 Note OFF: B3, Velocity (0 - 127): 64
0    |  MIDI Event: Chan 1 Note OFF: F#4, Velocity (0 - 127): 64
0    |  MIDI Event: Chan 5 Note OFF: D3, Velocity (0 - 127): 64
0    |  MIDI Event: Chan 5 Note OFF: F#3, Velocity (0 - 127): 64
1    |  MIDI Event: Chan 1 Note ON: B3, Velocity (0 - 127): 71
0    |  MIDI Event: Chan 1 Note ON: D4, Velocity (0 - 127): 91
0    |  MIDI Event: Chan 1 Note ON: F#4, Velocity (0 - 127): 60
0    |  MIDI Event: Chan 5 Note ON: F#3, Velocity (0 - 127): 109
0    |  MIDI Event: Chan 5 Note ON: B3, Velocity (0 - 127): 95
29   |  MIDI Event: Chan 5 Note OFF: B3, Velocity (0 - 127): 64
0    |  MIDI Event: Chan 1 Note OFF: B3, Velocity (0 - 127): 64
0    |  MIDI Event: Chan 1 Note OFF: D4, Velocity (0 - 127): 64
0    |  MIDI Event: Chan 1 Note OFF: F#4, Velocity (0 - 127): 64
0    |  MIDI Event: Chan 5 Note OFF: F#3, Velocity (0 - 127): 64
1    |  MIDI Event: Chan 1 Note ON: D4, Velocity (0 - 127): 80
0    |  MIDI Event: Chan 1 Note ON: F#4, Velocity (0 - 127): 62
0    |  MIDI Event: Chan 1 Note ON: B4, Velocity (0 - 127): 91
0    |  MIDI Event: Chan 4 Note ON: F#4, Velocity (0 - 127): 120
0    |  MIDI Event: Chan 5 Note ON: D3, Velocity (0 - 127): 103
0    |  MIDI Event: Chan 5 Note ON: F#3, Velocity (0 - 127): 115
0    |  MIDI Event: Chan 10 Note ON: D#2, Velocity (0 - 127): 120
0    |  Meta Event: Lyric: was 
29   |  MIDI Event: Chan 10 Note OFF: D#2, Velocity (0 - 127): 64
0    |  MIDI Event: Chan 5 Note OFF: F#3, Velocity (0 - 127): 64
0    |  MIDI Event: Chan 4 Note OFF: F#4, Velocity (0 - 127): 64
0    |  MIDI Event: Chan 1 Note OFF: D4, Velocity (0 - 127): 64
0    |  MIDI Event: Chan 1 Note OFF: F#4, Velocity (0 - 127): 64
0    |  MIDI Event: Chan 1 Note OFF: B4, Velocity (0 - 127): 64
0    |  MIDI Event: Chan 5 Note OFF: D3, Velocity (0 - 127): 64
1    |  MIDI Event: Chan 1 Note ON: B3, Velocity (0 - 127): 51
0    |  MIDI Event: Chan 1 Note ON: D4, Velocity (0 - 127): 85
0    |  MIDI Event: Chan 1 Note ON: F#4, Velocity (0 - 127): 59
0    |  MIDI Event: Chan 5 Note ON: B2, Velocity (0 - 127): 92
0    |  MIDI Event: Chan 5 Note ON: E3, Velocity (0 - 127): 98
29   |  MIDI Event: Chan 5 Note OFF: E3, Velocity (0 - 127): 64
0    |  MIDI Event: Chan 1 Note OFF: B3, Velocity (0 - 127): 64
0    |  MIDI Event: Chan 1 Note OFF: D4, Velocity (0 - 127): 64
0    |  MIDI Event: Chan 2 Note OFF: B1, Velocity (0 - 127): 64
0    |  MIDI Event: Chan 5 Note OFF: B2, Velocity (0 - 127): 64
0    |  MIDI Event: Chan 1 Note OFF: F#4, Velocity (0 - 127): 64
1    |  MIDI Event: Chan 1 Note ON: G3, Velocity (0 - 127): 74
0    |  MIDI Event: Chan 1 Note ON: B3, Velocity (0 - 127): 94
0    |  MIDI Event: Chan 1 Note ON: D4, Velocity (0 - 127): 91
0    |  MIDI Event: Chan 2 Note ON: G1, Velocity (0 - 127): 100
0    |  MIDI Event: Chan 4 Note ON: E4, Velocity (0 - 127): 116
0    |  MIDI Event: Chan 5 Note ON: G2, Velocity (0 - 127): 98
0    |  MIDI Event: Chan 5 Note ON: D3, Velocity (0 - 127): 116
0    |  MIDI Event: Chan 10 Note ON: B1, Velocity (0 - 127): 120
0    |  Meta Event: Lyric: fin
29   |  MIDI Event: Chan 10 Note OFF: B1, Velocity (0 - 127): 64
30   |  MIDI Event: Chan 5 Note OFF: D3, Velocity (0 - 127): 64
0    |  MIDI Event: Chan 4 Note OFF: E4, Velocity (0 - 127): 64
0    |  MIDI Event: Chan 1 Note OFF: B3, Velocity (0 - 127): 64
0    |  MIDI Event: Chan 1 Note OFF: G3, Velocity (0 - 127): 64
0    |  MIDI Event: Chan 1 Note OFF: D4, Velocity (0 - 127): 64
0    |  MIDI Event: Chan 5 Note OFF: G2, Velocity (0 - 127): 64
1    |  MIDI Event: Chan 1 Note ON: B3, Velocity (0 - 127): 70
0    |  MIDI Event: Chan 1 Note ON: D4, Velocity (0 - 127): 94
0    |  MIDI Event: Chan 1 Note ON: G4, Velocity (0 - 127): 101
0    |  MIDI Event: Chan 5 Note ON: D3, Velocity (0 - 127): 79
0    |  MIDI Event: Chan 5 Note ON: G3, Velocity (0 - 127): 111
0    |  MIDI Event: Chan 5 Note ON: B3, Velocity (0 - 127): 100
0    |  MIDI Event: Chan 10 Note ON: D#2, Velocity (0 - 127): 120
29   |  MIDI Event: Chan 10 Note OFF: D#2, Velocity (0 - 127): 64
1    |  MIDI Event: Chan 4 Note ON: D4, Velocity (0 - 127): 120
0    |  Meta Event: Lyric: ding 
29   |  MIDI Event: Chan 4 Note OFF: D4, Velocity (0 - 127): 64
0    |  MIDI Event: Chan 2 Note OFF: G1, Velocity (0 - 127): 64
1    |  MIDI Event: Chan 2 Note ON: G1, Velocity (0 - 127): 100
0    |  MIDI Event: Chan 10 Note ON: B1, Velocity (0 - 127): 120
29   |  MIDI Event: Chan 10 Note OFF: B1, Velocity (0 - 127): 64
0    |  MIDI Event: Chan 1 Note OFF: B3, Velocity (0 - 127): 64
0    |  MIDI Event: Chan 5 Note OFF: G3, Velocity (0 - 127): 64
0    |  MIDI Event: Chan 1 Note OFF: D4, Velocity (0 - 127): 64
0    |  MIDI Event: Chan 1 Note OFF: G4, Velocity (0 - 127): 64
0    |  MIDI Event: Chan 5 Note OFF: D3, Velocity (0 - 127): 64
0    |  MIDI Event: Chan 5 Note OFF: B3, Velocity (0 - 127): 64
1    |  MIDI Event: Chan 1 Note ON: B3, Velocity (0 - 127): 52
0    |  MIDI Event: Chan 1 Note ON: D4, Velocity (0 - 127): 85
0    |  MIDI Event: Chan 1 Note ON: G4, Velocity (0 - 127): 94
0    |  MIDI Event: Chan 4 Note ON: E4, Velocity (0 - 127): 120
0    |  MIDI Event: Chan 5 Note ON: D3, Velocity (0 - 127): 82
0    |  MIDI Event: Chan 5 Note ON: G3, Velocity (0 - 127): 98
0    |  MIDI Event: Chan 5 Note ON: B3, Velocity (0 - 127): 85
0    |  Meta Event: Lyric: my
29   |  MIDI Event: Chan 5 Note OFF: B3, Velocity (0 - 127): 64
0    |  MIDI Event: Chan 5 Note OFF: G3, Velocity (0 - 127): 64
0    |  MIDI Event: Chan 1 Note OFF: G4, Velocity (0 - 127): 64
0    |  MIDI Event: Chan 1 Note OFF: B3, Velocity (0 - 127): 64
0    |  MIDI Event: Chan 1 Note OFF: D4, Velocity (0 - 127): 64
0    |  MIDI Event: Chan 5 Note OFF: D3, Velocity (0 - 127): 64
1    |  MIDI Event: Chan 1 Note ON: D4, Velocity (0 - 127): 78
0    |  MIDI Event: Chan 1 Note ON: G4, Velocity (0 - 127): 100
0    |  MIDI Event: Chan 1 Note ON: B4, Velocity (0 - 127): 46
0    |  MIDI Event: Chan 5 Note ON: G2, Velocity (0 - 127): 109
0    |  MIDI Event: Chan 5 Note ON: D3, Velocity (0 - 127): 109
0    |  MIDI Event: Chan 10 Note ON: D#2, Velocity (0 - 127): 120
29   |  MIDI Event: Chan 10 Note OFF: D#2, Velocity (0 - 127): 64
0    |  MIDI Event: Chan 5 Note OFF: D3, Velocity (0 - 127): 64
0    |  MIDI Event: Chan 1 Note OFF: B4, Velocity (0 - 127): 64
0    |  MIDI Event: Chan 4 Note OFF: E4, Velocity (0 - 127): 64
0    |  MIDI Event: Chan 1 Note OFF: D4, Velocity (0 - 127): 64
0    |  MIDI Event: Chan 1 Note OFF: G4, Velocity (0 - 127): 64
0    |  MIDI Event: Chan 5 Note OFF: G2, Velocity (0 - 127): 64
1    |  MIDI Event: Chan 1 Note ON: B3, Velocity (0 - 127): 45
0    |  MIDI Event: Chan 1 Note ON: D4, Velocity (0 - 127): 73
0    |  MIDI Event: Chan 1 Note ON: G4, Velocity (0 - 127): 86
0    |  MIDI Event: Chan 5 Note ON: G2, Velocity (0 - 127): 101
0    |  MIDI Event: Chan 5 Note ON: E3, Velocity (0 - 127): 116
29   |  MIDI Event: Chan 5 Note OFF: E3, Velocity (0 - 127): 64
0    |  MIDI Event: Chan 1 Note OFF: B3, Velocity (0 - 127): 64
0    |  MIDI Event: Chan 1 Note OFF: D4, Velocity (0 - 127): 64
0    |  MIDI Event: Chan 2 Note OFF: G1, Velocity (0 - 127): 64
0    |  MIDI Event: Chan 5 Note OFF: G2, Velocity (0 - 127): 64
0    |  MIDI Event: Chan 1 Note OFF: G4, Velocity (0 - 127): 64
1    |  MIDI Event: Chan 1 Note ON: F#3, Velocity (0 - 127): 35
0    |  MIDI Event: Chan 1 Note ON: A3, Velocity (0 - 127): 85
0    |  MIDI Event: Chan 1 Note ON: D4, Velocity (0 - 127): 79
0    |  MIDI Event: Chan 2 Note ON: D2, Velocity (0 - 127): 100
0    |  MIDI Event: Chan 4 Note ON: D4, Velocity (0 - 127): 120
0    |  MIDI Event: Chan 5 Note ON: A2, Velocity (0 - 127): 90
0    |  MIDI Event: Chan 5 Note ON: D3, Velocity (0 - 127): 105
0    |  MIDI Event: Chan 10 Note ON: B1, Velocity (0 - 127): 120
0    |  Meta Event: Lyric: self 
0    |  Meta Event: Lyric: 
29   |  MIDI Event: Chan 10 Note OFF: B1, Velocity (0 - 127): 64
30   |  MIDI Event: Chan 5 Note OFF: D3, Velocity (0 - 127): 64
0    |  MIDI Event: Chan 1 Note OFF: D4, Velocity (0 - 127): 64
0    |  MIDI Event: Chan 1 Note OFF: A3, Velocity (0 - 127): 64
0    |  MIDI Event: Chan 1 Note OFF: F#3, Velocity (0 - 127): 64
0    |  MIDI Event: Chan 5 Note OFF: A2, Velocity (0 - 127): 64
1    |  MIDI Event: Chan 1 Note ON: A3, Velocity (0 - 127): 69
0    |  MIDI Event: Chan 1 Note ON: D4, Velocity (0 - 127): 98
0    |  MIDI Event: Chan 1 Note ON: F#4, Velocity (0 - 127): 74
0    |  MIDI Event: Chan 5 Note ON: A2, Velocity (0 - 127): 100
0    |  MIDI Event: Chan 5 Note ON: D3, Velocity (0 - 127): 111
0    |  MIDI Event: Chan 5 Note ON: F#3, Velocity (0 - 127): 89
0    |  MIDI Event: Chan 10 Note ON: D#2, Velocity (0 - 127): 119
29   |  MIDI Event: Chan 10 Note OFF: D#2, Velocity (0 - 127): 64
30   |  MIDI Event: Chan 2 Note OFF: D2, Velocity (0 - 127): 64
0    |  MIDI Event: Chan 4 Note OFF: D4, Velocity (0 - 127): 64
1    |  MIDI Event: Chan 2 Note ON: D2, Velocity (0 - 127): 100
0    |  MIDI Event: Chan 10 Note ON: B1, Velocity (0 - 127): 120
29   |  MIDI Event: Chan 10 Note OFF: B1, Velocity (0 - 127): 64
0    |  MIDI Event: Chan 5 Note OFF: F#3, Velocity (0 - 127): 64
0    |  MIDI Event: Chan 5 Note OFF: A2, Velocity (0 - 127): 64
0    |  MIDI Event: Chan 1 Note OFF: A3, Velocity (0 - 127): 64
0    |  MIDI Event: Chan 1 Note OFF: F#4, Velocity (0 - 127): 64
0    |  MIDI Event: Chan 1 Note OFF: D4, Velocity (0 - 127): 64
0    |  MIDI Event: Chan 5 Note OFF: D3, Velocity (0 - 127): 64
1    |  MIDI Event: Chan 1 Note ON: F#3, Velocity (0 - 127): 44
0    |  MIDI Event: Chan 1 Note ON: A3, Velocity (0 - 127): 78
0    |  MIDI Event: Chan 1 Note ON: D4, Velocity (0 - 127): 58
0    |  MIDI Event: Chan 5 Note ON: A2, Velocity (0 - 127): 85
0    |  MIDI Event: Chan 5 Note ON: D3, Velocity (0 - 127): 105
0    |  MIDI Event: Chan 5 Note ON: F#3, Velocity (0 - 127): 81
29   |  MIDI Event: Chan 5 Note OFF: F#3, Velocity (0 - 127): 64
0    |  MIDI Event: Chan 5 Note OFF: A2, Velocity (0 - 127): 64
0    |  MIDI Event: Chan 1 Note OFF: F#3, Velocity (0 - 127): 64
0    |  MIDI Event: Chan 1 Note OFF: A3, Velocity (0 - 127): 64
0    |  MIDI Event: Chan 1 Note OFF: D4, Velocity (0 - 127): 64
0    |  MIDI Event: Chan 5 Note OFF: D3, Velocity (0 - 127): 64
1    |  MIDI Event: Chan 1 Note ON: A3, Velocity (0 - 127): 57
0    |  MIDI Event: Chan 1 Note ON: D4, Velocity (0 - 127): 91
0    |  MIDI Event: Chan 1 Note ON: F#4, Velocity (0 - 127): 77
0    |  MIDI Event: Chan 4 Note ON: A3, Velocity (0 - 127): 120
0    |  MIDI Event: Chan 5 Note ON: D3, Velocity (0 - 127): 109
0    |  MIDI Event: Chan 5 Note ON: F#3, Velocity (0 - 127): 89
0    |  MIDI Event: Chan 5 Note ON: A3, Velocity (0 - 127): 109
0    |  MIDI Event: Chan 10 Note ON: D#2, Velocity (0 - 127): 120
0    |  Meta Event: Lyric: And 
29   |  MIDI Event: Chan 10 Note OFF: D#2, Velocity (0 - 127): 64
0    |  MIDI Event: Chan 1 Note OFF: F#4, Velocity (0 - 127): 64
0    |  MIDI Event: Chan 5 Note OFF: A3, Velocity (0 - 127): 64
0    |  MIDI Event: Chan 4 Note OFF: A3, Velocity (0 - 127): 64
0    |  MIDI Event: Chan 1 Note OFF: A3, Velocity (0 - 127): 64
0    |  MIDI Event: Chan 1 Note OFF: D4, Velocity (0 - 127): 64
0    |  MIDI Event: Chan 5 Note OFF: F#3, Velocity (0 - 127): 64
0    |  MIDI Event: Chan 5 Note OFF: D3, Velocity (0 - 127): 64
1    |  MIDI Event: Chan 1 Note ON: F#3, Velocity (0 - 127): 35
0    |  MIDI Event: Chan 1 Note ON: A3, Velocity (0 - 127): 79
0    |  MIDI Event: Chan 1 Note ON: D4, Velocity (0 - 127): 56
0    |  MIDI Event: Chan 4 Note ON: A3, Velocity (0 - 127): 109
0    |  MIDI Event: Chan 5 Note ON: D3, Velocity (0 - 127): 111
0    |  MIDI Event: Chan 5 Note ON: F#3, Velocity (0 - 127): 100
0    |  MIDI Event: Chan 5 Note ON: A3, Velocity (0 - 127): 100
0    |  Meta Event: Lyric: I 
29   |  MIDI Event: Chan 5 Note OFF: A3, Velocity (0 - 127): 64
0    |  MIDI Event: Chan 2 Note OFF: D2, Velocity (0 - 127): 64
0    |  MIDI Event: Chan 1 Note OFF: D4, Velocity (0 - 127): 64
0    |  MIDI Event: Chan 1 Note OFF: F#3, Velocity (0 - 127): 64
0    |  MIDI Event: Chan 5 Note OFF: F#3, Velocity (0 - 127): 64
0    |  MIDI Event: Chan 1 Note OFF: A3, Velocity (0 - 127): 64
0    |  MIDI Event: Chan 5 Note OFF: D3, Velocity (0 - 127): 64
1    |  MIDI Event: Chan 1 Note ON: F#3, Velocity (0 - 127): 49
0    |  MIDI Event: Chan 1 Note ON: A3, Velocity (0 - 127): 85
0    |  MIDI Event: Chan 1 Note ON: D4, Velocity (0 - 127): 75
0    |  MIDI Event: Chan 2 Note ON: D2, Velocity (0 - 127): 100
0    |  MIDI Event: Chan 5 Note ON: A2, Velocity (0 - 127): 105
0    |  MIDI Event: Chan 5 Note ON: D3, Velocity (0 - 127): 116
0    |  MIDI Event: Chan 10 Note ON: B1, Velocity (0 - 127): 120
29   |  MIDI Event: Chan 10 Note OFF: B1, Velocity (0 - 127): 64
30   |  MIDI Event: Chan 5 Note OFF: D3, Velocity (0 - 127): 64
0    |  MIDI Event: Chan 1 Note OFF: D4, Velocity (0 - 127): 64
0    |  MIDI Event: Chan 1 Note OFF: F#3, Velocity (0 - 127): 64
0    |  MIDI Event: Chan 1 Note OFF: A3, Velocity (0 - 127): 64
0    |  MIDI Event: Chan 5 Note OFF: A2, Velocity (0 - 127): 64
1    |  MIDI Event: Chan 1 Note ON: A3, Velocity (0 - 127): 56
0    |  MIDI Event: Chan 1 Note ON: D4, Velocity (0 - 127): 84
0    |  MIDI Event: Chan 1 Note ON: F#4, Velocity (0 - 127): 49
0    |  MIDI Event: Chan 5 Note ON: D3, Velocity (0 - 127): 105
0    |  MIDI Event: Chan 5 Note ON: F#3, Velocity (0 - 127): 115
0    |  MIDI Event: Chan 10 Note ON: D#2, Velocity (0 - 127): 115
29   |  MIDI Event: Chan 10 Note OFF: D#2, Velocity (0 - 127): 64
0    |  MIDI Event: Chan 5 Note OFF: F#3, Velocity (0 - 127): 64
0    |  MIDI Event: Chan 1 Note OFF: F#4, Velocity (0 - 127): 64
0    |  MIDI Event: Chan 1 Note OFF: D4, Velocity (0 - 127): 64
0    |  MIDI Event: Chan 1 Note OFF: A3, Velocity (0 - 127): 64
0    |  MIDI Event: Chan 5 Note OFF: D3, Velocity (0 - 127): 64
1    |  MIDI Event: Chan 1 Note ON: A3, Velocity (0 - 127): 84
0    |  MIDI Event: Chan 1 Note ON: D4, Velocity (0 - 127): 94
0    |  MIDI Event: Chan 1 Note ON: F#4, Velocity (0 - 127): 76
0    |  MIDI Event: Chan 5 Note ON: D3, Velocity (0 - 127): 100
0    |  MIDI Event: Chan 5 Note ON: F#3, Velocity (0 - 127): 92
29   |  MIDI Event: Chan 5 Note OFF: F#3, Velocity (0 - 127): 64
0    |  MIDI Event: Chan 1 Note OFF: F#4, Velocity (0 - 127): 64
0    |  MIDI Event: Chan 2 Note OFF: D2, Velocity (0 - 127): 64
0    |  MIDI Event: Chan 1 Note OFF: A3, Velocity (0 - 127): 64
0    |  MIDI Event: Chan 1 Note OFF: D4, Velocity (0 - 127): 64
0    |  MIDI Event: Chan 5 Note OFF: D3, Velocity (0 - 127): 64
1    |  MIDI Event: Chan 1 Note ON: E3, Velocity (0 - 127): 47
0    |  MIDI Event: Chan 1 Note ON: A3, Velocity (0 - 127): 89
0    |  MIDI Event: Chan 1 Note ON: C#4, Velocity (0 - 127): 52
0    |  MIDI Event: Chan 2 Note ON: A1, Velocity (0 - 127): 100
0    |  MIDI Event: Chan 5 Note ON: A2, Velocity (0 - 127): 101
0    |  MIDI Event: Chan 5 Note ON: E3, Velocity (0 - 127): 101
0    |  MIDI Event: Chan 10 Note ON: B1, Velocity (0 - 127): 120
29   |  MIDI Event: Chan 10 Note OFF: B1, Velocity (0 - 127): 64
30   |  MIDI Event: Chan 5 Note OFF: E3, Velocity (0 - 127): 64
0    |  MIDI Event: Chan 1 Note OFF: C#4, Velocity (0 - 127): 64
0    |  MIDI Event: Chan 1 Note OFF: E3, Velocity (0 - 127): 64
0    |  MIDI Event: Chan 1 Note OFF: A3, Velocity (0 - 127): 64
0    |  MIDI Event: Chan 5 Note OFF: A2, Velocity (0 - 127): 64
1    |  MIDI Event: Chan 1 Note ON: A3, Velocity (0 - 127): 51
0    |  MIDI Event: Chan 1 Note ON: C#4, Velocity (0 - 127): 52
0    |  MIDI Event: Chan 1 Note ON: E4, Velocity (0 - 127): 78
0    |  MIDI Event: Chan 5 Note ON: C#3, Velocity (0 - 127): 89
0    |  MIDI Event: Chan 5 Note ON: E3, Velocity (0 - 127): 101
0    |  MIDI Event: Chan 5 Note ON: A3, Velocity (0 - 127): 89
0    |  MIDI Event: Chan 10 Note ON: D#2, Velocity (0 - 127): 119
29   |  MIDI Event: Chan 10 Note OFF: D#2, Velocity (0 - 127): 64
0    |  MIDI Event: Chan 1 Note OFF: C#4, Velocity (0 - 127): 64
0    |  MIDI Event: Chan 5 Note OFF: A3, Velocity (0 - 127): 64
0    |  MIDI Event: Chan 1 Note OFF: E4, Velocity (0 - 127): 64
0    |  MIDI Event: Chan 4 Note OFF: A3, Velocity (0 - 127): 64
0    |  MIDI Event: Chan 1 Note OFF: A3, Velocity (0 - 127): 64
0    |  MIDI Event: Chan 5 Note OFF: E3, Velocity (0 - 127): 64
0    |  MIDI Event: Chan 5 Note OFF: C#3, Velocity (0 - 127): 64
1    |  MIDI Event: Chan 1 Note ON: A3, Velocity (0 - 127): 73
0    |  MIDI Event: Chan 1 Note ON: C#4, Velocity (0 - 127): 52
0    |  MIDI Event: Chan 1 Note ON: E4, Velocity (0 - 127): 83
0    |  MIDI Event: Chan 5 Note ON: C#3, Velocity (0 - 127): 119
0    |  MIDI Event: Chan 5 Note ON: E3, Velocity (0 - 127): 118
0    |  MIDI Event: Chan 5 Note ON: A3, Velocity (0 - 127): 105
29   |  MIDI Event: Chan 5 Note OFF: A3, Velocity (0 - 127): 64
0    |  MIDI Event: Chan 5 Note OFF: C#3, Velocity (0 - 127): 64
0    |  MIDI Event: Chan 1 Note OFF: A3, Velocity (0 - 127): 64
0    |  MIDI Event: Chan 1 Note OFF: C#4, Velocity (0 - 127): 64
0    |  MIDI Event: Chan 2 Note OFF: A1, Velocity (0 - 127): 64
0    |  MIDI Event: Chan 5 Note OFF: E3, Velocity (0 - 127): 64
0    |  MIDI Event: Chan 1 Note OFF: E4, Velocity (0 - 127): 64
1    |  MIDI Event: Chan 1 Note ON: B3, Velocity (0 - 127): 58
0    |  MIDI Event: Chan 1 Note ON: D4, Velocity (0 - 127): 91
0    |  MIDI Event: Chan 2 Note ON: B1, Velocity (0 - 127): 100
0    |  MIDI Event: Chan 5 Note ON: B2, Velocity (0 - 127): 85
0    |  MIDI Event: Chan 5 Note ON: F#3, Velocity (0 - 127): 120
0    |  MIDI Event: Chan 10 Note ON: B1, Velocity (0 - 127): 120
29   |  MIDI Event: Chan 10 Note OFF: B1, Velocity (0 - 127): 64
30   |  MIDI Event: Chan 5 Note OFF: B2, Velocity (0 - 127): 64
0    |  MIDI Event: Chan 1 Note OFF: D4, Velocity (0 - 127): 64
0    |  MIDI Event: Chan 1 Note OFF: B3, Velocity (0 - 127): 64
0    |  MIDI Event: Chan 5 Note OFF: F#3, Velocity (0 - 127): 64
1    |  MIDI Event: Chan 1 Note ON: B3, Velocity (0 - 127): 79
0    |  MIDI Event: Chan 1 Note ON: D4, Velocity (0 - 127): 95
0    |  MIDI Event: Chan 1 Note ON: F#4, Velocity (0 - 127): 74
0    |  MIDI Event: Chan 5 Note ON: D3, Velocity (0 - 127): 92
0    |  MIDI Event: Chan 5 Note ON: F#3, Velocity (0 - 127): 87
0    |  MIDI Event: Chan 5 Note ON: D4, Velocity (0 - 127): 95
0    |  MIDI Event: Chan 10 Note ON: D#2, Velocity (0 - 127): 119
29   |  MIDI Event: Chan 10 Note OFF: D#2, Velocity (0 - 127): 64
30   |  MIDI Event: Chan 2 Note OFF: B1, Velocity (0 - 127): 64
1    |  MIDI Event: Chan 2 Note ON: B1, Velocity (0 - 127): 100
0    |  MIDI Event: Chan 4 Note ON: A3, Velocity (0 - 127): 111
0    |  MIDI Event: Chan 10 Note ON: B1, Velocity (0 - 127): 120
0    |  Meta Event: Lyric: did
29   |  MIDI Event: Chan 10 Note OFF: B1, Velocity (0 - 127): 64
0    |  MIDI Event: Chan 1 Note OFF: B3, Velocity (0 - 127): 64
0    |  MIDI Event: Chan 5 Note OFF: D3, Velocity (0 - 127): 64
0    |  MIDI Event: Chan 4 Note OFF: A3, Velocity (0 - 127): 64
0    |  MIDI Event: Chan 1 Note OFF: D4, Velocity (0 - 127): 64
0    |  MIDI Event: Chan 1 Note OFF: F#4, Velocity (0 - 127): 64
0    |  MIDI Event: Chan 5 Note OFF: F#3, Velocity (0 - 127): 64
0    |  MIDI Event: Chan 5 Note OFF: D4, Velocity (0 - 127): 64
1    |  MIDI Event: Chan 1 Note ON: B3, Velocity (0 - 127): 71
0    |  MIDI Event: Chan 1 Note ON: D4, Velocity (0 - 127): 91
0    |  MIDI Event: Chan 1 Note ON: F#4, Velocity (0 - 127): 60
0    |  MIDI Event: Chan 5 Note ON: F#3, Velocity (0 - 127): 109
0    |  MIDI Event: Chan 5 Note ON: B3, Velocity (0 - 127): 95
29   |  MIDI Event: Chan 5 Note OFF: B3, Velocity (0 - 127): 64
0    |  MIDI Event: Chan 1 Note OFF: B3, Velocity (0 - 127): 64
0    |  MIDI Event: Chan 1 Note OFF: D4, Velocity (0 - 127): 64
0    |  MIDI Event: Chan 1 Note OFF: F#4, Velocity (0 - 127): 64
0    |  MIDI Event: Chan 5 Note OFF: F#3, Velocity (0 - 127): 64
1    |  MIDI Event: Chan 1 Note ON: D4, Velocity (0 - 127): 80
0    |  MIDI Event: Chan 1 Note ON: F#4, Velocity (0 - 127): 62
0    |  MIDI Event: Chan 1 Note ON: B4, Velocity (0 - 127): 91
0    |  MIDI Event: Chan 4 Note ON: A3, Velocity (0 - 127): 103
0    |  MIDI Event: Chan 5 Note ON: D3, Velocity (0 - 127): 103
0    |  MIDI Event: Chan 5 Note ON: F#3, Velocity (0 - 127): 115
0    |  MIDI Event: Chan 10 Note ON: D#2, Velocity (0 - 127): 120
0    |  Meta Event: Lyric: n't 
29   |  MIDI Event: Chan 10 Note OFF: D#2, Velocity (0 - 127): 64
0    |  MIDI Event: Chan 5 Note OFF: F#3, Velocity (0 - 127): 64
0    |  MIDI Event: Chan 4 Note OFF: A3, Velocity (0 - 127): 64
0    |  MIDI Event: Chan 1 Note OFF: D4, Velocity (0 - 127): 64
0    |  MIDI Event: Chan 1 Note OFF: F#4, Velocity (0 - 127): 64
0    |  MIDI Event: Chan 1 Note OFF: B4, Velocity (0 - 127): 64
0    |  MIDI Event: Chan 5 Note OFF: D3, Velocity (0 - 127): 64
1    |  MIDI Event: Chan 1 Note ON: B3, Velocity (0 - 127): 51
0    |  MIDI Event: Chan 1 Note ON: D4, Velocity (0 - 127): 85
0    |  MIDI Event: Chan 1 Note ON: F#4, Velocity (0 - 127): 59
0    |  MIDI Event: Chan 5 Note ON: B2, Velocity (0 - 127): 92
0    |  MIDI Event: Chan 5 Note ON: E3, Velocity (0 - 127): 98
29   |  MIDI Event: Chan 5 Note OFF: E3, Velocity (0 - 127): 64
0    |  MIDI Event: Chan 1 Note OFF: B3, Velocity (0 - 127): 64
0    |  MIDI Event: Chan 1 Note OFF: D4, Velocity (0 - 127): 64
0    |  MIDI Event: Chan 2 Note OFF: B1, Velocity (0 - 127): 64
0    |  MIDI Event: Chan 5 Note OFF: B2, Velocity (0 - 127): 64
0    |  MIDI Event: Chan 1 Note OFF: F#4, Velocity (0 - 127): 64
1    |  MIDI Event: Chan 1 Note ON: G3, Velocity (0 - 127): 74
0    |  MIDI Event: Chan 1 Note ON: B3, Velocity (0 - 127): 94
0    |  MIDI Event: Chan 1 Note ON: D4, Velocity (0 - 127): 91
0    |  MIDI Event: Chan 2 Note ON: G1, Velocity (0 - 127): 100
0    |  MIDI Event: Chan 4 Note ON: G3, Velocity (0 - 127): 118
0    |  MIDI Event: Chan 5 Note ON: G2, Velocity (0 - 127): 98
0    |  MIDI Event: Chan 5 Note ON: D3, Velocity (0 - 127): 116
0    |  MIDI Event: Chan 10 Note ON: B1, Velocity (0 - 127): 120
0    |  Meta Event: Lyric: know 
29   |  MIDI Event: Chan 10 Note OFF: B1, Velocity (0 - 127): 64
30   |  MIDI Event: Chan 5 Note OFF: D3, Velocity (0 - 127): 64
0    |  MIDI Event: Chan 4 Note OFF: G3, Velocity (0 - 127): 64
0    |  MIDI Event: Chan 1 Note OFF: B3, Velocity (0 - 127): 64
0    |  MIDI Event: Chan 1 Note OFF: G3, Velocity (0 - 127): 64
0    |  MIDI Event: Chan 1 Note OFF: D4, Velocity (0 - 127): 64
0    |  MIDI Event: Chan 5 Note OFF: G2, Velocity (0 - 127): 64
1    |  MIDI Event: Chan 1 Note ON: B3, Velocity (0 - 127): 70
0    |  MIDI Event: Chan 1 Note ON: D4, Velocity (0 - 127): 94
0    |  MIDI Event: Chan 1 Note ON: G4, Velocity (0 - 127): 101
0    |  MIDI Event: Chan 5 Note ON: D3, Velocity (0 - 127): 79
0    |  MIDI Event: Chan 5 Note ON: G3, Velocity (0 - 127): 111
0    |  MIDI Event: Chan 5 Note ON: B3, Velocity (0 - 127): 100
0    |  MIDI Event: Chan 10 Note ON: D#2, Velocity (0 - 127): 120
29   |  MIDI Event: Chan 10 Note OFF: D#2, Velocity (0 - 127): 64
1    |  MIDI Event: Chan 4 Note ON: F#3, Velocity (0 - 127): 115
0    |  Meta Event: Lyric: I 
29   |  MIDI Event: Chan 4 Note OFF: F#3, Velocity (0 - 127): 64
0    |  MIDI Event: Chan 2 Note OFF: G1, Velocity (0 - 127): 64
1    |  MIDI Event: Chan 2 Note ON: G1, Velocity (0 - 127): 100
0    |  MIDI Event: Chan 10 Note ON: B1, Velocity (0 - 127): 120
29   |  MIDI Event: Chan 10 Note OFF: B1, Velocity (0 - 127): 64
0    |  MIDI Event: Chan 1 Note OFF: B3, Velocity (0 - 127): 64
0    |  MIDI Event: Chan 5 Note OFF: G3, Velocity (0 - 127): 64
0    |  MIDI Event: Chan 1 Note OFF: D4, Velocity (0 - 127): 64
0    |  MIDI Event: Chan 1 Note OFF: G4, Velocity (0 - 127): 64
0    |  MIDI Event: Chan 5 Note OFF: D3, Velocity (0 - 127): 64
0    |  MIDI Event: Chan 5 Note OFF: B3, Velocity (0 - 127): 64
1    |  MIDI Event: Chan 1 Note ON: B3, Velocity (0 - 127): 52
0    |  MIDI Event: Chan 1 Note ON: D4, Velocity (0 - 127): 85
0    |  MIDI Event: Chan 1 Note ON: G4, Velocity (0 - 127): 94
0    |  MIDI Event: Chan 4 Note ON: E3, Velocity (0 - 127): 101
0    |  MIDI Event: Chan 5 Note ON: D3, Velocity (0 - 127): 82
0    |  MIDI Event: Chan 5 Note ON: G3, Velocity (0 - 127): 98
0    |  MIDI Event: Chan 5 Note ON: B3, Velocity (0 - 127): 85
0    |  Meta Event: Lyric: was 
29   |  MIDI Event: Chan 5 Note OFF: B3, Velocity (0 - 127): 64
0    |  MIDI Event: Chan 5 Note OFF: G3, Velocity (0 - 127): 64
0    |  MIDI Event: Chan 1 Note OFF: G4, Velocity (0 - 127): 64
0    |  MIDI Event: Chan 1 Note OFF: B3, Velocity (0 - 127): 64
0    |  MIDI Event: Chan 1 Note OFF: D4, Velocity (0 - 127): 64
0    |  MIDI Event: Chan 5 Note OFF: D3, Velocity (0 - 127): 64
1    |  MIDI Event: Chan 1 Note ON: D4, Velocity (0 - 127): 78
0    |  MIDI Event: Chan 1 Note ON: G4, Velocity (0 - 127): 100
0    |  MIDI Event: Chan 1 Note ON: B4, Velocity (0 - 127): 46
0    |  MIDI Event: Chan 5 Note ON: G2, Velocity (0 - 127): 109
0    |  MIDI Event: Chan 5 Note ON: D3, Velocity (0 - 127): 109
0    |  MIDI Event: Chan 10 Note ON: D#2, Velocity (0 - 127): 120
29   |  MIDI Event: Chan 10 Note OFF: D#2, Velocity (0 - 127): 64
0    |  MIDI Event: Chan 5 Note OFF: D3, Velocity (0 - 127): 64
0    |  MIDI Event: Chan 1 Note OFF: B4, Velocity (0 - 127): 64
0    |  MIDI Event: Chan 4 Note OFF: E3, Velocity (0 - 127): 64
0    |  MIDI Event: Chan 1 Note OFF: D4, Velocity (0 - 127): 64
0    |  MIDI Event: Chan 1 Note OFF: G4, Velocity (0 - 127): 64
0    |  MIDI Event: Chan 5 Note OFF: G2, Velocity (0 - 127): 64
1    |  MIDI Event: Chan 1 Note ON: B3, Velocity (0 - 127): 45
0    |  MIDI Event: Chan 1 Note ON: D4, Velocity (0 - 127): 73
0    |  MIDI Event: Chan 1 Note ON: G4, Velocity (0 - 127): 86
0    |  MIDI Event: Chan 5 Note ON: G2, Velocity (0 - 127): 101
0    |  MIDI Event: Chan 5 Note ON: E3, Velocity (0 - 127): 116
29   |  MIDI Event: Chan 5 Note OFF: E3, Velocity (0 - 127): 64
0    |  MIDI Event: Chan 1 Note OFF: B3, Velocity (0 - 127): 64
0    |  MIDI Event: Chan 1 Note OFF: D4, Velocity (0 - 127): 64
0    |  MIDI Event: Chan 2 Note OFF: G1, Velocity (0 - 127): 64
0    |  MIDI Event: Chan 5 Note OFF: G2, Velocity (0 - 127): 64
0    |  MIDI Event: Chan 1 Note OFF: G4, Velocity (0 - 127): 64
1    |  MIDI Event: Chan 1 Note ON: F#3, Velocity (0 - 127): 35
0    |  MIDI Event: Chan 1 Note ON: A3, Velocity (0 - 127): 85
0    |  MIDI Event: Chan 1 Note ON: D4, Velocity (0 - 127): 79
0    |  MIDI Event: Chan 2 Note ON: D2, Velocity (0 - 127): 100
0    |  MIDI Event: Chan 4 Note ON: D3, Velocity (0 - 127): 119
0    |  MIDI Event: Chan 5 Note ON: A2, Velocity (0 - 127): 90
0    |  MIDI Event: Chan 5 Note ON: D3, Velocity (0 - 127): 105
0    |  MIDI Event: Chan 10 Note ON: B1, Velocity (0 - 127): 120
0    |  Meta Event: Lyric: lost 
0    |  Meta Event: Lyric: 
29   |  MIDI Event: Chan 10 Note OFF: B1, Velocity (0 - 127): 64
30   |  MIDI Event: Chan 5 Note OFF: D3, Velocity (0 - 127): 64
0    |  MIDI Event: Chan 1 Note OFF: D4, Velocity (0 - 127): 64
0    |  MIDI Event: Chan 1 Note OFF: A3, Velocity (0 - 127): 64
0    |  MIDI Event: Chan 1 Note OFF: F#3, Velocity (0 - 127): 64
0    |  MIDI Event: Chan 5 Note OFF: A2, Velocity (0 - 127): 64
1    |  MIDI Event: Chan 1 Note ON: A3, Velocity (0 - 127): 69
0    |  MIDI Event: Chan 1 Note ON: D4, Velocity (0 - 127): 98
0    |  MIDI Event: Chan 1 Note ON: F#4, Velocity (0 - 127): 74
0    |  MIDI Event: Chan 5 Note ON: A2, Velocity (0 - 127): 100
0    |  MIDI Event: Chan 5 Note ON: D3, Velocity (0 - 127): 111
0    |  MIDI Event: Chan 5 Note ON: F#3, Velocity (0 - 127): 89
0    |  MIDI Event: Chan 10 Note ON: D#2, Velocity (0 - 127): 120
29   |  MIDI Event: Chan 10 Note OFF: D#2, Velocity (0 - 127): 64
30   |  MIDI Event: Chan 2 Note OFF: D2, Velocity (0 - 127): 64
1    |  MIDI Event: Chan 2 Note ON: D2, Velocity (0 - 127): 100
0    |  MIDI Event: Chan 10 Note ON: B1, Velocity (0 - 127): 120
29   |  MIDI Event: Chan 10 Note OFF: B1, Velocity (0 - 127): 64
0    |  MIDI Event: Chan 1 Note OFF: F#4, Velocity (0 - 127): 64
0    |  MIDI Event: Chan 5 Note OFF: F#3, Velocity (0 - 127): 64
0    |  MIDI Event: Chan 5 Note OFF: A2, Velocity (0 - 127): 64
0    |  MIDI Event: Chan 1 Note OFF: A3, Velocity (0 - 127): 64
0    |  MIDI Event: Chan 1 Note OFF: D4, Velocity (0 - 127): 64
0    |  MIDI Event: Chan 5 Note OFF: D3, Velocity (0 - 127): 64
1    |  MIDI Event: Chan 1 Note ON: F#3, Velocity (0 - 127): 44
0    |  MIDI Event: Chan 1 Note ON: A3, Velocity (0 - 127): 78
0    |  MIDI Event: Chan 1 Note ON: D4, Velocity (0 - 127): 58
0    |  MIDI Event: Chan 5 Note ON: A2, Velocity (0 - 127): 85
0    |  MIDI Event: Chan 5 Note ON: D3, Velocity (0 - 127): 105
0    |  MIDI Event: Chan 5 Note ON: F#3, Velocity (0 - 127): 81
29   |  MIDI Event: Chan 5 Note OFF: F#3, Velocity (0 - 127): 64
0    |  MIDI Event: Chan 5 Note OFF: D3, Velocity (0 - 127): 64
0    |  MIDI Event: Chan 1 Note OFF: D4, Velocity (0 - 127): 64
0    |  MIDI Event: Chan 1 Note OFF: A3, Velocity (0 - 127): 64
0    |  MIDI Event: Chan 1 Note OFF: F#3, Velocity (0 - 127): 64
0    |  MIDI Event: Chan 5 Note OFF: A2, Velocity (0 - 127): 64
1    |  MIDI Event: Chan 1 Note ON: A3, Velocity (0 - 127): 57
0    |  MIDI Event: Chan 1 Note ON: D4, Velocity (0 - 127): 91
0    |  MIDI Event: Chan 1 Note ON: F#4, Velocity (0 - 127): 77
0    |  MIDI Event: Chan 5 Note ON: D3, Velocity (0 - 127): 109
0    |  MIDI Event: Chan 5 Note ON: F#3, Velocity (0 - 127): 89
0    |  MIDI Event: Chan 5 Note ON: A3, Velocity (0 - 127): 109
0    |  MIDI Event: Chan 10 Note ON: D#2, Velocity (0 - 127): 120
29   |  MIDI Event: Chan 10 Note OFF: D#2, Velocity (0 - 127): 64
0    |  MIDI Event: Chan 1 Note OFF: D4, Velocity (0 - 127): 64
0    |  MIDI Event: Chan 5 Note OFF: A3, Velocity (0 - 127): 64
0    |  MIDI Event: Chan 1 Note OFF: F#4, Velocity (0 - 127): 64
0    |  MIDI Event: Chan 4 Note OFF: D3, Velocity (0 - 127): 64
0    |  MIDI Event: Chan 1 Note OFF: A3, Velocity (0 - 127): 64
0    |  MIDI Event: Chan 5 Note OFF: F#3, Velocity (0 - 127): 64
0    |  MIDI Event: Chan 5 Note OFF: D3, Velocity (0 - 127): 64
1    |  MIDI Event: Chan 1 Note ON: F#3, Velocity (0 - 127): 35
0    |  MIDI Event: Chan 1 Note ON: A3, Velocity (0 - 127): 79
0    |  MIDI Event: Chan 1 Note ON: D4, Velocity (0 - 127): 56
0    |  MIDI Event: Chan 5 Note ON: D3, Velocity (0 - 127): 111
0    |  MIDI Event: Chan 5 Note ON: F#3, Velocity (0 - 127): 100
0    |  MIDI Event: Chan 5 Note ON: A3, Velocity (0 - 127): 100
29   |  MIDI Event: Chan 5 Note OFF: A3, Velocity (0 - 127): 64
0    |  MIDI Event: Chan 5 Note OFF: D3, Velocity (0 - 127): 64
0    |  MIDI Event: Chan 1 Note OFF: F#3, Velocity (0 - 127): 64
0    |  MIDI Event: Chan 1 Note OFF: A3, Velocity (0 - 127): 64
0    |  MIDI Event: Chan 2 Note OFF: D2, Velocity (0 - 127): 64
0    |  MIDI Event: Chan 5 Note OFF: F#3, Velocity (0 - 127): 64
0    |  MIDI Event: Chan 1 Note OFF: D4, Velocity (0 - 127): 64
1    |  MIDI Event: Chan 1 Note ON: F#3, Velocity (0 - 127): 49
0    |  MIDI Event: Chan 1 Note ON: A3, Velocity (0 - 127): 85
0    |  MIDI Event: Chan 1 Note ON: D4, Velocity (0 - 127): 75
0    |  MIDI Event: Chan 2 Note ON: D2, Velocity (0 - 127): 100
0    |  MIDI Event: Chan 5 Note ON: A2, Velocity (0 - 127): 105
0    |  MIDI Event: Chan 5 Note ON: D3, Velocity (0 - 127): 116
0    |  MIDI Event: Chan 10 Note ON: B1, Velocity (0 - 127): 119
29   |  MIDI Event: Chan 10 Note OFF: B1, Velocity (0 - 127): 64
30   |  MIDI Event: Chan 5 Note OFF: A2, Velocity (0 - 127): 64
0    |  MIDI Event: Chan 1 Note OFF: A3, Velocity (0 - 127): 64
0    |  MIDI Event: Chan 1 Note OFF: F#3, Velocity (0 - 127): 64
0    |  MIDI Event: Chan 1 Note OFF: D4, Velocity (0 - 127): 64
0    |  MIDI Event: Chan 5 Note OFF: D3, Velocity (0 - 127): 64
1    |  MIDI Event: Chan 1 Note ON: A3, Velocity (0 - 127): 56
0    |  MIDI Event: Chan 1 Note ON: D4, Velocity (0 - 127): 84
0    |  MIDI Event: Chan 1 Note ON: F#4, Velocity (0 - 127): 49
0    |  MIDI Event: Chan 4 Note ON: B3, Velocity (0 - 127): 111
0    |  MIDI Event: Chan 5 Note ON: D3, Velocity (0 - 127): 105
0    |  MIDI Event: Chan 5 Note ON: F#3, Velocity (0 - 127): 115
0    |  MIDI Event: Chan 10 Note ON: D#2, Velocity (0 - 127): 120
0    |  Meta Event: Lyric: So 
29   |  MIDI Event: Chan 10 Note OFF: D#2, Velocity (0 - 127): 64
0    |  MIDI Event: Chan 5 Note OFF: F#3, Velocity (0 - 127): 64
0    |  MIDI Event: Chan 4 Note OFF: B3, Velocity (0 - 127): 64
0    |  MIDI Event: Chan 1 Note OFF: A3, Velocity (0 - 127): 64
0    |  MIDI Event: Chan 1 Note OFF: D4, Velocity (0 - 127): 64
0    |  MIDI Event: Chan 1 Note OFF: F#4, Velocity (0 - 127): 64
0    |  MIDI Event: Chan 5 Note OFF: D3, Velocity (0 - 127): 64
1    |  MIDI Event: Chan 1 Note ON: A3, Velocity (0 - 127): 84
0    |  MIDI Event: Chan 1 Note ON: D4, Velocity (0 - 127): 94
0    |  MIDI Event: Chan 1 Note ON: F#4, Velocity (0 - 127): 76
0    |  MIDI Event: Chan 5 Note ON: D3, Velocity (0 - 127): 100
0    |  MIDI Event: Chan 5 Note ON: F#3, Velocity (0 - 127): 92
29   |  MIDI Event: Chan 5 Note OFF: F#3, Velocity (0 - 127): 64
0    |  MIDI Event: Chan 1 Note OFF: A3, Velocity (0 - 127): 64
0    |  MIDI Event: Chan 1 Note OFF: D4, Velocity (0 - 127): 64
0    |  MIDI Event: Chan 2 Note OFF: D2, Velocity (0 - 127): 64
0    |  MIDI Event: Chan 5 Note OFF: D3, Velocity (0 - 127): 64
0    |  MIDI Event: Chan 1 Note OFF: F#4, Velocity (0 - 127): 64
1    |  MIDI Event: Chan 1 Note ON: E3, Velocity (0 - 127): 47
0    |  MIDI Event: Chan 1 Note ON: A3, Velocity (0 - 127): 89
0    |  MIDI Event: Chan 1 Note ON: C#4, Velocity (0 - 127): 52
0    |  MIDI Event: Chan 2 Note ON: F#1, Velocity (0 - 127): 100
0    |  MIDI Event: Chan 4 Note ON: B3, Velocity (0 - 127): 111
0    |  MIDI Event: Chan 5 Note ON: A2, Velocity (0 - 127): 101
0    |  MIDI Event: Chan 5 Note ON: E3, Velocity (0 - 127): 101
0    |  MIDI Event: Chan 10 Note ON: B1, Velocity (0 - 127): 120
0    |  Meta Event: Lyric: wake 
29   |  MIDI Event: Chan 10 Note OFF: B1, Velocity (0 - 127): 64
0    |  MIDI Event: Chan 4 Note OFF: B3, Velocity (0 - 127): 64
30   |  MIDI Event: Chan 5 Note OFF: A2, Velocity (0 - 127): 64
0    |  MIDI Event: Chan 1 Note OFF: A3, Velocity (0 - 127): 64
0    |  MIDI Event: Chan 1 Note OFF: E3, Velocity (0 - 127): 64
0    |  MIDI Event: Chan 1 Note OFF: C#4, Velocity (0 - 127): 64
0    |  MIDI Event: Chan 5 Note OFF: E3, Velocity (0 - 127): 64
1    |  MIDI Event: Chan 1 Note ON: A3, Velocity (0 - 127): 51
0    |  MIDI Event: Chan 1 Note ON: C#4, Velocity (0 - 127): 52
0    |  MIDI Event: Chan 1 Note ON: E4, Velocity (0 - 127): 78
0    |  MIDI Event: Chan 4 Note ON: C#4, Velocity (0 - 127): 119
0    |  MIDI Event: Chan 5 Note ON: C#3, Velocity (0 - 127): 89
0    |  MIDI Event: Chan 5 Note ON: E3, Velocity (0 - 127): 101
0    |  MIDI Event: Chan 5 Note ON: A3, Velocity (0 - 127): 89
0    |  MIDI Event: Chan 10 Note ON: D#2, Velocity (0 - 127): 120
0    |  Meta Event: Lyric: me 
29   |  MIDI Event: Chan 10 Note OFF: D#2, Velocity (0 - 127): 64
0    |  MIDI Event: Chan 1 Note OFF: E4, Velocity (0 - 127): 64
0    |  MIDI Event: Chan 5 Note OFF: A3, Velocity (0 - 127): 64
0    |  MIDI Event: Chan 4 Note OFF: C#4, Velocity (0 - 127): 64
0    |  MIDI Event: Chan 1 Note OFF: A3, Velocity (0 - 127): 64
0    |  MIDI Event: Chan 1 Note OFF: C#4, Velocity (0 - 127): 64
0    |  MIDI Event: Chan 5 Note OFF: E3, Velocity (0 - 127): 64
0    |  MIDI Event: Chan 5 Note OFF: C#3, Velocity (0 - 127): 64
1    |  MIDI Event: Chan 1 Note ON: A3, Velocity (0 - 127): 73
0    |  MIDI Event: Chan 1 Note ON: C#4, Velocity (0 - 127): 52
0    |  MIDI Event: Chan 1 Note ON: E4, Velocity (0 - 127): 83
0    |  MIDI Event: Chan 5 Note ON: C#3, Velocity (0 - 127): 119
0    |  MIDI Event: Chan 5 Note ON: E3, Velocity (0 - 127): 118
0    |  MIDI Event: Chan 5 Note ON: A3, Velocity (0 - 127): 105
29   |  MIDI Event: Chan 5 Note OFF: A3, Velocity (0 - 127): 64
0    |  MIDI Event: Chan 5 Note OFF: C#3, Velocity (0 - 127): 64
0    |  MIDI Event: Chan 1 Note OFF: A3, Velocity (0 - 127): 64
0    |  MIDI Event: Chan 1 Note OFF: C#4, Velocity (0 - 127): 64
0    |  MIDI Event: Chan 2 Note OFF: F#1, Velocity (0 - 127): 64
0    |  MIDI Event: Chan 5 Note OFF: E3, Velocity (0 - 127): 64
0    |  MIDI Event: Chan 1 Note OFF: E4, Velocity (0 - 127): 64
1    |  MIDI Event: Chan 1 Note ON: B3, Velocity (0 - 127): 58
0    |  MIDI Event: Chan 1 Note ON: D4, Velocity (0 - 127): 91
0    |  MIDI Event: Chan 2 Note ON: B1, Velocity (0 - 127): 100
0    |  MIDI Event: Chan 3 Note ON: B2, Velocity (0 - 127): 120
0    |  MIDI Event: Chan 4 Note ON: D4, Velocity (0 - 127): 120
0    |  MIDI Event: Chan 5 Note ON: B2, Velocity (0 - 127): 85
0    |  MIDI Event: Chan 5 Note ON: F#3, Velocity (0 - 127): 120
0    |  MIDI Event: Chan 10 Note ON: B1, Velocity (0 - 127): 120
0    |  Meta Event: Lyric: up 
29   |  MIDI Event: Chan 10 Note OFF: B1, Velocity (0 - 127): 64
30   |  MIDI Event: Chan 5 Note OFF: F#3, Velocity (0 - 127): 64
0    |  MIDI Event: Chan 1 Note OFF: D4, Velocity (0 - 127): 64
0    |  MIDI Event: Chan 1 Note OFF: B3, Velocity (0 - 127): 64
0    |  MIDI Event: Chan 5 Note OFF: B2, Velocity (0 - 127): 64
1    |  MIDI Event: Chan 1 Note ON: B3, Velocity (0 - 127): 79
0    |  MIDI Event: Chan 1 Note ON: D4, Velocity (0 - 127): 95
0    |  MIDI Event: Chan 1 Note ON: F#4, Velocity (0 - 127): 74
0    |  MIDI Event: Chan 5 Note ON: D3, Velocity (0 - 127): 92
0    |  MIDI Event: Chan 5 Note ON: F#3, Velocity (0 - 127): 87
0    |  MIDI Event: Chan 5 Note ON: D4, Velocity (0 - 127): 95
0    |  MIDI Event: Chan 10 Note ON: D#2, Velocity (0 - 127): 120
29   |  MIDI Event: Chan 10 Note OFF: D#2, Velocity (0 - 127): 64
30   |  MIDI Event: Chan 2 Note OFF: B1, Velocity (0 - 127): 64
0    |  MIDI Event: Chan 4 Note OFF: D4, Velocity (0 - 127): 64
1    |  MIDI Event: Chan 2 Note ON: B1, Velocity (0 - 127): 100
0    |  MIDI Event: Chan 4 Note ON: C#4, Velocity (0 - 127): 120
0    |  MIDI Event: Chan 10 Note ON: B1, Velocity (0 - 127): 120
0    |  Meta Event: Lyric: when 
29   |  MIDI Event: Chan 10 Note OFF: B1, Velocity (0 - 127): 64
0    |  MIDI Event: Chan 5 Note OFF: D4, Velocity (0 - 127): 64
0    |  MIDI Event: Chan 1 Note OFF: B3, Velocity (0 - 127): 64
0    |  MIDI Event: Chan 5 Note OFF: F#3, Velocity (0 - 127): 64
0    |  MIDI Event: Chan 5 Note OFF: D3, Velocity (0 - 127): 64
0    |  MIDI Event: Chan 1 Note OFF: F#4, Velocity (0 - 127): 64
0    |  MIDI Event: Chan 1 Note OFF: D4, Velocity (0 - 127): 64
1    |  MIDI Event: Chan 1 Note ON: B3, Velocity (0 - 127): 71
0    |  MIDI Event: Chan 1 Note ON: D4, Velocity (0 - 127): 91
0    |  MIDI Event: Chan 1 Note ON: F#4, Velocity (0 - 127): 60
0    |  MIDI Event: Chan 5 Note ON: F#3, Velocity (0 - 127): 109
0    |  MIDI Event: Chan 5 Note ON: B3, Velocity (0 - 127): 95
29   |  MIDI Event: Chan 5 Note OFF: B3, Velocity (0 - 127): 64
0    |  MIDI Event: Chan 5 Note OFF: F#3, Velocity (0 - 127): 64
0    |  MIDI Event: Chan 1 Note OFF: D4, Velocity (0 - 127): 64
0    |  MIDI Event: Chan 1 Note OFF: B3, Velocity (0 - 127): 64
0    |  MIDI Event: Chan 1 Note OFF: F#4, Velocity (0 - 127): 64
1    |  MIDI Event: Chan 1 Note ON: D4, Velocity (0 - 127): 80
0    |  MIDI Event: Chan 1 Note ON: F#4, Velocity (0 - 127): 62
0    |  MIDI Event: Chan 1 Note ON: B4, Velocity (0 - 127): 91
0    |  MIDI Event: Chan 5 Note ON: D3, Velocity (0 - 127): 103
0    |  MIDI Event: Chan 5 Note ON: F#3, Velocity (0 - 127): 115
0    |  MIDI Event: Chan 10 Note ON: D#2, Velocity (0 - 127): 120
29   |  MIDI Event: Chan 10 Note OFF: D#2, Velocity (0 - 127): 64
0    |  MIDI Event: Chan 1 Note OFF: D4, Velocity (0 - 127): 64
0    |  MIDI Event: Chan 5 Note OFF: F#3, Velocity (0 - 127): 64
0    |  MIDI Event: Chan 1 Note OFF: F#4, Velocity (0 - 127): 64
0    |  MIDI Event: Chan 5 Note OFF: D3, Velocity (0 - 127): 64
0    |  MIDI Event: Chan 4 Note OFF: C#4, Velocity (0 - 127): 64
0    |  MIDI Event: Chan 1 Note OFF: B4, Velocity (0 - 127): 64
1    |  MIDI Event: Chan 1 Note ON: B3, Velocity (0 - 127): 51
0    |  MIDI Event: Chan 1 Note ON: D4, Velocity (0 - 127): 85
0    |  MIDI Event: Chan 1 Note ON: F#4, Velocity (0 - 127): 59
0    |  MIDI Event: Chan 5 Note ON: B2, Velocity (0 - 127): 92
0    |  MIDI Event: Chan 5 Note ON: E3, Velocity (0 - 127): 98
29   |  MIDI Event: Chan 5 Note OFF: E3, Velocity (0 - 127): 64
0    |  MIDI Event: Chan 1 Note OFF: F#4, Velocity (0 - 127): 64
0    |  MIDI Event: Chan 3 Note OFF: B2, Velocity (0 - 127): 64
0    |  MIDI Event: Chan 1 Note OFF: B3, Velocity (0 - 127): 64
0    |  MIDI Event: Chan 2 Note OFF: B1, Velocity (0 - 127): 64
0    |  MIDI Event: Chan 5 Note OFF: B2, Velocity (0 - 127): 64
0    |  MIDI Event: Chan 1 Note OFF: D4, Velocity (0 - 127): 64
1    |  MIDI Event: Chan 1 Note ON: G3, Velocity (0 - 127): 74
0    |  MIDI Event: Chan 1 Note ON: B3, Velocity (0 - 127): 94
0    |  MIDI Event: Chan 1 Note ON: D4, Velocity (0 - 127): 91
0    |  MIDI Event: Chan 2 Note ON: G1, Velocity (0 - 127): 100
0    |  MIDI Event: Chan 3 Note ON: G2, Velocity (0 - 127): 120
0    |  MIDI Event: Chan 4 Note ON: B3, Velocity (0 - 127): 118
0    |  MIDI Event: Chan 5 Note ON: G2, Velocity (0 - 127): 98
0    |  MIDI Event: Chan 5 Note ON: D3, Velocity (0 - 127): 116
0    |  MIDI Event: Chan 10 Note ON: B1, Velocity (0 - 127): 120
0    |  Meta Event: Lyric: it's 
29   |  MIDI Event: Chan 10 Note OFF: B1, Velocity (0 - 127): 64
30   |  MIDI Event: Chan 1 Note OFF: G3, Velocity (0 - 127): 64
0    |  MIDI Event: Chan 5 Note OFF: D3, Velocity (0 - 127): 64
0    |  MIDI Event: Chan 1 Note OFF: B3, Velocity (0 - 127): 64
0    |  MIDI Event: Chan 5 Note OFF: G2, Velocity (0 - 127): 64
0    |  MIDI Event: Chan 1 Note OFF: D4, Velocity (0 - 127): 64
1    |  MIDI Event: Chan 1 Note ON: B3, Velocity (0 - 127): 70
0    |  MIDI Event: Chan 1 Note ON: D4, Velocity (0 - 127): 94
0    |  MIDI Event: Chan 1 Note ON: G4, Velocity (0 - 127): 101
0    |  MIDI Event: Chan 5 Note ON: D3, Velocity (0 - 127): 79
0    |  MIDI Event: Chan 5 Note ON: G3, Velocity (0 - 127): 111
0    |  MIDI Event: Chan 5 Note ON: B3, Velocity (0 - 127): 100
0    |  MIDI Event: Chan 10 Note ON: D#2, Velocity (0 - 127): 120
29   |  MIDI Event: Chan 10 Note OFF: D#2, Velocity (0 - 127): 64
0    |  MIDI Event: Chan 4 Note OFF: B3, Velocity (0 - 127): 64
30   |  MIDI Event: Chan 2 Note OFF: G1, Velocity (0 - 127): 64
1    |  MIDI Event: Chan 2 Note ON: G1, Velocity (0 - 127): 100
0    |  MIDI Event: Chan 4 Note ON: A3, Velocity (0 - 127): 116
0    |  MIDI Event: Chan 10 Note ON: B1, Velocity (0 - 127): 120
0    |  Meta Event: Lyric: all 
29   |  MIDI Event: Chan 10 Note OFF: B1, Velocity (0 - 127): 64
0    |  MIDI Event: Chan 1 Note OFF: D4, Velocity (0 - 127): 64
0    |  MIDI Event: Chan 1 Note OFF: B3, Velocity (0 - 127): 64
0    |  MIDI Event: Chan 5 Note OFF: B3, Velocity (0 - 127): 64
0    |  MIDI Event: Chan 1 Note OFF: G4, Velocity (0 - 127): 64
0    |  MIDI Event: Chan 5 Note OFF: G3, Velocity (0 - 127): 64
0    |  MIDI Event: Chan 5 Note OFF: D3, Velocity (0 - 127): 64
1    |  MIDI Event: Chan 1 Note ON: B3, Velocity (0 - 127): 52
0    |  MIDI Event: Chan 1 Note ON: D4, Velocity (0 - 127): 85
0    |  MIDI Event: Chan 1 Note ON: G4, Velocity (0 - 127): 94
0    |  MIDI Event: Chan 5 Note ON: D3, Velocity (0 - 127): 82
0    |  MIDI Event: Chan 5 Note ON: G3, Velocity (0 - 127): 98
0    |  MIDI Event: Chan 5 Note ON: B3, Velocity (0 - 127): 85
29   |  MIDI Event: Chan 5 Note OFF: B3, Velocity (0 - 127): 64
0    |  MIDI Event: Chan 1 Note OFF: B3, Velocity (0 - 127): 64
0    |  MIDI Event: Chan 5 Note OFF: G3, Velocity (0 - 127): 64
0    |  MIDI Event: Chan 1 Note OFF: D4, Velocity (0 - 127): 64
0    |  MIDI Event: Chan 5 Note OFF: D3, Velocity (0 - 127): 64
0    |  MIDI Event: Chan 4 Note OFF: A3, Velocity (0 - 127): 64
0    |  MIDI Event: Chan 1 Note OFF: G4, Velocity (0 - 127): 64
1    |  MIDI Event: Chan 1 Note ON: D4, Velocity (0 - 127): 78
0    |  MIDI Event: Chan 1 Note ON: G4, Velocity (0 - 127): 100
0    |  MIDI Event: Chan 1 Note ON: B4, Velocity (0 - 127): 46
0    |  MIDI Event: Chan 5 Note ON: G2, Velocity (0 - 127): 109
0    |  MIDI Event: Chan 5 Note ON: D3, Velocity (0 - 127): 109
0    |  MIDI Event: Chan 10 Note ON: D#2, Velocity (0 - 127): 120
29   |  MIDI Event: Chan 10 Note OFF: D#2, Velocity (0 - 127): 64
0    |  MIDI Event: Chan 5 Note OFF: D3, Velocity (0 - 127): 64
0    |  MIDI Event: Chan 1 Note OFF: B4, Velocity (0 - 127): 64
0    |  MIDI Event: Chan 1 Note OFF: G4, Velocity (0 - 127): 64
0    |  MIDI Event: Chan 1 Note OFF: D4, Velocity (0 - 127): 64
0    |  MIDI Event: Chan 5 Note OFF: G2, Velocity (0 - 127): 64
1    |  MIDI Event: Chan 1 Note ON: B3, Velocity (0 - 127): 45
0    |  MIDI Event: Chan 1 Note ON: D4, Velocity (0 - 127): 73
0    |  MIDI Event: Chan 1 Note ON: G4, Velocity (0 - 127): 86
0    |  MIDI Event: Chan 4 Note ON: A3, Velocity (0 - 127): 116
0    |  MIDI Event: Chan 5 Note ON: G2, Velocity (0 - 127): 101
0    |  MIDI Event: Chan 5 Note ON: E3, Velocity (0 - 127): 116
0    |  Meta Event: Lyric: o
29   |  MIDI Event: Chan 5 Note OFF: E3, Velocity (0 - 127): 64
0    |  MIDI Event: Chan 3 Note OFF: G2, Velocity (0 - 127): 64
0    |  MIDI Event: Chan 2 Note OFF: G1, Velocity (0 - 127): 64
0    |  MIDI Event: Chan 5 Note OFF: G2, Velocity (0 - 127): 64
0    |  MIDI Event: Chan 1 Note OFF: B3, Velocity (0 - 127): 64
0    |  MIDI Event: Chan 1 Note OFF: D4, Velocity (0 - 127): 64
0    |  MIDI Event: Chan 1 Note OFF: G4, Velocity (0 - 127): 64
1    |  MIDI Event: Chan 1 Note ON: F#3, Velocity (0 - 127): 35
0    |  MIDI Event: Chan 1 Note ON: A3, Velocity (0 - 127): 85
0    |  MIDI Event: Chan 1 Note ON: D4, Velocity (0 - 127): 79
0    |  MIDI Event: Chan 2 Note ON: D2, Velocity (0 - 127): 100
0    |  MIDI Event: Chan 3 Note ON: D2, Velocity (0 - 127): 120
0    |  MIDI Event: Chan 5 Note ON: A2, Velocity (0 - 127): 90
0    |  MIDI Event: Chan 5 Note ON: D3, Velocity (0 - 127): 105
0    |  MIDI Event: Chan 10 Note ON: B1, Velocity (0 - 127): 120
29   |  MIDI Event: Chan 10 Note OFF: B1, Velocity (0 - 127): 64
0    |  MIDI Event: Chan 4 Note OFF: A3, Velocity (0 - 127): 64
30   |  MIDI Event: Chan 1 Note OFF: F#3, Velocity (0 - 127): 64
0    |  MIDI Event: Chan 1 Note OFF: A3, Velocity (0 - 127): 64
0    |  MIDI Event: Chan 1 Note OFF: D4, Velocity (0 - 127): 64
0    |  MIDI Event: Chan 5 Note OFF: D3, Velocity (0 - 127): 64
0    |  MIDI Event: Chan 5 Note OFF: A2, Velocity (0 - 127): 64
1    |  MIDI Event: Chan 1 Note ON: A3, Velocity (0 - 127): 69
0    |  MIDI Event: Chan 1 Note ON: D4, Velocity (0 - 127): 98
0    |  MIDI Event: Chan 1 Note ON: F#4, Velocity (0 - 127): 74
0    |  MIDI Event: Chan 4 Note ON: D3, Velocity (0 - 127): 120
0    |  MIDI Event: Chan 5 Note ON: A2, Velocity (0 - 127): 100
0    |  MIDI Event: Chan 5 Note ON: D3, Velocity (0 - 127): 111
0    |  MIDI Event: Chan 5 Note ON: F#3, Velocity (0 - 127): 89
0    |  MIDI Event: Chan 10 Note ON: D#2, Velocity (0 - 127): 119
0    |  Meta Event: Lyric: ver 
0    |  Meta Event: Lyric: 
29   |  MIDI Event: Chan 10 Note OFF: D#2, Velocity (0 - 127): 64
0    |  MIDI Event: Chan 4 Note OFF: D3, Velocity (0 - 127): 64
30   |  MIDI Event: Chan 2 Note OFF: D2, Velocity (0 - 127): 64
1    |  MIDI Event: Chan 2 Note ON: D2, Velocity (0 - 127): 100
0    |  MIDI Event: Chan 10 Note ON: B1, Velocity (0 - 127): 120
29   |  MIDI Event: Chan 10 Note OFF: B1, Velocity (0 - 127): 64
0    |  MIDI Event: Chan 1 Note OFF: D4, Velocity (0 - 127): 64
0    |  MIDI Event: Chan 5 Note OFF: D3, Velocity (0 - 127): 64
0    |  MIDI Event: Chan 5 Note OFF: A2, Velocity (0 - 127): 64
0    |  MIDI Event: Chan 1 Note OFF: A3, Velocity (0 - 127): 64
0    |  MIDI Event: Chan 5 Note OFF: F#3, Velocity (0 - 127): 64
0    |  MIDI Event: Chan 1 Note OFF: F#4, Velocity (0 - 127): 64
1    |  MIDI Event: Chan 1 Note ON: F#3, Velocity (0 - 127): 44
0    |  MIDI Event: Chan 1 Note ON: A3, Velocity (0 - 127): 78
0    |  MIDI Event: Chan 1 Note ON: D4, Velocity (0 - 127): 58
0    |  MIDI Event: Chan 5 Note ON: A2, Velocity (0 - 127): 85
0    |  MIDI Event: Chan 5 Note ON: D3, Velocity (0 - 127): 105
0    |  MIDI Event: Chan 5 Note ON: F#3, Velocity (0 - 127): 81
29   |  MIDI Event: Chan 5 Note OFF: F#3, Velocity (0 - 127): 64
0    |  MIDI Event: Chan 5 Note OFF: D3, Velocity (0 - 127): 64
0    |  MIDI Event: Chan 1 Note OFF: D4, Velocity (0 - 127): 64
0    |  MIDI Event: Chan 1 Note OFF: A3, Velocity (0 - 127): 64
0    |  MIDI Event: Chan 1 Note OFF: F#3, Velocity (0 - 127): 64
0    |  MIDI Event: Chan 5 Note OFF: A2, Velocity (0 - 127): 64
1    |  MIDI Event: Chan 1 Note ON: A3, Velocity (0 - 127): 57
0    |  MIDI Event: Chan 1 Note ON: D4, Velocity (0 - 127): 91
0    |  MIDI Event: Chan 1 Note ON: F#4, Velocity (0 - 127): 77
0    |  MIDI Event: Chan 5 Note ON: D3, Velocity (0 - 127): 109
0    |  MIDI Event: Chan 5 Note ON: F#3, Velocity (0 - 127): 89
0    |  MIDI Event: Chan 5 Note ON: A3, Velocity (0 - 127): 109
0    |  MIDI Event: Chan 10 Note ON: D#2, Velocity (0 - 127): 120
29   |  MIDI Event: Chan 10 Note OFF: D#2, Velocity (0 - 127): 64
0    |  MIDI Event: Chan 1 Note OFF: D4, Velocity (0 - 127): 64
0    |  MIDI Event: Chan 5 Note OFF: A3, Velocity (0 - 127): 64
0    |  MIDI Event: Chan 1 Note OFF: F#4, Velocity (0 - 127): 64
0    |  MIDI Event: Chan 5 Note OFF: F#3, Velocity (0 - 127): 64
0    |  MIDI Event: Chan 1 Note OFF: A3, Velocity (0 - 127): 64
0    |  MIDI Event: Chan 5 Note OFF: D3, Velocity (0 - 127): 64
1    |  MIDI Event: Chan 1 Note ON: F#3, Velocity (0 - 127): 35
0    |  MIDI Event: Chan 1 Note ON: A3, Velocity (0 - 127): 79
0    |  MIDI Event: Chan 1 Note ON: D4, Velocity (0 - 127): 56
0    |  MIDI Event: Chan 5 Note ON: D3, Velocity (0 - 127): 111
0    |  MIDI Event: Chan 5 Note ON: F#3, Velocity (0 - 127): 100
0    |  MIDI Event: Chan 5 Note ON: A3, Velocity (0 - 127): 100
29   |  MIDI Event: Chan 5 Note OFF: A3, Velocity (0 - 127): 64
0    |  MIDI Event: Chan 5 Note OFF: F#3, Velocity (0 - 127): 64
0    |  MIDI Event: Chan 1 Note OFF: D4, Velocity (0 - 127): 64
0    |  MIDI Event: Chan 2 Note OFF: D2, Velocity (0 - 127): 64
0    |  MIDI Event: Chan 1 Note OFF: F#3, Velocity (0 - 127): 64
0    |  MIDI Event: Chan 1 Note OFF: A3, Velocity (0 - 127): 64
0    |  MIDI Event: Chan 5 Note OFF: D3, Velocity (0 - 127): 64
1    |  MIDI Event: Chan 1 Note ON: F#3, Velocity (0 - 127): 49
0    |  MIDI Event: Chan 1 Note ON: A3, Velocity (0 - 127): 85
0    |  MIDI Event: Chan 1 Note ON: D4, Velocity (0 - 127): 75
0    |  MIDI Event: Chan 2 Note ON: D2, Velocity (0 - 127): 100
0    |  MIDI Event: Chan 5 Note ON: A2, Velocity (0 - 127): 105
0    |  MIDI Event: Chan 5 Note ON: D3, Velocity (0 - 127): 116
0    |  MIDI Event: Chan 10 Note ON: B1, Velocity (0 - 127): 120
29   |  MIDI Event: Chan 10 Note OFF: B1, Velocity (0 - 127): 64
30   |  MIDI Event: Chan 5 Note OFF: D3, Velocity (0 - 127): 64
0    |  MIDI Event: Chan 1 Note OFF: D4, Velocity (0 - 127): 64
0    |  MIDI Event: Chan 1 Note OFF: F#3, Velocity (0 - 127): 64
0    |  MIDI Event: Chan 1 Note OFF: A3, Velocity (0 - 127): 64
0    |  MIDI Event: Chan 5 Note OFF: A2, Velocity (0 - 127): 64
1    |  MIDI Event: Chan 1 Note ON: A3, Velocity (0 - 127): 56
0    |  MIDI Event: Chan 1 Note ON: D4, Velocity (0 - 127): 84
0    |  MIDI Event: Chan 1 Note ON: F#4, Velocity (0 - 127): 49
0    |  MIDI Event: Chan 5 Note ON: D3, Velocity (0 - 127): 105
0    |  MIDI Event: Chan 5 Note ON: F#3, Velocity (0 - 127): 115
0    |  MIDI Event: Chan 10 Note ON: D#2, Velocity (0 - 127): 115
29   |  MIDI Event: Chan 10 Note OFF: D#2, Velocity (0 - 127): 64
0    |  MIDI Event: Chan 5 Note OFF: F#3, Velocity (0 - 127): 64
0    |  MIDI Event: Chan 1 Note OFF: F#4, Velocity (0 - 127): 64
0    |  MIDI Event: Chan 1 Note OFF: D4, Velocity (0 - 127): 64
0    |  MIDI Event: Chan 1 Note OFF: A3, Velocity (0 - 127): 64
0    |  MIDI Event: Chan 5 Note OFF: D3, Velocity (0 - 127): 64
1    |  MIDI Event: Chan 1 Note ON: A3, Velocity (0 - 127): 84
0    |  MIDI Event: Chan 1 Note ON: D4, Velocity (0 - 127): 94
0    |  MIDI Event: Chan 1 Note ON: F#4, Velocity (0 - 127): 76
0    |  MIDI Event: Chan 5 Note ON: D3, Velocity (0 - 127): 100
0    |  MIDI Event: Chan 5 Note ON: F#3, Velocity (0 - 127): 92
29   |  MIDI Event: Chan 5 Note OFF: F#3, Velocity (0 - 127): 64
0    |  MIDI Event: Chan 1 Note OFF: F#4, Velocity (0 - 127): 64
0    |  MIDI Event: Chan 2 Note OFF: D2, Velocity (0 - 127): 64
0    |  MIDI Event: Chan 1 Note OFF: A3, Velocity (0 - 127): 64
0    |  MIDI Event: Chan 3 Note OFF: D2, Velocity (0 - 127): 64
0    |  MIDI Event: Chan 5 Note OFF: D3, Velocity (0 - 127): 64
0    |  MIDI Event: Chan 1 Note OFF: D4, Velocity (0 - 127): 64
1    |  MIDI Event: Chan 1 Note ON: E3, Velocity (0 - 127): 47
0    |  MIDI Event: Chan 1 Note ON: A3, Velocity (0 - 127): 89
0    |  MIDI Event: Chan 1 Note ON: C#4, Velocity (0 - 127): 52
0    |  MIDI Event: Chan 2 Note ON: A1, Velocity (0 - 127): 100
0    |  MIDI Event: Chan 3 Note ON: A2, Velocity (0 - 127): 120
0    |  MIDI Event: Chan 4 Note ON: B3, Velocity (0 - 127): 119
0    |  MIDI Event: Chan 5 Note ON: A2, Velocity (0 - 127): 101
0    |  MIDI Event: Chan 5 Note ON: E3, Velocity (0 - 127): 101
0    |  MIDI Event: Chan 10 Note ON: B1, Velocity (0 - 127): 120
0    |  Meta Event: Lyric: When 
29   |  MIDI Event: Chan 10 Note OFF: B1, Velocity (0 - 127): 64
30   |  MIDI Event: Chan 1 Note OFF: E3, Velocity (0 - 127): 64
0    |  MIDI Event: Chan 5 Note OFF: E3, Velocity (0 - 127): 64
0    |  MIDI Event: Chan 1 Note OFF: C#4, Velocity (0 - 127): 64
0    |  MIDI Event: Chan 1 Note OFF: A3, Velocity (0 - 127): 64
0    |  MIDI Event: Chan 5 Note OFF: A2, Velocity (0 - 127): 64
0    |  MIDI Event: Chan 4 Note OFF: B3, Velocity (0 - 127): 64
1    |  MIDI Event: Chan 1 Note ON: A3, Velocity (0 - 127): 51
0    |  MIDI Event: Chan 1 Note ON: C#4, Velocity (0 - 127): 52
0    |  MIDI Event: Chan 1 Note ON: E4, Velocity (0 - 127): 78
0    |  MIDI Event: Chan 4 Note ON: C#4, Velocity (0 - 127): 120
0    |  MIDI Event: Chan 5 Note ON: C#3, Velocity (0 - 127): 89
0    |  MIDI Event: Chan 5 Note ON: E3, Velocity (0 - 127): 101
0    |  MIDI Event: Chan 5 Note ON: A3, Velocity (0 - 127): 89
0    |  MIDI Event: Chan 10 Note ON: D#2, Velocity (0 - 127): 119
0    |  Meta Event: Lyric: I'm 
29   |  MIDI Event: Chan 10 Note OFF: D#2, Velocity (0 - 127): 64
0    |  MIDI Event: Chan 1 Note OFF: A3, Velocity (0 - 127): 64
0    |  MIDI Event: Chan 1 Note OFF: C#4, Velocity (0 - 127): 64
0    |  MIDI Event: Chan 5 Note OFF: A3, Velocity (0 - 127): 64
0    |  MIDI Event: Chan 1 Note OFF: E4, Velocity (0 - 127): 64
0    |  MIDI Event: Chan 5 Note OFF: C#3, Velocity (0 - 127): 64
0    |  MIDI Event: Chan 5 Note OFF: E3, Velocity (0 - 127): 64
0    |  MIDI Event: Chan 4 Note OFF: C#4, Velocity (0 - 127): 64
1    |  MIDI Event: Chan 1 Note ON: A3, Velocity (0 - 127): 73
0    |  MIDI Event: Chan 1 Note ON: C#4, Velocity (0 - 127): 52
0    |  MIDI Event: Chan 1 Note ON: E4, Velocity (0 - 127): 83
0    |  MIDI Event: Chan 5 Note ON: C#3, Velocity (0 - 127): 119
0    |  MIDI Event: Chan 5 Note ON: E3, Velocity (0 - 127): 118
0    |  MIDI Event: Chan 5 Note ON: A3, Velocity (0 - 127): 105
29   |  MIDI Event: Chan 5 Note OFF: A3, Velocity (0 - 127): 64
0    |  MIDI Event: Chan 2 Note OFF: A1, Velocity (0 - 127): 64
0    |  MIDI Event: Chan 1 Note OFF: E4, Velocity (0 - 127): 64
0    |  MIDI Event: Chan 3 Note OFF: A2, Velocity (0 - 127): 64
0    |  MIDI Event: Chan 1 Note OFF: A3, Velocity (0 - 127): 64
0    |  MIDI Event: Chan 1 Note OFF: C#4, Velocity (0 - 127): 64
0    |  MIDI Event: Chan 5 Note OFF: C#3, Velocity (0 - 127): 64
0    |  MIDI Event: Chan 5 Note OFF: E3, Velocity (0 - 127): 64
1    |  MIDI Event: Chan 1 Note ON: B3, Velocity (0 - 127): 58
0    |  MIDI Event: Chan 1 Note ON: D4, Velocity (0 - 127): 91
0    |  MIDI Event: Chan 2 Note ON: B1, Velocity (0 - 127): 100
0    |  MIDI Event: Chan 3 Note ON: B2, Velocity (0 - 127): 120
0    |  MIDI Event: Chan 4 Note ON: D4, Velocity (0 - 127): 119
0    |  MIDI Event: Chan 5 Note ON: B2, Velocity (0 - 127): 85
0    |  MIDI Event: Chan 5 Note ON: F#3, Velocity (0 - 127): 120
0    |  MIDI Event: Chan 10 Note ON: B1, Velocity (0 - 127): 120
0    |  Meta Event: Lyric: wi
29   |  MIDI Event: Chan 10 Note OFF: B1, Velocity (0 - 127): 64
30   |  MIDI Event: Chan 5 Note OFF: F#3, Velocity (0 - 127): 64
0    |  MIDI Event: Chan 1 Note OFF: D4, Velocity (0 - 127): 64
0    |  MIDI Event: Chan 1 Note OFF: B3, Velocity (0 - 127): 64
0    |  MIDI Event: Chan 5 Note OFF: B2, Velocity (0 - 127): 64
1    |  MIDI Event: Chan 1 Note ON: B3, Velocity (0 - 127): 79
0    |  MIDI Event: Chan 1 Note ON: D4, Velocity (0 - 127): 95
0    |  MIDI Event: Chan 1 Note ON: F#4, Velocity (0 - 127): 74
0    |  MIDI Event: Chan 5 Note ON: D3, Velocity (0 - 127): 92
0    |  MIDI Event: Chan 5 Note ON: F#3, Velocity (0 - 127): 87
0    |  MIDI Event: Chan 5 Note ON: D4, Velocity (0 - 127): 95
0    |  MIDI Event: Chan 10 Note ON: D#2, Velocity (0 - 127): 119
29   |  MIDI Event: Chan 10 Note OFF: D#2, Velocity (0 - 127): 64
0    |  MIDI Event: Chan 4 Note OFF: D4, Velocity (0 - 127): 64
30   |  MIDI Event: Chan 2 Note OFF: B1, Velocity (0 - 127): 64
1    |  MIDI Event: Chan 2 Note ON: B1, Velocity (0 - 127): 100
0    |  MIDI Event: Chan 4 Note ON: F#4, Velocity (0 - 127): 120
0    |  MIDI Event: Chan 10 Note ON: B1, Velocity (0 - 127): 120
0    |  Meta Event: Lyric: ser 
29   |  MIDI Event: Chan 10 Note OFF: B1, Velocity (0 - 127): 64
0    |  MIDI Event: Chan 5 Note OFF: D4, Velocity (0 - 127): 64
0    |  MIDI Event: Chan 1 Note OFF: B3, Velocity (0 - 127): 64
0    |  MIDI Event: Chan 5 Note OFF: F#3, Velocity (0 - 127): 64
0    |  MIDI Event: Chan 5 Note OFF: D3, Velocity (0 - 127): 64
0    |  MIDI Event: Chan 1 Note OFF: F#4, Velocity (0 - 127): 64
0    |  MIDI Event: Chan 1 Note OFF: D4, Velocity (0 - 127): 64
1    |  MIDI Event: Chan 1 Note ON: B3, Velocity (0 - 127): 71
0    |  MIDI Event: Chan 1 Note ON: D4, Velocity (0 - 127): 91
0    |  MIDI Event: Chan 1 Note ON: F#4, Velocity (0 - 127): 60
0    |  MIDI Event: Chan 5 Note ON: F#3, Velocity (0 - 127): 109
0    |  MIDI Event: Chan 5 Note ON: B3, Velocity (0 - 127): 95
29   |  MIDI Event: Chan 5 Note OFF: B3, Velocity (0 - 127): 64
0    |  MIDI Event: Chan 5 Note OFF: F#3, Velocity (0 - 127): 64
0    |  MIDI Event: Chan 1 Note OFF: D4, Velocity (0 - 127): 64
0    |  MIDI Event: Chan 1 Note OFF: B3, Velocity (0 - 127): 64
0    |  MIDI Event: Chan 1 Note OFF: F#4, Velocity (0 - 127): 64
1    |  MIDI Event: Chan 1 Note ON: D4, Velocity (0 - 127): 80
0    |  MIDI Event: Chan 1 Note ON: F#4, Velocity (0 - 127): 62
0    |  MIDI Event: Chan 1 Note ON: B4, Velocity (0 - 127): 91
0    |  MIDI Event: Chan 5 Note ON: D3, Velocity (0 - 127): 103
0    |  MIDI Event: Chan 5 Note ON: F#3, Velocity (0 - 127): 115
0    |  MIDI Event: Chan 10 Note ON: D#2, Velocity (0 - 127): 120
29   |  MIDI Event: Chan 10 Note OFF: D#2, Velocity (0 - 127): 64
0    |  MIDI Event: Chan 1 Note OFF: D4, Velocity (0 - 127): 64
0    |  MIDI Event: Chan 5 Note OFF: F#3, Velocity (0 - 127): 64
0    |  MIDI Event: Chan 1 Note OFF: F#4, Velocity (0 - 127): 64
0    |  MIDI Event: Chan 5 Note OFF: D3, Velocity (0 - 127): 64
0    |  MIDI Event: Chan 4 Note OFF: F#4, Velocity (0 - 127): 64
0    |  MIDI Event: Chan 1 Note OFF: B4, Velocity (0 - 127): 64
1    |  MIDI Event: Chan 1 Note ON: B3, Velocity (0 - 127): 51
0    |  MIDI Event: Chan 1 Note ON: D4, Velocity (0 - 127): 85
0    |  MIDI Event: Chan 1 Note ON: F#4, Velocity (0 - 127): 59
0    |  MIDI Event: Chan 5 Note ON: B2, Velocity (0 - 127): 92
0    |  MIDI Event: Chan 5 Note ON: E3, Velocity (0 - 127): 98
29   |  MIDI Event: Chan 5 Note OFF: E3, Velocity (0 - 127): 64
0    |  MIDI Event: Chan 1 Note OFF: F#4, Velocity (0 - 127): 64
0    |  MIDI Event: Chan 3 Note OFF: B2, Velocity (0 - 127): 64
0    |  MIDI Event: Chan 1 Note OFF: B3, Velocity (0 - 127): 64
0    |  MIDI Event: Chan 2 Note OFF: B1, Velocity (0 - 127): 64
0    |  MIDI Event: Chan 5 Note OFF: B2, Velocity (0 - 127): 64
0    |  MIDI Event: Chan 1 Note OFF: D4, Velocity (0 - 127): 64
1    |  MIDI Event: Chan 1 Note ON: G3, Velocity (0 - 127): 74
0    |  MIDI Event: Chan 1 Note ON: B3, Velocity (0 - 127): 94
0    |  MIDI Event: Chan 1 Note ON: D4, Velocity (0 - 127): 91
0    |  MIDI Event: Chan 2 Note ON: G1, Velocity (0 - 127): 100
0    |  MIDI Event: Chan 3 Note ON: G2, Velocity (0 - 127): 120
0    |  MIDI Event: Chan 4 Note ON: G4, Velocity (0 - 127): 120
0    |  MIDI Event: Chan 5 Note ON: G2, Velocity (0 - 127): 98
0    |  MIDI Event: Chan 5 Note ON: D3, Velocity (0 - 127): 116
0    |  MIDI Event: Chan 10 Note ON: B1, Velocity (0 - 127): 120
0    |  Meta Event: Lyric: and 
29   |  MIDI Event: Chan 10 Note OFF: B1, Velocity (0 - 127): 64
30   |  MIDI Event: Chan 1 Note OFF: G3, Velocity (0 - 127): 64
0    |  MIDI Event: Chan 5 Note OFF: D3, Velocity (0 - 127): 64
0    |  MIDI Event: Chan 1 Note OFF: B3, Velocity (0 - 127): 64
0    |  MIDI Event: Chan 5 Note OFF: G2, Velocity (0 - 127): 64
0    |  MIDI Event: Chan 1 Note OFF: D4, Velocity (0 - 127): 64
1    |  MIDI Event: Chan 1 Note ON: B3, Velocity (0 - 127): 70
0    |  MIDI Event: Chan 1 Note ON: D4, Velocity (0 - 127): 94
0    |  MIDI Event: Chan 1 Note ON: G4, Velocity (0 - 127): 101
0    |  MIDI Event: Chan 5 Note ON: D3, Velocity (0 - 127): 79
0    |  MIDI Event: Chan 5 Note ON: G3, Velocity (0 - 127): 111
0    |  MIDI Event: Chan 5 Note ON: B3, Velocity (0 - 127): 100
0    |  MIDI Event: Chan 10 Note ON: D#2, Velocity (0 - 127): 120
29   |  MIDI Event: Chan 10 Note OFF: D#2, Velocity (0 - 127): 64
0    |  MIDI Event: Chan 4 Note OFF: G4, Velocity (0 - 127): 64
30   |  MIDI Event: Chan 2 Note OFF: G1, Velocity (0 - 127): 64
1    |  MIDI Event: Chan 2 Note ON: G1, Velocity (0 - 127): 100
0    |  MIDI Event: Chan 4 Note ON: A4, Velocity (0 - 127): 120
0    |  MIDI Event: Chan 10 Note ON: B1, Velocity (0 - 127): 120
0    |  Meta Event: Lyric: I'm 
29   |  MIDI Event: Chan 10 Note OFF: B1, Velocity (0 - 127): 64
0    |  MIDI Event: Chan 1 Note OFF: D4, Velocity (0 - 127): 64
0    |  MIDI Event: Chan 1 Note OFF: B3, Velocity (0 - 127): 64
0    |  MIDI Event: Chan 5 Note OFF: B3, Velocity (0 - 127): 64
0    |  MIDI Event: Chan 1 Note OFF: G4, Velocity (0 - 127): 64
0    |  MIDI Event: Chan 5 Note OFF: G3, Velocity (0 - 127): 64
0    |  MIDI Event: Chan 5 Note OFF: D3, Velocity (0 - 127): 64
1    |  MIDI Event: Chan 1 Note ON: B3, Velocity (0 - 127): 52
0    |  MIDI Event: Chan 1 Note ON: D4, Velocity (0 - 127): 85
0    |  MIDI Event: Chan 1 Note ON: G4, Velocity (0 - 127): 94
0    |  MIDI Event: Chan 5 Note ON: D3, Velocity (0 - 127): 82
0    |  MIDI Event: Chan 5 Note ON: G3, Velocity (0 - 127): 98
0    |  MIDI Event: Chan 5 Note ON: B3, Velocity (0 - 127): 85
29   |  MIDI Event: Chan 5 Note OFF: B3, Velocity (0 - 127): 64
0    |  MIDI Event: Chan 1 Note OFF: B3, Velocity (0 - 127): 64
0    |  MIDI Event: Chan 5 Note OFF: G3, Velocity (0 - 127): 64
0    |  MIDI Event: Chan 1 Note OFF: D4, Velocity (0 - 127): 64
0    |  MIDI Event: Chan 5 Note OFF: D3, Velocity (0 - 127): 64
0    |  MIDI Event: Chan 4 Note OFF: A4, Velocity (0 - 127): 64
0    |  MIDI Event: Chan 1 Note OFF: G4, Velocity (0 - 127): 64
1    |  MIDI Event: Chan 1 Note ON: D4, Velocity (0 - 127): 78
0    |  MIDI Event: Chan 1 Note ON: G4, Velocity (0 - 127): 100
0    |  MIDI Event: Chan 1 Note ON: B4, Velocity (0 - 127): 46
0    |  MIDI Event: Chan 5 Note ON: G2, Velocity (0 - 127): 109
0    |  MIDI Event: Chan 5 Note ON: D3, Velocity (0 - 127): 109
0    |  MIDI Event: Chan 10 Note ON: D#2, Velocity (0 - 127): 120
29   |  MIDI Event: Chan 10 Note OFF: D#2, Velocity (0 - 127): 64
0    |  MIDI Event: Chan 5 Note OFF: D3, Velocity (0 - 127): 64
0    |  MIDI Event: Chan 1 Note OFF: B4, Velocity (0 - 127): 64
0    |  MIDI Event: Chan 1 Note OFF: G4, Velocity (0 - 127): 64
0    |  MIDI Event: Chan 1 Note OFF: D4, Velocity (0 - 127): 64
0    |  MIDI Event: Chan 5 Note OFF: G2, Velocity (0 - 127): 64
1    |  MIDI Event: Chan 1 Note ON: B3, Velocity (0 - 127): 45
0    |  MIDI Event: Chan 1 Note ON: D4, Velocity (0 - 127): 73
0    |  MIDI Event: Chan 1 Note ON: G4, Velocity (0 - 127): 86
0    |  MIDI Event: Chan 4 Note ON: D4, Velocity (0 - 127): 119
0    |  MIDI Event: Chan 5 Note ON: G2, Velocity (0 - 127): 101
0    |  MIDI Event: Chan 5 Note ON: E3, Velocity (0 - 127): 116
0    |  Meta Event: Lyric: ol
29   |  MIDI Event: Chan 5 Note OFF: E3, Velocity (0 - 127): 64
0    |  MIDI Event: Chan 3 Note OFF: G2, Velocity (0 - 127): 64
0    |  MIDI Event: Chan 2 Note OFF: G1, Velocity (0 - 127): 64
0    |  MIDI Event: Chan 5 Note OFF: G2, Velocity (0 - 127): 64
0    |  MIDI Event: Chan 1 Note OFF: B3, Velocity (0 - 127): 64
0    |  MIDI Event: Chan 1 Note OFF: D4, Velocity (0 - 127): 64
0    |  MIDI Event: Chan 1 Note OFF: G4, Velocity (0 - 127): 64
1    |  MIDI Event: Chan 1 Note ON: F#3, Velocity (0 - 127): 35
0    |  MIDI Event: Chan 1 Note ON: A3, Velocity (0 - 127): 85
0    |  MIDI Event: Chan 1 Note ON: D4, Velocity (0 - 127): 79
0    |  MIDI Event: Chan 2 Note ON: D2, Velocity (0 - 127): 100
0    |  MIDI Event: Chan 3 Note ON: D2, Velocity (0 - 127): 120
0    |  MIDI Event: Chan 5 Note ON: A2, Velocity (0 - 127): 90
0    |  MIDI Event: Chan 5 Note ON: D3, Velocity (0 - 127): 105
0    |  MIDI Event: Chan 10 Note ON: B1, Velocity (0 - 127): 120
29   |  MIDI Event: Chan 10 Note OFF: B1, Velocity (0 - 127): 64
0    |  MIDI Event: Chan 4 Note OFF: D4, Velocity (0 - 127): 64
30   |  MIDI Event: Chan 1 Note OFF: F#3, Velocity (0 - 127): 64
0    |  MIDI Event: Chan 1 Note OFF: A3, Velocity (0 - 127): 64
0    |  MIDI Event: Chan 1 Note OFF: D4, Velocity (0 - 127): 64
0    |  MIDI Event: Chan 5 Note OFF: D3, Velocity (0 - 127): 64
0    |  MIDI Event: Chan 5 Note OFF: A2, Velocity (0 - 127): 64
1    |  MIDI Event: Chan 1 Note ON: A3, Velocity (0 - 127): 69
0    |  MIDI Event: Chan 1 Note ON: D4, Velocity (0 - 127): 98
0    |  MIDI Event: Chan 1 Note ON: F#4, Velocity (0 - 127): 74
0    |  MIDI Event: Chan 4 Note ON: D4, Velocity (0 - 127): 120
0    |  MIDI Event: Chan 5 Note ON: A2, Velocity (0 - 127): 100
0    |  MIDI Event: Chan 5 Note ON: D3, Velocity (0 - 127): 111
0    |  MIDI Event: Chan 5 Note ON: F#3, Velocity (0 - 127): 89
0    |  MIDI Event: Chan 10 Note ON: D#2, Velocity (0 - 127): 120
0    |  Meta Event: Lyric: der 
0    |  Meta Event: Lyric: 
29   |  MIDI Event: Chan 10 Note OFF: D#2, Velocity (0 - 127): 64
30   |  MIDI Event: Chan 2 Note OFF: D2, Velocity (0 - 127): 64
1    |  MIDI Event: Chan 2 Note ON: D2, Velocity (0 - 127): 100
0    |  MIDI Event: Chan 10 Note ON: B1, Velocity (0 - 127): 120
29   |  MIDI Event: Chan 10 Note OFF: B1, Velocity (0 - 127): 64
0    |  MIDI Event: Chan 5 Note OFF: F#3, Velocity (0 - 127): 64
0    |  MIDI Event: Chan 1 Note OFF: F#4, Velocity (0 - 127): 64
0    |  MIDI Event: Chan 5 Note OFF: D3, Velocity (0 - 127): 64
0    |  MIDI Event: Chan 4 Note OFF: D4, Velocity (0 - 127): 64
0    |  MIDI Event: Chan 1 Note OFF: A3, Velocity (0 - 127): 64
0    |  MIDI Event: Chan 1 Note OFF: D4, Velocity (0 - 127): 64
0    |  MIDI Event: Chan 5 Note OFF: A2, Velocity (0 - 127): 64
1    |  MIDI Event: Chan 1 Note ON: F#3, Velocity (0 - 127): 44
0    |  MIDI Event: Chan 1 Note ON: A3, Velocity (0 - 127): 78
0    |  MIDI Event: Chan 1 Note ON: D4, Velocity (0 - 127): 58
0    |  MIDI Event: Chan 5 Note ON: A2, Velocity (0 - 127): 85
0    |  MIDI Event: Chan 5 Note ON: D3, Velocity (0 - 127): 105
0    |  MIDI Event: Chan 5 Note ON: F#3, Velocity (0 - 127): 81
29   |  MIDI Event: Chan 5 Note OFF: F#3, Velocity (0 - 127): 64
0    |  MIDI Event: Chan 5 Note OFF: D3, Velocity (0 - 127): 64
0    |  MIDI Event: Chan 1 Note OFF: D4, Velocity (0 - 127): 64
0    |  MIDI Event: Chan 1 Note OFF: A3, Velocity (0 - 127): 64
0    |  MIDI Event: Chan 1 Note OFF: F#3, Velocity (0 - 127): 64
0    |  MIDI Event: Chan 5 Note OFF: A2, Velocity (0 - 127): 64
1    |  MIDI Event: Chan 1 Note ON: A3, Velocity (0 - 127): 57
0    |  MIDI Event: Chan 1 Note ON: D4, Velocity (0 - 127): 91
0    |  MIDI Event: Chan 1 Note ON: F#4, Velocity (0 - 127): 77
0    |  MIDI Event: Chan 5 Note ON: D3, Velocity (0 - 127): 109
0    |  MIDI Event: Chan 5 Note ON: F#3, Velocity (0 - 127): 89
0    |  MIDI Event: Chan 5 Note ON: A3, Velocity (0 - 127): 109
0    |  MIDI Event: Chan 10 Note ON: D#2, Velocity (0 - 127): 120
29   |  MIDI Event: Chan 10 Note OFF: D#2, Velocity (0 - 127): 64
0    |  MIDI Event: Chan 1 Note OFF: D4, Velocity (0 - 127): 64
0    |  MIDI Event: Chan 5 Note OFF: A3, Velocity (0 - 127): 64
0    |  MIDI Event: Chan 1 Note OFF: F#4, Velocity (0 - 127): 64
0    |  MIDI Event: Chan 5 Note OFF: F#3, Velocity (0 - 127): 64
0    |  MIDI Event: Chan 1 Note OFF: A3, Velocity (0 - 127): 64
0    |  MIDI Event: Chan 5 Note OFF: D3, Velocity (0 - 127): 64
1    |  MIDI Event: Chan 1 Note ON: F#3, Velocity (0 - 127): 35
0    |  MIDI Event: Chan 1 Note ON: A3, Velocity (0 - 127): 79
0    |  MIDI Event: Chan 1 Note ON: D4, Velocity (0 - 127): 56
0    |  MIDI Event: Chan 5 Note ON: D3, Velocity (0 - 127): 111
0    |  MIDI Event: Chan 5 Note ON: F#3, Velocity (0 - 127): 100
0    |  MIDI Event: Chan 5 Note ON: A3, Velocity (0 - 127): 100
29   |  MIDI Event: Chan 5 Note OFF: A3, Velocity (0 - 127): 64
0    |  MIDI Event: Chan 5 Note OFF: F#3, Velocity (0 - 127): 64
0    |  MIDI Event: Chan 1 Note OFF: D4, Velocity (0 - 127): 64
0    |  MIDI Event: Chan 2 Note OFF: D2, Velocity (0 - 127): 64
0    |  MIDI Event: Chan 1 Note OFF: F#3, Velocity (0 - 127): 64
0    |  MIDI Event: Chan 1 Note OFF: A3, Velocity (0 - 127): 64
0    |  MIDI Event: Chan 5 Note OFF: D3, Velocity (0 - 127): 64
1    |  MIDI Event: Chan 1 Note ON: F#3, Velocity (0 - 127): 49
0    |  MIDI Event: Chan 1 Note ON: A3, Velocity (0 - 127): 85
0    |  MIDI Event: Chan 1 Note ON: D4, Velocity (0 - 127): 75
0    |  MIDI Event: Chan 2 Note ON: D2, Velocity (0 - 127): 100
0    |  MIDI Event: Chan 5 Note ON: A2, Velocity (0 - 127): 105
0    |  MIDI Event: Chan 5 Note ON: D3, Velocity (0 - 127): 116
0    |  MIDI Event: Chan 10 Note ON: B1, Velocity (0 - 127): 119
29   |  MIDI Event: Chan 10 Note OFF: B1, Velocity (0 - 127): 64
30   |  MIDI Event: Chan 5 Note OFF: D3, Velocity (0 - 127): 64
0    |  MIDI Event: Chan 1 Note OFF: D4, Velocity (0 - 127): 64
0    |  MIDI Event: Chan 1 Note OFF: F#3, Velocity (0 - 127): 64
0    |  MIDI Event: Chan 1 Note OFF: A3, Velocity (0 - 127): 64
0    |  MIDI Event: Chan 5 Note OFF: A2, Velocity (0 - 127): 64
1    |  MIDI Event: Chan 1 Note ON: A3, Velocity (0 - 127): 56
0    |  MIDI Event: Chan 1 Note ON: D4, Velocity (0 - 127): 84
0    |  MIDI Event: Chan 1 Note ON: F#4, Velocity (0 - 127): 49
0    |  MIDI Event: Chan 5 Note ON: D3, Velocity (0 - 127): 105
0    |  MIDI Event: Chan 5 Note ON: F#3, Velocity (0 - 127): 115
0    |  MIDI Event: Chan 10 Note ON: D#2, Velocity (0 - 127): 120
29   |  MIDI Event: Chan 10 Note OFF: D#2, Velocity (0 - 127): 64
0    |  MIDI Event: Chan 5 Note OFF: F#3, Velocity (0 - 127): 64
0    |  MIDI Event: Chan 1 Note OFF: F#4, Velocity (0 - 127): 64
0    |  MIDI Event: Chan 1 Note OFF: D4, Velocity (0 - 127): 64
0    |  MIDI Event: Chan 1 Note OFF: A3, Velocity (0 - 127): 64
0    |  MIDI Event: Chan 5 Note OFF: D3, Velocity (0 - 127): 64
1    |  MIDI Event: Chan 1 Note ON: A3, Velocity (0 - 127): 84
0    |  MIDI Event: Chan 1 Note ON: D4, Velocity (0 - 127): 94
0    |  MIDI Event: Chan 1 Note ON: F#4, Velocity (0 - 127): 76
0    |  MIDI Event: Chan 5 Note ON: D3, Velocity (0 - 127): 100
0    |  MIDI Event: Chan 5 Note ON: F#3, Velocity (0 - 127): 92
29   |  MIDI Event: Chan 5 Note OFF: F#3, Velocity (0 - 127): 64
0    |  MIDI Event: Chan 1 Note OFF: F#4, Velocity (0 - 127): 64
0    |  MIDI Event: Chan 2 Note OFF: D2, Velocity (0 - 127): 64
0    |  MIDI Event: Chan 1 Note OFF: A3, Velocity (0 - 127): 64
0    |  MIDI Event: Chan 3 Note OFF: D2, Velocity (0 - 127): 64
0    |  MIDI Event: Chan 5 Note OFF: D3, Velocity (0 - 127): 64
0    |  MIDI Event: Chan 1 Note OFF: D4, Velocity (0 - 127): 64
1    |  MIDI Event: Chan 1 Note ON: E3, Velocity (0 - 127): 47
0    |  MIDI Event: Chan 1 Note ON: A3, Velocity (0 - 127): 89
0    |  MIDI Event: Chan 1 Note ON: C#4, Velocity (0 - 127): 52
0    |  MIDI Event: Chan 2 Note ON: F#1, Velocity (0 - 127): 100
0    |  MIDI Event: Chan 3 Note ON: F#2, Velocity (0 - 127): 120
0    |  MIDI Event: Chan 4 Note ON: B3, Velocity (0 - 127): 120
0    |  MIDI Event: Chan 5 Note ON: A2, Velocity (0 - 127): 101
0    |  MIDI Event: Chan 5 Note ON: E3, Velocity (0 - 127): 101
0    |  MIDI Event: Chan 10 Note ON: B1, Velocity (0 - 127): 120
0    |  Meta Event: Lyric: All 
29   |  MIDI Event: Chan 10 Note OFF: B1, Velocity (0 - 127): 64
30   |  MIDI Event: Chan 1 Note OFF: E3, Velocity (0 - 127): 64
0    |  MIDI Event: Chan 5 Note OFF: E3, Velocity (0 - 127): 64
0    |  MIDI Event: Chan 1 Note OFF: C#4, Velocity (0 - 127): 64
0    |  MIDI Event: Chan 1 Note OFF: A3, Velocity (0 - 127): 64
0    |  MIDI Event: Chan 5 Note OFF: A2, Velocity (0 - 127): 64
0    |  MIDI Event: Chan 4 Note OFF: B3, Velocity (0 - 127): 64
1    |  MIDI Event: Chan 1 Note ON: A3, Velocity (0 - 127): 51
0    |  MIDI Event: Chan 1 Note ON: C#4, Velocity (0 - 127): 52
0    |  MIDI Event: Chan 1 Note ON: E4, Velocity (0 - 127): 78
0    |  MIDI Event: Chan 4 Note ON: C#4, Velocity (0 - 127): 120
0    |  MIDI Event: Chan 5 Note ON: C#3, Velocity (0 - 127): 89
0    |  MIDI Event: Chan 5 Note ON: E3, Velocity (0 - 127): 101
0    |  MIDI Event: Chan 5 Note ON: A3, Velocity (0 - 127): 89
0    |  MIDI Event: Chan 10 Note ON: D#2, Velocity (0 - 127): 120
0    |  Meta Event: Lyric: this 
29   |  MIDI Event: Chan 10 Note OFF: D#2, Velocity (0 - 127): 64
0    |  MIDI Event: Chan 1 Note OFF: A3, Velocity (0 - 127): 64
0    |  MIDI Event: Chan 1 Note OFF: C#4, Velocity (0 - 127): 64
0    |  MIDI Event: Chan 5 Note OFF: A3, Velocity (0 - 127): 64
0    |  MIDI Event: Chan 1 Note OFF: E4, Velocity (0 - 127): 64
0    |  MIDI Event: Chan 5 Note OFF: C#3, Velocity (0 - 127): 64
0    |  MIDI Event: Chan 5 Note OFF: E3, Velocity (0 - 127): 64
0    |  MIDI Event: Chan 4 Note OFF: C#4, Velocity (0 - 127): 64
1    |  MIDI Event: Chan 1 Note ON: A3, Velocity (0 - 127): 73
0    |  MIDI Event: Chan 1 Note ON: C#4, Velocity (0 - 127): 52
0    |  MIDI Event: Chan 1 Note ON: E4, Velocity (0 - 127): 83
0    |  MIDI Event: Chan 5 Note ON: C#3, Velocity (0 - 127): 119
0    |  MIDI Event: Chan 5 Note ON: E3, Velocity (0 - 127): 118
0    |  MIDI Event: Chan 5 Note ON: A3, Velocity (0 - 127): 105
29   |  MIDI Event: Chan 5 Note OFF: A3, Velocity (0 - 127): 64
0    |  MIDI Event: Chan 2 Note OFF: F#1, Velocity (0 - 127): 64
0    |  MIDI Event: Chan 1 Note OFF: E4, Velocity (0 - 127): 64
0    |  MIDI Event: Chan 3 Note OFF: F#2, Velocity (0 - 127): 64
0    |  MIDI Event: Chan 1 Note OFF: A3, Velocity (0 - 127): 64
0    |  MIDI Event: Chan 1 Note OFF: C#4, Velocity (0 - 127): 64
0    |  MIDI Event: Chan 5 Note OFF: C#3, Velocity (0 - 127): 64
0    |  MIDI Event: Chan 5 Note OFF: E3, Velocity (0 - 127): 64
1    |  MIDI Event: Chan 1 Note ON: B3, Velocity (0 - 127): 58
0    |  MIDI Event: Chan 1 Note ON: D4, Velocity (0 - 127): 91
0    |  MIDI Event: Chan 2 Note ON: B1, Velocity (0 - 127): 100
0    |  MIDI Event: Chan 3 Note ON: B2, Velocity (0 - 127): 120
0    |  MIDI Event: Chan 4 Note ON: D4, Velocity (0 - 127): 119
0    |  MIDI Event: Chan 5 Note ON: B2, Velocity (0 - 127): 85
0    |  MIDI Event: Chan 5 Note ON: F#3, Velocity (0 - 127): 120
0    |  MIDI Event: Chan 10 Note ON: B1, Velocity (0 - 127): 120
0    |  Meta Event: Lyric: time 
29   |  MIDI Event: Chan 10 Note OFF: B1, Velocity (0 - 127): 64
30   |  MIDI Event: Chan 5 Note OFF: F#3, Velocity (0 - 127): 64
0    |  MIDI Event: Chan 1 Note OFF: D4, Velocity (0 - 127): 64
0    |  MIDI Event: Chan 1 Note OFF: B3, Velocity (0 - 127): 64
0    |  MIDI Event: Chan 5 Note OFF: B2, Velocity (0 - 127): 64
1    |  MIDI Event: Chan 1 Note ON: B3, Velocity (0 - 127): 79
0    |  MIDI Event: Chan 1 Note ON: D4, Velocity (0 - 127): 95
0    |  MIDI Event: Chan 1 Note ON: F#4, Velocity (0 - 127): 74
0    |  MIDI Event: Chan 5 Note ON: D3, Velocity (0 - 127): 92
0    |  MIDI Event: Chan 5 Note ON: F#3, Velocity (0 - 127): 87
0    |  MIDI Event: Chan 5 Note ON: D4, Velocity (0 - 127): 95
0    |  MIDI Event: Chan 10 Note ON: D#2, Velocity (0 - 127): 120
29   |  MIDI Event: Chan 10 Note OFF: D#2, Velocity (0 - 127): 64
0    |  MIDI Event: Chan 4 Note OFF: D4, Velocity (0 - 127): 64
30   |  MIDI Event: Chan 2 Note OFF: B1, Velocity (0 - 127): 64
1    |  MIDI Event: Chan 2 Note ON: B1, Velocity (0 - 127): 100
0    |  MIDI Event: Chan 4 Note ON: F#4, Velocity (0 - 127): 120
0    |  MIDI Event: Chan 10 Note ON: B1, Velocity (0 - 127): 120
0    |  Meta Event: Lyric: I 
29   |  MIDI Event: Chan 10 Note OFF: B1, Velocity (0 - 127): 64
0    |  MIDI Event: Chan 5 Note OFF: D4, Velocity (0 - 127): 64
0    |  MIDI Event: Chan 4 Note OFF: F#4, Velocity (0 - 127): 64
0    |  MIDI Event: Chan 5 Note OFF: F#3, Velocity (0 - 127): 64
0    |  MIDI Event: Chan 5 Note OFF: D3, Velocity (0 - 127): 64
0    |  MIDI Event: Chan 1 Note OFF: F#4, Velocity (0 - 127): 64
0    |  MIDI Event: Chan 1 Note OFF: B3, Velocity (0 - 127): 64
0    |  MIDI Event: Chan 1 Note OFF: D4, Velocity (0 - 127): 64
1    |  MIDI Event: Chan 1 Note ON: B3, Velocity (0 - 127): 71
0    |  MIDI Event: Chan 1 Note ON: D4, Velocity (0 - 127): 91
0    |  MIDI Event: Chan 1 Note ON: F#4, Velocity (0 - 127): 60
0    |  MIDI Event: Chan 5 Note ON: F#3, Velocity (0 - 127): 109
0    |  MIDI Event: Chan 5 Note ON: B3, Velocity (0 - 127): 95
29   |  MIDI Event: Chan 5 Note OFF: B3, Velocity (0 - 127): 64
0    |  MIDI Event: Chan 1 Note OFF: F#4, Velocity (0 - 127): 64
0    |  MIDI Event: Chan 1 Note OFF: D4, Velocity (0 - 127): 64
0    |  MIDI Event: Chan 1 Note OFF: B3, Velocity (0 - 127): 64
0    |  MIDI Event: Chan 5 Note OFF: F#3, Velocity (0 - 127): 64
1    |  MIDI Event: Chan 1 Note ON: D4, Velocity (0 - 127): 80
0    |  MIDI Event: Chan 1 Note ON: F#4, Velocity (0 - 127): 62
0    |  MIDI Event: Chan 1 Note ON: B4, Velocity (0 - 127): 91
0    |  MIDI Event: Chan 4 Note ON: F#4, Velocity (0 - 127): 119
0    |  MIDI Event: Chan 5 Note ON: D3, Velocity (0 - 127): 103
0    |  MIDI Event: Chan 5 Note ON: F#3, Velocity (0 - 127): 115
0    |  MIDI Event: Chan 10 Note ON: D#2, Velocity (0 - 127): 120
0    |  Meta Event: Lyric: was 
29   |  MIDI Event: Chan 10 Note OFF: D#2, Velocity (0 - 127): 64
0    |  MIDI Event: Chan 1 Note OFF: F#4, Velocity (0 - 127): 64
0    |  MIDI Event: Chan 5 Note OFF: F#3, Velocity (0 - 127): 64
0    |  MIDI Event: Chan 5 Note OFF: D3, Velocity (0 - 127): 64
0    |  MIDI Event: Chan 1 Note OFF: D4, Velocity (0 - 127): 64
0    |  MIDI Event: Chan 1 Note OFF: B4, Velocity (0 - 127): 64
1    |  MIDI Event: Chan 1 Note ON: B3, Velocity (0 - 127): 51
0    |  MIDI Event: Chan 1 Note ON: D4, Velocity (0 - 127): 85
0    |  MIDI Event: Chan 1 Note ON: F#4, Velocity (0 - 127): 59
0    |  MIDI Event: Chan 5 Note ON: B2, Velocity (0 - 127): 92
0    |  MIDI Event: Chan 5 Note ON: E3, Velocity (0 - 127): 98
29   |  MIDI Event: Chan 5 Note OFF: E3, Velocity (0 - 127): 64
0    |  MIDI Event: Chan 3 Note OFF: B2, Velocity (0 - 127): 64
0    |  MIDI Event: Chan 1 Note OFF: D4, Velocity (0 - 127): 64
0    |  MIDI Event: Chan 4 Note OFF: F#4, Velocity (0 - 127): 64
0    |  MIDI Event: Chan 2 Note OFF: B1, Velocity (0 - 127): 64
0    |  MIDI Event: Chan 1 Note OFF: B3, Velocity (0 - 127): 64
0    |  MIDI Event: Chan 1 Note OFF: F#4, Velocity (0 - 127): 64
0    |  MIDI Event: Chan 5 Note OFF: B2, Velocity (0 - 127): 64
1    |  MIDI Event: Chan 1 Note ON: G3, Velocity (0 - 127): 74
0    |  MIDI Event: Chan 1 Note ON: B3, Velocity (0 - 127): 94
0    |  MIDI Event: Chan 1 Note ON: D4, Velocity (0 - 127): 91
0    |  MIDI Event: Chan 2 Note ON: G1, Velocity (0 - 127): 100
0    |  MIDI Event: Chan 3 Note ON: G2, Velocity (0 - 127): 120
0    |  MIDI Event: Chan 4 Note ON: G4, Velocity (0 - 127): 120
0    |  MIDI Event: Chan 5 Note ON: G2, Velocity (0 - 127): 98
0    |  MIDI Event: Chan 5 Note ON: D3, Velocity (0 - 127): 116
0    |  MIDI Event: Chan 10 Note ON: B1, Velocity (0 - 127): 120
0    |  Meta Event: Lyric: fin
29   |  MIDI Event: Chan 10 Note OFF: B1, Velocity (0 - 127): 64
30   |  MIDI Event: Chan 1 Note OFF: G3, Velocity (0 - 127): 64
0    |  MIDI Event: Chan 5 Note OFF: D3, Velocity (0 - 127): 64
0    |  MIDI Event: Chan 1 Note OFF: D4, Velocity (0 - 127): 64
0    |  MIDI Event: Chan 1 Note OFF: B3, Velocity (0 - 127): 64
0    |  MIDI Event: Chan 5 Note OFF: G2, Velocity (0 - 127): 64
0    |  MIDI Event: Chan 4 Note OFF: G4, Velocity (0 - 127): 64
1    |  MIDI Event: Chan 1 Note ON: B3, Velocity (0 - 127): 70
0    |  MIDI Event: Chan 1 Note ON: D4, Velocity (0 - 127): 94
0    |  MIDI Event: Chan 1 Note ON: G4, Velocity (0 - 127): 101
0    |  MIDI Event: Chan 5 Note ON: D3, Velocity (0 - 127): 79
0    |  MIDI Event: Chan 5 Note ON: G3, Velocity (0 - 127): 111
0    |  MIDI Event: Chan 5 Note ON: B3, Velocity (0 - 127): 100
0    |  MIDI Event: Chan 10 Note ON: D#2, Velocity (0 - 127): 120
29   |  MIDI Event: Chan 10 Note OFF: D#2, Velocity (0 - 127): 64
1    |  MIDI Event: Chan 4 Note ON: G4, Velocity (0 - 127): 120
0    |  Meta Event: Lyric: ding 
29   |  MIDI Event: Chan 4 Note OFF: G4, Velocity (0 - 127): 64
0    |  MIDI Event: Chan 2 Note OFF: G1, Velocity (0 - 127): 64
1    |  MIDI Event: Chan 2 Note ON: G1, Velocity (0 - 127): 100
0    |  MIDI Event: Chan 10 Note ON: B1, Velocity (0 - 127): 120
29   |  MIDI Event: Chan 10 Note OFF: B1, Velocity (0 - 127): 64
0    |  MIDI Event: Chan 5 Note OFF: B3, Velocity (0 - 127): 64
0    |  MIDI Event: Chan 1 Note OFF: G4, Velocity (0 - 127): 64
0    |  MIDI Event: Chan 5 Note OFF: D3, Velocity (0 - 127): 64
0    |  MIDI Event: Chan 1 Note OFF: B3, Velocity (0 - 127): 64
0    |  MIDI Event: Chan 1 Note OFF: D4, Velocity (0 - 127): 64
0    |  MIDI Event: Chan 5 Note OFF: G3, Velocity (0 - 127): 64
1    |  MIDI Event: Chan 1 Note ON: B3, Velocity (0 - 127): 52
0    |  MIDI Event: Chan 1 Note ON: D4, Velocity (0 - 127): 85
0    |  MIDI Event: Chan 1 Note ON: G4, Velocity (0 - 127): 94
0    |  MIDI Event: Chan 4 Note ON: A4, Velocity (0 - 127): 120
0    |  MIDI Event: Chan 5 Note ON: D3, Velocity (0 - 127): 82
0    |  MIDI Event: Chan 5 Note ON: G3, Velocity (0 - 127): 98
0    |  MIDI Event: Chan 5 Note ON: B3, Velocity (0 - 127): 85
0    |  Meta Event: Lyric: my
29   |  MIDI Event: Chan 5 Note OFF: B3, Velocity (0 - 127): 64
0    |  MIDI Event: Chan 1 Note OFF: D4, Velocity (0 - 127): 64
0    |  MIDI Event: Chan 5 Note OFF: G3, Velocity (0 - 127): 64
0    |  MIDI Event: Chan 5 Note OFF: D3, Velocity (0 - 127): 64
0    |  MIDI Event: Chan 1 Note OFF: B3, Velocity (0 - 127): 64
0    |  MIDI Event: Chan 1 Note OFF: G4, Velocity (0 - 127): 64
1    |  MIDI Event: Chan 1 Note ON: D4, Velocity (0 - 127): 78
0    |  MIDI Event: Chan 1 Note ON: G4, Velocity (0 - 127): 100
0    |  MIDI Event: Chan 1 Note ON: B4, Velocity (0 - 127): 46
0    |  MIDI Event: Chan 5 Note ON: G2, Velocity (0 - 127): 109
0    |  MIDI Event: Chan 5 Note ON: D3, Velocity (0 - 127): 109
0    |  MIDI Event: Chan 10 Note ON: D#2, Velocity (0 - 127): 120
29   |  MIDI Event: Chan 10 Note OFF: D#2, Velocity (0 - 127): 64
0    |  MIDI Event: Chan 1 Note OFF: D4, Velocity (0 - 127): 64
0    |  MIDI Event: Chan 5 Note OFF: D3, Velocity (0 - 127): 64
0    |  MIDI Event: Chan 1 Note OFF: G4, Velocity (0 - 127): 64
0    |  MIDI Event: Chan 5 Note OFF: G2, Velocity (0 - 127): 64
0    |  MIDI Event: Chan 1 Note OFF: B4, Velocity (0 - 127): 64
1    |  MIDI Event: Chan 1 Note ON: B3, Velocity (0 - 127): 45
0    |  MIDI Event: Chan 1 Note ON: D4, Velocity (0 - 127): 73
0    |  MIDI Event: Chan 1 Note ON: G4, Velocity (0 - 127): 86
0    |  MIDI Event: Chan 5 Note ON: G2, Velocity (0 - 127): 101
0    |  MIDI Event: Chan 5 Note ON: E3, Velocity (0 - 127): 116
29   |  MIDI Event: Chan 5 Note OFF: E3, Velocity (0 - 127): 64
0    |  MIDI Event: Chan 4 Note OFF: A4, Velocity (0 - 127): 64
0    |  MIDI Event: Chan 1 Note OFF: D4, Velocity (0 - 127): 64
0    |  MIDI Event: Chan 3 Note OFF: G2, Velocity (0 - 127): 64
0    |  MIDI Event: Chan 2 Note OFF: G1, Velocity (0 - 127): 64
0    |  MIDI Event: Chan 1 Note OFF: B3, Velocity (0 - 127): 64
0    |  MIDI Event: Chan 1 Note OFF: G4, Velocity (0 - 127): 64
0    |  MIDI Event: Chan 5 Note OFF: G2, Velocity (0 - 127): 64
1    |  MIDI Event: Chan 1 Note ON: F#3, Velocity (0 - 127): 35
0    |  MIDI Event: Chan 1 Note ON: A3, Velocity (0 - 127): 85
0    |  MIDI Event: Chan 1 Note ON: D4, Velocity (0 - 127): 79
0    |  MIDI Event: Chan 2 Note ON: D2, Velocity (0 - 127): 100
0    |  MIDI Event: Chan 3 Note ON: D2, Velocity (0 - 127): 120
0    |  MIDI Event: Chan 4 Note ON: D4, Velocity (0 - 127): 120
0    |  MIDI Event: Chan 5 Note ON: A2, Velocity (0 - 127): 90
0    |  MIDI Event: Chan 5 Note ON: D3, Velocity (0 - 127): 105
0    |  MIDI Event: Chan 10 Note ON: B1, Velocity (0 - 127): 120
0    |  Meta Event: Lyric: self 
0    |  Meta Event: Lyric: 
29   |  MIDI Event: Chan 10 Note OFF: B1, Velocity (0 - 127): 64
30   |  MIDI Event: Chan 1 Note OFF: F#3, Velocity (0 - 127): 64
0    |  MIDI Event: Chan 5 Note OFF: D3, Velocity (0 - 127): 64
0    |  MIDI Event: Chan 1 Note OFF: A3, Velocity (0 - 127): 64
0    |  MIDI Event: Chan 5 Note OFF: A2, Velocity (0 - 127): 64
0    |  MIDI Event: Chan 1 Note OFF: D4, Velocity (0 - 127): 64
1    |  MIDI Event: Chan 1 Note ON: A3, Velocity (0 - 127): 69
0    |  MIDI Event: Chan 1 Note ON: D4, Velocity (0 - 127): 98
0    |  MIDI Event: Chan 1 Note ON: F#4, Velocity (0 - 127): 74
0    |  MIDI Event: Chan 5 Note ON: A2, Velocity (0 - 127): 100
0    |  MIDI Event: Chan 5 Note ON: D3, Velocity (0 - 127): 111
0    |  MIDI Event: Chan 5 Note ON: F#3, Velocity (0 - 127): 89
0    |  MIDI Event: Chan 10 Note ON: D#2, Velocity (0 - 127): 119
29   |  MIDI Event: Chan 10 Note OFF: D#2, Velocity (0 - 127): 64
30   |  MIDI Event: Chan 2 Note OFF: D2, Velocity (0 - 127): 64
1    |  MIDI Event: Chan 2 Note ON: D2, Velocity (0 - 127): 100
0    |  MIDI Event: Chan 10 Note ON: B1, Velocity (0 - 127): 120
29   |  MIDI Event: Chan 10 Note OFF: B1, Velocity (0 - 127): 64
0    |  MIDI Event: Chan 5 Note OFF: F#3, Velocity (0 - 127): 64
0    |  MIDI Event: Chan 1 Note OFF: D4, Velocity (0 - 127): 64
0    |  MIDI Event: Chan 5 Note OFF: D3, Velocity (0 - 127): 64
0    |  MIDI Event: Chan 1 Note OFF: F#4, Velocity (0 - 127): 64
0    |  MIDI Event: Chan 4 Note OFF: D4, Velocity (0 - 127): 64
0    |  MIDI Event: Chan 1 Note OFF: A3, Velocity (0 - 127): 64
0    |  MIDI Event: Chan 5 Note OFF: A2, Velocity (0 - 127): 64
1    |  MIDI Event: Chan 1 Note ON: F#3, Velocity (0 - 127): 44
0    |  MIDI Event: Chan 1 Note ON: A3, Velocity (0 - 127): 78
0    |  MIDI Event: Chan 1 Note ON: D4, Velocity (0 - 127): 58
0    |  MIDI Event: Chan 5 Note ON: A2, Velocity (0 - 127): 85
0    |  MIDI Event: Chan 5 Note ON: D3, Velocity (0 - 127): 105
0    |  MIDI Event: Chan 5 Note ON: F#3, Velocity (0 - 127): 81
29   |  MIDI Event: Chan 5 Note OFF: F#3, Velocity (0 - 127): 64
0    |  MIDI Event: Chan 5 Note OFF: D3, Velocity (0 - 127): 64
0    |  MIDI Event: Chan 1 Note OFF: D4, Velocity (0 - 127): 64
0    |  MIDI Event: Chan 1 Note OFF: A3, Velocity (0 - 127): 64
0    |  MIDI Event: Chan 1 Note OFF: F#3, Velocity (0 - 127): 64
0    |  MIDI Event: Chan 5 Note OFF: A2, Velocity (0 - 127): 64
1    |  MIDI Event: Chan 1 Note ON: A3, Velocity (0 - 127): 57
0    |  MIDI Event: Chan 1 Note ON: D4, Velocity (0 - 127): 91
0    |  MIDI Event: Chan 1 Note ON: F#4, Velocity (0 - 127): 77
0    |  MIDI Event: Chan 5 Note ON: D3, Velocity (0 - 127): 109
0    |  MIDI Event: Chan 5 Note ON: F#3, Velocity (0 - 127): 89
0    |  MIDI Event: Chan 5 Note ON: A3, Velocity (0 - 127): 109
0    |  MIDI Event: Chan 10 Note ON: D#2, Velocity (0 - 127): 120
29   |  MIDI Event: Chan 10 Note OFF: D#2, Velocity (0 - 127): 64
0    |  MIDI Event: Chan 1 Note OFF: D4, Velocity (0 - 127): 64
0    |  MIDI Event: Chan 5 Note OFF: A3, Velocity (0 - 127): 64
0    |  MIDI Event: Chan 1 Note OFF: F#4, Velocity (0 - 127): 64
0    |  MIDI Event: Chan 5 Note OFF: F#3, Velocity (0 - 127): 64
0    |  MIDI Event: Chan 1 Note OFF: A3, Velocity (0 - 127): 64
0    |  MIDI Event: Chan 5 Note OFF: D3, Velocity (0 - 127): 64
1    |  MIDI Event: Chan 1 Note ON: F#3, Velocity (0 - 127): 35
0    |  MIDI Event: Chan 1 Note ON: A3, Velocity (0 - 127): 79
0    |  MIDI Event: Chan 1 Note ON: D4, Velocity (0 - 127): 56
0    |  MIDI Event: Chan 4 Note ON: B3, Velocity (0 - 127): 119
0    |  MIDI Event: Chan 5 Note ON: D3, Velocity (0 - 127): 111
0    |  MIDI Event: Chan 5 Note ON: F#3, Velocity (0 - 127): 100
0    |  MIDI Event: Chan 5 Note ON: A3, Velocity (0 - 127): 100
0    |  Meta Event: Lyric: And 
29   |  MIDI Event: Chan 5 Note OFF: A3, Velocity (0 - 127): 64
0    |  MIDI Event: Chan 1 Note OFF: A3, Velocity (0 - 127): 64
0    |  MIDI Event: Chan 5 Note OFF: F#3, Velocity (0 - 127): 64
0    |  MIDI Event: Chan 1 Note OFF: D4, Velocity (0 - 127): 64
0    |  MIDI Event: Chan 2 Note OFF: D2, Velocity (0 - 127): 64
0    |  MIDI Event: Chan 1 Note OFF: F#3, Velocity (0 - 127): 64
0    |  MIDI Event: Chan 5 Note OFF: D3, Velocity (0 - 127): 64
0    |  MIDI Event: Chan 4 Note OFF: B3, Velocity (0 - 127): 64
1    |  MIDI Event: Chan 1 Note ON: F#3, Velocity (0 - 127): 49
0    |  MIDI Event: Chan 1 Note ON: A3, Velocity (0 - 127): 85
0    |  MIDI Event: Chan 1 Note ON: D4, Velocity (0 - 127): 75
0    |  MIDI Event: Chan 2 Note ON: D2, Velocity (0 - 127): 100
0    |  MIDI Event: Chan 4 Note ON: A3, Velocity (0 - 127): 120
0    |  MIDI Event: Chan 5 Note ON: A2, Velocity (0 - 127): 105
0    |  MIDI Event: Chan 5 Note ON: D3, Velocity (0 - 127): 116
0    |  MIDI Event: Chan 10 Note ON: B1, Velocity (0 - 127): 120
0    |  Meta Event: Lyric: I 
29   |  MIDI Event: Chan 10 Note OFF: B1, Velocity (0 - 127): 64
30   |  MIDI Event: Chan 1 Note OFF: A3, Velocity (0 - 127): 64
0    |  MIDI Event: Chan 5 Note OFF: D3, Velocity (0 - 127): 64
0    |  MIDI Event: Chan 1 Note OFF: F#3, Velocity (0 - 127): 64
0    |  MIDI Event: Chan 5 Note OFF: A2, Velocity (0 - 127): 64
0    |  MIDI Event: Chan 1 Note OFF: D4, Velocity (0 - 127): 64
1    |  MIDI Event: Chan 1 Note ON: A3, Velocity (0 - 127): 56
0    |  MIDI Event: Chan 1 Note ON: D4, Velocity (0 - 127): 84
0    |  MIDI Event: Chan 1 Note ON: F#4, Velocity (0 - 127): 49
0    |  MIDI Event: Chan 5 Note ON: D3, Velocity (0 - 127): 105
0    |  MIDI Event: Chan 5 Note ON: F#3, Velocity (0 - 127): 115
0    |  MIDI Event: Chan 10 Note ON: D#2, Velocity (0 - 127): 115
29   |  MIDI Event: Chan 10 Note OFF: D#2, Velocity (0 - 127): 64
0    |  MIDI Event: Chan 1 Note OFF: A3, Velocity (0 - 127): 64
0    |  MIDI Event: Chan 5 Note OFF: F#3, Velocity (0 - 127): 64
0    |  MIDI Event: Chan 1 Note OFF: D4, Velocity (0 - 127): 64
0    |  MIDI Event: Chan 5 Note OFF: D3, Velocity (0 - 127): 64
0    |  MIDI Event: Chan 1 Note OFF: F#4, Velocity (0 - 127): 64
1    |  MIDI Event: Chan 1 Note ON: A3, Velocity (0 - 127): 84
0    |  MIDI Event: Chan 1 Note ON: D4, Velocity (0 - 127): 94
0    |  MIDI Event: Chan 1 Note ON: F#4, Velocity (0 - 127): 76
0    |  MIDI Event: Chan 5 Note ON: D3, Velocity (0 - 127): 100
0    |  MIDI Event: Chan 5 Note ON: F#3, Velocity (0 - 127): 92
29   |  MIDI Event: Chan 5 Note OFF: F#3, Velocity (0 - 127): 64
0    |  MIDI Event: Chan 5 Note OFF: D3, Velocity (0 - 127): 64
0    |  MIDI Event: Chan 1 Note OFF: D4, Velocity (0 - 127): 64
0    |  MIDI Event: Chan 3 Note OFF: D2, Velocity (0 - 127): 64
0    |  MIDI Event: Chan 2 Note OFF: D2, Velocity (0 - 127): 64
0    |  MIDI Event: Chan 1 Note OFF: A3, Velocity (0 - 127): 64
0    |  MIDI Event: Chan 1 Note OFF: F#4, Velocity (0 - 127): 64
1    |  MIDI Event: Chan 1 Note ON: E3, Velocity (0 - 127): 47
0    |  MIDI Event: Chan 1 Note ON: A3, Velocity (0 - 127): 89
0    |  MIDI Event: Chan 1 Note ON: C#4, Velocity (0 - 127): 52
0    |  MIDI Event: Chan 2 Note ON: A1, Velocity (0 - 127): 100
0    |  MIDI Event: Chan 3 Note ON: A2, Velocity (0 - 127): 120
0    |  MIDI Event: Chan 5 Note ON: A2, Velocity (0 - 127): 101
0    |  MIDI Event: Chan 5 Note ON: E3, Velocity (0 - 127): 101
0    |  MIDI Event: Chan 10 Note ON: B1, Velocity (0 - 127): 120
29   |  MIDI Event: Chan 10 Note OFF: B1, Velocity (0 - 127): 64
30   |  MIDI Event: Chan 1 Note OFF: A3, Velocity (0 - 127): 64
0    |  MIDI Event: Chan 5 Note OFF: E3, Velocity (0 - 127): 64
0    |  MIDI Event: Chan 1 Note OFF: E3, Velocity (0 - 127): 64
0    |  MIDI Event: Chan 5 Note OFF: A2, Velocity (0 - 127): 64
0    |  MIDI Event: Chan 1 Note OFF: C#4, Velocity (0 - 127): 64
1    |  MIDI Event: Chan 1 Note ON: A3, Velocity (0 - 127): 51
0    |  MIDI Event: Chan 1 Note ON: C#4, Velocity (0 - 127): 52
0    |  MIDI Event: Chan 1 Note ON: E4, Velocity (0 - 127): 78
0    |  MIDI Event: Chan 5 Note ON: C#3, Velocity (0 - 127): 89
0    |  MIDI Event: Chan 5 Note ON: E3, Velocity (0 - 127): 101
0    |  MIDI Event: Chan 5 Note ON: A3, Velocity (0 - 127): 89
0    |  MIDI Event: Chan 10 Note ON: D#2, Velocity (0 - 127): 119
29   |  MIDI Event: Chan 10 Note OFF: D#2, Velocity (0 - 127): 64
0    |  MIDI Event: Chan 5 Note OFF: A3, Velocity (0 - 127): 64
0    |  MIDI Event: Chan 5 Note OFF: C#3, Velocity (0 - 127): 64
0    |  MIDI Event: Chan 1 Note OFF: A3, Velocity (0 - 127): 64
0    |  MIDI Event: Chan 1 Note OFF: C#4, Velocity (0 - 127): 64
0    |  MIDI Event: Chan 5 Note OFF: E3, Velocity (0 - 127): 64
0    |  MIDI Event: Chan 1 Note OFF: E4, Velocity (0 - 127): 64
1    |  MIDI Event: Chan 1 Note ON: A3, Velocity (0 - 127): 73
0    |  MIDI Event: Chan 1 Note ON: C#4, Velocity (0 - 127): 52
0    |  MIDI Event: Chan 1 Note ON: E4, Velocity (0 - 127): 83
0    |  MIDI Event: Chan 5 Note ON: C#3, Velocity (0 - 127): 119
0    |  MIDI Event: Chan 5 Note ON: E3, Velocity (0 - 127): 118
0    |  MIDI Event: Chan 5 Note ON: A3, Velocity (0 - 127): 105
29   |  MIDI Event: Chan 5 Note OFF: A3, Velocity (0 - 127): 64
0    |  MIDI Event: Chan 1 Note OFF: A3, Velocity (0 - 127): 64
0    |  MIDI Event: Chan 2 Note OFF: A1, Velocity (0 - 127): 64
0    |  MIDI Event: Chan 1 Note OFF: C#4, Velocity (0 - 127): 64
0    |  MIDI Event: Chan 3 Note OFF: A2, Velocity (0 - 127): 64
0    |  MIDI Event: Chan 4 Note OFF: A3, Velocity (0 - 127): 64
0    |  MIDI Event: Chan 5 Note OFF: C#3, Velocity (0 - 127): 64
0    |  MIDI Event: Chan 1 Note OFF: E4, Velocity (0 - 127): 64
0    |  MIDI Event: Chan 5 Note OFF: E3, Velocity (0 - 127): 64
1    |  MIDI Event: Chan 1 Note ON: B3, Velocity (0 - 127): 58
0    |  MIDI Event: Chan 1 Note ON: D4, Velocity (0 - 127): 91
0    |  MIDI Event: Chan 2 Note ON: B1, Velocity (0 - 127): 100
0    |  MIDI Event: Chan 3 Note ON: B2, Velocity (0 - 127): 120
0    |  MIDI Event: Chan 5 Note ON: B2, Velocity (0 - 127): 85
0    |  MIDI Event: Chan 5 Note ON: F#3, Velocity (0 - 127): 120
0    |  MIDI Event: Chan 10 Note ON: B1, Velocity (0 - 127): 120
0    |  MIDI Event: Chan 13 Control/Mode Change: Expression Control (0-127): 4
0    |  MIDI Event: Chan 13 Note ON: C3, Velocity (0 - 127): 120
15   |  MIDI Event: Chan 13 Control/Mode Change: Sound Controller 5 (default: Brightness) (0-127): 19
0    |  MIDI Event: Chan 13 Control/Mode Change: Expression Control (0-127): 5
14   |  MIDI Event: Chan 10 Note OFF: B1, Velocity (0 - 127): 64
1    |  MIDI Event: Chan 13 Control/Mode Change: Sound Controller 5 (default: Brightness) (0-127): 21
0    |  MIDI Event: Chan 13 Control/Mode Change: Expression Control (0-127): 7
15   |  MIDI Event: Chan 13 Control/Mode Change: Sound Controller 5 (default: Brightness) (0-127): 23
0    |  MIDI Event: Chan 13 Control/Mode Change: Expression Control (0-127): 9
14   |  MIDI Event: Chan 1 Note OFF: D4, Velocity (0 - 127): 64
0    |  MIDI Event: Chan 5 Note OFF: B2, Velocity (0 - 127): 64
0    |  MIDI Event: Chan 1 Note OFF: B3, Velocity (0 - 127): 64
0    |  MIDI Event: Chan 5 Note OFF: F#3, Velocity (0 - 127): 64
1    |  MIDI Event: Chan 1 Note ON: B3, Velocity (0 - 127): 79
0    |  MIDI Event: Chan 1 Note ON: D4, Velocity (0 - 127): 95
0    |  MIDI Event: Chan 1 Note ON: F#4, Velocity (0 - 127): 74
0    |  MIDI Event: Chan 5 Note ON: D3, Velocity (0 - 127): 92
0    |  MIDI Event: Chan 5 Note ON: F#3, Velocity (0 - 127): 87
0    |  MIDI Event: Chan 5 Note ON: D4, Velocity (0 - 127): 95
0    |  MIDI Event: Chan 10 Note ON: D#2, Velocity (0 - 127): 119
0    |  MIDI Event: Chan 13 Control/Mode Change: Sound Controller 5 (default: Brightness) (0-127): 25
0    |  MIDI Event: Chan 13 Control/Mode Change: Expression Control (0-127): 11
15   |  MIDI Event: Chan 13 Control/Mode Change: Sound Controller 5 (default: Brightness) (0-127): 27
0    |  MIDI Event: Chan 13 Control/Mode Change: Expression Control (0-127): 13
14   |  MIDI Event: Chan 10 Note OFF: D#2, Velocity (0 - 127): 64
1    |  MIDI Event: Chan 13 Control/Mode Change: Sound Controller 5 (default: Brightness) (0-127): 29
0    |  MIDI Event: Chan 13 Control/Mode Change: Expression Control (0-127): 15
15   |  MIDI Event: Chan 13 Control/Mode Change: Sound Controller 5 (default: Brightness) (0-127): 31
0    |  MIDI Event: Chan 13 Control/Mode Change: Expression Control (0-127): 17
14   |  MIDI Event: Chan 2 Note OFF: B1, Velocity (0 - 127): 64
1    |  MIDI Event: Chan 2 Note ON: B1, Velocity (0 - 127): 100
0    |  MIDI Event: Chan 4 Note ON: A3, Velocity (0 - 127): 116
0    |  MIDI Event: Chan 10 Note ON: B1, Velocity (0 - 127): 120
0    |  MIDI Event: Chan 13 Control/Mode Change: Sound Controller 5 (default: Brightness) (0-127): 34
0    |  MIDI Event: Chan 13 Control/Mode Change: Expression Control (0-127): 19
0    |  Meta Event: Lyric: did
15   |  MIDI Event: Chan 13 Control/Mode Change: Sound Controller 5 (default: Brightness) (0-127): 36
0    |  MIDI Event: Chan 13 Control/Mode Change: Expression Control (0-127): 21
14   |  MIDI Event: Chan 10 Note OFF: B1, Velocity (0 - 127): 64
0    |  MIDI Event: Chan 1 Note OFF: B3, Velocity (0 - 127): 64
0    |  MIDI Event: Chan 5 Note OFF: D4, Velocity (0 - 127): 64
0    |  MIDI Event: Chan 4 Note OFF: A3, Velocity (0 - 127): 64
0    |  MIDI Event: Chan 5 Note OFF: F#3, Velocity (0 - 127): 64
0    |  MIDI Event: Chan 1 Note OFF: F#4, Velocity (0 - 127): 64
0    |  MIDI Event: Chan 1 Note OFF: D4, Velocity (0 - 127): 64
0    |  MIDI Event: Chan 5 Note OFF: D3, Velocity (0 - 127): 64
1    |  MIDI Event: Chan 1 Note ON: B3, Velocity (0 - 127): 71
0    |  MIDI Event: Chan 1 Note ON: D4, Velocity (0 - 127): 91
0    |  MIDI Event: Chan 1 Note ON: F#4, Velocity (0 - 127): 60
0    |  MIDI Event: Chan 5 Note ON: F#3, Velocity (0 - 127): 109
0    |  MIDI Event: Chan 5 Note ON: B3, Velocity (0 - 127): 95
0    |  MIDI Event: Chan 13 Control/Mode Change: Sound Controller 5 (default: Brightness) (0-127): 38
0    |  MIDI Event: Chan 13 Control/Mode Change: Expression Control (0-127): 23
15   |  MIDI Event: Chan 13 Control/Mode Change: Sound Controller 5 (default: Brightness) (0-127): 40
0    |  MIDI Event: Chan 13 Control/Mode Change: Expression Control (0-127): 25
14   |  MIDI Event: Chan 5 Note OFF: B3, Velocity (0 - 127): 64
0    |  MIDI Event: Chan 5 Note OFF: F#3, Velocity (0 - 127): 64
0    |  MIDI Event: Chan 1 Note OFF: D4, Velocity (0 - 127): 64
0    |  MIDI Event: Chan 1 Note OFF: B3, Velocity (0 - 127): 64
0    |  MIDI Event: Chan 1 Note OFF: F#4, Velocity (0 - 127): 64
1    |  MIDI Event: Chan 1 Note ON: D4, Velocity (0 - 127): 80
0    |  MIDI Event: Chan 1 Note ON: F#4, Velocity (0 - 127): 62
0    |  MIDI Event: Chan 1 Note ON: B4, Velocity (0 - 127): 91
0    |  MIDI Event: Chan 4 Note ON: F#3, Velocity (0 - 127): 119
0    |  MIDI Event: Chan 5 Note ON: D3, Velocity (0 - 127): 103
0    |  MIDI Event: Chan 5 Note ON: F#3, Velocity (0 - 127): 115
0    |  MIDI Event: Chan 10 Note ON: D#2, Velocity (0 - 127): 120
0    |  MIDI Event: Chan 13 Control/Mode Change: Sound Controller 5 (default: Brightness) (0-127): 42
0    |  MIDI Event: Chan 13 Control/Mode Change: Expression Control (0-127): 27
0    |  Meta Event: Lyric: n't 
15   |  MIDI Event: Chan 13 Control/Mode Change: Sound Controller 5 (default: Brightness) (0-127): 44
0    |  MIDI Event: Chan 13 Control/Mode Change: Expression Control (0-127): 29
14   |  MIDI Event: Chan 10 Note OFF: D#2, Velocity (0 - 127): 64
0    |  MIDI Event: Chan 5 Note OFF: F#3, Velocity (0 - 127): 64
0    |  MIDI Event: Chan 4 Note OFF: F#3, Velocity (0 - 127): 64
0    |  MIDI Event: Chan 1 Note OFF: D4, Velocity (0 - 127): 64
0    |  MIDI Event: Chan 1 Note OFF: F#4, Velocity (0 - 127): 64
0    |  MIDI Event: Chan 5 Note OFF: D3, Velocity (0 - 127): 64
0    |  MIDI Event: Chan 1 Note OFF: B4, Velocity (0 - 127): 64
1    |  MIDI Event: Chan 1 Note ON: B3, Velocity (0 - 127): 51
0    |  MIDI Event: Chan 1 Note ON: D4, Velocity (0 - 127): 85
0    |  MIDI Event: Chan 1 Note ON: F#4, Velocity (0 - 127): 59
0    |  MIDI Event: Chan 5 Note ON: B2, Velocity (0 - 127): 92
0    |  MIDI Event: Chan 5 Note ON: E3, Velocity (0 - 127): 98
0    |  MIDI Event: Chan 13 Control/Mode Change: Sound Controller 5 (default: Brightness) (0-127): 47
0    |  MIDI Event: Chan 13 Control/Mode Change: Expression Control (0-127): 31
15   |  MIDI Event: Chan 13 Control/Mode Change: Sound Controller 5 (default: Brightness) (0-127): 49
0    |  MIDI Event: Chan 13 Control/Mode Change: Expression Control (0-127): 33
14   |  MIDI Event: Chan 5 Note OFF: E3, Velocity (0 - 127): 64
0    |  MIDI Event: Chan 2 Note OFF: B1, Velocity (0 - 127): 64
0    |  MIDI Event: Chan 1 Note OFF: D4, Velocity (0 - 127): 64
0    |  MIDI Event: Chan 5 Note OFF: B2, Velocity (0 - 127): 64
0    |  MIDI Event: Chan 3 Note OFF: B2, Velocity (0 - 127): 64
0    |  MIDI Event: Chan 1 Note OFF: B3, Velocity (0 - 127): 64
0    |  MIDI Event: Chan 1 Note OFF: F#4, Velocity (0 - 127): 64
1    |  MIDI Event: Chan 1 Note ON: G3, Velocity (0 - 127): 74
0    |  MIDI Event: Chan 1 Note ON: B3, Velocity (0 - 127): 94
0    |  MIDI Event: Chan 1 Note ON: D4, Velocity (0 - 127): 91
0    |  MIDI Event: Chan 2 Note ON: G1, Velocity (0 - 127): 100
0    |  MIDI Event: Chan 3 Note ON: G2, Velocity (0 - 127): 120
0    |  MIDI Event: Chan 4 Note ON: G3, Velocity (0 - 127): 120
0    |  MIDI Event: Chan 5 Note ON: G2, Velocity (0 - 127): 98
0    |  MIDI Event: Chan 5 Note ON: D3, Velocity (0 - 127): 116
0    |  MIDI Event: Chan 10 Note ON: B1, Velocity (0 - 127): 120
0    |  MIDI Event: Chan 13 Control/Mode Change: Sound Controller 5 (default: Brightness) (0-127): 51
0    |  MIDI Event: Chan 13 Control/Mode Change: Expression Control (0-127): 35
0    |  Meta Event: Lyric: know 
15   |  MIDI Event: Chan 13 Control/Mode Change: Sound Controller 5 (default: Brightness) (0-127): 53
0    |  MIDI Event: Chan 13 Control/Mode Change: Expression Control (0-127): 37
14   |  MIDI Event: Chan 10 Note OFF: B1, Velocity (0 - 127): 64
1    |  MIDI Event: Chan 13 Control/Mode Change: Sound Controller 5 (default: Brightness) (0-127): 55
0    |  MIDI Event: Chan 13 Control/Mode Change: Expression Control (0-127): 39
15   |  MIDI Event: Chan 13 Control/Mode Change: Sound Controller 5 (default: Brightness) (0-127): 57
0    |  MIDI Event: Chan 13 Control/Mode Change: Expression Control (0-127): 41
14   |  MIDI Event: Chan 5 Note OFF: D3, Velocity (0 - 127): 64
0    |  MIDI Event: Chan 1 Note OFF: D4, Velocity (0 - 127): 64
0    |  MIDI Event: Chan 1 Note OFF: B3, Velocity (0 - 127): 64
0    |  MIDI Event: Chan 5 Note OFF: G2, Velocity (0 - 127): 64
0    |  MIDI Event: Chan 1 Note OFF: G3, Velocity (0 - 127): 64
1    |  MIDI Event: Chan 1 Note ON: B3, Velocity (0 - 127): 70
0    |  MIDI Event: Chan 1 Note ON: D4, Velocity (0 - 127): 94
0    |  MIDI Event: Chan 1 Note ON: G4, Velocity (0 - 127): 101
0    |  MIDI Event: Chan 5 Note ON: D3, Velocity (0 - 127): 79
0    |  MIDI Event: Chan 5 Note ON: G3, Velocity (0 - 127): 111
0    |  MIDI Event: Chan 5 Note ON: B3, Velocity (0 - 127): 100
0    |  MIDI Event: Chan 10 Note ON: D#2, Velocity (0 - 127): 120
0    |  MIDI Event: Chan 13 Control/Mode Change: Sound Controller 5 (default: Brightness) (0-127): 60
0    |  MIDI Event: Chan 13 Control/Mode Change: Expression Control (0-127): 43
15   |  MIDI Event: Chan 13 Control/Mode Change: Sound Controller 5 (default: Brightness) (0-127): 62
0    |  MIDI Event: Chan 13 Control/Mode Change: Expression Control (0-127): 45
14   |  MIDI Event: Chan 10 Note OFF: D#2, Velocity (0 - 127): 64
0    |  MIDI Event: Chan 4 Note OFF: G3, Velocity (0 - 127): 64
1    |  MIDI Event: Chan 4 Note ON: F#3, Velocity (0 - 127): 120
0    |  MIDI Event: Chan 13 Control/Mode Change: Sound Controller 5 (default: Brightness) (0-127): 64
0    |  MIDI Event: Chan 13 Control/Mode Change: Expression Control (0-127): 46
0    |  Meta Event: Lyric: I 
15   |  MIDI Event: Chan 13 Control/Mode Change: Sound Controller 5 (default: Brightness) (0-127): 66
0    |  MIDI Event: Chan 13 Control/Mode Change: Expression Control (0-127): 48
14   |  MIDI Event: Chan 2 Note OFF: G1, Velocity (0 - 127): 64
1    |  MIDI Event: Chan 2 Note ON: G1, Velocity (0 - 127): 100
0    |  MIDI Event: Chan 10 Note ON: B1, Velocity (0 - 127): 120
0    |  MIDI Event: Chan 13 Control/Mode Change: Sound Controller 5 (default: Brightness) (0-127): 68
0    |  MIDI Event: Chan 13 Control/Mode Change: Expression Control (0-127): 50
15   |  MIDI Event: Chan 13 Control/Mode Change: Sound Controller 5 (default: Brightness) (0-127): 70
0    |  MIDI Event: Chan 13 Control/Mode Change: Expression Control (0-127): 52
14   |  MIDI Event: Chan 10 Note OFF: B1, Velocity (0 - 127): 64
0    |  MIDI Event: Chan 1 Note OFF: B3, Velocity (0 - 127): 64
0    |  MIDI Event: Chan 5 Note OFF: B3, Velocity (0 - 127): 64
0    |  MIDI Event: Chan 5 Note OFF: G3, Velocity (0 - 127): 64
0    |  MIDI Event: Chan 5 Note OFF: D3, Velocity (0 - 127): 64
0    |  MIDI Event: Chan 1 Note OFF: D4, Velocity (0 - 127): 64
0    |  MIDI Event: Chan 4 Note OFF: F#3, Velocity (0 - 127): 64
0    |  MIDI Event: Chan 1 Note OFF: G4, Velocity (0 - 127): 64
1    |  MIDI Event: Chan 1 Note ON: B3, Velocity (0 - 127): 52
0    |  MIDI Event: Chan 1 Note ON: D4, Velocity (0 - 127): 85
0    |  MIDI Event: Chan 1 Note ON: G4, Velocity (0 - 127): 94
0    |  MIDI Event: Chan 5 Note ON: D3, Velocity (0 - 127): 82
0    |  MIDI Event: Chan 5 Note ON: G3, Velocity (0 - 127): 98
0    |  MIDI Event: Chan 5 Note ON: B3, Velocity (0 - 127): 85
0    |  MIDI Event: Chan 13 Control/Mode Change: Sound Controller 5 (default: Brightness) (0-127): 73
0    |  MIDI Event: Chan 13 Control/Mode Change: Expression Control (0-127): 54
15   |  MIDI Event: Chan 13 Control/Mode Change: Sound Controller 5 (default: Brightness) (0-127): 75
0    |  MIDI Event: Chan 13 Control/Mode Change: Expression Control (0-127): 56
14   |  MIDI Event: Chan 5 Note OFF: B3, Velocity (0 - 127): 64
0    |  MIDI Event: Chan 1 Note OFF: B3, Velocity (0 - 127): 64
0    |  MIDI Event: Chan 5 Note OFF: G3, Velocity (0 - 127): 64
0    |  MIDI Event: Chan 1 Note OFF: D4, Velocity (0 - 127): 64
0    |  MIDI Event: Chan 5 Note OFF: D3, Velocity (0 - 127): 64
0    |  MIDI Event: Chan 1 Note OFF: G4, Velocity (0 - 127): 64
1    |  MIDI Event: Chan 1 Note ON: D4, Velocity (0 - 127): 78
0    |  MIDI Event: Chan 1 Note ON: G4, Velocity (0 - 127): 100
0    |  MIDI Event: Chan 1 Note ON: B4, Velocity (0 - 127): 46
0    |  MIDI Event: Chan 4 Note ON: E3, Velocity (0 - 127): 111
0    |  MIDI Event: Chan 5 Note ON: G2, Velocity (0 - 127): 109
0    |  MIDI Event: Chan 5 Note ON: D3, Velocity (0 - 127): 109
0    |  MIDI Event: Chan 10 Note ON: D#2, Velocity (0 - 127): 120
0    |  MIDI Event: Chan 13 Control/Mode Change: Sound Controller 5 (default: Brightness) (0-127): 77
0    |  MIDI Event: Chan 13 Control/Mode Change: Expression Control (0-127): 58
0    |  Meta Event: Lyric: was 
15   |  MIDI Event: Chan 13 Control/Mode Change: Sound Controller 5 (default: Brightness) (0-127): 79
0    |  MIDI Event: Chan 13 Control/Mode Change: Expression Control (0-127): 60
14   |  MIDI Event: Chan 10 Note OFF: D#2, Velocity (0 - 127): 64
0    |  MIDI Event: Chan 5 Note OFF: D3, Velocity (0 - 127): 64
0    |  MIDI Event: Chan 4 Note OFF: E3, Velocity (0 - 127): 64
0    |  MIDI Event: Chan 1 Note OFF: D4, Velocity (0 - 127): 64
0    |  MIDI Event: Chan 1 Note OFF: G4, Velocity (0 - 127): 64
0    |  MIDI Event: Chan 5 Note OFF: G2, Velocity (0 - 127): 64
0    |  MIDI Event: Chan 1 Note OFF: B4, Velocity (0 - 127): 64
1    |  MIDI Event: Chan 1 Note ON: B3, Velocity (0 - 127): 45
0    |  MIDI Event: Chan 1 Note ON: D4, Velocity (0 - 127): 73
0    |  MIDI Event: Chan 1 Note ON: G4, Velocity (0 - 127): 86
0    |  MIDI Event: Chan 5 Note ON: G2, Velocity (0 - 127): 101
0    |  MIDI Event: Chan 5 Note ON: E3, Velocity (0 - 127): 116
0    |  MIDI Event: Chan 13 Control/Mode Change: Sound Controller 5 (default: Brightness) (0-127): 81
0    |  MIDI Event: Chan 13 Control/Mode Change: Expression Control (0-127): 62
15   |  MIDI Event: Chan 13 Control/Mode Change: Sound Controller 5 (default: Brightness) (0-127): 83
0    |  MIDI Event: Chan 13 Control/Mode Change: Expression Control (0-127): 64
14   |  MIDI Event: Chan 5 Note OFF: E3, Velocity (0 - 127): 64
0    |  MIDI Event: Chan 2 Note OFF: G1, Velocity (0 - 127): 64
0    |  MIDI Event: Chan 1 Note OFF: D4, Velocity (0 - 127): 64
0    |  MIDI Event: Chan 5 Note OFF: G2, Velocity (0 - 127): 64
0    |  MIDI Event: Chan 3 Note OFF: G2, Velocity (0 - 127): 64
0    |  MIDI Event: Chan 1 Note OFF: B3, Velocity (0 - 127): 64
0    |  MIDI Event: Chan 1 Note OFF: G4, Velocity (0 - 127): 64
1    |  MIDI Event: Chan 1 Control/Mode Change: Sound Controller 5 (default: Brightness) (0-127): 64
0    |  MIDI Event: Chan 1 Note ON: F#3, Velocity (0 - 127): 35
0    |  MIDI Event: Chan 1 Note ON: A3, Velocity (0 - 127): 85
0    |  MIDI Event: Chan 1 Note ON: D4, Velocity (0 - 127): 79
0    |  MIDI Event: Chan 3 Note ON: D2, Velocity (0 - 127): 120
0    |  MIDI Event: Chan 4 Note ON: D3, Velocity (0 - 127): 119
0    |  MIDI Event: Chan 5 Control/Mode Change: Sound Controller 5 (default: Brightness) (0-127): 64
0    |  MIDI Event: Chan 5 Note ON: A2, Velocity (0 - 127): 90
0    |  MIDI Event: Chan 5 Note ON: D3, Velocity (0 - 127): 105
0    |  MIDI Event: Chan 9 Note ON: D3, Velocity (0 - 127): 120
0    |  MIDI Event: Chan 9 Note ON: D4, Velocity (0 - 127): 120
0    |  MIDI Event: Chan 13 Control/Mode Change: Sound Controller 5 (default: Brightness) (0-127): 85
0    |  MIDI Event: Chan 13 Control/Mode Change: Expression Control (0-127): 66
0    |  Meta Event: Lyric: lost 
0    |  Meta Event: Lyric: 
15   |  MIDI Event: Chan 1 Control/Mode Change: Sound Controller 5 (default: Brightness) (0-127): 67
0    |  MIDI Event: Chan 5 Control/Mode Change: Sound Controller 5 (default: Brightness) (0-127): 67
0    |  MIDI Event: Chan 13 Control/Mode Change: Sound Controller 5 (default: Brightness) (0-127): 88
0    |  MIDI Event: Chan 13 Control/Mode Change: Expression Control (0-127): 68
15   |  MIDI Event: Chan 1 Control/Mode Change: Sound Controller 5 (default: Brightness) (0-127): 70
0    |  MIDI Event: Chan 5 Control/Mode Change: Sound Controller 5 (default: Brightness) (0-127): 70
0    |  MIDI Event: Chan 13 Control/Mode Change: Sound Controller 5 (default: Brightness) (0-127): 90
0    |  MIDI Event: Chan 13 Control/Mode Change: Expression Control (0-127): 70
15   |  MIDI Event: Chan 1 Control/Mode Change: Sound Controller 5 (default: Brightness) (0-127): 73
0    |  MIDI Event: Chan 5 Control/Mode Change: Sound Controller 5 (default: Brightness) (0-127): 73
0    |  MIDI Event: Chan 13 Control/Mode Change: Sound Controller 5 (default: Brightness) (0-127): 92
0    |  MIDI Event: Chan 13 Control/Mode Change: Expression Control (0-127): 72
14   |  MIDI Event: Chan 5 Note OFF: D3, Velocity (0 - 127): 64
0    |  MIDI Event: Chan 5 Note OFF: A2, Velocity (0 - 127): 64
0    |  MIDI Event: Chan 1 Note OFF: A3, Velocity (0 - 127): 64
0    |  MIDI Event: Chan 1 Note OFF: D4, Velocity (0 - 127): 64
0    |  MIDI Event: Chan 1 Note OFF: F#3, Velocity (0 - 127): 64
1    |  MIDI Event: Chan 1 Control/Mode Change: Sound Controller 5 (default: Brightness) (0-127): 76
0    |  MIDI Event: Chan 1 Note ON: A3, Velocity (0 - 127): 69
0    |  MIDI Event: Chan 1 Note ON: D4, Velocity (0 - 127): 98
0    |  MIDI Event: Chan 1 Note ON: F#4, Velocity (0 - 127): 74
0    |  MIDI Event: Chan 5 Control/Mode Change: Sound Controller 5 (default: Brightness) (0-127): 76
0    |  MIDI Event: Chan 5 Note ON: A2, Velocity (0 - 127): 100
0    |  MIDI Event: Chan 5 Note ON: D3, Velocity (0 - 127): 111
0    |  MIDI Event: Chan 5 Note ON: F#3, Velocity (0 - 127): 89
0    |  MIDI Event: Chan 10 Note ON: D#2, Velocity (0 - 127): 120
0    |  MIDI Event: Chan 13 Control/Mode Change: Sound Controller 5 (default: Brightness) (0-127): 94
0    |  MIDI Event: Chan 13 Control/Mode Change: Expression Control (0-127): 74
15   |  MIDI Event: Chan 1 Control/Mode Change: Sound Controller 5 (default: Brightness) (0-127): 79
0    |  MIDI Event: Chan 5 Control/Mode Change: Sound Controller 5 (default: Brightness) (0-127): 79
0    |  MIDI Event: Chan 13 Control/Mode Change: Sound Controller 5 (default: Brightness) (0-127): 96
0    |  MIDI Event: Chan 13 Control/Mode Change: Expression Control (0-127): 76
14   |  MIDI Event: Chan 10 Note OFF: D#2, Velocity (0 - 127): 64
1    |  MIDI Event: Chan 1 Control/Mode Change: Sound Controller 5 (default: Brightness) (0-127): 82
0    |  MIDI Event: Chan 5 Control/Mode Change: Sound Controller 5 (default: Brightness) (0-127): 82
0    |  MIDI Event: Chan 13 Control/Mode Change: Sound Controller 5 (default: Brightness) (0-127): 98
0    |  MIDI Event: Chan 13 Control/Mode Change: Expression Control (0-127): 78
15   |  MIDI Event: Chan 1 Control/Mode Change: Sound Controller 5 (default: Brightness) (0-127): 85
0    |  MIDI Event: Chan 5 Control/Mode Change: Sound Controller 5 (default: Brightness) (0-127): 85
0    |  MIDI Event: Chan 13 Control/Mode Change: Sound Controller 5 (default: Brightness) (0-127): 101
0    |  MIDI Event: Chan 13 Control/Mode Change: Expression Control (0-127): 80
15   |  MIDI Event: Chan 1 Control/Mode Change: Sound Controller 5 (default: Brightness) (0-127): 88
0    |  MIDI Event: Chan 5 Control/Mode Change: Sound Controller 5 (default: Brightness) (0-127): 88
0    |  MIDI Event: Chan 13 Control/Mode Change: Sound Controller 5 (default: Brightness) (0-127): 103
0    |  MIDI Event: Chan 13 Control/Mode Change: Expression Control (0-127): 82
15   |  MIDI Event: Chan 1 Control/Mode Change: Sound Controller 5 (default: Brightness) (0-127): 91
0    |  MIDI Event: Chan 5 Control/Mode Change: Sound Controller 5 (default: Brightness) (0-127): 91
0    |  MIDI Event: Chan 13 Control/Mode Change: Sound Controller 5 (default: Brightness) (0-127): 105
0    |  MIDI Event: Chan 13 Control/Mode Change: Expression Control (0-127): 84
14   |  MIDI Event: Chan 5 Note OFF: D3, Velocity (0 - 127): 64
0    |  MIDI Event: Chan 1 Note OFF: F#4, Velocity (0 - 127): 64
0    |  MIDI Event: Chan 1 Note OFF: D4, Velocity (0 - 127): 64
0    |  MIDI Event: Chan 5 Note OFF: A2, Velocity (0 - 127): 64
0    |  MIDI Event: Chan 5 Note OFF: F#3, Velocity (0 - 127): 64
0    |  MIDI Event: Chan 1 Note OFF: A3, Velocity (0 - 127): 64
1    |  MIDI Event: Chan 1 Control/Mode Change: Sound Controller 5 (default: Brightness) (0-127): 94
0    |  MIDI Event: Chan 1 Note ON: F#3, Velocity (0 - 127): 44
0    |  MIDI Event: Chan 1 Note ON: A3, Velocity (0 - 127): 78
0    |  MIDI Event: Chan 1 Note ON: D4, Velocity (0 - 127): 58
0    |  MIDI Event: Chan 5 Control/Mode Change: Sound Controller 5 (default: Brightness) (0-127): 94
0    |  MIDI Event: Chan 5 Note ON: A2, Velocity (0 - 127): 85
0    |  MIDI Event: Chan 5 Note ON: D3, Velocity (0 - 127): 105
0    |  MIDI Event: Chan 5 Note ON: F#3, Velocity (0 - 127): 81
0    |  MIDI Event: Chan 13 Control/Mode Change: Sound Controller 5 (default: Brightness) (0-127): 107
0    |  MIDI Event: Chan 13 Control/Mode Change: Expression Control (0-127): 86
15   |  MIDI Event: Chan 1 Control/Mode Change: Sound Controller 5 (default: Brightness) (0-127): 97
0    |  MIDI Event: Chan 5 Control/Mode Change: Sound Controller 5 (default: Brightness) (0-127): 97
0    |  MIDI Event: Chan 13 Control/Mode Change: Sound Controller 5 (default: Brightness) (0-127): 109
0    |  MIDI Event: Chan 13 Control/Mode Change: Expression Control (0-127): 87
14   |  MIDI Event: Chan 5 Note OFF: F#3, Velocity (0 - 127): 64
0    |  MIDI Event: Chan 1 Note OFF: D4, Velocity (0 - 127): 64
0    |  MIDI Event: Chan 5 Note OFF: D3, Velocity (0 - 127): 64
0    |  MIDI Event: Chan 1 Note OFF: A3, Velocity (0 - 127): 64
0    |  MIDI Event: Chan 5 Note OFF: A2, Velocity (0 - 127): 64
0    |  MIDI Event: Chan 1 Note OFF: F#3, Velocity (0 - 127): 64
1    |  MIDI Event: Chan 1 Control/Mode Change: Sound Controller 5 (default: Brightness) (0-127): 100
0    |  MIDI Event: Chan 1 Note ON: A3, Velocity (0 - 127): 57
0    |  MIDI Event: Chan 1 Note ON: D4, Velocity (0 - 127): 91
0    |  MIDI Event: Chan 1 Note ON: F#4, Velocity (0 - 127): 77
0    |  MIDI Event: Chan 5 Control/Mode Change: Sound Controller 5 (default: Brightness) (0-127): 100
0    |  MIDI Event: Chan 5 Note ON: D3, Velocity (0 - 127): 109
0    |  MIDI Event: Chan 5 Note ON: F#3, Velocity (0 - 127): 89
0    |  MIDI Event: Chan 5 Note ON: A3, Velocity (0 - 127): 109
0    |  MIDI Event: Chan 10 Note ON: D#2, Velocity (0 - 127): 120
0    |  MIDI Event: Chan 13 Control/Mode Change: Sound Controller 5 (default: Brightness) (0-127): 111
0    |  MIDI Event: Chan 13 Control/Mode Change: Expression Control (0-127): 89
15   |  MIDI Event: Chan 1 Control/Mode Change: Sound Controller 5 (default: Brightness) (0-127): 103
0    |  MIDI Event: Chan 5 Control/Mode Change: Sound Controller 5 (default: Brightness) (0-127): 103
0    |  MIDI Event: Chan 13 Control/Mode Change: Sound Controller 5 (default: Brightness) (0-127): 114
0    |  MIDI Event: Chan 13 Control/Mode Change: Expression Control (0-127): 91
14   |  MIDI Event: Chan 10 Note OFF: D#2, Velocity (0 - 127): 64
0    |  MIDI Event: Chan 5 Note OFF: F#3, Velocity (0 - 127): 64
0    |  MIDI Event: Chan 1 Note OFF: F#4, Velocity (0 - 127): 64
0    |  MIDI Event: Chan 1 Note OFF: D4, Velocity (0 - 127): 64
0    |  MIDI Event: Chan 5 Note OFF: D3, Velocity (0 - 127): 64
0    |  MIDI Event: Chan 5 Note OFF: A3, Velocity (0 - 127): 64
0    |  MIDI Event: Chan 1 Note OFF: A3, Velocity (0 - 127): 64
1    |  MIDI Event: Chan 1 Control/Mode Change: Sound Controller 5 (default: Brightness) (0-127): 106
0    |  MIDI Event: Chan 1 Note ON: F#3, Velocity (0 - 127): 35
0    |  MIDI Event: Chan 1 Note ON: A3, Velocity (0 - 127): 79
0    |  MIDI Event: Chan 1 Note ON: D4, Velocity (0 - 127): 56
0    |  MIDI Event: Chan 5 Control/Mode Change: Sound Controller 5 (default: Brightness) (0-127): 106
0    |  MIDI Event: Chan 5 Note ON: D3, Velocity (0 - 127): 111
0    |  MIDI Event: Chan 5 Note ON: F#3, Velocity (0 - 127): 100
0    |  MIDI Event: Chan 5 Note ON: A3, Velocity (0 - 127): 100
0    |  MIDI Event: Chan 13 Control/Mode Change: Sound Controller 5 (default: Brightness) (0-127): 116
0    |  MIDI Event: Chan 13 Control/Mode Change: Expression Control (0-127): 93
15   |  MIDI Event: Chan 1 Control/Mode Change: Sound Controller 5 (default: Brightness) (0-127): 109
0    |  MIDI Event: Chan 5 Control/Mode Change: Sound Controller 5 (default: Brightness) (0-127): 109
0    |  MIDI Event: Chan 13 Control/Mode Change: Sound Controller 5 (default: Brightness) (0-127): 118
0    |  MIDI Event: Chan 13 Control/Mode Change: Expression Control (0-127): 95
14   |  MIDI Event: Chan 5 Note OFF: A3, Velocity (0 - 127): 64
0    |  MIDI Event: Chan 1 Note OFF: D4, Velocity (0 - 127): 64
0    |  MIDI Event: Chan 5 Note OFF: F#3, Velocity (0 - 127): 64
0    |  MIDI Event: Chan 1 Note OFF: A3, Velocity (0 - 127): 64
0    |  MIDI Event: Chan 5 Note OFF: D3, Velocity (0 - 127): 64
0    |  MIDI Event: Chan 1 Note OFF: F#3, Velocity (0 - 127): 64
1    |  MIDI Event: Chan 1 Control/Mode Change: Sound Controller 5 (default: Brightness) (0-127): 112
0    |  MIDI Event: Chan 1 Note ON: F#3, Velocity (0 - 127): 49
0    |  MIDI Event: Chan 1 Note ON: A3, Velocity (0 - 127): 85
0    |  MIDI Event: Chan 1 Note ON: D4, Velocity (0 - 127): 75
0    |  MIDI Event: Chan 5 Control/Mode Change: Sound Controller 5 (default: Brightness) (0-127): 112
0    |  MIDI Event: Chan 5 Note ON: A2, Velocity (0 - 127): 105
0    |  MIDI Event: Chan 5 Note ON: D3, Velocity (0 - 127): 116
0    |  MIDI Event: Chan 11 Note ON: C5, Velocity (0 - 127): 120
0    |  MIDI Event: Chan 13 Control/Mode Change: Sound Controller 5 (default: Brightness) (0-127): 120
0    |  MIDI Event: Chan 13 Control/Mode Change: Expression Control (0-127): 97
15   |  MIDI Event: Chan 1 Control/Mode Change: Sound Controller 5 (default: Brightness) (0-127): 115
0    |  MIDI Event: Chan 5 Control/Mode Change: Sound Controller 5 (default: Brightness) (0-127): 115
0    |  MIDI Event: Chan 13 Control/Mode Change: Sound Controller 5 (default: Brightness) (0-127): 122
0    |  MIDI Event: Chan 13 Control/Mode Change: Expression Control (0-127): 99
15   |  MIDI Event: Chan 1 Control/Mode Change: Sound Controller 5 (default: Brightness) (0-127): 118
0    |  MIDI Event: Chan 5 Control/Mode Change: Sound Controller 5 (default: Brightness) (0-127): 118
0    |  MIDI Event: Chan 13 Control/Mode Change: Sound Controller 5 (default: Brightness) (0-127): 124
0    |  MIDI Event: Chan 13 Control/Mode Change: Expression Control (0-127): 101
15   |  MIDI Event: Chan 1 Control/Mode Change: Sound Controller 5 (default: Brightness) (0-127): 121
0    |  MIDI Event: Chan 5 Control/Mode Change: Sound Controller 5 (default: Brightness) (0-127): 121
0    |  MIDI Event: Chan 13 Control/Mode Change: Sound Controller 5 (default: Brightness) (0-127): 127
0    |  MIDI Event: Chan 13 Control/Mode Change: Expression Control (0-127): 103
14   |  MIDI Event: Chan 5 Note OFF: D3, Velocity (0 - 127): 64
0    |  MIDI Event: Chan 5 Note OFF: A2, Velocity (0 - 127): 64
0    |  MIDI Event: Chan 1 Note OFF: A3, Velocity (0 - 127): 64
0    |  MIDI Event: Chan 1 Note OFF: D4, Velocity (0 - 127): 64
0    |  MIDI Event: Chan 1 Note OFF: F#3, Velocity (0 - 127): 64
0    |  MIDI Event: Chan 4 Note OFF: D3, Velocity (0 - 127): 64
1    |  MIDI Event: Chan 1 Control/Mode Change: Sound Controller 5 (default: Brightness) (0-127): 124
0    |  MIDI Event: Chan 1 Note ON: A3, Velocity (0 - 127): 56
0    |  MIDI Event: Chan 1 Note ON: D4, Velocity (0 - 127): 84
0    |  MIDI Event: Chan 1 Note ON: F#4, Velocity (0 - 127): 49
0    |  MIDI Event: Chan 5 Control/Mode Change: Sound Controller 5 (default: Brightness) (0-127): 124
0    |  MIDI Event: Chan 5 Note ON: D3, Velocity (0 - 127): 105
0    |  MIDI Event: Chan 5 Note ON: F#3, Velocity (0 - 127): 115
0    |  MIDI Event: Chan 13 Control/Mode Change: Expression Control (0-127): 105
15   |  MIDI Event: Chan 1 Control/Mode Change: Sound Controller 5 (default: Brightness) (0-127): 127
0    |  MIDI Event: Chan 5 Control/Mode Change: Sound Controller 5 (default: Brightness) (0-127): 127
0    |  MIDI Event: Chan 13 Control/Mode Change: Expression Control (0-127): 107
14   |  MIDI Event: Chan 5 Note OFF: F#3, Velocity (0 - 127): 64
0    |  MIDI Event: Chan 5 Note OFF: D3, Velocity (0 - 127): 64
0    |  MIDI Event: Chan 1 Note OFF: D4, Velocity (0 - 127): 64
0    |  MIDI Event: Chan 1 Note OFF: F#4, Velocity (0 - 127): 64
0    |  MIDI Event: Chan 1 Note OFF: A3, Velocity (0 - 127): 64
1    |  MIDI Event: Chan 1 Note ON: A3, Velocity (0 - 127): 84
0    |  MIDI Event: Chan 1 Note ON: D4, Velocity (0 - 127): 94
0    |  MIDI Event: Chan 1 Note ON: F#4, Velocity (0 - 127): 76
0    |  MIDI Event: Chan 5 Note ON: D3, Velocity (0 - 127): 100
0    |  MIDI Event: Chan 5 Note ON: F#3, Velocity (0 - 127): 92
0    |  MIDI Event: Chan 13 Control/Mode Change: Expression Control (0-127): 109
15   |  MIDI Event: Chan 13 Control/Mode Change: Expression Control (0-127): 111
14   |  MIDI Event: Chan 5 Note OFF: F#3, Velocity (0 - 127): 64
0    |  MIDI Event: Chan 5 Note OFF: D3, Velocity (0 - 127): 64
0    |  MIDI Event: Chan 1 Note OFF: D4, Velocity (0 - 127): 64
0    |  MIDI Event: Chan 1 Note OFF: F#4, Velocity (0 - 127): 64
0    |  MIDI Event: Chan 3 Note OFF: D2, Velocity (0 - 127): 64
0    |  MIDI Event: Chan 1 Note OFF: A3, Velocity (0 - 127): 64
1    |  MIDI Event: Chan 1 Note ON: E3, Velocity (0 - 127): 47
0    |  MIDI Event: Chan 1 Note ON: A3, Velocity (0 - 127): 89
0    |  MIDI Event: Chan 1 Note ON: C#4, Velocity (0 - 127): 52
0    |  MIDI Event: Chan 5 Note ON: A2, Velocity (0 - 127): 101
0    |  MIDI Event: Chan 5 Note ON: E3, Velocity (0 - 127): 101
0    |  MIDI Event: Chan 13 Control/Mode Change: Expression Control (0-127): 113
15   |  MIDI Event: Chan 13 Control/Mode Change: Expression Control (0-127): 115
15   |  MIDI Event: Chan 13 Control/Mode Change: Expression Control (0-127): 117
15   |  MIDI Event: Chan 13 Control/Mode Change: Expression Control (0-127): 119
14   |  MIDI Event: Chan 5 Note OFF: E3, Velocity (0 - 127): 64
0    |  MIDI Event: Chan 5 Note OFF: A2, Velocity (0 - 127): 64
0    |  MIDI Event: Chan 1 Note OFF: C#4, Velocity (0 - 127): 64
0    |  MIDI Event: Chan 1 Note OFF: E3, Velocity (0 - 127): 64
0    |  MIDI Event: Chan 1 Note OFF: A3, Velocity (0 - 127): 64
1    |  MIDI Event: Chan 1 Note ON: A3, Velocity (0 - 127): 51
0    |  MIDI Event: Chan 1 Note ON: C#4, Velocity (0 - 127): 52
0    |  MIDI Event: Chan 1 Note ON: E4, Velocity (0 - 127): 78
0    |  MIDI Event: Chan 5 Note ON: C#3, Velocity (0 - 127): 89
0    |  MIDI Event: Chan 5 Note ON: E3, Velocity (0 - 127): 101
0    |  MIDI Event: Chan 5 Note ON: A3, Velocity (0 - 127): 89
0    |  MIDI Event: Chan 13 Control/Mode Change: Expression Control (0-127): 121
15   |  MIDI Event: Chan 13 Control/Mode Change: Expression Control (0-127): 123
14   |  MIDI Event: Chan 5 Note OFF: A3, Velocity (0 - 127): 64
0    |  MIDI Event: Chan 5 Note OFF: E3, Velocity (0 - 127): 64
0    |  MIDI Event: Chan 1 Note OFF: E4, Velocity (0 - 127): 64
0    |  MIDI Event: Chan 5 Note OFF: C#3, Velocity (0 - 127): 64
0    |  MIDI Event: Chan 1 Note OFF: A3, Velocity (0 - 127): 64
0    |  MIDI Event: Chan 1 Note OFF: C#4, Velocity (0 - 127): 64
1    |  MIDI Event: Chan 1 Note ON: A3, Velocity (0 - 127): 73
0    |  MIDI Event: Chan 1 Note ON: C#4, Velocity (0 - 127): 52
0    |  MIDI Event: Chan 1 Note ON: E4, Velocity (0 - 127): 83
0    |  MIDI Event: Chan 5 Note ON: C#3, Velocity (0 - 127): 119
0    |  MIDI Event: Chan 5 Note ON: E3, Velocity (0 - 127): 118
0    |  MIDI Event: Chan 5 Note ON: A3, Velocity (0 - 127): 105
0    |  MIDI Event: Chan 13 Control/Mode Change: Expression Control (0-127): 125
15   |  MIDI Event: Chan 13 Control/Mode Change: Expression Control (0-127): 127
14   |  MIDI Event: Chan 5 Note OFF: A3, Velocity (0 - 127): 64
0    |  MIDI Event: Chan 11 Note OFF: C5, Velocity (0 - 127): 64
0    |  MIDI Event: Chan 9 Note OFF: D3, Velocity (0 - 127): 64
0    |  MIDI Event: Chan 13 Note OFF: C3, Velocity (0 - 127): 64
0    |  MIDI Event: Chan 1 Note OFF: A3, Velocity (0 - 127): 64
0    |  MIDI Event: Chan 9 Note OFF: D4, Velocity (0 - 127): 64
0    |  MIDI Event: Chan 5 Note OFF: C#3, Velocity (0 - 127): 64
0    |  MIDI Event: Chan 1 Note OFF: E4, Velocity (0 - 127): 64
0    |  MIDI Event: Chan 1 Note OFF: C#4, Velocity (0 - 127): 64
0    |  MIDI Event: Chan 5 Note OFF: E3, Velocity (0 - 127): 64
1    |  MIDI Event: Chan 1 Control/Mode Change: Sound Controller 5 (default: Brightness) (0-127): 12
0    |  MIDI Event: Chan 1 Note ON: B3, Velocity (0 - 127): 58
0    |  MIDI Event: Chan 1 Note ON: D4, Velocity (0 - 127): 91
0    |  MIDI Event: Chan 5 Control/Mode Change: Sound Controller 5 (default: Brightness) (0-127): 12
0    |  MIDI Event: Chan 5 Note ON: B2, Velocity (0 - 127): 85
0    |  MIDI Event: Chan 5 Note ON: F#3, Velocity (0 - 127): 120
0    |  MIDI Event: Chan 5 Control/Mode Change: Effects 1 (Default==Reverb) Depth (0-127): 127
0    |  MIDI Event: Chan 6 Note ON: B3, Velocity (0 - 127): 120
0    |  MIDI Event: Chan 6 Note ON: B4, Velocity (0 - 127): 120
0    |  MIDI Event: Chan 6 Control/Mode Change: Effects 1 (Default==Reverb) Depth (0-127): 127
0    |  MIDI Event: Chan 6 Control/Mode Change: Channel Pan (0-127): 115
0    |  MIDI Event: Chan 10 Note ON: C#3, Velocity (0 - 127): 120
0    |  MIDI Event: Chan 14 Pitch Bend Change (0-16383): 8414 (factor==1.00361)
0    |  MIDI Event: Chan 14 Note ON: B2, Velocity (0 - 127): 120
0    |  MIDI Event: Chan 15 Note ON: C2, Velocity (0 - 127): 120
15   |  MIDI Event: Chan 14 Pitch Bend Change (0-16383): 8192 (factor==1)
14   |  MIDI Event: Chan 10 Note OFF: C#3, Velocity (0 - 127): 64
1    |  MIDI Event: Chan 14 Pitch Bend Change (0-16383): 7871 (factor==0.994808)
10   |  MIDI Event: Chan 6 Control/Mode Change: Channel Pan (0-127): 34
5    |  MIDI Event: Chan 14 Pitch Bend Change (0-16383): 7599 (factor==0.990429)
14   |  MIDI Event: Chan 5 Note OFF: F#3, Velocity (0 - 127): 64
0    |  MIDI Event: Chan 1 Note OFF: B3, Velocity (0 - 127): 64
0    |  MIDI Event: Chan 6 Note OFF: B3, Velocity (0 - 127): 64
0    |  MIDI Event: Chan 1 Note OFF: D4, Velocity (0 - 127): 64
0    |  MIDI Event: Chan 5 Note OFF: B2, Velocity (0 - 127): 64
0    |  MIDI Event: Chan 6 Note OFF: B4, Velocity (0 - 127): 64
1    |  MIDI Event: Chan 1 Note ON: B3, Velocity (0 - 127): 79
0    |  MIDI Event: Chan 1 Note ON: D4, Velocity (0 - 127): 95
0    |  MIDI Event: Chan 1 Note ON: F#4, Velocity (0 - 127): 74
0    |  MIDI Event: Chan 5 Note ON: D3, Velocity (0 - 127): 92
0    |  MIDI Event: Chan 5 Note ON: F#3, Velocity (0 - 127): 87
0    |  MIDI Event: Chan 5 Note ON: D4, Velocity (0 - 127): 95
0    |  MIDI Event: Chan 14 Pitch Bend Change (0-16383): 7328 (factor==0.986086)
15   |  MIDI Event: Chan 14 Pitch Bend Change (0-16383): 7057 (factor==0.981762)
5    |  MIDI Event: Chan 6 Control/Mode Change: Channel Pan (0-127): 94
10   |  MIDI Event: Chan 14 Pitch Bend Change (0-16383): 6785 (factor==0.97744)
15   |  MIDI Event: Chan 14 Pitch Bend Change (0-16383): 6514 (factor==0.973154)
15   |  MIDI Event: Chan 6 Note ON: B3, Velocity (0 - 127): 120
0    |  MIDI Event: Chan 6 Note ON: B4, Velocity (0 - 127): 120
0    |  MIDI Event: Chan 6 Control/Mode Change: Channel Pan (0-127): 12
0    |  MIDI Event: Chan 10 Note ON: A#4, Velocity (0 - 127): 111
0    |  MIDI Event: Chan 14 Pitch Bend Change (0-16383): 6242 (factor==0.968871)
8    |  MIDI Event: Chan 1 Control/Mode Change: Sound Controller 5 (default: Brightness) (0-127): 13
0    |  MIDI Event: Chan 5 Control/Mode Change: Sound Controller 5 (default: Brightness) (0-127): 13
7    |  MIDI Event: Chan 14 Pitch Bend Change (0-16383): 5971 (factor==0.964622)
14   |  MIDI Event: Chan 10 Note OFF: A#4, Velocity (0 - 127): 64
0    |  MIDI Event: Chan 1 Note OFF: B3, Velocity (0 - 127): 64
0    |  MIDI Event: Chan 5 Note OFF: D4, Velocity (0 - 127): 64
0    |  MIDI Event: Chan 1 Note OFF: D4, Velocity (0 - 127): 64
0    |  MIDI Event: Chan 5 Note OFF: F#3, Velocity (0 - 127): 64
0    |  MIDI Event: Chan 1 Note OFF: F#4, Velocity (0 - 127): 64
0    |  MIDI Event: Chan 5 Note OFF: D3, Velocity (0 - 127): 64
1    |  MIDI Event: Chan 1 Note ON: B3, Velocity (0 - 127): 71
0    |  MIDI Event: Chan 1 Note ON: D4, Velocity (0 - 127): 91
0    |  MIDI Event: Chan 1 Note ON: F#4, Velocity (0 - 127): 60
0    |  MIDI Event: Chan 5 Note ON: F#3, Velocity (0 - 127): 109
0    |  MIDI Event: Chan 5 Note ON: B3, Velocity (0 - 127): 95
0    |  MIDI Event: Chan 14 Pitch Bend Change (0-16383): 5700 (factor==0.960392)
10   |  MIDI Event: Chan 6 Control/Mode Change: Channel Pan (0-127): 115
5    |  MIDI Event: Chan 14 Pitch Bend Change (0-16383): 5428 (factor==0.956165)
14   |  MIDI Event: Chan 5 Note OFF: B3, Velocity (0 - 127): 64
0    |  MIDI Event: Chan 6 Note OFF: B3, Velocity (0 - 127): 64
0    |  MIDI Event: Chan 5 Note OFF: F#3, Velocity (0 - 127): 64
0    |  MIDI Event: Chan 1 Note OFF: B3, Velocity (0 - 127): 64
0    |  MIDI Event: Chan 1 Note OFF: F#4, Velocity (0 - 127): 64
0    |  MIDI Event: Chan 6 Note OFF: B4, Velocity (0 - 127): 64
0    |  MIDI Event: Chan 1 Note OFF: D4, Velocity (0 - 127): 64
1    |  MIDI Event: Chan 1 Note ON: D4, Velocity (0 - 127): 80
0    |  MIDI Event: Chan 1 Note ON: F#4, Velocity (0 - 127): 62
0    |  MIDI Event: Chan 1 Note ON: B4, Velocity (0 - 127): 91
0    |  MIDI Event: Chan 5 Note ON: D3, Velocity (0 - 127): 103
0    |  MIDI Event: Chan 5 Note ON: F#3, Velocity (0 - 127): 115
0    |  MIDI Event: Chan 10 Note ON: D#2, Velocity (0 - 127): 76
0    |  MIDI Event: Chan 14 Pitch Bend Change (0-16383): 5157 (factor==0.951972)
12   |  MIDI Event: Chan 1 Control/Mode Change: Sound Controller 5 (default: Brightness) (0-127): 14
0    |  MIDI Event: Chan 5 Control/Mode Change: Sound Controller 5 (default: Brightness) (0-127): 14
3    |  MIDI Event: Chan 14 Pitch Bend Change (0-16383): 4885 (factor==0.947782)
5    |  MIDI Event: Chan 6 Control/Mode Change: Channel Pan (0-127): 34
9    |  MIDI Event: Chan 10 Note OFF: D#2, Velocity (0 - 127): 64
0    |  MIDI Event: Chan 5 Note OFF: F#3, Velocity (0 - 127): 64
0    |  MIDI Event: Chan 1 Note OFF: B4, Velocity (0 - 127): 64
0    |  MIDI Event: Chan 1 Note OFF: F#4, Velocity (0 - 127): 64
0    |  MIDI Event: Chan 1 Note OFF: D4, Velocity (0 - 127): 64
0    |  MIDI Event: Chan 5 Note OFF: D3, Velocity (0 - 127): 64
1    |  MIDI Event: Chan 1 Note ON: B3, Velocity (0 - 127): 51
0    |  MIDI Event: Chan 1 Note ON: D4, Velocity (0 - 127): 85
0    |  MIDI Event: Chan 1 Note ON: F#4, Velocity (0 - 127): 59
0    |  MIDI Event: Chan 5 Note ON: B2, Velocity (0 - 127): 92
0    |  MIDI Event: Chan 5 Note ON: E3, Velocity (0 - 127): 98
0    |  MIDI Event: Chan 6 Note ON: A3, Velocity (0 - 127): 98
0    |  MIDI Event: Chan 6 Note ON: A4, Velocity (0 - 127): 98
0    |  MIDI Event: Chan 14 Pitch Bend Change (0-16383): 4614 (factor==0.943625)
15   |  MIDI Event: Chan 14 Pitch Bend Change (0-16383): 4343 (factor==0.939487)
14   |  MIDI Event: Chan 6 Note OFF: A4, Velocity (0 - 127): 64
0    |  MIDI Event: Chan 1 Note OFF: D4, Velocity (0 - 127): 64
0    |  MIDI Event: Chan 6 Note OFF: A3, Velocity (0 - 127): 64
0    |  MIDI Event: Chan 1 Note OFF: F#4, Velocity (0 - 127): 64
0    |  MIDI Event: Chan 5 Note OFF: E3, Velocity (0 - 127): 64
0    |  MIDI Event: Chan 1 Note OFF: B3, Velocity (0 - 127): 64
0    |  MIDI Event: Chan 5 Note OFF: B2, Velocity (0 - 127): 64
1    |  MIDI Event: Chan 1 Note ON: G3, Velocity (0 - 127): 74
0    |  MIDI Event: Chan 1 Note ON: B3, Velocity (0 - 127): 94
0    |  MIDI Event: Chan 1 Note ON: D4, Velocity (0 - 127): 91
0    |  MIDI Event: Chan 5 Note ON: G2, Velocity (0 - 127): 98
0    |  MIDI Event: Chan 5 Note ON: D3, Velocity (0 - 127): 116
0    |  MIDI Event: Chan 6 Note ON: B3, Velocity (0 - 127): 98
0    |  MIDI Event: Chan 6 Note ON: B4, Velocity (0 - 127): 98
0    |  MIDI Event: Chan 6 Control/Mode Change: Channel Pan (0-127): 94
0    |  MIDI Event: Chan 10 Note ON: A#4, Velocity (0 - 127): 80
0    |  MIDI Event: Chan 14 Pitch Bend Change (0-16383): 4071 (factor==0.935352)
15   |  MIDI Event: Chan 14 Pitch Bend Change (0-16383): 3800 (factor==0.931251)
1    |  MIDI Event: Chan 1 Control/Mode Change: Sound Controller 5 (default: Brightness) (0-127): 15
0    |  MIDI Event: Chan 5 Control/Mode Change: Sound Controller 5 (default: Brightness) (0-127): 15
13   |  MIDI Event: Chan 10 Note OFF: A#4, Velocity (0 - 127): 64
0    |  MIDI Event: Chan 6 Note OFF: B4, Velocity (0 - 127): 64
0    |  MIDI Event: Chan 6 Note OFF: B3, Velocity (0 - 127): 64
1    |  MIDI Event: Chan 6 Note ON: D4, Velocity (0 - 127): 54
0    |  MIDI Event: Chan 6 Note ON: D5, Velocity (0 - 127): 54
0    |  MIDI Event: Chan 14 Pitch Bend Change (0-16383): 3529 (factor==0.927167)
10   |  MIDI Event: Chan 6 Control/Mode Change: Channel Pan (0-127): 12
5    |  MIDI Event: Chan 14 Pitch Bend Change (0-16383): 3257 (factor==0.923086)
14   |  MIDI Event: Chan 6 Note OFF: D5, Velocity (0 - 127): 64
0    |  MIDI Event: Chan 5 Note OFF: D3, Velocity (0 - 127): 64
0    |  MIDI Event: Chan 6 Note OFF: D4, Velocity (0 - 127): 64
0    |  MIDI Event: Chan 1 Note OFF: D4, Velocity (0 - 127): 64
0    |  MIDI Event: Chan 1 Note OFF: B3, Velocity (0 - 127): 64
0    |  MIDI Event: Chan 1 Note OFF: G3, Velocity (0 - 127): 64
0    |  MIDI Event: Chan 5 Note OFF: G2, Velocity (0 - 127): 64
1    |  MIDI Event: Chan 1 Note ON: B3, Velocity (0 - 127): 70
0    |  MIDI Event: Chan 1 Note ON: D4, Velocity (0 - 127): 94
0    |  MIDI Event: Chan 1 Note ON: G4, Velocity (0 - 127): 101
0    |  MIDI Event: Chan 5 Note ON: D3, Velocity (0 - 127): 79
0    |  MIDI Event: Chan 5 Note ON: G3, Velocity (0 - 127): 111
0    |  MIDI Event: Chan 5 Note ON: B3, Velocity (0 - 127): 100
0    |  MIDI Event: Chan 6 Note ON: B3, Velocity (0 - 127): 116
0    |  MIDI Event: Chan 6 Note ON: B4, Velocity (0 - 127): 116
0    |  MIDI Event: Chan 10 Note ON: D#2, Velocity (0 - 127): 80
0    |  MIDI Event: Chan 14 Pitch Bend Change (0-16383): 2986 (factor==0.919038)
15   |  MIDI Event: Chan 14 Pitch Bend Change (0-16383): 2714 (factor==0.914993)
5    |  MIDI Event: Chan 1 Control/Mode Change: Sound Controller 5 (default: Brightness) (0-127): 16
0    |  MIDI Event: Chan 5 Control/Mode Change: Sound Controller 5 (default: Brightness) (0-127): 16
0    |  MIDI Event: Chan 6 Control/Mode Change: Channel Pan (0-127): 115
9    |  MIDI Event: Chan 10 Note OFF: D#2, Velocity (0 - 127): 64
1    |  MIDI Event: Chan 14 Pitch Bend Change (0-16383): 2443 (factor==0.91098)
15   |  MIDI Event: Chan 14 Pitch Bend Change (0-16383): 2172 (factor==0.906985)
14   |  MIDI Event: Chan 6 Note OFF: B4, Velocity (0 - 127): 64
0    |  MIDI Event: Chan 6 Note OFF: B3, Velocity (0 - 127): 64
1    |  MIDI Event: Chan 6 Control/Mode Change: Channel Pan (0-127): 34
0    |  MIDI Event: Chan 10 Note ON: A#4, Velocity (0 - 127): 80
0    |  MIDI Event: Chan 14 Pitch Bend Change (0-16383): 1900 (factor==0.902993)
15   |  MIDI Event: Chan 14 Pitch Bend Change (0-16383): 1629 (factor==0.899033)
9    |  MIDI Event: Chan 1 Control/Mode Change: Sound Controller 5 (default: Brightness) (0-127): 17
0    |  MIDI Event: Chan 5 Control/Mode Change: Sound Controller 5 (default: Brightness) (0-127): 17
5    |  MIDI Event: Chan 10 Note OFF: A#4, Velocity (0 - 127): 64
0    |  MIDI Event: Chan 5 Note OFF: G3, Velocity (0 - 127): 64
0    |  MIDI Event: Chan 1 Note OFF: D4, Velocity (0 - 127): 64
0    |  MIDI Event: Chan 1 Note OFF: G4, Velocity (0 - 127): 64
0    |  MIDI Event: Chan 1 Note OFF: B3, Velocity (0 - 127): 64
0    |  MIDI Event: Chan 5 Note OFF: B3, Velocity (0 - 127): 64
0    |  MIDI Event: Chan 5 Note OFF: D3, Velocity (0 - 127): 64
1    |  MIDI Event: Chan 1 Note ON: B3, Velocity (0 - 127): 52
0    |  MIDI Event: Chan 1 Note ON: D4, Velocity (0 - 127): 85
0    |  MIDI Event: Chan 1 Note ON: G4, Velocity (0 - 127): 94
0    |  MIDI Event: Chan 5 Note ON: D3, Velocity (0 - 127): 82
0    |  MIDI Event: Chan 5 Note ON: G3, Velocity (0 - 127): 98
0    |  MIDI Event: Chan 5 Note ON: B3, Velocity (0 - 127): 85
0    |  MIDI Event: Chan 6 Note ON: A3, Velocity (0 - 127): 83
0    |  MIDI Event: Chan 6 Note ON: A4, Velocity (0 - 127): 83
0    |  MIDI Event: Chan 14 Pitch Bend Change (0-16383): 1357 (factor==0.895076)
10   |  MIDI Event: Chan 6 Control/Mode Change: Channel Pan (0-127): 94
5    |  MIDI Event: Chan 14 Pitch Bend Change (0-16383): 1086 (factor==0.891151)
14   |  MIDI Event: Chan 6 Note OFF: A4, Velocity (0 - 127): 64
0    |  MIDI Event: Chan 1 Note OFF: B3, Velocity (0 - 127): 64
0    |  MIDI Event: Chan 1 Note OFF: D4, Velocity (0 - 127): 64
0    |  MIDI Event: Chan 6 Note OFF: A3, Velocity (0 - 127): 64
0    |  MIDI Event: Chan 1 Note OFF: G4, Velocity (0 - 127): 64
0    |  MIDI Event: Chan 5 Note OFF: G3, Velocity (0 - 127): 64
0    |  MIDI Event: Chan 5 Note OFF: B3, Velocity (0 - 127): 64
0    |  MIDI Event: Chan 5 Note OFF: D3, Velocity (0 - 127): 64
1    |  MIDI Event: Chan 1 Note ON: D4, Velocity (0 - 127): 78
0    |  MIDI Event: Chan 1 Note ON: G4, Velocity (0 - 127): 100
0    |  MIDI Event: Chan 1 Note ON: B4, Velocity (0 - 127): 46
0    |  MIDI Event: Chan 5 Note ON: G2, Velocity (0 - 127): 109
0    |  MIDI Event: Chan 5 Note ON: D3, Velocity (0 - 127): 109
0    |  MIDI Event: Chan 6 Note ON: B3, Velocity (0 - 127): 98
0    |  MIDI Event: Chan 6 Note ON: B4, Velocity (0 - 127): 98
0    |  MIDI Event: Chan 10 Note ON: D#2, Velocity (0 - 127): 80
0    |  MIDI Event: Chan 14 Pitch Bend Change (0-16383): 815 (factor==0.887243)
15   |  MIDI Event: Chan 14 Pitch Bend Change (0-16383): 543 (factor==0.883338)
5    |  MIDI Event: Chan 6 Control/Mode Change: Channel Pan (0-127): 12
8    |  MIDI Event: Chan 1 Control/Mode Change: Sound Controller 5 (default: Brightness) (0-127): 18
0    |  MIDI Event: Chan 5 Control/Mode Change: Sound Controller 5 (default: Brightness) (0-127): 18
1    |  MIDI Event: Chan 10 Note OFF: D#2, Velocity (0 - 127): 64
0    |  MIDI Event: Chan 1 Note OFF: D4, Velocity (0 - 127): 64
0    |  MIDI Event: Chan 1 Note OFF: G4, Velocity (0 - 127): 64
0    |  MIDI Event: Chan 6 Note OFF: B4, Velocity (0 - 127): 64
0    |  MIDI Event: Chan 1 Note OFF: B4, Velocity (0 - 127): 64
0    |  MIDI Event: Chan 5 Note OFF: D3, Velocity (0 - 127): 64
0    |  MIDI Event: Chan 6 Note OFF: B3, Velocity (0 - 127): 64
0    |  MIDI Event: Chan 5 Note OFF: G2, Velocity (0 - 127): 64
1    |  MIDI Event: Chan 1 Note ON: B3, Velocity (0 - 127): 45
0    |  MIDI Event: Chan 1 Note ON: D4, Velocity (0 - 127): 73
0    |  MIDI Event: Chan 1 Note ON: G4, Velocity (0 - 127): 86
0    |  MIDI Event: Chan 5 Note ON: G2, Velocity (0 - 127): 101
0    |  MIDI Event: Chan 5 Note ON: E3, Velocity (0 - 127): 116
0    |  MIDI Event: Chan 6 Note ON: A3, Velocity (0 - 127): 94
0    |  MIDI Event: Chan 6 Note ON: A4, Velocity (0 - 127): 94
0    |  MIDI Event: Chan 14 Pitch Bend Change (0-16383): 272 (factor==0.879465)
14   |  MIDI Event: Chan 14 Note OFF: B2, Velocity (0 - 127): 64
1    |  MIDI Event: Chan 14 Pitch Bend Change (0-16383): 1 (factor==0.875608)
14   |  MIDI Event: Chan 1 Note OFF: G4, Velocity (0 - 127): 64
0    |  MIDI Event: Chan 6 Note OFF: A4, Velocity (0 - 127): 64
0    |  MIDI Event: Chan 5 Note OFF: G2, Velocity (0 - 127): 64
0    |  MIDI Event: Chan 1 Note OFF: B3, Velocity (0 - 127): 64
0    |  MIDI Event: Chan 1 Note OFF: D4, Velocity (0 - 127): 64
0    |  MIDI Event: Chan 6 Note OFF: A3, Velocity (0 - 127): 64
0    |  MIDI Event: Chan 5 Note OFF: E3, Velocity (0 - 127): 64
1    |  MIDI Event: Chan 1 Note ON: F#3, Velocity (0 - 127): 35
0    |  MIDI Event: Chan 1 Note ON: A3, Velocity (0 - 127): 85
0    |  MIDI Event: Chan 1 Note ON: D4, Velocity (0 - 127): 79
0    |  MIDI Event: Chan 5 Note ON: A2, Velocity (0 - 127): 90
0    |  MIDI Event: Chan 5 Note ON: D3, Velocity (0 - 127): 105
0    |  MIDI Event: Chan 6 Note ON: D4, Velocity (0 - 127): 120
0    |  MIDI Event: Chan 6 Note ON: D5, Velocity (0 - 127): 120
0    |  MIDI Event: Chan 6 Control/Mode Change: Channel Pan (0-127): 115
0    |  MIDI Event: Chan 10 Note ON: A#4, Velocity (0 - 127): 96
20   |  MIDI Event: Chan 14 Pitch Bend Change (0-16383): 1695 (factor==0.899996)
2    |  MIDI Event: Chan 14 Pitch Bend Change (0-16383): 3955 (factor==0.933594)
3    |  MIDI Event: Chan 14 Pitch Bend Change (0-16383): 6377 (factor==0.970994)
2    |  MIDI Event: Chan 14 Pitch Bend Change (0-16383): 8152 (factor==0.999352)
2    |  MIDI Event: Chan 10 Note OFF: A#4, Velocity (0 - 127): 64
0    |  MIDI Event: Chan 14 Pitch Bend Change (0-16383): 8192 (factor==1)
3    |  MIDI Event: Chan 1 Control/Mode Change: Sound Controller 5 (default: Brightness) (0-127): 19
0    |  MIDI Event: Chan 5 Control/Mode Change: Sound Controller 5 (default: Brightness) (0-127): 19
8    |  MIDI Event: Chan 6 Control/Mode Change: Channel Pan (0-127): 34
19   |  MIDI Event: Chan 1 Note OFF: D4, Velocity (0 - 127): 64
0    |  MIDI Event: Chan 6 Note OFF: D5, Velocity (0 - 127): 64
0    |  MIDI Event: Chan 5 Note OFF: A2, Velocity (0 - 127): 64
0    |  MIDI Event: Chan 1 Note OFF: F#3, Velocity (0 - 127): 64
0    |  MIDI Event: Chan 1 Note OFF: A3, Velocity (0 - 127): 64
0    |  MIDI Event: Chan 6 Note OFF: D4, Velocity (0 - 127): 64
0    |  MIDI Event: Chan 5 Note OFF: D3, Velocity (0 - 127): 64
1    |  MIDI Event: Chan 1 Note ON: A3, Velocity (0 - 127): 69
0    |  MIDI Event: Chan 1 Note ON: D4, Velocity (0 - 127): 98
0    |  MIDI Event: Chan 1 Note ON: F#4, Velocity (0 - 127): 74
0    |  MIDI Event: Chan 5 Note ON: A2, Velocity (0 - 127): 100
0    |  MIDI Event: Chan 5 Note ON: D3, Velocity (0 - 127): 111
0    |  MIDI Event: Chan 5 Note ON: F#3, Velocity (0 - 127): 89
0    |  MIDI Event: Chan 10 Note ON: D#2, Velocity (0 - 127): 71
20   |  MIDI Event: Chan 6 Control/Mode Change: Channel Pan (0-127): 94
9    |  MIDI Event: Chan 10 Note OFF: D#2, Velocity (0 - 127): 64
7    |  MIDI Event: Chan 1 Control/Mode Change: Sound Controller 5 (default: Brightness) (0-127): 20
0    |  MIDI Event: Chan 5 Control/Mode Change: Sound Controller 5 (default: Brightness) (0-127): 20
24   |  MIDI Event: Chan 6 Note ON: D4, Velocity (0 - 127): 120
0    |  MIDI Event: Chan 6 Note ON: D5, Velocity (0 - 127): 120
0    |  MIDI Event: Chan 6 Control/Mode Change: Channel Pan (0-127): 12
0    |  MIDI Event: Chan 10 Note ON: A#4, Velocity (0 - 127): 92
29   |  MIDI Event: Chan 10 Note OFF: A#4, Velocity (0 - 127): 64
0    |  MIDI Event: Chan 1 Note OFF: D4, Velocity (0 - 127): 64
0    |  MIDI Event: Chan 5 Note OFF: F#3, Velocity (0 - 127): 64
0    |  MIDI Event: Chan 1 Note OFF: F#4, Velocity (0 - 127): 64
0    |  MIDI Event: Chan 5 Note OFF: A2, Velocity (0 - 127): 64
0    |  MIDI Event: Chan 1 Note OFF: A3, Velocity (0 - 127): 64
0    |  MIDI Event: Chan 5 Note OFF: D3, Velocity (0 - 127): 64
1    |  MIDI Event: Chan 1 Note ON: F#3, Velocity (0 - 127): 44
0    |  MIDI Event: Chan 1 Note ON: A3, Velocity (0 - 127): 78
0    |  MIDI Event: Chan 1 Note ON: D4, Velocity (0 - 127): 58
0    |  MIDI Event: Chan 5 Note ON: A2, Velocity (0 - 127): 85
0    |  MIDI Event: Chan 5 Note ON: D3, Velocity (0 - 127): 105
0    |  MIDI Event: Chan 5 Note ON: F#3, Velocity (0 - 127): 81
10   |  MIDI Event: Chan 1 Control/Mode Change: Sound Controller 5 (default: Brightness) (0-127): 21
0    |  MIDI Event: Chan 5 Control/Mode Change: Sound Controller 5 (default: Brightness) (0-127): 21
0    |  MIDI Event: Chan 6 Control/Mode Change: Channel Pan (0-127): 115
19   |  MIDI Event: Chan 5 Note OFF: F#3, Velocity (0 - 127): 64
0    |  MIDI Event: Chan 1 Note OFF: F#3, Velocity (0 - 127): 64
0    |  MIDI Event: Chan 5 Note OFF: D3, Velocity (0 - 127): 64
0    |  MIDI Event: Chan 1 Note OFF: A3, Velocity (0 - 127): 64
0    |  MIDI Event: Chan 6 Note OFF: D4, Velocity (0 - 127): 64
0    |  MIDI Event: Chan 6 Note OFF: D5, Velocity (0 - 127): 64
0    |  MIDI Event: Chan 5 Note OFF: A2, Velocity (0 - 127): 64
0    |  MIDI Event: Chan 1 Note OFF: D4, Velocity (0 - 127): 64
1    |  MIDI Event: Chan 1 Note ON: A3, Velocity (0 - 127): 57
0    |  MIDI Event: Chan 1 Note ON: D4, Velocity (0 - 127): 91
0    |  MIDI Event: Chan 1 Note ON: F#4, Velocity (0 - 127): 77
0    |  MIDI Event: Chan 5 Note ON: D3, Velocity (0 - 127): 109
0    |  MIDI Event: Chan 5 Note ON: F#3, Velocity (0 - 127): 89
0    |  MIDI Event: Chan 5 Note ON: A3, Velocity (0 - 127): 109
0    |  MIDI Event: Chan 10 Note ON: D#2, Velocity (0 - 127): 78
20   |  MIDI Event: Chan 6 Control/Mode Change: Channel Pan (0-127): 34
9    |  MIDI Event: Chan 10 Note OFF: D#2, Velocity (0 - 127): 64
0    |  MIDI Event: Chan 5 Note OFF: A3, Velocity (0 - 127): 64
0    |  MIDI Event: Chan 5 Note OFF: D3, Velocity (0 - 127): 64
0    |  MIDI Event: Chan 1 Note OFF: A3, Velocity (0 - 127): 64
0    |  MIDI Event: Chan 1 Note OFF: D4, Velocity (0 - 127): 64
0    |  MIDI Event: Chan 1 Note OFF: F#4, Velocity (0 - 127): 64
0    |  MIDI Event: Chan 5 Note OFF: F#3, Velocity (0 - 127): 64
1    |  MIDI Event: Chan 1 Note ON: F#3, Velocity (0 - 127): 35
0    |  MIDI Event: Chan 1 Note ON: A3, Velocity (0 - 127): 79
0    |  MIDI Event: Chan 1 Note ON: D4, Velocity (0 - 127): 56
0    |  MIDI Event: Chan 5 Note ON: D3, Velocity (0 - 127): 111
0    |  MIDI Event: Chan 5 Note ON: F#3, Velocity (0 - 127): 100
0    |  MIDI Event: Chan 5 Note ON: A3, Velocity (0 - 127): 100
0    |  MIDI Event: Chan 6 Note ON: D4, Velocity (0 - 127): 89
0    |  MIDI Event: Chan 6 Note ON: D5, Velocity (0 - 127): 89
14   |  MIDI Event: Chan 1 Control/Mode Change: Sound Controller 5 (default: Brightness) (0-127): 22
0    |  MIDI Event: Chan 5 Control/Mode Change: Sound Controller 5 (default: Brightness) (0-127): 22
15   |  MIDI Event: Chan 6 Note OFF: D5, Velocity (0 - 127): 64
0    |  MIDI Event: Chan 1 Note OFF: D4, Velocity (0 - 127): 64
0    |  MIDI Event: Chan 6 Note OFF: D4, Velocity (0 - 127): 64
0    |  MIDI Event: Chan 5 Note OFF: D3, Velocity (0 - 127): 64
0    |  MIDI Event: Chan 1 Note OFF: F#3, Velocity (0 - 127): 64
0    |  MIDI Event: Chan 1 Note OFF: A3, Velocity (0 - 127): 64
0    |  MIDI Event: Chan 5 Note OFF: A3, Velocity (0 - 127): 64
0    |  MIDI Event: Chan 5 Note OFF: F#3, Velocity (0 - 127): 64
1    |  MIDI Event: Chan 1 Note ON: F#3, Velocity (0 - 127): 49
0    |  MIDI Event: Chan 1 Note ON: A3, Velocity (0 - 127): 85
0    |  MIDI Event: Chan 1 Note ON: D4, Velocity (0 - 127): 75
0    |  MIDI Event: Chan 5 Note ON: A2, Velocity (0 - 127): 105
0    |  MIDI Event: Chan 5 Note ON: D3, Velocity (0 - 127): 116
0    |  MIDI Event: Chan 6 Note ON: E4, Velocity (0 - 127): 81
0    |  MIDI Event: Chan 6 Note ON: E5, Velocity (0 - 127): 81
0    |  MIDI Event: Chan 6 Control/Mode Change: Channel Pan (0-127): 94
0    |  MIDI Event: Chan 10 Note ON: A#4, Velocity (0 - 127): 92
29   |  MIDI Event: Chan 10 Note OFF: A#4, Velocity (0 - 127): 64
0    |  MIDI Event: Chan 6 Note OFF: E5, Velocity (0 - 127): 64
0    |  MIDI Event: Chan 6 Note OFF: E4, Velocity (0 - 127): 64
1    |  MIDI Event: Chan 6 Note ON: D4, Velocity (0 - 127): 95
0    |  MIDI Event: Chan 6 Note ON: D5, Velocity (0 - 127): 95
10   |  MIDI Event: Chan 6 Control/Mode Change: Channel Pan (0-127): 12
8    |  MIDI Event: Chan 1 Control/Mode Change: Sound Controller 5 (default: Brightness) (0-127): 23
0    |  MIDI Event: Chan 5 Control/Mode Change: Sound Controller 5 (default: Brightness) (0-127): 23
11   |  MIDI Event: Chan 6 Note OFF: D5, Velocity (0 - 127): 64
0    |  MIDI Event: Chan 6 Note OFF: D4, Velocity (0 - 127): 64
0    |  MIDI Event: Chan 5 Note OFF: D3, Velocity (0 - 127): 64
0    |  MIDI Event: Chan 1 Note OFF: F#3, Velocity (0 - 127): 64
0    |  MIDI Event: Chan 1 Note OFF: A3, Velocity (0 - 127): 64
0    |  MIDI Event: Chan 1 Note OFF: D4, Velocity (0 - 127): 64
0    |  MIDI Event: Chan 5 Note OFF: A2, Velocity (0 - 127): 64
1    |  MIDI Event: Chan 1 Note ON: A3, Velocity (0 - 127): 56
0    |  MIDI Event: Chan 1 Note ON: D4, Velocity (0 - 127): 84
0    |  MIDI Event: Chan 1 Note ON: F#4, Velocity (0 - 127): 49
0    |  MIDI Event: Chan 5 Note ON: D3, Velocity (0 - 127): 105
0    |  MIDI Event: Chan 5 Note ON: F#3, Velocity (0 - 127): 115
0    |  MIDI Event: Chan 6 Note ON: E4, Velocity (0 - 127): 111
0    |  MIDI Event: Chan 6 Note ON: E5, Velocity (0 - 127): 111
0    |  MIDI Event: Chan 10 Note ON: D#2, Velocity (0 - 127): 81
20   |  MIDI Event: Chan 6 Control/Mode Change: Channel Pan (0-127): 115
9    |  MIDI Event: Chan 10 Note OFF: D#2, Velocity (0 - 127): 64
0    |  MIDI Event: Chan 5 Note OFF: F#3, Velocity (0 - 127): 64
0    |  MIDI Event: Chan 1 Note OFF: F#4, Velocity (0 - 127): 64
0    |  MIDI Event: Chan 1 Note OFF: D4, Velocity (0 - 127): 64
0    |  MIDI Event: Chan 1 Note OFF: A3, Velocity (0 - 127): 64
0    |  MIDI Event: Chan 5 Note OFF: D3, Velocity (0 - 127): 64
1    |  MIDI Event: Chan 1 Note ON: A3, Velocity (0 - 127): 84
0    |  MIDI Event: Chan 1 Note ON: D4, Velocity (0 - 127): 94
0    |  MIDI Event: Chan 1 Note ON: F#4, Velocity (0 - 127): 76
0    |  MIDI Event: Chan 5 Note ON: D3, Velocity (0 - 127): 100
0    |  MIDI Event: Chan 5 Note ON: F#3, Velocity (0 - 127): 92
21   |  MIDI Event: Chan 6 Pitch Bend Change (0-16383): 7749 (factor==0.992841)
1    |  MIDI Event: Chan 1 Control/Mode Change: Sound Controller 5 (default: Brightness) (0-127): 24
0    |  MIDI Event: Chan 5 Control/Mode Change: Sound Controller 5 (default: Brightness) (0-127): 24
1    |  MIDI Event: Chan 6 Pitch Bend Change (0-16383): 6215 (factor==0.968447)
3    |  MIDI Event: Chan 6 Pitch Bend Change (0-16383): 4197 (factor==0.937266)
2    |  MIDI Event: Chan 6 Pitch Bend Change (0-16383): 2422 (factor==0.91067)
1    |  MIDI Event: Chan 5 Note OFF: F#3, Velocity (0 - 127): 64
0    |  MIDI Event: Chan 6 Note OFF: E4, Velocity (0 - 127): 64
0    |  MIDI Event: Chan 1 Note OFF: D4, Velocity (0 - 127): 64
0    |  MIDI Event: Chan 5 Note OFF: D3, Velocity (0 - 127): 64
0    |  MIDI Event: Chan 6 Note OFF: E5, Velocity (0 - 127): 64
0    |  MIDI Event: Chan 1 Note OFF: A3, Velocity (0 - 127): 64
0    |  MIDI Event: Chan 1 Note OFF: F#4, Velocity (0 - 127): 64
1    |  MIDI Event: Chan 1 Note ON: E3, Velocity (0 - 127): 47
0    |  MIDI Event: Chan 1 Note ON: A3, Velocity (0 - 127): 89
0    |  MIDI Event: Chan 1 Note ON: C#4, Velocity (0 - 127): 52
0    |  MIDI Event: Chan 5 Note ON: A2, Velocity (0 - 127): 101
0    |  MIDI Event: Chan 5 Note ON: E3, Velocity (0 - 127): 101
0    |  MIDI Event: Chan 6 Note ON: F#4, Velocity (0 - 127): 119
0    |  MIDI Event: Chan 6 Note ON: F#5, Velocity (0 - 127): 119
0    |  MIDI Event: Chan 6 Control/Mode Change: Channel Pan (0-127): 34
0    |  MIDI Event: Chan 10 Note ON: A#4, Velocity (0 - 127): 92
1    |  MIDI Event: Chan 6 Pitch Bend Change (0-16383): 1211 (factor==0.89296)
2    |  MIDI Event: Chan 6 Pitch Bend Change (0-16383): 646 (factor==0.884815)
3    |  MIDI Event: Chan 6 Pitch Bend Change (0-16383): 565 (factor==0.883653)
2    |  MIDI Event: Chan 6 Pitch Bend Change (0-16383): 646 (factor==0.884815)
3    |  MIDI Event: Chan 6 Pitch Bend Change (0-16383): 1373 (factor==0.895309)
2    |  MIDI Event: Chan 6 Pitch Bend Change (0-16383): 2260 (factor==0.908281)
3    |  MIDI Event: Chan 6 Pitch Bend Change (0-16383): 3471 (factor==0.926295)
2    |  MIDI Event: Chan 6 Pitch Bend Change (0-16383): 5085 (factor==0.950861)
3    |  MIDI Event: Chan 6 Pitch Bend Change (0-16383): 6942 (factor==0.979932)
2    |  MIDI Event: Chan 6 Pitch Bend Change (0-16383): 8071 (factor==0.99804)
3    |  MIDI Event: Chan 6 Pitch Bend Change (0-16383): 8192 (factor==1)
3    |  MIDI Event: Chan 10 Note OFF: A#4, Velocity (0 - 127): 64
11   |  MIDI Event: Chan 6 Control/Mode Change: Channel Pan (0-127): 94
16   |  MIDI Event: Chan 1 Control/Mode Change: Sound Controller 5 (default: Brightness) (0-127): 25
0    |  MIDI Event: Chan 5 Control/Mode Change: Sound Controller 5 (default: Brightness) (0-127): 25
3    |  MIDI Event: Chan 1 Note OFF: C#4, Velocity (0 - 127): 64
0    |  MIDI Event: Chan 6 Note OFF: F#5, Velocity (0 - 127): 64
0    |  MIDI Event: Chan 5 Note OFF: A2, Velocity (0 - 127): 64
0    |  MIDI Event: Chan 1 Note OFF: E3, Velocity (0 - 127): 64
0    |  MIDI Event: Chan 1 Note OFF: A3, Velocity (0 - 127): 64
0    |  MIDI Event: Chan 6 Note OFF: F#4, Velocity (0 - 127): 64
0    |  MIDI Event: Chan 5 Note OFF: E3, Velocity (0 - 127): 64
1    |  MIDI Event: Chan 1 Note ON: A3, Velocity (0 - 127): 51
0    |  MIDI Event: Chan 1 Note ON: C#4, Velocity (0 - 127): 52
0    |  MIDI Event: Chan 1 Note ON: E4, Velocity (0 - 127): 78
0    |  MIDI Event: Chan 5 Note ON: C#3, Velocity (0 - 127): 89
0    |  MIDI Event: Chan 5 Note ON: E3, Velocity (0 - 127): 101
0    |  MIDI Event: Chan 5 Note ON: A3, Velocity (0 - 127): 89
0    |  MIDI Event: Chan 6 Note ON: D4, Velocity (0 - 127): 98
0    |  MIDI Event: Chan 6 Note ON: D5, Velocity (0 - 127): 98
0    |  MIDI Event: Chan 10 Note ON: D#2, Velocity (0 - 127): 77
20   |  MIDI Event: Chan 6 Control/Mode Change: Channel Pan (0-127): 12
9    |  MIDI Event: Chan 10 Note OFF: D#2, Velocity (0 - 127): 64
0    |  MIDI Event: Chan 1 Note OFF: C#4, Velocity (0 - 127): 64
0    |  MIDI Event: Chan 5 Note OFF: A3, Velocity (0 - 127): 64
0    |  MIDI Event: Chan 1 Note OFF: E4, Velocity (0 - 127): 64
0    |  MIDI Event: Chan 5 Note OFF: C#3, Velocity (0 - 127): 64
0    |  MIDI Event: Chan 1 Note OFF: A3, Velocity (0 - 127): 64
0    |  MIDI Event: Chan 5 Note OFF: E3, Velocity (0 - 127): 64
1    |  MIDI Event: Chan 1 Note ON: A3, Velocity (0 - 127): 73
0    |  MIDI Event: Chan 1 Note ON: C#4, Velocity (0 - 127): 52
0    |  MIDI Event: Chan 1 Note ON: E4, Velocity (0 - 127): 83
0    |  MIDI Event: Chan 5 Note ON: C#3, Velocity (0 - 127): 119
0    |  MIDI Event: Chan 5 Note ON: E3, Velocity (0 - 127): 118
0    |  MIDI Event: Chan 5 Note ON: A3, Velocity (0 - 127): 105
25   |  MIDI Event: Chan 15 Note OFF: C2, Velocity (0 - 127): 64
4    |  MIDI Event: Chan 1 Note OFF: C#4, Velocity (0 - 127): 64
0    |  MIDI Event: Chan 6 Note OFF: D4, Velocity (0 - 127): 64
0    |  MIDI Event: Chan 1 Note OFF: E4, Velocity (0 - 127): 64
0    |  MIDI Event: Chan 6 Note OFF: D5, Velocity (0 - 127): 64
0    |  MIDI Event: Chan 1 Note OFF: A3, Velocity (0 - 127): 64
0    |  MIDI Event: Chan 5 Note OFF: E3, Velocity (0 - 127): 64
0    |  MIDI Event: Chan 5 Note OFF: C#3, Velocity (0 - 127): 64
0    |  MIDI Event: Chan 5 Note OFF: A3, Velocity (0 - 127): 64
1    |  MIDI Event: Chan 1 Control/Mode Change: Sound Controller 5 (default: Brightness) (0-127): 26
0    |  MIDI Event: Chan 1 Note ON: B3, Velocity (0 - 127): 58
0    |  MIDI Event: Chan 1 Note ON: D4, Velocity (0 - 127): 91
0    |  MIDI Event: Chan 5 Control/Mode Change: Sound Controller 5 (default: Brightness) (0-127): 26
0    |  MIDI Event: Chan 5 Note ON: B2, Velocity (0 - 127): 85
0    |  MIDI Event: Chan 5 Note ON: F#3, Velocity (0 - 127): 120
0    |  MIDI Event: Chan 6 Note ON: B3, Velocity (0 - 127): 105
0    |  MIDI Event: Chan 6 Note ON: B4, Velocity (0 - 127): 105
0    |  MIDI Event: Chan 6 Control/Mode Change: Channel Pan (0-127): 115
0    |  MIDI Event: Chan 10 Note ON: A#4, Velocity (0 - 127): 94
29   |  MIDI Event: Chan 10 Note OFF: A#4, Velocity (0 - 127): 64
11   |  MIDI Event: Chan 6 Control/Mode Change: Channel Pan (0-127): 34
19   |  MIDI Event: Chan 6 Note OFF: B3, Velocity (0 - 127): 64
0    |  MIDI Event: Chan 1 Note OFF: D4, Velocity (0 - 127): 64
0    |  MIDI Event: Chan 5 Note OFF: B2, Velocity (0 - 127): 64
0    |  MIDI Event: Chan 1 Note OFF: B3, Velocity (0 - 127): 64
0    |  MIDI Event: Chan 6 Note OFF: B4, Velocity (0 - 127): 64
0    |  MIDI Event: Chan 5 Note OFF: F#3, Velocity (0 - 127): 64
1    |  MIDI Event: Chan 1 Note ON: B3, Velocity (0 - 127): 79
0    |  MIDI Event: Chan 1 Note ON: D4, Velocity (0 - 127): 95
0    |  MIDI Event: Chan 1 Note ON: F#4, Velocity (0 - 127): 74
0    |  MIDI Event: Chan 5 Note ON: D3, Velocity (0 - 127): 92
0    |  MIDI Event: Chan 5 Note ON: F#3, Velocity (0 - 127): 87
0    |  MIDI Event: Chan 5 Note ON: D4, Velocity (0 - 127): 95
0    |  MIDI Event: Chan 10 Note ON: D#2, Velocity (0 - 127): 81
4    |  MIDI Event: Chan 1 Control/Mode Change: Sound Controller 5 (default: Brightness) (0-127): 27
0    |  MIDI Event: Chan 5 Control/Mode Change: Sound Controller 5 (default: Brightness) (0-127): 27
16   |  MIDI Event: Chan 6 Control/Mode Change: Channel Pan (0-127): 94
9    |  MIDI Event: Chan 10 Note OFF: D#2, Velocity (0 - 127): 64
31   |  MIDI Event: Chan 6 Note ON: B3, Velocity (0 - 127): 119
0    |  MIDI Event: Chan 6 Note ON: B4, Velocity (0 - 127): 119
0    |  MIDI Event: Chan 6 Control/Mode Change: Channel Pan (0-127): 12
0    |  MIDI Event: Chan 10 Note ON: A#4, Velocity (0 - 127): 109
8    |  MIDI Event: Chan 1 Control/Mode Change: Sound Controller 5 (default: Brightness) (0-127): 28
0    |  MIDI Event: Chan 5 Control/Mode Change: Sound Controller 5 (default: Brightness) (0-127): 28
21   |  MIDI Event: Chan 10 Note OFF: A#4, Velocity (0 - 127): 64
0    |  MIDI Event: Chan 1 Note OFF: B3, Velocity (0 - 127): 64
0    |  MIDI Event: Chan 5 Note OFF: F#3, Velocity (0 - 127): 64
0    |  MIDI Event: Chan 5 Note OFF: D3, Velocity (0 - 127): 64
0    |  MIDI Event: Chan 1 Note OFF: D4, Velocity (0 - 127): 64
0    |  MIDI Event: Chan 1 Note OFF: F#4, Velocity (0 - 127): 64
0    |  MIDI Event: Chan 5 Note OFF: D4, Velocity (0 - 127): 64
1    |  MIDI Event: Chan 1 Note ON: B3, Velocity (0 - 127): 71
0    |  MIDI Event: Chan 1 Note ON: D4, Velocity (0 - 127): 91
0    |  MIDI Event: Chan 1 Note ON: F#4, Velocity (0 - 127): 60
0    |  MIDI Event: Chan 5 Note ON: F#3, Velocity (0 - 127): 109
0    |  MIDI Event: Chan 5 Note ON: B3, Velocity (0 - 127): 95
10   |  MIDI Event: Chan 6 Control/Mode Change: Channel Pan (0-127): 115
19   |  MIDI Event: Chan 5 Note OFF: B3, Velocity (0 - 127): 64
0    |  MIDI Event: Chan 1 Note OFF: F#4, Velocity (0 - 127): 64
0    |  MIDI Event: Chan 6 Note OFF: B4, Velocity (0 - 127): 64
0    |  MIDI Event: Chan 1 Note OFF: B3, Velocity (0 - 127): 64
0    |  MIDI Event: Chan 6 Note OFF: B3, Velocity (0 - 127): 64
0    |  MIDI Event: Chan 5 Note OFF: F#3, Velocity (0 - 127): 64
0    |  MIDI Event: Chan 1 Note OFF: D4, Velocity (0 - 127): 64
1    |  MIDI Event: Chan 1 Note ON: D4, Velocity (0 - 127): 80
0    |  MIDI Event: Chan 1 Note ON: F#4, Velocity (0 - 127): 62
0    |  MIDI Event: Chan 1 Note ON: B4, Velocity (0 - 127): 91
0    |  MIDI Event: Chan 5 Note ON: D3, Velocity (0 - 127): 103
0    |  MIDI Event: Chan 5 Note ON: F#3, Velocity (0 - 127): 115
0    |  MIDI Event: Chan 10 Note ON: D#2, Velocity (0 - 127): 80
12   |  MIDI Event: Chan 1 Control/Mode Change: Sound Controller 5 (default: Brightness) (0-127): 29
0    |  MIDI Event: Chan 5 Control/Mode Change: Sound Controller 5 (default: Brightness) (0-127): 29
8    |  MIDI Event: Chan 6 Control/Mode Change: Channel Pan (0-127): 34
9    |  MIDI Event: Chan 10 Note OFF: D#2, Velocity (0 - 127): 64
0    |  MIDI Event: Chan 1 Note OFF: F#4, Velocity (0 - 127): 64
0    |  MIDI Event: Chan 1 Note OFF: B4, Velocity (0 - 127): 64
0    |  MIDI Event: Chan 1 Note OFF: D4, Velocity (0 - 127): 64
0    |  MIDI Event: Chan 5 Note OFF: F#3, Velocity (0 - 127): 64
0    |  MIDI Event: Chan 5 Note OFF: D3, Velocity (0 - 127): 64
1    |  MIDI Event: Chan 1 Note ON: B3, Velocity (0 - 127): 51
0    |  MIDI Event: Chan 1 Note ON: D4, Velocity (0 - 127): 85
0    |  MIDI Event: Chan 1 Note ON: F#4, Velocity (0 - 127): 59
0    |  MIDI Event: Chan 5 Note ON: B2, Velocity (0 - 127): 92
0    |  MIDI Event: Chan 5 Note ON: E3, Velocity (0 - 127): 98
0    |  MIDI Event: Chan 6 Note ON: A3, Velocity (0 - 127): 91
0    |  MIDI Event: Chan 6 Note ON: A4, Velocity (0 - 127): 91
29   |  MIDI Event: Chan 6 Note OFF: A4, Velocity (0 - 127): 64
0    |  MIDI Event: Chan 5 Note OFF: E3, Velocity (0 - 127): 64
0    |  MIDI Event: Chan 1 Note OFF: D4, Velocity (0 - 127): 64
0    |  MIDI Event: Chan 1 Note OFF: F#4, Velocity (0 - 127): 64
0    |  MIDI Event: Chan 1 Note OFF: B3, Velocity (0 - 127): 64
0    |  MIDI Event: Chan 6 Note OFF: A3, Velocity (0 - 127): 64
0    |  MIDI Event: Chan 5 Note OFF: B2, Velocity (0 - 127): 64
1    |  MIDI Event: Chan 1 Note ON: G3, Velocity (0 - 127): 74
0    |  MIDI Event: Chan 1 Note ON: B3, Velocity (0 - 127): 94
0    |  MIDI Event: Chan 1 Note ON: D4, Velocity (0 - 127): 91
0    |  MIDI Event: Chan 5 Note ON: G2, Velocity (0 - 127): 98
0    |  MIDI Event: Chan 5 Note ON: D3, Velocity (0 - 127): 116
0    |  MIDI Event: Chan 6 Note ON: B3, Velocity (0 - 127): 97
0    |  MIDI Event: Chan 6 Note ON: B4, Velocity (0 - 127): 97
0    |  MIDI Event: Chan 6 Control/Mode Change: Channel Pan (0-127): 94
0    |  MIDI Event: Chan 10 Note ON: A#4, Velocity (0 - 127): 84
16   |  MIDI Event: Chan 1 Control/Mode Change: Sound Controller 5 (default: Brightness) (0-127): 30
0    |  MIDI Event: Chan 5 Control/Mode Change: Sound Controller 5 (default: Brightness) (0-127): 30
13   |  MIDI Event: Chan 10 Note OFF: A#4, Velocity (0 - 127): 64
0    |  MIDI Event: Chan 6 Note OFF: B4, Velocity (0 - 127): 64
0    |  MIDI Event: Chan 6 Note OFF: B3, Velocity (0 - 127): 64
1    |  MIDI Event: Chan 6 Note ON: D4, Velocity (0 - 127): 80
0    |  MIDI Event: Chan 6 Note ON: D5, Velocity (0 - 127): 80
10   |  MIDI Event: Chan 6 Control/Mode Change: Channel Pan (0-127): 12
19   |  MIDI Event: Chan 6 Note OFF: D5, Velocity (0 - 127): 64
0    |  MIDI Event: Chan 1 Note OFF: B3, Velocity (0 - 127): 64
0    |  MIDI Event: Chan 5 Note OFF: D3, Velocity (0 - 127): 64
0    |  MIDI Event: Chan 1 Note OFF: D4, Velocity (0 - 127): 64
0    |  MIDI Event: Chan 5 Note OFF: G2, Velocity (0 - 127): 64
0    |  MIDI Event: Chan 6 Note OFF: D4, Velocity (0 - 127): 64
0    |  MIDI Event: Chan 1 Note OFF: G3, Velocity (0 - 127): 64
1    |  MIDI Event: Chan 1 Note ON: B3, Velocity (0 - 127): 70
0    |  MIDI Event: Chan 1 Note ON: D4, Velocity (0 - 127): 94
0    |  MIDI Event: Chan 1 Note ON: G4, Velocity (0 - 127): 101
0    |  MIDI Event: Chan 5 Note ON: D3, Velocity (0 - 127): 79
0    |  MIDI Event: Chan 5 Note ON: G3, Velocity (0 - 127): 111
0    |  MIDI Event: Chan 5 Note ON: B3, Velocity (0 - 127): 100
0    |  MIDI Event: Chan 6 Note ON: B3, Velocity (0 - 127): 113
0    |  MIDI Event: Chan 6 Note ON: B4, Velocity (0 - 127): 113
0    |  MIDI Event: Chan 10 Note ON: D#2, Velocity (0 - 127): 82
20   |  MIDI Event: Chan 1 Control/Mode Change: Sound Controller 5 (default: Brightness) (0-127): 31
0    |  MIDI Event: Chan 5 Control/Mode Change: Sound Controller 5 (default: Brightness) (0-127): 31
0    |  MIDI Event: Chan 6 Control/Mode Change: Channel Pan (0-127): 115
9    |  MIDI Event: Chan 10 Note OFF: D#2, Velocity (0 - 127): 64
30   |  MIDI Event: Chan 6 Note OFF: B4, Velocity (0 - 127): 64
0    |  MIDI Event: Chan 6 Note OFF: B3, Velocity (0 - 127): 64
1    |  MIDI Event: Chan 6 Control/Mode Change: Channel Pan (0-127): 34
0    |  MIDI Event: Chan 10 Note ON: A#4, Velocity (0 - 127): 86
24   |  MIDI Event: Chan 1 Control/Mode Change: Sound Controller 5 (default: Brightness) (0-127): 32
0    |  MIDI Event: Chan 5 Control/Mode Change: Sound Controller 5 (default: Brightness) (0-127): 32
5    |  MIDI Event: Chan 10 Note OFF: A#4, Velocity (0 - 127): 64
0    |  MIDI Event: Chan 5 Note OFF: B3, Velocity (0 - 127): 64
0    |  MIDI Event: Chan 1 Note OFF: D4, Velocity (0 - 127): 64
0    |  MIDI Event: Chan 1 Note OFF: G4, Velocity (0 - 127): 64
0    |  MIDI Event: Chan 5 Note OFF: D3, Velocity (0 - 127): 64
0    |  MIDI Event: Chan 5 Note OFF: G3, Velocity (0 - 127): 64
0    |  MIDI Event: Chan 1 Note OFF: B3, Velocity (0 - 127): 64
1    |  MIDI Event: Chan 1 Note ON: B3, Velocity (0 - 127): 52
0    |  MIDI Event: Chan 1 Note ON: D4, Velocity (0 - 127): 85
0    |  MIDI Event: Chan 1 Note ON: G4, Velocity (0 - 127): 94
0    |  MIDI Event: Chan 5 Note ON: D3, Velocity (0 - 127): 82
0    |  MIDI Event: Chan 5 Note ON: G3, Velocity (0 - 127): 98
0    |  MIDI Event: Chan 5 Note ON: B3, Velocity (0 - 127): 85
0    |  MIDI Event: Chan 6 Note ON: A3, Velocity (0 - 127): 98
0    |  MIDI Event: Chan 6 Note ON: A4, Velocity (0 - 127): 98
10   |  MIDI Event: Chan 6 Control/Mode Change: Channel Pan (0-127): 94
19   |  MIDI Event: Chan 6 Note OFF: A4, Velocity (0 - 127): 64
0    |  MIDI Event: Chan 1 Note OFF: B3, Velocity (0 - 127): 64
0    |  MIDI Event: Chan 5 Note OFF: G3, Velocity (0 - 127): 64
0    |  MIDI Event: Chan 1 Note OFF: D4, Velocity (0 - 127): 64
0    |  MIDI Event: Chan 1 Note OFF: G4, Velocity (0 - 127): 64
0    |  MIDI Event: Chan 5 Note OFF: D3, Velocity (0 - 127): 64
0    |  MIDI Event: Chan 5 Note OFF: B3, Velocity (0 - 127): 64
0    |  MIDI Event: Chan 6 Note OFF: A3, Velocity (0 - 127): 64
1    |  MIDI Event: Chan 1 Note ON: D4, Velocity (0 - 127): 78
0    |  MIDI Event: Chan 1 Note ON: G4, Velocity (0 - 127): 100
0    |  MIDI Event: Chan 1 Note ON: B4, Velocity (0 - 127): 46
0    |  MIDI Event: Chan 5 Note ON: G2, Velocity (0 - 127): 109
0    |  MIDI Event: Chan 5 Note ON: D3, Velocity (0 - 127): 109
0    |  MIDI Event: Chan 6 Note ON: B3, Velocity (0 - 127): 101
0    |  MIDI Event: Chan 6 Note ON: B4, Velocity (0 - 127): 101
0    |  MIDI Event: Chan 10 Note ON: D#2, Velocity (0 - 127): 82
20   |  MIDI Event: Chan 6 Control/Mode Change: Channel Pan (0-127): 12
8    |  MIDI Event: Chan 1 Control/Mode Change: Sound Controller 5 (default: Brightness) (0-127): 33
0    |  MIDI Event: Chan 5 Control/Mode Change: Sound Controller 5 (default: Brightness) (0-127): 33
1    |  MIDI Event: Chan 10 Note OFF: D#2, Velocity (0 - 127): 64
0    |  MIDI Event: Chan 1 Note OFF: D4, Velocity (0 - 127): 64
0    |  MIDI Event: Chan 5 Note OFF: D3, Velocity (0 - 127): 64
0    |  MIDI Event: Chan 1 Note OFF: G4, Velocity (0 - 127): 64
0    |  MIDI Event: Chan 1 Note OFF: B4, Velocity (0 - 127): 64
0    |  MIDI Event: Chan 5 Note OFF: G2, Velocity (0 - 127): 64
0    |  MIDI Event: Chan 6 Note OFF: B3, Velocity (0 - 127): 64
0    |  MIDI Event: Chan 6 Note OFF: B4, Velocity (0 - 127): 64
1    |  MIDI Event: Chan 1 Note ON: B3, Velocity (0 - 127): 45
0    |  MIDI Event: Chan 1 Note ON: D4, Velocity (0 - 127): 73
0    |  MIDI Event: Chan 1 Note ON: G4, Velocity (0 - 127): 86
0    |  MIDI Event: Chan 5 Note ON: G2, Velocity (0 - 127): 101
0    |  MIDI Event: Chan 5 Note ON: E3, Velocity (0 - 127): 116
0    |  MIDI Event: Chan 6 Note ON: A3, Velocity (0 - 127): 91
0    |  MIDI Event: Chan 6 Note ON: A4, Velocity (0 - 127): 91
29   |  MIDI Event: Chan 6 Note OFF: A4, Velocity (0 - 127): 64
0    |  MIDI Event: Chan 5 Note OFF: E3, Velocity (0 - 127): 64
0    |  MIDI Event: Chan 1 Note OFF: D4, Velocity (0 - 127): 64
0    |  MIDI Event: Chan 1 Note OFF: G4, Velocity (0 - 127): 64
0    |  MIDI Event: Chan 1 Note OFF: B3, Velocity (0 - 127): 64
0    |  MIDI Event: Chan 6 Note OFF: A3, Velocity (0 - 127): 64
0    |  MIDI Event: Chan 5 Note OFF: G2, Velocity (0 - 127): 64
1    |  MIDI Event: Chan 1 Note ON: F#3, Velocity (0 - 127): 35
0    |  MIDI Event: Chan 1 Note ON: A3, Velocity (0 - 127): 85
0    |  MIDI Event: Chan 1 Note ON: D4, Velocity (0 - 127): 79
0    |  MIDI Event: Chan 5 Note ON: A2, Velocity (0 - 127): 90
0    |  MIDI Event: Chan 5 Note ON: D3, Velocity (0 - 127): 105
0    |  MIDI Event: Chan 6 Note ON: D4, Velocity (0 - 127): 105
0    |  MIDI Event: Chan 6 Note ON: D5, Velocity (0 - 127): 105
0    |  MIDI Event: Chan 6 Control/Mode Change: Channel Pan (0-127): 115
0    |  MIDI Event: Chan 10 Note ON: A#4, Velocity (0 - 127): 78
29   |  MIDI Event: Chan 10 Note OFF: A#4, Velocity (0 - 127): 64
3    |  MIDI Event: Chan 1 Control/Mode Change: Sound Controller 5 (default: Brightness) (0-127): 34
0    |  MIDI Event: Chan 5 Control/Mode Change: Sound Controller 5 (default: Brightness) (0-127): 34
8    |  MIDI Event: Chan 6 Control/Mode Change: Channel Pan (0-127): 34
19   |  MIDI Event: Chan 1 Note OFF: F#3, Velocity (0 - 127): 64
0    |  MIDI Event: Chan 5 Note OFF: D3, Velocity (0 - 127): 64
0    |  MIDI Event: Chan 1 Note OFF: A3, Velocity (0 - 127): 64
0    |  MIDI Event: Chan 1 Note OFF: D4, Velocity (0 - 127): 64
0    |  MIDI Event: Chan 5 Note OFF: A2, Velocity (0 - 127): 64
0    |  MIDI Event: Chan 6 Note OFF: D4, Velocity (0 - 127): 64
0    |  MIDI Event: Chan 6 Note OFF: D5, Velocity (0 - 127): 64
1    |  MIDI Event: Chan 1 Note ON: A3, Velocity (0 - 127): 69
0    |  MIDI Event: Chan 1 Note ON: D4, Velocity (0 - 127): 98
0    |  MIDI Event: Chan 1 Note ON: F#4, Velocity (0 - 127): 74
0    |  MIDI Event: Chan 5 Note ON: A2, Velocity (0 - 127): 100
0    |  MIDI Event: Chan 5 Note ON: D3, Velocity (0 - 127): 111
0    |  MIDI Event: Chan 5 Note ON: F#3, Velocity (0 - 127): 89
0    |  MIDI Event: Chan 10 Note ON: D#2, Velocity (0 - 127): 81
20   |  MIDI Event: Chan 6 Control/Mode Change: Channel Pan (0-127): 94
9    |  MIDI Event: Chan 10 Note OFF: D#2, Velocity (0 - 127): 64
7    |  MIDI Event: Chan 1 Control/Mode Change: Sound Controller 5 (default: Brightness) (0-127): 35
0    |  MIDI Event: Chan 5 Control/Mode Change: Sound Controller 5 (default: Brightness) (0-127): 35
24   |  MIDI Event: Chan 6 Note ON: D4, Velocity (0 - 127): 119
0    |  MIDI Event: Chan 6 Note ON: D5, Velocity (0 - 127): 119
0    |  MIDI Event: Chan 6 Control/Mode Change: Channel Pan (0-127): 12
0    |  MIDI Event: Chan 10 Note ON: A#4, Velocity (0 - 127): 84
29   |  MIDI Event: Chan 10 Note OFF: A#4, Velocity (0 - 127): 64
0    |  MIDI Event: Chan 1 Note OFF: A3, Velocity (0 - 127): 64
0    |  MIDI Event: Chan 5 Note OFF: D3, Velocity (0 - 127): 64
0    |  MIDI Event: Chan 5 Note OFF: A2, Velocity (0 - 127): 64
0    |  MIDI Event: Chan 1 Note OFF: D4, Velocity (0 - 127): 64
0    |  MIDI Event: Chan 1 Note OFF: F#4, Velocity (0 - 127): 64
0    |  MIDI Event: Chan 5 Note OFF: F#3, Velocity (0 - 127): 64
1    |  MIDI Event: Chan 1 Note ON: F#3, Velocity (0 - 127): 44
0    |  MIDI Event: Chan 1 Note ON: A3, Velocity (0 - 127): 78
0    |  MIDI Event: Chan 1 Note ON: D4, Velocity (0 - 127): 58
0    |  MIDI Event: Chan 5 Note ON: A2, Velocity (0 - 127): 85
0    |  MIDI Event: Chan 5 Note ON: D3, Velocity (0 - 127): 105
0    |  MIDI Event: Chan 5 Note ON: F#3, Velocity (0 - 127): 81
10   |  MIDI Event: Chan 1 Control/Mode Change: Sound Controller 5 (default: Brightness) (0-127): 36
0    |  MIDI Event: Chan 5 Control/Mode Change: Sound Controller 5 (default: Brightness) (0-127): 36
0    |  MIDI Event: Chan 6 Control/Mode Change: Channel Pan (0-127): 115
19   |  MIDI Event: Chan 5 Note OFF: F#3, Velocity (0 - 127): 64
0    |  MIDI Event: Chan 6 Note OFF: D4, Velocity (0 - 127): 64
0    |  MIDI Event: Chan 1 Note OFF: D4, Velocity (0 - 127): 64
0    |  MIDI Event: Chan 6 Note OFF: D5, Velocity (0 - 127): 64
0    |  MIDI Event: Chan 1 Note OFF: F#3, Velocity (0 - 127): 64
0    |  MIDI Event: Chan 1 Note OFF: A3, Velocity (0 - 127): 64
0    |  MIDI Event: Chan 5 Note OFF: A2, Velocity (0 - 127): 64
0    |  MIDI Event: Chan 5 Note OFF: D3, Velocity (0 - 127): 64
1    |  MIDI Event: Chan 1 Note ON: A3, Velocity (0 - 127): 57
0    |  MIDI Event: Chan 1 Note ON: D4, Velocity (0 - 127): 91
0    |  MIDI Event: Chan 1 Note ON: F#4, Velocity (0 - 127): 77
0    |  MIDI Event: Chan 5 Note ON: D3, Velocity (0 - 127): 109
0    |  MIDI Event: Chan 5 Note ON: F#3, Velocity (0 - 127): 89
0    |  MIDI Event: Chan 5 Note ON: A3, Velocity (0 - 127): 109
0    |  MIDI Event: Chan 10 Note ON: D#2, Velocity (0 - 127): 82
20   |  MIDI Event: Chan 6 Control/Mode Change: Channel Pan (0-127): 34
9    |  MIDI Event: Chan 10 Note OFF: D#2, Velocity (0 - 127): 64
0    |  MIDI Event: Chan 5 Note OFF: F#3, Velocity (0 - 127): 64
0    |  MIDI Event: Chan 1 Note OFF: D4, Velocity (0 - 127): 64
0    |  MIDI Event: Chan 1 Note OFF: F#4, Velocity (0 - 127): 64
0    |  MIDI Event: Chan 1 Note OFF: A3, Velocity (0 - 127): 64
0    |  MIDI Event: Chan 5 Note OFF: A3, Velocity (0 - 127): 64
0    |  MIDI Event: Chan 5 Note OFF: D3, Velocity (0 - 127): 64
1    |  MIDI Event: Chan 1 Note ON: F#3, Velocity (0 - 127): 35
0    |  MIDI Event: Chan 1 Note ON: A3, Velocity (0 - 127): 79
0    |  MIDI Event: Chan 1 Note ON: D4, Velocity (0 - 127): 56
0    |  MIDI Event: Chan 5 Note ON: D3, Velocity (0 - 127): 111
0    |  MIDI Event: Chan 5 Note ON: F#3, Velocity (0 - 127): 100
0    |  MIDI Event: Chan 5 Note ON: A3, Velocity (0 - 127): 100
0    |  MIDI Event: Chan 6 Note ON: D4, Velocity (0 - 127): 103
0    |  MIDI Event: Chan 6 Note ON: D5, Velocity (0 - 127): 103
14   |  MIDI Event: Chan 1 Control/Mode Change: Sound Controller 5 (default: Brightness) (0-127): 37
0    |  MIDI Event: Chan 5 Control/Mode Change: Sound Controller 5 (default: Brightness) (0-127): 37
15   |  MIDI Event: Chan 6 Note OFF: D5, Velocity (0 - 127): 64
0    |  MIDI Event: Chan 1 Note OFF: F#3, Velocity (0 - 127): 64
0    |  MIDI Event: Chan 5 Note OFF: F#3, Velocity (0 - 127): 64
0    |  MIDI Event: Chan 1 Note OFF: A3, Velocity (0 - 127): 64
0    |  MIDI Event: Chan 1 Note OFF: D4, Velocity (0 - 127): 64
0    |  MIDI Event: Chan 5 Note OFF: D3, Velocity (0 - 127): 64
0    |  MIDI Event: Chan 5 Note OFF: A3, Velocity (0 - 127): 64
0    |  MIDI Event: Chan 6 Note OFF: D4, Velocity (0 - 127): 64
1    |  MIDI Event: Chan 1 Note ON: F#3, Velocity (0 - 127): 49
0    |  MIDI Event: Chan 1 Note ON: A3, Velocity (0 - 127): 85
0    |  MIDI Event: Chan 1 Note ON: D4, Velocity (0 - 127): 75
0    |  MIDI Event: Chan 5 Note ON: A2, Velocity (0 - 127): 105
0    |  MIDI Event: Chan 5 Note ON: D3, Velocity (0 - 127): 116
0    |  MIDI Event: Chan 6 Note ON: E4, Velocity (0 - 127): 95
0    |  MIDI Event: Chan 6 Note ON: E5, Velocity (0 - 127): 95
0    |  MIDI Event: Chan 6 Control/Mode Change: Channel Pan (0-127): 94
0    |  MIDI Event: Chan 10 Note ON: A#4, Velocity (0 - 127): 87
29   |  MIDI Event: Chan 10 Note OFF: A#4, Velocity (0 - 127): 64
0    |  MIDI Event: Chan 6 Note OFF: E5, Velocity (0 - 127): 64
0    |  MIDI Event: Chan 6 Note OFF: E4, Velocity (0 - 127): 64
1    |  MIDI Event: Chan 6 Note ON: D4, Velocity (0 - 127): 86
0    |  MIDI Event: Chan 6 Note ON: D5, Velocity (0 - 127): 86
10   |  MIDI Event: Chan 6 Control/Mode Change: Channel Pan (0-127): 12
8    |  MIDI Event: Chan 1 Control/Mode Change: Sound Controller 5 (default: Brightness) (0-127): 38
0    |  MIDI Event: Chan 5 Control/Mode Change: Sound Controller 5 (default: Brightness) (0-127): 38
11   |  MIDI Event: Chan 6 Note OFF: D5, Velocity (0 - 127): 64
0    |  MIDI Event: Chan 1 Note OFF: A3, Velocity (0 - 127): 64
0    |  MIDI Event: Chan 5 Note OFF: D3, Velocity (0 - 127): 64
0    |  MIDI Event: Chan 1 Note OFF: D4, Velocity (0 - 127): 64
0    |  MIDI Event: Chan 5 Note OFF: A2, Velocity (0 - 127): 64
0    |  MIDI Event: Chan 6 Note OFF: D4, Velocity (0 - 127): 64
0    |  MIDI Event: Chan 1 Note OFF: F#3, Velocity (0 - 127): 64
1    |  MIDI Event: Chan 1 Note ON: A3, Velocity (0 - 127): 56
0    |  MIDI Event: Chan 1 Note ON: D4, Velocity (0 - 127): 84
0    |  MIDI Event: Chan 1 Note ON: F#4, Velocity (0 - 127): 49
0    |  MIDI Event: Chan 5 Note ON: D3, Velocity (0 - 127): 105
0    |  MIDI Event: Chan 5 Note ON: F#3, Velocity (0 - 127): 115
0    |  MIDI Event: Chan 6 Note ON: E4, Velocity (0 - 127): 98
0    |  MIDI Event: Chan 6 Note ON: E5, Velocity (0 - 127): 98
0    |  MIDI Event: Chan 10 Note ON: D#2, Velocity (0 - 127): 84
20   |  MIDI Event: Chan 6 Control/Mode Change: Channel Pan (0-127): 115
9    |  MIDI Event: Chan 10 Note OFF: D#2, Velocity (0 - 127): 64
0    |  MIDI Event: Chan 1 Note OFF: A3, Velocity (0 - 127): 64
0    |  MIDI Event: Chan 5 Note OFF: F#3, Velocity (0 - 127): 64
0    |  MIDI Event: Chan 5 Note OFF: D3, Velocity (0 - 127): 64
0    |  MIDI Event: Chan 1 Note OFF: F#4, Velocity (0 - 127): 64
0    |  MIDI Event: Chan 1 Note OFF: D4, Velocity (0 - 127): 64
1    |  MIDI Event: Chan 1 Note ON: A3, Velocity (0 - 127): 84
0    |  MIDI Event: Chan 1 Note ON: D4, Velocity (0 - 127): 94
0    |  MIDI Event: Chan 1 Note ON: F#4, Velocity (0 - 127): 76
0    |  MIDI Event: Chan 5 Note ON: D3, Velocity (0 - 127): 100
0    |  MIDI Event: Chan 5 Note ON: F#3, Velocity (0 - 127): 92
20   |  MIDI Event: Chan 6 Pitch Bend Change (0-16383): 8071 (factor==0.99804)
2    |  MIDI Event: Chan 1 Control/Mode Change: Sound Controller 5 (default: Brightness) (0-127): 39
0    |  MIDI Event: Chan 5 Control/Mode Change: Sound Controller 5 (default: Brightness) (0-127): 39
3    |  MIDI Event: Chan 6 Pitch Bend Change (0-16383): 6296 (factor==0.96972)
3    |  MIDI Event: Chan 6 Pitch Bend Change (0-16383): 4197 (factor==0.937266)
1    |  MIDI Event: Chan 5 Note OFF: F#3, Velocity (0 - 127): 64
0    |  MIDI Event: Chan 1 Note OFF: F#4, Velocity (0 - 127): 64
0    |  MIDI Event: Chan 6 Note OFF: E5, Velocity (0 - 127): 64
0    |  MIDI Event: Chan 1 Note OFF: A3, Velocity (0 - 127): 64
0    |  MIDI Event: Chan 6 Note OFF: E4, Velocity (0 - 127): 64
0    |  MIDI Event: Chan 5 Note OFF: D3, Velocity (0 - 127): 64
0    |  MIDI Event: Chan 1 Note OFF: D4, Velocity (0 - 127): 64
1    |  MIDI Event: Chan 1 Note ON: E3, Velocity (0 - 127): 47
0    |  MIDI Event: Chan 1 Note ON: A3, Velocity (0 - 127): 89
0    |  MIDI Event: Chan 1 Note ON: C#4, Velocity (0 - 127): 52
0    |  MIDI Event: Chan 5 Note ON: A2, Velocity (0 - 127): 101
0    |  MIDI Event: Chan 5 Note ON: E3, Velocity (0 - 127): 101
0    |  MIDI Event: Chan 6 Note ON: F#4, Velocity (0 - 127): 119
0    |  MIDI Event: Chan 6 Note ON: F#5, Velocity (0 - 127): 119
0    |  MIDI Event: Chan 6 Pitch Bend Change (0-16383): 1776 (factor==0.901179)
0    |  MIDI Event: Chan 6 Control/Mode Change: Channel Pan (0-127): 34
0    |  MIDI Event: Chan 10 Note ON: A#4, Velocity (0 - 127): 91
3    |  MIDI Event: Chan 6 Pitch Bend Change (0-16383): 0 (factor==0.875594)
17   |  MIDI Event: Chan 6 Pitch Bend Change (0-16383): 646 (factor==0.884815)
3    |  MIDI Event: Chan 6 Pitch Bend Change (0-16383): 2422 (factor==0.91067)
2    |  MIDI Event: Chan 6 Pitch Bend Change (0-16383): 4520 (factor==0.942188)
3    |  MIDI Event: Chan 6 Pitch Bend Change (0-16383): 6942 (factor==0.979932)
1    |  MIDI Event: Chan 10 Note OFF: A#4, Velocity (0 - 127): 64
1    |  MIDI Event: Chan 6 Pitch Bend Change (0-16383): 8192 (factor==1)
10   |  MIDI Event: Chan 6 Control/Mode Change: Channel Pan (0-127): 94
16   |  MIDI Event: Chan 1 Control/Mode Change: Sound Controller 5 (default: Brightness) (0-127): 40
0    |  MIDI Event: Chan 5 Control/Mode Change: Sound Controller 5 (default: Brightness) (0-127): 40
3    |  MIDI Event: Chan 1 Note OFF: E3, Velocity (0 - 127): 64
0    |  MIDI Event: Chan 5 Note OFF: E3, Velocity (0 - 127): 64
0    |  MIDI Event: Chan 1 Note OFF: A3, Velocity (0 - 127): 64
0    |  MIDI Event: Chan 1 Note OFF: C#4, Velocity (0 - 127): 64
0    |  MIDI Event: Chan 5 Note OFF: A2, Velocity (0 - 127): 64
0    |  MIDI Event: Chan 6 Note OFF: F#4, Velocity (0 - 127): 64
0    |  MIDI Event: Chan 6 Note OFF: F#5, Velocity (0 - 127): 64
1    |  MIDI Event: Chan 1 Note ON: A3, Velocity (0 - 127): 51
0    |  MIDI Event: Chan 1 Note ON: C#4, Velocity (0 - 127): 52
0    |  MIDI Event: Chan 1 Note ON: E4, Velocity (0 - 127): 78
0    |  MIDI Event: Chan 5 Note ON: C#3, Velocity (0 - 127): 89
0    |  MIDI Event: Chan 5 Note ON: E3, Velocity (0 - 127): 101
0    |  MIDI Event: Chan 5 Note ON: A3, Velocity (0 - 127): 89
0    |  MIDI Event: Chan 6 Note ON: D4, Velocity (0 - 127): 111
0    |  MIDI Event: Chan 6 Note ON: D5, Velocity (0 - 127): 111
0    |  MIDI Event: Chan 10 Note ON: D#2, Velocity (0 - 127): 78
20   |  MIDI Event: Chan 6 Control/Mode Change: Channel Pan (0-127): 12
9    |  MIDI Event: Chan 10 Note OFF: D#2, Velocity (0 - 127): 64
0    |  MIDI Event: Chan 1 Note OFF: A3, Velocity (0 - 127): 64
0    |  MIDI Event: Chan 5 Note OFF: A3, Velocity (0 - 127): 64
0    |  MIDI Event: Chan 5 Note OFF: C#3, Velocity (0 - 127): 64
0    |  MIDI Event: Chan 1 Note OFF: C#4, Velocity (0 - 127): 64
0    |  MIDI Event: Chan 1 Note OFF: E4, Velocity (0 - 127): 64
0    |  MIDI Event: Chan 5 Note OFF: E3, Velocity (0 - 127): 64
1    |  MIDI Event: Chan 1 Note ON: A3, Velocity (0 - 127): 73
0    |  MIDI Event: Chan 1 Note ON: C#4, Velocity (0 - 127): 52
0    |  MIDI Event: Chan 1 Note ON: E4, Velocity (0 - 127): 83
0    |  MIDI Event: Chan 5 Note ON: C#3, Velocity (0 - 127): 119
0    |  MIDI Event: Chan 5 Note ON: E3, Velocity (0 - 127): 118
0    |  MIDI Event: Chan 5 Note ON: A3, Velocity (0 - 127): 105
29   |  MIDI Event: Chan 5 Note OFF: A3, Velocity (0 - 127): 64
0    |  MIDI Event: Chan 6 Note OFF: D4, Velocity (0 - 127): 64
0    |  MIDI Event: Chan 1 Note OFF: E4, Velocity (0 - 127): 64
0    |  MIDI Event: Chan 6 Note OFF: D5, Velocity (0 - 127): 64
0    |  MIDI Event: Chan 1 Note OFF: A3, Velocity (0 - 127): 64
0    |  MIDI Event: Chan 1 Note OFF: C#4, Velocity (0 - 127): 64
0    |  MIDI Event: Chan 5 Note OFF: C#3, Velocity (0 - 127): 64
0    |  MIDI Event: Chan 5 Note OFF: E3, Velocity (0 - 127): 64
1    |  MIDI Event: Chan 1 Control/Mode Change: Sound Controller 5 (default: Brightness) (0-127): 41
0    |  MIDI Event: Chan 1 Note ON: B3, Velocity (0 - 127): 58
0    |  MIDI Event: Chan 1 Note ON: D4, Velocity (0 - 127): 91
0    |  MIDI Event: Chan 5 Control/Mode Change: Sound Controller 5 (default: Brightness) (0-127): 41
0    |  MIDI Event: Chan 5 Note ON: B2, Velocity (0 - 127): 85
0    |  MIDI Event: Chan 5 Note ON: F#3, Velocity (0 - 127): 120
0    |  MIDI Event: Chan 6 Note ON: B3, Velocity (0 - 127): 120
0    |  MIDI Event: Chan 6 Note ON: B4, Velocity (0 - 127): 120
0    |  MIDI Event: Chan 6 Control/Mode Change: Channel Pan (0-127): 115
0    |  MIDI Event: Chan 10 Note ON: A#4, Velocity (0 - 127): 89
29   |  MIDI Event: Chan 10 Note OFF: A#4, Velocity (0 - 127): 64
11   |  MIDI Event: Chan 6 Control/Mode Change: Channel Pan (0-127): 34
19   |  MIDI Event: Chan 6 Note OFF: B3, Velocity (0 - 127): 64
0    |  MIDI Event: Chan 1 Note OFF: D4, Velocity (0 - 127): 64
0    |  MIDI Event: Chan 5 Note OFF: B2, Velocity (0 - 127): 64
0    |  MIDI Event: Chan 1 Note OFF: B3, Velocity (0 - 127): 64
0    |  MIDI Event: Chan 6 Note OFF: B4, Velocity (0 - 127): 64
0    |  MIDI Event: Chan 5 Note OFF: F#3, Velocity (0 - 127): 64
1    |  MIDI Event: Chan 1 Note ON: B3, Velocity (0 - 127): 79
0    |  MIDI Event: Chan 1 Note ON: D4, Velocity (0 - 127): 95
0    |  MIDI Event: Chan 1 Note ON: F#4, Velocity (0 - 127): 74
0    |  MIDI Event: Chan 5 Note ON: D3, Velocity (0 - 127): 92
0    |  MIDI Event: Chan 5 Note ON: F#3, Velocity (0 - 127): 87
0    |  MIDI Event: Chan 5 Note ON: D4, Velocity (0 - 127): 95
0    |  MIDI Event: Chan 10 Note ON: D#2, Velocity (0 - 127): 78
4    |  MIDI Event: Chan 1 Control/Mode Change: Sound Controller 5 (default: Brightness) (0-127): 42
0    |  MIDI Event: Chan 5 Control/Mode Change: Sound Controller 5 (default: Brightness) (0-127): 42
16   |  MIDI Event: Chan 6 Control/Mode Change: Channel Pan (0-127): 94
9    |  MIDI Event: Chan 10 Note OFF: D#2, Velocity (0 - 127): 64
31   |  MIDI Event: Chan 6 Note ON: B3, Velocity (0 - 127): 120
0    |  MIDI Event: Chan 6 Note ON: B4, Velocity (0 - 127): 120
0    |  MIDI Event: Chan 6 Control/Mode Change: Channel Pan (0-127): 12
0    |  MIDI Event: Chan 10 Note ON: A#4, Velocity (0 - 127): 102
8    |  MIDI Event: Chan 1 Control/Mode Change: Sound Controller 5 (default: Brightness) (0-127): 43
0    |  MIDI Event: Chan 5 Control/Mode Change: Sound Controller 5 (default: Brightness) (0-127): 43
21   |  MIDI Event: Chan 10 Note OFF: A#4, Velocity (0 - 127): 64
0    |  MIDI Event: Chan 1 Note OFF: B3, Velocity (0 - 127): 64
0    |  MIDI Event: Chan 5 Note OFF: F#3, Velocity (0 - 127): 64
0    |  MIDI Event: Chan 5 Note OFF: D3, Velocity (0 - 127): 64
0    |  MIDI Event: Chan 1 Note OFF: D4, Velocity (0 - 127): 64
0    |  MIDI Event: Chan 1 Note OFF: F#4, Velocity (0 - 127): 64
0    |  MIDI Event: Chan 5 Note OFF: D4, Velocity (0 - 127): 64
1    |  MIDI Event: Chan 1 Note ON: B3, Velocity (0 - 127): 71
0    |  MIDI Event: Chan 1 Note ON: D4, Velocity (0 - 127): 91
0    |  MIDI Event: Chan 1 Note ON: F#4, Velocity (0 - 127): 60
0    |  MIDI Event: Chan 5 Note ON: F#3, Velocity (0 - 127): 109
0    |  MIDI Event: Chan 5 Note ON: B3, Velocity (0 - 127): 95
10   |  MIDI Event: Chan 6 Control/Mode Change: Channel Pan (0-127): 115
19   |  MIDI Event: Chan 5 Note OFF: B3, Velocity (0 - 127): 64
0    |  MIDI Event: Chan 1 Note OFF: F#4, Velocity (0 - 127): 64
0    |  MIDI Event: Chan 6 Note OFF: B4, Velocity (0 - 127): 64
0    |  MIDI Event: Chan 1 Note OFF: B3, Velocity (0 - 127): 64
0    |  MIDI Event: Chan 6 Note OFF: B3, Velocity (0 - 127): 64
0    |  MIDI Event: Chan 5 Note OFF: F#3, Velocity (0 - 127): 64
0    |  MIDI Event: Chan 1 Note OFF: D4, Velocity (0 - 127): 64
1    |  MIDI Event: Chan 1 Note ON: D4, Velocity (0 - 127): 80
0    |  MIDI Event: Chan 1 Note ON: F#4, Velocity (0 - 127): 62
0    |  MIDI Event: Chan 1 Note ON: B4, Velocity (0 - 127): 91
0    |  MIDI Event: Chan 5 Note ON: D3, Velocity (0 - 127): 103
0    |  MIDI Event: Chan 5 Note ON: F#3, Velocity (0 - 127): 115
0    |  MIDI Event: Chan 10 Note ON: D#2, Velocity (0 - 127): 84
12   |  MIDI Event: Chan 1 Control/Mode Change: Sound Controller 5 (default: Brightness) (0-127): 44
0    |  MIDI Event: Chan 5 Control/Mode Change: Sound Controller 5 (default: Brightness) (0-127): 44
8    |  MIDI Event: Chan 6 Control/Mode Change: Channel Pan (0-127): 34
9    |  MIDI Event: Chan 10 Note OFF: D#2, Velocity (0 - 127): 64
0    |  MIDI Event: Chan 1 Note OFF: F#4, Velocity (0 - 127): 64
0    |  MIDI Event: Chan 1 Note OFF: B4, Velocity (0 - 127): 64
0    |  MIDI Event: Chan 1 Note OFF: D4, Velocity (0 - 127): 64
0    |  MIDI Event: Chan 5 Note OFF: F#3, Velocity (0 - 127): 64
0    |  MIDI Event: Chan 5 Note OFF: D3, Velocity (0 - 127): 64
1    |  MIDI Event: Chan 1 Note ON: B3, Velocity (0 - 127): 51
0    |  MIDI Event: Chan 1 Note ON: D4, Velocity (0 - 127): 85
0    |  MIDI Event: Chan 1 Note ON: F#4, Velocity (0 - 127): 59
0    |  MIDI Event: Chan 5 Note ON: B2, Velocity (0 - 127): 92
0    |  MIDI Event: Chan 5 Note ON: E3, Velocity (0 - 127): 98
0    |  MIDI Event: Chan 6 Note ON: A3, Velocity (0 - 127): 98
0    |  MIDI Event: Chan 6 Note ON: A4, Velocity (0 - 127): 98
29   |  MIDI Event: Chan 6 Note OFF: A4, Velocity (0 - 127): 64
0    |  MIDI Event: Chan 5 Note OFF: E3, Velocity (0 - 127): 64
0    |  MIDI Event: Chan 1 Note OFF: D4, Velocity (0 - 127): 64
0    |  MIDI Event: Chan 1 Note OFF: F#4, Velocity (0 - 127): 64
0    |  MIDI Event: Chan 1 Note OFF: B3, Velocity (0 - 127): 64
0    |  MIDI Event: Chan 6 Note OFF: A3, Velocity (0 - 127): 64
0    |  MIDI Event: Chan 5 Note OFF: B2, Velocity (0 - 127): 64
1    |  MIDI Event: Chan 1 Note ON: G3, Velocity (0 - 127): 74
0    |  MIDI Event: Chan 1 Note ON: B3, Velocity (0 - 127): 94
0    |  MIDI Event: Chan 1 Note ON: D4, Velocity (0 - 127): 91
0    |  MIDI Event: Chan 5 Note ON: G2, Velocity (0 - 127): 98
0    |  MIDI Event: Chan 5 Note ON: D3, Velocity (0 - 127): 116
0    |  MIDI Event: Chan 6 Note ON: B3, Velocity (0 - 127): 98
0    |  MIDI Event: Chan 6 Note ON: B4, Velocity (0 - 127): 98
0    |  MIDI Event: Chan 6 Control/Mode Change: Channel Pan (0-127): 94
0    |  MIDI Event: Chan 10 Note ON: A#4, Velocity (0 - 127): 100
16   |  MIDI Event: Chan 1 Control/Mode Change: Sound Controller 5 (default: Brightness) (0-127): 45
0    |  MIDI Event: Chan 5 Control/Mode Change: Sound Controller 5 (default: Brightness) (0-127): 45
13   |  MIDI Event: Chan 10 Note OFF: A#4, Velocity (0 - 127): 64
0    |  MIDI Event: Chan 6 Note OFF: B4, Velocity (0 - 127): 64
0    |  MIDI Event: Chan 6 Note OFF: B3, Velocity (0 - 127): 64
1    |  MIDI Event: Chan 6 Note ON: D4, Velocity (0 - 127): 54
0    |  MIDI Event: Chan 6 Note ON: D5, Velocity (0 - 127): 54
10   |  MIDI Event: Chan 6 Control/Mode Change: Channel Pan (0-127): 12
19   |  MIDI Event: Chan 6 Note OFF: D5, Velocity (0 - 127): 64
0    |  MIDI Event: Chan 1 Note OFF: B3, Velocity (0 - 127): 64
0    |  MIDI Event: Chan 5 Note OFF: D3, Velocity (0 - 127): 64
0    |  MIDI Event: Chan 1 Note OFF: D4, Velocity (0 - 127): 64
0    |  MIDI Event: Chan 5 Note OFF: G2, Velocity (0 - 127): 64
0    |  MIDI Event: Chan 6 Note OFF: D4, Velocity (0 - 127): 64
0    |  MIDI Event: Chan 1 Note OFF: G3, Velocity (0 - 127): 64
1    |  MIDI Event: Chan 1 Note ON: B3, Velocity (0 - 127): 70
0    |  MIDI Event: Chan 1 Note ON: D4, Velocity (0 - 127): 94
0    |  MIDI Event: Chan 1 Note ON: G4, Velocity (0 - 127): 101
0    |  MIDI Event: Chan 5 Note ON: D3, Velocity (0 - 127): 79
0    |  MIDI Event: Chan 5 Note ON: G3, Velocity (0 - 127): 111
0    |  MIDI Event: Chan 5 Note ON: B3, Velocity (0 - 127): 100
0    |  MIDI Event: Chan 6 Note ON: B3, Velocity (0 - 127): 116
0    |  MIDI Event: Chan 6 Note ON: B4, Velocity (0 - 127): 116
0    |  MIDI Event: Chan 10 Note ON: D#2, Velocity (0 - 127): 94
20   |  MIDI Event: Chan 1 Control/Mode Change: Sound Controller 5 (default: Brightness) (0-127): 46
0    |  MIDI Event: Chan 5 Control/Mode Change: Sound Controller 5 (default: Brightness) (0-127): 46
0    |  MIDI Event: Chan 6 Control/Mode Change: Channel Pan (0-127): 115
9    |  MIDI Event: Chan 10 Note OFF: D#2, Velocity (0 - 127): 64
30   |  MIDI Event: Chan 6 Note OFF: B4, Velocity (0 - 127): 64
0    |  MIDI Event: Chan 6 Note OFF: B3, Velocity (0 - 127): 64
1    |  MIDI Event: Chan 6 Control/Mode Change: Channel Pan (0-127): 34
0    |  MIDI Event: Chan 10 Note ON: A#4, Velocity (0 - 127): 102
24   |  MIDI Event: Chan 1 Control/Mode Change: Sound Controller 5 (default: Brightness) (0-127): 47
0    |  MIDI Event: Chan 5 Control/Mode Change: Sound Controller 5 (default: Brightness) (0-127): 47
5    |  MIDI Event: Chan 10 Note OFF: A#4, Velocity (0 - 127): 64
0    |  MIDI Event: Chan 5 Note OFF: B3, Velocity (0 - 127): 64
0    |  MIDI Event: Chan 1 Note OFF: D4, Velocity (0 - 127): 64
0    |  MIDI Event: Chan 1 Note OFF: G4, Velocity (0 - 127): 64
0    |  MIDI Event: Chan 5 Note OFF: D3, Velocity (0 - 127): 64
0    |  MIDI Event: Chan 5 Note OFF: G3, Velocity (0 - 127): 64
0    |  MIDI Event: Chan 1 Note OFF: B3, Velocity (0 - 127): 64
1    |  MIDI Event: Chan 1 Note ON: B3, Velocity (0 - 127): 52
0    |  MIDI Event: Chan 1 Note ON: D4, Velocity (0 - 127): 85
0    |  MIDI Event: Chan 1 Note ON: G4, Velocity (0 - 127): 94
0    |  MIDI Event: Chan 5 Note ON: D3, Velocity (0 - 127): 82
0    |  MIDI Event: Chan 5 Note ON: G3, Velocity (0 - 127): 98
0    |  MIDI Event: Chan 5 Note ON: B3, Velocity (0 - 127): 85
0    |  MIDI Event: Chan 6 Note ON: A3, Velocity (0 - 127): 83
0    |  MIDI Event: Chan 6 Note ON: A4, Velocity (0 - 127): 83
10   |  MIDI Event: Chan 6 Control/Mode Change: Channel Pan (0-127): 94
19   |  MIDI Event: Chan 6 Note OFF: A4, Velocity (0 - 127): 64
0    |  MIDI Event: Chan 1 Note OFF: B3, Velocity (0 - 127): 64
0    |  MIDI Event: Chan 5 Note OFF: G3, Velocity (0 - 127): 64
0    |  MIDI Event: Chan 1 Note OFF: D4, Velocity (0 - 127): 64
0    |  MIDI Event: Chan 1 Note OFF: G4, Velocity (0 - 127): 64
0    |  MIDI Event: Chan 5 Note OFF: D3, Velocity (0 - 127): 64
0    |  MIDI Event: Chan 5 Note OFF: B3, Velocity (0 - 127): 64
0    |  MIDI Event: Chan 6 Note OFF: A3, Velocity (0 - 127): 64
1    |  MIDI Event: Chan 1 Note ON: D4, Velocity (0 - 127): 78
0    |  MIDI Event: Chan 1 Note ON: G4, Velocity (0 - 127): 100
0    |  MIDI Event: Chan 1 Note ON: B4, Velocity (0 - 127): 46
0    |  MIDI Event: Chan 5 Note ON: G2, Velocity (0 - 127): 109
0    |  MIDI Event: Chan 5 Note ON: D3, Velocity (0 - 127): 109
0    |  MIDI Event: Chan 6 Note ON: B3, Velocity (0 - 127): 98
0    |  MIDI Event: Chan 6 Note ON: B4, Velocity (0 - 127): 98
0    |  MIDI Event: Chan 10 Note ON: D#2, Velocity (0 - 127): 102
20   |  MIDI Event: Chan 6 Control/Mode Change: Channel Pan (0-127): 12
8    |  MIDI Event: Chan 1 Control/Mode Change: Sound Controller 5 (default: Brightness) (0-127): 48
0    |  MIDI Event: Chan 5 Control/Mode Change: Sound Controller 5 (default: Brightness) (0-127): 48
1    |  MIDI Event: Chan 10 Note OFF: D#2, Velocity (0 - 127): 64
0    |  MIDI Event: Chan 1 Note OFF: D4, Velocity (0 - 127): 64
0    |  MIDI Event: Chan 5 Note OFF: D3, Velocity (0 - 127): 64
0    |  MIDI Event: Chan 1 Note OFF: G4, Velocity (0 - 127): 64
0    |  MIDI Event: Chan 1 Note OFF: B4, Velocity (0 - 127): 64
0    |  MIDI Event: Chan 5 Note OFF: G2, Velocity (0 - 127): 64
0    |  MIDI Event: Chan 6 Note OFF: B3, Velocity (0 - 127): 64
0    |  MIDI Event: Chan 6 Note OFF: B4, Velocity (0 - 127): 64
1    |  MIDI Event: Chan 1 Note ON: B3, Velocity (0 - 127): 45
0    |  MIDI Event: Chan 1 Note ON: D4, Velocity (0 - 127): 73
0    |  MIDI Event: Chan 1 Note ON: G4, Velocity (0 - 127): 86
0    |  MIDI Event: Chan 5 Note ON: G2, Velocity (0 - 127): 101
0    |  MIDI Event: Chan 5 Note ON: E3, Velocity (0 - 127): 116
0    |  MIDI Event: Chan 6 Note ON: A3, Velocity (0 - 127): 94
0    |  MIDI Event: Chan 6 Note ON: A4, Velocity (0 - 127): 94
29   |  MIDI Event: Chan 6 Note OFF: A4, Velocity (0 - 127): 64
0    |  MIDI Event: Chan 5 Note OFF: E3, Velocity (0 - 127): 64
0    |  MIDI Event: Chan 1 Note OFF: D4, Velocity (0 - 127): 64
0    |  MIDI Event: Chan 1 Note OFF: G4, Velocity (0 - 127): 64
0    |  MIDI Event: Chan 1 Note OFF: B3, Velocity (0 - 127): 64
0    |  MIDI Event: Chan 6 Note OFF: A3, Velocity (0 - 127): 64
0    |  MIDI Event: Chan 5 Note OFF: G2, Velocity (0 - 127): 64
1    |  MIDI Event: Chan 1 Note ON: F#3, Velocity (0 - 127): 35
0    |  MIDI Event: Chan 1 Note ON: A3, Velocity (0 - 127): 85
0    |  MIDI Event: Chan 1 Note ON: D4, Velocity (0 - 127): 79
0    |  MIDI Event: Chan 5 Note ON: A2, Velocity (0 - 127): 90
0    |  MIDI Event: Chan 5 Note ON: D3, Velocity (0 - 127): 105
0    |  MIDI Event: Chan 6 Note ON: D4, Velocity (0 - 127): 120
0    |  MIDI Event: Chan 6 Note ON: D5, Velocity (0 - 127): 120
0    |  MIDI Event: Chan 6 Control/Mode Change: Channel Pan (0-127): 115
0    |  MIDI Event: Chan 10 Note ON: A#4, Velocity (0 - 127): 104
0    |  MIDI Event: Chan 13 Control/Mode Change: Expression Control (0-127): 7
0    |  MIDI Event: Chan 13 Control/Mode Change: Sound Controller 5 (default: Brightness) (0-127): 22
0    |  MIDI Event: Chan 13 Note ON: C3, Velocity (0 - 127): 120
15   |  MIDI Event: Chan 13 Control/Mode Change: Expression Control (0-127): 8
0    |  MIDI Event: Chan 13 Control/Mode Change: Sound Controller 5 (default: Brightness) (0-127): 24
14   |  MIDI Event: Chan 10 Note OFF: A#4, Velocity (0 - 127): 64
1    |  MIDI Event: Chan 13 Control/Mode Change: Expression Control (0-127): 10
0    |  MIDI Event: Chan 13 Control/Mode Change: Sound Controller 5 (default: Brightness) (0-127): 26
2    |  MIDI Event: Chan 1 Control/Mode Change: Sound Controller 5 (default: Brightness) (0-127): 49
0    |  MIDI Event: Chan 5 Control/Mode Change: Sound Controller 5 (default: Brightness) (0-127): 49
8    |  MIDI Event: Chan 6 Control/Mode Change: Channel Pan (0-127): 34
5    |  MIDI Event: Chan 13 Control/Mode Change: Expression Control (0-127): 12
0    |  MIDI Event: Chan 13 Control/Mode Change: Sound Controller 5 (default: Brightness) (0-127): 28
14   |  MIDI Event: Chan 6 Note OFF: D5, Velocity (0 - 127): 64
0    |  MIDI Event: Chan 5 Note OFF: A2, Velocity (0 - 127): 64
0    |  MIDI Event: Chan 5 Note OFF: D3, Velocity (0 - 127): 64
0    |  MIDI Event: Chan 1 Note OFF: A3, Velocity (0 - 127): 64
0    |  MIDI Event: Chan 1 Note OFF: D4, Velocity (0 - 127): 64
0    |  MIDI Event: Chan 1 Note OFF: F#3, Velocity (0 - 127): 64
0    |  MIDI Event: Chan 6 Note OFF: D4, Velocity (0 - 127): 64
1    |  MIDI Event: Chan 1 Note ON: A3, Velocity (0 - 127): 69
0    |  MIDI Event: Chan 1 Note ON: D4, Velocity (0 - 127): 98
0    |  MIDI Event: Chan 1 Note ON: F#4, Velocity (0 - 127): 74
0    |  MIDI Event: Chan 5 Note ON: A2, Velocity (0 - 127): 100
0    |  MIDI Event: Chan 5 Note ON: D3, Velocity (0 - 127): 111
0    |  MIDI Event: Chan 5 Note ON: F#3, Velocity (0 - 127): 89
0    |  MIDI Event: Chan 10 Note ON: D#2, Velocity (0 - 127): 92
0    |  MIDI Event: Chan 13 Control/Mode Change: Expression Control (0-127): 14
0    |  MIDI Event: Chan 13 Control/Mode Change: Sound Controller 5 (default: Brightness) (0-127): 30
15   |  MIDI Event: Chan 13 Control/Mode Change: Expression Control (0-127): 16
0    |  MIDI Event: Chan 13 Control/Mode Change: Sound Controller 5 (default: Brightness) (0-127): 32
5    |  MIDI Event: Chan 6 Control/Mode Change: Channel Pan (0-127): 94
9    |  MIDI Event: Chan 10 Note OFF: D#2, Velocity (0 - 127): 64
1    |  MIDI Event: Chan 13 Control/Mode Change: Expression Control (0-127): 18
0    |  MIDI Event: Chan 13 Control/Mode Change: Sound Controller 5 (default: Brightness) (0-127): 35
6    |  MIDI Event: Chan 1 Control/Mode Change: Sound Controller 5 (default: Brightness) (0-127): 50
0    |  MIDI Event: Chan 5 Control/Mode Change: Sound Controller 5 (default: Brightness) (0-127): 50
9    |  MIDI Event: Chan 13 Control/Mode Change: Expression Control (0-127): 20
0    |  MIDI Event: Chan 13 Control/Mode Change: Sound Controller 5 (default: Brightness) (0-127): 37
15   |  MIDI Event: Chan 6 Note ON: D4, Velocity (0 - 127): 120
0    |  MIDI Event: Chan 6 Note ON: D5, Velocity (0 - 127): 120
0    |  MIDI Event: Chan 6 Control/Mode Change: Channel Pan (0-127): 12
0    |  MIDI Event: Chan 10 Note ON: A#4, Velocity (0 - 127): 102
0    |  MIDI Event: Chan 13 Control/Mode Change: Expression Control (0-127): 22
0    |  MIDI Event: Chan 13 Control/Mode Change: Sound Controller 5 (default: Brightness) (0-127): 39
15   |  MIDI Event: Chan 13 Control/Mode Change: Expression Control (0-127): 24
0    |  MIDI Event: Chan 13 Control/Mode Change: Sound Controller 5 (default: Brightness) (0-127): 41
14   |  MIDI Event: Chan 10 Note OFF: A#4, Velocity (0 - 127): 64
0    |  MIDI Event: Chan 1 Note OFF: D4, Velocity (0 - 127): 64
0    |  MIDI Event: Chan 5 Note OFF: F#3, Velocity (0 - 127): 64
0    |  MIDI Event: Chan 1 Note OFF: F#4, Velocity (0 - 127): 64
0    |  MIDI Event: Chan 5 Note OFF: A2, Velocity (0 - 127): 64
0    |  MIDI Event: Chan 1 Note OFF: A3, Velocity (0 - 127): 64
0    |  MIDI Event: Chan 5 Note OFF: D3, Velocity (0 - 127): 64
1    |  MIDI Event: Chan 1 Note ON: F#3, Velocity (0 - 127): 44
0    |  MIDI Event: Chan 1 Note ON: A3, Velocity (0 - 127): 78
0    |  MIDI Event: Chan 1 Note ON: D4, Velocity (0 - 127): 58
0    |  MIDI Event: Chan 5 Note ON: A2, Velocity (0 - 127): 85
0    |  MIDI Event: Chan 5 Note ON: D3, Velocity (0 - 127): 105
0    |  MIDI Event: Chan 5 Note ON: F#3, Velocity (0 - 127): 81
0    |  MIDI Event: Chan 13 Control/Mode Change: Expression Control (0-127): 26
0    |  MIDI Event: Chan 13 Control/Mode Change: Sound Controller 5 (default: Brightness) (0-127): 43
10   |  MIDI Event: Chan 1 Control/Mode Change: Sound Controller 5 (default: Brightness) (0-127): 51
0    |  MIDI Event: Chan 5 Control/Mode Change: Sound Controller 5 (default: Brightness) (0-127): 51
0    |  MIDI Event: Chan 6 Control/Mode Change: Channel Pan (0-127): 115
5    |  MIDI Event: Chan 13 Control/Mode Change: Expression Control (0-127): 27
0    |  MIDI Event: Chan 13 Control/Mode Change: Sound Controller 5 (default: Brightness) (0-127): 46
14   |  MIDI Event: Chan 5 Note OFF: F#3, Velocity (0 - 127): 64
0    |  MIDI Event: Chan 1 Note OFF: F#3, Velocity (0 - 127): 64
0    |  MIDI Event: Chan 5 Note OFF: D3, Velocity (0 - 127): 64
0    |  MIDI Event: Chan 1 Note OFF: A3, Velocity (0 - 127): 64
0    |  MIDI Event: Chan 6 Note OFF: D4, Velocity (0 - 127): 64
0    |  MIDI Event: Chan 6 Note OFF: D5, Velocity (0 - 127): 64
0    |  MIDI Event: Chan 5 Note OFF: A2, Velocity (0 - 127): 64
0    |  MIDI Event: Chan 1 Note OFF: D4, Velocity (0 - 127): 64
1    |  MIDI Event: Chan 1 Note ON: A3, Velocity (0 - 127): 57
0    |  MIDI Event: Chan 1 Note ON: D4, Velocity (0 - 127): 91
0    |  MIDI Event: Chan 1 Note ON: F#4, Velocity (0 - 127): 77
0    |  MIDI Event: Chan 5 Note ON: D3, Velocity (0 - 127): 109
0    |  MIDI Event: Chan 5 Note ON: F#3, Velocity (0 - 127): 89
0    |  MIDI Event: Chan 5 Note ON: A3, Velocity (0 - 127): 109
0    |  MIDI Event: Chan 10 Note ON: D#2, Velocity (0 - 127): 86
0    |  MIDI Event: Chan 13 Control/Mode Change: Expression Control (0-127): 29
0    |  MIDI Event: Chan 13 Control/Mode Change: Sound Controller 5 (default: Brightness) (0-127): 48
15   |  MIDI Event: Chan 13 Control/Mode Change: Expression Control (0-127): 31
0    |  MIDI Event: Chan 13 Control/Mode Change: Sound Controller 5 (default: Brightness) (0-127): 50
5    |  MIDI Event: Chan 6 Control/Mode Change: Channel Pan (0-127): 34
9    |  MIDI Event: Chan 10 Note OFF: D#2, Velocity (0 - 127): 64
0    |  MIDI Event: Chan 5 Note OFF: A3, Velocity (0 - 127): 64
0    |  MIDI Event: Chan 5 Note OFF: D3, Velocity (0 - 127): 64
0    |  MIDI Event: Chan 1 Note OFF: A3, Velocity (0 - 127): 64
0    |  MIDI Event: Chan 1 Note OFF: D4, Velocity (0 - 127): 64
0    |  MIDI Event: Chan 1 Note OFF: F#4, Velocity (0 - 127): 64
0    |  MIDI Event: Chan 5 Note OFF: F#3, Velocity (0 - 127): 64
1    |  MIDI Event: Chan 1 Note ON: F#3, Velocity (0 - 127): 35
0    |  MIDI Event: Chan 1 Note ON: A3, Velocity (0 - 127): 79
0    |  MIDI Event: Chan 1 Note ON: D4, Velocity (0 - 127): 56
0    |  MIDI Event: Chan 5 Note ON: D3, Velocity (0 - 127): 111
0    |  MIDI Event: Chan 5 Note ON: F#3, Velocity (0 - 127): 100
0    |  MIDI Event: Chan 5 Note ON: A3, Velocity (0 - 127): 100
0    |  MIDI Event: Chan 6 Note ON: D4, Velocity (0 - 127): 89
0    |  MIDI Event: Chan 6 Note ON: D5, Velocity (0 - 127): 89
0    |  MIDI Event: Chan 13 Control/Mode Change: Expression Control (0-127): 33
0    |  MIDI Event: Chan 13 Control/Mode Change: Sound Controller 5 (default: Brightness) (0-127): 52
14   |  MIDI Event: Chan 1 Control/Mode Change: Sound Controller 5 (default: Brightness) (0-127): 52
0    |  MIDI Event: Chan 5 Control/Mode Change: Sound Controller 5 (default: Brightness) (0-127): 52
1    |  MIDI Event: Chan 13 Control/Mode Change: Expression Control (0-127): 35
0    |  MIDI Event: Chan 13 Control/Mode Change: Sound Controller 5 (default: Brightness) (0-127): 54
14   |  MIDI Event: Chan 6 Note OFF: D5, Velocity (0 - 127): 64
0    |  MIDI Event: Chan 1 Note OFF: D4, Velocity (0 - 127): 64
0    |  MIDI Event: Chan 6 Note OFF: D4, Velocity (0 - 127): 64
0    |  MIDI Event: Chan 5 Note OFF: D3, Velocity (0 - 127): 64
0    |  MIDI Event: Chan 1 Note OFF: F#3, Velocity (0 - 127): 64
0    |  MIDI Event: Chan 1 Note OFF: A3, Velocity (0 - 127): 64
0    |  MIDI Event: Chan 5 Note OFF: A3, Velocity (0 - 127): 64
0    |  MIDI Event: Chan 5 Note OFF: F#3, Velocity (0 - 127): 64
1    |  MIDI Event: Chan 1 Note ON: F#3, Velocity (0 - 127): 49
0    |  MIDI Event: Chan 1 Note ON: A3, Velocity (0 - 127): 85
0    |  MIDI Event: Chan 1 Note ON: D4, Velocity (0 - 127): 75
0    |  MIDI Event: Chan 5 Note ON: A2, Velocity (0 - 127): 105
0    |  MIDI Event: Chan 5 Note ON: D3, Velocity (0 - 127): 116
0    |  MIDI Event: Chan 6 Note ON: E4, Velocity (0 - 127): 81
0    |  MIDI Event: Chan 6 Note ON: E5, Velocity (0 - 127): 81
0    |  MIDI Event: Chan 6 Control/Mode Change: Channel Pan (0-127): 94
0    |  MIDI Event: Chan 10 Note ON: A#4, Velocity (0 - 127): 115
0    |  MIDI Event: Chan 13 Control/Mode Change: Expression Control (0-127): 37
0    |  MIDI Event: Chan 13 Control/Mode Change: Sound Controller 5 (default: Brightness) (0-127): 57
15   |  MIDI Event: Chan 13 Control/Mode Change: Expression Control (0-127): 39
0    |  MIDI Event: Chan 13 Control/Mode Change: Sound Controller 5 (default: Brightness) (0-127): 59
14   |  MIDI Event: Chan 10 Note OFF: A#4, Velocity (0 - 127): 64
0    |  MIDI Event: Chan 6 Note OFF: E5, Velocity (0 - 127): 64
0    |  MIDI Event: Chan 6 Note OFF: E4, Velocity (0 - 127): 64
1    |  MIDI Event: Chan 6 Note ON: D4, Velocity (0 - 127): 95
0    |  MIDI Event: Chan 6 Note ON: D5, Velocity (0 - 127): 95
0    |  MIDI Event: Chan 13 Control/Mode Change: Expression Control (0-127): 41
0    |  MIDI Event: Chan 13 Control/Mode Change: Sound Controller 5 (default: Brightness) (0-127): 61
10   |  MIDI Event: Chan 6 Control/Mode Change: Channel Pan (0-127): 12
5    |  MIDI Event: Chan 13 Control/Mode Change: Expression Control (0-127): 43
0    |  MIDI Event: Chan 13 Control/Mode Change: Sound Controller 5 (default: Brightness) (0-127): 63
3    |  MIDI Event: Chan 1 Control/Mode Change: Sound Controller 5 (default: Brightness) (0-127): 53
0    |  MIDI Event: Chan 5 Control/Mode Change: Sound Controller 5 (default: Brightness) (0-127): 53
11   |  MIDI Event: Chan 6 Note OFF: D5, Velocity (0 - 127): 64
0    |  MIDI Event: Chan 6 Note OFF: D4, Velocity (0 - 127): 64
0    |  MIDI Event: Chan 5 Note OFF: D3, Velocity (0 - 127): 64
0    |  MIDI Event: Chan 1 Note OFF: F#3, Velocity (0 - 127): 64
0    |  MIDI Event: Chan 1 Note OFF: A3, Velocity (0 - 127): 64
0    |  MIDI Event: Chan 1 Note OFF: D4, Velocity (0 - 127): 64
0    |  MIDI Event: Chan 5 Note OFF: A2, Velocity (0 - 127): 64
1    |  MIDI Event: Chan 1 Note ON: A3, Velocity (0 - 127): 56
0    |  MIDI Event: Chan 1 Note ON: D4, Velocity (0 - 127): 84
0    |  MIDI Event: Chan 1 Note ON: F#4, Velocity (0 - 127): 49
0    |  MIDI Event: Chan 5 Note ON: D3, Velocity (0 - 127): 105
0    |  MIDI Event: Chan 5 Note ON: F#3, Velocity (0 - 127): 115
0    |  MIDI Event: Chan 6 Note ON: E4, Velocity (0 - 127): 111
0    |  MIDI Event: Chan 6 Note ON: E5, Velocity (0 - 127): 111
0    |  MIDI Event: Chan 10 Note ON: D#2, Velocity (0 - 127): 92
0    |  MIDI Event: Chan 13 Control/Mode Change: Expression Control (0-127): 45
0    |  MIDI Event: Chan 13 Control/Mode Change: Sound Controller 5 (default: Brightness) (0-127): 65
15   |  MIDI Event: Chan 13 Control/Mode Change: Expression Control (0-127): 47
0    |  MIDI Event: Chan 13 Control/Mode Change: Sound Controller 5 (default: Brightness) (0-127): 67
5    |  MIDI Event: Chan 6 Control/Mode Change: Channel Pan (0-127): 115
9    |  MIDI Event: Chan 10 Note OFF: D#2, Velocity (0 - 127): 64
0    |  MIDI Event: Chan 5 Note OFF: F#3, Velocity (0 - 127): 64
0    |  MIDI Event: Chan 1 Note OFF: F#4, Velocity (0 - 127): 64
0    |  MIDI Event: Chan 1 Note OFF: D4, Velocity (0 - 127): 64
0    |  MIDI Event: Chan 1 Note OFF: A3, Velocity (0 - 127): 64
0    |  MIDI Event: Chan 5 Note OFF: D3, Velocity (0 - 127): 64
1    |  MIDI Event: Chan 1 Note ON: A3, Velocity (0 - 127): 84
0    |  MIDI Event: Chan 1 Note ON: D4, Velocity (0 - 127): 94
0    |  MIDI Event: Chan 1 Note ON: F#4, Velocity (0 - 127): 76
0    |  MIDI Event: Chan 5 Note ON: D3, Velocity (0 - 127): 100
0    |  MIDI Event: Chan 5 Note ON: F#3, Velocity (0 - 127): 92
0    |  MIDI Event: Chan 13 Control/Mode Change: Expression Control (0-127): 48
0    |  MIDI Event: Chan 13 Control/Mode Change: Sound Controller 5 (default: Brightness) (0-127): 70
15   |  MIDI Event: Chan 13 Control/Mode Change: Expression Control (0-127): 50
0    |  MIDI Event: Chan 13 Control/Mode Change: Sound Controller 5 (default: Brightness) (0-127): 72
6    |  MIDI Event: Chan 6 Pitch Bend Change (0-16383): 7749 (factor==0.992841)
1    |  MIDI Event: Chan 1 Control/Mode Change: Sound Controller 5 (default: Brightness) (0-127): 54
0    |  MIDI Event: Chan 5 Control/Mode Change: Sound Controller 5 (default: Brightness) (0-127): 54
1    |  MIDI Event: Chan 6 Pitch Bend Change (0-16383): 6215 (factor==0.968447)
3    |  MIDI Event: Chan 6 Pitch Bend Change (0-16383): 4197 (factor==0.937266)
2    |  MIDI Event: Chan 6 Pitch Bend Change (0-16383): 2422 (factor==0.91067)
1    |  MIDI Event: Chan 5 Note OFF: F#3, Velocity (0 - 127): 64
0    |  MIDI Event: Chan 6 Note OFF: E4, Velocity (0 - 127): 64
0    |  MIDI Event: Chan 1 Note OFF: D4, Velocity (0 - 127): 64
0    |  MIDI Event: Chan 5 Note OFF: D3, Velocity (0 - 127): 64
0    |  MIDI Event: Chan 6 Note OFF: E5, Velocity (0 - 127): 64
0    |  MIDI Event: Chan 1 Note OFF: A3, Velocity (0 - 127): 64
0    |  MIDI Event: Chan 1 Note OFF: F#4, Velocity (0 - 127): 64
1    |  MIDI Event: Chan 1 Note ON: E3, Velocity (0 - 127): 47
0    |  MIDI Event: Chan 1 Note ON: A3, Velocity (0 - 127): 89
0    |  MIDI Event: Chan 1 Note ON: C#4, Velocity (0 - 127): 52
0    |  MIDI Event: Chan 5 Note ON: A2, Velocity (0 - 127): 101
0    |  MIDI Event: Chan 5 Note ON: E3, Velocity (0 - 127): 101
0    |  MIDI Event: Chan 6 Note ON: F#4, Velocity (0 - 127): 119
0    |  MIDI Event: Chan 6 Note ON: F#5, Velocity (0 - 127): 119
0    |  MIDI Event: Chan 6 Control/Mode Change: Channel Pan (0-127): 34
0    |  MIDI Event: Chan 10 Note ON: A#4, Velocity (0 - 127): 115
0    |  MIDI Event: Chan 13 Control/Mode Change: Expression Control (0-127): 52
0    |  MIDI Event: Chan 13 Control/Mode Change: Sound Controller 5 (default: Brightness) (0-127): 74
1    |  MIDI Event: Chan 6 Pitch Bend Change (0-16383): 1211 (factor==0.89296)
2    |  MIDI Event: Chan 6 Pitch Bend Change (0-16383): 646 (factor==0.884815)
3    |  MIDI Event: Chan 6 Pitch Bend Change (0-16383): 565 (factor==0.883653)
2    |  MIDI Event: Chan 6 Pitch Bend Change (0-16383): 646 (factor==0.884815)
3    |  MIDI Event: Chan 6 Pitch Bend Change (0-16383): 1373 (factor==0.895309)
2    |  MIDI Event: Chan 6 Pitch Bend Change (0-16383): 2260 (factor==0.908281)
2    |  MIDI Event: Chan 13 Control/Mode Change: Expression Control (0-127): 54
0    |  MIDI Event: Chan 13 Control/Mode Change: Sound Controller 5 (default: Brightness) (0-127): 76
1    |  MIDI Event: Chan 6 Pitch Bend Change (0-16383): 3471 (factor==0.926295)
2    |  MIDI Event: Chan 6 Pitch Bend Change (0-16383): 5085 (factor==0.950861)
3    |  MIDI Event: Chan 6 Pitch Bend Change (0-16383): 6942 (factor==0.979932)
2    |  MIDI Event: Chan 6 Pitch Bend Change (0-16383): 8071 (factor==0.99804)
3    |  MIDI Event: Chan 6 Pitch Bend Change (0-16383): 8192 (factor==1)
3    |  MIDI Event: Chan 10 Note OFF: A#4, Velocity (0 - 127): 64
1    |  MIDI Event: Chan 13 Control/Mode Change: Expression Control (0-127): 56
0    |  MIDI Event: Chan 13 Control/Mode Change: Sound Controller 5 (default: Brightness) (0-127): 78
10   |  MIDI Event: Chan 6 Control/Mode Change: Channel Pan (0-127): 94
5    |  MIDI Event: Chan 13 Control/Mode Change: Expression Control (0-127): 58
0    |  MIDI Event: Chan 13 Control/Mode Change: Sound Controller 5 (default: Brightness) (0-127): 81
11   |  MIDI Event: Chan 1 Control/Mode Change: Sound Controller 5 (default: Brightness) (0-127): 55
0    |  MIDI Event: Chan 5 Control/Mode Change: Sound Controller 5 (default: Brightness) (0-127): 55
3    |  MIDI Event: Chan 1 Note OFF: C#4, Velocity (0 - 127): 64
0    |  MIDI Event: Chan 6 Note OFF: F#5, Velocity (0 - 127): 64
0    |  MIDI Event: Chan 5 Note OFF: A2, Velocity (0 - 127): 64
0    |  MIDI Event: Chan 1 Note OFF: E3, Velocity (0 - 127): 64
0    |  MIDI Event: Chan 1 Note OFF: A3, Velocity (0 - 127): 64
0    |  MIDI Event: Chan 6 Note OFF: F#4, Velocity (0 - 127): 64
0    |  MIDI Event: Chan 5 Note OFF: E3, Velocity (0 - 127): 64
1    |  MIDI Event: Chan 1 Note ON: A3, Velocity (0 - 127): 51
0    |  MIDI Event: Chan 1 Note ON: C#4, Velocity (0 - 127): 52
0    |  MIDI Event: Chan 1 Note ON: E4, Velocity (0 - 127): 78
0    |  MIDI Event: Chan 5 Note ON: C#3, Velocity (0 - 127): 89
0    |  MIDI Event: Chan 5 Note ON: E3, Velocity (0 - 127): 101
0    |  MIDI Event: Chan 5 Note ON: A3, Velocity (0 - 127): 89
0    |  MIDI Event: Chan 6 Note ON: D4, Velocity (0 - 127): 98
0    |  MIDI Event: Chan 6 Note ON: D5, Velocity (0 - 127): 98
0    |  MIDI Event: Chan 10 Note ON: D#2, Velocity (0 - 127): 111
0    |  MIDI Event: Chan 13 Control/Mode Change: Expression Control (0-127): 60
0    |  MIDI Event: Chan 13 Control/Mode Change: Sound Controller 5 (default: Brightness) (0-127): 83
15   |  MIDI Event: Chan 13 Control/Mode Change: Expression Control (0-127): 62
0    |  MIDI Event: Chan 13 Control/Mode Change: Sound Controller 5 (default: Brightness) (0-127): 85
5    |  MIDI Event: Chan 6 Control/Mode Change: Channel Pan (0-127): 12
9    |  MIDI Event: Chan 10 Note OFF: D#2, Velocity (0 - 127): 64
0    |  MIDI Event: Chan 1 Note OFF: C#4, Velocity (0 - 127): 64
0    |  MIDI Event: Chan 5 Note OFF: A3, Velocity (0 - 127): 64
0    |  MIDI Event: Chan 1 Note OFF: E4, Velocity (0 - 127): 64
0    |  MIDI Event: Chan 5 Note OFF: C#3, Velocity (0 - 127): 64
0    |  MIDI Event: Chan 1 Note OFF: A3, Velocity (0 - 127): 64
0    |  MIDI Event: Chan 5 Note OFF: E3, Velocity (0 - 127): 64
1    |  MIDI Event: Chan 1 Note ON: A3, Velocity (0 - 127): 73
0    |  MIDI Event: Chan 1 Note ON: C#4, Velocity (0 - 127): 52
0    |  MIDI Event: Chan 1 Note ON: E4, Velocity (0 - 127): 83
0    |  MIDI Event: Chan 5 Note ON: C#3, Velocity (0 - 127): 119
0    |  MIDI Event: Chan 5 Note ON: E3, Velocity (0 - 127): 118
0    |  MIDI Event: Chan 5 Note ON: A3, Velocity (0 - 127): 105
0    |  MIDI Event: Chan 13 Control/Mode Change: Expression Control (0-127): 64
0    |  MIDI Event: Chan 13 Control/Mode Change: Sound Controller 5 (default: Brightness) (0-127): 87
15   |  MIDI Event: Chan 13 Control/Mode Change: Expression Control (0-127): 66
0    |  MIDI Event: Chan 13 Control/Mode Change: Sound Controller 5 (default: Brightness) (0-127): 89
14   |  MIDI Event: Chan 5 Note OFF: A3, Velocity (0 - 127): 64
0    |  MIDI Event: Chan 1 Note OFF: A3, Velocity (0 - 127): 64
0    |  MIDI Event: Chan 5 Note OFF: E3, Velocity (0 - 127): 64
0    |  MIDI Event: Chan 1 Note OFF: C#4, Velocity (0 - 127): 64
0    |  MIDI Event: Chan 6 Note OFF: D4, Velocity (0 - 127): 64
0    |  MIDI Event: Chan 6 Note OFF: D5, Velocity (0 - 127): 64
0    |  MIDI Event: Chan 5 Note OFF: C#3, Velocity (0 - 127): 64
0    |  MIDI Event: Chan 1 Note OFF: E4, Velocity (0 - 127): 64
1    |  MIDI Event: Chan 1 Control/Mode Change: Sound Controller 5 (default: Brightness) (0-127): 56
0    |  MIDI Event: Chan 1 Note ON: B3, Velocity (0 - 127): 58
0    |  MIDI Event: Chan 1 Note ON: D4, Velocity (0 - 127): 91
0    |  MIDI Event: Chan 5 Control/Mode Change: Sound Controller 5 (default: Brightness) (0-127): 56
0    |  MIDI Event: Chan 5 Note ON: B2, Velocity (0 - 127): 85
0    |  MIDI Event: Chan 5 Note ON: F#3, Velocity (0 - 127): 120
0    |  MIDI Event: Chan 6 Note ON: B3, Velocity (0 - 127): 105
0    |  MIDI Event: Chan 6 Note ON: B4, Velocity (0 - 127): 105
0    |  MIDI Event: Chan 6 Control/Mode Change: Channel Pan (0-127): 115
0    |  MIDI Event: Chan 9 Note ON: D3, Velocity (0 - 127): 120
0    |  MIDI Event: Chan 9 Note ON: D4, Velocity (0 - 127): 120
0    |  MIDI Event: Chan 10 Note ON: A#4, Velocity (0 - 127): 109
0    |  MIDI Event: Chan 13 Control/Mode Change: Expression Control (0-127): 67
0    |  MIDI Event: Chan 13 Control/Mode Change: Sound Controller 5 (default: Brightness) (0-127): 92
15   |  MIDI Event: Chan 13 Control/Mode Change: Expression Control (0-127): 69
0    |  MIDI Event: Chan 13 Control/Mode Change: Sound Controller 5 (default: Brightness) (0-127): 94
14   |  MIDI Event: Chan 10 Note OFF: A#4, Velocity (0 - 127): 64
1    |  MIDI Event: Chan 13 Control/Mode Change: Expression Control (0-127): 71
0    |  MIDI Event: Chan 13 Control/Mode Change: Sound Controller 5 (default: Brightness) (0-127): 96
10   |  MIDI Event: Chan 6 Control/Mode Change: Channel Pan (0-127): 34
5    |  MIDI Event: Chan 13 Control/Mode Change: Expression Control (0-127): 73
0    |  MIDI Event: Chan 13 Control/Mode Change: Sound Controller 5 (default: Brightness) (0-127): 98
14   |  MIDI Event: Chan 1 Note OFF: D4, Velocity (0 - 127): 64
0    |  MIDI Event: Chan 6 Note OFF: B4, Velocity (0 - 127): 64
0    |  MIDI Event: Chan 5 Note OFF: B2, Velocity (0 - 127): 64
0    |  MIDI Event: Chan 5 Note OFF: F#3, Velocity (0 - 127): 64
0    |  MIDI Event: Chan 1 Note OFF: B3, Velocity (0 - 127): 64
0    |  MIDI Event: Chan 6 Note OFF: B3, Velocity (0 - 127): 64
1    |  MIDI Event: Chan 1 Note ON: B3, Velocity (0 - 127): 79
0    |  MIDI Event: Chan 1 Note ON: D4, Velocity (0 - 127): 95
0    |  MIDI Event: Chan 1 Note ON: F#4, Velocity (0 - 127): 74
0    |  MIDI Event: Chan 5 Note ON: D3, Velocity (0 - 127): 92
0    |  MIDI Event: Chan 5 Note ON: F#3, Velocity (0 - 127): 87
0    |  MIDI Event: Chan 5 Note ON: D4, Velocity (0 - 127): 95
0    |  MIDI Event: Chan 10 Note ON: D#2, Velocity (0 - 127): 106
0    |  MIDI Event: Chan 13 Control/Mode Change: Expression Control (0-127): 75
0    |  MIDI Event: Chan 13 Control/Mode Change: Sound Controller 5 (default: Brightness) (0-127): 100
4    |  MIDI Event: Chan 1 Control/Mode Change: Sound Controller 5 (default: Brightness) (0-127): 57
0    |  MIDI Event: Chan 5 Control/Mode Change: Sound Controller 5 (default: Brightness) (0-127): 57
11   |  MIDI Event: Chan 13 Control/Mode Change: Expression Control (0-127): 77
0    |  MIDI Event: Chan 13 Control/Mode Change: Sound Controller 5 (default: Brightness) (0-127): 102
5    |  MIDI Event: Chan 6 Control/Mode Change: Channel Pan (0-127): 94
9    |  MIDI Event: Chan 10 Note OFF: D#2, Velocity (0 - 127): 64
1    |  MIDI Event: Chan 13 Control/Mode Change: Expression Control (0-127): 79
0    |  MIDI Event: Chan 13 Control/Mode Change: Sound Controller 5 (default: Brightness) (0-127): 105
15   |  MIDI Event: Chan 13 Control/Mode Change: Expression Control (0-127): 81
0    |  MIDI Event: Chan 13 Control/Mode Change: Sound Controller 5 (default: Brightness) (0-127): 107
15   |  MIDI Event: Chan 6 Note ON: B3, Velocity (0 - 127): 119
0    |  MIDI Event: Chan 6 Note ON: B4, Velocity (0 - 127): 119
0    |  MIDI Event: Chan 6 Control/Mode Change: Channel Pan (0-127): 12
0    |  MIDI Event: Chan 10 Note ON: A#4, Velocity (0 - 127): 120
0    |  MIDI Event: Chan 13 Control/Mode Change: Expression Control (0-127): 83
0    |  MIDI Event: Chan 13 Control/Mode Change: Sound Controller 5 (default: Brightness) (0-127): 109
8    |  MIDI Event: Chan 1 Control/Mode Change: Sound Controller 5 (default: Brightness) (0-127): 58
0    |  MIDI Event: Chan 5 Control/Mode Change: Sound Controller 5 (default: Brightness) (0-127): 58
7    |  MIDI Event: Chan 13 Control/Mode Change: Expression Control (0-127): 85
0    |  MIDI Event: Chan 13 Control/Mode Change: Sound Controller 5 (default: Brightness) (0-127): 111
14   |  MIDI Event: Chan 10 Note OFF: A#4, Velocity (0 - 127): 64
0    |  MIDI Event: Chan 5 Note OFF: D3, Velocity (0 - 127): 64
0    |  MIDI Event: Chan 1 Note OFF: B3, Velocity (0 - 127): 64
0    |  MIDI Event: Chan 5 Note OFF: F#3, Velocity (0 - 127): 64
0    |  MIDI Event: Chan 5 Note OFF: D4, Velocity (0 - 127): 64
0    |  MIDI Event: Chan 1 Note OFF: F#4, Velocity (0 - 127): 64
0    |  MIDI Event: Chan 1 Note OFF: D4, Velocity (0 - 127): 64
1    |  MIDI Event: Chan 1 Note ON: B3, Velocity (0 - 127): 71
0    |  MIDI Event: Chan 1 Note ON: D4, Velocity (0 - 127): 91
0    |  MIDI Event: Chan 1 Note ON: F#4, Velocity (0 - 127): 60
0    |  MIDI Event: Chan 5 Note ON: F#3, Velocity (0 - 127): 109
0    |  MIDI Event: Chan 5 Note ON: B3, Velocity (0 - 127): 95
0    |  MIDI Event: Chan 13 Control/Mode Change: Expression Control (0-127): 87
0    |  MIDI Event: Chan 13 Control/Mode Change: Sound Controller 5 (default: Brightness) (0-127): 113
10   |  MIDI Event: Chan 6 Control/Mode Change: Channel Pan (0-127): 115
5    |  MIDI Event: Chan 13 Control/Mode Change: Expression Control (0-127): 88
0    |  MIDI Event: Chan 13 Control/Mode Change: Sound Controller 5 (default: Brightness) (0-127): 116
14   |  MIDI Event: Chan 5 Note OFF: B3, Velocity (0 - 127): 64
0    |  MIDI Event: Chan 5 Note OFF: F#3, Velocity (0 - 127): 64
0    |  MIDI Event: Chan 1 Note OFF: D4, Velocity (0 - 127): 64
0    |  MIDI Event: Chan 6 Note OFF: B4, Velocity (0 - 127): 64
0    |  MIDI Event: Chan 6 Note OFF: B3, Velocity (0 - 127): 64
0    |  MIDI Event: Chan 1 Note OFF: F#4, Velocity (0 - 127): 64
0    |  MIDI Event: Chan 1 Note OFF: B3, Velocity (0 - 127): 64
1    |  MIDI Event: Chan 1 Note ON: D4, Velocity (0 - 127): 80
0    |  MIDI Event: Chan 1 Note ON: F#4, Velocity (0 - 127): 62
0    |  MIDI Event: Chan 1 Note ON: B4, Velocity (0 - 127): 91
0    |  MIDI Event: Chan 5 Note ON: D3, Velocity (0 - 127): 103
0    |  MIDI Event: Chan 5 Note ON: F#3, Velocity (0 - 127): 115
0    |  MIDI Event: Chan 10 Note ON: D#2, Velocity (0 - 127): 119
0    |  MIDI Event: Chan 13 Control/Mode Change: Expression Control (0-127): 90
0    |  MIDI Event: Chan 13 Control/Mode Change: Sound Controller 5 (default: Brightness) (0-127): 118
12   |  MIDI Event: Chan 1 Control/Mode Change: Sound Controller 5 (default: Brightness) (0-127): 59
0    |  MIDI Event: Chan 5 Control/Mode Change: Sound Controller 5 (default: Brightness) (0-127): 59
3    |  MIDI Event: Chan 13 Control/Mode Change: Expression Control (0-127): 92
0    |  MIDI Event: Chan 13 Control/Mode Change: Sound Controller 5 (default: Brightness) (0-127): 120
5    |  MIDI Event: Chan 6 Control/Mode Change: Channel Pan (0-127): 34
9    |  MIDI Event: Chan 10 Note OFF: D#2, Velocity (0 - 127): 64
0    |  MIDI Event: Chan 1 Note OFF: D4, Velocity (0 - 127): 64
0    |  MIDI Event: Chan 5 Note OFF: F#3, Velocity (0 - 127): 64
0    |  MIDI Event: Chan 1 Note OFF: F#4, Velocity (0 - 127): 64
0    |  MIDI Event: Chan 5 Note OFF: D3, Velocity (0 - 127): 64
0    |  MIDI Event: Chan 1 Note OFF: B4, Velocity (0 - 127): 64
1    |  MIDI Event: Chan 1 Note ON: B3, Velocity (0 - 127): 51
0    |  MIDI Event: Chan 1 Note ON: D4, Velocity (0 - 127): 85
0    |  MIDI Event: Chan 1 Note ON: F#4, Velocity (0 - 127): 59
0    |  MIDI Event: Chan 5 Note ON: B2, Velocity (0 - 127): 92
0    |  MIDI Event: Chan 5 Note ON: E3, Velocity (0 - 127): 98
0    |  MIDI Event: Chan 6 Note ON: A3, Velocity (0 - 127): 91
0    |  MIDI Event: Chan 6 Note ON: A4, Velocity (0 - 127): 91
0    |  MIDI Event: Chan 13 Control/Mode Change: Expression Control (0-127): 94
0    |  MIDI Event: Chan 13 Control/Mode Change: Sound Controller 5 (default: Brightness) (0-127): 122
15   |  MIDI Event: Chan 13 Control/Mode Change: Expression Control (0-127): 96
0    |  MIDI Event: Chan 13 Control/Mode Change: Sound Controller 5 (default: Brightness) (0-127): 124
14   |  MIDI Event: Chan 6 Note OFF: A4, Velocity (0 - 127): 64
0    |  MIDI Event: Chan 6 Note OFF: A3, Velocity (0 - 127): 64
0    |  MIDI Event: Chan 5 Note OFF: B2, Velocity (0 - 127): 64
0    |  MIDI Event: Chan 1 Note OFF: B3, Velocity (0 - 127): 64
0    |  MIDI Event: Chan 1 Note OFF: D4, Velocity (0 - 127): 64
0    |  MIDI Event: Chan 5 Note OFF: E3, Velocity (0 - 127): 64
0    |  MIDI Event: Chan 1 Note OFF: F#4, Velocity (0 - 127): 64
1    |  MIDI Event: Chan 1 Note ON: G3, Velocity (0 - 127): 74
0    |  MIDI Event: Chan 1 Note ON: B3, Velocity (0 - 127): 94
0    |  MIDI Event: Chan 1 Note ON: D4, Velocity (0 - 127): 91
0    |  MIDI Event: Chan 5 Note ON: G2, Velocity (0 - 127): 98
0    |  MIDI Event: Chan 5 Note ON: D3, Velocity (0 - 127): 116
0    |  MIDI Event: Chan 6 Note ON: B3, Velocity (0 - 127): 97
0    |  MIDI Event: Chan 6 Note ON: B4, Velocity (0 - 127): 97
0    |  MIDI Event: Chan 6 Control/Mode Change: Channel Pan (0-127): 94
0    |  MIDI Event: Chan 10 Note ON: A#4, Velocity (0 - 127): 120
0    |  MIDI Event: Chan 13 Control/Mode Change: Expression Control (0-127): 98
0    |  MIDI Event: Chan 13 Control/Mode Change: Sound Controller 5 (default: Brightness) (0-127): 127
15   |  MIDI Event: Chan 13 Control/Mode Change: Expression Control (0-127): 100
1    |  MIDI Event: Chan 1 Control/Mode Change: Sound Controller 5 (default: Brightness) (0-127): 60
0    |  MIDI Event: Chan 5 Control/Mode Change: Sound Controller 5 (default: Brightness) (0-127): 60
13   |  MIDI Event: Chan 10 Note OFF: A#4, Velocity (0 - 127): 64
0    |  MIDI Event: Chan 6 Note OFF: B4, Velocity (0 - 127): 64
0    |  MIDI Event: Chan 6 Note OFF: B3, Velocity (0 - 127): 64
1    |  MIDI Event: Chan 6 Note ON: D4, Velocity (0 - 127): 80
0    |  MIDI Event: Chan 6 Note ON: D5, Velocity (0 - 127): 80
0    |  MIDI Event: Chan 13 Control/Mode Change: Expression Control (0-127): 102
10   |  MIDI Event: Chan 6 Control/Mode Change: Channel Pan (0-127): 12
5    |  MIDI Event: Chan 13 Control/Mode Change: Expression Control (0-127): 104
14   |  MIDI Event: Chan 6 Note OFF: D5, Velocity (0 - 127): 64
0    |  MIDI Event: Chan 5 Note OFF: D3, Velocity (0 - 127): 64
0    |  MIDI Event: Chan 6 Note OFF: D4, Velocity (0 - 127): 64
0    |  MIDI Event: Chan 1 Note OFF: G3, Velocity (0 - 127): 64
0    |  MIDI Event: Chan 1 Note OFF: B3, Velocity (0 - 127): 64
0    |  MIDI Event: Chan 5 Note OFF: G2, Velocity (0 - 127): 64
0    |  MIDI Event: Chan 1 Note OFF: D4, Velocity (0 - 127): 64
1    |  MIDI Event: Chan 1 Note ON: B3, Velocity (0 - 127): 70
0    |  MIDI Event: Chan 1 Note ON: D4, Velocity (0 - 127): 94
0    |  MIDI Event: Chan 1 Note ON: G4, Velocity (0 - 127): 101
0    |  MIDI Event: Chan 5 Note ON: D3, Velocity (0 - 127): 79
0    |  MIDI Event: Chan 5 Note ON: G3, Velocity (0 - 127): 111
0    |  MIDI Event: Chan 5 Note ON: B3, Velocity (0 - 127): 100
0    |  MIDI Event: Chan 6 Note ON: B3, Velocity (0 - 127): 113
0    |  MIDI Event: Chan 6 Note ON: B4, Velocity (0 - 127): 113
0    |  MIDI Event: Chan 10 Note ON: D#2, Velocity (0 - 127): 115
0    |  MIDI Event: Chan 13 Control/Mode Change: Expression Control (0-127): 106
15   |  MIDI Event: Chan 13 Control/Mode Change: Expression Control (0-127): 107
5    |  MIDI Event: Chan 1 Control/Mode Change: Sound Controller 5 (default: Brightness) (0-127): 61
0    |  MIDI Event: Chan 5 Control/Mode Change: Sound Controller 5 (default: Brightness) (0-127): 61
0    |  MIDI Event: Chan 6 Control/Mode Change: Channel Pan (0-127): 115
9    |  MIDI Event: Chan 10 Note OFF: D#2, Velocity (0 - 127): 64
1    |  MIDI Event: Chan 13 Control/Mode Change: Expression Control (0-127): 109
15   |  MIDI Event: Chan 13 Control/Mode Change: Expression Control (0-127): 111
14   |  MIDI Event: Chan 6 Note OFF: B3, Velocity (0 - 127): 64
0    |  MIDI Event: Chan 6 Note OFF: B4, Velocity (0 - 127): 64
1    |  MIDI Event: Chan 6 Control/Mode Change: Channel Pan (0-127): 34
0    |  MIDI Event: Chan 10 Note ON: A#4, Velocity (0 - 127): 120
0    |  MIDI Event: Chan 13 Control/Mode Change: Expression Control (0-127): 113
15   |  MIDI Event: Chan 13 Control/Mode Change: Expression Control (0-127): 115
9    |  MIDI Event: Chan 1 Control/Mode Change: Sound Controller 5 (default: Brightness) (0-127): 62
0    |  MIDI Event: Chan 5 Control/Mode Change: Sound Controller 5 (default: Brightness) (0-127): 62
5    |  MIDI Event: Chan 10 Note OFF: A#4, Velocity (0 - 127): 64
0    |  MIDI Event: Chan 5 Note OFF: B3, Velocity (0 - 127): 64
0    |  MIDI Event: Chan 5 Note OFF: D3, Velocity (0 - 127): 64
0    |  MIDI Event: Chan 1 Note OFF: B3, Velocity (0 - 127): 64
0    |  MIDI Event: Chan 1 Note OFF: D4, Velocity (0 - 127): 64
0    |  MIDI Event: Chan 1 Note OFF: G4, Velocity (0 - 127): 64
0    |  MIDI Event: Chan 5 Note OFF: G3, Velocity (0 - 127): 64
1    |  MIDI Event: Chan 1 Note ON: B3, Velocity (0 - 127): 52
0    |  MIDI Event: Chan 1 Note ON: D4, Velocity (0 - 127): 85
0    |  MIDI Event: Chan 1 Note ON: G4, Velocity (0 - 127): 94
0    |  MIDI Event: Chan 5 Note ON: D3, Velocity (0 - 127): 82
0    |  MIDI Event: Chan 5 Note ON: G3, Velocity (0 - 127): 98
0    |  MIDI Event: Chan 5 Note ON: B3, Velocity (0 - 127): 85
0    |  MIDI Event: Chan 6 Note ON: A3, Velocity (0 - 127): 98
0    |  MIDI Event: Chan 6 Note ON: A4, Velocity (0 - 127): 98
0    |  MIDI Event: Chan 13 Control/Mode Change: Expression Control (0-127): 117
10   |  MIDI Event: Chan 6 Control/Mode Change: Channel Pan (0-127): 94
5    |  MIDI Event: Chan 13 Control/Mode Change: Expression Control (0-127): 119
14   |  MIDI Event: Chan 6 Note OFF: A4, Velocity (0 - 127): 64
0    |  MIDI Event: Chan 5 Note OFF: G3, Velocity (0 - 127): 64
0    |  MIDI Event: Chan 6 Note OFF: A3, Velocity (0 - 127): 64
0    |  MIDI Event: Chan 5 Note OFF: D3, Velocity (0 - 127): 64
0    |  MIDI Event: Chan 1 Note OFF: B3, Velocity (0 - 127): 64
0    |  MIDI Event: Chan 1 Note OFF: D4, Velocity (0 - 127): 64
0    |  MIDI Event: Chan 5 Note OFF: B3, Velocity (0 - 127): 64
0    |  MIDI Event: Chan 1 Note OFF: G4, Velocity (0 - 127): 64
1    |  MIDI Event: Chan 1 Note ON: D4, Velocity (0 - 127): 78
0    |  MIDI Event: Chan 1 Note ON: G4, Velocity (0 - 127): 100
0    |  MIDI Event: Chan 1 Note ON: B4, Velocity (0 - 127): 46
0    |  MIDI Event: Chan 5 Note ON: G2, Velocity (0 - 127): 109
0    |  MIDI Event: Chan 5 Note ON: D3, Velocity (0 - 127): 109
0    |  MIDI Event: Chan 6 Note ON: B3, Velocity (0 - 127): 101
0    |  MIDI Event: Chan 6 Note ON: B4, Velocity (0 - 127): 101
0    |  MIDI Event: Chan 10 Note ON: D#2, Velocity (0 - 127): 120
0    |  MIDI Event: Chan 13 Control/Mode Change: Expression Control (0-127): 121
15   |  MIDI Event: Chan 13 Control/Mode Change: Expression Control (0-127): 123
5    |  MIDI Event: Chan 6 Control/Mode Change: Channel Pan (0-127): 12
8    |  MIDI Event: Chan 1 Control/Mode Change: Sound Controller 5 (default: Brightness) (0-127): 63
0    |  MIDI Event: Chan 5 Control/Mode Change: Sound Controller 5 (default: Brightness) (0-127): 63
1    |  MIDI Event: Chan 10 Note OFF: D#2, Velocity (0 - 127): 64
0    |  MIDI Event: Chan 5 Note OFF: D3, Velocity (0 - 127): 64
0    |  MIDI Event: Chan 6 Note OFF: B4, Velocity (0 - 127): 64
0    |  MIDI Event: Chan 5 Note OFF: G2, Velocity (0 - 127): 64
0    |  MIDI Event: Chan 1 Note OFF: D4, Velocity (0 - 127): 64
0    |  MIDI Event: Chan 1 Note OFF: G4, Velocity (0 - 127): 64
0    |  MIDI Event: Chan 6 Note OFF: B3, Velocity (0 - 127): 64
0    |  MIDI Event: Chan 1 Note OFF: B4, Velocity (0 - 127): 64
1    |  MIDI Event: Chan 1 Note ON: B3, Velocity (0 - 127): 45
0    |  MIDI Event: Chan 1 Note ON: D4, Velocity (0 - 127): 73
0    |  MIDI Event: Chan 1 Note ON: G4, Velocity (0 - 127): 86
0    |  MIDI Event: Chan 5 Note ON: G2, Velocity (0 - 127): 101
0    |  MIDI Event: Chan 5 Note ON: E3, Velocity (0 - 127): 116
0    |  MIDI Event: Chan 6 Note ON: A3, Velocity (0 - 127): 91
0    |  MIDI Event: Chan 6 Note ON: A4, Velocity (0 - 127): 91
0    |  MIDI Event: Chan 13 Control/Mode Change: Expression Control (0-127): 125
15   |  MIDI Event: Chan 13 Control/Mode Change: Expression Control (0-127): 127
9    |  MIDI Event: Chan 5 Control/Mode Change: Effects 1 (Default==Reverb) Depth (0-127): 30
0    |  MIDI Event: Chan 6 Control/Mode Change: Effects 1 (Default==Reverb) Depth (0-127): 60
5    |  MIDI Event: Chan 6 Note OFF: A4, Velocity (0 - 127): 64
0    |  MIDI Event: Chan 13 Note OFF: C3, Velocity (0 - 127): 64
0    |  MIDI Event: Chan 1 Note OFF: B3, Velocity (0 - 127): 64
0    |  MIDI Event: Chan 9 Note OFF: D3, Velocity (0 - 127): 64
0    |  MIDI Event: Chan 1 Note OFF: D4, Velocity (0 - 127): 64
0    |  MIDI Event: Chan 9 Note OFF: D4, Velocity (0 - 127): 64
0    |  MIDI Event: Chan 5 Note OFF: E3, Velocity (0 - 127): 64
0    |  MIDI Event: Chan 5 Note OFF: G2, Velocity (0 - 127): 64
0    |  MIDI Event: Chan 1 Note OFF: G4, Velocity (0 - 127): 64
0    |  MIDI Event: Chan 6 Note OFF: A3, Velocity (0 - 127): 64
1    |  MIDI Event: Chan 6 Note ON: D4, Velocity (0 - 127): 105
0    |  MIDI Event: Chan 6 Note ON: D5, Velocity (0 - 127): 105
0    |  MIDI Event: Chan 6 Control/Mode Change: Channel Pan (0-127): 64
59   |  MIDI Event: Chan 6 Note OFF: D5, Velocity (0 - 127): 64
0    |  MIDI Event: Chan 6 Note OFF: D4, Velocity (0 - 127): 64
61   |  MIDI Event: Chan 6 Note ON: D4, Velocity (0 - 127): 119
0    |  MIDI Event: Chan 6 Note ON: D5, Velocity (0 - 127): 119
59   |  MIDI Event: Chan 6 Note OFF: D5, Velocity (0 - 127): 64
0    |  MIDI Event: Chan 6 Note OFF: D4, Velocity (0 - 127): 64
31   |  MIDI Event: Chan 6 Note ON: D4, Velocity (0 - 127): 103
0    |  MIDI Event: Chan 6 Note ON: D5, Velocity (0 - 127): 103
0    |  MIDI Event: Chan 7 Note ON: D4, Velocity (0 - 127): 120
0    |  MIDI Event: Chan 7 Note ON: D5, Velocity (0 - 127): 120
29   |  MIDI Event: Chan 7 Note OFF: D5, Velocity (0 - 127): 64
0    |  MIDI Event: Chan 6 Note OFF: D4, Velocity (0 - 127): 64
0    |  MIDI Event: Chan 6 Note OFF: D5, Velocity (0 - 127): 64
0    |  MIDI Event: Chan 7 Note OFF: D4, Velocity (0 - 127): 64
1    |  MIDI Event: Chan 6 Note ON: E4, Velocity (0 - 127): 95
0    |  MIDI Event: Chan 6 Note ON: E5, Velocity (0 - 127): 95
0    |  MIDI Event: Chan 7 Note ON: E4, Velocity (0 - 127): 120
0    |  MIDI Event: Chan 7 Note ON: E5, Velocity (0 - 127): 120
29   |  MIDI Event: Chan 7 Note OFF: E5, Velocity (0 - 127): 64
0    |  MIDI Event: Chan 6 Note OFF: E4, Velocity (0 - 127): 64
0    |  MIDI Event: Chan 6 Note OFF: E5, Velocity (0 - 127): 64
0    |  MIDI Event: Chan 7 Note OFF: E4, Velocity (0 - 127): 64
1    |  MIDI Event: Chan 6 Note ON: D4, Velocity (0 - 127): 86
0    |  MIDI Event: Chan 6 Note ON: D5, Velocity (0 - 127): 86
0    |  MIDI Event: Chan 7 Note ON: D4, Velocity (0 - 127): 120
0    |  MIDI Event: Chan 7 Note ON: D5, Velocity (0 - 127): 120
29   |  MIDI Event: Chan 7 Note OFF: D5, Velocity (0 - 127): 64
0    |  MIDI Event: Chan 6 Note OFF: D4, Velocity (0 - 127): 64
0    |  MIDI Event: Chan 6 Note OFF: D5, Velocity (0 - 127): 64
0    |  MIDI Event: Chan 7 Note OFF: D4, Velocity (0 - 127): 64
1    |  MIDI Event: Chan 6 Note ON: E4, Velocity (0 - 127): 98
0    |  MIDI Event: Chan 6 Note ON: E5, Velocity (0 - 127): 98
0    |  MIDI Event: Chan 7 Note ON: E4, Velocity (0 - 127): 120
0    |  MIDI Event: Chan 7 Note ON: E5, Velocity (0 - 127): 120
50   |  MIDI Event: Chan 6 Pitch Bend Change (0-16383): 8071 (factor==0.99804)
0    |  MIDI Event: Chan 7 Pitch Bend Change (0-16383): 8071 (factor==0.99804)
5    |  MIDI Event: Chan 6 Pitch Bend Change (0-16383): 6296 (factor==0.96972)
0    |  MIDI Event: Chan 7 Pitch Bend Change (0-16383): 6296 (factor==0.96972)
3    |  MIDI Event: Chan 6 Pitch Bend Change (0-16383): 4197 (factor==0.937266)
0    |  MIDI Event: Chan 7 Pitch Bend Change (0-16383): 4197 (factor==0.937266)
1    |  MIDI Event: Chan 7 Note OFF: E5, Velocity (0 - 127): 64
0    |  MIDI Event: Chan 6 Note OFF: E4, Velocity (0 - 127): 64
0    |  MIDI Event: Chan 6 Note OFF: E5, Velocity (0 - 127): 64
0    |  MIDI Event: Chan 7 Note OFF: E4, Velocity (0 - 127): 64
1    |  MIDI Event: Chan 6 Note ON: F#4, Velocity (0 - 127): 119
0    |  MIDI Event: Chan 6 Note ON: F#5, Velocity (0 - 127): 119
0    |  MIDI Event: Chan 6 Pitch Bend Change (0-16383): 1776 (factor==0.901179)
0    |  MIDI Event: Chan 7 Note ON: F#4, Velocity (0 - 127): 120
0    |  MIDI Event: Chan 7 Note ON: F#5, Velocity (0 - 127): 120
0    |  MIDI Event: Chan 7 Pitch Bend Change (0-16383): 1776 (factor==0.901179)
0    |  MIDI Event: Chan 10 Note ON: G3, Velocity (0 - 127): 120
3    |  MIDI Event: Chan 6 Pitch Bend Change (0-16383): 0 (factor==0.875594)
0    |  MIDI Event: Chan 7 Pitch Bend Change (0-16383): 0 (factor==0.875594)
17   |  MIDI Event: Chan 6 Pitch Bend Change (0-16383): 646 (factor==0.884815)
0    |  MIDI Event: Chan 7 Pitch Bend Change (0-16383): 646 (factor==0.884815)
3    |  MIDI Event: Chan 6 Pitch Bend Change (0-16383): 2422 (factor==0.91067)
0    |  MIDI Event: Chan 7 Pitch Bend Change (0-16383): 2422 (factor==0.91067)
2    |  MIDI Event: Chan 6 Pitch Bend Change (0-16383): 4520 (factor==0.942188)
0    |  MIDI Event: Chan 7 Pitch Bend Change (0-16383): 4520 (factor==0.942188)
3    |  MIDI Event: Chan 6 Pitch Bend Change (0-16383): 6942 (factor==0.979932)
0    |  MIDI Event: Chan 7 Pitch Bend Change (0-16383): 6942 (factor==0.979932)
1    |  MIDI Event: Chan 10 Note OFF: G3, Velocity (0 - 127): 64
1    |  MIDI Event: Chan 6 Pitch Bend Change (0-16383): 8192 (factor==1)
0    |  MIDI Event: Chan 7 Pitch Bend Change (0-16383): 8192 (factor==1)
29   |  MIDI Event: Chan 7 Note OFF: F#4, Velocity (0 - 127): 64
0    |  MIDI Event: Chan 6 Note OFF: F#4, Velocity (0 - 127): 64
0    |  MIDI Event: Chan 6 Note OFF: F#5, Velocity (0 - 127): 64
0    |  MIDI Event: Chan 7 Note OFF: F#5, Velocity (0 - 127): 64
1    |  MIDI Event: Chan 6 Note ON: D4, Velocity (0 - 127): 111
0    |  MIDI Event: Chan 6 Note ON: D5, Velocity (0 - 127): 111
0    |  MIDI Event: Chan 7 Note ON: D4, Velocity (0 - 127): 120
0    |  MIDI Event: Chan 7 Note ON: D5, Velocity (0 - 127): 120
59   |  MIDI Event: Chan 7 Note OFF: D5, Velocity (0 - 127): 64
0    |  MIDI Event: Chan 6 Note OFF: D4, Velocity (0 - 127): 64
0    |  MIDI Event: Chan 6 Note OFF: D5, Velocity (0 - 127): 64
0    |  MIDI Event: Chan 7 Note OFF: D4, Velocity (0 - 127): 64
1    |  MIDI Event: Chan 1 Note ON: B3, Velocity (0 - 127): 58
0    |  MIDI Event: Chan 1 Note ON: D4, Velocity (0 - 127): 91
0    |  MIDI Event: Chan 2 Control/Mode Change: Expression Control (0-127): 64
0    |  MIDI Event: Chan 2 Note ON: B1, Velocity (0 - 127): 120
0    |  MIDI Event: Chan 3 Control/Mode Change: Expression Control (0-127): 64
0    |  MIDI Event: Chan 3 Note ON: B3, Velocity (0 - 127): 120
0    |  MIDI Event: Chan 3 Note ON: D4, Velocity (0 - 127): 120
0    |  MIDI Event: Chan 3 Note ON: F#4, Velocity (0 - 127): 120
0    |  MIDI Event: Chan 5 Note ON: B2, Velocity (0 - 127): 85
0    |  MIDI Event: Chan 5 Note ON: F#3, Velocity (0 - 127): 120
0    |  MIDI Event: Chan 6 Note ON: B3, Velocity (0 - 127): 120
0    |  MIDI Event: Chan 6 Note ON: B4, Velocity (0 - 127): 120
0    |  MIDI Event: Chan 7 Note ON: B4, Velocity (0 - 127): 120
0    |  MIDI Event: Chan 10 Note ON: B1, Velocity (0 - 127): 120
0    |  MIDI Event: Chan 10 Note ON: F#2, Velocity (0 - 127): 120
0    |  MIDI Event: Chan 10 Note ON: C#3, Velocity (0 - 127): 111
0    |  MIDI Event: Chan 12 Note ON: B4, Velocity (0 - 127): 120
29   |  MIDI Event: Chan 10 Note OFF: F#2, Velocity (0 - 127): 64
0    |  MIDI Event: Chan 10 Note OFF: B1, Velocity (0 - 127): 64
30   |  MIDI Event: Chan 6 Note OFF: B4, Velocity (0 - 127): 64
0    |  MIDI Event: Chan 5 Note OFF: B2, Velocity (0 - 127): 64
0    |  MIDI Event: Chan 1 Note OFF: B3, Velocity (0 - 127): 64
0    |  MIDI Event: Chan 6 Note OFF: B3, Velocity (0 - 127): 64
0    |  MIDI Event: Chan 5 Note OFF: F#3, Velocity (0 - 127): 64
0    |  MIDI Event: Chan 7 Note OFF: B4, Velocity (0 - 127): 64
0    |  MIDI Event: Chan 1 Note OFF: D4, Velocity (0 - 127): 64
0    |  MIDI Event: Chan 12 Note OFF: B4, Velocity (0 - 127): 64
1    |  MIDI Event: Chan 1 Note ON: B3, Velocity (0 - 127): 79
0    |  MIDI Event: Chan 1 Note ON: D4, Velocity (0 - 127): 95
0    |  MIDI Event: Chan 1 Note ON: F#4, Velocity (0 - 127): 74
0    |  MIDI Event: Chan 2 Control/Mode Change: Expression Control (0-127): 127
0    |  MIDI Event: Chan 3 Control/Mode Change: Expression Control (0-127): 127
0    |  MIDI Event: Chan 5 Note ON: D3, Velocity (0 - 127): 92
0    |  MIDI Event: Chan 5 Note ON: F#3, Velocity (0 - 127): 87
0    |  MIDI Event: Chan 5 Note ON: D4, Velocity (0 - 127): 95
0    |  MIDI Event: Chan 10 Note ON: A#2, Velocity (0 - 127): 120
0    |  MIDI Event: Chan 10 Note ON: C#5, Velocity (0 - 127): 119
29   |  MIDI Event: Chan 10 Note OFF: C#5, Velocity (0 - 127): 64
0    |  MIDI Event: Chan 10 Note OFF: A#2, Velocity (0 - 127): 64
30   |  MIDI Event: Chan 2 Note OFF: B1, Velocity (0 - 127): 64
1    |  MIDI Event: Chan 2 Control/Mode Change: Expression Control (0-127): 64
0    |  MIDI Event: Chan 2 Note ON: B1, Velocity (0 - 127): 120
0    |  MIDI Event: Chan 3 Control/Mode Change: Expression Control (0-127): 73
0    |  MIDI Event: Chan 6 Note ON: B3, Velocity (0 - 127): 120
0    |  MIDI Event: Chan 6 Note ON: B4, Velocity (0 - 127): 120
0    |  MIDI Event: Chan 7 Note ON: B4, Velocity (0 - 127): 120
0    |  MIDI Event: Chan 10 Note ON: B1, Velocity (0 - 127): 120
0    |  MIDI Event: Chan 10 Note ON: F#2, Velocity (0 - 127): 120
0    |  MIDI Event: Chan 12 Note ON: B4, Velocity (0 - 127): 120
29   |  MIDI Event: Chan 10 Note OFF: F#2, Velocity (0 - 127): 64
0    |  MIDI Event: Chan 10 Note OFF: B1, Velocity (0 - 127): 64
0    |  MIDI Event: Chan 5 Note OFF: D4, Velocity (0 - 127): 64
0    |  MIDI Event: Chan 1 Note OFF: B3, Velocity (0 - 127): 64
0    |  MIDI Event: Chan 1 Note OFF: F#4, Velocity (0 - 127): 64
0    |  MIDI Event: Chan 5 Note OFF: F#3, Velocity (0 - 127): 64
0    |  MIDI Event: Chan 5 Note OFF: D3, Velocity (0 - 127): 64
0    |  MIDI Event: Chan 1 Note OFF: D4, Velocity (0 - 127): 64
1    |  MIDI Event: Chan 1 Note ON: B3, Velocity (0 - 127): 71
0    |  MIDI Event: Chan 1 Note ON: D4, Velocity (0 - 127): 91
0    |  MIDI Event: Chan 1 Note ON: F#4, Velocity (0 - 127): 60
0    |  MIDI Event: Chan 5 Note ON: F#3, Velocity (0 - 127): 109
0    |  MIDI Event: Chan 5 Note ON: B3, Velocity (0 - 127): 95
29   |  MIDI Event: Chan 5 Note OFF: B3, Velocity (0 - 127): 64
0    |  MIDI Event: Chan 1 Note OFF: B3, Velocity (0 - 127): 64
0    |  MIDI Event: Chan 6 Note OFF: B4, Velocity (0 - 127): 64
0    |  MIDI Event: Chan 6 Note OFF: B3, Velocity (0 - 127): 64
0    |  MIDI Event: Chan 7 Note OFF: B4, Velocity (0 - 127): 64
0    |  MIDI Event: Chan 12 Note OFF: B4, Velocity (0 - 127): 64
0    |  MIDI Event: Chan 5 Note OFF: F#3, Velocity (0 - 127): 64
0    |  MIDI Event: Chan 1 Note OFF: D4, Velocity (0 - 127): 64
0    |  MIDI Event: Chan 1 Note OFF: F#4, Velocity (0 - 127): 64
1    |  MIDI Event: Chan 1 Note ON: D4, Velocity (0 - 127): 80
0    |  MIDI Event: Chan 1 Note ON: F#4, Velocity (0 - 127): 62
0    |  MIDI Event: Chan 1 Note ON: B4, Velocity (0 - 127): 91
0    |  MIDI Event: Chan 2 Control/Mode Change: Expression Control (0-127): 127
0    |  MIDI Event: Chan 3 Control/Mode Change: Expression Control (0-127): 127
0    |  MIDI Event: Chan 5 Note ON: D3, Velocity (0 - 127): 103
0    |  MIDI Event: Chan 5 Note ON: F#3, Velocity (0 - 127): 115
0    |  MIDI Event: Chan 10 Note ON: A#2, Velocity (0 - 127): 119
0    |  MIDI Event: Chan 10 Note ON: C#5, Velocity (0 - 127): 119
29   |  MIDI Event: Chan 10 Note OFF: C#5, Velocity (0 - 127): 64
0    |  MIDI Event: Chan 5 Note OFF: F#3, Velocity (0 - 127): 64
0    |  MIDI Event: Chan 1 Note OFF: B4, Velocity (0 - 127): 64
0    |  MIDI Event: Chan 1 Note OFF: F#4, Velocity (0 - 127): 64
0    |  MIDI Event: Chan 5 Note OFF: D3, Velocity (0 - 127): 64
0    |  MIDI Event: Chan 10 Note OFF: A#2, Velocity (0 - 127): 64
0    |  MIDI Event: Chan 1 Note OFF: D4, Velocity (0 - 127): 64
1    |  MIDI Event: Chan 1 Note ON: B3, Velocity (0 - 127): 51
0    |  MIDI Event: Chan 1 Note ON: D4, Velocity (0 - 127): 85
0    |  MIDI Event: Chan 1 Note ON: F#4, Velocity (0 - 127): 59
0    |  MIDI Event: Chan 5 Note ON: B2, Velocity (0 - 127): 92
0    |  MIDI Event: Chan 5 Note ON: E3, Velocity (0 - 127): 98
0    |  MIDI Event: Chan 6 Note ON: A3, Velocity (0 - 127): 98
0    |  MIDI Event: Chan 6 Note ON: A4, Velocity (0 - 127): 98
0    |  MIDI Event: Chan 7 Note ON: A4, Velocity (0 - 127): 120
0    |  MIDI Event: Chan 12 Note ON: A4, Velocity (0 - 127): 120
29   |  MIDI Event: Chan 12 Note OFF: A4, Velocity (0 - 127): 64
0    |  MIDI Event: Chan 3 Note OFF: F#4, Velocity (0 - 127): 64
0    |  MIDI Event: Chan 1 Note OFF: B3, Velocity (0 - 127): 64
0    |  MIDI Event: Chan 10 Note OFF: C#3, Velocity (0 - 127): 64
0    |  MIDI Event: Chan 1 Note OFF: F#4, Velocity (0 - 127): 64
0    |  MIDI Event: Chan 2 Note OFF: B1, Velocity (0 - 127): 64
0    |  MIDI Event: Chan 3 Note OFF: B3, Velocity (0 - 127): 64
0    |  MIDI Event: Chan 3 Note OFF: D4, Velocity (0 - 127): 64
0    |  MIDI Event: Chan 6 Note OFF: A4, Velocity (0 - 127): 64
0    |  MIDI Event: Chan 6 Note OFF: A3, Velocity (0 - 127): 64
0    |  MIDI Event: Chan 5 Note OFF: B2, Velocity (0 - 127): 64
0    |  MIDI Event: Chan 1 Note OFF: D4, Velocity (0 - 127): 64
0    |  MIDI Event: Chan 7 Note OFF: A4, Velocity (0 - 127): 64
0    |  MIDI Event: Chan 5 Note OFF: E3, Velocity (0 - 127): 64
1    |  MIDI Event: Chan 1 Note ON: G3, Velocity (0 - 127): 74
0    |  MIDI Event: Chan 1 Note ON: B3, Velocity (0 - 127): 94
0    |  MIDI Event: Chan 1 Note ON: D4, Velocity (0 - 127): 91
0    |  MIDI Event: Chan 2 Control/Mode Change: Expression Control (0-127): 64
0    |  MIDI Event: Chan 2 Note ON: G1, Velocity (0 - 127): 120
0    |  MIDI Event: Chan 3 Control/Mode Change: Expression Control (0-127): 71
0    |  MIDI Event: Chan 3 Note ON: B3, Velocity (0 - 127): 120
0    |  MIDI Event: Chan 3 Note ON: D4, Velocity (0 - 127): 120
0    |  MIDI Event: Chan 3 Note ON: G4, Velocity (0 - 127): 120
0    |  MIDI Event: Chan 5 Note ON: G2, Velocity (0 - 127): 98
0    |  MIDI Event: Chan 5 Note ON: D3, Velocity (0 - 127): 116
0    |  MIDI Event: Chan 6 Note ON: B3, Velocity (0 - 127): 98
0    |  MIDI Event: Chan 6 Note ON: B4, Velocity (0 - 127): 98
0    |  MIDI Event: Chan 7 Note ON: B4, Velocity (0 - 127): 120
0    |  MIDI Event: Chan 10 Note ON: B1, Velocity (0 - 127): 120
0    |  MIDI Event: Chan 10 Note ON: F#2, Velocity (0 - 127): 120
0    |  MIDI Event: Chan 12 Note ON: B4, Velocity (0 - 127): 120
29   |  MIDI Event: Chan 12 Note OFF: B4, Velocity (0 - 127): 64
0    |  MIDI Event: Chan 7 Note OFF: B4, Velocity (0 - 127): 64
0    |  MIDI Event: Chan 6 Note OFF: B3, Velocity (0 - 127): 64
0    |  MIDI Event: Chan 10 Note OFF: F#2, Velocity (0 - 127): 64
0    |  MIDI Event: Chan 6 Note OFF: B4, Velocity (0 - 127): 64
0    |  MIDI Event: Chan 10 Note OFF: B1, Velocity (0 - 127): 64
1    |  MIDI Event: Chan 6 Note ON: D4, Velocity (0 - 127): 54
0    |  MIDI Event: Chan 6 Note ON: D5, Velocity (0 - 127): 54
0    |  MIDI Event: Chan 7 Note ON: D5, Velocity (0 - 127): 120
0    |  MIDI Event: Chan 12 Note ON: D5, Velocity (0 - 127): 120
29   |  MIDI Event: Chan 12 Note OFF: D5, Velocity (0 - 127): 64
0    |  MIDI Event: Chan 5 Note OFF: G2, Velocity (0 - 127): 64
0    |  MIDI Event: Chan 1 Note OFF: B3, Velocity (0 - 127): 64
0    |  MIDI Event: Chan 1 Note OFF: G3, Velocity (0 - 127): 64
0    |  MIDI Event: Chan 5 Note OFF: D3, Velocity (0 - 127): 64
0    |  MIDI Event: Chan 6 Note OFF: D4, Velocity (0 - 127): 64
0    |  MIDI Event: Chan 1 Note OFF: D4, Velocity (0 - 127): 64
0    |  MIDI Event: Chan 7 Note OFF: D5, Velocity (0 - 127): 64
0    |  MIDI Event: Chan 6 Note OFF: D5, Velocity (0 - 127): 64
1    |  MIDI Event: Chan 1 Note ON: B3, Velocity (0 - 127): 70
0    |  MIDI Event: Chan 1 Note ON: D4, Velocity (0 - 127): 94
0    |  MIDI Event: Chan 1 Note ON: G4, Velocity (0 - 127): 101
0    |  MIDI Event: Chan 2 Control/Mode Change: Expression Control (0-127): 127
0    |  MIDI Event: Chan 3 Control/Mode Change: Expression Control (0-127): 127
0    |  MIDI Event: Chan 5 Note ON: D3, Velocity (0 - 127): 79
0    |  MIDI Event: Chan 5 Note ON: G3, Velocity (0 - 127): 111
0    |  MIDI Event: Chan 5 Note ON: B3, Velocity (0 - 127): 100
0    |  MIDI Event: Chan 6 Note ON: B3, Velocity (0 - 127): 116
0    |  MIDI Event: Chan 6 Note ON: B4, Velocity (0 - 127): 116
0    |  MIDI Event: Chan 7 Note ON: B4, Velocity (0 - 127): 120
0    |  MIDI Event: Chan 10 Note ON: A#2, Velocity (0 - 127): 120
0    |  MIDI Event: Chan 10 Note ON: C#5, Velocity (0 - 127): 109
0    |  MIDI Event: Chan 12 Note ON: B4, Velocity (0 - 127): 120
29   |  MIDI Event: Chan 10 Note OFF: C#5, Velocity (0 - 127): 64
0    |  MIDI Event: Chan 10 Note OFF: A#2, Velocity (0 - 127): 64
30   |  MIDI Event: Chan 6 Note OFF: B4, Velocity (0 - 127): 64
0    |  MIDI Event: Chan 12 Note OFF: B4, Velocity (0 - 127): 64
0    |  MIDI Event: Chan 2 Note OFF: G1, Velocity (0 - 127): 64
0    |  MIDI Event: Chan 6 Note OFF: B3, Velocity (0 - 127): 64
0    |  MIDI Event: Chan 7 Note OFF: B4, Velocity (0 - 127): 64
1    |  MIDI Event: Chan 2 Control/Mode Change: Expression Control (0-127): 64
0    |  MIDI Event: Chan 2 Note ON: G1, Velocity (0 - 127): 120
0    |  MIDI Event: Chan 3 Control/Mode Change: Expression Control (0-127): 80
0    |  MIDI Event: Chan 10 Note ON: B1, Velocity (0 - 127): 120
0    |  MIDI Event: Chan 10 Note ON: F#2, Velocity (0 - 127): 120
29   |  MIDI Event: Chan 10 Note OFF: F#2, Velocity (0 - 127): 64
0    |  MIDI Event: Chan 1 Note OFF: G4, Velocity (0 - 127): 64
0    |  MIDI Event: Chan 5 Note OFF: B3, Velocity (0 - 127): 64
0    |  MIDI Event: Chan 1 Note OFF: D4, Velocity (0 - 127): 64
0    |  MIDI Event: Chan 1 Note OFF: B3, Velocity (0 - 127): 64
0    |  MIDI Event: Chan 5 Note OFF: D3, Velocity (0 - 127): 64
0    |  MIDI Event: Chan 10 Note OFF: B1, Velocity (0 - 127): 64
0    |  MIDI Event: Chan 5 Note OFF: G3, Velocity (0 - 127): 64
1    |  MIDI Event: Chan 1 Note ON: B3, Velocity (0 - 127): 52
0    |  MIDI Event: Chan 1 Note ON: D4, Velocity (0 - 127): 85
0    |  MIDI Event: Chan 1 Note ON: G4, Velocity (0 - 127): 94
0    |  MIDI Event: Chan 5 Note ON: D3, Velocity (0 - 127): 82
0    |  MIDI Event: Chan 5 Note ON: G3, Velocity (0 - 127): 98
0    |  MIDI Event: Chan 5 Note ON: B3, Velocity (0 - 127): 85
0    |  MIDI Event: Chan 6 Note ON: A3, Velocity (0 - 127): 83
0    |  MIDI Event: Chan 6 Note ON: A4, Velocity (0 - 127): 83
0    |  MIDI Event: Chan 7 Note ON: A4, Velocity (0 - 127): 120
0    |  MIDI Event: Chan 12 Note ON: A4, Velocity (0 - 127): 120
29   |  MIDI Event: Chan 12 Note OFF: A4, Velocity (0 - 127): 64
0    |  MIDI Event: Chan 1 Note OFF: B3, Velocity (0 - 127): 64
0    |  MIDI Event: Chan 1 Note OFF: D4, Velocity (0 - 127): 64
0    |  MIDI Event: Chan 5 Note OFF: B3, Velocity (0 - 127): 64
0    |  MIDI Event: Chan 5 Note OFF: D3, Velocity (0 - 127): 64
0    |  MIDI Event: Chan 1 Note OFF: G4, Velocity (0 - 127): 64
0    |  MIDI Event: Chan 5 Note OFF: G3, Velocity (0 - 127): 64
0    |  MIDI Event: Chan 7 Note OFF: A4, Velocity (0 - 127): 64
0    |  MIDI Event: Chan 6 Note OFF: A4, Velocity (0 - 127): 64
0    |  MIDI Event: Chan 6 Note OFF: A3, Velocity (0 - 127): 64
1    |  MIDI Event: Chan 1 Note ON: D4, Velocity (0 - 127): 78
0    |  MIDI Event: Chan 1 Note ON: G4, Velocity (0 - 127): 100
0    |  MIDI Event: Chan 1 Note ON: B4, Velocity (0 - 127): 46
0    |  MIDI Event: Chan 2 Control/Mode Change: Expression Control (0-127): 127
0    |  MIDI Event: Chan 3 Control/Mode Change: Expression Control (0-127): 127
0    |  MIDI Event: Chan 5 Note ON: G2, Velocity (0 - 127): 109
0    |  MIDI Event: Chan 5 Note ON: D3, Velocity (0 - 127): 109
0    |  MIDI Event: Chan 6 Note ON: B3, Velocity (0 - 127): 98
0    |  MIDI Event: Chan 6 Note ON: B4, Velocity (0 - 127): 98
0    |  MIDI Event: Chan 7 Note ON: B4, Velocity (0 - 127): 120
0    |  MIDI Event: Chan 10 Note ON: A#2, Velocity (0 - 127): 120
0    |  MIDI Event: Chan 10 Note ON: C#5, Velocity (0 - 127): 115
0    |  MIDI Event: Chan 12 Note ON: B4, Velocity (0 - 127): 120
29   |  MIDI Event: Chan 12 Note OFF: B4, Velocity (0 - 127): 64
0    |  MIDI Event: Chan 7 Note OFF: B4, Velocity (0 - 127): 64
0    |  MIDI Event: Chan 1 Note OFF: D4, Velocity (0 - 127): 64
0    |  MIDI Event: Chan 1 Note OFF: G4, Velocity (0 - 127): 64
0    |  MIDI Event: Chan 6 Note OFF: B3, Velocity (0 - 127): 64
0    |  MIDI Event: Chan 5 Note OFF: G2, Velocity (0 - 127): 64
0    |  MIDI Event: Chan 1 Note OFF: B4, Velocity (0 - 127): 64
0    |  MIDI Event: Chan 5 Note OFF: D3, Velocity (0 - 127): 64
0    |  MIDI Event: Chan 10 Note OFF: C#5, Velocity (0 - 127): 64
0    |  MIDI Event: Chan 10 Note OFF: A#2, Velocity (0 - 127): 64
0    |  MIDI Event: Chan 6 Note OFF: B4, Velocity (0 - 127): 64
1    |  MIDI Event: Chan 1 Note ON: B3, Velocity (0 - 127): 45
0    |  MIDI Event: Chan 1 Note ON: D4, Velocity (0 - 127): 73
0    |  MIDI Event: Chan 1 Note ON: G4, Velocity (0 - 127): 86
0    |  MIDI Event: Chan 5 Note ON: G2, Velocity (0 - 127): 101
0    |  MIDI Event: Chan 5 Note ON: E3, Velocity (0 - 127): 116
0    |  MIDI Event: Chan 6 Note ON: A3, Velocity (0 - 127): 94
0    |  MIDI Event: Chan 6 Note ON: A4, Velocity (0 - 127): 94
0    |  MIDI Event: Chan 7 Note ON: A4, Velocity (0 - 127): 120
0    |  MIDI Event: Chan 12 Note ON: A4, Velocity (0 - 127): 120
29   |  MIDI Event: Chan 12 Note OFF: A4, Velocity (0 - 127): 64
0    |  MIDI Event: Chan 1 Note OFF: D4, Velocity (0 - 127): 64
0    |  MIDI Event: Chan 3 Note OFF: D4, Velocity (0 - 127): 64
0    |  MIDI Event: Chan 5 Note OFF: G2, Velocity (0 - 127): 64
0    |  MIDI Event: Chan 3 Note OFF: B3, Velocity (0 - 127): 64
0    |  MIDI Event: Chan 3 Note OFF: G4, Velocity (0 - 127): 64
0    |  MIDI Event: Chan 2 Note OFF: G1, Velocity (0 - 127): 64
0    |  MIDI Event: Chan 1 Note OFF: B3, Velocity (0 - 127): 64
0    |  MIDI Event: Chan 6 Note OFF: A4, Velocity (0 - 127): 64
0    |  MIDI Event: Chan 5 Note OFF: E3, Velocity (0 - 127): 64
0    |  MIDI Event: Chan 1 Note OFF: G4, Velocity (0 - 127): 64
0    |  MIDI Event: Chan 7 Note OFF: A4, Velocity (0 - 127): 64
0    |  MIDI Event: Chan 6 Note OFF: A3, Velocity (0 - 127): 64
1    |  MIDI Event: Chan 1 Note ON: F#3, Velocity (0 - 127): 35
0    |  MIDI Event: Chan 1 Note ON: A3, Velocity (0 - 127): 85
0    |  MIDI Event: Chan 1 Note ON: D4, Velocity (0 - 127): 79
0    |  MIDI Event: Chan 2 Control/Mode Change: Expression Control (0-127): 64
0    |  MIDI Event: Chan 2 Note ON: D2, Velocity (0 - 127): 120
0    |  MIDI Event: Chan 3 Control/Mode Change: Expression Control (0-127): 64
0    |  MIDI Event: Chan 3 Note ON: A3, Velocity (0 - 127): 120
0    |  MIDI Event: Chan 3 Note ON: D4, Velocity (0 - 127): 120
0    |  MIDI Event: Chan 3 Note ON: F#4, Velocity (0 - 127): 120
0    |  MIDI Event: Chan 5 Note ON: A2, Velocity (0 - 127): 90
0    |  MIDI Event: Chan 5 Note ON: D3, Velocity (0 - 127): 105
0    |  MIDI Event: Chan 6 Note ON: D4, Velocity (0 - 127): 120
0    |  MIDI Event: Chan 6 Note ON: D5, Velocity (0 - 127): 120
0    |  MIDI Event: Chan 7 Note ON: D5, Velocity (0 - 127): 120
0    |  MIDI Event: Chan 10 Note ON: B1, Velocity (0 - 127): 120
0    |  MIDI Event: Chan 10 Note ON: F#2, Velocity (0 - 127): 120
0    |  MIDI Event: Chan 12 Note ON: D5, Velocity (0 - 127): 120
29   |  MIDI Event: Chan 10 Note OFF: F#2, Velocity (0 - 127): 64
0    |  MIDI Event: Chan 10 Note OFF: B1, Velocity (0 - 127): 64
30   |  MIDI Event: Chan 6 Note OFF: D4, Velocity (0 - 127): 64
0    |  MIDI Event: Chan 1 Note OFF: A3, Velocity (0 - 127): 64
0    |  MIDI Event: Chan 1 Note OFF: D4, Velocity (0 - 127): 64
0    |  MIDI Event: Chan 5 Note OFF: A2, Velocity (0 - 127): 64
0    |  MIDI Event: Chan 1 Note OFF: F#3, Velocity (0 - 127): 64
0    |  MIDI Event: Chan 5 Note OFF: D3, Velocity (0 - 127): 64
0    |  MIDI Event: Chan 7 Note OFF: D5, Velocity (0 - 127): 64
0    |  MIDI Event: Chan 12 Note OFF: D5, Velocity (0 - 127): 64
0    |  MIDI Event: Chan 6 Note OFF: D5, Velocity (0 - 127): 64
1    |  MIDI Event: Chan 1 Note ON: A3, Velocity (0 - 127): 69
0    |  MIDI Event: Chan 1 Note ON: D4, Velocity (0 - 127): 98
0    |  MIDI Event: Chan 1 Note ON: F#4, Velocity (0 - 127): 74
0    |  MIDI Event: Chan 2 Control/Mode Change: Expression Control (0-127): 127
0    |  MIDI Event: Chan 3 Control/Mode Change: Expression Control (0-127): 127
0    |  MIDI Event: Chan 5 Note ON: A2, Velocity (0 - 127): 100
0    |  MIDI Event: Chan 5 Note ON: D3, Velocity (0 - 127): 111
0    |  MIDI Event: Chan 5 Note ON: F#3, Velocity (0 - 127): 89
0    |  MIDI Event: Chan 10 Note ON: A#2, Velocity (0 - 127): 120
0    |  MIDI Event: Chan 10 Note ON: C#5, Velocity (0 - 127): 109
29   |  MIDI Event: Chan 10 Note OFF: C#5, Velocity (0 - 127): 64
0    |  MIDI Event: Chan 10 Note OFF: A#2, Velocity (0 - 127): 64
30   |  MIDI Event: Chan 2 Note OFF: D2, Velocity (0 - 127): 64
1    |  MIDI Event: Chan 2 Control/Mode Change: Expression Control (0-127): 64
0    |  MIDI Event: Chan 2 Note ON: D2, Velocity (0 - 127): 120
0    |  MIDI Event: Chan 3 Control/Mode Change: Expression Control (0-127): 73
0    |  MIDI Event: Chan 6 Note ON: D4, Velocity (0 - 127): 120
0    |  MIDI Event: Chan 6 Note ON: D5, Velocity (0 - 127): 120
0    |  MIDI Event: Chan 7 Note ON: D5, Velocity (0 - 127): 120
0    |  MIDI Event: Chan 10 Note ON: B1, Velocity (0 - 127): 120
0    |  MIDI Event: Chan 10 Note ON: F#2, Velocity (0 - 127): 120
0    |  MIDI Event: Chan 12 Note ON: D5, Velocity (0 - 127): 120
29   |  MIDI Event: Chan 10 Note OFF: F#2, Velocity (0 - 127): 64
0    |  MIDI Event: Chan 5 Note OFF: A2, Velocity (0 - 127): 64
0    |  MIDI Event: Chan 1 Note OFF: F#4, Velocity (0 - 127): 64
0    |  MIDI Event: Chan 1 Note OFF: D4, Velocity (0 - 127): 64
0    |  MIDI Event: Chan 1 Note OFF: A3, Velocity (0 - 127): 64
0    |  MIDI Event: Chan 5 Note OFF: F#3, Velocity (0 - 127): 64
0    |  MIDI Event: Chan 10 Note OFF: B1, Velocity (0 - 127): 64
0    |  MIDI Event: Chan 5 Note OFF: D3, Velocity (0 - 127): 64
1    |  MIDI Event: Chan 1 Note ON: F#3, Velocity (0 - 127): 44
0    |  MIDI Event: Chan 1 Note ON: A3, Velocity (0 - 127): 78
0    |  MIDI Event: Chan 1 Note ON: D4, Velocity (0 - 127): 58
0    |  MIDI Event: Chan 5 Note ON: A2, Velocity (0 - 127): 85
0    |  MIDI Event: Chan 5 Note ON: D3, Velocity (0 - 127): 105
0    |  MIDI Event: Chan 5 Note ON: F#3, Velocity (0 - 127): 81
29   |  MIDI Event: Chan 5 Note OFF: F#3, Velocity (0 - 127): 64
0    |  MIDI Event: Chan 6 Note OFF: D4, Velocity (0 - 127): 64
0    |  MIDI Event: Chan 7 Note OFF: D5, Velocity (0 - 127): 64
0    |  MIDI Event: Chan 1 Note OFF: A3, Velocity (0 - 127): 64
0    |  MIDI Event: Chan 12 Note OFF: D5, Velocity (0 - 127): 64
0    |  MIDI Event: Chan 6 Note OFF: D5, Velocity (0 - 127): 64
0    |  MIDI Event: Chan 1 Note OFF: F#3, Velocity (0 - 127): 64
0    |  MIDI Event: Chan 5 Note OFF: D3, Velocity (0 - 127): 64
0    |  MIDI Event: Chan 5 Note OFF: A2, Velocity (0 - 127): 64
0    |  MIDI Event: Chan 1 Note OFF: D4, Velocity (0 - 127): 64
1    |  MIDI Event: Chan 1 Note ON: A3, Velocity (0 - 127): 57
0    |  MIDI Event: Chan 1 Note ON: D4, Velocity (0 - 127): 91
0    |  MIDI Event: Chan 1 Note ON: F#4, Velocity (0 - 127): 77
0    |  MIDI Event: Chan 2 Control/Mode Change: Expression Control (0-127): 127
0    |  MIDI Event: Chan 3 Control/Mode Change: Expression Control (0-127): 127
0    |  MIDI Event: Chan 5 Note ON: D3, Velocity (0 - 127): 109
0    |  MIDI Event: Chan 5 Note ON: F#3, Velocity (0 - 127): 89
0    |  MIDI Event: Chan 5 Note ON: A3, Velocity (0 - 127): 109
0    |  MIDI Event: Chan 10 Note ON: A#2, Velocity (0 - 127): 120
0    |  MIDI Event: Chan 10 Note ON: C#5, Velocity (0 - 127): 119
29   |  MIDI Event: Chan 10 Note OFF: C#5, Velocity (0 - 127): 64
0    |  MIDI Event: Chan 5 Note OFF: A3, Velocity (0 - 127): 64
0    |  MIDI Event: Chan 5 Note OFF: D3, Velocity (0 - 127): 64
0    |  MIDI Event: Chan 1 Note OFF: F#4, Velocity (0 - 127): 64
0    |  MIDI Event: Chan 5 Note OFF: F#3, Velocity (0 - 127): 64
0    |  MIDI Event: Chan 10 Note OFF: A#2, Velocity (0 - 127): 64
0    |  MIDI Event: Chan 1 Note OFF: A3, Velocity (0 - 127): 64
0    |  MIDI Event: Chan 1 Note OFF: D4, Velocity (0 - 127): 64
1    |  MIDI Event: Chan 1 Note ON: F#3, Velocity (0 - 127): 35
0    |  MIDI Event: Chan 1 Note ON: A3, Velocity (0 - 127): 79
0    |  MIDI Event: Chan 1 Note ON: D4, Velocity (0 - 127): 56
0    |  MIDI Event: Chan 5 Note ON: D3, Velocity (0 - 127): 111
0    |  MIDI Event: Chan 5 Note ON: F#3, Velocity (0 - 127): 100
0    |  MIDI Event: Chan 5 Note ON: A3, Velocity (0 - 127): 100
0    |  MIDI Event: Chan 6 Note ON: D4, Velocity (0 - 127): 89
0    |  MIDI Event: Chan 6 Note ON: D5, Velocity (0 - 127): 89
0    |  MIDI Event: Chan 7 Note ON: D5, Velocity (0 - 127): 120
0    |  MIDI Event: Chan 12 Note ON: D5, Velocity (0 - 127): 120
29   |  MIDI Event: Chan 12 Note OFF: D5, Velocity (0 - 127): 64
0    |  MIDI Event: Chan 1 Note OFF: F#3, Velocity (0 - 127): 64
0    |  MIDI Event: Chan 1 Note OFF: A3, Velocity (0 - 127): 64
0    |  MIDI Event: Chan 5 Note OFF: A3, Velocity (0 - 127): 64
0    |  MIDI Event: Chan 5 Note OFF: D3, Velocity (0 - 127): 64
0    |  MIDI Event: Chan 1 Note OFF: D4, Velocity (0 - 127): 64
0    |  MIDI Event: Chan 2 Note OFF: D2, Velocity (0 - 127): 64
0    |  MIDI Event: Chan 5 Note OFF: F#3, Velocity (0 - 127): 64
0    |  MIDI Event: Chan 6 Note OFF: D5, Velocity (0 - 127): 64
0    |  MIDI Event: Chan 6 Note OFF: D4, Velocity (0 - 127): 64
0    |  MIDI Event: Chan 7 Note OFF: D5, Velocity (0 - 127): 64
1    |  MIDI Event: Chan 1 Note ON: F#3, Velocity (0 - 127): 49
0    |  MIDI Event: Chan 1 Note ON: A3, Velocity (0 - 127): 85
0    |  MIDI Event: Chan 1 Note ON: D4, Velocity (0 - 127): 75
0    |  MIDI Event: Chan 2 Control/Mode Change: Expression Control (0-127): 64
0    |  MIDI Event: Chan 2 Note ON: D2, Velocity (0 - 127): 120
0    |  MIDI Event: Chan 3 Control/Mode Change: Expression Control (0-127): 71
0    |  MIDI Event: Chan 5 Note ON: A2, Velocity (0 - 127): 105
0    |  MIDI Event: Chan 5 Note ON: D3, Velocity (0 - 127): 116
0    |  MIDI Event: Chan 6 Note ON: E4, Velocity (0 - 127): 81
0    |  MIDI Event: Chan 6 Note ON: E5, Velocity (0 - 127): 81
0    |  MIDI Event: Chan 7 Note ON: E5, Velocity (0 - 127): 120
0    |  MIDI Event: Chan 10 Note ON: B1, Velocity (0 - 127): 120
0    |  MIDI Event: Chan 10 Note ON: F#2, Velocity (0 - 127): 120
0    |  MIDI Event: Chan 12 Note ON: E5, Velocity (0 - 127): 120
29   |  MIDI Event: Chan 12 Note OFF: E5, Velocity (0 - 127): 64
0    |  MIDI Event: Chan 7 Note OFF: E5, Velocity (0 - 127): 64
0    |  MIDI Event: Chan 6 Note OFF: E4, Velocity (0 - 127): 64
0    |  MIDI Event: Chan 10 Note OFF: F#2, Velocity (0 - 127): 64
0    |  MIDI Event: Chan 6 Note OFF: E5, Velocity (0 - 127): 64
0    |  MIDI Event: Chan 10 Note OFF: B1, Velocity (0 - 127): 64
1    |  MIDI Event: Chan 6 Note ON: D4, Velocity (0 - 127): 95
0    |  MIDI Event: Chan 6 Note ON: D5, Velocity (0 - 127): 95
0    |  MIDI Event: Chan 7 Note ON: D5, Velocity (0 - 127): 120
0    |  MIDI Event: Chan 12 Note ON: D5, Velocity (0 - 127): 120
29   |  MIDI Event: Chan 12 Note OFF: D5, Velocity (0 - 127): 64
0    |  MIDI Event: Chan 5 Note OFF: A2, Velocity (0 - 127): 64
0    |  MIDI Event: Chan 1 Note OFF: A3, Velocity (0 - 127): 64
0    |  MIDI Event: Chan 1 Note OFF: F#3, Velocity (0 - 127): 64
0    |  MIDI Event: Chan 5 Note OFF: D3, Velocity (0 - 127): 64
0    |  MIDI Event: Chan 6 Note OFF: D4, Velocity (0 - 127): 64
0    |  MIDI Event: Chan 1 Note OFF: D4, Velocity (0 - 127): 64
0    |  MIDI Event: Chan 7 Note OFF: D5, Velocity (0 - 127): 64
0    |  MIDI Event: Chan 6 Note OFF: D5, Velocity (0 - 127): 64
1    |  MIDI Event: Chan 1 Note ON: A3, Velocity (0 - 127): 56
0    |  MIDI Event: Chan 1 Note ON: D4, Velocity (0 - 127): 84
0    |  MIDI Event: Chan 1 Note ON: F#4, Velocity (0 - 127): 49
0    |  MIDI Event: Chan 2 Control/Mode Change: Expression Control (0-127): 127
0    |  MIDI Event: Chan 3 Control/Mode Change: Expression Control (0-127): 127
0    |  MIDI Event: Chan 5 Note ON: D3, Velocity (0 - 127): 105
0    |  MIDI Event: Chan 5 Note ON: F#3, Velocity (0 - 127): 115
0    |  MIDI Event: Chan 6 Note ON: E4, Velocity (0 - 127): 111
0    |  MIDI Event: Chan 6 Note ON: E5, Velocity (0 - 127): 111
0    |  MIDI Event: Chan 7 Note ON: E5, Velocity (0 - 127): 120
0    |  MIDI Event: Chan 10 Note ON: A#2, Velocity (0 - 127): 120
0    |  MIDI Event: Chan 10 Note ON: C#5, Velocity (0 - 127): 115
0    |  MIDI Event: Chan 12 Note ON: E5, Velocity (0 - 127): 120
29   |  MIDI Event: Chan 10 Note OFF: C#5, Velocity (0 - 127): 64
0    |  MIDI Event: Chan 5 Note OFF: D3, Velocity (0 - 127): 64
0    |  MIDI Event: Chan 1 Note OFF: A3, Velocity (0 - 127): 64
0    |  MIDI Event: Chan 1 Note OFF: F#4, Velocity (0 - 127): 64
0    |  MIDI Event: Chan 10 Note OFF: A#2, Velocity (0 - 127): 64
0    |  MIDI Event: Chan 1 Note OFF: D4, Velocity (0 - 127): 64
0    |  MIDI Event: Chan 5 Note OFF: F#3, Velocity (0 - 127): 64
1    |  MIDI Event: Chan 1 Note ON: A3, Velocity (0 - 127): 84
0    |  MIDI Event: Chan 1 Note ON: D4, Velocity (0 - 127): 94
0    |  MIDI Event: Chan 1 Note ON: F#4, Velocity (0 - 127): 76
0    |  MIDI Event: Chan 5 Note ON: D3, Velocity (0 - 127): 100
0    |  MIDI Event: Chan 5 Note ON: F#3, Velocity (0 - 127): 92
21   |  MIDI Event: Chan 6 Pitch Bend Change (0-16383): 7749 (factor==0.992841)
2    |  MIDI Event: Chan 6 Pitch Bend Change (0-16383): 6215 (factor==0.968447)
3    |  MIDI Event: Chan 6 Pitch Bend Change (0-16383): 4197 (factor==0.937266)
2    |  MIDI Event: Chan 6 Pitch Bend Change (0-16383): 2422 (factor==0.91067)
1    |  MIDI Event: Chan 5 Note OFF: F#3, Velocity (0 - 127): 64
0    |  MIDI Event: Chan 3 Note OFF: F#4, Velocity (0 - 127): 64
0    |  MIDI Event: Chan 3 Note OFF: D4, Velocity (0 - 127): 64
0    |  MIDI Event: Chan 2 Note OFF: D2, Velocity (0 - 127): 64
0    |  MIDI Event: Chan 6 Note OFF: E5, Velocity (0 - 127): 64
0    |  MIDI Event: Chan 12 Note OFF: E5, Velocity (0 - 127): 64
0    |  MIDI Event: Chan 3 Note OFF: A3, Velocity (0 - 127): 64
0    |  MIDI Event: Chan 6 Note OFF: E4, Velocity (0 - 127): 64
0    |  MIDI Event: Chan 1 Note OFF: F#4, Velocity (0 - 127): 64
0    |  MIDI Event: Chan 1 Note OFF: A3, Velocity (0 - 127): 64
0    |  MIDI Event: Chan 7 Note OFF: E5, Velocity (0 - 127): 64
0    |  MIDI Event: Chan 5 Note OFF: D3, Velocity (0 - 127): 64
0    |  MIDI Event: Chan 1 Note OFF: D4, Velocity (0 - 127): 64
1    |  MIDI Event: Chan 1 Note ON: E3, Velocity (0 - 127): 47
0    |  MIDI Event: Chan 1 Note ON: A3, Velocity (0 - 127): 89
0    |  MIDI Event: Chan 1 Note ON: C#4, Velocity (0 - 127): 52
0    |  MIDI Event: Chan 2 Control/Mode Change: Expression Control (0-127): 64
0    |  MIDI Event: Chan 2 Note ON: A1, Velocity (0 - 127): 120
0    |  MIDI Event: Chan 3 Control/Mode Change: Expression Control (0-127): 80
0    |  MIDI Event: Chan 3 Note ON: A3, Velocity (0 - 127): 120
0    |  MIDI Event: Chan 3 Note ON: C#4, Velocity (0 - 127): 120
0    |  MIDI Event: Chan 3 Note ON: E4, Velocity (0 - 127): 120
0    |  MIDI Event: Chan 5 Note ON: A2, Velocity (0 - 127): 101
0    |  MIDI Event: Chan 5 Note ON: E3, Velocity (0 - 127): 101
0    |  MIDI Event: Chan 6 Note ON: F#4, Velocity (0 - 127): 119
0    |  MIDI Event: Chan 6 Note ON: F#5, Velocity (0 - 127): 119
0    |  MIDI Event: Chan 7 Note ON: F#5, Velocity (0 - 127): 120
0    |  MIDI Event: Chan 10 Note ON: B1, Velocity (0 - 127): 120
0    |  MIDI Event: Chan 10 Note ON: F#2, Velocity (0 - 127): 120
0    |  MIDI Event: Chan 12 Note ON: F#5, Velocity (0 - 127): 120
1    |  MIDI Event: Chan 6 Pitch Bend Change (0-16383): 1211 (factor==0.89296)
2    |  MIDI Event: Chan 6 Pitch Bend Change (0-16383): 646 (factor==0.884815)
3    |  MIDI Event: Chan 6 Pitch Bend Change (0-16383): 565 (factor==0.883653)
2    |  MIDI Event: Chan 6 Pitch Bend Change (0-16383): 646 (factor==0.884815)
3    |  MIDI Event: Chan 6 Pitch Bend Change (0-16383): 1373 (factor==0.895309)
2    |  MIDI Event: Chan 6 Pitch Bend Change (0-16383): 2260 (factor==0.908281)
3    |  MIDI Event: Chan 6 Pitch Bend Change (0-16383): 3471 (factor==0.926295)
2    |  MIDI Event: Chan 6 Pitch Bend Change (0-16383): 5085 (factor==0.950861)
3    |  MIDI Event: Chan 6 Pitch Bend Change (0-16383): 6942 (factor==0.979932)
2    |  MIDI Event: Chan 6 Pitch Bend Change (0-16383): 8071 (factor==0.99804)
3    |  MIDI Event: Chan 6 Pitch Bend Change (0-16383): 8192 (factor==1)
3    |  MIDI Event: Chan 10 Note OFF: F#2, Velocity (0 - 127): 64
0    |  MIDI Event: Chan 10 Note OFF: B1, Velocity (0 - 127): 64
30   |  MIDI Event: Chan 6 Note OFF: F#4, Velocity (0 - 127): 64
0    |  MIDI Event: Chan 1 Note OFF: A3, Velocity (0 - 127): 64
0    |  MIDI Event: Chan 1 Note OFF: C#4, Velocity (0 - 127): 64
0    |  MIDI Event: Chan 5 Note OFF: A2, Velocity (0 - 127): 64
0    |  MIDI Event: Chan 1 Note OFF: E3, Velocity (0 - 127): 64
0    |  MIDI Event: Chan 5 Note OFF: E3, Velocity (0 - 127): 64
0    |  MIDI Event: Chan 7 Note OFF: F#5, Velocity (0 - 127): 64
0    |  MIDI Event: Chan 12 Note OFF: F#5, Velocity (0 - 127): 64
0    |  MIDI Event: Chan 6 Note OFF: F#5, Velocity (0 - 127): 64
1    |  MIDI Event: Chan 1 Note ON: A3, Velocity (0 - 127): 51
0    |  MIDI Event: Chan 1 Note ON: C#4, Velocity (0 - 127): 52
0    |  MIDI Event: Chan 1 Note ON: E4, Velocity (0 - 127): 78
0    |  MIDI Event: Chan 2 Control/Mode Change: Expression Control (0-127): 127
0    |  MIDI Event: Chan 3 Control/Mode Change: Expression Control (0-127): 127
0    |  MIDI Event: Chan 5 Note ON: C#3, Velocity (0 - 127): 89
0    |  MIDI Event: Chan 5 Note ON: E3, Velocity (0 - 127): 101
0    |  MIDI Event: Chan 5 Note ON: A3, Velocity (0 - 127): 89
0    |  MIDI Event: Chan 6 Note ON: D4, Velocity (0 - 127): 98
0    |  MIDI Event: Chan 6 Note ON: D5, Velocity (0 - 127): 98
0    |  MIDI Event: Chan 7 Note ON: D5, Velocity (0 - 127): 120
0    |  MIDI Event: Chan 10 Note ON: A#2, Velocity (0 - 127): 120
0    |  MIDI Event: Chan 10 Note ON: C#5, Velocity (0 - 127): 111
0    |  MIDI Event: Chan 12 Note ON: D5, Velocity (0 - 127): 120
29   |  MIDI Event: Chan 10 Note OFF: C#5, Velocity (0 - 127): 64
0    |  MIDI Event: Chan 5 Note OFF: E3, Velocity (0 - 127): 64
0    |  MIDI Event: Chan 1 Note OFF: C#4, Velocity (0 - 127): 64
0    |  MIDI Event: Chan 1 Note OFF: A3, Velocity (0 - 127): 64
0    |  MIDI Event: Chan 1 Note OFF: E4, Velocity (0 - 127): 64
0    |  MIDI Event: Chan 5 Note OFF: C#3, Velocity (0 - 127): 64
0    |  MIDI Event: Chan 10 Note OFF: A#2, Velocity (0 - 127): 64
0    |  MIDI Event: Chan 5 Note OFF: A3, Velocity (0 - 127): 64
1    |  MIDI Event: Chan 1 Note ON: A3, Velocity (0 - 127): 73
0    |  MIDI Event: Chan 1 Note ON: C#4, Velocity (0 - 127): 52
0    |  MIDI Event: Chan 1 Note ON: E4, Velocity (0 - 127): 83
0    |  MIDI Event: Chan 5 Note ON: C#3, Velocity (0 - 127): 119
0    |  MIDI Event: Chan 5 Note ON: E3, Velocity (0 - 127): 118
0    |  MIDI Event: Chan 5 Note ON: A3, Velocity (0 - 127): 105
29   |  MIDI Event: Chan 5 Note OFF: A3, Velocity (0 - 127): 64
0    |  MIDI Event: Chan 6 Note OFF: D4, Velocity (0 - 127): 64
0    |  MIDI Event: Chan 3 Note OFF: E4, Velocity (0 - 127): 64
0    |  MIDI Event: Chan 7 Note OFF: D5, Velocity (0 - 127): 64
0    |  MIDI Event: Chan 3 Note OFF: A3, Velocity (0 - 127): 64
0    |  MIDI Event: Chan 6 Note OFF: D5, Velocity (0 - 127): 64
0    |  MIDI Event: Chan 3 Note OFF: C#4, Velocity (0 - 127): 64
0    |  MIDI Event: Chan 12 Note OFF: D5, Velocity (0 - 127): 64
0    |  MIDI Event: Chan 5 Note OFF: C#3, Velocity (0 - 127): 64
0    |  MIDI Event: Chan 1 Note OFF: E4, Velocity (0 - 127): 64
0    |  MIDI Event: Chan 1 Note OFF: A3, Velocity (0 - 127): 64
0    |  MIDI Event: Chan 2 Note OFF: A1, Velocity (0 - 127): 64
0    |  MIDI Event: Chan 5 Note OFF: E3, Velocity (0 - 127): 64
0    |  MIDI Event: Chan 1 Note OFF: C#4, Velocity (0 - 127): 64
1    |  MIDI Event: Chan 1 Note ON: B3, Velocity (0 - 127): 58
0    |  MIDI Event: Chan 1 Note ON: D4, Velocity (0 - 127): 91
0    |  MIDI Event: Chan 2 Control/Mode Change: Expression Control (0-127): 64
0    |  MIDI Event: Chan 2 Note ON: B1, Velocity (0 - 127): 120
0    |  MIDI Event: Chan 3 Control/Mode Change: Expression Control (0-127): 64
0    |  MIDI Event: Chan 3 Note ON: B3, Velocity (0 - 127): 120
0    |  MIDI Event: Chan 3 Note ON: D4, Velocity (0 - 127): 120
0    |  MIDI Event: Chan 3 Note ON: F#4, Velocity (0 - 127): 120
0    |  MIDI Event: Chan 5 Note ON: B2, Velocity (0 - 127): 85
0    |  MIDI Event: Chan 5 Note ON: F#3, Velocity (0 - 127): 120
0    |  MIDI Event: Chan 6 Note ON: B3, Velocity (0 - 127): 105
0    |  MIDI Event: Chan 6 Note ON: B4, Velocity (0 - 127): 105
0    |  MIDI Event: Chan 7 Note ON: B4, Velocity (0 - 127): 120
0    |  MIDI Event: Chan 10 Note ON: B1, Velocity (0 - 127): 120
0    |  MIDI Event: Chan 10 Note ON: F#2, Velocity (0 - 127): 120
0    |  MIDI Event: Chan 12 Note ON: B4, Velocity (0 - 127): 120
29   |  MIDI Event: Chan 10 Note OFF: F#2, Velocity (0 - 127): 64
0    |  MIDI Event: Chan 10 Note OFF: B1, Velocity (0 - 127): 64
30   |  MIDI Event: Chan 6 Note OFF: B4, Velocity (0 - 127): 64
0    |  MIDI Event: Chan 5 Note OFF: B2, Velocity (0 - 127): 64
0    |  MIDI Event: Chan 5 Note OFF: F#3, Velocity (0 - 127): 64
0    |  MIDI Event: Chan 1 Note OFF: B3, Velocity (0 - 127): 64
0    |  MIDI Event: Chan 6 Note OFF: B3, Velocity (0 - 127): 64
0    |  MIDI Event: Chan 7 Note OFF: B4, Velocity (0 - 127): 64
0    |  MIDI Event: Chan 12 Note OFF: B4, Velocity (0 - 127): 64
0    |  MIDI Event: Chan 1 Note OFF: D4, Velocity (0 - 127): 64
1    |  MIDI Event: Chan 1 Note ON: B3, Velocity (0 - 127): 79
0    |  MIDI Event: Chan 1 Note ON: D4, Velocity (0 - 127): 95
0    |  MIDI Event: Chan 1 Note ON: F#4, Velocity (0 - 127): 74
0    |  MIDI Event: Chan 2 Control/Mode Change: Expression Control (0-127): 127
0    |  MIDI Event: Chan 3 Control/Mode Change: Expression Control (0-127): 127
0    |  MIDI Event: Chan 5 Note ON: D3, Velocity (0 - 127): 92
0    |  MIDI Event: Chan 5 Note ON: F#3, Velocity (0 - 127): 87
0    |  MIDI Event: Chan 5 Note ON: D4, Velocity (0 - 127): 95
0    |  MIDI Event: Chan 10 Note ON: A#2, Velocity (0 - 127): 120
0    |  MIDI Event: Chan 10 Note ON: C#5, Velocity (0 - 127): 109
29   |  MIDI Event: Chan 10 Note OFF: C#5, Velocity (0 - 127): 64
0    |  MIDI Event: Chan 10 Note OFF: A#2, Velocity (0 - 127): 64
30   |  MIDI Event: Chan 2 Note OFF: B1, Velocity (0 - 127): 64
1    |  MIDI Event: Chan 2 Control/Mode Change: Expression Control (0-127): 64
0    |  MIDI Event: Chan 2 Note ON: B1, Velocity (0 - 127): 120
0    |  MIDI Event: Chan 3 Control/Mode Change: Expression Control (0-127): 73
0    |  MIDI Event: Chan 6 Note ON: B3, Velocity (0 - 127): 119
0    |  MIDI Event: Chan 6 Note ON: B4, Velocity (0 - 127): 119
0    |  MIDI Event: Chan 7 Note ON: B4, Velocity (0 - 127): 120
0    |  MIDI Event: Chan 10 Note ON: B1, Velocity (0 - 127): 120
0    |  MIDI Event: Chan 10 Note ON: F#2, Velocity (0 - 127): 120
0    |  MIDI Event: Chan 12 Note ON: B4, Velocity (0 - 127): 120
29   |  MIDI Event: Chan 10 Note OFF: F#2, Velocity (0 - 127): 64
0    |  MIDI Event: Chan 5 Note OFF: D3, Velocity (0 - 127): 64
0    |  MIDI Event: Chan 1 Note OFF: F#4, Velocity (0 - 127): 64
0    |  MIDI Event: Chan 1 Note OFF: D4, Velocity (0 - 127): 64
0    |  MIDI Event: Chan 1 Note OFF: B3, Velocity (0 - 127): 64
0    |  MIDI Event: Chan 5 Note OFF: D4, Velocity (0 - 127): 64
0    |  MIDI Event: Chan 10 Note OFF: B1, Velocity (0 - 127): 64
0    |  MIDI Event: Chan 5 Note OFF: F#3, Velocity (0 - 127): 64
1    |  MIDI Event: Chan 1 Note ON: B3, Velocity (0 - 127): 71
0    |  MIDI Event: Chan 1 Note ON: D4, Velocity (0 - 127): 91
0    |  MIDI Event: Chan 1 Note ON: F#4, Velocity (0 - 127): 60
0    |  MIDI Event: Chan 5 Note ON: F#3, Velocity (0 - 127): 109
0    |  MIDI Event: Chan 5 Note ON: B3, Velocity (0 - 127): 95
29   |  MIDI Event: Chan 5 Note OFF: B3, Velocity (0 - 127): 64
0    |  MIDI Event: Chan 7 Note OFF: B4, Velocity (0 - 127): 64
0    |  MIDI Event: Chan 1 Note OFF: D4, Velocity (0 - 127): 64
0    |  MIDI Event: Chan 12 Note OFF: B4, Velocity (0 - 127): 64
0    |  MIDI Event: Chan 6 Note OFF: B4, Velocity (0 - 127): 64
0    |  MIDI Event: Chan 1 Note OFF: B3, Velocity (0 - 127): 64
0    |  MIDI Event: Chan 5 Note OFF: F#3, Velocity (0 - 127): 64
0    |  MIDI Event: Chan 6 Note OFF: B3, Velocity (0 - 127): 64
0    |  MIDI Event: Chan 1 Note OFF: F#4, Velocity (0 - 127): 64
1    |  MIDI Event: Chan 1 Note ON: D4, Velocity (0 - 127): 80
0    |  MIDI Event: Chan 1 Note ON: F#4, Velocity (0 - 127): 62
0    |  MIDI Event: Chan 1 Note ON: B4, Velocity (0 - 127): 91
0    |  MIDI Event: Chan 2 Control/Mode Change: Expression Control (0-127): 127
0    |  MIDI Event: Chan 3 Control/Mode Change: Expression Control (0-127): 127
0    |  MIDI Event: Chan 5 Note ON: D3, Velocity (0 - 127): 103
0    |  MIDI Event: Chan 5 Note ON: F#3, Velocity (0 - 127): 115
0    |  MIDI Event: Chan 10 Note ON: A#2, Velocity (0 - 127): 120
0    |  MIDI Event: Chan 10 Note ON: C#5, Velocity (0 - 127): 119
29   |  MIDI Event: Chan 10 Note OFF: C#5, Velocity (0 - 127): 64
0    |  MIDI Event: Chan 5 Note OFF: D3, Velocity (0 - 127): 64
0    |  MIDI Event: Chan 10 Note OFF: A#2, Velocity (0 - 127): 64
0    |  MIDI Event: Chan 1 Note OFF: B4, Velocity (0 - 127): 64
0    |  MIDI Event: Chan 5 Note OFF: F#3, Velocity (0 - 127): 64
0    |  MIDI Event: Chan 1 Note OFF: D4, Velocity (0 - 127): 64
0    |  MIDI Event: Chan 1 Note OFF: F#4, Velocity (0 - 127): 64
1    |  MIDI Event: Chan 1 Note ON: B3, Velocity (0 - 127): 51
0    |  MIDI Event: Chan 1 Note ON: D4, Velocity (0 - 127): 85
0    |  MIDI Event: Chan 1 Note ON: F#4, Velocity (0 - 127): 59
0    |  MIDI Event: Chan 5 Note ON: B2, Velocity (0 - 127): 92
0    |  MIDI Event: Chan 5 Note ON: E3, Velocity (0 - 127): 98
0    |  MIDI Event: Chan 6 Note ON: A3, Velocity (0 - 127): 91
0    |  MIDI Event: Chan 6 Note ON: A4, Velocity (0 - 127): 91
0    |  MIDI Event: Chan 7 Note ON: A4, Velocity (0 - 127): 120
0    |  MIDI Event: Chan 12 Note ON: A4, Velocity (0 - 127): 120
29   |  MIDI Event: Chan 12 Note OFF: A4, Velocity (0 - 127): 64
0    |  MIDI Event: Chan 1 Note OFF: D4, Velocity (0 - 127): 64
0    |  MIDI Event: Chan 3 Note OFF: F#4, Velocity (0 - 127): 64
0    |  MIDI Event: Chan 5 Note OFF: B2, Velocity (0 - 127): 64
0    |  MIDI Event: Chan 2 Note OFF: B1, Velocity (0 - 127): 64
0    |  MIDI Event: Chan 3 Note OFF: D4, Velocity (0 - 127): 64
0    |  MIDI Event: Chan 3 Note OFF: B3, Velocity (0 - 127): 64
0    |  MIDI Event: Chan 1 Note OFF: B3, Velocity (0 - 127): 64
0    |  MIDI Event: Chan 6 Note OFF: A4, Velocity (0 - 127): 64
0    |  MIDI Event: Chan 5 Note OFF: E3, Velocity (0 - 127): 64
0    |  MIDI Event: Chan 1 Note OFF: F#4, Velocity (0 - 127): 64
0    |  MIDI Event: Chan 7 Note OFF: A4, Velocity (0 - 127): 64
0    |  MIDI Event: Chan 6 Note OFF: A3, Velocity (0 - 127): 64
1    |  MIDI Event: Chan 1 Note ON: G3, Velocity (0 - 127): 74
0    |  MIDI Event: Chan 1 Note ON: B3, Velocity (0 - 127): 94
0    |  MIDI Event: Chan 1 Note ON: D4, Velocity (0 - 127): 91
0    |  MIDI Event: Chan 2 Control/Mode Change: Expression Control (0-127): 64
0    |  MIDI Event: Chan 2 Note ON: G1, Velocity (0 - 127): 120
0    |  MIDI Event: Chan 3 Control/Mode Change: Expression Control (0-127): 71
0    |  MIDI Event: Chan 3 Note ON: B3, Velocity (0 - 127): 120
0    |  MIDI Event: Chan 3 Note ON: D4, Velocity (0 - 127): 120
0    |  MIDI Event: Chan 3 Note ON: G4, Velocity (0 - 127): 120
0    |  MIDI Event: Chan 5 Note ON: G2, Velocity (0 - 127): 98
0    |  MIDI Event: Chan 5 Note ON: D3, Velocity (0 - 127): 116
0    |  MIDI Event: Chan 6 Note ON: B3, Velocity (0 - 127): 97
0    |  MIDI Event: Chan 6 Note ON: B4, Velocity (0 - 127): 97
0    |  MIDI Event: Chan 7 Note ON: B4, Velocity (0 - 127): 120
0    |  MIDI Event: Chan 10 Note ON: B1, Velocity (0 - 127): 120
0    |  MIDI Event: Chan 10 Note ON: F#2, Velocity (0 - 127): 120
0    |  MIDI Event: Chan 12 Note ON: B4, Velocity (0 - 127): 120
29   |  MIDI Event: Chan 12 Note OFF: B4, Velocity (0 - 127): 64
0    |  MIDI Event: Chan 7 Note OFF: B4, Velocity (0 - 127): 64
0    |  MIDI Event: Chan 6 Note OFF: B3, Velocity (0 - 127): 64
0    |  MIDI Event: Chan 10 Note OFF: F#2, Velocity (0 - 127): 64
0    |  MIDI Event: Chan 6 Note OFF: B4, Velocity (0 - 127): 64
0    |  MIDI Event: Chan 10 Note OFF: B1, Velocity (0 - 127): 64
1    |  MIDI Event: Chan 6 Note ON: D4, Velocity (0 - 127): 80
0    |  MIDI Event: Chan 6 Note ON: D5, Velocity (0 - 127): 80
0    |  MIDI Event: Chan 7 Note ON: D5, Velocity (0 - 127): 120
0    |  MIDI Event: Chan 12 Note ON: D5, Velocity (0 - 127): 120
29   |  MIDI Event: Chan 12 Note OFF: D5, Velocity (0 - 127): 64
0    |  MIDI Event: Chan 5 Note OFF: G2, Velocity (0 - 127): 64
0    |  MIDI Event: Chan 1 Note OFF: B3, Velocity (0 - 127): 64
0    |  MIDI Event: Chan 1 Note OFF: G3, Velocity (0 - 127): 64
0    |  MIDI Event: Chan 5 Note OFF: D3, Velocity (0 - 127): 64
0    |  MIDI Event: Chan 6 Note OFF: D4, Velocity (0 - 127): 64
0    |  MIDI Event: Chan 1 Note OFF: D4, Velocity (0 - 127): 64
0    |  MIDI Event: Chan 7 Note OFF: D5, Velocity (0 - 127): 64
0    |  MIDI Event: Chan 6 Note OFF: D5, Velocity (0 - 127): 64
1    |  MIDI Event: Chan 1 Note ON: B3, Velocity (0 - 127): 70
0    |  MIDI Event: Chan 1 Note ON: D4, Velocity (0 - 127): 94
0    |  MIDI Event: Chan 1 Note ON: G4, Velocity (0 - 127): 101
0    |  MIDI Event: Chan 2 Control/Mode Change: Expression Control (0-127): 127
0    |  MIDI Event: Chan 3 Control/Mode Change: Expression Control (0-127): 127
0    |  MIDI Event: Chan 5 Note ON: D3, Velocity (0 - 127): 79
0    |  MIDI Event: Chan 5 Note ON: G3, Velocity (0 - 127): 111
0    |  MIDI Event: Chan 5 Note ON: B3, Velocity (0 - 127): 100
0    |  MIDI Event: Chan 6 Note ON: B3, Velocity (0 - 127): 113
0    |  MIDI Event: Chan 6 Note ON: B4, Velocity (0 - 127): 113
0    |  MIDI Event: Chan 7 Note ON: B4, Velocity (0 - 127): 120
0    |  MIDI Event: Chan 10 Note ON: A#2, Velocity (0 - 127): 120
0    |  MIDI Event: Chan 10 Note ON: C#5, Velocity (0 - 127): 119
0    |  MIDI Event: Chan 12 Note ON: B4, Velocity (0 - 127): 120
29   |  MIDI Event: Chan 10 Note OFF: C#5, Velocity (0 - 127): 64
0    |  MIDI Event: Chan 10 Note OFF: A#2, Velocity (0 - 127): 64
30   |  MIDI Event: Chan 6 Note OFF: B4, Velocity (0 - 127): 64
0    |  MIDI Event: Chan 12 Note OFF: B4, Velocity (0 - 127): 64
0    |  MIDI Event: Chan 2 Note OFF: G1, Velocity (0 - 127): 64
0    |  MIDI Event: Chan 6 Note OFF: B3, Velocity (0 - 127): 64
0    |  MIDI Event: Chan 7 Note OFF: B4, Velocity (0 - 127): 64
1    |  MIDI Event: Chan 2 Control/Mode Change: Expression Control (0-127): 64
0    |  MIDI Event: Chan 2 Note ON: G1, Velocity (0 - 127): 120
0    |  MIDI Event: Chan 3 Control/Mode Change: Expression Control (0-127): 80
0    |  MIDI Event: Chan 10 Note ON: B1, Velocity (0 - 127): 120
0    |  MIDI Event: Chan 10 Note ON: F#2, Velocity (0 - 127): 120
29   |  MIDI Event: Chan 10 Note OFF: F#2, Velocity (0 - 127): 64
0    |  MIDI Event: Chan 1 Note OFF: G4, Velocity (0 - 127): 64
0    |  MIDI Event: Chan 5 Note OFF: B3, Velocity (0 - 127): 64
0    |  MIDI Event: Chan 1 Note OFF: D4, Velocity (0 - 127): 64
0    |  MIDI Event: Chan 1 Note OFF: B3, Velocity (0 - 127): 64
0    |  MIDI Event: Chan 5 Note OFF: D3, Velocity (0 - 127): 64
0    |  MIDI Event: Chan 10 Note OFF: B1, Velocity (0 - 127): 64
0    |  MIDI Event: Chan 5 Note OFF: G3, Velocity (0 - 127): 64
1    |  MIDI Event: Chan 1 Note ON: B3, Velocity (0 - 127): 52
0    |  MIDI Event: Chan 1 Note ON: D4, Velocity (0 - 127): 85
0    |  MIDI Event: Chan 1 Note ON: G4, Velocity (0 - 127): 94
0    |  MIDI Event: Chan 5 Note ON: D3, Velocity (0 - 127): 82
0    |  MIDI Event: Chan 5 Note ON: G3, Velocity (0 - 127): 98
0    |  MIDI Event: Chan 5 Note ON: B3, Velocity (0 - 127): 85
0    |  MIDI Event: Chan 6 Note ON: A3, Velocity (0 - 127): 98
0    |  MIDI Event: Chan 6 Note ON: A4, Velocity (0 - 127): 98
0    |  MIDI Event: Chan 7 Note ON: A4, Velocity (0 - 127): 120
0    |  MIDI Event: Chan 12 Note ON: A4, Velocity (0 - 127): 120
29   |  MIDI Event: Chan 12 Note OFF: A4, Velocity (0 - 127): 64
0    |  MIDI Event: Chan 1 Note OFF: B3, Velocity (0 - 127): 64
0    |  MIDI Event: Chan 1 Note OFF: D4, Velocity (0 - 127): 64
0    |  MIDI Event: Chan 5 Note OFF: B3, Velocity (0 - 127): 64
0    |  MIDI Event: Chan 5 Note OFF: D3, Velocity (0 - 127): 64
0    |  MIDI Event: Chan 1 Note OFF: G4, Velocity (0 - 127): 64
0    |  MIDI Event: Chan 5 Note OFF: G3, Velocity (0 - 127): 64
0    |  MIDI Event: Chan 7 Note OFF: A4, Velocity (0 - 127): 64
0    |  MIDI Event: Chan 6 Note OFF: A4, Velocity (0 - 127): 64
0    |  MIDI Event: Chan 6 Note OFF: A3, Velocity (0 - 127): 64
1    |  MIDI Event: Chan 1 Note ON: D4, Velocity (0 - 127): 78
0    |  MIDI Event: Chan 1 Note ON: G4, Velocity (0 - 127): 100
0    |  MIDI Event: Chan 1 Note ON: B4, Velocity (0 - 127): 46
0    |  MIDI Event: Chan 2 Control/Mode Change: Expression Control (0-127): 127
0    |  MIDI Event: Chan 3 Control/Mode Change: Expression Control (0-127): 127
0    |  MIDI Event: Chan 5 Note ON: G2, Velocity (0 - 127): 109
0    |  MIDI Event: Chan 5 Note ON: D3, Velocity (0 - 127): 109
0    |  MIDI Event: Chan 6 Note ON: B3, Velocity (0 - 127): 101
0    |  MIDI Event: Chan 6 Note ON: B4, Velocity (0 - 127): 101
0    |  MIDI Event: Chan 7 Note ON: B4, Velocity (0 - 127): 120
0    |  MIDI Event: Chan 10 Note ON: A#2, Velocity (0 - 127): 120
0    |  MIDI Event: Chan 10 Note ON: C#5, Velocity (0 - 127): 115
0    |  MIDI Event: Chan 12 Note ON: B4, Velocity (0 - 127): 120
29   |  MIDI Event: Chan 12 Note OFF: B4, Velocity (0 - 127): 64
0    |  MIDI Event: Chan 7 Note OFF: B4, Velocity (0 - 127): 64
0    |  MIDI Event: Chan 1 Note OFF: D4, Velocity (0 - 127): 64
0    |  MIDI Event: Chan 1 Note OFF: G4, Velocity (0 - 127): 64
0    |  MIDI Event: Chan 6 Note OFF: B3, Velocity (0 - 127): 64
0    |  MIDI Event: Chan 5 Note OFF: G2, Velocity (0 - 127): 64
0    |  MIDI Event: Chan 1 Note OFF: B4, Velocity (0 - 127): 64
0    |  MIDI Event: Chan 5 Note OFF: D3, Velocity (0 - 127): 64
0    |  MIDI Event: Chan 10 Note OFF: C#5, Velocity (0 - 127): 64
0    |  MIDI Event: Chan 10 Note OFF: A#2, Velocity (0 - 127): 64
0    |  MIDI Event: Chan 6 Note OFF: B4, Velocity (0 - 127): 64
1    |  MIDI Event: Chan 1 Note ON: B3, Velocity (0 - 127): 45
0    |  MIDI Event: Chan 1 Note ON: D4, Velocity (0 - 127): 73
0    |  MIDI Event: Chan 1 Note ON: G4, Velocity (0 - 127): 86
0    |  MIDI Event: Chan 5 Note ON: G2, Velocity (0 - 127): 101
0    |  MIDI Event: Chan 5 Note ON: E3, Velocity (0 - 127): 116
0    |  MIDI Event: Chan 6 Note ON: A3, Velocity (0 - 127): 91
0    |  MIDI Event: Chan 6 Note ON: A4, Velocity (0 - 127): 91
0    |  MIDI Event: Chan 7 Note ON: A4, Velocity (0 - 127): 120
0    |  MIDI Event: Chan 12 Note ON: A4, Velocity (0 - 127): 120
29   |  MIDI Event: Chan 12 Note OFF: A4, Velocity (0 - 127): 64
0    |  MIDI Event: Chan 1 Note OFF: D4, Velocity (0 - 127): 64
0    |  MIDI Event: Chan 3 Note OFF: D4, Velocity (0 - 127): 64
0    |  MIDI Event: Chan 5 Note OFF: G2, Velocity (0 - 127): 64
0    |  MIDI Event: Chan 3 Note OFF: B3, Velocity (0 - 127): 64
0    |  MIDI Event: Chan 3 Note OFF: G4, Velocity (0 - 127): 64
0    |  MIDI Event: Chan 2 Note OFF: G1, Velocity (0 - 127): 64
0    |  MIDI Event: Chan 1 Note OFF: B3, Velocity (0 - 127): 64
0    |  MIDI Event: Chan 6 Note OFF: A4, Velocity (0 - 127): 64
0    |  MIDI Event: Chan 5 Note OFF: E3, Velocity (0 - 127): 64
0    |  MIDI Event: Chan 1 Note OFF: G4, Velocity (0 - 127): 64
0    |  MIDI Event: Chan 7 Note OFF: A4, Velocity (0 - 127): 64
0    |  MIDI Event: Chan 6 Note OFF: A3, Velocity (0 - 127): 64
1    |  MIDI Event: Chan 1 Note ON: F#3, Velocity (0 - 127): 35
0    |  MIDI Event: Chan 1 Note ON: A3, Velocity (0 - 127): 85
0    |  MIDI Event: Chan 1 Note ON: D4, Velocity (0 - 127): 79
0    |  MIDI Event: Chan 2 Control/Mode Change: Expression Control (0-127): 64
0    |  MIDI Event: Chan 2 Note ON: D2, Velocity (0 - 127): 120
0    |  MIDI Event: Chan 3 Control/Mode Change: Expression Control (0-127): 64
0    |  MIDI Event: Chan 3 Note ON: A3, Velocity (0 - 127): 120
0    |  MIDI Event: Chan 3 Note ON: D4, Velocity (0 - 127): 120
0    |  MIDI Event: Chan 3 Note ON: F#4, Velocity (0 - 127): 120
0    |  MIDI Event: Chan 5 Note ON: A2, Velocity (0 - 127): 90
0    |  MIDI Event: Chan 5 Note ON: D3, Velocity (0 - 127): 105
0    |  MIDI Event: Chan 6 Note ON: D4, Velocity (0 - 127): 105
0    |  MIDI Event: Chan 6 Note ON: D5, Velocity (0 - 127): 105
0    |  MIDI Event: Chan 7 Note ON: D5, Velocity (0 - 127): 120
0    |  MIDI Event: Chan 10 Note ON: B1, Velocity (0 - 127): 120
0    |  MIDI Event: Chan 10 Note ON: F#2, Velocity (0 - 127): 120
0    |  MIDI Event: Chan 12 Note ON: D5, Velocity (0 - 127): 120
29   |  MIDI Event: Chan 10 Note OFF: F#2, Velocity (0 - 127): 64
0    |  MIDI Event: Chan 10 Note OFF: B1, Velocity (0 - 127): 64
30   |  MIDI Event: Chan 6 Note OFF: D4, Velocity (0 - 127): 64
0    |  MIDI Event: Chan 1 Note OFF: A3, Velocity (0 - 127): 64
0    |  MIDI Event: Chan 1 Note OFF: D4, Velocity (0 - 127): 64
0    |  MIDI Event: Chan 5 Note OFF: A2, Velocity (0 - 127): 64
0    |  MIDI Event: Chan 1 Note OFF: F#3, Velocity (0 - 127): 64
0    |  MIDI Event: Chan 5 Note OFF: D3, Velocity (0 - 127): 64
0    |  MIDI Event: Chan 7 Note OFF: D5, Velocity (0 - 127): 64
0    |  MIDI Event: Chan 12 Note OFF: D5, Velocity (0 - 127): 64
0    |  MIDI Event: Chan 6 Note OFF: D5, Velocity (0 - 127): 64
1    |  MIDI Event: Chan 1 Note ON: A3, Velocity (0 - 127): 69
0    |  MIDI Event: Chan 1 Note ON: D4, Velocity (0 - 127): 98
0    |  MIDI Event: Chan 1 Note ON: F#4, Velocity (0 - 127): 74
0    |  MIDI Event: Chan 2 Control/Mode Change: Expression Control (0-127): 127
0    |  MIDI Event: Chan 3 Control/Mode Change: Expression Control (0-127): 127
0    |  MIDI Event: Chan 5 Note ON: A2, Velocity (0 - 127): 100
0    |  MIDI Event: Chan 5 Note ON: D3, Velocity (0 - 127): 111
0    |  MIDI Event: Chan 5 Note ON: F#3, Velocity (0 - 127): 89
0    |  MIDI Event: Chan 10 Note ON: A#2, Velocity (0 - 127): 120
0    |  MIDI Event: Chan 10 Note ON: C#5, Velocity (0 - 127): 119
29   |  MIDI Event: Chan 10 Note OFF: C#5, Velocity (0 - 127): 64
0    |  MIDI Event: Chan 10 Note OFF: A#2, Velocity (0 - 127): 64
30   |  MIDI Event: Chan 2 Note OFF: D2, Velocity (0 - 127): 64
1    |  MIDI Event: Chan 2 Control/Mode Change: Expression Control (0-127): 64
0    |  MIDI Event: Chan 2 Note ON: D2, Velocity (0 - 127): 120
0    |  MIDI Event: Chan 3 Control/Mode Change: Expression Control (0-127): 73
0    |  MIDI Event: Chan 6 Note ON: D4, Velocity (0 - 127): 119
0    |  MIDI Event: Chan 6 Note ON: D5, Velocity (0 - 127): 119
0    |  MIDI Event: Chan 7 Note ON: D5, Velocity (0 - 127): 120
0    |  MIDI Event: Chan 10 Note ON: B1, Velocity (0 - 127): 120
0    |  MIDI Event: Chan 10 Note ON: F#2, Velocity (0 - 127): 120
0    |  MIDI Event: Chan 12 Note ON: D5, Velocity (0 - 127): 120
29   |  MIDI Event: Chan 10 Note OFF: F#2, Velocity (0 - 127): 64
0    |  MIDI Event: Chan 5 Note OFF: A2, Velocity (0 - 127): 64
0    |  MIDI Event: Chan 1 Note OFF: F#4, Velocity (0 - 127): 64
0    |  MIDI Event: Chan 1 Note OFF: D4, Velocity (0 - 127): 64
0    |  MIDI Event: Chan 1 Note OFF: A3, Velocity (0 - 127): 64
0    |  MIDI Event: Chan 5 Note OFF: F#3, Velocity (0 - 127): 64
0    |  MIDI Event: Chan 10 Note OFF: B1, Velocity (0 - 127): 64
0    |  MIDI Event: Chan 5 Note OFF: D3, Velocity (0 - 127): 64
1    |  MIDI Event: Chan 1 Note ON: F#3, Velocity (0 - 127): 44
0    |  MIDI Event: Chan 1 Note ON: A3, Velocity (0 - 127): 78
0    |  MIDI Event: Chan 1 Note ON: D4, Velocity (0 - 127): 58
0    |  MIDI Event: Chan 5 Note ON: A2, Velocity (0 - 127): 85
0    |  MIDI Event: Chan 5 Note ON: D3, Velocity (0 - 127): 105
0    |  MIDI Event: Chan 5 Note ON: F#3, Velocity (0 - 127): 81
29   |  MIDI Event: Chan 5 Note OFF: F#3, Velocity (0 - 127): 64
0    |  MIDI Event: Chan 6 Note OFF: D4, Velocity (0 - 127): 64
0    |  MIDI Event: Chan 7 Note OFF: D5, Velocity (0 - 127): 64
0    |  MIDI Event: Chan 1 Note OFF: A3, Velocity (0 - 127): 64
0    |  MIDI Event: Chan 12 Note OFF: D5, Velocity (0 - 127): 64
0    |  MIDI Event: Chan 6 Note OFF: D5, Velocity (0 - 127): 64
0    |  MIDI Event: Chan 1 Note OFF: F#3, Velocity (0 - 127): 64
0    |  MIDI Event: Chan 5 Note OFF: D3, Velocity (0 - 127): 64
0    |  MIDI Event: Chan 5 Note OFF: A2, Velocity (0 - 127): 64
0    |  MIDI Event: Chan 1 Note OFF: D4, Velocity (0 - 127): 64
1    |  MIDI Event: Chan 1 Note ON: A3, Velocity (0 - 127): 57
0    |  MIDI Event: Chan 1 Note ON: D4, Velocity (0 - 127): 91
0    |  MIDI Event: Chan 1 Note ON: F#4, Velocity (0 - 127): 77
0    |  MIDI Event: Chan 2 Control/Mode Change: Expression Control (0-127): 127
0    |  MIDI Event: Chan 3 Control/Mode Change: Expression Control (0-127): 127
0    |  MIDI Event: Chan 5 Note ON: D3, Velocity (0 - 127): 109
0    |  MIDI Event: Chan 5 Note ON: F#3, Velocity (0 - 127): 89
0    |  MIDI Event: Chan 5 Note ON: A3, Velocity (0 - 127): 109
0    |  MIDI Event: Chan 10 Note ON: A#2, Velocity (0 - 127): 120
0    |  MIDI Event: Chan 10 Note ON: C#5, Velocity (0 - 127): 119
29   |  MIDI Event: Chan 10 Note OFF: C#5, Velocity (0 - 127): 64
0    |  MIDI Event: Chan 5 Note OFF: A3, Velocity (0 - 127): 64
0    |  MIDI Event: Chan 5 Note OFF: D3, Velocity (0 - 127): 64
0    |  MIDI Event: Chan 1 Note OFF: F#4, Velocity (0 - 127): 64
0    |  MIDI Event: Chan 5 Note OFF: F#3, Velocity (0 - 127): 64
0    |  MIDI Event: Chan 10 Note OFF: A#2, Velocity (0 - 127): 64
0    |  MIDI Event: Chan 1 Note OFF: A3, Velocity (0 - 127): 64
0    |  MIDI Event: Chan 1 Note OFF: D4, Velocity (0 - 127): 64
1    |  MIDI Event: Chan 1 Note ON: F#3, Velocity (0 - 127): 35
0    |  MIDI Event: Chan 1 Note ON: A3, Velocity (0 - 127): 79
0    |  MIDI Event: Chan 1 Note ON: D4, Velocity (0 - 127): 56
0    |  MIDI Event: Chan 5 Note ON: D3, Velocity (0 - 127): 111
0    |  MIDI Event: Chan 5 Note ON: F#3, Velocity (0 - 127): 100
0    |  MIDI Event: Chan 5 Note ON: A3, Velocity (0 - 127): 100
0    |  MIDI Event: Chan 6 Note ON: D4, Velocity (0 - 127): 103
0    |  MIDI Event: Chan 6 Note ON: D5, Velocity (0 - 127): 103
0    |  MIDI Event: Chan 7 Note ON: D5, Velocity (0 - 127): 120
0    |  MIDI Event: Chan 12 Note ON: D5, Velocity (0 - 127): 120
29   |  MIDI Event: Chan 12 Note OFF: D5, Velocity (0 - 127): 64
0    |  MIDI Event: Chan 1 Note OFF: F#3, Velocity (0 - 127): 64
0    |  MIDI Event: Chan 1 Note OFF: A3, Velocity (0 - 127): 64
0    |  MIDI Event: Chan 5 Note OFF: A3, Velocity (0 - 127): 64
0    |  MIDI Event: Chan 5 Note OFF: D3, Velocity (0 - 127): 64
0    |  MIDI Event: Chan 1 Note OFF: D4, Velocity (0 - 127): 64
0    |  MIDI Event: Chan 2 Note OFF: D2, Velocity (0 - 127): 64
0    |  MIDI Event: Chan 5 Note OFF: F#3, Velocity (0 - 127): 64
0    |  MIDI Event: Chan 6 Note OFF: D5, Velocity (0 - 127): 64
0    |  MIDI Event: Chan 6 Note OFF: D4, Velocity (0 - 127): 64
0    |  MIDI Event: Chan 7 Note OFF: D5, Velocity (0 - 127): 64
1    |  MIDI Event: Chan 1 Note ON: F#3, Velocity (0 - 127): 49
0    |  MIDI Event: Chan 1 Note ON: A3, Velocity (0 - 127): 85
0    |  MIDI Event: Chan 1 Note ON: D4, Velocity (0 - 127): 75
0    |  MIDI Event: Chan 2 Control/Mode Change: Expression Control (0-127): 64
0    |  MIDI Event: Chan 2 Note ON: D2, Velocity (0 - 127): 120
0    |  MIDI Event: Chan 3 Control/Mode Change: Expression Control (0-127): 71
0    |  MIDI Event: Chan 5 Note ON: A2, Velocity (0 - 127): 105
0    |  MIDI Event: Chan 5 Note ON: D3, Velocity (0 - 127): 116
0    |  MIDI Event: Chan 6 Note ON: E4, Velocity (0 - 127): 95
0    |  MIDI Event: Chan 6 Note ON: E5, Velocity (0 - 127): 95
0    |  MIDI Event: Chan 7 Note ON: E5, Velocity (0 - 127): 120
0    |  MIDI Event: Chan 10 Note ON: B1, Velocity (0 - 127): 120
0    |  MIDI Event: Chan 10 Note ON: F#2, Velocity (0 - 127): 120
0    |  MIDI Event: Chan 12 Note ON: E5, Velocity (0 - 127): 120
29   |  MIDI Event: Chan 12 Note OFF: E5, Velocity (0 - 127): 64
0    |  MIDI Event: Chan 7 Note OFF: E5, Velocity (0 - 127): 64
0    |  MIDI Event: Chan 6 Note OFF: E4, Velocity (0 - 127): 64
0    |  MIDI Event: Chan 10 Note OFF: F#2, Velocity (0 - 127): 64
0    |  MIDI Event: Chan 6 Note OFF: E5, Velocity (0 - 127): 64
0    |  MIDI Event: Chan 10 Note OFF: B1, Velocity (0 - 127): 64
1    |  MIDI Event: Chan 6 Note ON: D4, Velocity (0 - 127): 86
0    |  MIDI Event: Chan 6 Note ON: D5, Velocity (0 - 127): 86
0    |  MIDI Event: Chan 7 Note ON: D5, Velocity (0 - 127): 120
0    |  MIDI Event: Chan 12 Note ON: D5, Velocity (0 - 127): 120
29   |  MIDI Event: Chan 12 Note OFF: D5, Velocity (0 - 127): 64
0    |  MIDI Event: Chan 5 Note OFF: A2, Velocity (0 - 127): 64
0    |  MIDI Event: Chan 1 Note OFF: A3, Velocity (0 - 127): 64
0    |  MIDI Event: Chan 1 Note OFF: F#3, Velocity (0 - 127): 64
0    |  MIDI Event: Chan 5 Note OFF: D3, Velocity (0 - 127): 64
0    |  MIDI Event: Chan 6 Note OFF: D4, Velocity (0 - 127): 64
0    |  MIDI Event: Chan 1 Note OFF: D4, Velocity (0 - 127): 64
0    |  MIDI Event: Chan 7 Note OFF: D5, Velocity (0 - 127): 64
0    |  MIDI Event: Chan 6 Note OFF: D5, Velocity (0 - 127): 64
1    |  MIDI Event: Chan 1 Note ON: A3, Velocity (0 - 127): 56
0    |  MIDI Event: Chan 1 Note ON: D4, Velocity (0 - 127): 84
0    |  MIDI Event: Chan 1 Note ON: F#4, Velocity (0 - 127): 49
0    |  MIDI Event: Chan 2 Control/Mode Change: Expression Control (0-127): 127
0    |  MIDI Event: Chan 3 Control/Mode Change: Expression Control (0-127): 127
0    |  MIDI Event: Chan 5 Note ON: D3, Velocity (0 - 127): 105
0    |  MIDI Event: Chan 5 Note ON: F#3, Velocity (0 - 127): 115
0    |  MIDI Event: Chan 6 Note ON: E4, Velocity (0 - 127): 98
0    |  MIDI Event: Chan 6 Note ON: E5, Velocity (0 - 127): 98
0    |  MIDI Event: Chan 7 Note ON: E5, Velocity (0 - 127): 120
0    |  MIDI Event: Chan 10 Note ON: A#2, Velocity (0 - 127): 120
0    |  MIDI Event: Chan 10 Note ON: C#5, Velocity (0 - 127): 119
0    |  MIDI Event: Chan 12 Note ON: E5, Velocity (0 - 127): 120
29   |  MIDI Event: Chan 10 Note OFF: C#5, Velocity (0 - 127): 64
0    |  MIDI Event: Chan 5 Note OFF: D3, Velocity (0 - 127): 64
0    |  MIDI Event: Chan 1 Note OFF: A3, Velocity (0 - 127): 64
0    |  MIDI Event: Chan 1 Note OFF: F#4, Velocity (0 - 127): 64
0    |  MIDI Event: Chan 10 Note OFF: A#2, Velocity (0 - 127): 64
0    |  MIDI Event: Chan 1 Note OFF: D4, Velocity (0 - 127): 64
0    |  MIDI Event: Chan 5 Note OFF: F#3, Velocity (0 - 127): 64
1    |  MIDI Event: Chan 1 Note ON: A3, Velocity (0 - 127): 84
0    |  MIDI Event: Chan 1 Note ON: D4, Velocity (0 - 127): 94
0    |  MIDI Event: Chan 1 Note ON: F#4, Velocity (0 - 127): 76
0    |  MIDI Event: Chan 5 Note ON: D3, Velocity (0 - 127): 100
0    |  MIDI Event: Chan 5 Note ON: F#3, Velocity (0 - 127): 92
20   |  MIDI Event: Chan 6 Pitch Bend Change (0-16383): 8071 (factor==0.99804)
5    |  MIDI Event: Chan 6 Pitch Bend Change (0-16383): 6296 (factor==0.96972)
3    |  MIDI Event: Chan 6 Pitch Bend Change (0-16383): 4197 (factor==0.937266)
1    |  MIDI Event: Chan 5 Note OFF: F#3, Velocity (0 - 127): 64
0    |  MIDI Event: Chan 3 Note OFF: F#4, Velocity (0 - 127): 64
0    |  MIDI Event: Chan 3 Note OFF: D4, Velocity (0 - 127): 64
0    |  MIDI Event: Chan 2 Note OFF: D2, Velocity (0 - 127): 64
0    |  MIDI Event: Chan 6 Note OFF: E5, Velocity (0 - 127): 64
0    |  MIDI Event: Chan 12 Note OFF: E5, Velocity (0 - 127): 64
0    |  MIDI Event: Chan 3 Note OFF: A3, Velocity (0 - 127): 64
0    |  MIDI Event: Chan 6 Note OFF: E4, Velocity (0 - 127): 64
0    |  MIDI Event: Chan 1 Note OFF: F#4, Velocity (0 - 127): 64
0    |  MIDI Event: Chan 1 Note OFF: A3, Velocity (0 - 127): 64
0    |  MIDI Event: Chan 7 Note OFF: E5, Velocity (0 - 127): 64
0    |  MIDI Event: Chan 5 Note OFF: D3, Velocity (0 - 127): 64
0    |  MIDI Event: Chan 1 Note OFF: D4, Velocity (0 - 127): 64
1    |  MIDI Event: Chan 1 Note ON: E3, Velocity (0 - 127): 47
0    |  MIDI Event: Chan 1 Note ON: A3, Velocity (0 - 127): 89
0    |  MIDI Event: Chan 1 Note ON: C#4, Velocity (0 - 127): 52
0    |  MIDI Event: Chan 2 Control/Mode Change: Expression Control (0-127): 64
0    |  MIDI Event: Chan 2 Note ON: F#1, Velocity (0 - 127): 120
0    |  MIDI Event: Chan 3 Control/Mode Change: Expression Control (0-127): 80
0    |  MIDI Event: Chan 3 Note ON: A3, Velocity (0 - 127): 120
0    |  MIDI Event: Chan 3 Note ON: C#4, Velocity (0 - 127): 120
0    |  MIDI Event: Chan 3 Note ON: F#4, Velocity (0 - 127): 120
0    |  MIDI Event: Chan 5 Note ON: A2, Velocity (0 - 127): 101
0    |  MIDI Event: Chan 5 Note ON: E3, Velocity (0 - 127): 101
0    |  MIDI Event: Chan 6 Note ON: F#4, Velocity (0 - 127): 119
0    |  MIDI Event: Chan 6 Note ON: F#5, Velocity (0 - 127): 119
0    |  MIDI Event: Chan 6 Pitch Bend Change (0-16383): 1776 (factor==0.901179)
0    |  MIDI Event: Chan 7 Note ON: F#5, Velocity (0 - 127): 120
0    |  MIDI Event: Chan 10 Note ON: B1, Velocity (0 - 127): 120
0    |  MIDI Event: Chan 10 Note ON: F#2, Velocity (0 - 127): 120
0    |  MIDI Event: Chan 12 Note ON: F#5, Velocity (0 - 127): 120
3    |  MIDI Event: Chan 6 Pitch Bend Change (0-16383): 0 (factor==0.875594)
17   |  MIDI Event: Chan 6 Pitch Bend Change (0-16383): 646 (factor==0.884815)
3    |  MIDI Event: Chan 6 Pitch Bend Change (0-16383): 2422 (factor==0.91067)
2    |  MIDI Event: Chan 6 Pitch Bend Change (0-16383): 4520 (factor==0.942188)
3    |  MIDI Event: Chan 6 Pitch Bend Change (0-16383): 6942 (factor==0.979932)
1    |  MIDI Event: Chan 10 Note OFF: F#2, Velocity (0 - 127): 64
0    |  MIDI Event: Chan 10 Note OFF: B1, Velocity (0 - 127): 64
1    |  MIDI Event: Chan 6 Pitch Bend Change (0-16383): 8192 (factor==1)
29   |  MIDI Event: Chan 6 Note OFF: F#4, Velocity (0 - 127): 64
0    |  MIDI Event: Chan 1 Note OFF: A3, Velocity (0 - 127): 64
0    |  MIDI Event: Chan 1 Note OFF: C#4, Velocity (0 - 127): 64
0    |  MIDI Event: Chan 5 Note OFF: A2, Velocity (0 - 127): 64
0    |  MIDI Event: Chan 1 Note OFF: E3, Velocity (0 - 127): 64
0    |  MIDI Event: Chan 5 Note OFF: E3, Velocity (0 - 127): 64
0    |  MIDI Event: Chan 7 Note OFF: F#5, Velocity (0 - 127): 64
0    |  MIDI Event: Chan 12 Note OFF: F#5, Velocity (0 - 127): 64
0    |  MIDI Event: Chan 6 Note OFF: F#5, Velocity (0 - 127): 64
1    |  MIDI Event: Chan 1 Note ON: A3, Velocity (0 - 127): 51
0    |  MIDI Event: Chan 1 Note ON: C#4, Velocity (0 - 127): 52
0    |  MIDI Event: Chan 1 Note ON: E4, Velocity (0 - 127): 78
0    |  MIDI Event: Chan 2 Control/Mode Change: Expression Control (0-127): 127
0    |  MIDI Event: Chan 3 Control/Mode Change: Expression Control (0-127): 127
0    |  MIDI Event: Chan 5 Note ON: C#3, Velocity (0 - 127): 89
0    |  MIDI Event: Chan 5 Note ON: E3, Velocity (0 - 127): 101
0    |  MIDI Event: Chan 5 Note ON: A3, Velocity (0 - 127): 89
0    |  MIDI Event: Chan 6 Note ON: D4, Velocity (0 - 127): 111
0    |  MIDI Event: Chan 6 Note ON: D5, Velocity (0 - 127): 111
0    |  MIDI Event: Chan 7 Note ON: D5, Velocity (0 - 127): 120
0    |  MIDI Event: Chan 10 Note ON: A#2, Velocity (0 - 127): 120
0    |  MIDI Event: Chan 10 Note ON: C#5, Velocity (0 - 127): 115
0    |  MIDI Event: Chan 12 Note ON: D5, Velocity (0 - 127): 120
29   |  MIDI Event: Chan 10 Note OFF: C#5, Velocity (0 - 127): 64
0    |  MIDI Event: Chan 5 Note OFF: E3, Velocity (0 - 127): 64
0    |  MIDI Event: Chan 1 Note OFF: C#4, Velocity (0 - 127): 64
0    |  MIDI Event: Chan 1 Note OFF: A3, Velocity (0 - 127): 64
0    |  MIDI Event: Chan 1 Note OFF: E4, Velocity (0 - 127): 64
0    |  MIDI Event: Chan 5 Note OFF: C#3, Velocity (0 - 127): 64
0    |  MIDI Event: Chan 10 Note OFF: A#2, Velocity (0 - 127): 64
0    |  MIDI Event: Chan 5 Note OFF: A3, Velocity (0 - 127): 64
1    |  MIDI Event: Chan 1 Note ON: A3, Velocity (0 - 127): 73
0    |  MIDI Event: Chan 1 Note ON: C#4, Velocity (0 - 127): 52
0    |  MIDI Event: Chan 1 Note ON: E4, Velocity (0 - 127): 83
0    |  MIDI Event: Chan 5 Note ON: C#3, Velocity (0 - 127): 119
0    |  MIDI Event: Chan 5 Note ON: E3, Velocity (0 - 127): 118
0    |  MIDI Event: Chan 5 Note ON: A3, Velocity (0 - 127): 105
29   |  MIDI Event: Chan 5 Note OFF: A3, Velocity (0 - 127): 64
0    |  MIDI Event: Chan 6 Note OFF: D4, Velocity (0 - 127): 64
0    |  MIDI Event: Chan 3 Note OFF: F#4, Velocity (0 - 127): 64
0    |  MIDI Event: Chan 7 Note OFF: D5, Velocity (0 - 127): 64
0    |  MIDI Event: Chan 3 Note OFF: A3, Velocity (0 - 127): 64
0    |  MIDI Event: Chan 6 Note OFF: D5, Velocity (0 - 127): 64
0    |  MIDI Event: Chan 3 Note OFF: C#4, Velocity (0 - 127): 64
0    |  MIDI Event: Chan 12 Note OFF: D5, Velocity (0 - 127): 64
0    |  MIDI Event: Chan 5 Note OFF: C#3, Velocity (0 - 127): 64
0    |  MIDI Event: Chan 1 Note OFF: E4, Velocity (0 - 127): 64
0    |  MIDI Event: Chan 1 Note OFF: A3, Velocity (0 - 127): 64
0    |  MIDI Event: Chan 2 Note OFF: F#1, Velocity (0 - 127): 64
0    |  MIDI Event: Chan 5 Note OFF: E3, Velocity (0 - 127): 64
0    |  MIDI Event: Chan 1 Note OFF: C#4, Velocity (0 - 127): 64
1    |  MIDI Event: Chan 1 Note ON: B3, Velocity (0 - 127): 58
0    |  MIDI Event: Chan 1 Note ON: D4, Velocity (0 - 127): 91
0    |  MIDI Event: Chan 2 Control/Mode Change: Expression Control (0-127): 64
0    |  MIDI Event: Chan 2 Note ON: B1, Velocity (0 - 127): 120
0    |  MIDI Event: Chan 3 Control/Mode Change: Expression Control (0-127): 64
0    |  MIDI Event: Chan 3 Note ON: B3, Velocity (0 - 127): 120
0    |  MIDI Event: Chan 3 Note ON: D4, Velocity (0 - 127): 120
0    |  MIDI Event: Chan 3 Note ON: F#4, Velocity (0 - 127): 120
0    |  MIDI Event: Chan 5 Note ON: B2, Velocity (0 - 127): 85
0    |  MIDI Event: Chan 5 Note ON: F#3, Velocity (0 - 127): 120
0    |  MIDI Event: Chan 6 Note ON: B3, Velocity (0 - 127): 120
0    |  MIDI Event: Chan 6 Note ON: B4, Velocity (0 - 127): 120
0    |  MIDI Event: Chan 7 Note ON: B4, Velocity (0 - 127): 120
0    |  MIDI Event: Chan 10 Note ON: B1, Velocity (0 - 127): 120
0    |  MIDI Event: Chan 10 Note ON: F#2, Velocity (0 - 127): 120
0    |  MIDI Event: Chan 12 Note ON: B4, Velocity (0 - 127): 120
29   |  MIDI Event: Chan 10 Note OFF: F#2, Velocity (0 - 127): 64
0    |  MIDI Event: Chan 10 Note OFF: B1, Velocity (0 - 127): 64
30   |  MIDI Event: Chan 6 Note OFF: B4, Velocity (0 - 127): 64
0    |  MIDI Event: Chan 5 Note OFF: B2, Velocity (0 - 127): 64
0    |  MIDI Event: Chan 5 Note OFF: F#3, Velocity (0 - 127): 64
0    |  MIDI Event: Chan 1 Note OFF: B3, Velocity (0 - 127): 64
0    |  MIDI Event: Chan 6 Note OFF: B3, Velocity (0 - 127): 64
0    |  MIDI Event: Chan 7 Note OFF: B4, Velocity (0 - 127): 64
0    |  MIDI Event: Chan 12 Note OFF: B4, Velocity (0 - 127): 64
0    |  MIDI Event: Chan 1 Note OFF: D4, Velocity (0 - 127): 64
1    |  MIDI Event: Chan 1 Note ON: B3, Velocity (0 - 127): 79
0    |  MIDI Event: Chan 1 Note ON: D4, Velocity (0 - 127): 95
0    |  MIDI Event: Chan 1 Note ON: F#4, Velocity (0 - 127): 74
0    |  MIDI Event: Chan 2 Control/Mode Change: Expression Control (0-127): 127
0    |  MIDI Event: Chan 3 Control/Mode Change: Expression Control (0-127): 127
0    |  MIDI Event: Chan 5 Note ON: D3, Velocity (0 - 127): 92
0    |  MIDI Event: Chan 5 Note ON: F#3, Velocity (0 - 127): 87
0    |  MIDI Event: Chan 5 Note ON: D4, Velocity (0 - 127): 95
0    |  MIDI Event: Chan 10 Note ON: A#2, Velocity (0 - 127): 120
0    |  MIDI Event: Chan 10 Note ON: C#5, Velocity (0 - 127): 119
29   |  MIDI Event: Chan 10 Note OFF: C#5, Velocity (0 - 127): 64
0    |  MIDI Event: Chan 10 Note OFF: A#2, Velocity (0 - 127): 64
30   |  MIDI Event: Chan 2 Note OFF: B1, Velocity (0 - 127): 64
1    |  MIDI Event: Chan 2 Control/Mode Change: Expression Control (0-127): 64
0    |  MIDI Event: Chan 2 Note ON: B1, Velocity (0 - 127): 120
0    |  MIDI Event: Chan 3 Control/Mode Change: Expression Control (0-127): 73
0    |  MIDI Event: Chan 6 Note ON: B3, Velocity (0 - 127): 120
0    |  MIDI Event: Chan 6 Note ON: B4, Velocity (0 - 127): 120
0    |  MIDI Event: Chan 7 Note ON: B4, Velocity (0 - 127): 120
0    |  MIDI Event: Chan 10 Note ON: B1, Velocity (0 - 127): 120
0    |  MIDI Event: Chan 10 Note ON: F#2, Velocity (0 - 127): 120
0    |  MIDI Event: Chan 12 Note ON: B4, Velocity (0 - 127): 120
29   |  MIDI Event: Chan 10 Note OFF: F#2, Velocity (0 - 127): 64
0    |  MIDI Event: Chan 5 Note OFF: D3, Velocity (0 - 127): 64
0    |  MIDI Event: Chan 1 Note OFF: F#4, Velocity (0 - 127): 64
0    |  MIDI Event: Chan 1 Note OFF: D4, Velocity (0 - 127): 64
0    |  MIDI Event: Chan 1 Note OFF: B3, Velocity (0 - 127): 64
0    |  MIDI Event: Chan 5 Note OFF: D4, Velocity (0 - 127): 64
0    |  MIDI Event: Chan 10 Note OFF: B1, Velocity (0 - 127): 64
0    |  MIDI Event: Chan 5 Note OFF: F#3, Velocity (0 - 127): 64
1    |  MIDI Event: Chan 1 Note ON: B3, Velocity (0 - 127): 71
0    |  MIDI Event: Chan 1 Note ON: D4, Velocity (0 - 127): 91
0    |  MIDI Event: Chan 1 Note ON: F#4, Velocity (0 - 127): 60
0    |  MIDI Event: Chan 5 Note ON: F#3, Velocity (0 - 127): 109
0    |  MIDI Event: Chan 5 Note ON: B3, Velocity (0 - 127): 95
29   |  MIDI Event: Chan 5 Note OFF: B3, Velocity (0 - 127): 64
0    |  MIDI Event: Chan 7 Note OFF: B4, Velocity (0 - 127): 64
0    |  MIDI Event: Chan 1 Note OFF: D4, Velocity (0 - 127): 64
0    |  MIDI Event: Chan 12 Note OFF: B4, Velocity (0 - 127): 64
0    |  MIDI Event: Chan 6 Note OFF: B4, Velocity (0 - 127): 64
0    |  MIDI Event: Chan 1 Note OFF: B3, Velocity (0 - 127): 64
0    |  MIDI Event: Chan 5 Note OFF: F#3, Velocity (0 - 127): 64
0    |  MIDI Event: Chan 6 Note OFF: B3, Velocity (0 - 127): 64
0    |  MIDI Event: Chan 1 Note OFF: F#4, Velocity (0 - 127): 64
1    |  MIDI Event: Chan 1 Note ON: D4, Velocity (0 - 127): 80
0    |  MIDI Event: Chan 1 Note ON: F#4, Velocity (0 - 127): 62
0    |  MIDI Event: Chan 1 Note ON: B4, Velocity (0 - 127): 91
0    |  MIDI Event: Chan 2 Control/Mode Change: Expression Control (0-127): 127
0    |  MIDI Event: Chan 3 Control/Mode Change: Expression Control (0-127): 127
0    |  MIDI Event: Chan 5 Note ON: D3, Velocity (0 - 127): 103
0    |  MIDI Event: Chan 5 Note ON: F#3, Velocity (0 - 127): 115
0    |  MIDI Event: Chan 10 Note ON: A#2, Velocity (0 - 127): 119
0    |  MIDI Event: Chan 10 Note ON: C#5, Velocity (0 - 127): 119
29   |  MIDI Event: Chan 10 Note OFF: C#5, Velocity (0 - 127): 64
0    |  MIDI Event: Chan 5 Note OFF: D3, Velocity (0 - 127): 64
0    |  MIDI Event: Chan 10 Note OFF: A#2, Velocity (0 - 127): 64
0    |  MIDI Event: Chan 1 Note OFF: B4, Velocity (0 - 127): 64
0    |  MIDI Event: Chan 5 Note OFF: F#3, Velocity (0 - 127): 64
0    |  MIDI Event: Chan 1 Note OFF: D4, Velocity (0 - 127): 64
0    |  MIDI Event: Chan 1 Note OFF: F#4, Velocity (0 - 127): 64
1    |  MIDI Event: Chan 1 Note ON: B3, Velocity (0 - 127): 51
0    |  MIDI Event: Chan 1 Note ON: D4, Velocity (0 - 127): 85
0    |  MIDI Event: Chan 1 Note ON: F#4, Velocity (0 - 127): 59
0    |  MIDI Event: Chan 5 Note ON: B2, Velocity (0 - 127): 92
0    |  MIDI Event: Chan 5 Note ON: E3, Velocity (0 - 127): 98
0    |  MIDI Event: Chan 6 Note ON: A3, Velocity (0 - 127): 98
0    |  MIDI Event: Chan 6 Note ON: A4, Velocity (0 - 127): 98
0    |  MIDI Event: Chan 7 Note ON: A4, Velocity (0 - 127): 120
0    |  MIDI Event: Chan 12 Note ON: A4, Velocity (0 - 127): 120
29   |  MIDI Event: Chan 12 Note OFF: A4, Velocity (0 - 127): 64
0    |  MIDI Event: Chan 1 Note OFF: D4, Velocity (0 - 127): 64
0    |  MIDI Event: Chan 3 Note OFF: F#4, Velocity (0 - 127): 64
0    |  MIDI Event: Chan 5 Note OFF: B2, Velocity (0 - 127): 64
0    |  MIDI Event: Chan 2 Note OFF: B1, Velocity (0 - 127): 64
0    |  MIDI Event: Chan 3 Note OFF: D4, Velocity (0 - 127): 64
0    |  MIDI Event: Chan 3 Note OFF: B3, Velocity (0 - 127): 64
0    |  MIDI Event: Chan 1 Note OFF: B3, Velocity (0 - 127): 64
0    |  MIDI Event: Chan 6 Note OFF: A4, Velocity (0 - 127): 64
0    |  MIDI Event: Chan 5 Note OFF: E3, Velocity (0 - 127): 64
0    |  MIDI Event: Chan 1 Note OFF: F#4, Velocity (0 - 127): 64
0    |  MIDI Event: Chan 7 Note OFF: A4, Velocity (0 - 127): 64
0    |  MIDI Event: Chan 6 Note OFF: A3, Velocity (0 - 127): 64
1    |  MIDI Event: Chan 1 Note ON: G3, Velocity (0 - 127): 74
0    |  MIDI Event: Chan 1 Note ON: B3, Velocity (0 - 127): 94
0    |  MIDI Event: Chan 1 Note ON: D4, Velocity (0 - 127): 91
0    |  MIDI Event: Chan 2 Control/Mode Change: Expression Control (0-127): 64
0    |  MIDI Event: Chan 2 Note ON: G1, Velocity (0 - 127): 120
0    |  MIDI Event: Chan 3 Control/Mode Change: Expression Control (0-127): 71
0    |  MIDI Event: Chan 3 Note ON: B3, Velocity (0 - 127): 120
0    |  MIDI Event: Chan 3 Note ON: D4, Velocity (0 - 127): 120
0    |  MIDI Event: Chan 3 Note ON: G4, Velocity (0 - 127): 120
0    |  MIDI Event: Chan 5 Note ON: G2, Velocity (0 - 127): 98
0    |  MIDI Event: Chan 5 Note ON: D3, Velocity (0 - 127): 116
0    |  MIDI Event: Chan 6 Note ON: B3, Velocity (0 - 127): 98
0    |  MIDI Event: Chan 6 Note ON: B4, Velocity (0 - 127): 98
0    |  MIDI Event: Chan 7 Note ON: B4, Velocity (0 - 127): 120
0    |  MIDI Event: Chan 10 Note ON: B1, Velocity (0 - 127): 120
0    |  MIDI Event: Chan 10 Note ON: F#2, Velocity (0 - 127): 120
0    |  MIDI Event: Chan 12 Note ON: B4, Velocity (0 - 127): 120
29   |  MIDI Event: Chan 12 Note OFF: B4, Velocity (0 - 127): 64
0    |  MIDI Event: Chan 7 Note OFF: B4, Velocity (0 - 127): 64
0    |  MIDI Event: Chan 6 Note OFF: B3, Velocity (0 - 127): 64
0    |  MIDI Event: Chan 10 Note OFF: F#2, Velocity (0 - 127): 64
0    |  MIDI Event: Chan 6 Note OFF: B4, Velocity (0 - 127): 64
0    |  MIDI Event: Chan 10 Note OFF: B1, Velocity (0 - 127): 64
1    |  MIDI Event: Chan 6 Note ON: D4, Velocity (0 - 127): 54
0    |  MIDI Event: Chan 6 Note ON: D5, Velocity (0 - 127): 54
0    |  MIDI Event: Chan 7 Note ON: D5, Velocity (0 - 127): 120
0    |  MIDI Event: Chan 12 Note ON: D5, Velocity (0 - 127): 120
29   |  MIDI Event: Chan 12 Note OFF: D5, Velocity (0 - 127): 64
0    |  MIDI Event: Chan 5 Note OFF: G2, Velocity (0 - 127): 64
0    |  MIDI Event: Chan 1 Note OFF: B3, Velocity (0 - 127): 64
0    |  MIDI Event: Chan 1 Note OFF: G3, Velocity (0 - 127): 64
0    |  MIDI Event: Chan 5 Note OFF: D3, Velocity (0 - 127): 64
0    |  MIDI Event: Chan 6 Note OFF: D4, Velocity (0 - 127): 64
0    |  MIDI Event: Chan 1 Note OFF: D4, Velocity (0 - 127): 64
0    |  MIDI Event: Chan 7 Note OFF: D5, Velocity (0 - 127): 64
0    |  MIDI Event: Chan 6 Note OFF: D5, Velocity (0 - 127): 64
1    |  MIDI Event: Chan 1 Note ON: B3, Velocity (0 - 127): 70
0    |  MIDI Event: Chan 1 Note ON: D4, Velocity (0 - 127): 94
0    |  MIDI Event: Chan 1 Note ON: G4, Velocity (0 - 127): 101
0    |  MIDI Event: Chan 2 Control/Mode Change: Expression Control (0-127): 127
0    |  MIDI Event: Chan 3 Control/Mode Change: Expression Control (0-127): 127
0    |  MIDI Event: Chan 5 Note ON: D3, Velocity (0 - 127): 79
0    |  MIDI Event: Chan 5 Note ON: G3, Velocity (0 - 127): 111
0    |  MIDI Event: Chan 5 Note ON: B3, Velocity (0 - 127): 100
0    |  MIDI Event: Chan 6 Note ON: B3, Velocity (0 - 127): 116
0    |  MIDI Event: Chan 6 Note ON: B4, Velocity (0 - 127): 116
0    |  MIDI Event: Chan 7 Note ON: B4, Velocity (0 - 127): 120
0    |  MIDI Event: Chan 10 Note ON: A#2, Velocity (0 - 127): 120
0    |  MIDI Event: Chan 10 Note ON: C#5, Velocity (0 - 127): 109
0    |  MIDI Event: Chan 12 Note ON: B4, Velocity (0 - 127): 120
29   |  MIDI Event: Chan 10 Note OFF: C#5, Velocity (0 - 127): 64
0    |  MIDI Event: Chan 10 Note OFF: A#2, Velocity (0 - 127): 64
30   |  MIDI Event: Chan 6 Note OFF: B4, Velocity (0 - 127): 64
0    |  MIDI Event: Chan 12 Note OFF: B4, Velocity (0 - 127): 64
0    |  MIDI Event: Chan 2 Note OFF: G1, Velocity (0 - 127): 64
0    |  MIDI Event: Chan 6 Note OFF: B3, Velocity (0 - 127): 64
0    |  MIDI Event: Chan 7 Note OFF: B4, Velocity (0 - 127): 64
1    |  MIDI Event: Chan 2 Control/Mode Change: Expression Control (0-127): 64
0    |  MIDI Event: Chan 2 Note ON: G1, Velocity (0 - 127): 120
0    |  MIDI Event: Chan 3 Control/Mode Change: Expression Control (0-127): 80
0    |  MIDI Event: Chan 10 Note ON: B1, Velocity (0 - 127): 120
0    |  MIDI Event: Chan 10 Note ON: F#2, Velocity (0 - 127): 120
29   |  MIDI Event: Chan 10 Note OFF: F#2, Velocity (0 - 127): 64
0    |  MIDI Event: Chan 1 Note OFF: G4, Velocity (0 - 127): 64
0    |  MIDI Event: Chan 5 Note OFF: B3, Velocity (0 - 127): 64
0    |  MIDI Event: Chan 1 Note OFF: D4, Velocity (0 - 127): 64
0    |  MIDI Event: Chan 1 Note OFF: B3, Velocity (0 - 127): 64
0    |  MIDI Event: Chan 5 Note OFF: D3, Velocity (0 - 127): 64
0    |  MIDI Event: Chan 10 Note OFF: B1, Velocity (0 - 127): 64
0    |  MIDI Event: Chan 5 Note OFF: G3, Velocity (0 - 127): 64
1    |  MIDI Event: Chan 1 Note ON: B3, Velocity (0 - 127): 52
0    |  MIDI Event: Chan 1 Note ON: D4, Velocity (0 - 127): 85
0    |  MIDI Event: Chan 1 Note ON: G4, Velocity (0 - 127): 94
0    |  MIDI Event: Chan 5 Note ON: D3, Velocity (0 - 127): 82
0    |  MIDI Event: Chan 5 Note ON: G3, Velocity (0 - 127): 98
0    |  MIDI Event: Chan 5 Note ON: B3, Velocity (0 - 127): 85
0    |  MIDI Event: Chan 6 Note ON: A3, Velocity (0 - 127): 83
0    |  MIDI Event: Chan 6 Note ON: A4, Velocity (0 - 127): 83
0    |  MIDI Event: Chan 7 Note ON: A4, Velocity (0 - 127): 120
0    |  MIDI Event: Chan 12 Note ON: A4, Velocity (0 - 127): 120
29   |  MIDI Event: Chan 12 Note OFF: A4, Velocity (0 - 127): 64
0    |  MIDI Event: Chan 1 Note OFF: B3, Velocity (0 - 127): 64
0    |  MIDI Event: Chan 1 Note OFF: D4, Velocity (0 - 127): 64
0    |  MIDI Event: Chan 5 Note OFF: B3, Velocity (0 - 127): 64
0    |  MIDI Event: Chan 5 Note OFF: D3, Velocity (0 - 127): 64
0    |  MIDI Event: Chan 1 Note OFF: G4, Velocity (0 - 127): 64
0    |  MIDI Event: Chan 5 Note OFF: G3, Velocity (0 - 127): 64
0    |  MIDI Event: Chan 7 Note OFF: A4, Velocity (0 - 127): 64
0    |  MIDI Event: Chan 6 Note OFF: A4, Velocity (0 - 127): 64
0    |  MIDI Event: Chan 6 Note OFF: A3, Velocity (0 - 127): 64
1    |  MIDI Event: Chan 1 Note ON: D4, Velocity (0 - 127): 78
0    |  MIDI Event: Chan 1 Note ON: G4, Velocity (0 - 127): 100
0    |  MIDI Event: Chan 1 Note ON: B4, Velocity (0 - 127): 46
0    |  MIDI Event: Chan 2 Control/Mode Change: Expression Control (0-127): 127
0    |  MIDI Event: Chan 3 Control/Mode Change: Expression Control (0-127): 127
0    |  MIDI Event: Chan 5 Note ON: G2, Velocity (0 - 127): 109
0    |  MIDI Event: Chan 5 Note ON: D3, Velocity (0 - 127): 109
0    |  MIDI Event: Chan 6 Note ON: B3, Velocity (0 - 127): 98
0    |  MIDI Event: Chan 6 Note ON: B4, Velocity (0 - 127): 98
0    |  MIDI Event: Chan 7 Note ON: B4, Velocity (0 - 127): 120
0    |  MIDI Event: Chan 10 Note ON: A#2, Velocity (0 - 127): 120
0    |  MIDI Event: Chan 10 Note ON: C#5, Velocity (0 - 127): 115
0    |  MIDI Event: Chan 12 Note ON: B4, Velocity (0 - 127): 120
29   |  MIDI Event: Chan 12 Note OFF: B4, Velocity (0 - 127): 64
0    |  MIDI Event: Chan 7 Note OFF: B4, Velocity (0 - 127): 64
0    |  MIDI Event: Chan 1 Note OFF: D4, Velocity (0 - 127): 64
0    |  MIDI Event: Chan 1 Note OFF: G4, Velocity (0 - 127): 64
0    |  MIDI Event: Chan 6 Note OFF: B3, Velocity (0 - 127): 64
0    |  MIDI Event: Chan 5 Note OFF: G2, Velocity (0 - 127): 64
0    |  MIDI Event: Chan 1 Note OFF: B4, Velocity (0 - 127): 64
0    |  MIDI Event: Chan 5 Note OFF: D3, Velocity (0 - 127): 64
0    |  MIDI Event: Chan 10 Note OFF: C#5, Velocity (0 - 127): 64
0    |  MIDI Event: Chan 10 Note OFF: A#2, Velocity (0 - 127): 64
0    |  MIDI Event: Chan 6 Note OFF: B4, Velocity (0 - 127): 64
1    |  MIDI Event: Chan 1 Note ON: B3, Velocity (0 - 127): 45
0    |  MIDI Event: Chan 1 Note ON: D4, Velocity (0 - 127): 73
0    |  MIDI Event: Chan 1 Note ON: G4, Velocity (0 - 127): 86
0    |  MIDI Event: Chan 5 Note ON: G2, Velocity (0 - 127): 101
0    |  MIDI Event: Chan 5 Note ON: E3, Velocity (0 - 127): 116
0    |  MIDI Event: Chan 6 Note ON: A3, Velocity (0 - 127): 94
0    |  MIDI Event: Chan 6 Note ON: A4, Velocity (0 - 127): 94
0    |  MIDI Event: Chan 7 Note ON: A4, Velocity (0 - 127): 120
0    |  MIDI Event: Chan 12 Note ON: A4, Velocity (0 - 127): 120
29   |  MIDI Event: Chan 12 Note OFF: A4, Velocity (0 - 127): 64
0    |  MIDI Event: Chan 1 Note OFF: D4, Velocity (0 - 127): 64
0    |  MIDI Event: Chan 3 Note OFF: D4, Velocity (0 - 127): 64
0    |  MIDI Event: Chan 5 Note OFF: G2, Velocity (0 - 127): 64
0    |  MIDI Event: Chan 3 Note OFF: B3, Velocity (0 - 127): 64
0    |  MIDI Event: Chan 3 Note OFF: G4, Velocity (0 - 127): 64
0    |  MIDI Event: Chan 2 Note OFF: G1, Velocity (0 - 127): 64
0    |  MIDI Event: Chan 1 Note OFF: B3, Velocity (0 - 127): 64
0    |  MIDI Event: Chan 6 Note OFF: A4, Velocity (0 - 127): 64
0    |  MIDI Event: Chan 5 Note OFF: E3, Velocity (0 - 127): 64
0    |  MIDI Event: Chan 1 Note OFF: G4, Velocity (0 - 127): 64
0    |  MIDI Event: Chan 7 Note OFF: A4, Velocity (0 - 127): 64
0    |  MIDI Event: Chan 6 Note OFF: A3, Velocity (0 - 127): 64
1    |  MIDI Event: Chan 1 Note ON: F#3, Velocity (0 - 127): 35
0    |  MIDI Event: Chan 1 Note ON: A3, Velocity (0 - 127): 85
0    |  MIDI Event: Chan 1 Note ON: D4, Velocity (0 - 127): 79
0    |  MIDI Event: Chan 2 Control/Mode Change: Expression Control (0-127): 64
0    |  MIDI Event: Chan 2 Note ON: D2, Velocity (0 - 127): 120
0    |  MIDI Event: Chan 3 Control/Mode Change: Expression Control (0-127): 64
0    |  MIDI Event: Chan 3 Note ON: A3, Velocity (0 - 127): 120
0    |  MIDI Event: Chan 3 Note ON: D4, Velocity (0 - 127): 120
0    |  MIDI Event: Chan 3 Note ON: F#4, Velocity (0 - 127): 120
0    |  MIDI Event: Chan 5 Note ON: A2, Velocity (0 - 127): 90
0    |  MIDI Event: Chan 5 Note ON: D3, Velocity (0 - 127): 105
0    |  MIDI Event: Chan 6 Note ON: D4, Velocity (0 - 127): 120
0    |  MIDI Event: Chan 6 Note ON: D5, Velocity (0 - 127): 120
0    |  MIDI Event: Chan 7 Note ON: D5, Velocity (0 - 127): 120
0    |  MIDI Event: Chan 10 Note ON: B1, Velocity (0 - 127): 120
0    |  MIDI Event: Chan 10 Note ON: F#2, Velocity (0 - 127): 120
0    |  MIDI Event: Chan 12 Note ON: D5, Velocity (0 - 127): 120
29   |  MIDI Event: Chan 10 Note OFF: F#2, Velocity (0 - 127): 64
0    |  MIDI Event: Chan 10 Note OFF: B1, Velocity (0 - 127): 64
30   |  MIDI Event: Chan 6 Note OFF: D4, Velocity (0 - 127): 64
0    |  MIDI Event: Chan 1 Note OFF: A3, Velocity (0 - 127): 64
0    |  MIDI Event: Chan 1 Note OFF: D4, Velocity (0 - 127): 64
0    |  MIDI Event: Chan 5 Note OFF: A2, Velocity (0 - 127): 64
0    |  MIDI Event: Chan 1 Note OFF: F#3, Velocity (0 - 127): 64
0    |  MIDI Event: Chan 5 Note OFF: D3, Velocity (0 - 127): 64
0    |  MIDI Event: Chan 7 Note OFF: D5, Velocity (0 - 127): 64
0    |  MIDI Event: Chan 12 Note OFF: D5, Velocity (0 - 127): 64
0    |  MIDI Event: Chan 6 Note OFF: D5, Velocity (0 - 127): 64
1    |  MIDI Event: Chan 1 Note ON: A3, Velocity (0 - 127): 69
0    |  MIDI Event: Chan 1 Note ON: D4, Velocity (0 - 127): 98
0    |  MIDI Event: Chan 1 Note ON: F#4, Velocity (0 - 127): 74
0    |  MIDI Event: Chan 2 Control/Mode Change: Expression Control (0-127): 127
0    |  MIDI Event: Chan 3 Control/Mode Change: Expression Control (0-127): 127
0    |  MIDI Event: Chan 5 Note ON: A2, Velocity (0 - 127): 100
0    |  MIDI Event: Chan 5 Note ON: D3, Velocity (0 - 127): 111
0    |  MIDI Event: Chan 5 Note ON: F#3, Velocity (0 - 127): 89
0    |  MIDI Event: Chan 10 Note ON: A#2, Velocity (0 - 127): 120
0    |  MIDI Event: Chan 10 Note ON: C#5, Velocity (0 - 127): 109
29   |  MIDI Event: Chan 10 Note OFF: C#5, Velocity (0 - 127): 64
0    |  MIDI Event: Chan 10 Note OFF: A#2, Velocity (0 - 127): 64
30   |  MIDI Event: Chan 2 Note OFF: D2, Velocity (0 - 127): 64
1    |  MIDI Event: Chan 2 Control/Mode Change: Expression Control (0-127): 64
0    |  MIDI Event: Chan 2 Note ON: D2, Velocity (0 - 127): 120
0    |  MIDI Event: Chan 3 Control/Mode Change: Expression Control (0-127): 73
0    |  MIDI Event: Chan 6 Note ON: D4, Velocity (0 - 127): 120
0    |  MIDI Event: Chan 6 Note ON: D5, Velocity (0 - 127): 120
0    |  MIDI Event: Chan 7 Note ON: D5, Velocity (0 - 127): 120
0    |  MIDI Event: Chan 10 Note ON: B1, Velocity (0 - 127): 120
0    |  MIDI Event: Chan 10 Note ON: F#2, Velocity (0 - 127): 120
0    |  MIDI Event: Chan 12 Note ON: D5, Velocity (0 - 127): 120
29   |  MIDI Event: Chan 10 Note OFF: F#2, Velocity (0 - 127): 64
0    |  MIDI Event: Chan 5 Note OFF: A2, Velocity (0 - 127): 64
0    |  MIDI Event: Chan 1 Note OFF: F#4, Velocity (0 - 127): 64
0    |  MIDI Event: Chan 1 Note OFF: D4, Velocity (0 - 127): 64
0    |  MIDI Event: Chan 1 Note OFF: A3, Velocity (0 - 127): 64
0    |  MIDI Event: Chan 5 Note OFF: F#3, Velocity (0 - 127): 64
0    |  MIDI Event: Chan 10 Note OFF: B1, Velocity (0 - 127): 64
0    |  MIDI Event: Chan 5 Note OFF: D3, Velocity (0 - 127): 64
1    |  MIDI Event: Chan 1 Note ON: F#3, Velocity (0 - 127): 44
0    |  MIDI Event: Chan 1 Note ON: A3, Velocity (0 - 127): 78
0    |  MIDI Event: Chan 1 Note ON: D4, Velocity (0 - 127): 58
0    |  MIDI Event: Chan 5 Note ON: A2, Velocity (0 - 127): 85
0    |  MIDI Event: Chan 5 Note ON: D3, Velocity (0 - 127): 105
0    |  MIDI Event: Chan 5 Note ON: F#3, Velocity (0 - 127): 81
29   |  MIDI Event: Chan 5 Note OFF: F#3, Velocity (0 - 127): 64
0    |  MIDI Event: Chan 6 Note OFF: D4, Velocity (0 - 127): 64
0    |  MIDI Event: Chan 7 Note OFF: D5, Velocity (0 - 127): 64
0    |  MIDI Event: Chan 1 Note OFF: A3, Velocity (0 - 127): 64
0    |  MIDI Event: Chan 12 Note OFF: D5, Velocity (0 - 127): 64
0    |  MIDI Event: Chan 6 Note OFF: D5, Velocity (0 - 127): 64
0    |  MIDI Event: Chan 1 Note OFF: F#3, Velocity (0 - 127): 64
0    |  MIDI Event: Chan 5 Note OFF: D3, Velocity (0 - 127): 64
0    |  MIDI Event: Chan 5 Note OFF: A2, Velocity (0 - 127): 64
0    |  MIDI Event: Chan 1 Note OFF: D4, Velocity (0 - 127): 64
1    |  MIDI Event: Chan 1 Note ON: A3, Velocity (0 - 127): 57
0    |  MIDI Event: Chan 1 Note ON: D4, Velocity (0 - 127): 91
0    |  MIDI Event: Chan 1 Note ON: F#4, Velocity (0 - 127): 77
0    |  MIDI Event: Chan 2 Control/Mode Change: Expression Control (0-127): 127
0    |  MIDI Event: Chan 3 Control/Mode Change: Expression Control (0-127): 127
0    |  MIDI Event: Chan 5 Note ON: D3, Velocity (0 - 127): 109
0    |  MIDI Event: Chan 5 Note ON: F#3, Velocity (0 - 127): 89
0    |  MIDI Event: Chan 5 Note ON: A3, Velocity (0 - 127): 109
0    |  MIDI Event: Chan 10 Note ON: A#2, Velocity (0 - 127): 120
0    |  MIDI Event: Chan 10 Note ON: C#5, Velocity (0 - 127): 119
29   |  MIDI Event: Chan 10 Note OFF: C#5, Velocity (0 - 127): 64
0    |  MIDI Event: Chan 5 Note OFF: A3, Velocity (0 - 127): 64
0    |  MIDI Event: Chan 5 Note OFF: D3, Velocity (0 - 127): 64
0    |  MIDI Event: Chan 1 Note OFF: F#4, Velocity (0 - 127): 64
0    |  MIDI Event: Chan 5 Note OFF: F#3, Velocity (0 - 127): 64
0    |  MIDI Event: Chan 10 Note OFF: A#2, Velocity (0 - 127): 64
0    |  MIDI Event: Chan 1 Note OFF: A3, Velocity (0 - 127): 64
0    |  MIDI Event: Chan 1 Note OFF: D4, Velocity (0 - 127): 64
1    |  MIDI Event: Chan 1 Note ON: F#3, Velocity (0 - 127): 35
0    |  MIDI Event: Chan 1 Note ON: A3, Velocity (0 - 127): 79
0    |  MIDI Event: Chan 1 Note ON: D4, Velocity (0 - 127): 56
0    |  MIDI Event: Chan 5 Note ON: D3, Velocity (0 - 127): 111
0    |  MIDI Event: Chan 5 Note ON: F#3, Velocity (0 - 127): 100
0    |  MIDI Event: Chan 5 Note ON: A3, Velocity (0 - 127): 100
0    |  MIDI Event: Chan 6 Note ON: D4, Velocity (0 - 127): 89
0    |  MIDI Event: Chan 6 Note ON: D5, Velocity (0 - 127): 89
0    |  MIDI Event: Chan 7 Note ON: D5, Velocity (0 - 127): 120
0    |  MIDI Event: Chan 12 Note ON: D5, Velocity (0 - 127): 120
29   |  MIDI Event: Chan 12 Note OFF: D5, Velocity (0 - 127): 64
0    |  MIDI Event: Chan 1 Note OFF: F#3, Velocity (0 - 127): 64
0    |  MIDI Event: Chan 1 Note OFF: A3, Velocity (0 - 127): 64
0    |  MIDI Event: Chan 5 Note OFF: A3, Velocity (0 - 127): 64
0    |  MIDI Event: Chan 5 Note OFF: D3, Velocity (0 - 127): 64
0    |  MIDI Event: Chan 1 Note OFF: D4, Velocity (0 - 127): 64
0    |  MIDI Event: Chan 2 Note OFF: D2, Velocity (0 - 127): 64
0    |  MIDI Event: Chan 5 Note OFF: F#3, Velocity (0 - 127): 64
0    |  MIDI Event: Chan 6 Note OFF: D5, Velocity (0 - 127): 64
0    |  MIDI Event: Chan 6 Note OFF: D4, Velocity (0 - 127): 64
0    |  MIDI Event: Chan 7 Note OFF: D5, Velocity (0 - 127): 64
1    |  MIDI Event: Chan 1 Note ON: F#3, Velocity (0 - 127): 49
0    |  MIDI Event: Chan 1 Note ON: A3, Velocity (0 - 127): 85
0    |  MIDI Event: Chan 1 Note ON: D4, Velocity (0 - 127): 75
0    |  MIDI Event: Chan 2 Control/Mode Change: Expression Control (0-127): 64
0    |  MIDI Event: Chan 2 Note ON: D2, Velocity (0 - 127): 120
0    |  MIDI Event: Chan 3 Control/Mode Change: Expression Control (0-127): 71
0    |  MIDI Event: Chan 5 Note ON: A2, Velocity (0 - 127): 105
0    |  MIDI Event: Chan 5 Note ON: D3, Velocity (0 - 127): 116
0    |  MIDI Event: Chan 6 Note ON: E4, Velocity (0 - 127): 81
0    |  MIDI Event: Chan 6 Note ON: E5, Velocity (0 - 127): 81
0    |  MIDI Event: Chan 7 Note ON: E5, Velocity (0 - 127): 120
0    |  MIDI Event: Chan 10 Note ON: B1, Velocity (0 - 127): 120
0    |  MIDI Event: Chan 10 Note ON: F#2, Velocity (0 - 127): 120
0    |  MIDI Event: Chan 12 Note ON: E5, Velocity (0 - 127): 120
29   |  MIDI Event: Chan 12 Note OFF: E5, Velocity (0 - 127): 64
0    |  MIDI Event: Chan 7 Note OFF: E5, Velocity (0 - 127): 64
0    |  MIDI Event: Chan 6 Note OFF: E4, Velocity (0 - 127): 64
0    |  MIDI Event: Chan 10 Note OFF: F#2, Velocity (0 - 127): 64
0    |  MIDI Event: Chan 6 Note OFF: E5, Velocity (0 - 127): 64
0    |  MIDI Event: Chan 10 Note OFF: B1, Velocity (0 - 127): 64
1    |  MIDI Event: Chan 6 Note ON: D4, Velocity (0 - 127): 95
0    |  MIDI Event: Chan 6 Note ON: D5, Velocity (0 - 127): 95
0    |  MIDI Event: Chan 7 Note ON: D5, Velocity (0 - 127): 120
0    |  MIDI Event: Chan 12 Note ON: D5, Velocity (0 - 127): 120
29   |  MIDI Event: Chan 12 Note OFF: D5, Velocity (0 - 127): 64
0    |  MIDI Event: Chan 5 Note OFF: A2, Velocity (0 - 127): 64
0    |  MIDI Event: Chan 1 Note OFF: A3, Velocity (0 - 127): 64
0    |  MIDI Event: Chan 1 Note OFF: F#3, Velocity (0 - 127): 64
0    |  MIDI Event: Chan 5 Note OFF: D3, Velocity (0 - 127): 64
0    |  MIDI Event: Chan 6 Note OFF: D4, Velocity (0 - 127): 64
0    |  MIDI Event: Chan 1 Note OFF: D4, Velocity (0 - 127): 64
0    |  MIDI Event: Chan 7 Note OFF: D5, Velocity (0 - 127): 64
0    |  MIDI Event: Chan 6 Note OFF: D5, Velocity (0 - 127): 64
1    |  MIDI Event: Chan 1 Note ON: A3, Velocity (0 - 127): 56
0    |  MIDI Event: Chan 1 Note ON: D4, Velocity (0 - 127): 84
0    |  MIDI Event: Chan 1 Note ON: F#4, Velocity (0 - 127): 49
0    |  MIDI Event: Chan 2 Control/Mode Change: Expression Control (0-127): 127
0    |  MIDI Event: Chan 3 Control/Mode Change: Expression Control (0-127): 127
0    |  MIDI Event: Chan 5 Note ON: D3, Velocity (0 - 127): 105
0    |  MIDI Event: Chan 5 Note ON: F#3, Velocity (0 - 127): 115
0    |  MIDI Event: Chan 6 Note ON: E4, Velocity (0 - 127): 111
0    |  MIDI Event: Chan 6 Note ON: E5, Velocity (0 - 127): 111
0    |  MIDI Event: Chan 7 Note ON: E5, Velocity (0 - 127): 120
0    |  MIDI Event: Chan 10 Note ON: A#2, Velocity (0 - 127): 120
0    |  MIDI Event: Chan 10 Note ON: C#5, Velocity (0 - 127): 115
0    |  MIDI Event: Chan 12 Note ON: E5, Velocity (0 - 127): 120
29   |  MIDI Event: Chan 10 Note OFF: C#5, Velocity (0 - 127): 64
0    |  MIDI Event: Chan 5 Note OFF: D3, Velocity (0 - 127): 64
0    |  MIDI Event: Chan 1 Note OFF: A3, Velocity (0 - 127): 64
0    |  MIDI Event: Chan 1 Note OFF: F#4, Velocity (0 - 127): 64
0    |  MIDI Event: Chan 10 Note OFF: A#2, Velocity (0 - 127): 64
0    |  MIDI Event: Chan 1 Note OFF: D4, Velocity (0 - 127): 64
0    |  MIDI Event: Chan 5 Note OFF: F#3, Velocity (0 - 127): 64
1    |  MIDI Event: Chan 1 Note ON: A3, Velocity (0 - 127): 84
0    |  MIDI Event: Chan 1 Note ON: D4, Velocity (0 - 127): 94
0    |  MIDI Event: Chan 1 Note ON: F#4, Velocity (0 - 127): 76
0    |  MIDI Event: Chan 5 Note ON: D3, Velocity (0 - 127): 100
0    |  MIDI Event: Chan 5 Note ON: F#3, Velocity (0 - 127): 92
21   |  MIDI Event: Chan 6 Pitch Bend Change (0-16383): 7749 (factor==0.992841)
2    |  MIDI Event: Chan 6 Pitch Bend Change (0-16383): 6215 (factor==0.968447)
3    |  MIDI Event: Chan 6 Pitch Bend Change (0-16383): 4197 (factor==0.937266)
2    |  MIDI Event: Chan 6 Pitch Bend Change (0-16383): 2422 (factor==0.91067)
1    |  MIDI Event: Chan 5 Note OFF: F#3, Velocity (0 - 127): 64
0    |  MIDI Event: Chan 3 Note OFF: F#4, Velocity (0 - 127): 64
0    |  MIDI Event: Chan 3 Note OFF: D4, Velocity (0 - 127): 64
0    |  MIDI Event: Chan 2 Note OFF: D2, Velocity (0 - 127): 64
0    |  MIDI Event: Chan 6 Note OFF: E5, Velocity (0 - 127): 64
0    |  MIDI Event: Chan 12 Note OFF: E5, Velocity (0 - 127): 64
0    |  MIDI Event: Chan 3 Note OFF: A3, Velocity (0 - 127): 64
0    |  MIDI Event: Chan 6 Note OFF: E4, Velocity (0 - 127): 64
0    |  MIDI Event: Chan 1 Note OFF: F#4, Velocity (0 - 127): 64
0    |  MIDI Event: Chan 1 Note OFF: A3, Velocity (0 - 127): 64
0    |  MIDI Event: Chan 7 Note OFF: E5, Velocity (0 - 127): 64
0    |  MIDI Event: Chan 5 Note OFF: D3, Velocity (0 - 127): 64
0    |  MIDI Event: Chan 1 Note OFF: D4, Velocity (0 - 127): 64
1    |  MIDI Event: Chan 1 Note ON: E3, Velocity (0 - 127): 47
0    |  MIDI Event: Chan 1 Note ON: A3, Velocity (0 - 127): 89
0    |  MIDI Event: Chan 1 Note ON: C#4, Velocity (0 - 127): 52
0    |  MIDI Event: Chan 2 Control/Mode Change: Expression Control (0-127): 64
0    |  MIDI Event: Chan 2 Note ON: A1, Velocity (0 - 127): 120
0    |  MIDI Event: Chan 3 Control/Mode Change: Expression Control (0-127): 80
0    |  MIDI Event: Chan 3 Note ON: A3, Velocity (0 - 127): 120
0    |  MIDI Event: Chan 3 Note ON: C#4, Velocity (0 - 127): 120
0    |  MIDI Event: Chan 3 Note ON: E4, Velocity (0 - 127): 120
0    |  MIDI Event: Chan 5 Note ON: A2, Velocity (0 - 127): 101
0    |  MIDI Event: Chan 5 Note ON: E3, Velocity (0 - 127): 101
0    |  MIDI Event: Chan 6 Note ON: F#4, Velocity (0 - 127): 119
0    |  MIDI Event: Chan 6 Note ON: F#5, Velocity (0 - 127): 119
0    |  MIDI Event: Chan 7 Note ON: F#5, Velocity (0 - 127): 120
0    |  MIDI Event: Chan 10 Note ON: B1, Velocity (0 - 127): 120
0    |  MIDI Event: Chan 10 Note ON: F#2, Velocity (0 - 127): 120
0    |  MIDI Event: Chan 12 Note ON: F#5, Velocity (0 - 127): 120
1    |  MIDI Event: Chan 6 Pitch Bend Change (0-16383): 1211 (factor==0.89296)
2    |  MIDI Event: Chan 6 Pitch Bend Change (0-16383): 646 (factor==0.884815)
3    |  MIDI Event: Chan 6 Pitch Bend Change (0-16383): 565 (factor==0.883653)
2    |  MIDI Event: Chan 6 Pitch Bend Change (0-16383): 646 (factor==0.884815)
3    |  MIDI Event: Chan 6 Pitch Bend Change (0-16383): 1373 (factor==0.895309)
2    |  MIDI Event: Chan 6 Pitch Bend Change (0-16383): 2260 (factor==0.908281)
3    |  MIDI Event: Chan 6 Pitch Bend Change (0-16383): 3471 (factor==0.926295)
2    |  MIDI Event: Chan 6 Pitch Bend Change (0-16383): 5085 (factor==0.950861)
3    |  MIDI Event: Chan 6 Pitch Bend Change (0-16383): 6942 (factor==0.979932)
2    |  MIDI Event: Chan 6 Pitch Bend Change (0-16383): 8071 (factor==0.99804)
3    |  MIDI Event: Chan 6 Pitch Bend Change (0-16383): 8192 (factor==1)
3    |  MIDI Event: Chan 10 Note OFF: F#2, Velocity (0 - 127): 64
0    |  MIDI Event: Chan 10 Note OFF: B1, Velocity (0 - 127): 64
30   |  MIDI Event: Chan 6 Note OFF: F#4, Velocity (0 - 127): 64
0    |  MIDI Event: Chan 1 Note OFF: A3, Velocity (0 - 127): 64
0    |  MIDI Event: Chan 1 Note OFF: C#4, Velocity (0 - 127): 64
0    |  MIDI Event: Chan 5 Note OFF: A2, Velocity (0 - 127): 64
0    |  MIDI Event: Chan 1 Note OFF: E3, Velocity (0 - 127): 64
0    |  MIDI Event: Chan 5 Note OFF: E3, Velocity (0 - 127): 64
0    |  MIDI Event: Chan 7 Note OFF: F#5, Velocity (0 - 127): 64
0    |  MIDI Event: Chan 12 Note OFF: F#5, Velocity (0 - 127): 64
0    |  MIDI Event: Chan 6 Note OFF: F#5, Velocity (0 - 127): 64
1    |  MIDI Event: Chan 1 Note ON: A3, Velocity (0 - 127): 51
0    |  MIDI Event: Chan 1 Note ON: C#4, Velocity (0 - 127): 52
0    |  MIDI Event: Chan 1 Note ON: E4, Velocity (0 - 127): 78
0    |  MIDI Event: Chan 2 Control/Mode Change: Expression Control (0-127): 127
0    |  MIDI Event: Chan 3 Control/Mode Change: Expression Control (0-127): 127
0    |  MIDI Event: Chan 5 Note ON: C#3, Velocity (0 - 127): 89
0    |  MIDI Event: Chan 5 Note ON: E3, Velocity (0 - 127): 101
0    |  MIDI Event: Chan 5 Note ON: A3, Velocity (0 - 127): 89
0    |  MIDI Event: Chan 6 Note ON: D4, Velocity (0 - 127): 98
0    |  MIDI Event: Chan 6 Note ON: D5, Velocity (0 - 127): 98
0    |  MIDI Event: Chan 7 Note ON: D5, Velocity (0 - 127): 120
0    |  MIDI Event: Chan 10 Note ON: A#2, Velocity (0 - 127): 120
0    |  MIDI Event: Chan 10 Note ON: C#5, Velocity (0 - 127): 111
0    |  MIDI Event: Chan 12 Note ON: D5, Velocity (0 - 127): 120
29   |  MIDI Event: Chan 10 Note OFF: C#5, Velocity (0 - 127): 64
0    |  MIDI Event: Chan 5 Note OFF: E3, Velocity (0 - 127): 64
0    |  MIDI Event: Chan 1 Note OFF: C#4, Velocity (0 - 127): 64
0    |  MIDI Event: Chan 1 Note OFF: A3, Velocity (0 - 127): 64
0    |  MIDI Event: Chan 1 Note OFF: E4, Velocity (0 - 127): 64
0    |  MIDI Event: Chan 5 Note OFF: C#3, Velocity (0 - 127): 64
0    |  MIDI Event: Chan 10 Note OFF: A#2, Velocity (0 - 127): 64
0    |  MIDI Event: Chan 5 Note OFF: A3, Velocity (0 - 127): 64
1    |  MIDI Event: Chan 1 Note ON: A3, Velocity (0 - 127): 73
0    |  MIDI Event: Chan 1 Note ON: C#4, Velocity (0 - 127): 52
0    |  MIDI Event: Chan 1 Note ON: E4, Velocity (0 - 127): 83
0    |  MIDI Event: Chan 5 Note ON: C#3, Velocity (0 - 127): 119
0    |  MIDI Event: Chan 5 Note ON: E3, Velocity (0 - 127): 118
0    |  MIDI Event: Chan 5 Note ON: A3, Velocity (0 - 127): 105
29   |  MIDI Event: Chan 5 Note OFF: A3, Velocity (0 - 127): 64
0    |  MIDI Event: Chan 6 Note OFF: D4, Velocity (0 - 127): 64
0    |  MIDI Event: Chan 3 Note OFF: E4, Velocity (0 - 127): 64
0    |  MIDI Event: Chan 7 Note OFF: D5, Velocity (0 - 127): 64
0    |  MIDI Event: Chan 3 Note OFF: A3, Velocity (0 - 127): 64
0    |  MIDI Event: Chan 6 Note OFF: D5, Velocity (0 - 127): 64
0    |  MIDI Event: Chan 3 Note OFF: C#4, Velocity (0 - 127): 64
0    |  MIDI Event: Chan 12 Note OFF: D5, Velocity (0 - 127): 64
0    |  MIDI Event: Chan 5 Note OFF: C#3, Velocity (0 - 127): 64
0    |  MIDI Event: Chan 1 Note OFF: E4, Velocity (0 - 127): 64
0    |  MIDI Event: Chan 1 Note OFF: A3, Velocity (0 - 127): 64
0    |  MIDI Event: Chan 2 Note OFF: A1, Velocity (0 - 127): 64
0    |  MIDI Event: Chan 5 Note OFF: E3, Velocity (0 - 127): 64
0    |  MIDI Event: Chan 1 Note OFF: C#4, Velocity (0 - 127): 64
1    |  MIDI Event: Chan 1 Note ON: B3, Velocity (0 - 127): 58
0    |  MIDI Event: Chan 1 Note ON: D4, Velocity (0 - 127): 91
0    |  MIDI Event: Chan 2 Control/Mode Change: Expression Control (0-127): 64
0    |  MIDI Event: Chan 2 Note ON: B1, Velocity (0 - 127): 120
0    |  MIDI Event: Chan 3 Control/Mode Change: Expression Control (0-127): 64
0    |  MIDI Event: Chan 3 Note ON: B3, Velocity (0 - 127): 120
0    |  MIDI Event: Chan 3 Note ON: D4, Velocity (0 - 127): 120
0    |  MIDI Event: Chan 3 Note ON: F#4, Velocity (0 - 127): 120
0    |  MIDI Event: Chan 5 Note ON: B2, Velocity (0 - 127): 85
0    |  MIDI Event: Chan 5 Note ON: F#3, Velocity (0 - 127): 120
0    |  MIDI Event: Chan 6 Note ON: B3, Velocity (0 - 127): 105
0    |  MIDI Event: Chan 6 Note ON: B4, Velocity (0 - 127): 105
0    |  MIDI Event: Chan 7 Note ON: B4, Velocity (0 - 127): 120
0    |  MIDI Event: Chan 10 Note ON: B1, Velocity (0 - 127): 120
0    |  MIDI Event: Chan 10 Note ON: F#2, Velocity (0 - 127): 120
0    |  MIDI Event: Chan 12 Note ON: B4, Velocity (0 - 127): 120
29   |  MIDI Event: Chan 10 Note OFF: F#2, Velocity (0 - 127): 64
0    |  MIDI Event: Chan 10 Note OFF: B1, Velocity (0 - 127): 64
30   |  MIDI Event: Chan 6 Note OFF: B4, Velocity (0 - 127): 64
0    |  MIDI Event: Chan 5 Note OFF: B2, Velocity (0 - 127): 64
0    |  MIDI Event: Chan 5 Note OFF: F#3, Velocity (0 - 127): 64
0    |  MIDI Event: Chan 1 Note OFF: B3, Velocity (0 - 127): 64
0    |  MIDI Event: Chan 6 Note OFF: B3, Velocity (0 - 127): 64
0    |  MIDI Event: Chan 7 Note OFF: B4, Velocity (0 - 127): 64
0    |  MIDI Event: Chan 12 Note OFF: B4, Velocity (0 - 127): 64
0    |  MIDI Event: Chan 1 Note OFF: D4, Velocity (0 - 127): 64
1    |  MIDI Event: Chan 1 Note ON: B3, Velocity (0 - 127): 79
0    |  MIDI Event: Chan 1 Note ON: D4, Velocity (0 - 127): 95
0    |  MIDI Event: Chan 1 Note ON: F#4, Velocity (0 - 127): 74
0    |  MIDI Event: Chan 2 Control/Mode Change: Expression Control (0-127): 127
0    |  MIDI Event: Chan 3 Control/Mode Change: Expression Control (0-127): 127
0    |  MIDI Event: Chan 5 Note ON: D3, Velocity (0 - 127): 92
0    |  MIDI Event: Chan 5 Note ON: F#3, Velocity (0 - 127): 87
0    |  MIDI Event: Chan 5 Note ON: D4, Velocity (0 - 127): 95
0    |  MIDI Event: Chan 10 Note ON: A#2, Velocity (0 - 127): 120
0    |  MIDI Event: Chan 10 Note ON: C#5, Velocity (0 - 127): 109
29   |  MIDI Event: Chan 10 Note OFF: C#5, Velocity (0 - 127): 64
0    |  MIDI Event: Chan 10 Note OFF: A#2, Velocity (0 - 127): 64
30   |  MIDI Event: Chan 2 Note OFF: B1, Velocity (0 - 127): 64
1    |  MIDI Event: Chan 2 Control/Mode Change: Expression Control (0-127): 64
0    |  MIDI Event: Chan 2 Note ON: B1, Velocity (0 - 127): 120
0    |  MIDI Event: Chan 3 Control/Mode Change: Expression Control (0-127): 73
0    |  MIDI Event: Chan 6 Note ON: B3, Velocity (0 - 127): 119
0    |  MIDI Event: Chan 6 Note ON: B4, Velocity (0 - 127): 119
0    |  MIDI Event: Chan 7 Note ON: B4, Velocity (0 - 127): 120
0    |  MIDI Event: Chan 10 Note ON: B1, Velocity (0 - 127): 120
0    |  MIDI Event: Chan 10 Note ON: F#2, Velocity (0 - 127): 120
0    |  MIDI Event: Chan 12 Note ON: B4, Velocity (0 - 127): 120
29   |  MIDI Event: Chan 10 Note OFF: F#2, Velocity (0 - 127): 64
0    |  MIDI Event: Chan 5 Note OFF: D3, Velocity (0 - 127): 64
0    |  MIDI Event: Chan 1 Note OFF: F#4, Velocity (0 - 127): 64
0    |  MIDI Event: Chan 1 Note OFF: D4, Velocity (0 - 127): 64
0    |  MIDI Event: Chan 1 Note OFF: B3, Velocity (0 - 127): 64
0    |  MIDI Event: Chan 5 Note OFF: D4, Velocity (0 - 127): 64
0    |  MIDI Event: Chan 10 Note OFF: B1, Velocity (0 - 127): 64
0    |  MIDI Event: Chan 5 Note OFF: F#3, Velocity (0 - 127): 64
1    |  MIDI Event: Chan 1 Note ON: B3, Velocity (0 - 127): 71
0    |  MIDI Event: Chan 1 Note ON: D4, Velocity (0 - 127): 91
0    |  MIDI Event: Chan 1 Note ON: F#4, Velocity (0 - 127): 60
0    |  MIDI Event: Chan 5 Note ON: F#3, Velocity (0 - 127): 109
0    |  MIDI Event: Chan 5 Note ON: B3, Velocity (0 - 127): 95
29   |  MIDI Event: Chan 5 Note OFF: B3, Velocity (0 - 127): 64
0    |  MIDI Event: Chan 7 Note OFF: B4, Velocity (0 - 127): 64
0    |  MIDI Event: Chan 1 Note OFF: D4, Velocity (0 - 127): 64
0    |  MIDI Event: Chan 12 Note OFF: B4, Velocity (0 - 127): 64
0    |  MIDI Event: Chan 6 Note OFF: B4, Velocity (0 - 127): 64
0    |  MIDI Event: Chan 1 Note OFF: B3, Velocity (0 - 127): 64
0    |  MIDI Event: Chan 5 Note OFF: F#3, Velocity (0 - 127): 64
0    |  MIDI Event: Chan 6 Note OFF: B3, Velocity (0 - 127): 64
0    |  MIDI Event: Chan 1 Note OFF: F#4, Velocity (0 - 127): 64
1    |  MIDI Event: Chan 1 Note ON: D4, Velocity (0 - 127): 80
0    |  MIDI Event: Chan 1 Note ON: F#4, Velocity (0 - 127): 62
0    |  MIDI Event: Chan 1 Note ON: B4, Velocity (0 - 127): 91
0    |  MIDI Event: Chan 2 Control/Mode Change: Expression Control (0-127): 127
0    |  MIDI Event: Chan 3 Control/Mode Change: Expression Control (0-127): 127
0    |  MIDI Event: Chan 5 Note ON: D3, Velocity (0 - 127): 103
0    |  MIDI Event: Chan 5 Note ON: F#3, Velocity (0 - 127): 115
0    |  MIDI Event: Chan 10 Note ON: A#2, Velocity (0 - 127): 120
0    |  MIDI Event: Chan 10 Note ON: C#5, Velocity (0 - 127): 119
29   |  MIDI Event: Chan 10 Note OFF: C#5, Velocity (0 - 127): 64
0    |  MIDI Event: Chan 5 Note OFF: D3, Velocity (0 - 127): 64
0    |  MIDI Event: Chan 10 Note OFF: A#2, Velocity (0 - 127): 64
0    |  MIDI Event: Chan 1 Note OFF: B4, Velocity (0 - 127): 64
0    |  MIDI Event: Chan 5 Note OFF: F#3, Velocity (0 - 127): 64
0    |  MIDI Event: Chan 1 Note OFF: D4, Velocity (0 - 127): 64
0    |  MIDI Event: Chan 1 Note OFF: F#4, Velocity (0 - 127): 64
1    |  MIDI Event: Chan 1 Note ON: B3, Velocity (0 - 127): 51
0    |  MIDI Event: Chan 1 Note ON: D4, Velocity (0 - 127): 85
0    |  MIDI Event: Chan 1 Note ON: F#4, Velocity (0 - 127): 59
0    |  MIDI Event: Chan 5 Note ON: B2, Velocity (0 - 127): 92
0    |  MIDI Event: Chan 5 Note ON: E3, Velocity (0 - 127): 98
0    |  MIDI Event: Chan 6 Note ON: A3, Velocity (0 - 127): 91
0    |  MIDI Event: Chan 6 Note ON: A4, Velocity (0 - 127): 91
0    |  MIDI Event: Chan 7 Note ON: A4, Velocity (0 - 127): 120
0    |  MIDI Event: Chan 12 Note ON: A4, Velocity (0 - 127): 120
29   |  MIDI Event: Chan 12 Note OFF: A4, Velocity (0 - 127): 64
0    |  MIDI Event: Chan 1 Note OFF: D4, Velocity (0 - 127): 64
0    |  MIDI Event: Chan 3 Note OFF: F#4, Velocity (0 - 127): 64
0    |  MIDI Event: Chan 5 Note OFF: B2, Velocity (0 - 127): 64
0    |  MIDI Event: Chan 2 Note OFF: B1, Velocity (0 - 127): 64
0    |  MIDI Event: Chan 3 Note OFF: D4, Velocity (0 - 127): 64
0    |  MIDI Event: Chan 3 Note OFF: B3, Velocity (0 - 127): 64
0    |  MIDI Event: Chan 1 Note OFF: B3, Velocity (0 - 127): 64
0    |  MIDI Event: Chan 6 Note OFF: A4, Velocity (0 - 127): 64
0    |  MIDI Event: Chan 5 Note OFF: E3, Velocity (0 - 127): 64
0    |  MIDI Event: Chan 1 Note OFF: F#4, Velocity (0 - 127): 64
0    |  MIDI Event: Chan 7 Note OFF: A4, Velocity (0 - 127): 64
0    |  MIDI Event: Chan 6 Note OFF: A3, Velocity (0 - 127): 64
1    |  MIDI Event: Chan 1 Note ON: G3, Velocity (0 - 127): 74
0    |  MIDI Event: Chan 1 Note ON: B3, Velocity (0 - 127): 94
0    |  MIDI Event: Chan 1 Note ON: D4, Velocity (0 - 127): 91
0    |  MIDI Event: Chan 2 Control/Mode Change: Expression Control (0-127): 64
0    |  MIDI Event: Chan 2 Note ON: G1, Velocity (0 - 127): 120
0    |  MIDI Event: Chan 3 Control/Mode Change: Expression Control (0-127): 71
0    |  MIDI Event: Chan 3 Note ON: B3, Velocity (0 - 127): 120
0    |  MIDI Event: Chan 3 Note ON: D4, Velocity (0 - 127): 120
0    |  MIDI Event: Chan 3 Note ON: G4, Velocity (0 - 127): 120
0    |  MIDI Event: Chan 5 Note ON: G2, Velocity (0 - 127): 98
0    |  MIDI Event: Chan 5 Note ON: D3, Velocity (0 - 127): 116
0    |  MIDI Event: Chan 6 Note ON: B3, Velocity (0 - 127): 97
0    |  MIDI Event: Chan 6 Note ON: B4, Velocity (0 - 127): 97
0    |  MIDI Event: Chan 7 Note ON: B4, Velocity (0 - 127): 120
0    |  MIDI Event: Chan 10 Note ON: B1, Velocity (0 - 127): 120
0    |  MIDI Event: Chan 10 Note ON: F#2, Velocity (0 - 127): 120
0    |  MIDI Event: Chan 12 Note ON: B4, Velocity (0 - 127): 120
29   |  MIDI Event: Chan 12 Note OFF: B4, Velocity (0 - 127): 64
0    |  MIDI Event: Chan 7 Note OFF: B4, Velocity (0 - 127): 64
0    |  MIDI Event: Chan 6 Note OFF: B3, Velocity (0 - 127): 64
0    |  MIDI Event: Chan 10 Note OFF: F#2, Velocity (0 - 127): 64
0    |  MIDI Event: Chan 6 Note OFF: B4, Velocity (0 - 127): 64
0    |  MIDI Event: Chan 10 Note OFF: B1, Velocity (0 - 127): 64
1    |  MIDI Event: Chan 6 Note ON: D4, Velocity (0 - 127): 80
0    |  MIDI Event: Chan 6 Note ON: D5, Velocity (0 - 127): 80
0    |  MIDI Event: Chan 7 Note ON: D5, Velocity (0 - 127): 120
0    |  MIDI Event: Chan 12 Note ON: D5, Velocity (0 - 127): 120
29   |  MIDI Event: Chan 12 Note OFF: D5, Velocity (0 - 127): 64
0    |  MIDI Event: Chan 5 Note OFF: G2, Velocity (0 - 127): 64
0    |  MIDI Event: Chan 1 Note OFF: B3, Velocity (0 - 127): 64
0    |  MIDI Event: Chan 1 Note OFF: G3, Velocity (0 - 127): 64
0    |  MIDI Event: Chan 5 Note OFF: D3, Velocity (0 - 127): 64
0    |  MIDI Event: Chan 6 Note OFF: D4, Velocity (0 - 127): 64
0    |  MIDI Event: Chan 1 Note OFF: D4, Velocity (0 - 127): 64
0    |  MIDI Event: Chan 7 Note OFF: D5, Velocity (0 - 127): 64
0    |  MIDI Event: Chan 6 Note OFF: D5, Velocity (0 - 127): 64
1    |  MIDI Event: Chan 1 Note ON: B3, Velocity (0 - 127): 70
0    |  MIDI Event: Chan 1 Note ON: D4, Velocity (0 - 127): 94
0    |  MIDI Event: Chan 1 Note ON: G4, Velocity (0 - 127): 101
0    |  MIDI Event: Chan 2 Control/Mode Change: Expression Control (0-127): 127
0    |  MIDI Event: Chan 3 Control/Mode Change: Expression Control (0-127): 127
0    |  MIDI Event: Chan 5 Note ON: D3, Velocity (0 - 127): 79
0    |  MIDI Event: Chan 5 Note ON: G3, Velocity (0 - 127): 111
0    |  MIDI Event: Chan 5 Note ON: B3, Velocity (0 - 127): 100
0    |  MIDI Event: Chan 6 Note ON: B3, Velocity (0 - 127): 113
0    |  MIDI Event: Chan 6 Note ON: B4, Velocity (0 - 127): 113
0    |  MIDI Event: Chan 7 Note ON: B4, Velocity (0 - 127): 120
0    |  MIDI Event: Chan 10 Note ON: A#2, Velocity (0 - 127): 120
0    |  MIDI Event: Chan 10 Note ON: C#5, Velocity (0 - 127): 119
0    |  MIDI Event: Chan 12 Note ON: B4, Velocity (0 - 127): 120
29   |  MIDI Event: Chan 10 Note OFF: C#5, Velocity (0 - 127): 64
0    |  MIDI Event: Chan 10 Note OFF: A#2, Velocity (0 - 127): 64
30   |  MIDI Event: Chan 6 Note OFF: B4, Velocity (0 - 127): 64
0    |  MIDI Event: Chan 12 Note OFF: B4, Velocity (0 - 127): 64
0    |  MIDI Event: Chan 2 Note OFF: G1, Velocity (0 - 127): 64
0    |  MIDI Event: Chan 6 Note OFF: B3, Velocity (0 - 127): 64
0    |  MIDI Event: Chan 7 Note OFF: B4, Velocity (0 - 127): 64
1    |  MIDI Event: Chan 2 Control/Mode Change: Expression Control (0-127): 64
0    |  MIDI Event: Chan 2 Note ON: G1, Velocity (0 - 127): 120
0    |  MIDI Event: Chan 3 Control/Mode Change: Expression Control (0-127): 80
0    |  MIDI Event: Chan 10 Note ON: B1, Velocity (0 - 127): 120
0    |  MIDI Event: Chan 10 Note ON: F#2, Velocity (0 - 127): 120
29   |  MIDI Event: Chan 10 Note OFF: F#2, Velocity (0 - 127): 64
0    |  MIDI Event: Chan 1 Note OFF: G4, Velocity (0 - 127): 64
0    |  MIDI Event: Chan 5 Note OFF: B3, Velocity (0 - 127): 64
0    |  MIDI Event: Chan 1 Note OFF: D4, Velocity (0 - 127): 64
0    |  MIDI Event: Chan 1 Note OFF: B3, Velocity (0 - 127): 64
0    |  MIDI Event: Chan 5 Note OFF: D3, Velocity (0 - 127): 64
0    |  MIDI Event: Chan 10 Note OFF: B1, Velocity (0 - 127): 64
0    |  MIDI Event: Chan 5 Note OFF: G3, Velocity (0 - 127): 64
1    |  MIDI Event: Chan 1 Note ON: B3, Velocity (0 - 127): 52
0    |  MIDI Event: Chan 1 Note ON: D4, Velocity (0 - 127): 85
0    |  MIDI Event: Chan 1 Note ON: G4, Velocity (0 - 127): 94
0    |  MIDI Event: Chan 5 Note ON: D3, Velocity (0 - 127): 82
0    |  MIDI Event: Chan 5 Note ON: G3, Velocity (0 - 127): 98
0    |  MIDI Event: Chan 5 Note ON: B3, Velocity (0 - 127): 85
0    |  MIDI Event: Chan 6 Note ON: A3, Velocity (0 - 127): 98
0    |  MIDI Event: Chan 6 Note ON: A4, Velocity (0 - 127): 98
0    |  MIDI Event: Chan 7 Note ON: A4, Velocity (0 - 127): 120
0    |  MIDI Event: Chan 12 Note ON: A4, Velocity (0 - 127): 120
29   |  MIDI Event: Chan 12 Note OFF: A4, Velocity (0 - 127): 64
0    |  MIDI Event: Chan 1 Note OFF: B3, Velocity (0 - 127): 64
0    |  MIDI Event: Chan 1 Note OFF: D4, Velocity (0 - 127): 64
0    |  MIDI Event: Chan 5 Note OFF: B3, Velocity (0 - 127): 64
0    |  MIDI Event: Chan 5 Note OFF: D3, Velocity (0 - 127): 64
0    |  MIDI Event: Chan 1 Note OFF: G4, Velocity (0 - 127): 64
0    |  MIDI Event: Chan 5 Note OFF: G3, Velocity (0 - 127): 64
0    |  MIDI Event: Chan 7 Note OFF: A4, Velocity (0 - 127): 64
0    |  MIDI Event: Chan 6 Note OFF: A4, Velocity (0 - 127): 64
0    |  MIDI Event: Chan 6 Note OFF: A3, Velocity (0 - 127): 64
1    |  MIDI Event: Chan 1 Note ON: D4, Velocity (0 - 127): 78
0    |  MIDI Event: Chan 1 Note ON: G4, Velocity (0 - 127): 100
0    |  MIDI Event: Chan 1 Note ON: B4, Velocity (0 - 127): 46
0    |  MIDI Event: Chan 2 Control/Mode Change: Expression Control (0-127): 127
0    |  MIDI Event: Chan 3 Control/Mode Change: Expression Control (0-127): 127
0    |  MIDI Event: Chan 5 Note ON: G2, Velocity (0 - 127): 109
0    |  MIDI Event: Chan 5 Note ON: D3, Velocity (0 - 127): 109
0    |  MIDI Event: Chan 6 Note ON: B3, Velocity (0 - 127): 101
0    |  MIDI Event: Chan 6 Note ON: B4, Velocity (0 - 127): 101
0    |  MIDI Event: Chan 7 Note ON: B4, Velocity (0 - 127): 120
0    |  MIDI Event: Chan 10 Note ON: A#2, Velocity (0 - 127): 120
0    |  MIDI Event: Chan 10 Note ON: C#5, Velocity (0 - 127): 115
0    |  MIDI Event: Chan 12 Note ON: B4, Velocity (0 - 127): 120
29   |  MIDI Event: Chan 12 Note OFF: B4, Velocity (0 - 127): 64
0    |  MIDI Event: Chan 7 Note OFF: B4, Velocity (0 - 127): 64
0    |  MIDI Event: Chan 1 Note OFF: D4, Velocity (0 - 127): 64
0    |  MIDI Event: Chan 1 Note OFF: G4, Velocity (0 - 127): 64
0    |  MIDI Event: Chan 6 Note OFF: B3, Velocity (0 - 127): 64
0    |  MIDI Event: Chan 5 Note OFF: G2, Velocity (0 - 127): 64
0    |  MIDI Event: Chan 1 Note OFF: B4, Velocity (0 - 127): 64
0    |  MIDI Event: Chan 5 Note OFF: D3, Velocity (0 - 127): 64
0    |  MIDI Event: Chan 10 Note OFF: C#5, Velocity (0 - 127): 64
0    |  MIDI Event: Chan 10 Note OFF: A#2, Velocity (0 - 127): 64
0    |  MIDI Event: Chan 6 Note OFF: B4, Velocity (0 - 127): 64
1    |  MIDI Event: Chan 1 Note ON: B3, Velocity (0 - 127): 45
0    |  MIDI Event: Chan 1 Note ON: D4, Velocity (0 - 127): 73
0    |  MIDI Event: Chan 1 Note ON: G4, Velocity (0 - 127): 86
0    |  MIDI Event: Chan 5 Note ON: G2, Velocity (0 - 127): 101
0    |  MIDI Event: Chan 5 Note ON: E3, Velocity (0 - 127): 116
0    |  MIDI Event: Chan 6 Note ON: A3, Velocity (0 - 127): 91
0    |  MIDI Event: Chan 6 Note ON: A4, Velocity (0 - 127): 91
0    |  MIDI Event: Chan 7 Note ON: A4, Velocity (0 - 127): 120
0    |  MIDI Event: Chan 12 Note ON: A4, Velocity (0 - 127): 120
29   |  MIDI Event: Chan 12 Note OFF: A4, Velocity (0 - 127): 64
0    |  MIDI Event: Chan 1 Note OFF: D4, Velocity (0 - 127): 64
0    |  MIDI Event: Chan 3 Note OFF: D4, Velocity (0 - 127): 64
0    |  MIDI Event: Chan 5 Note OFF: G2, Velocity (0 - 127): 64
0    |  MIDI Event: Chan 3 Note OFF: B3, Velocity (0 - 127): 64
0    |  MIDI Event: Chan 3 Note OFF: G4, Velocity (0 - 127): 64
0    |  MIDI Event: Chan 2 Note OFF: G1, Velocity (0 - 127): 64
0    |  MIDI Event: Chan 1 Note OFF: B3, Velocity (0 - 127): 64
0    |  MIDI Event: Chan 6 Note OFF: A4, Velocity (0 - 127): 64
0    |  MIDI Event: Chan 5 Note OFF: E3, Velocity (0 - 127): 64
0    |  MIDI Event: Chan 1 Note OFF: G4, Velocity (0 - 127): 64
0    |  MIDI Event: Chan 7 Note OFF: A4, Velocity (0 - 127): 64
0    |  MIDI Event: Chan 6 Note OFF: A3, Velocity (0 - 127): 64
1    |  MIDI Event: Chan 1 Note ON: F#3, Velocity (0 - 127): 35
0    |  MIDI Event: Chan 1 Note ON: A3, Velocity (0 - 127): 85
0    |  MIDI Event: Chan 1 Note ON: D4, Velocity (0 - 127): 79
0    |  MIDI Event: Chan 2 Control/Mode Change: Expression Control (0-127): 64
0    |  MIDI Event: Chan 3 Control/Mode Change: Sound Controller 5 (default: Brightness) (0-127): 65
0    |  MIDI Event: Chan 3 Control/Mode Change: Expression Control (0-127): 64
0    |  MIDI Event: Chan 3 Note ON: A3, Velocity (0 - 127): 120
0    |  MIDI Event: Chan 3 Note ON: D4, Velocity (0 - 127): 120
0    |  MIDI Event: Chan 3 Note ON: F#4, Velocity (0 - 127): 120
0    |  MIDI Event: Chan 5 Note ON: A2, Velocity (0 - 127): 90
0    |  MIDI Event: Chan 5 Note ON: D3, Velocity (0 - 127): 105
0    |  MIDI Event: Chan 6 Note ON: D4, Velocity (0 - 127): 105
0    |  MIDI Event: Chan 6 Note ON: D5, Velocity (0 - 127): 105
0    |  MIDI Event: Chan 7 Note ON: D5, Velocity (0 - 127): 120
0    |  MIDI Event: Chan 9 Note ON: D3, Velocity (0 - 127): 120
0    |  MIDI Event: Chan 9 Note ON: D4, Velocity (0 - 127): 120
0    |  MIDI Event: Chan 10 Note ON: F#2, Velocity (0 - 127): 120
0    |  MIDI Event: Chan 12 Note ON: D5, Velocity (0 - 127): 120
29   |  MIDI Event: Chan 10 Note OFF: F#2, Velocity (0 - 127): 64
1    |  MIDI Event: Chan 3 Control/Mode Change: Sound Controller 5 (default: Brightness) (0-127): 70
15   |  MIDI Event: Chan 3 Control/Mode Change: Sound Controller 5 (default: Brightness) (0-127): 74
14   |  MIDI Event: Chan 1 Note OFF: D4, Velocity (0 - 127): 64
0    |  MIDI Event: Chan 1 Note OFF: A3, Velocity (0 - 127): 64
0    |  MIDI Event: Chan 6 Note OFF: D5, Velocity (0 - 127): 64
0    |  MIDI Event: Chan 5 Note OFF: A2, Velocity (0 - 127): 64
0    |  MIDI Event: Chan 5 Note OFF: D3, Velocity (0 - 127): 64
0    |  MIDI Event: Chan 1 Note OFF: F#3, Velocity (0 - 127): 64
0    |  MIDI Event: Chan 6 Note OFF: D4, Velocity (0 - 127): 64
0    |  MIDI Event: Chan 12 Note OFF: D5, Velocity (0 - 127): 64
0    |  MIDI Event: Chan 7 Note OFF: D5, Velocity (0 - 127): 64
1    |  MIDI Event: Chan 1 Note ON: A3, Velocity (0 - 127): 69
0    |  MIDI Event: Chan 1 Note ON: D4, Velocity (0 - 127): 98
0    |  MIDI Event: Chan 1 Note ON: F#4, Velocity (0 - 127): 74
0    |  MIDI Event: Chan 2 Control/Mode Change: Expression Control (0-127): 127
0    |  MIDI Event: Chan 3 Control/Mode Change: Sound Controller 5 (default: Brightness) (0-127): 78
0    |  MIDI Event: Chan 3 Control/Mode Change: Expression Control (0-127): 127
0    |  MIDI Event: Chan 5 Note ON: A2, Velocity (0 - 127): 100
0    |  MIDI Event: Chan 5 Note ON: D3, Velocity (0 - 127): 111
0    |  MIDI Event: Chan 5 Note ON: F#3, Velocity (0 - 127): 89
0    |  MIDI Event: Chan 10 Note ON: A#2, Velocity (0 - 127): 120
0    |  MIDI Event: Chan 10 Note ON: C#5, Velocity (0 - 127): 119
15   |  MIDI Event: Chan 3 Control/Mode Change: Sound Controller 5 (default: Brightness) (0-127): 83
14   |  MIDI Event: Chan 10 Note OFF: C#5, Velocity (0 - 127): 64
0    |  MIDI Event: Chan 10 Note OFF: A#2, Velocity (0 - 127): 64
1    |  MIDI Event: Chan 3 Control/Mode Change: Sound Controller 5 (default: Brightness) (0-127): 87
15   |  MIDI Event: Chan 3 Control/Mode Change: Sound Controller 5 (default: Brightness) (0-127): 91
0    |  MIDI Event: Chan 13 Control/Mode Change: Expression Control (0-127): 95
15   |  MIDI Event: Chan 2 Control/Mode Change: Expression Control (0-127): 64
0    |  MIDI Event: Chan 3 Control/Mode Change: Sound Controller 5 (default: Brightness) (0-127): 96
0    |  MIDI Event: Chan 3 Control/Mode Change: Expression Control (0-127): 73
0    |  MIDI Event: Chan 6 Note ON: D4, Velocity (0 - 127): 119
0    |  MIDI Event: Chan 6 Note ON: D5, Velocity (0 - 127): 119
0    |  MIDI Event: Chan 7 Note ON: D5, Velocity (0 - 127): 120
0    |  MIDI Event: Chan 10 Note ON: F#2, Velocity (0 - 127): 120
0    |  MIDI Event: Chan 12 Note ON: D5, Velocity (0 - 127): 120
0    |  MIDI Event: Chan 13 Note ON: C5, Velocity (0 - 127): 120
15   |  MIDI Event: Chan 3 Control/Mode Change: Sound Controller 5 (default: Brightness) (0-127): 100
0    |  MIDI Event: Chan 13 Control/Mode Change: Sound Controller 5 (default: Brightness) (0-127): 123
14   |  MIDI Event: Chan 10 Note OFF: F#2, Velocity (0 - 127): 64
0    |  MIDI Event: Chan 1 Note OFF: D4, Velocity (0 - 127): 64
0    |  MIDI Event: Chan 5 Note OFF: A2, Velocity (0 - 127): 64
0    |  MIDI Event: Chan 1 Note OFF: F#4, Velocity (0 - 127): 64
0    |  MIDI Event: Chan 5 Note OFF: D3, Velocity (0 - 127): 64
0    |  MIDI Event: Chan 5 Note OFF: F#3, Velocity (0 - 127): 64
0    |  MIDI Event: Chan 1 Note OFF: A3, Velocity (0 - 127): 64
1    |  MIDI Event: Chan 1 Note ON: F#3, Velocity (0 - 127): 44
0    |  MIDI Event: Chan 1 Note ON: A3, Velocity (0 - 127): 78
0    |  MIDI Event: Chan 1 Note ON: D4, Velocity (0 - 127): 58
0    |  MIDI Event: Chan 3 Control/Mode Change: Sound Controller 5 (default: Brightness) (0-127): 105
0    |  MIDI Event: Chan 5 Note ON: A2, Velocity (0 - 127): 85
0    |  MIDI Event: Chan 5 Note ON: D3, Velocity (0 - 127): 105
0    |  MIDI Event: Chan 5 Note ON: F#3, Velocity (0 - 127): 81
0    |  MIDI Event: Chan 13 Control/Mode Change: Sound Controller 5 (default: Brightness) (0-127): 120
15   |  MIDI Event: Chan 3 Control/Mode Change: Sound Controller 5 (default: Brightness) (0-127): 109
0    |  MIDI Event: Chan 13 Control/Mode Change: Sound Controller 5 (default: Brightness) (0-127): 117
14   |  MIDI Event: Chan 5 Note OFF: F#3, Velocity (0 - 127): 64
0    |  MIDI Event: Chan 5 Note OFF: D3, Velocity (0 - 127): 64
0    |  MIDI Event: Chan 1 Note OFF: A3, Velocity (0 - 127): 64
0    |  MIDI Event: Chan 6 Note OFF: D5, Velocity (0 - 127): 64
0    |  MIDI Event: Chan 6 Note OFF: D4, Velocity (0 - 127): 64
0    |  MIDI Event: Chan 7 Note OFF: D5, Velocity (0 - 127): 64
0    |  MIDI Event: Chan 12 Note OFF: D5, Velocity (0 - 127): 64
0    |  MIDI Event: Chan 5 Note OFF: A2, Velocity (0 - 127): 64
0    |  MIDI Event: Chan 1 Note OFF: F#3, Velocity (0 - 127): 64
0    |  MIDI Event: Chan 1 Note OFF: D4, Velocity (0 - 127): 64
1    |  MIDI Event: Chan 1 Note ON: A3, Velocity (0 - 127): 57
0    |  MIDI Event: Chan 1 Note ON: D4, Velocity (0 - 127): 91
0    |  MIDI Event: Chan 1 Note ON: F#4, Velocity (0 - 127): 77
0    |  MIDI Event: Chan 2 Control/Mode Change: Expression Control (0-127): 127
0    |  MIDI Event: Chan 3 Control/Mode Change: Sound Controller 5 (default: Brightness) (0-127): 113
0    |  MIDI Event: Chan 3 Control/Mode Change: Expression Control (0-127): 127
0    |  MIDI Event: Chan 5 Note ON: D3, Velocity (0 - 127): 109
0    |  MIDI Event: Chan 5 Note ON: F#3, Velocity (0 - 127): 89
0    |  MIDI Event: Chan 5 Note ON: A3, Velocity (0 - 127): 109
0    |  MIDI Event: Chan 10 Note ON: A#2, Velocity (0 - 127): 120
0    |  MIDI Event: Chan 10 Note ON: C#5, Velocity (0 - 127): 119
0    |  MIDI Event: Chan 13 Control/Mode Change: Sound Controller 5 (default: Brightness) (0-127): 114
15   |  MIDI Event: Chan 3 Control/Mode Change: Sound Controller 5 (default: Brightness) (0-127): 118
0    |  MIDI Event: Chan 13 Control/Mode Change: Sound Controller 5 (default: Brightness) (0-127): 111
14   |  MIDI Event: Chan 10 Note OFF: C#5, Velocity (0 - 127): 64
0    |  MIDI Event: Chan 5 Note OFF: D3, Velocity (0 - 127): 64
0    |  MIDI Event: Chan 1 Note OFF: A3, Velocity (0 - 127): 64
0    |  MIDI Event: Chan 1 Note OFF: F#4, Velocity (0 - 127): 64
0    |  MIDI Event: Chan 1 Note OFF: D4, Velocity (0 - 127): 64
0    |  MIDI Event: Chan 10 Note OFF: A#2, Velocity (0 - 127): 64
0    |  MIDI Event: Chan 5 Note OFF: F#3, Velocity (0 - 127): 64
0    |  MIDI Event: Chan 5 Note OFF: A3, Velocity (0 - 127): 64
1    |  MIDI Event: Chan 1 Note ON: F#3, Velocity (0 - 127): 35
0    |  MIDI Event: Chan 1 Note ON: A3, Velocity (0 - 127): 79
0    |  MIDI Event: Chan 1 Note ON: D4, Velocity (0 - 127): 56
0    |  MIDI Event: Chan 3 Control/Mode Change: Sound Controller 5 (default: Brightness) (0-127): 122
0    |  MIDI Event: Chan 5 Note ON: D3, Velocity (0 - 127): 111
0    |  MIDI Event: Chan 5 Note ON: F#3, Velocity (0 - 127): 100
0    |  MIDI Event: Chan 5 Note ON: A3, Velocity (0 - 127): 100
0    |  MIDI Event: Chan 6 Note ON: D4, Velocity (0 - 127): 103
0    |  MIDI Event: Chan 6 Note ON: D5, Velocity (0 - 127): 103
0    |  MIDI Event: Chan 7 Note ON: D5, Velocity (0 - 127): 120
0    |  MIDI Event: Chan 12 Note ON: D5, Velocity (0 - 127): 120
0    |  MIDI Event: Chan 13 Control/Mode Change: Sound Controller 5 (default: Brightness) (0-127): 107
15   |  MIDI Event: Chan 3 Control/Mode Change: Sound Controller 5 (default: Brightness) (0-127): 127
0    |  MIDI Event: Chan 13 Control/Mode Change: Sound Controller 5 (default: Brightness) (0-127): 104
14   |  MIDI Event: Chan 12 Note OFF: D5, Velocity (0 - 127): 64
0    |  MIDI Event: Chan 7 Note OFF: D5, Velocity (0 - 127): 64
0    |  MIDI Event: Chan 5 Note OFF: A3, Velocity (0 - 127): 64
0    |  MIDI Event: Chan 5 Note OFF: D3, Velocity (0 - 127): 64
0    |  MIDI Event: Chan 1 Note OFF: F#3, Velocity (0 - 127): 64
0    |  MIDI Event: Chan 1 Note OFF: D4, Velocity (0 - 127): 64
0    |  MIDI Event: Chan 1 Note OFF: A3, Velocity (0 - 127): 64
0    |  MIDI Event: Chan 6 Note OFF: D5, Velocity (0 - 127): 64
0    |  MIDI Event: Chan 5 Note OFF: F#3, Velocity (0 - 127): 64
0    |  MIDI Event: Chan 6 Note OFF: D4, Velocity (0 - 127): 64
1    |  MIDI Event: Chan 1 Note ON: F#3, Velocity (0 - 127): 49
0    |  MIDI Event: Chan 1 Note ON: A3, Velocity (0 - 127): 85
0    |  MIDI Event: Chan 1 Note ON: D4, Velocity (0 - 127): 75
0    |  MIDI Event: Chan 2 Control/Mode Change: Expression Control (0-127): 64
0    |  MIDI Event: Chan 3 Control/Mode Change: Expression Control (0-127): 71
0    |  MIDI Event: Chan 5 Note ON: A2, Velocity (0 - 127): 105
0    |  MIDI Event: Chan 5 Note ON: D3, Velocity (0 - 127): 116
0    |  MIDI Event: Chan 6 Note ON: E4, Velocity (0 - 127): 95
0    |  MIDI Event: Chan 6 Note ON: E5, Velocity (0 - 127): 95
0    |  MIDI Event: Chan 7 Note ON: E5, Velocity (0 - 127): 120
0    |  MIDI Event: Chan 10 Note ON: F#2, Velocity (0 - 127): 120
0    |  MIDI Event: Chan 11 Note ON: C5, Velocity (0 - 127): 120
0    |  MIDI Event: Chan 12 Note ON: E5, Velocity (0 - 127): 120
0    |  MIDI Event: Chan 13 Control/Mode Change: Sound Controller 5 (default: Brightness) (0-127): 101
15   |  MIDI Event: Chan 13 Control/Mode Change: Sound Controller 5 (default: Brightness) (0-127): 98
14   |  MIDI Event: Chan 12 Note OFF: E5, Velocity (0 - 127): 64
0    |  MIDI Event: Chan 10 Note OFF: F#2, Velocity (0 - 127): 64
0    |  MIDI Event: Chan 7 Note OFF: E5, Velocity (0 - 127): 64
0    |  MIDI Event: Chan 6 Note OFF: E5, Velocity (0 - 127): 64
0    |  MIDI Event: Chan 6 Note OFF: E4, Velocity (0 - 127): 64
1    |  MIDI Event: Chan 6 Note ON: D4, Velocity (0 - 127): 86
0    |  MIDI Event: Chan 6 Note ON: D5, Velocity (0 - 127): 86
0    |  MIDI Event: Chan 7 Note ON: D5, Velocity (0 - 127): 120
0    |  MIDI Event: Chan 12 Note ON: D5, Velocity (0 - 127): 120
0    |  MIDI Event: Chan 13 Control/Mode Change: Sound Controller 5 (default: Brightness) (0-127): 95
15   |  MIDI Event: Chan 13 Control/Mode Change: Sound Controller 5 (default: Brightness) (0-127): 92
14   |  MIDI Event: Chan 12 Note OFF: D5, Velocity (0 - 127): 64
0    |  MIDI Event: Chan 7 Note OFF: D5, Velocity (0 - 127): 64
0    |  MIDI Event: Chan 5 Note OFF: A2, Velocity (0 - 127): 64
0    |  MIDI Event: Chan 1 Note OFF: F#3, Velocity (0 - 127): 64
0    |  MIDI Event: Chan 1 Note OFF: D4, Velocity (0 - 127): 64
0    |  MIDI Event: Chan 1 Note OFF: A3, Velocity (0 - 127): 64
0    |  MIDI Event: Chan 6 Note OFF: D5, Velocity (0 - 127): 64
0    |  MIDI Event: Chan 5 Note OFF: D3, Velocity (0 - 127): 64
0    |  MIDI Event: Chan 6 Note OFF: D4, Velocity (0 - 127): 64
1    |  MIDI Event: Chan 1 Note ON: A3, Velocity (0 - 127): 56
0    |  MIDI Event: Chan 1 Note ON: D4, Velocity (0 - 127): 84
0    |  MIDI Event: Chan 1 Note ON: F#4, Velocity (0 - 127): 49
0    |  MIDI Event: Chan 2 Control/Mode Change: Expression Control (0-127): 127
0    |  MIDI Event: Chan 3 Control/Mode Change: Expression Control (0-127): 127
0    |  MIDI Event: Chan 5 Note ON: D3, Velocity (0 - 127): 105
0    |  MIDI Event: Chan 5 Note ON: F#3, Velocity (0 - 127): 115
0    |  MIDI Event: Chan 6 Note ON: E4, Velocity (0 - 127): 98
0    |  MIDI Event: Chan 6 Note ON: E5, Velocity (0 - 127): 98
0    |  MIDI Event: Chan 7 Note ON: E5, Velocity (0 - 127): 120
0    |  MIDI Event: Chan 10 Note ON: A#2, Velocity (0 - 127): 120
0    |  MIDI Event: Chan 10 Note ON: C#5, Velocity (0 - 127): 119
0    |  MIDI Event: Chan 12 Note ON: E5, Velocity (0 - 127): 120
0    |  MIDI Event: Chan 13 Control/Mode Change: Sound Controller 5 (default: Brightness) (0-127): 88
15   |  MIDI Event: Chan 3 Control/Mode Change: Sound Controller 5 (default: Brightness) (0-127): 121
0    |  MIDI Event: Chan 13 Control/Mode Change: Sound Controller 5 (default: Brightness) (0-127): 85
14   |  MIDI Event: Chan 10 Note OFF: C#5, Velocity (0 - 127): 64
0    |  MIDI Event: Chan 10 Note OFF: A#2, Velocity (0 - 127): 64
0    |  MIDI Event: Chan 5 Note OFF: F#3, Velocity (0 - 127): 64
0    |  MIDI Event: Chan 1 Note OFF: F#4, Velocity (0 - 127): 64
0    |  MIDI Event: Chan 1 Note OFF: D4, Velocity (0 - 127): 64
0    |  MIDI Event: Chan 1 Note OFF: A3, Velocity (0 - 127): 64
0    |  MIDI Event: Chan 5 Note OFF: D3, Velocity (0 - 127): 64
1    |  MIDI Event: Chan 1 Note ON: A3, Velocity (0 - 127): 84
0    |  MIDI Event: Chan 1 Note ON: D4, Velocity (0 - 127): 94
0    |  MIDI Event: Chan 1 Note ON: F#4, Velocity (0 - 127): 76
0    |  MIDI Event: Chan 3 Control/Mode Change: Sound Controller 5 (default: Brightness) (0-127): 116
0    |  MIDI Event: Chan 5 Note ON: D3, Velocity (0 - 127): 100
0    |  MIDI Event: Chan 5 Note ON: F#3, Velocity (0 - 127): 92
0    |  MIDI Event: Chan 13 Control/Mode Change: Sound Controller 5 (default: Brightness) (0-127): 82
15   |  MIDI Event: Chan 3 Control/Mode Change: Sound Controller 5 (default: Brightness) (0-127): 111
0    |  MIDI Event: Chan 13 Control/Mode Change: Sound Controller 5 (default: Brightness) (0-127): 79
5    |  MIDI Event: Chan 6 Pitch Bend Change (0-16383): 8071 (factor==0.99804)
5    |  MIDI Event: Chan 6 Pitch Bend Change (0-16383): 6296 (factor==0.96972)
3    |  MIDI Event: Chan 6 Pitch Bend Change (0-16383): 4197 (factor==0.937266)
1    |  MIDI Event: Chan 5 Note OFF: F#3, Velocity (0 - 127): 64
0    |  MIDI Event: Chan 5 Note OFF: D3, Velocity (0 - 127): 64
0    |  MIDI Event: Chan 1 Note OFF: A3, Velocity (0 - 127): 64
0    |  MIDI Event: Chan 7 Note OFF: E5, Velocity (0 - 127): 64
0    |  MIDI Event: Chan 3 Note OFF: A3, Velocity (0 - 127): 64
0    |  MIDI Event: Chan 6 Note OFF: E4, Velocity (0 - 127): 64
0    |  MIDI Event: Chan 3 Note OFF: F#4, Velocity (0 - 127): 64
0    |  MIDI Event: Chan 12 Note OFF: E5, Velocity (0 - 127): 64
0    |  MIDI Event: Chan 6 Note OFF: E5, Velocity (0 - 127): 64
0    |  MIDI Event: Chan 1 Note OFF: F#4, Velocity (0 - 127): 64
0    |  MIDI Event: Chan 1 Note OFF: D4, Velocity (0 - 127): 64
0    |  MIDI Event: Chan 3 Note OFF: D4, Velocity (0 - 127): 64
1    |  MIDI Event: Chan 1 Note ON: E3, Velocity (0 - 127): 47
0    |  MIDI Event: Chan 1 Note ON: A3, Velocity (0 - 127): 89
0    |  MIDI Event: Chan 1 Note ON: C#4, Velocity (0 - 127): 52
0    |  MIDI Event: Chan 2 Control/Mode Change: Expression Control (0-127): 64
0    |  MIDI Event: Chan 3 Control/Mode Change: Sound Controller 5 (default: Brightness) (0-127): 106
0    |  MIDI Event: Chan 3 Control/Mode Change: Expression Control (0-127): 80
0    |  MIDI Event: Chan 3 Note ON: A3, Velocity (0 - 127): 120
0    |  MIDI Event: Chan 3 Note ON: D4, Velocity (0 - 127): 120
0    |  MIDI Event: Chan 3 Note ON: F#4, Velocity (0 - 127): 120
0    |  MIDI Event: Chan 5 Note ON: A2, Velocity (0 - 127): 101
0    |  MIDI Event: Chan 5 Note ON: E3, Velocity (0 - 127): 101
0    |  MIDI Event: Chan 6 Note ON: F#4, Velocity (0 - 127): 119
0    |  MIDI Event: Chan 6 Note ON: F#5, Velocity (0 - 127): 119
0    |  MIDI Event: Chan 6 Pitch Bend Change (0-16383): 1776 (factor==0.901179)
0    |  MIDI Event: Chan 7 Note ON: F#5, Velocity (0 - 127): 120
0    |  MIDI Event: Chan 10 Note ON: F#2, Velocity (0 - 127): 120
0    |  MIDI Event: Chan 10 Note ON: A3, Velocity (0 - 127): 111
0    |  MIDI Event: Chan 12 Note ON: F#5, Velocity (0 - 127): 120
0    |  MIDI Event: Chan 13 Control/Mode Change: Sound Controller 5 (default: Brightness) (0-127): 76
3    |  MIDI Event: Chan 6 Pitch Bend Change (0-16383): 0 (factor==0.875594)
12   |  MIDI Event: Chan 3 Control/Mode Change: Sound Controller 5 (default: Brightness) (0-127): 100
0    |  MIDI Event: Chan 13 Control/Mode Change: Sound Controller 5 (default: Brightness) (0-127): 73
5    |  MIDI Event: Chan 6 Pitch Bend Change (0-16383): 646 (factor==0.884815)
3    |  MIDI Event: Chan 6 Pitch Bend Change (0-16383): 2422 (factor==0.91067)
2    |  MIDI Event: Chan 6 Pitch Bend Change (0-16383): 4520 (factor==0.942188)
3    |  MIDI Event: Chan 6 Pitch Bend Change (0-16383): 6942 (factor==0.979932)
1    |  MIDI Event: Chan 10 Note OFF: F#2, Velocity (0 - 127): 64
1    |  MIDI Event: Chan 3 Control/Mode Change: Sound Controller 5 (default: Brightness) (0-127): 95
0    |  MIDI Event: Chan 6 Pitch Bend Change (0-16383): 8192 (factor==1)
0    |  MIDI Event: Chan 13 Control/Mode Change: Sound Controller 5 (default: Brightness) (0-127): 69
15   |  MIDI Event: Chan 3 Control/Mode Change: Sound Controller 5 (default: Brightness) (0-127): 90
0    |  MIDI Event: Chan 13 Control/Mode Change: Sound Controller 5 (default: Brightness) (0-127): 66
14   |  MIDI Event: Chan 12 Note OFF: F#5, Velocity (0 - 127): 64
0    |  MIDI Event: Chan 7 Note OFF: F#5, Velocity (0 - 127): 64
0    |  MIDI Event: Chan 1 Note OFF: C#4, Velocity (0 - 127): 64
0    |  MIDI Event: Chan 5 Note OFF: E3, Velocity (0 - 127): 64
0    |  MIDI Event: Chan 1 Note OFF: E3, Velocity (0 - 127): 64
0    |  MIDI Event: Chan 1 Note OFF: A3, Velocity (0 - 127): 64
0    |  MIDI Event: Chan 6 Note OFF: F#5, Velocity (0 - 127): 64
0    |  MIDI Event: Chan 5 Note OFF: A2, Velocity (0 - 127): 64
0    |  MIDI Event: Chan 6 Note OFF: F#4, Velocity (0 - 127): 64
1    |  MIDI Event: Chan 1 Note ON: A3, Velocity (0 - 127): 51
0    |  MIDI Event: Chan 1 Note ON: C#4, Velocity (0 - 127): 52
0    |  MIDI Event: Chan 1 Note ON: E4, Velocity (0 - 127): 78
0    |  MIDI Event: Chan 2 Control/Mode Change: Expression Control (0-127): 127
0    |  MIDI Event: Chan 3 Control/Mode Change: Sound Controller 5 (default: Brightness) (0-127): 85
0    |  MIDI Event: Chan 3 Control/Mode Change: Expression Control (0-127): 127
0    |  MIDI Event: Chan 5 Note ON: C#3, Velocity (0 - 127): 89
0    |  MIDI Event: Chan 5 Note ON: E3, Velocity (0 - 127): 101
0    |  MIDI Event: Chan 5 Note ON: A3, Velocity (0 - 127): 89
0    |  MIDI Event: Chan 6 Note ON: D4, Velocity (0 - 127): 111
0    |  MIDI Event: Chan 6 Note ON: D5, Velocity (0 - 127): 111
0    |  MIDI Event: Chan 7 Note ON: D5, Velocity (0 - 127): 120
0    |  MIDI Event: Chan 10 Note ON: A#2, Velocity (0 - 127): 120
0    |  MIDI Event: Chan 10 Note ON: C#5, Velocity (0 - 127): 115
0    |  MIDI Event: Chan 12 Note ON: D5, Velocity (0 - 127): 120
0    |  MIDI Event: Chan 13 Control/Mode Change: Sound Controller 5 (default: Brightness) (0-127): 63
15   |  MIDI Event: Chan 3 Control/Mode Change: Sound Controller 5 (default: Brightness) (0-127): 79
0    |  MIDI Event: Chan 13 Control/Mode Change: Sound Controller 5 (default: Brightness) (0-127): 60
14   |  MIDI Event: Chan 10 Note OFF: C#5, Velocity (0 - 127): 64
0    |  MIDI Event: Chan 10 Note OFF: A#2, Velocity (0 - 127): 64
0    |  MIDI Event: Chan 5 Note OFF: A3, Velocity (0 - 127): 64
0    |  MIDI Event: Chan 1 Note OFF: C#4, Velocity (0 - 127): 64
0    |  MIDI Event: Chan 1 Note OFF: A3, Velocity (0 - 127): 64
0    |  MIDI Event: Chan 5 Note OFF: E3, Velocity (0 - 127): 64
0    |  MIDI Event: Chan 1 Note OFF: E4, Velocity (0 - 127): 64
0    |  MIDI Event: Chan 5 Note OFF: C#3, Velocity (0 - 127): 64
1    |  MIDI Event: Chan 1 Note ON: A3, Velocity (0 - 127): 73
0    |  MIDI Event: Chan 1 Note ON: C#4, Velocity (0 - 127): 52
0    |  MIDI Event: Chan 1 Note ON: E4, Velocity (0 - 127): 83
0    |  MIDI Event: Chan 3 Control/Mode Change: Sound Controller 5 (default: Brightness) (0-127): 74
0    |  MIDI Event: Chan 5 Note ON: C#3, Velocity (0 - 127): 119
0    |  MIDI Event: Chan 5 Note ON: E3, Velocity (0 - 127): 118
0    |  MIDI Event: Chan 5 Note ON: A3, Velocity (0 - 127): 105
0    |  MIDI Event: Chan 13 Control/Mode Change: Sound Controller 5 (default: Brightness) (0-127): 57
15   |  MIDI Event: Chan 3 Control/Mode Change: Sound Controller 5 (default: Brightness) (0-127): 69
14   |  MIDI Event: Chan 5 Note OFF: A3, Velocity (0 - 127): 64
0    |  MIDI Event: Chan 3 Note OFF: F#4, Velocity (0 - 127): 64
0    |  MIDI Event: Chan 7 Note OFF: D5, Velocity (0 - 127): 64
0    |  MIDI Event: Chan 6 Note OFF: D5, Velocity (0 - 127): 64
0    |  MIDI Event: Chan 11 Note OFF: C5, Velocity (0 - 127): 64
0    |  MIDI Event: Chan 6 Note OFF: D4, Velocity (0 - 127): 64
0    |  MIDI Event: Chan 9 Note OFF: D3, Velocity (0 - 127): 64
0    |  MIDI Event: Chan 5 Note OFF: E3, Velocity (0 - 127): 64
0    |  MIDI Event: Chan 3 Note OFF: A3, Velocity (0 - 127): 64
0    |  MIDI Event: Chan 5 Note OFF: C#3, Velocity (0 - 127): 64
0    |  MIDI Event: Chan 9 Note OFF: D4, Velocity (0 - 127): 64
0    |  MIDI Event: Chan 1 Note OFF: E4, Velocity (0 - 127): 64
0    |  MIDI Event: Chan 1 Note OFF: A3, Velocity (0 - 127): 64
0    |  MIDI Event: Chan 3 Note OFF: D4, Velocity (0 - 127): 64
0    |  MIDI Event: Chan 12 Note OFF: D5, Velocity (0 - 127): 64
0    |  MIDI Event: Chan 1 Note OFF: C#4, Velocity (0 - 127): 64
1    |  MIDI Event: Chan 13 Note OFF: C5, Velocity (0 - 127): 64
0    |  MIDI Event: Chan 1 Note ON: B3, Velocity (0 - 127): 58
0    |  MIDI Event: Chan 1 Note ON: D4, Velocity (0 - 127): 91
0    |  MIDI Event: Chan 2 Control/Mode Change: Expression Control (0-127): 64
0    |  MIDI Event: Chan 2 Note ON: B1, Velocity (0 - 127): 120
0    |  MIDI Event: Chan 3 Control/Mode Change: Sound Controller 5 (default: Brightness) (0-127): 64
0    |  MIDI Event: Chan 3 Control/Mode Change: Expression Control (0-127): 64
0    |  MIDI Event: Chan 3 Note ON: B3, Velocity (0 - 127): 120
0    |  MIDI Event: Chan 3 Note ON: D4, Velocity (0 - 127): 120
0    |  MIDI Event: Chan 3 Note ON: F#4, Velocity (0 - 127): 120
0    |  MIDI Event: Chan 5 Note ON: B2, Velocity (0 - 127): 85
0    |  MIDI Event: Chan 5 Note ON: F#3, Velocity (0 - 127): 120
0    |  MIDI Event: Chan 6 Note ON: B3, Velocity (0 - 127): 120
0    |  MIDI Event: Chan 6 Note ON: B4, Velocity (0 - 127): 120
0    |  MIDI Event: Chan 7 Note ON: B4, Velocity (0 - 127): 120
0    |  MIDI Event: Chan 10 Note ON: B1, Velocity (0 - 127): 120
0    |  MIDI Event: Chan 10 Note ON: F#2, Velocity (0 - 127): 120
0    |  MIDI Event: Chan 10 Note ON: C#3, Velocity (0 - 127): 111
0    |  MIDI Event: Chan 10 Note ON: B3, Velocity (0 - 127): 120
0    |  MIDI Event: Chan 12 Note ON: B4, Velocity (0 - 127): 120
0    |  MIDI Event: Chan 13 Control/Mode Change: Sound Controller 5 (default: Brightness) (0-127): 127
0    |  MIDI Event: Chan 13 Control/Mode Change: Expression Control (0-127): 32
29   |  MIDI Event: Chan 10 Note OFF: B3, Velocity (0 - 127): 64
0    |  MIDI Event: Chan 10 Note OFF: F#2, Velocity (0 - 127): 64
0    |  MIDI Event: Chan 10 Note OFF: B1, Velocity (0 - 127): 64
30   |  MIDI Event: Chan 1 Note OFF: D4, Velocity (0 - 127): 64
0    |  MIDI Event: Chan 12 Note OFF: B4, Velocity (0 - 127): 64
0    |  MIDI Event: Chan 6 Note OFF: B3, Velocity (0 - 127): 64
0    |  MIDI Event: Chan 5 Note OFF: F#3, Velocity (0 - 127): 64
0    |  MIDI Event: Chan 5 Note OFF: B2, Velocity (0 - 127): 64
0    |  MIDI Event: Chan 6 Note OFF: B4, Velocity (0 - 127): 64
0    |  MIDI Event: Chan 1 Note OFF: B3, Velocity (0 - 127): 64
0    |  MIDI Event: Chan 7 Note OFF: B4, Velocity (0 - 127): 64
1    |  MIDI Event: Chan 1 Note ON: B3, Velocity (0 - 127): 79
0    |  MIDI Event: Chan 1 Note ON: D4, Velocity (0 - 127): 95
0    |  MIDI Event: Chan 1 Note ON: F#4, Velocity (0 - 127): 74
0    |  MIDI Event: Chan 2 Control/Mode Change: Expression Control (0-127): 127
0    |  MIDI Event: Chan 3 Control/Mode Change: Expression Control (0-127): 127
0    |  MIDI Event: Chan 5 Note ON: D3, Velocity (0 - 127): 92
0    |  MIDI Event: Chan 5 Note ON: F#3, Velocity (0 - 127): 87
0    |  MIDI Event: Chan 5 Note ON: D4, Velocity (0 - 127): 95
0    |  MIDI Event: Chan 10 Note ON: A#2, Velocity (0 - 127): 120
0    |  MIDI Event: Chan 10 Note ON: C#5, Velocity (0 - 127): 119
29   |  MIDI Event: Chan 10 Note OFF: C#5, Velocity (0 - 127): 64
0    |  MIDI Event: Chan 10 Note OFF: A#2, Velocity (0 - 127): 64
30   |  MIDI Event: Chan 10 Note OFF: A3, Velocity (0 - 127): 64
0    |  MIDI Event: Chan 2 Note OFF: B1, Velocity (0 - 127): 64
1    |  MIDI Event: Chan 2 Control/Mode Change: Expression Control (0-127): 64
0    |  MIDI Event: Chan 2 Note ON: B1, Velocity (0 - 127): 120
0    |  MIDI Event: Chan 3 Control/Mode Change: Expression Control (0-127): 73
0    |  MIDI Event: Chan 6 Note ON: B3, Velocity (0 - 127): 120
0    |  MIDI Event: Chan 6 Note ON: B4, Velocity (0 - 127): 120
0    |  MIDI Event: Chan 7 Note ON: B4, Velocity (0 - 127): 120
0    |  MIDI Event: Chan 10 Note ON: B1, Velocity (0 - 127): 120
0    |  MIDI Event: Chan 10 Note ON: F#2, Velocity (0 - 127): 120
0    |  MIDI Event: Chan 10 Note ON: B3, Velocity (0 - 127): 116
0    |  MIDI Event: Chan 12 Note ON: B4, Velocity (0 - 127): 120
29   |  MIDI Event: Chan 10 Note OFF: B3, Velocity (0 - 127): 64
0    |  MIDI Event: Chan 10 Note OFF: F#2, Velocity (0 - 127): 64
0    |  MIDI Event: Chan 10 Note OFF: B1, Velocity (0 - 127): 64
0    |  MIDI Event: Chan 1 Note OFF: B3, Velocity (0 - 127): 64
0    |  MIDI Event: Chan 1 Note OFF: F#4, Velocity (0 - 127): 64
0    |  MIDI Event: Chan 1 Note OFF: D4, Velocity (0 - 127): 64
0    |  MIDI Event: Chan 5 Note OFF: F#3, Velocity (0 - 127): 64
0    |  MIDI Event: Chan 5 Note OFF: D3, Velocity (0 - 127): 64
0    |  MIDI Event: Chan 5 Note OFF: D4, Velocity (0 - 127): 64
1    |  MIDI Event: Chan 1 Note ON: B3, Velocity (0 - 127): 71
0    |  MIDI Event: Chan 1 Note ON: D4, Velocity (0 - 127): 91
0    |  MIDI Event: Chan 1 Note ON: F#4, Velocity (0 - 127): 60
0    |  MIDI Event: Chan 5 Note ON: F#3, Velocity (0 - 127): 109
0    |  MIDI Event: Chan 5 Note ON: B3, Velocity (0 - 127): 95
29   |  MIDI Event: Chan 5 Note OFF: B3, Velocity (0 - 127): 64
0    |  MIDI Event: Chan 1 Note OFF: B3, Velocity (0 - 127): 64
0    |  MIDI Event: Chan 6 Note OFF: B4, Velocity (0 - 127): 64
0    |  MIDI Event: Chan 12 Note OFF: B4, Velocity (0 - 127): 64
0    |  MIDI Event: Chan 6 Note OFF: B3, Velocity (0 - 127): 64
0    |  MIDI Event: Chan 7 Note OFF: B4, Velocity (0 - 127): 64
0    |  MIDI Event: Chan 5 Note OFF: F#3, Velocity (0 - 127): 64
0    |  MIDI Event: Chan 1 Note OFF: D4, Velocity (0 - 127): 64
0    |  MIDI Event: Chan 1 Note OFF: F#4, Velocity (0 - 127): 64
1    |  MIDI Event: Chan 1 Note ON: D4, Velocity (0 - 127): 80
0    |  MIDI Event: Chan 1 Note ON: F#4, Velocity (0 - 127): 62
0    |  MIDI Event: Chan 1 Note ON: B4, Velocity (0 - 127): 91
0    |  MIDI Event: Chan 2 Control/Mode Change: Expression Control (0-127): 127
0    |  MIDI Event: Chan 3 Control/Mode Change: Expression Control (0-127): 127
0    |  MIDI Event: Chan 5 Note ON: D3, Velocity (0 - 127): 103
0    |  MIDI Event: Chan 5 Note ON: F#3, Velocity (0 - 127): 115
0    |  MIDI Event: Chan 10 Note ON: A#2, Velocity (0 - 127): 119
0    |  MIDI Event: Chan 10 Note ON: C#5, Velocity (0 - 127): 119
29   |  MIDI Event: Chan 10 Note OFF: C#5, Velocity (0 - 127): 64
0    |  MIDI Event: Chan 5 Note OFF: F#3, Velocity (0 - 127): 64
0    |  MIDI Event: Chan 1 Note OFF: B4, Velocity (0 - 127): 64
0    |  MIDI Event: Chan 1 Note OFF: F#4, Velocity (0 - 127): 64
0    |  MIDI Event: Chan 5 Note OFF: D3, Velocity (0 - 127): 64
0    |  MIDI Event: Chan 10 Note OFF: A#2, Velocity (0 - 127): 64
0    |  MIDI Event: Chan 1 Note OFF: D4, Velocity (0 - 127): 64
1    |  MIDI Event: Chan 1 Note ON: B3, Velocity (0 - 127): 51
0    |  MIDI Event: Chan 1 Note ON: D4, Velocity (0 - 127): 85
0    |  MIDI Event: Chan 1 Note ON: F#4, Velocity (0 - 127): 59
0    |  MIDI Event: Chan 5 Note ON: B2, Velocity (0 - 127): 92
0    |  MIDI Event: Chan 5 Note ON: E3, Velocity (0 - 127): 98
0    |  MIDI Event: Chan 6 Note ON: A3, Velocity (0 - 127): 98
0    |  MIDI Event: Chan 6 Note ON: A4, Velocity (0 - 127): 98
0    |  MIDI Event: Chan 7 Note ON: A4, Velocity (0 - 127): 120
0    |  MIDI Event: Chan 12 Note ON: A4, Velocity (0 - 127): 120
29   |  MIDI Event: Chan 12 Note OFF: A4, Velocity (0 - 127): 64
0    |  MIDI Event: Chan 3 Note OFF: B3, Velocity (0 - 127): 64
0    |  MIDI Event: Chan 1 Note OFF: B3, Velocity (0 - 127): 64
0    |  MIDI Event: Chan 3 Note OFF: D4, Velocity (0 - 127): 64
0    |  MIDI Event: Chan 1 Note OFF: F#4, Velocity (0 - 127): 64
0    |  MIDI Event: Chan 2 Note OFF: B1, Velocity (0 - 127): 64
0    |  MIDI Event: Chan 10 Note OFF: C#3, Velocity (0 - 127): 64
0    |  MIDI Event: Chan 3 Note OFF: F#4, Velocity (0 - 127): 64
0    |  MIDI Event: Chan 6 Note OFF: A4, Velocity (0 - 127): 64
0    |  MIDI Event: Chan 6 Note OFF: A3, Velocity (0 - 127): 64
0    |  MIDI Event: Chan 5 Note OFF: B2, Velocity (0 - 127): 64
0    |  MIDI Event: Chan 1 Note OFF: D4, Velocity (0 - 127): 64
0    |  MIDI Event: Chan 7 Note OFF: A4, Velocity (0 - 127): 64
0    |  MIDI Event: Chan 5 Note OFF: E3, Velocity (0 - 127): 64
1    |  MIDI Event: Chan 1 Note ON: G3, Velocity (0 - 127): 74
0    |  MIDI Event: Chan 1 Note ON: B3, Velocity (0 - 127): 94
0    |  MIDI Event: Chan 1 Note ON: D4, Velocity (0 - 127): 91
0    |  MIDI Event: Chan 2 Control/Mode Change: Expression Control (0-127): 64
0    |  MIDI Event: Chan 2 Note ON: G1, Velocity (0 - 127): 120
0    |  MIDI Event: Chan 3 Control/Mode Change: Expression Control (0-127): 71
0    |  MIDI Event: Chan 3 Note ON: B3, Velocity (0 - 127): 120
0    |  MIDI Event: Chan 3 Note ON: D4, Velocity (0 - 127): 120
0    |  MIDI Event: Chan 3 Note ON: G4, Velocity (0 - 127): 120
0    |  MIDI Event: Chan 5 Note ON: G2, Velocity (0 - 127): 98
0    |  MIDI Event: Chan 5 Note ON: D3, Velocity (0 - 127): 116
0    |  MIDI Event: Chan 6 Note ON: B3, Velocity (0 - 127): 98
0    |  MIDI Event: Chan 6 Note ON: B4, Velocity (0 - 127): 98
0    |  MIDI Event: Chan 7 Note ON: B4, Velocity (0 - 127): 120
0    |  MIDI Event: Chan 10 Note ON: B1, Velocity (0 - 127): 120
0    |  MIDI Event: Chan 10 Note ON: F#2, Velocity (0 - 127): 120
0    |  MIDI Event: Chan 10 Note ON: B3, Velocity (0 - 127): 118
0    |  MIDI Event: Chan 12 Note ON: B4, Velocity (0 - 127): 120
29   |  MIDI Event: Chan 12 Note OFF: B4, Velocity (0 - 127): 64
0    |  MIDI Event: Chan 10 Note OFF: B3, Velocity (0 - 127): 64
0    |  MIDI Event: Chan 7 Note OFF: B4, Velocity (0 - 127): 64
0    |  MIDI Event: Chan 6 Note OFF: B3, Velocity (0 - 127): 64
0    |  MIDI Event: Chan 10 Note OFF: F#2, Velocity (0 - 127): 64
0    |  MIDI Event: Chan 6 Note OFF: B4, Velocity (0 - 127): 64
0    |  MIDI Event: Chan 10 Note OFF: B1, Velocity (0 - 127): 64
1    |  MIDI Event: Chan 6 Note ON: D4, Velocity (0 - 127): 54
0    |  MIDI Event: Chan 6 Note ON: D5, Velocity (0 - 127): 54
0    |  MIDI Event: Chan 7 Note ON: D5, Velocity (0 - 127): 120
0    |  MIDI Event: Chan 12 Note ON: D5, Velocity (0 - 127): 120
29   |  MIDI Event: Chan 12 Note OFF: D5, Velocity (0 - 127): 64
0    |  MIDI Event: Chan 5 Note OFF: G2, Velocity (0 - 127): 64
0    |  MIDI Event: Chan 1 Note OFF: B3, Velocity (0 - 127): 64
0    |  MIDI Event: Chan 1 Note OFF: G3, Velocity (0 - 127): 64
0    |  MIDI Event: Chan 5 Note OFF: D3, Velocity (0 - 127): 64
0    |  MIDI Event: Chan 6 Note OFF: D4, Velocity (0 - 127): 64
0    |  MIDI Event: Chan 1 Note OFF: D4, Velocity (0 - 127): 64
0    |  MIDI Event: Chan 7 Note OFF: D5, Velocity (0 - 127): 64
0    |  MIDI Event: Chan 6 Note OFF: D5, Velocity (0 - 127): 64
1    |  MIDI Event: Chan 1 Note ON: B3, Velocity (0 - 127): 70
0    |  MIDI Event: Chan 1 Note ON: D4, Velocity (0 - 127): 94
0    |  MIDI Event: Chan 1 Note ON: G4, Velocity (0 - 127): 101
0    |  MIDI Event: Chan 2 Control/Mode Change: Expression Control (0-127): 127
0    |  MIDI Event: Chan 3 Control/Mode Change: Expression Control (0-127): 127
0    |  MIDI Event: Chan 5 Note ON: D3, Velocity (0 - 127): 79
0    |  MIDI Event: Chan 5 Note ON: G3, Velocity (0 - 127): 111
0    |  MIDI Event: Chan 5 Note ON: B3, Velocity (0 - 127): 100
0    |  MIDI Event: Chan 6 Note ON: B3, Velocity (0 - 127): 116
0    |  MIDI Event: Chan 6 Note ON: B4, Velocity (0 - 127): 116
0    |  MIDI Event: Chan 7 Note ON: B4, Velocity (0 - 127): 120
0    |  MIDI Event: Chan 10 Note ON: A#2, Velocity (0 - 127): 120
0    |  MIDI Event: Chan 10 Note ON: C#5, Velocity (0 - 127): 109
0    |  MIDI Event: Chan 12 Note ON: B4, Velocity (0 - 127): 120
29   |  MIDI Event: Chan 10 Note OFF: C#5, Velocity (0 - 127): 64
0    |  MIDI Event: Chan 10 Note OFF: A#2, Velocity (0 - 127): 64
30   |  MIDI Event: Chan 6 Note OFF: B4, Velocity (0 - 127): 64
0    |  MIDI Event: Chan 12 Note OFF: B4, Velocity (0 - 127): 64
0    |  MIDI Event: Chan 2 Note OFF: G1, Velocity (0 - 127): 64
0    |  MIDI Event: Chan 6 Note OFF: B3, Velocity (0 - 127): 64
0    |  MIDI Event: Chan 7 Note OFF: B4, Velocity (0 - 127): 64
1    |  MIDI Event: Chan 2 Control/Mode Change: Expression Control (0-127): 64
0    |  MIDI Event: Chan 2 Note ON: G1, Velocity (0 - 127): 120
0    |  MIDI Event: Chan 3 Control/Mode Change: Expression Control (0-127): 80
0    |  MIDI Event: Chan 10 Note ON: B1, Velocity (0 - 127): 120
0    |  MIDI Event: Chan 10 Note ON: F#2, Velocity (0 - 127): 120
0    |  MIDI Event: Chan 10 Note ON: B3, Velocity (0 - 127): 116
29   |  MIDI Event: Chan 10 Note OFF: B3, Velocity (0 - 127): 64
0    |  MIDI Event: Chan 5 Note OFF: G3, Velocity (0 - 127): 64
0    |  MIDI Event: Chan 1 Note OFF: G4, Velocity (0 - 127): 64
0    |  MIDI Event: Chan 5 Note OFF: B3, Velocity (0 - 127): 64
0    |  MIDI Event: Chan 1 Note OFF: D4, Velocity (0 - 127): 64
0    |  MIDI Event: Chan 1 Note OFF: B3, Velocity (0 - 127): 64
0    |  MIDI Event: Chan 5 Note OFF: D3, Velocity (0 - 127): 64
0    |  MIDI Event: Chan 10 Note OFF: F#2, Velocity (0 - 127): 64
0    |  MIDI Event: Chan 10 Note OFF: B1, Velocity (0 - 127): 64
1    |  MIDI Event: Chan 1 Note ON: B3, Velocity (0 - 127): 52
0    |  MIDI Event: Chan 1 Note ON: D4, Velocity (0 - 127): 85
0    |  MIDI Event: Chan 1 Note ON: G4, Velocity (0 - 127): 94
0    |  MIDI Event: Chan 5 Note ON: D3, Velocity (0 - 127): 82
0    |  MIDI Event: Chan 5 Note ON: G3, Velocity (0 - 127): 98
0    |  MIDI Event: Chan 5 Note ON: B3, Velocity (0 - 127): 85
0    |  MIDI Event: Chan 6 Note ON: A3, Velocity (0 - 127): 83
0    |  MIDI Event: Chan 6 Note ON: A4, Velocity (0 - 127): 83
0    |  MIDI Event: Chan 7 Note ON: A4, Velocity (0 - 127): 120
0    |  MIDI Event: Chan 12 Note ON: A4, Velocity (0 - 127): 120
29   |  MIDI Event: Chan 12 Note OFF: A4, Velocity (0 - 127): 64
0    |  MIDI Event: Chan 1 Note OFF: B3, Velocity (0 - 127): 64
0    |  MIDI Event: Chan 1 Note OFF: D4, Velocity (0 - 127): 64
0    |  MIDI Event: Chan 5 Note OFF: B3, Velocity (0 - 127): 64
0    |  MIDI Event: Chan 5 Note OFF: D3, Velocity (0 - 127): 64
0    |  MIDI Event: Chan 1 Note OFF: G4, Velocity (0 - 127): 64
0    |  MIDI Event: Chan 5 Note OFF: G3, Velocity (0 - 127): 64
0    |  MIDI Event: Chan 7 Note OFF: A4, Velocity (0 - 127): 64
0    |  MIDI Event: Chan 6 Note OFF: A4, Velocity (0 - 127): 64
0    |  MIDI Event: Chan 6 Note OFF: A3, Velocity (0 - 127): 64
1    |  MIDI Event: Chan 1 Note ON: D4, Velocity (0 - 127): 78
0    |  MIDI Event: Chan 1 Note ON: G4, Velocity (0 - 127): 100
0    |  MIDI Event: Chan 1 Note ON: B4, Velocity (0 - 127): 46
0    |  MIDI Event: Chan 2 Control/Mode Change: Expression Control (0-127): 127
0    |  MIDI Event: Chan 3 Control/Mode Change: Expression Control (0-127): 127
0    |  MIDI Event: Chan 5 Note ON: G2, Velocity (0 - 127): 109
0    |  MIDI Event: Chan 5 Note ON: D3, Velocity (0 - 127): 109
0    |  MIDI Event: Chan 6 Note ON: B3, Velocity (0 - 127): 98
0    |  MIDI Event: Chan 6 Note ON: B4, Velocity (0 - 127): 98
0    |  MIDI Event: Chan 7 Note ON: B4, Velocity (0 - 127): 120
0    |  MIDI Event: Chan 10 Note ON: A#2, Velocity (0 - 127): 120
0    |  MIDI Event: Chan 10 Note ON: C#5, Velocity (0 - 127): 115
0    |  MIDI Event: Chan 12 Note ON: B4, Velocity (0 - 127): 120
29   |  MIDI Event: Chan 12 Note OFF: B4, Velocity (0 - 127): 64
0    |  MIDI Event: Chan 7 Note OFF: B4, Velocity (0 - 127): 64
0    |  MIDI Event: Chan 1 Note OFF: D4, Velocity (0 - 127): 64
0    |  MIDI Event: Chan 1 Note OFF: G4, Velocity (0 - 127): 64
0    |  MIDI Event: Chan 6 Note OFF: B3, Velocity (0 - 127): 64
0    |  MIDI Event: Chan 5 Note OFF: G2, Velocity (0 - 127): 64
0    |  MIDI Event: Chan 1 Note OFF: B4, Velocity (0 - 127): 64
0    |  MIDI Event: Chan 5 Note OFF: D3, Velocity (0 - 127): 64
0    |  MIDI Event: Chan 10 Note OFF: C#5, Velocity (0 - 127): 64
0    |  MIDI Event: Chan 10 Note OFF: A#2, Velocity (0 - 127): 64
0    |  MIDI Event: Chan 6 Note OFF: B4, Velocity (0 - 127): 64
1    |  MIDI Event: Chan 1 Note ON: B3, Velocity (0 - 127): 45
0    |  MIDI Event: Chan 1 Note ON: D4, Velocity (0 - 127): 73
0    |  MIDI Event: Chan 1 Note ON: G4, Velocity (0 - 127): 86
0    |  MIDI Event: Chan 5 Note ON: G2, Velocity (0 - 127): 101
0    |  MIDI Event: Chan 5 Note ON: E3, Velocity (0 - 127): 116
0    |  MIDI Event: Chan 6 Note ON: A3, Velocity (0 - 127): 94
0    |  MIDI Event: Chan 6 Note ON: A4, Velocity (0 - 127): 94
0    |  MIDI Event: Chan 7 Note ON: A4, Velocity (0 - 127): 120
0    |  MIDI Event: Chan 12 Note ON: A4, Velocity (0 - 127): 120
29   |  MIDI Event: Chan 12 Note OFF: A4, Velocity (0 - 127): 64
0    |  MIDI Event: Chan 1 Note OFF: D4, Velocity (0 - 127): 64
0    |  MIDI Event: Chan 3 Note OFF: D4, Velocity (0 - 127): 64
0    |  MIDI Event: Chan 5 Note OFF: G2, Velocity (0 - 127): 64
0    |  MIDI Event: Chan 3 Note OFF: B3, Velocity (0 - 127): 64
0    |  MIDI Event: Chan 3 Note OFF: G4, Velocity (0 - 127): 64
0    |  MIDI Event: Chan 2 Note OFF: G1, Velocity (0 - 127): 64
0    |  MIDI Event: Chan 1 Note OFF: B3, Velocity (0 - 127): 64
0    |  MIDI Event: Chan 6 Note OFF: A4, Velocity (0 - 127): 64
0    |  MIDI Event: Chan 5 Note OFF: E3, Velocity (0 - 127): 64
0    |  MIDI Event: Chan 1 Note OFF: G4, Velocity (0 - 127): 64
0    |  MIDI Event: Chan 7 Note OFF: A4, Velocity (0 - 127): 64
0    |  MIDI Event: Chan 6 Note OFF: A3, Velocity (0 - 127): 64
1    |  MIDI Event: Chan 1 Note ON: F#3, Velocity (0 - 127): 35
0    |  MIDI Event: Chan 1 Note ON: A3, Velocity (0 - 127): 85
0    |  MIDI Event: Chan 1 Note ON: D4, Velocity (0 - 127): 79
0    |  MIDI Event: Chan 2 Control/Mode Change: Expression Control (0-127): 64
0    |  MIDI Event: Chan 2 Note ON: D2, Velocity (0 - 127): 120
0    |  MIDI Event: Chan 3 Control/Mode Change: Expression Control (0-127): 64
0    |  MIDI Event: Chan 3 Note ON: A3, Velocity (0 - 127): 120
0    |  MIDI Event: Chan 3 Note ON: D4, Velocity (0 - 127): 120
0    |  MIDI Event: Chan 3 Note ON: F#4, Velocity (0 - 127): 120
0    |  MIDI Event: Chan 5 Note ON: A2, Velocity (0 - 127): 90
0    |  MIDI Event: Chan 5 Note ON: D3, Velocity (0 - 127): 105
0    |  MIDI Event: Chan 6 Note ON: D4, Velocity (0 - 127): 120
0    |  MIDI Event: Chan 6 Note ON: D5, Velocity (0 - 127): 120
0    |  MIDI Event: Chan 7 Note ON: D5, Velocity (0 - 127): 120
0    |  MIDI Event: Chan 10 Note ON: B1, Velocity (0 - 127): 120
0    |  MIDI Event: Chan 10 Note ON: F#2, Velocity (0 - 127): 120
0    |  MIDI Event: Chan 10 Note ON: B3, Velocity (0 - 127): 116
0    |  MIDI Event: Chan 12 Note ON: D5, Velocity (0 - 127): 120
29   |  MIDI Event: Chan 10 Note OFF: B3, Velocity (0 - 127): 64
0    |  MIDI Event: Chan 10 Note OFF: F#2, Velocity (0 - 127): 64
0    |  MIDI Event: Chan 10 Note OFF: B1, Velocity (0 - 127): 64
30   |  MIDI Event: Chan 12 Note OFF: D5, Velocity (0 - 127): 64
0    |  MIDI Event: Chan 6 Note OFF: D4, Velocity (0 - 127): 64
0    |  MIDI Event: Chan 1 Note OFF: D4, Velocity (0 - 127): 64
0    |  MIDI Event: Chan 5 Note OFF: A2, Velocity (0 - 127): 64
0    |  MIDI Event: Chan 1 Note OFF: F#3, Velocity (0 - 127): 64
0    |  MIDI Event: Chan 5 Note OFF: D3, Velocity (0 - 127): 64
0    |  MIDI Event: Chan 6 Note OFF: D5, Velocity (0 - 127): 64
0    |  MIDI Event: Chan 7 Note OFF: D5, Velocity (0 - 127): 64
0    |  MIDI Event: Chan 1 Note OFF: A3, Velocity (0 - 127): 64
1    |  MIDI Event: Chan 1 Note ON: A3, Velocity (0 - 127): 69
0    |  MIDI Event: Chan 1 Note ON: D4, Velocity (0 - 127): 98
0    |  MIDI Event: Chan 1 Note ON: F#4, Velocity (0 - 127): 74
0    |  MIDI Event: Chan 2 Control/Mode Change: Expression Control (0-127): 127
0    |  MIDI Event: Chan 3 Control/Mode Change: Expression Control (0-127): 127
0    |  MIDI Event: Chan 5 Note ON: A2, Velocity (0 - 127): 100
0    |  MIDI Event: Chan 5 Note ON: D3, Velocity (0 - 127): 111
0    |  MIDI Event: Chan 5 Note ON: F#3, Velocity (0 - 127): 89
0    |  MIDI Event: Chan 10 Note ON: A#2, Velocity (0 - 127): 120
0    |  MIDI Event: Chan 10 Note ON: C#5, Velocity (0 - 127): 109
29   |  MIDI Event: Chan 10 Note OFF: C#5, Velocity (0 - 127): 64
0    |  MIDI Event: Chan 10 Note OFF: A#2, Velocity (0 - 127): 64
30   |  MIDI Event: Chan 2 Note OFF: D2, Velocity (0 - 127): 64
1    |  MIDI Event: Chan 2 Control/Mode Change: Expression Control (0-127): 64
0    |  MIDI Event: Chan 2 Note ON: D2, Velocity (0 - 127): 120
0    |  MIDI Event: Chan 3 Control/Mode Change: Expression Control (0-127): 73
0    |  MIDI Event: Chan 6 Note ON: D4, Velocity (0 - 127): 120
0    |  MIDI Event: Chan 6 Note ON: D5, Velocity (0 - 127): 120
0    |  MIDI Event: Chan 7 Note ON: D5, Velocity (0 - 127): 120
0    |  MIDI Event: Chan 10 Note ON: B1, Velocity (0 - 127): 120
0    |  MIDI Event: Chan 10 Note ON: F#2, Velocity (0 - 127): 120
0    |  MIDI Event: Chan 10 Note ON: B3, Velocity (0 - 127): 116
0    |  MIDI Event: Chan 12 Note ON: D5, Velocity (0 - 127): 120
29   |  MIDI Event: Chan 10 Note OFF: B3, Velocity (0 - 127): 64
0    |  MIDI Event: Chan 10 Note OFF: F#2, Velocity (0 - 127): 64
0    |  MIDI Event: Chan 5 Note OFF: A2, Velocity (0 - 127): 64
0    |  MIDI Event: Chan 1 Note OFF: F#4, Velocity (0 - 127): 64
0    |  MIDI Event: Chan 1 Note OFF: D4, Velocity (0 - 127): 64
0    |  MIDI Event: Chan 1 Note OFF: A3, Velocity (0 - 127): 64
0    |  MIDI Event: Chan 5 Note OFF: F#3, Velocity (0 - 127): 64
0    |  MIDI Event: Chan 10 Note OFF: B1, Velocity (0 - 127): 64
0    |  MIDI Event: Chan 5 Note OFF: D3, Velocity (0 - 127): 64
1    |  MIDI Event: Chan 1 Note ON: F#3, Velocity (0 - 127): 44
0    |  MIDI Event: Chan 1 Note ON: A3, Velocity (0 - 127): 78
0    |  MIDI Event: Chan 1 Note ON: D4, Velocity (0 - 127): 58
0    |  MIDI Event: Chan 5 Note ON: A2, Velocity (0 - 127): 85
0    |  MIDI Event: Chan 5 Note ON: D3, Velocity (0 - 127): 105
0    |  MIDI Event: Chan 5 Note ON: F#3, Velocity (0 - 127): 81
29   |  MIDI Event: Chan 5 Note OFF: F#3, Velocity (0 - 127): 64
0    |  MIDI Event: Chan 6 Note OFF: D4, Velocity (0 - 127): 64
0    |  MIDI Event: Chan 7 Note OFF: D5, Velocity (0 - 127): 64
0    |  MIDI Event: Chan 1 Note OFF: A3, Velocity (0 - 127): 64
0    |  MIDI Event: Chan 12 Note OFF: D5, Velocity (0 - 127): 64
0    |  MIDI Event: Chan 6 Note OFF: D5, Velocity (0 - 127): 64
0    |  MIDI Event: Chan 1 Note OFF: F#3, Velocity (0 - 127): 64
0    |  MIDI Event: Chan 5 Note OFF: D3, Velocity (0 - 127): 64
0    |  MIDI Event: Chan 5 Note OFF: A2, Velocity (0 - 127): 64
0    |  MIDI Event: Chan 1 Note OFF: D4, Velocity (0 - 127): 64
1    |  MIDI Event: Chan 1 Note ON: A3, Velocity (0 - 127): 57
0    |  MIDI Event: Chan 1 Note ON: D4, Velocity (0 - 127): 91
0    |  MIDI Event: Chan 1 Note ON: F#4, Velocity (0 - 127): 77
0    |  MIDI Event: Chan 2 Control/Mode Change: Expression Control (0-127): 127
0    |  MIDI Event: Chan 3 Control/Mode Change: Expression Control (0-127): 127
0    |  MIDI Event: Chan 5 Note ON: D3, Velocity (0 - 127): 109
0    |  MIDI Event: Chan 5 Note ON: F#3, Velocity (0 - 127): 89
0    |  MIDI Event: Chan 5 Note ON: A3, Velocity (0 - 127): 109
0    |  MIDI Event: Chan 10 Note ON: A#2, Velocity (0 - 127): 120
0    |  MIDI Event: Chan 10 Note ON: C#5, Velocity (0 - 127): 119
29   |  MIDI Event: Chan 10 Note OFF: C#5, Velocity (0 - 127): 64
0    |  MIDI Event: Chan 5 Note OFF: A3, Velocity (0 - 127): 64
0    |  MIDI Event: Chan 5 Note OFF: D3, Velocity (0 - 127): 64
0    |  MIDI Event: Chan 1 Note OFF: F#4, Velocity (0 - 127): 64
0    |  MIDI Event: Chan 5 Note OFF: F#3, Velocity (0 - 127): 64
0    |  MIDI Event: Chan 10 Note OFF: A#2, Velocity (0 - 127): 64
0    |  MIDI Event: Chan 1 Note OFF: A3, Velocity (0 - 127): 64
0    |  MIDI Event: Chan 1 Note OFF: D4, Velocity (0 - 127): 64
1    |  MIDI Event: Chan 1 Note ON: F#3, Velocity (0 - 127): 35
0    |  MIDI Event: Chan 1 Note ON: A3, Velocity (0 - 127): 79
0    |  MIDI Event: Chan 1 Note ON: D4, Velocity (0 - 127): 56
0    |  MIDI Event: Chan 5 Note ON: D3, Velocity (0 - 127): 111
0    |  MIDI Event: Chan 5 Note ON: F#3, Velocity (0 - 127): 100
0    |  MIDI Event: Chan 5 Note ON: A3, Velocity (0 - 127): 100
0    |  MIDI Event: Chan 6 Note ON: D4, Velocity (0 - 127): 89
0    |  MIDI Event: Chan 6 Note ON: D5, Velocity (0 - 127): 89
0    |  MIDI Event: Chan 7 Note ON: D5, Velocity (0 - 127): 120
0    |  MIDI Event: Chan 12 Note ON: D5, Velocity (0 - 127): 120
29   |  MIDI Event: Chan 12 Note OFF: D5, Velocity (0 - 127): 64
0    |  MIDI Event: Chan 1 Note OFF: F#3, Velocity (0 - 127): 64
0    |  MIDI Event: Chan 1 Note OFF: A3, Velocity (0 - 127): 64
0    |  MIDI Event: Chan 5 Note OFF: A3, Velocity (0 - 127): 64
0    |  MIDI Event: Chan 5 Note OFF: D3, Velocity (0 - 127): 64
0    |  MIDI Event: Chan 1 Note OFF: D4, Velocity (0 - 127): 64
0    |  MIDI Event: Chan 2 Note OFF: D2, Velocity (0 - 127): 64
0    |  MIDI Event: Chan 5 Note OFF: F#3, Velocity (0 - 127): 64
0    |  MIDI Event: Chan 6 Note OFF: D5, Velocity (0 - 127): 64
0    |  MIDI Event: Chan 6 Note OFF: D4, Velocity (0 - 127): 64
0    |  MIDI Event: Chan 7 Note OFF: D5, Velocity (0 - 127): 64
1    |  MIDI Event: Chan 1 Note ON: F#3, Velocity (0 - 127): 49
0    |  MIDI Event: Chan 1 Note ON: A3, Velocity (0 - 127): 85
0    |  MIDI Event: Chan 1 Note ON: D4, Velocity (0 - 127): 75
0    |  MIDI Event: Chan 2 Control/Mode Change: Expression Control (0-127): 64
0    |  MIDI Event: Chan 2 Note ON: D2, Velocity (0 - 127): 120
0    |  MIDI Event: Chan 3 Control/Mode Change: Expression Control (0-127): 71
0    |  MIDI Event: Chan 5 Note ON: A2, Velocity (0 - 127): 105
0    |  MIDI Event: Chan 5 Note ON: D3, Velocity (0 - 127): 116
0    |  MIDI Event: Chan 6 Note ON: E4, Velocity (0 - 127): 81
0    |  MIDI Event: Chan 6 Note ON: E5, Velocity (0 - 127): 81
0    |  MIDI Event: Chan 7 Note ON: E5, Velocity (0 - 127): 120
0    |  MIDI Event: Chan 10 Note ON: B1, Velocity (0 - 127): 120
0    |  MIDI Event: Chan 10 Note ON: F#2, Velocity (0 - 127): 120
0    |  MIDI Event: Chan 10 Note ON: B3, Velocity (0 - 127): 118
0    |  MIDI Event: Chan 12 Note ON: E5, Velocity (0 - 127): 120
29   |  MIDI Event: Chan 12 Note OFF: E5, Velocity (0 - 127): 64
0    |  MIDI Event: Chan 10 Note OFF: B3, Velocity (0 - 127): 64
0    |  MIDI Event: Chan 7 Note OFF: E5, Velocity (0 - 127): 64
0    |  MIDI Event: Chan 6 Note OFF: E4, Velocity (0 - 127): 64
0    |  MIDI Event: Chan 10 Note OFF: F#2, Velocity (0 - 127): 64
0    |  MIDI Event: Chan 6 Note OFF: E5, Velocity (0 - 127): 64
0    |  MIDI Event: Chan 10 Note OFF: B1, Velocity (0 - 127): 64
1    |  MIDI Event: Chan 6 Note ON: D4, Velocity (0 - 127): 95
0    |  MIDI Event: Chan 6 Note ON: D5, Velocity (0 - 127): 95
0    |  MIDI Event: Chan 7 Note ON: D5, Velocity (0 - 127): 120
0    |  MIDI Event: Chan 12 Note ON: D5, Velocity (0 - 127): 120
29   |  MIDI Event: Chan 12 Note OFF: D5, Velocity (0 - 127): 64
0    |  MIDI Event: Chan 5 Note OFF: A2, Velocity (0 - 127): 64
0    |  MIDI Event: Chan 1 Note OFF: A3, Velocity (0 - 127): 64
0    |  MIDI Event: Chan 1 Note OFF: F#3, Velocity (0 - 127): 64
0    |  MIDI Event: Chan 5 Note OFF: D3, Velocity (0 - 127): 64
0    |  MIDI Event: Chan 6 Note OFF: D4, Velocity (0 - 127): 64
0    |  MIDI Event: Chan 1 Note OFF: D4, Velocity (0 - 127): 64
0    |  MIDI Event: Chan 7 Note OFF: D5, Velocity (0 - 127): 64
0    |  MIDI Event: Chan 6 Note OFF: D5, Velocity (0 - 127): 64
1    |  MIDI Event: Chan 1 Note ON: A3, Velocity (0 - 127): 56
0    |  MIDI Event: Chan 1 Note ON: D4, Velocity (0 - 127): 84
0    |  MIDI Event: Chan 1 Note ON: F#4, Velocity (0 - 127): 49
0    |  MIDI Event: Chan 2 Control/Mode Change: Expression Control (0-127): 127
0    |  MIDI Event: Chan 3 Control/Mode Change: Expression Control (0-127): 127
0    |  MIDI Event: Chan 5 Note ON: D3, Velocity (0 - 127): 105
0    |  MIDI Event: Chan 5 Note ON: F#3, Velocity (0 - 127): 115
0    |  MIDI Event: Chan 6 Note ON: E4, Velocity (0 - 127): 111
0    |  MIDI Event: Chan 6 Note ON: E5, Velocity (0 - 127): 111
0    |  MIDI Event: Chan 7 Note ON: E5, Velocity (0 - 127): 120
0    |  MIDI Event: Chan 10 Note ON: A#2, Velocity (0 - 127): 120
0    |  MIDI Event: Chan 10 Note ON: C#5, Velocity (0 - 127): 115
0    |  MIDI Event: Chan 12 Note ON: E5, Velocity (0 - 127): 120
29   |  MIDI Event: Chan 10 Note OFF: C#5, Velocity (0 - 127): 64
0    |  MIDI Event: Chan 5 Note OFF: D3, Velocity (0 - 127): 64
0    |  MIDI Event: Chan 1 Note OFF: A3, Velocity (0 - 127): 64
0    |  MIDI Event: Chan 1 Note OFF: F#4, Velocity (0 - 127): 64
0    |  MIDI Event: Chan 10 Note OFF: A#2, Velocity (0 - 127): 64
0    |  MIDI Event: Chan 1 Note OFF: D4, Velocity (0 - 127): 64
0    |  MIDI Event: Chan 5 Note OFF: F#3, Velocity (0 - 127): 64
1    |  MIDI Event: Chan 1 Note ON: A3, Velocity (0 - 127): 84
0    |  MIDI Event: Chan 1 Note ON: D4, Velocity (0 - 127): 94
0    |  MIDI Event: Chan 1 Note ON: F#4, Velocity (0 - 127): 76
0    |  MIDI Event: Chan 5 Note ON: D3, Velocity (0 - 127): 100
0    |  MIDI Event: Chan 5 Note ON: F#3, Velocity (0 - 127): 92
21   |  MIDI Event: Chan 6 Pitch Bend Change (0-16383): 7749 (factor==0.992841)
2    |  MIDI Event: Chan 6 Pitch Bend Change (0-16383): 6215 (factor==0.968447)
3    |  MIDI Event: Chan 6 Pitch Bend Change (0-16383): 4197 (factor==0.937266)
2    |  MIDI Event: Chan 6 Pitch Bend Change (0-16383): 2422 (factor==0.91067)
1    |  MIDI Event: Chan 5 Note OFF: F#3, Velocity (0 - 127): 64
0    |  MIDI Event: Chan 3 Note OFF: D4, Velocity (0 - 127): 64
0    |  MIDI Event: Chan 3 Note OFF: F#4, Velocity (0 - 127): 64
0    |  MIDI Event: Chan 2 Note OFF: D2, Velocity (0 - 127): 64
0    |  MIDI Event: Chan 6 Note OFF: E5, Velocity (0 - 127): 64
0    |  MIDI Event: Chan 12 Note OFF: E5, Velocity (0 - 127): 64
0    |  MIDI Event: Chan 3 Note OFF: A3, Velocity (0 - 127): 64
0    |  MIDI Event: Chan 6 Note OFF: E4, Velocity (0 - 127): 64
0    |  MIDI Event: Chan 1 Note OFF: F#4, Velocity (0 - 127): 64
0    |  MIDI Event: Chan 1 Note OFF: A3, Velocity (0 - 127): 64
0    |  MIDI Event: Chan 7 Note OFF: E5, Velocity (0 - 127): 64
0    |  MIDI Event: Chan 5 Note OFF: D3, Velocity (0 - 127): 64
0    |  MIDI Event: Chan 1 Note OFF: D4, Velocity (0 - 127): 64
1    |  MIDI Event: Chan 1 Note ON: E3, Velocity (0 - 127): 47
0    |  MIDI Event: Chan 1 Note ON: A3, Velocity (0 - 127): 89
0    |  MIDI Event: Chan 1 Note ON: C#4, Velocity (0 - 127): 52
0    |  MIDI Event: Chan 2 Control/Mode Change: Expression Control (0-127): 64
0    |  MIDI Event: Chan 2 Note ON: A1, Velocity (0 - 127): 120
0    |  MIDI Event: Chan 3 Control/Mode Change: Expression Control (0-127): 80
0    |  MIDI Event: Chan 3 Note ON: A3, Velocity (0 - 127): 120
0    |  MIDI Event: Chan 3 Note ON: C#4, Velocity (0 - 127): 120
0    |  MIDI Event: Chan 3 Note ON: E4, Velocity (0 - 127): 120
0    |  MIDI Event: Chan 5 Note ON: A2, Velocity (0 - 127): 101
0    |  MIDI Event: Chan 5 Note ON: E3, Velocity (0 - 127): 101
0    |  MIDI Event: Chan 6 Note ON: F#4, Velocity (0 - 127): 119
0    |  MIDI Event: Chan 6 Note ON: F#5, Velocity (0 - 127): 119
0    |  MIDI Event: Chan 7 Note ON: F#5, Velocity (0 - 127): 120
0    |  MIDI Event: Chan 10 Note ON: B1, Velocity (0 - 127): 120
0    |  MIDI Event: Chan 10 Note ON: F#2, Velocity (0 - 127): 120
0    |  MIDI Event: Chan 10 Note ON: B3, Velocity (0 - 127): 119
0    |  MIDI Event: Chan 12 Note ON: F#5, Velocity (0 - 127): 120
1    |  MIDI Event: Chan 6 Pitch Bend Change (0-16383): 1211 (factor==0.89296)
2    |  MIDI Event: Chan 6 Pitch Bend Change (0-16383): 646 (factor==0.884815)
3    |  MIDI Event: Chan 6 Pitch Bend Change (0-16383): 565 (factor==0.883653)
2    |  MIDI Event: Chan 6 Pitch Bend Change (0-16383): 646 (factor==0.884815)
3    |  MIDI Event: Chan 6 Pitch Bend Change (0-16383): 1373 (factor==0.895309)
2    |  MIDI Event: Chan 6 Pitch Bend Change (0-16383): 2260 (factor==0.908281)
3    |  MIDI Event: Chan 6 Pitch Bend Change (0-16383): 3471 (factor==0.926295)
2    |  MIDI Event: Chan 6 Pitch Bend Change (0-16383): 5085 (factor==0.950861)
3    |  MIDI Event: Chan 6 Pitch Bend Change (0-16383): 6942 (factor==0.979932)
2    |  MIDI Event: Chan 6 Pitch Bend Change (0-16383): 8071 (factor==0.99804)
3    |  MIDI Event: Chan 6 Pitch Bend Change (0-16383): 8192 (factor==1)
3    |  MIDI Event: Chan 10 Note OFF: B3, Velocity (0 - 127): 64
0    |  MIDI Event: Chan 10 Note OFF: F#2, Velocity (0 - 127): 64
0    |  MIDI Event: Chan 10 Note OFF: B1, Velocity (0 - 127): 64
30   |  MIDI Event: Chan 12 Note OFF: F#5, Velocity (0 - 127): 64
0    |  MIDI Event: Chan 6 Note OFF: F#4, Velocity (0 - 127): 64
0    |  MIDI Event: Chan 1 Note OFF: C#4, Velocity (0 - 127): 64
0    |  MIDI Event: Chan 5 Note OFF: A2, Velocity (0 - 127): 64
0    |  MIDI Event: Chan 1 Note OFF: E3, Velocity (0 - 127): 64
0    |  MIDI Event: Chan 5 Note OFF: E3, Velocity (0 - 127): 64
0    |  MIDI Event: Chan 6 Note OFF: F#5, Velocity (0 - 127): 64
0    |  MIDI Event: Chan 7 Note OFF: F#5, Velocity (0 - 127): 64
0    |  MIDI Event: Chan 1 Note OFF: A3, Velocity (0 - 127): 64
1    |  MIDI Event: Chan 1 Note ON: A3, Velocity (0 - 127): 51
0    |  MIDI Event: Chan 1 Note ON: C#4, Velocity (0 - 127): 52
0    |  MIDI Event: Chan 1 Note ON: E4, Velocity (0 - 127): 78
0    |  MIDI Event: Chan 2 Control/Mode Change: Expression Control (0-127): 127
0    |  MIDI Event: Chan 3 Control/Mode Change: Expression Control (0-127): 127
0    |  MIDI Event: Chan 5 Note ON: C#3, Velocity (0 - 127): 89
0    |  MIDI Event: Chan 5 Note ON: E3, Velocity (0 - 127): 101
0    |  MIDI Event: Chan 5 Note ON: A3, Velocity (0 - 127): 89
0    |  MIDI Event: Chan 6 Note ON: D4, Velocity (0 - 127): 98
0    |  MIDI Event: Chan 6 Note ON: D5, Velocity (0 - 127): 98
0    |  MIDI Event: Chan 7 Note ON: D5, Velocity (0 - 127): 120
0    |  MIDI Event: Chan 10 Note ON: A#2, Velocity (0 - 127): 120
0    |  MIDI Event: Chan 10 Note ON: C#5, Velocity (0 - 127): 111
0    |  MIDI Event: Chan 12 Note ON: D5, Velocity (0 - 127): 120
29   |  MIDI Event: Chan 10 Note OFF: C#5, Velocity (0 - 127): 64
0    |  MIDI Event: Chan 5 Note OFF: E3, Velocity (0 - 127): 64
0    |  MIDI Event: Chan 1 Note OFF: C#4, Velocity (0 - 127): 64
0    |  MIDI Event: Chan 1 Note OFF: A3, Velocity (0 - 127): 64
0    |  MIDI Event: Chan 1 Note OFF: E4, Velocity (0 - 127): 64
0    |  MIDI Event: Chan 5 Note OFF: C#3, Velocity (0 - 127): 64
0    |  MIDI Event: Chan 10 Note OFF: A#2, Velocity (0 - 127): 64
0    |  MIDI Event: Chan 5 Note OFF: A3, Velocity (0 - 127): 64
1    |  MIDI Event: Chan 1 Note ON: A3, Velocity (0 - 127): 73
0    |  MIDI Event: Chan 1 Note ON: C#4, Velocity (0 - 127): 52
0    |  MIDI Event: Chan 1 Note ON: E4, Velocity (0 - 127): 83
0    |  MIDI Event: Chan 5 Note ON: C#3, Velocity (0 - 127): 119
0    |  MIDI Event: Chan 5 Note ON: E3, Velocity (0 - 127): 118
0    |  MIDI Event: Chan 5 Note ON: A3, Velocity (0 - 127): 105
29   |  MIDI Event: Chan 5 Note OFF: A3, Velocity (0 - 127): 64
0    |  MIDI Event: Chan 6 Note OFF: D4, Velocity (0 - 127): 64
0    |  MIDI Event: Chan 2 Note OFF: A1, Velocity (0 - 127): 64
0    |  MIDI Event: Chan 7 Note OFF: D5, Velocity (0 - 127): 64
0    |  MIDI Event: Chan 3 Note OFF: A3, Velocity (0 - 127): 64
0    |  MIDI Event: Chan 6 Note OFF: D5, Velocity (0 - 127): 64
0    |  MIDI Event: Chan 3 Note OFF: C#4, Velocity (0 - 127): 64
0    |  MIDI Event: Chan 12 Note OFF: D5, Velocity (0 - 127): 64
0    |  MIDI Event: Chan 5 Note OFF: C#3, Velocity (0 - 127): 64
0    |  MIDI Event: Chan 1 Note OFF: E4, Velocity (0 - 127): 64
0    |  MIDI Event: Chan 1 Note OFF: A3, Velocity (0 - 127): 64
0    |  MIDI Event: Chan 3 Note OFF: E4, Velocity (0 - 127): 64
0    |  MIDI Event: Chan 5 Note OFF: E3, Velocity (0 - 127): 64
0    |  MIDI Event: Chan 1 Note OFF: C#4, Velocity (0 - 127): 64
1    |  MIDI Event: Chan 1 Note ON: B3, Velocity (0 - 127): 58
0    |  MIDI Event: Chan 1 Note ON: D4, Velocity (0 - 127): 91
0    |  MIDI Event: Chan 2 Control/Mode Change: Expression Control (0-127): 64
0    |  MIDI Event: Chan 2 Note ON: B1, Velocity (0 - 127): 120
0    |  MIDI Event: Chan 3 Control/Mode Change: Expression Control (0-127): 64
0    |  MIDI Event: Chan 3 Note ON: B3, Velocity (0 - 127): 120
0    |  MIDI Event: Chan 3 Note ON: D4, Velocity (0 - 127): 120
0    |  MIDI Event: Chan 3 Note ON: F#4, Velocity (0 - 127): 120
0    |  MIDI Event: Chan 5 Note ON: B2, Velocity (0 - 127): 85
0    |  MIDI Event: Chan 5 Note ON: F#3, Velocity (0 - 127): 120
0    |  MIDI Event: Chan 6 Note ON: B3, Velocity (0 - 127): 105
0    |  MIDI Event: Chan 6 Note ON: B4, Velocity (0 - 127): 105
0    |  MIDI Event: Chan 7 Note ON: B4, Velocity (0 - 127): 120
0    |  MIDI Event: Chan 10 Note ON: B1, Velocity (0 - 127): 120
0    |  MIDI Event: Chan 10 Note ON: F#2, Velocity (0 - 127): 120
0    |  MIDI Event: Chan 10 Note ON: B3, Velocity (0 - 127): 119
0    |  MIDI Event: Chan 12 Note ON: B4, Velocity (0 - 127): 120
29   |  MIDI Event: Chan 10 Note OFF: B3, Velocity (0 - 127): 64
0    |  MIDI Event: Chan 10 Note OFF: F#2, Velocity (0 - 127): 64
0    |  MIDI Event: Chan 10 Note OFF: B1, Velocity (0 - 127): 64
30   |  MIDI Event: Chan 6 Note OFF: B4, Velocity (0 - 127): 64
0    |  MIDI Event: Chan 5 Note OFF: B2, Velocity (0 - 127): 64
0    |  MIDI Event: Chan 5 Note OFF: F#3, Velocity (0 - 127): 64
0    |  MIDI Event: Chan 1 Note OFF: B3, Velocity (0 - 127): 64
0    |  MIDI Event: Chan 6 Note OFF: B3, Velocity (0 - 127): 64
0    |  MIDI Event: Chan 7 Note OFF: B4, Velocity (0 - 127): 64
0    |  MIDI Event: Chan 12 Note OFF: B4, Velocity (0 - 127): 64
0    |  MIDI Event: Chan 1 Note OFF: D4, Velocity (0 - 127): 64
1    |  MIDI Event: Chan 1 Note ON: B3, Velocity (0 - 127): 79
0    |  MIDI Event: Chan 1 Note ON: D4, Velocity (0 - 127): 95
0    |  MIDI Event: Chan 1 Note ON: F#4, Velocity (0 - 127): 74
0    |  MIDI Event: Chan 2 Control/Mode Change: Expression Control (0-127): 127
0    |  MIDI Event: Chan 3 Control/Mode Change: Expression Control (0-127): 127
0    |  MIDI Event: Chan 5 Note ON: D3, Velocity (0 - 127): 92
0    |  MIDI Event: Chan 5 Note ON: F#3, Velocity (0 - 127): 87
0    |  MIDI Event: Chan 5 Note ON: D4, Velocity (0 - 127): 95
0    |  MIDI Event: Chan 10 Note ON: A#2, Velocity (0 - 127): 120
0    |  MIDI Event: Chan 10 Note ON: C#5, Velocity (0 - 127): 109
29   |  MIDI Event: Chan 10 Note OFF: C#5, Velocity (0 - 127): 64
0    |  MIDI Event: Chan 10 Note OFF: A#2, Velocity (0 - 127): 64
30   |  MIDI Event: Chan 2 Note OFF: B1, Velocity (0 - 127): 64
1    |  MIDI Event: Chan 2 Control/Mode Change: Expression Control (0-127): 64
0    |  MIDI Event: Chan 2 Note ON: B1, Velocity (0 - 127): 120
0    |  MIDI Event: Chan 3 Control/Mode Change: Expression Control (0-127): 73
0    |  MIDI Event: Chan 6 Note ON: B3, Velocity (0 - 127): 119
0    |  MIDI Event: Chan 6 Note ON: B4, Velocity (0 - 127): 119
0    |  MIDI Event: Chan 7 Note ON: B4, Velocity (0 - 127): 120
0    |  MIDI Event: Chan 10 Note ON: B1, Velocity (0 - 127): 120
0    |  MIDI Event: Chan 10 Note ON: F#2, Velocity (0 - 127): 120
0    |  MIDI Event: Chan 10 Note ON: B3, Velocity (0 - 127): 118
0    |  MIDI Event: Chan 12 Note ON: B4, Velocity (0 - 127): 120
29   |  MIDI Event: Chan 10 Note OFF: B3, Velocity (0 - 127): 64
0    |  MIDI Event: Chan 10 Note OFF: F#2, Velocity (0 - 127): 64
0    |  MIDI Event: Chan 5 Note OFF: D3, Velocity (0 - 127): 64
0    |  MIDI Event: Chan 1 Note OFF: F#4, Velocity (0 - 127): 64
0    |  MIDI Event: Chan 1 Note OFF: D4, Velocity (0 - 127): 64
0    |  MIDI Event: Chan 1 Note OFF: B3, Velocity (0 - 127): 64
0    |  MIDI Event: Chan 5 Note OFF: D4, Velocity (0 - 127): 64
0    |  MIDI Event: Chan 10 Note OFF: B1, Velocity (0 - 127): 64
0    |  MIDI Event: Chan 5 Note OFF: F#3, Velocity (0 - 127): 64
1    |  MIDI Event: Chan 1 Note ON: B3, Velocity (0 - 127): 71
0    |  MIDI Event: Chan 1 Note ON: D4, Velocity (0 - 127): 91
0    |  MIDI Event: Chan 1 Note ON: F#4, Velocity (0 - 127): 60
0    |  MIDI Event: Chan 5 Note ON: F#3, Velocity (0 - 127): 109
0    |  MIDI Event: Chan 5 Note ON: B3, Velocity (0 - 127): 95
29   |  MIDI Event: Chan 5 Note OFF: B3, Velocity (0 - 127): 64
0    |  MIDI Event: Chan 7 Note OFF: B4, Velocity (0 - 127): 64
0    |  MIDI Event: Chan 1 Note OFF: D4, Velocity (0 - 127): 64
0    |  MIDI Event: Chan 12 Note OFF: B4, Velocity (0 - 127): 64
0    |  MIDI Event: Chan 6 Note OFF: B4, Velocity (0 - 127): 64
0    |  MIDI Event: Chan 1 Note OFF: B3, Velocity (0 - 127): 64
0    |  MIDI Event: Chan 5 Note OFF: F#3, Velocity (0 - 127): 64
0    |  MIDI Event: Chan 6 Note OFF: B3, Velocity (0 - 127): 64
0    |  MIDI Event: Chan 1 Note OFF: F#4, Velocity (0 - 127): 64
1    |  MIDI Event: Chan 1 Note ON: D4, Velocity (0 - 127): 80
0    |  MIDI Event: Chan 1 Note ON: F#4, Velocity (0 - 127): 62
0    |  MIDI Event: Chan 1 Note ON: B4, Velocity (0 - 127): 91
0    |  MIDI Event: Chan 2 Control/Mode Change: Expression Control (0-127): 127
0    |  MIDI Event: Chan 3 Control/Mode Change: Expression Control (0-127): 127
0    |  MIDI Event: Chan 5 Note ON: D3, Velocity (0 - 127): 103
0    |  MIDI Event: Chan 5 Note ON: F#3, Velocity (0 - 127): 115
0    |  MIDI Event: Chan 10 Note ON: A#2, Velocity (0 - 127): 120
0    |  MIDI Event: Chan 10 Note ON: C#5, Velocity (0 - 127): 119
29   |  MIDI Event: Chan 10 Note OFF: C#5, Velocity (0 - 127): 64
0    |  MIDI Event: Chan 5 Note OFF: D3, Velocity (0 - 127): 64
0    |  MIDI Event: Chan 10 Note OFF: A#2, Velocity (0 - 127): 64
0    |  MIDI Event: Chan 1 Note OFF: B4, Velocity (0 - 127): 64
0    |  MIDI Event: Chan 5 Note OFF: F#3, Velocity (0 - 127): 64
0    |  MIDI Event: Chan 1 Note OFF: D4, Velocity (0 - 127): 64
0    |  MIDI Event: Chan 1 Note OFF: F#4, Velocity (0 - 127): 64
1    |  MIDI Event: Chan 1 Note ON: B3, Velocity (0 - 127): 51
0    |  MIDI Event: Chan 1 Note ON: D4, Velocity (0 - 127): 85
0    |  MIDI Event: Chan 1 Note ON: F#4, Velocity (0 - 127): 59
0    |  MIDI Event: Chan 5 Note ON: B2, Velocity (0 - 127): 92
0    |  MIDI Event: Chan 5 Note ON: E3, Velocity (0 - 127): 98
0    |  MIDI Event: Chan 6 Note ON: A3, Velocity (0 - 127): 91
0    |  MIDI Event: Chan 6 Note ON: A4, Velocity (0 - 127): 91
0    |  MIDI Event: Chan 7 Note ON: A4, Velocity (0 - 127): 120
0    |  MIDI Event: Chan 12 Note ON: A4, Velocity (0 - 127): 120
29   |  MIDI Event: Chan 12 Note OFF: A4, Velocity (0 - 127): 64
0    |  MIDI Event: Chan 1 Note OFF: D4, Velocity (0 - 127): 64
0    |  MIDI Event: Chan 3 Note OFF: F#4, Velocity (0 - 127): 64
0    |  MIDI Event: Chan 5 Note OFF: B2, Velocity (0 - 127): 64
0    |  MIDI Event: Chan 2 Note OFF: B1, Velocity (0 - 127): 64
0    |  MIDI Event: Chan 3 Note OFF: D4, Velocity (0 - 127): 64
0    |  MIDI Event: Chan 3 Note OFF: B3, Velocity (0 - 127): 64
0    |  MIDI Event: Chan 1 Note OFF: B3, Velocity (0 - 127): 64
0    |  MIDI Event: Chan 6 Note OFF: A4, Velocity (0 - 127): 64
0    |  MIDI Event: Chan 5 Note OFF: E3, Velocity (0 - 127): 64
0    |  MIDI Event: Chan 1 Note OFF: F#4, Velocity (0 - 127): 64
0    |  MIDI Event: Chan 7 Note OFF: A4, Velocity (0 - 127): 64
0    |  MIDI Event: Chan 6 Note OFF: A3, Velocity (0 - 127): 64
1    |  MIDI Event: Chan 1 Note ON: G3, Velocity (0 - 127): 74
0    |  MIDI Event: Chan 1 Note ON: B3, Velocity (0 - 127): 94
0    |  MIDI Event: Chan 1 Note ON: D4, Velocity (0 - 127): 91
0    |  MIDI Event: Chan 2 Control/Mode Change: Expression Control (0-127): 64
0    |  MIDI Event: Chan 2 Note ON: G1, Velocity (0 - 127): 120
0    |  MIDI Event: Chan 3 Control/Mode Change: Expression Control (0-127): 71
0    |  MIDI Event: Chan 3 Note ON: B3, Velocity (0 - 127): 120
0    |  MIDI Event: Chan 3 Note ON: D4, Velocity (0 - 127): 120
0    |  MIDI Event: Chan 3 Note ON: G4, Velocity (0 - 127): 120
0    |  MIDI Event: Chan 5 Note ON: G2, Velocity (0 - 127): 98
0    |  MIDI Event: Chan 5 Note ON: D3, Velocity (0 - 127): 116
0    |  MIDI Event: Chan 6 Note ON: B3, Velocity (0 - 127): 97
0    |  MIDI Event: Chan 6 Note ON: B4, Velocity (0 - 127): 97
0    |  MIDI Event: Chan 7 Note ON: B4, Velocity (0 - 127): 120
0    |  MIDI Event: Chan 10 Note ON: B1, Velocity (0 - 127): 120
0    |  MIDI Event: Chan 10 Note ON: F#2, Velocity (0 - 127): 120
0    |  MIDI Event: Chan 10 Note ON: B3, Velocity (0 - 127): 116
0    |  MIDI Event: Chan 12 Note ON: B4, Velocity (0 - 127): 120
29   |  MIDI Event: Chan 12 Note OFF: B4, Velocity (0 - 127): 64
0    |  MIDI Event: Chan 10 Note OFF: B3, Velocity (0 - 127): 64
0    |  MIDI Event: Chan 7 Note OFF: B4, Velocity (0 - 127): 64
0    |  MIDI Event: Chan 6 Note OFF: B3, Velocity (0 - 127): 64
0    |  MIDI Event: Chan 10 Note OFF: F#2, Velocity (0 - 127): 64
0    |  MIDI Event: Chan 6 Note OFF: B4, Velocity (0 - 127): 64
0    |  MIDI Event: Chan 10 Note OFF: B1, Velocity (0 - 127): 64
1    |  MIDI Event: Chan 6 Note ON: D4, Velocity (0 - 127): 80
0    |  MIDI Event: Chan 6 Note ON: D5, Velocity (0 - 127): 80
0    |  MIDI Event: Chan 7 Note ON: D5, Velocity (0 - 127): 120
0    |  MIDI Event: Chan 12 Note ON: D5, Velocity (0 - 127): 120
29   |  MIDI Event: Chan 12 Note OFF: D5, Velocity (0 - 127): 64
0    |  MIDI Event: Chan 5 Note OFF: G2, Velocity (0 - 127): 64
0    |  MIDI Event: Chan 1 Note OFF: B3, Velocity (0 - 127): 64
0    |  MIDI Event: Chan 1 Note OFF: G3, Velocity (0 - 127): 64
0    |  MIDI Event: Chan 5 Note OFF: D3, Velocity (0 - 127): 64
0    |  MIDI Event: Chan 6 Note OFF: D4, Velocity (0 - 127): 64
0    |  MIDI Event: Chan 1 Note OFF: D4, Velocity (0 - 127): 64
0    |  MIDI Event: Chan 7 Note OFF: D5, Velocity (0 - 127): 64
0    |  MIDI Event: Chan 6 Note OFF: D5, Velocity (0 - 127): 64
1    |  MIDI Event: Chan 1 Note ON: B3, Velocity (0 - 127): 70
0    |  MIDI Event: Chan 1 Note ON: D4, Velocity (0 - 127): 94
0    |  MIDI Event: Chan 1 Note ON: G4, Velocity (0 - 127): 101
0    |  MIDI Event: Chan 2 Control/Mode Change: Expression Control (0-127): 127
0    |  MIDI Event: Chan 3 Control/Mode Change: Expression Control (0-127): 127
0    |  MIDI Event: Chan 5 Note ON: D3, Velocity (0 - 127): 79
0    |  MIDI Event: Chan 5 Note ON: G3, Velocity (0 - 127): 111
0    |  MIDI Event: Chan 5 Note ON: B3, Velocity (0 - 127): 100
0    |  MIDI Event: Chan 6 Note ON: B3, Velocity (0 - 127): 113
0    |  MIDI Event: Chan 6 Note ON: B4, Velocity (0 - 127): 113
0    |  MIDI Event: Chan 7 Note ON: B4, Velocity (0 - 127): 120
0    |  MIDI Event: Chan 10 Note ON: A#2, Velocity (0 - 127): 120
0    |  MIDI Event: Chan 10 Note ON: C#5, Velocity (0 - 127): 119
0    |  MIDI Event: Chan 12 Note ON: B4, Velocity (0 - 127): 120
29   |  MIDI Event: Chan 10 Note OFF: C#5, Velocity (0 - 127): 64
0    |  MIDI Event: Chan 10 Note OFF: A#2, Velocity (0 - 127): 64
30   |  MIDI Event: Chan 6 Note OFF: B4, Velocity (0 - 127): 64
0    |  MIDI Event: Chan 12 Note OFF: B4, Velocity (0 - 127): 64
0    |  MIDI Event: Chan 2 Note OFF: G1, Velocity (0 - 127): 64
0    |  MIDI Event: Chan 6 Note OFF: B3, Velocity (0 - 127): 64
0    |  MIDI Event: Chan 7 Note OFF: B4, Velocity (0 - 127): 64
1    |  MIDI Event: Chan 2 Control/Mode Change: Expression Control (0-127): 64
0    |  MIDI Event: Chan 2 Note ON: G1, Velocity (0 - 127): 120
0    |  MIDI Event: Chan 3 Control/Mode Change: Expression Control (0-127): 80
0    |  MIDI Event: Chan 10 Note ON: B1, Velocity (0 - 127): 120
0    |  MIDI Event: Chan 10 Note ON: F#2, Velocity (0 - 127): 120
0    |  MIDI Event: Chan 10 Note ON: B3, Velocity (0 - 127): 120
29   |  MIDI Event: Chan 10 Note OFF: B3, Velocity (0 - 127): 64
0    |  MIDI Event: Chan 5 Note OFF: G3, Velocity (0 - 127): 64
0    |  MIDI Event: Chan 1 Note OFF: G4, Velocity (0 - 127): 64
0    |  MIDI Event: Chan 5 Note OFF: B3, Velocity (0 - 127): 64
0    |  MIDI Event: Chan 1 Note OFF: D4, Velocity (0 - 127): 64
0    |  MIDI Event: Chan 1 Note OFF: B3, Velocity (0 - 127): 64
0    |  MIDI Event: Chan 5 Note OFF: D3, Velocity (0 - 127): 64
0    |  MIDI Event: Chan 10 Note OFF: F#2, Velocity (0 - 127): 64
0    |  MIDI Event: Chan 10 Note OFF: B1, Velocity (0 - 127): 64
1    |  MIDI Event: Chan 1 Note ON: B3, Velocity (0 - 127): 52
0    |  MIDI Event: Chan 1 Note ON: D4, Velocity (0 - 127): 85
0    |  MIDI Event: Chan 1 Note ON: G4, Velocity (0 - 127): 94
0    |  MIDI Event: Chan 5 Note ON: D3, Velocity (0 - 127): 82
0    |  MIDI Event: Chan 5 Note ON: G3, Velocity (0 - 127): 98
0    |  MIDI Event: Chan 5 Note ON: B3, Velocity (0 - 127): 85
0    |  MIDI Event: Chan 6 Note ON: A3, Velocity (0 - 127): 98
0    |  MIDI Event: Chan 6 Note ON: A4, Velocity (0 - 127): 98
0    |  MIDI Event: Chan 7 Note ON: A4, Velocity (0 - 127): 120
0    |  MIDI Event: Chan 12 Note ON: A4, Velocity (0 - 127): 120
29   |  MIDI Event: Chan 12 Note OFF: A4, Velocity (0 - 127): 64
0    |  MIDI Event: Chan 1 Note OFF: B3, Velocity (0 - 127): 64
0    |  MIDI Event: Chan 1 Note OFF: D4, Velocity (0 - 127): 64
0    |  MIDI Event: Chan 5 Note OFF: B3, Velocity (0 - 127): 64
0    |  MIDI Event: Chan 5 Note OFF: D3, Velocity (0 - 127): 64
0    |  MIDI Event: Chan 1 Note OFF: G4, Velocity (0 - 127): 64
0    |  MIDI Event: Chan 5 Note OFF: G3, Velocity (0 - 127): 64
0    |  MIDI Event: Chan 7 Note OFF: A4, Velocity (0 - 127): 64
0    |  MIDI Event: Chan 6 Note OFF: A4, Velocity (0 - 127): 64
0    |  MIDI Event: Chan 6 Note OFF: A3, Velocity (0 - 127): 64
1    |  MIDI Event: Chan 1 Note ON: D4, Velocity (0 - 127): 78
0    |  MIDI Event: Chan 1 Note ON: G4, Velocity (0 - 127): 100
0    |  MIDI Event: Chan 1 Note ON: B4, Velocity (0 - 127): 46
0    |  MIDI Event: Chan 2 Control/Mode Change: Expression Control (0-127): 127
0    |  MIDI Event: Chan 3 Control/Mode Change: Expression Control (0-127): 127
0    |  MIDI Event: Chan 5 Note ON: G2, Velocity (0 - 127): 109
0    |  MIDI Event: Chan 5 Note ON: D3, Velocity (0 - 127): 109
0    |  MIDI Event: Chan 6 Note ON: B3, Velocity (0 - 127): 101
0    |  MIDI Event: Chan 6 Note ON: B4, Velocity (0 - 127): 101
0    |  MIDI Event: Chan 7 Note ON: B4, Velocity (0 - 127): 120
0    |  MIDI Event: Chan 10 Note ON: A#2, Velocity (0 - 127): 120
0    |  MIDI Event: Chan 10 Note ON: C#5, Velocity (0 - 127): 115
0    |  MIDI Event: Chan 12 Note ON: B4, Velocity (0 - 127): 120
29   |  MIDI Event: Chan 12 Note OFF: B4, Velocity (0 - 127): 64
0    |  MIDI Event: Chan 7 Note OFF: B4, Velocity (0 - 127): 64
0    |  MIDI Event: Chan 1 Note OFF: D4, Velocity (0 - 127): 64
0    |  MIDI Event: Chan 1 Note OFF: G4, Velocity (0 - 127): 64
0    |  MIDI Event: Chan 6 Note OFF: B3, Velocity (0 - 127): 64
0    |  MIDI Event: Chan 5 Note OFF: G2, Velocity (0 - 127): 64
0    |  MIDI Event: Chan 1 Note OFF: B4, Velocity (0 - 127): 64
0    |  MIDI Event: Chan 5 Note OFF: D3, Velocity (0 - 127): 64
0    |  MIDI Event: Chan 10 Note OFF: C#5, Velocity (0 - 127): 64
0    |  MIDI Event: Chan 10 Note OFF: A#2, Velocity (0 - 127): 64
0    |  MIDI Event: Chan 6 Note OFF: B4, Velocity (0 - 127): 64
1    |  MIDI Event: Chan 1 Note ON: B3, Velocity (0 - 127): 45
0    |  MIDI Event: Chan 1 Note ON: D4, Velocity (0 - 127): 73
0    |  MIDI Event: Chan 1 Note ON: G4, Velocity (0 - 127): 86
0    |  MIDI Event: Chan 5 Note ON: G2, Velocity (0 - 127): 101
0    |  MIDI Event: Chan 5 Note ON: E3, Velocity (0 - 127): 116
0    |  MIDI Event: Chan 6 Note ON: A3, Velocity (0 - 127): 91
0    |  MIDI Event: Chan 6 Note ON: A4, Velocity (0 - 127): 91
0    |  MIDI Event: Chan 7 Note ON: A4, Velocity (0 - 127): 120
0    |  MIDI Event: Chan 12 Note ON: A4, Velocity (0 - 127): 120
29   |  MIDI Event: Chan 12 Note OFF: A4, Velocity (0 - 127): 64
0    |  MIDI Event: Chan 1 Note OFF: D4, Velocity (0 - 127): 64
0    |  MIDI Event: Chan 3 Note OFF: D4, Velocity (0 - 127): 64
0    |  MIDI Event: Chan 5 Note OFF: G2, Velocity (0 - 127): 64
0    |  MIDI Event: Chan 3 Note OFF: B3, Velocity (0 - 127): 64
0    |  MIDI Event: Chan 3 Note OFF: G4, Velocity (0 - 127): 64
0    |  MIDI Event: Chan 2 Note OFF: G1, Velocity (0 - 127): 64
0    |  MIDI Event: Chan 1 Note OFF: B3, Velocity (0 - 127): 64
0    |  MIDI Event: Chan 6 Note OFF: A4, Velocity (0 - 127): 64
0    |  MIDI Event: Chan 5 Note OFF: E3, Velocity (0 - 127): 64
0    |  MIDI Event: Chan 1 Note OFF: G4, Velocity (0 - 127): 64
0    |  MIDI Event: Chan 7 Note OFF: A4, Velocity (0 - 127): 64
0    |  MIDI Event: Chan 6 Note OFF: A3, Velocity (0 - 127): 64
1    |  MIDI Event: Chan 1 Note ON: F#3, Velocity (0 - 127): 35
0    |  MIDI Event: Chan 1 Note ON: A3, Velocity (0 - 127): 85
0    |  MIDI Event: Chan 1 Note ON: D4, Velocity (0 - 127): 79
0    |  MIDI Event: Chan 2 Control/Mode Change: Expression Control (0-127): 64
0    |  MIDI Event: Chan 2 Note ON: D2, Velocity (0 - 127): 120
0    |  MIDI Event: Chan 3 Control/Mode Change: Expression Control (0-127): 64
0    |  MIDI Event: Chan 3 Note ON: A3, Velocity (0 - 127): 120
0    |  MIDI Event: Chan 3 Note ON: D4, Velocity (0 - 127): 120
0    |  MIDI Event: Chan 3 Note ON: F#4, Velocity (0 - 127): 120
0    |  MIDI Event: Chan 5 Note ON: A2, Velocity (0 - 127): 90
0    |  MIDI Event: Chan 5 Note ON: D3, Velocity (0 - 127): 105
0    |  MIDI Event: Chan 6 Note ON: D4, Velocity (0 - 127): 105
0    |  MIDI Event: Chan 6 Note ON: D5, Velocity (0 - 127): 105
0    |  MIDI Event: Chan 7 Note ON: D5, Velocity (0 - 127): 120
0    |  MIDI Event: Chan 10 Note ON: B1, Velocity (0 - 127): 120
0    |  MIDI Event: Chan 10 Note ON: F#2, Velocity (0 - 127): 120
0    |  MIDI Event: Chan 10 Note ON: B3, Velocity (0 - 127): 111
0    |  MIDI Event: Chan 12 Note ON: D5, Velocity (0 - 127): 120
29   |  MIDI Event: Chan 10 Note OFF: B3, Velocity (0 - 127): 64
0    |  MIDI Event: Chan 10 Note OFF: F#2, Velocity (0 - 127): 64
0    |  MIDI Event: Chan 10 Note OFF: B1, Velocity (0 - 127): 64
30   |  MIDI Event: Chan 12 Note OFF: D5, Velocity (0 - 127): 64
0    |  MIDI Event: Chan 6 Note OFF: D4, Velocity (0 - 127): 64
0    |  MIDI Event: Chan 1 Note OFF: D4, Velocity (0 - 127): 64
0    |  MIDI Event: Chan 5 Note OFF: A2, Velocity (0 - 127): 64
0    |  MIDI Event: Chan 1 Note OFF: F#3, Velocity (0 - 127): 64
0    |  MIDI Event: Chan 5 Note OFF: D3, Velocity (0 - 127): 64
0    |  MIDI Event: Chan 6 Note OFF: D5, Velocity (0 - 127): 64
0    |  MIDI Event: Chan 7 Note OFF: D5, Velocity (0 - 127): 64
0    |  MIDI Event: Chan 1 Note OFF: A3, Velocity (0 - 127): 64
1    |  MIDI Event: Chan 1 Note ON: A3, Velocity (0 - 127): 69
0    |  MIDI Event: Chan 1 Note ON: D4, Velocity (0 - 127): 98
0    |  MIDI Event: Chan 1 Note ON: F#4, Velocity (0 - 127): 74
0    |  MIDI Event: Chan 2 Control/Mode Change: Expression Control (0-127): 127
0    |  MIDI Event: Chan 3 Control/Mode Change: Expression Control (0-127): 127
0    |  MIDI Event: Chan 5 Note ON: A2, Velocity (0 - 127): 100
0    |  MIDI Event: Chan 5 Note ON: D3, Velocity (0 - 127): 111
0    |  MIDI Event: Chan 5 Note ON: F#3, Velocity (0 - 127): 89
0    |  MIDI Event: Chan 10 Note ON: A#2, Velocity (0 - 127): 120
0    |  MIDI Event: Chan 10 Note ON: C#5, Velocity (0 - 127): 119
29   |  MIDI Event: Chan 10 Note OFF: C#5, Velocity (0 - 127): 64
0    |  MIDI Event: Chan 10 Note OFF: A#2, Velocity (0 - 127): 64
30   |  MIDI Event: Chan 2 Note OFF: D2, Velocity (0 - 127): 64
1    |  MIDI Event: Chan 2 Control/Mode Change: Expression Control (0-127): 64
0    |  MIDI Event: Chan 2 Note ON: D2, Velocity (0 - 127): 120
0    |  MIDI Event: Chan 3 Control/Mode Change: Expression Control (0-127): 73
0    |  MIDI Event: Chan 6 Note ON: D4, Velocity (0 - 127): 119
0    |  MIDI Event: Chan 6 Note ON: D5, Velocity (0 - 127): 119
0    |  MIDI Event: Chan 7 Note ON: D5, Velocity (0 - 127): 120
0    |  MIDI Event: Chan 10 Note ON: B1, Velocity (0 - 127): 120
0    |  MIDI Event: Chan 10 Note ON: F#2, Velocity (0 - 127): 120
0    |  MIDI Event: Chan 10 Note ON: B3, Velocity (0 - 127): 119
0    |  MIDI Event: Chan 12 Note ON: D5, Velocity (0 - 127): 120
29   |  MIDI Event: Chan 10 Note OFF: B3, Velocity (0 - 127): 64
0    |  MIDI Event: Chan 10 Note OFF: F#2, Velocity (0 - 127): 64
0    |  MIDI Event: Chan 5 Note OFF: A2, Velocity (0 - 127): 64
0    |  MIDI Event: Chan 1 Note OFF: F#4, Velocity (0 - 127): 64
0    |  MIDI Event: Chan 1 Note OFF: D4, Velocity (0 - 127): 64
0    |  MIDI Event: Chan 1 Note OFF: A3, Velocity (0 - 127): 64
0    |  MIDI Event: Chan 5 Note OFF: F#3, Velocity (0 - 127): 64
0    |  MIDI Event: Chan 10 Note OFF: B1, Velocity (0 - 127): 64
0    |  MIDI Event: Chan 5 Note OFF: D3, Velocity (0 - 127): 64
1    |  MIDI Event: Chan 1 Note ON: F#3, Velocity (0 - 127): 44
0    |  MIDI Event: Chan 1 Note ON: A3, Velocity (0 - 127): 78
0    |  MIDI Event: Chan 1 Note ON: D4, Velocity (0 - 127): 58
0    |  MIDI Event: Chan 5 Note ON: A2, Velocity (0 - 127): 85
0    |  MIDI Event: Chan 5 Note ON: D3, Velocity (0 - 127): 105
0    |  MIDI Event: Chan 5 Note ON: F#3, Velocity (0 - 127): 81
29   |  MIDI Event: Chan 5 Note OFF: F#3, Velocity (0 - 127): 64
0    |  MIDI Event: Chan 6 Note OFF: D4, Velocity (0 - 127): 64
0    |  MIDI Event: Chan 7 Note OFF: D5, Velocity (0 - 127): 64
0    |  MIDI Event: Chan 1 Note OFF: A3, Velocity (0 - 127): 64
0    |  MIDI Event: Chan 12 Note OFF: D5, Velocity (0 - 127): 64
0    |  MIDI Event: Chan 6 Note OFF: D5, Velocity (0 - 127): 64
0    |  MIDI Event: Chan 1 Note OFF: F#3, Velocity (0 - 127): 64
0    |  MIDI Event: Chan 5 Note OFF: D3, Velocity (0 - 127): 64
0    |  MIDI Event: Chan 5 Note OFF: A2, Velocity (0 - 127): 64
0    |  MIDI Event: Chan 1 Note OFF: D4, Velocity (0 - 127): 64
1    |  MIDI Event: Chan 1 Note ON: A3, Velocity (0 - 127): 57
0    |  MIDI Event: Chan 1 Note ON: D4, Velocity (0 - 127): 91
0    |  MIDI Event: Chan 1 Note ON: F#4, Velocity (0 - 127): 77
0    |  MIDI Event: Chan 2 Control/Mode Change: Expression Control (0-127): 127
0    |  MIDI Event: Chan 3 Control/Mode Change: Expression Control (0-127): 127
0    |  MIDI Event: Chan 5 Note ON: D3, Velocity (0 - 127): 109
0    |  MIDI Event: Chan 5 Note ON: F#3, Velocity (0 - 127): 89
0    |  MIDI Event: Chan 5 Note ON: A3, Velocity (0 - 127): 109
0    |  MIDI Event: Chan 10 Note ON: A#2, Velocity (0 - 127): 120
0    |  MIDI Event: Chan 10 Note ON: C#5, Velocity (0 - 127): 119
29   |  MIDI Event: Chan 10 Note OFF: C#5, Velocity (0 - 127): 64
0    |  MIDI Event: Chan 5 Note OFF: A3, Velocity (0 - 127): 64
0    |  MIDI Event: Chan 5 Note OFF: D3, Velocity (0 - 127): 64
0    |  MIDI Event: Chan 1 Note OFF: F#4, Velocity (0 - 127): 64
0    |  MIDI Event: Chan 5 Note OFF: F#3, Velocity (0 - 127): 64
0    |  MIDI Event: Chan 10 Note OFF: A#2, Velocity (0 - 127): 64
0    |  MIDI Event: Chan 1 Note OFF: A3, Velocity (0 - 127): 64
0    |  MIDI Event: Chan 1 Note OFF: D4, Velocity (0 - 127): 64
1    |  MIDI Event: Chan 1 Note ON: F#3, Velocity (0 - 127): 35
0    |  MIDI Event: Chan 1 Note ON: A3, Velocity (0 - 127): 79
0    |  MIDI Event: Chan 1 Note ON: D4, Velocity (0 - 127): 56
0    |  MIDI Event: Chan 5 Note ON: D3, Velocity (0 - 127): 111
0    |  MIDI Event: Chan 5 Note ON: F#3, Velocity (0 - 127): 100
0    |  MIDI Event: Chan 5 Note ON: A3, Velocity (0 - 127): 100
0    |  MIDI Event: Chan 6 Note ON: D4, Velocity (0 - 127): 103
0    |  MIDI Event: Chan 6 Note ON: D5, Velocity (0 - 127): 103
0    |  MIDI Event: Chan 7 Note ON: D5, Velocity (0 - 127): 120
0    |  MIDI Event: Chan 12 Note ON: D5, Velocity (0 - 127): 120
29   |  MIDI Event: Chan 12 Note OFF: D5, Velocity (0 - 127): 64
0    |  MIDI Event: Chan 1 Note OFF: F#3, Velocity (0 - 127): 64
0    |  MIDI Event: Chan 1 Note OFF: A3, Velocity (0 - 127): 64
0    |  MIDI Event: Chan 5 Note OFF: A3, Velocity (0 - 127): 64
0    |  MIDI Event: Chan 5 Note OFF: D3, Velocity (0 - 127): 64
0    |  MIDI Event: Chan 1 Note OFF: D4, Velocity (0 - 127): 64
0    |  MIDI Event: Chan 2 Note OFF: D2, Velocity (0 - 127): 64
0    |  MIDI Event: Chan 5 Note OFF: F#3, Velocity (0 - 127): 64
0    |  MIDI Event: Chan 6 Note OFF: D5, Velocity (0 - 127): 64
0    |  MIDI Event: Chan 6 Note OFF: D4, Velocity (0 - 127): 64
0    |  MIDI Event: Chan 7 Note OFF: D5, Velocity (0 - 127): 64
1    |  MIDI Event: Chan 1 Note ON: F#3, Velocity (0 - 127): 49
0    |  MIDI Event: Chan 1 Note ON: A3, Velocity (0 - 127): 85
0    |  MIDI Event: Chan 1 Note ON: D4, Velocity (0 - 127): 75
0    |  MIDI Event: Chan 2 Control/Mode Change: Expression Control (0-127): 64
0    |  MIDI Event: Chan 2 Note ON: D2, Velocity (0 - 127): 120
0    |  MIDI Event: Chan 3 Control/Mode Change: Expression Control (0-127): 71
0    |  MIDI Event: Chan 5 Note ON: A2, Velocity (0 - 127): 105
0    |  MIDI Event: Chan 5 Note ON: D3, Velocity (0 - 127): 116
0    |  MIDI Event: Chan 6 Note ON: E4, Velocity (0 - 127): 95
0    |  MIDI Event: Chan 6 Note ON: E5, Velocity (0 - 127): 95
0    |  MIDI Event: Chan 7 Note ON: E5, Velocity (0 - 127): 120
0    |  MIDI Event: Chan 10 Note ON: B1, Velocity (0 - 127): 120
0    |  MIDI Event: Chan 10 Note ON: F#2, Velocity (0 - 127): 120
0    |  MIDI Event: Chan 10 Note ON: B3, Velocity (0 - 127): 116
0    |  MIDI Event: Chan 12 Note ON: E5, Velocity (0 - 127): 120
29   |  MIDI Event: Chan 12 Note OFF: E5, Velocity (0 - 127): 64
0    |  MIDI Event: Chan 10 Note OFF: B3, Velocity (0 - 127): 64
0    |  MIDI Event: Chan 7 Note OFF: E5, Velocity (0 - 127): 64
0    |  MIDI Event: Chan 6 Note OFF: E4, Velocity (0 - 127): 64
0    |  MIDI Event: Chan 10 Note OFF: F#2, Velocity (0 - 127): 64
0    |  MIDI Event: Chan 6 Note OFF: E5, Velocity (0 - 127): 64
0    |  MIDI Event: Chan 10 Note OFF: B1, Velocity (0 - 127): 64
1    |  MIDI Event: Chan 6 Note ON: D4, Velocity (0 - 127): 86
0    |  MIDI Event: Chan 6 Note ON: D5, Velocity (0 - 127): 86
0    |  MIDI Event: Chan 7 Note ON: D5, Velocity (0 - 127): 120
0    |  MIDI Event: Chan 12 Note ON: D5, Velocity (0 - 127): 120
29   |  MIDI Event: Chan 12 Note OFF: D5, Velocity (0 - 127): 64
0    |  MIDI Event: Chan 5 Note OFF: A2, Velocity (0 - 127): 64
0    |  MIDI Event: Chan 1 Note OFF: A3, Velocity (0 - 127): 64
0    |  MIDI Event: Chan 1 Note OFF: F#3, Velocity (0 - 127): 64
0    |  MIDI Event: Chan 5 Note OFF: D3, Velocity (0 - 127): 64
0    |  MIDI Event: Chan 6 Note OFF: D4, Velocity (0 - 127): 64
0    |  MIDI Event: Chan 1 Note OFF: D4, Velocity (0 - 127): 64
0    |  MIDI Event: Chan 7 Note OFF: D5, Velocity (0 - 127): 64
0    |  MIDI Event: Chan 6 Note OFF: D5, Velocity (0 - 127): 64
1    |  MIDI Event: Chan 1 Note ON: A3, Velocity (0 - 127): 56
0    |  MIDI Event: Chan 1 Note ON: D4, Velocity (0 - 127): 84
0    |  MIDI Event: Chan 1 Note ON: F#4, Velocity (0 - 127): 49
0    |  MIDI Event: Chan 2 Control/Mode Change: Expression Control (0-127): 127
0    |  MIDI Event: Chan 3 Control/Mode Change: Expression Control (0-127): 127
0    |  MIDI Event: Chan 5 Note ON: D3, Velocity (0 - 127): 105
0    |  MIDI Event: Chan 5 Note ON: F#3, Velocity (0 - 127): 115
0    |  MIDI Event: Chan 6 Note ON: E4, Velocity (0 - 127): 98
0    |  MIDI Event: Chan 6 Note ON: E5, Velocity (0 - 127): 98
0    |  MIDI Event: Chan 7 Note ON: E5, Velocity (0 - 127): 120
0    |  MIDI Event: Chan 10 Note ON: A#2, Velocity (0 - 127): 120
0    |  MIDI Event: Chan 10 Note ON: C#5, Velocity (0 - 127): 119
0    |  MIDI Event: Chan 12 Note ON: E5, Velocity (0 - 127): 120
29   |  MIDI Event: Chan 10 Note OFF: C#5, Velocity (0 - 127): 64
0    |  MIDI Event: Chan 5 Note OFF: D3, Velocity (0 - 127): 64
0    |  MIDI Event: Chan 1 Note OFF: A3, Velocity (0 - 127): 64
0    |  MIDI Event: Chan 1 Note OFF: F#4, Velocity (0 - 127): 64
0    |  MIDI Event: Chan 10 Note OFF: A#2, Velocity (0 - 127): 64
0    |  MIDI Event: Chan 1 Note OFF: D4, Velocity (0 - 127): 64
0    |  MIDI Event: Chan 5 Note OFF: F#3, Velocity (0 - 127): 64
1    |  MIDI Event: Chan 1 Note ON: A3, Velocity (0 - 127): 84
0    |  MIDI Event: Chan 1 Note ON: D4, Velocity (0 - 127): 94
0    |  MIDI Event: Chan 1 Note ON: F#4, Velocity (0 - 127): 76
0    |  MIDI Event: Chan 5 Note ON: D3, Velocity (0 - 127): 100
0    |  MIDI Event: Chan 5 Note ON: F#3, Velocity (0 - 127): 92
20   |  MIDI Event: Chan 6 Pitch Bend Change (0-16383): 8071 (factor==0.99804)
5    |  MIDI Event: Chan 6 Pitch Bend Change (0-16383): 6296 (factor==0.96972)
3    |  MIDI Event: Chan 6 Pitch Bend Change (0-16383): 4197 (factor==0.937266)
1    |  MIDI Event: Chan 5 Note OFF: F#3, Velocity (0 - 127): 64
0    |  MIDI Event: Chan 3 Note OFF: D4, Velocity (0 - 127): 64
0    |  MIDI Event: Chan 3 Note OFF: F#4, Velocity (0 - 127): 64
0    |  MIDI Event: Chan 2 Note OFF: D2, Velocity (0 - 127): 64
0    |  MIDI Event: Chan 6 Note OFF: E5, Velocity (0 - 127): 64
0    |  MIDI Event: Chan 12 Note OFF: E5, Velocity (0 - 127): 64
0    |  MIDI Event: Chan 3 Note OFF: A3, Velocity (0 - 127): 64
0    |  MIDI Event: Chan 6 Note OFF: E4, Velocity (0 - 127): 64
0    |  MIDI Event: Chan 1 Note OFF: F#4, Velocity (0 - 127): 64
0    |  MIDI Event: Chan 1 Note OFF: A3, Velocity (0 - 127): 64
0    |  MIDI Event: Chan 7 Note OFF: E5, Velocity (0 - 127): 64
0    |  MIDI Event: Chan 5 Note OFF: D3, Velocity (0 - 127): 64
0    |  MIDI Event: Chan 1 Note OFF: D4, Velocity (0 - 127): 64
1    |  MIDI Event: Chan 1 Note ON: E3, Velocity (0 - 127): 47
0    |  MIDI Event: Chan 1 Note ON: A3, Velocity (0 - 127): 89
0    |  MIDI Event: Chan 1 Note ON: C#4, Velocity (0 - 127): 52
0    |  MIDI Event: Chan 2 Control/Mode Change: Expression Control (0-127): 64
0    |  MIDI Event: Chan 2 Note ON: F#1, Velocity (0 - 127): 120
0    |  MIDI Event: Chan 3 Control/Mode Change: Expression Control (0-127): 80
0    |  MIDI Event: Chan 3 Note ON: A3, Velocity (0 - 127): 120
0    |  MIDI Event: Chan 3 Note ON: C#4, Velocity (0 - 127): 120
0    |  MIDI Event: Chan 3 Note ON: F#4, Velocity (0 - 127): 120
0    |  MIDI Event: Chan 5 Note ON: A2, Velocity (0 - 127): 101
0    |  MIDI Event: Chan 5 Note ON: E3, Velocity (0 - 127): 101
0    |  MIDI Event: Chan 6 Note ON: F#4, Velocity (0 - 127): 119
0    |  MIDI Event: Chan 6 Note ON: F#5, Velocity (0 - 127): 119
0    |  MIDI Event: Chan 6 Pitch Bend Change (0-16383): 1776 (factor==0.901179)
0    |  MIDI Event: Chan 7 Note ON: F#5, Velocity (0 - 127): 120
0    |  MIDI Event: Chan 10 Note ON: B1, Velocity (0 - 127): 120
0    |  MIDI Event: Chan 10 Note ON: F#2, Velocity (0 - 127): 120
0    |  MIDI Event: Chan 10 Note ON: B3, Velocity (0 - 127): 120
0    |  MIDI Event: Chan 12 Note ON: F#5, Velocity (0 - 127): 120
3    |  MIDI Event: Chan 6 Pitch Bend Change (0-16383): 0 (factor==0.875594)
17   |  MIDI Event: Chan 6 Pitch Bend Change (0-16383): 646 (factor==0.884815)
3    |  MIDI Event: Chan 6 Pitch Bend Change (0-16383): 2422 (factor==0.91067)
2    |  MIDI Event: Chan 6 Pitch Bend Change (0-16383): 4520 (factor==0.942188)
3    |  MIDI Event: Chan 6 Pitch Bend Change (0-16383): 6942 (factor==0.979932)
1    |  MIDI Event: Chan 10 Note OFF: B3, Velocity (0 - 127): 64
0    |  MIDI Event: Chan 10 Note OFF: F#2, Velocity (0 - 127): 64
0    |  MIDI Event: Chan 10 Note OFF: B1, Velocity (0 - 127): 64
1    |  MIDI Event: Chan 6 Pitch Bend Change (0-16383): 8192 (factor==1)
29   |  MIDI Event: Chan 12 Note OFF: F#5, Velocity (0 - 127): 64
0    |  MIDI Event: Chan 6 Note OFF: F#4, Velocity (0 - 127): 64
0    |  MIDI Event: Chan 1 Note OFF: C#4, Velocity (0 - 127): 64
0    |  MIDI Event: Chan 5 Note OFF: A2, Velocity (0 - 127): 64
0    |  MIDI Event: Chan 1 Note OFF: E3, Velocity (0 - 127): 64
0    |  MIDI Event: Chan 5 Note OFF: E3, Velocity (0 - 127): 64
0    |  MIDI Event: Chan 6 Note OFF: F#5, Velocity (0 - 127): 64
0    |  MIDI Event: Chan 7 Note OFF: F#5, Velocity (0 - 127): 64
0    |  MIDI Event: Chan 1 Note OFF: A3, Velocity (0 - 127): 64
1    |  MIDI Event: Chan 1 Note ON: A3, Velocity (0 - 127): 51
0    |  MIDI Event: Chan 1 Note ON: C#4, Velocity (0 - 127): 52
0    |  MIDI Event: Chan 1 Note ON: E4, Velocity (0 - 127): 78
0    |  MIDI Event: Chan 2 Control/Mode Change: Expression Control (0-127): 127
0    |  MIDI Event: Chan 3 Control/Mode Change: Expression Control (0-127): 127
0    |  MIDI Event: Chan 5 Note ON: C#3, Velocity (0 - 127): 89
0    |  MIDI Event: Chan 5 Note ON: E3, Velocity (0 - 127): 101
0    |  MIDI Event: Chan 5 Note ON: A3, Velocity (0 - 127): 89
0    |  MIDI Event: Chan 6 Note ON: D4, Velocity (0 - 127): 111
0    |  MIDI Event: Chan 6 Note ON: D5, Velocity (0 - 127): 111
0    |  MIDI Event: Chan 7 Note ON: D5, Velocity (0 - 127): 120
0    |  MIDI Event: Chan 10 Note ON: A#2, Velocity (0 - 127): 120
0    |  MIDI Event: Chan 10 Note ON: C#5, Velocity (0 - 127): 115
0    |  MIDI Event: Chan 12 Note ON: D5, Velocity (0 - 127): 120
29   |  MIDI Event: Chan 10 Note OFF: C#5, Velocity (0 - 127): 64
0    |  MIDI Event: Chan 5 Note OFF: E3, Velocity (0 - 127): 64
0    |  MIDI Event: Chan 1 Note OFF: C#4, Velocity (0 - 127): 64
0    |  MIDI Event: Chan 1 Note OFF: A3, Velocity (0 - 127): 64
0    |  MIDI Event: Chan 1 Note OFF: E4, Velocity (0 - 127): 64
0    |  MIDI Event: Chan 5 Note OFF: C#3, Velocity (0 - 127): 64
0    |  MIDI Event: Chan 10 Note OFF: A#2, Velocity (0 - 127): 64
0    |  MIDI Event: Chan 5 Note OFF: A3, Velocity (0 - 127): 64
1    |  MIDI Event: Chan 1 Note ON: A3, Velocity (0 - 127): 73
0    |  MIDI Event: Chan 1 Note ON: C#4, Velocity (0 - 127): 52
0    |  MIDI Event: Chan 1 Note ON: E4, Velocity (0 - 127): 83
0    |  MIDI Event: Chan 5 Note ON: C#3, Velocity (0 - 127): 119
0    |  MIDI Event: Chan 5 Note ON: E3, Velocity (0 - 127): 118
0    |  MIDI Event: Chan 5 Note ON: A3, Velocity (0 - 127): 105
29   |  MIDI Event: Chan 5 Note OFF: A3, Velocity (0 - 127): 64
0    |  MIDI Event: Chan 6 Note OFF: D4, Velocity (0 - 127): 64
0    |  MIDI Event: Chan 2 Note OFF: F#1, Velocity (0 - 127): 64
0    |  MIDI Event: Chan 7 Note OFF: D5, Velocity (0 - 127): 64
0    |  MIDI Event: Chan 3 Note OFF: A3, Velocity (0 - 127): 64
0    |  MIDI Event: Chan 6 Note OFF: D5, Velocity (0 - 127): 64
0    |  MIDI Event: Chan 3 Note OFF: C#4, Velocity (0 - 127): 64
0    |  MIDI Event: Chan 12 Note OFF: D5, Velocity (0 - 127): 64
0    |  MIDI Event: Chan 5 Note OFF: C#3, Velocity (0 - 127): 64
0    |  MIDI Event: Chan 1 Note OFF: E4, Velocity (0 - 127): 64
0    |  MIDI Event: Chan 1 Note OFF: A3, Velocity (0 - 127): 64
0    |  MIDI Event: Chan 3 Note OFF: F#4, Velocity (0 - 127): 64
0    |  MIDI Event: Chan 5 Note OFF: E3, Velocity (0 - 127): 64
0    |  MIDI Event: Chan 1 Note OFF: C#4, Velocity (0 - 127): 64
1    |  MIDI Event: Chan 1 Note ON: B3, Velocity (0 - 127): 58
0    |  MIDI Event: Chan 1 Note ON: D4, Velocity (0 - 127): 91
0    |  MIDI Event: Chan 2 Control/Mode Change: Expression Control (0-127): 64
0    |  MIDI Event: Chan 2 Note ON: B1, Velocity (0 - 127): 120
0    |  MIDI Event: Chan 3 Control/Mode Change: Expression Control (0-127): 64
0    |  MIDI Event: Chan 3 Note ON: B3, Velocity (0 - 127): 120
0    |  MIDI Event: Chan 3 Note ON: D4, Velocity (0 - 127): 120
0    |  MIDI Event: Chan 3 Note ON: F#4, Velocity (0 - 127): 120
0    |  MIDI Event: Chan 5 Note ON: B2, Velocity (0 - 127): 85
0    |  MIDI Event: Chan 5 Note ON: F#3, Velocity (0 - 127): 120
0    |  MIDI Event: Chan 6 Note ON: B3, Velocity (0 - 127): 120
0    |  MIDI Event: Chan 6 Note ON: B4, Velocity (0 - 127): 120
0    |  MIDI Event: Chan 7 Note ON: B4, Velocity (0 - 127): 120
0    |  MIDI Event: Chan 10 Note ON: B1, Velocity (0 - 127): 120
0    |  MIDI Event: Chan 10 Note ON: F#2, Velocity (0 - 127): 120
0    |  MIDI Event: Chan 10 Note ON: B3, Velocity (0 - 127): 120
0    |  MIDI Event: Chan 12 Note ON: B4, Velocity (0 - 127): 120
29   |  MIDI Event: Chan 10 Note OFF: B3, Velocity (0 - 127): 64
0    |  MIDI Event: Chan 10 Note OFF: F#2, Velocity (0 - 127): 64
0    |  MIDI Event: Chan 10 Note OFF: B1, Velocity (0 - 127): 64
30   |  MIDI Event: Chan 6 Note OFF: B4, Velocity (0 - 127): 64
0    |  MIDI Event: Chan 5 Note OFF: B2, Velocity (0 - 127): 64
0    |  MIDI Event: Chan 5 Note OFF: F#3, Velocity (0 - 127): 64
0    |  MIDI Event: Chan 1 Note OFF: B3, Velocity (0 - 127): 64
0    |  MIDI Event: Chan 6 Note OFF: B3, Velocity (0 - 127): 64
0    |  MIDI Event: Chan 7 Note OFF: B4, Velocity (0 - 127): 64
0    |  MIDI Event: Chan 12 Note OFF: B4, Velocity (0 - 127): 64
0    |  MIDI Event: Chan 1 Note OFF: D4, Velocity (0 - 127): 64
1    |  MIDI Event: Chan 1 Note ON: B3, Velocity (0 - 127): 79
0    |  MIDI Event: Chan 1 Note ON: D4, Velocity (0 - 127): 95
0    |  MIDI Event: Chan 1 Note ON: F#4, Velocity (0 - 127): 74
0    |  MIDI Event: Chan 2 Control/Mode Change: Expression Control (0-127): 127
0    |  MIDI Event: Chan 3 Control/Mode Change: Expression Control (0-127): 127
0    |  MIDI Event: Chan 5 Note ON: D3, Velocity (0 - 127): 92
0    |  MIDI Event: Chan 5 Note ON: F#3, Velocity (0 - 127): 87
0    |  MIDI Event: Chan 5 Note ON: D4, Velocity (0 - 127): 95
0    |  MIDI Event: Chan 10 Note ON: A#2, Velocity (0 - 127): 120
0    |  MIDI Event: Chan 10 Note ON: C#5, Velocity (0 - 127): 119
29   |  MIDI Event: Chan 10 Note OFF: C#5, Velocity (0 - 127): 64
0    |  MIDI Event: Chan 10 Note OFF: A#2, Velocity (0 - 127): 64
30   |  MIDI Event: Chan 2 Note OFF: B1, Velocity (0 - 127): 64
1    |  MIDI Event: Chan 2 Control/Mode Change: Expression Control (0-127): 64
0    |  MIDI Event: Chan 2 Note ON: B1, Velocity (0 - 127): 120
0    |  MIDI Event: Chan 3 Control/Mode Change: Expression Control (0-127): 73
0    |  MIDI Event: Chan 6 Note ON: B3, Velocity (0 - 127): 120
0    |  MIDI Event: Chan 6 Note ON: B4, Velocity (0 - 127): 120
0    |  MIDI Event: Chan 7 Note ON: B4, Velocity (0 - 127): 120
0    |  MIDI Event: Chan 10 Note ON: B1, Velocity (0 - 127): 120
0    |  MIDI Event: Chan 10 Note ON: F#2, Velocity (0 - 127): 120
0    |  MIDI Event: Chan 10 Note ON: B3, Velocity (0 - 127): 116
0    |  MIDI Event: Chan 12 Note ON: B4, Velocity (0 - 127): 120
29   |  MIDI Event: Chan 10 Note OFF: B3, Velocity (0 - 127): 64
0    |  MIDI Event: Chan 10 Note OFF: F#2, Velocity (0 - 127): 64
0    |  MIDI Event: Chan 5 Note OFF: D3, Velocity (0 - 127): 64
0    |  MIDI Event: Chan 1 Note OFF: F#4, Velocity (0 - 127): 64
0    |  MIDI Event: Chan 1 Note OFF: D4, Velocity (0 - 127): 64
0    |  MIDI Event: Chan 1 Note OFF: B3, Velocity (0 - 127): 64
0    |  MIDI Event: Chan 5 Note OFF: D4, Velocity (0 - 127): 64
0    |  MIDI Event: Chan 10 Note OFF: B1, Velocity (0 - 127): 64
0    |  MIDI Event: Chan 5 Note OFF: F#3, Velocity (0 - 127): 64
1    |  MIDI Event: Chan 1 Note ON: B3, Velocity (0 - 127): 71
0    |  MIDI Event: Chan 1 Note ON: D4, Velocity (0 - 127): 91
0    |  MIDI Event: Chan 1 Note ON: F#4, Velocity (0 - 127): 60
0    |  MIDI Event: Chan 5 Note ON: F#3, Velocity (0 - 127): 109
0    |  MIDI Event: Chan 5 Note ON: B3, Velocity (0 - 127): 95
29   |  MIDI Event: Chan 5 Note OFF: B3, Velocity (0 - 127): 64
0    |  MIDI Event: Chan 7 Note OFF: B4, Velocity (0 - 127): 64
0    |  MIDI Event: Chan 1 Note OFF: D4, Velocity (0 - 127): 64
0    |  MIDI Event: Chan 12 Note OFF: B4, Velocity (0 - 127): 64
0    |  MIDI Event: Chan 6 Note OFF: B4, Velocity (0 - 127): 64
0    |  MIDI Event: Chan 1 Note OFF: B3, Velocity (0 - 127): 64
0    |  MIDI Event: Chan 5 Note OFF: F#3, Velocity (0 - 127): 64
0    |  MIDI Event: Chan 6 Note OFF: B3, Velocity (0 - 127): 64
0    |  MIDI Event: Chan 1 Note OFF: F#4, Velocity (0 - 127): 64
1    |  MIDI Event: Chan 1 Note ON: D4, Velocity (0 - 127): 80
0    |  MIDI Event: Chan 1 Note ON: F#4, Velocity (0 - 127): 62
0    |  MIDI Event: Chan 1 Note ON: B4, Velocity (0 - 127): 91
0    |  MIDI Event: Chan 2 Control/Mode Change: Expression Control (0-127): 127
0    |  MIDI Event: Chan 3 Control/Mode Change: Expression Control (0-127): 127
0    |  MIDI Event: Chan 5 Note ON: D3, Velocity (0 - 127): 103
0    |  MIDI Event: Chan 5 Note ON: F#3, Velocity (0 - 127): 115
0    |  MIDI Event: Chan 10 Note ON: A#2, Velocity (0 - 127): 119
0    |  MIDI Event: Chan 10 Note ON: C#5, Velocity (0 - 127): 119
29   |  MIDI Event: Chan 10 Note OFF: C#5, Velocity (0 - 127): 64
0    |  MIDI Event: Chan 5 Note OFF: D3, Velocity (0 - 127): 64
0    |  MIDI Event: Chan 10 Note OFF: A#2, Velocity (0 - 127): 64
0    |  MIDI Event: Chan 1 Note OFF: B4, Velocity (0 - 127): 64
0    |  MIDI Event: Chan 5 Note OFF: F#3, Velocity (0 - 127): 64
0    |  MIDI Event: Chan 1 Note OFF: D4, Velocity (0 - 127): 64
0    |  MIDI Event: Chan 1 Note OFF: F#4, Velocity (0 - 127): 64
1    |  MIDI Event: Chan 1 Note ON: B3, Velocity (0 - 127): 51
0    |  MIDI Event: Chan 1 Note ON: D4, Velocity (0 - 127): 85
0    |  MIDI Event: Chan 1 Note ON: F#4, Velocity (0 - 127): 59
0    |  MIDI Event: Chan 5 Note ON: B2, Velocity (0 - 127): 92
0    |  MIDI Event: Chan 5 Note ON: E3, Velocity (0 - 127): 98
0    |  MIDI Event: Chan 6 Note ON: A3, Velocity (0 - 127): 98
0    |  MIDI Event: Chan 6 Note ON: A4, Velocity (0 - 127): 98
0    |  MIDI Event: Chan 7 Note ON: A4, Velocity (0 - 127): 120
0    |  MIDI Event: Chan 12 Note ON: A4, Velocity (0 - 127): 120
29   |  MIDI Event: Chan 12 Note OFF: A4, Velocity (0 - 127): 64
0    |  MIDI Event: Chan 1 Note OFF: D4, Velocity (0 - 127): 64
0    |  MIDI Event: Chan 3 Note OFF: F#4, Velocity (0 - 127): 64
0    |  MIDI Event: Chan 5 Note OFF: B2, Velocity (0 - 127): 64
0    |  MIDI Event: Chan 2 Note OFF: B1, Velocity (0 - 127): 64
0    |  MIDI Event: Chan 3 Note OFF: D4, Velocity (0 - 127): 64
0    |  MIDI Event: Chan 3 Note OFF: B3, Velocity (0 - 127): 64
0    |  MIDI Event: Chan 1 Note OFF: B3, Velocity (0 - 127): 64
0    |  MIDI Event: Chan 6 Note OFF: A4, Velocity (0 - 127): 64
0    |  MIDI Event: Chan 5 Note OFF: E3, Velocity (0 - 127): 64
0    |  MIDI Event: Chan 1 Note OFF: F#4, Velocity (0 - 127): 64
0    |  MIDI Event: Chan 7 Note OFF: A4, Velocity (0 - 127): 64
0    |  MIDI Event: Chan 6 Note OFF: A3, Velocity (0 - 127): 64
1    |  MIDI Event: Chan 1 Note ON: G3, Velocity (0 - 127): 74
0    |  MIDI Event: Chan 1 Note ON: B3, Velocity (0 - 127): 94
0    |  MIDI Event: Chan 1 Note ON: D4, Velocity (0 - 127): 91
0    |  MIDI Event: Chan 2 Control/Mode Change: Expression Control (0-127): 64
0    |  MIDI Event: Chan 2 Note ON: G1, Velocity (0 - 127): 120
0    |  MIDI Event: Chan 3 Control/Mode Change: Expression Control (0-127): 71
0    |  MIDI Event: Chan 3 Note ON: B3, Velocity (0 - 127): 120
0    |  MIDI Event: Chan 3 Note ON: D4, Velocity (0 - 127): 120
0    |  MIDI Event: Chan 3 Note ON: G4, Velocity (0 - 127): 120
0    |  MIDI Event: Chan 5 Note ON: G2, Velocity (0 - 127): 98
0    |  MIDI Event: Chan 5 Note ON: D3, Velocity (0 - 127): 116
0    |  MIDI Event: Chan 6 Note ON: B3, Velocity (0 - 127): 98
0    |  MIDI Event: Chan 6 Note ON: B4, Velocity (0 - 127): 98
0    |  MIDI Event: Chan 7 Note ON: B4, Velocity (0 - 127): 120
0    |  MIDI Event: Chan 10 Note ON: B1, Velocity (0 - 127): 120
0    |  MIDI Event: Chan 10 Note ON: F#2, Velocity (0 - 127): 120
0    |  MIDI Event: Chan 10 Note ON: B3, Velocity (0 - 127): 118
0    |  MIDI Event: Chan 12 Note ON: B4, Velocity (0 - 127): 120
29   |  MIDI Event: Chan 12 Note OFF: B4, Velocity (0 - 127): 64
0    |  MIDI Event: Chan 10 Note OFF: B3, Velocity (0 - 127): 64
0    |  MIDI Event: Chan 7 Note OFF: B4, Velocity (0 - 127): 64
0    |  MIDI Event: Chan 6 Note OFF: B3, Velocity (0 - 127): 64
0    |  MIDI Event: Chan 10 Note OFF: F#2, Velocity (0 - 127): 64
0    |  MIDI Event: Chan 6 Note OFF: B4, Velocity (0 - 127): 64
0    |  MIDI Event: Chan 10 Note OFF: B1, Velocity (0 - 127): 64
1    |  MIDI Event: Chan 6 Note ON: D4, Velocity (0 - 127): 54
0    |  MIDI Event: Chan 6 Note ON: D5, Velocity (0 - 127): 54
0    |  MIDI Event: Chan 7 Note ON: D5, Velocity (0 - 127): 120
0    |  MIDI Event: Chan 12 Note ON: D5, Velocity (0 - 127): 120
29   |  MIDI Event: Chan 12 Note OFF: D5, Velocity (0 - 127): 64
0    |  MIDI Event: Chan 5 Note OFF: G2, Velocity (0 - 127): 64
0    |  MIDI Event: Chan 1 Note OFF: B3, Velocity (0 - 127): 64
0    |  MIDI Event: Chan 1 Note OFF: G3, Velocity (0 - 127): 64
0    |  MIDI Event: Chan 5 Note OFF: D3, Velocity (0 - 127): 64
0    |  MIDI Event: Chan 6 Note OFF: D4, Velocity (0 - 127): 64
0    |  MIDI Event: Chan 1 Note OFF: D4, Velocity (0 - 127): 64
0    |  MIDI Event: Chan 7 Note OFF: D5, Velocity (0 - 127): 64
0    |  MIDI Event: Chan 6 Note OFF: D5, Velocity (0 - 127): 64
1    |  MIDI Event: Chan 1 Note ON: B3, Velocity (0 - 127): 70
0    |  MIDI Event: Chan 1 Note ON: D4, Velocity (0 - 127): 94
0    |  MIDI Event: Chan 1 Note ON: G4, Velocity (0 - 127): 101
0    |  MIDI Event: Chan 2 Control/Mode Change: Expression Control (0-127): 127
0    |  MIDI Event: Chan 3 Control/Mode Change: Expression Control (0-127): 127
0    |  MIDI Event: Chan 5 Note ON: D3, Velocity (0 - 127): 79
0    |  MIDI Event: Chan 5 Note ON: G3, Velocity (0 - 127): 111
0    |  MIDI Event: Chan 5 Note ON: B3, Velocity (0 - 127): 100
0    |  MIDI Event: Chan 6 Note ON: B3, Velocity (0 - 127): 116
0    |  MIDI Event: Chan 6 Note ON: B4, Velocity (0 - 127): 116
0    |  MIDI Event: Chan 7 Note ON: B4, Velocity (0 - 127): 120
0    |  MIDI Event: Chan 10 Note ON: A#2, Velocity (0 - 127): 120
0    |  MIDI Event: Chan 10 Note ON: C#5, Velocity (0 - 127): 109
0    |  MIDI Event: Chan 12 Note ON: B4, Velocity (0 - 127): 120
29   |  MIDI Event: Chan 10 Note OFF: C#5, Velocity (0 - 127): 64
0    |  MIDI Event: Chan 10 Note OFF: A#2, Velocity (0 - 127): 64
30   |  MIDI Event: Chan 6 Note OFF: B4, Velocity (0 - 127): 64
0    |  MIDI Event: Chan 12 Note OFF: B4, Velocity (0 - 127): 64
0    |  MIDI Event: Chan 2 Note OFF: G1, Velocity (0 - 127): 64
0    |  MIDI Event: Chan 6 Note OFF: B3, Velocity (0 - 127): 64
0    |  MIDI Event: Chan 7 Note OFF: B4, Velocity (0 - 127): 64
1    |  MIDI Event: Chan 2 Control/Mode Change: Expression Control (0-127): 64
0    |  MIDI Event: Chan 2 Note ON: G1, Velocity (0 - 127): 120
0    |  MIDI Event: Chan 3 Control/Mode Change: Expression Control (0-127): 80
0    |  MIDI Event: Chan 10 Note ON: B1, Velocity (0 - 127): 120
0    |  MIDI Event: Chan 10 Note ON: F#2, Velocity (0 - 127): 120
0    |  MIDI Event: Chan 10 Note ON: B3, Velocity (0 - 127): 116
29   |  MIDI Event: Chan 10 Note OFF: B3, Velocity (0 - 127): 64
0    |  MIDI Event: Chan 5 Note OFF: G3, Velocity (0 - 127): 64
0    |  MIDI Event: Chan 1 Note OFF: G4, Velocity (0 - 127): 64
0    |  MIDI Event: Chan 5 Note OFF: B3, Velocity (0 - 127): 64
0    |  MIDI Event: Chan 1 Note OFF: D4, Velocity (0 - 127): 64
0    |  MIDI Event: Chan 1 Note OFF: B3, Velocity (0 - 127): 64
0    |  MIDI Event: Chan 5 Note OFF: D3, Velocity (0 - 127): 64
0    |  MIDI Event: Chan 10 Note OFF: F#2, Velocity (0 - 127): 64
0    |  MIDI Event: Chan 10 Note OFF: B1, Velocity (0 - 127): 64
1    |  MIDI Event: Chan 1 Note ON: B3, Velocity (0 - 127): 52
0    |  MIDI Event: Chan 1 Note ON: D4, Velocity (0 - 127): 85
0    |  MIDI Event: Chan 1 Note ON: G4, Velocity (0 - 127): 94
0    |  MIDI Event: Chan 5 Note ON: D3, Velocity (0 - 127): 82
0    |  MIDI Event: Chan 5 Note ON: G3, Velocity (0 - 127): 98
0    |  MIDI Event: Chan 5 Note ON: B3, Velocity (0 - 127): 85
0    |  MIDI Event: Chan 6 Note ON: A3, Velocity (0 - 127): 83
0    |  MIDI Event: Chan 6 Note ON: A4, Velocity (0 - 127): 83
0    |  MIDI Event: Chan 7 Note ON: A4, Velocity (0 - 127): 120
0    |  MIDI Event: Chan 12 Note ON: A4, Velocity (0 - 127): 120
29   |  MIDI Event: Chan 12 Note OFF: A4, Velocity (0 - 127): 64
0    |  MIDI Event: Chan 1 Note OFF: B3, Velocity (0 - 127): 64
0    |  MIDI Event: Chan 1 Note OFF: D4, Velocity (0 - 127): 64
0    |  MIDI Event: Chan 5 Note OFF: B3, Velocity (0 - 127): 64
0    |  MIDI Event: Chan 5 Note OFF: D3, Velocity (0 - 127): 64
0    |  MIDI Event: Chan 1 Note OFF: G4, Velocity (0 - 127): 64
0    |  MIDI Event: Chan 5 Note OFF: G3, Velocity (0 - 127): 64
0    |  MIDI Event: Chan 7 Note OFF: A4, Velocity (0 - 127): 64
0    |  MIDI Event: Chan 6 Note OFF: A4, Velocity (0 - 127): 64
0    |  MIDI Event: Chan 6 Note OFF: A3, Velocity (0 - 127): 64
1    |  MIDI Event: Chan 1 Note ON: D4, Velocity (0 - 127): 78
0    |  MIDI Event: Chan 1 Note ON: G4, Velocity (0 - 127): 100
0    |  MIDI Event: Chan 1 Note ON: B4, Velocity (0 - 127): 46
0    |  MIDI Event: Chan 2 Control/Mode Change: Expression Control (0-127): 127
0    |  MIDI Event: Chan 3 Control/Mode Change: Expression Control (0-127): 127
0    |  MIDI Event: Chan 5 Note ON: G2, Velocity (0 - 127): 109
0    |  MIDI Event: Chan 5 Note ON: D3, Velocity (0 - 127): 109
0    |  MIDI Event: Chan 6 Note ON: B3, Velocity (0 - 127): 98
0    |  MIDI Event: Chan 6 Note ON: B4, Velocity (0 - 127): 98
0    |  MIDI Event: Chan 7 Note ON: B4, Velocity (0 - 127): 120
0    |  MIDI Event: Chan 10 Note ON: A#2, Velocity (0 - 127): 120
0    |  MIDI Event: Chan 10 Note ON: C#5, Velocity (0 - 127): 115
0    |  MIDI Event: Chan 12 Note ON: B4, Velocity (0 - 127): 120
29   |  MIDI Event: Chan 12 Note OFF: B4, Velocity (0 - 127): 64
0    |  MIDI Event: Chan 7 Note OFF: B4, Velocity (0 - 127): 64
0    |  MIDI Event: Chan 1 Note OFF: D4, Velocity (0 - 127): 64
0    |  MIDI Event: Chan 1 Note OFF: G4, Velocity (0 - 127): 64
0    |  MIDI Event: Chan 6 Note OFF: B3, Velocity (0 - 127): 64
0    |  MIDI Event: Chan 5 Note OFF: G2, Velocity (0 - 127): 64
0    |  MIDI Event: Chan 1 Note OFF: B4, Velocity (0 - 127): 64
0    |  MIDI Event: Chan 5 Note OFF: D3, Velocity (0 - 127): 64
0    |  MIDI Event: Chan 10 Note OFF: C#5, Velocity (0 - 127): 64
0    |  MIDI Event: Chan 10 Note OFF: A#2, Velocity (0 - 127): 64
0    |  MIDI Event: Chan 6 Note OFF: B4, Velocity (0 - 127): 64
1    |  MIDI Event: Chan 1 Note ON: B3, Velocity (0 - 127): 45
0    |  MIDI Event: Chan 1 Note ON: D4, Velocity (0 - 127): 73
0    |  MIDI Event: Chan 1 Note ON: G4, Velocity (0 - 127): 86
0    |  MIDI Event: Chan 5 Note ON: G2, Velocity (0 - 127): 101
0    |  MIDI Event: Chan 5 Note ON: E3, Velocity (0 - 127): 116
0    |  MIDI Event: Chan 6 Note ON: A3, Velocity (0 - 127): 94
0    |  MIDI Event: Chan 6 Note ON: A4, Velocity (0 - 127): 94
0    |  MIDI Event: Chan 7 Note ON: A4, Velocity (0 - 127): 120
0    |  MIDI Event: Chan 12 Note ON: A4, Velocity (0 - 127): 120
29   |  MIDI Event: Chan 12 Note OFF: A4, Velocity (0 - 127): 64
0    |  MIDI Event: Chan 1 Note OFF: D4, Velocity (0 - 127): 64
0    |  MIDI Event: Chan 3 Note OFF: D4, Velocity (0 - 127): 64
0    |  MIDI Event: Chan 5 Note OFF: G2, Velocity (0 - 127): 64
0    |  MIDI Event: Chan 3 Note OFF: B3, Velocity (0 - 127): 64
0    |  MIDI Event: Chan 3 Note OFF: G4, Velocity (0 - 127): 64
0    |  MIDI Event: Chan 2 Note OFF: G1, Velocity (0 - 127): 64
0    |  MIDI Event: Chan 1 Note OFF: B3, Velocity (0 - 127): 64
0    |  MIDI Event: Chan 6 Note OFF: A4, Velocity (0 - 127): 64
0    |  MIDI Event: Chan 5 Note OFF: E3, Velocity (0 - 127): 64
0    |  MIDI Event: Chan 1 Note OFF: G4, Velocity (0 - 127): 64
0    |  MIDI Event: Chan 7 Note OFF: A4, Velocity (0 - 127): 64
0    |  MIDI Event: Chan 6 Note OFF: A3, Velocity (0 - 127): 64
1    |  MIDI Event: Chan 1 Note ON: F#3, Velocity (0 - 127): 35
0    |  MIDI Event: Chan 1 Note ON: A3, Velocity (0 - 127): 85
0    |  MIDI Event: Chan 1 Note ON: D4, Velocity (0 - 127): 79
0    |  MIDI Event: Chan 2 Control/Mode Change: Expression Control (0-127): 64
0    |  MIDI Event: Chan 2 Note ON: D2, Velocity (0 - 127): 120
0    |  MIDI Event: Chan 3 Control/Mode Change: Expression Control (0-127): 64
0    |  MIDI Event: Chan 3 Note ON: A3, Velocity (0 - 127): 120
0    |  MIDI Event: Chan 3 Note ON: D4, Velocity (0 - 127): 120
0    |  MIDI Event: Chan 3 Note ON: F#4, Velocity (0 - 127): 120
0    |  MIDI Event: Chan 5 Note ON: A2, Velocity (0 - 127): 90
0    |  MIDI Event: Chan 5 Note ON: D3, Velocity (0 - 127): 105
0    |  MIDI Event: Chan 6 Note ON: D4, Velocity (0 - 127): 120
0    |  MIDI Event: Chan 6 Note ON: D5, Velocity (0 - 127): 120
0    |  MIDI Event: Chan 7 Note ON: D5, Velocity (0 - 127): 120
0    |  MIDI Event: Chan 10 Note ON: B1, Velocity (0 - 127): 120
0    |  MIDI Event: Chan 10 Note ON: F#2, Velocity (0 - 127): 120
0    |  MIDI Event: Chan 10 Note ON: B3, Velocity (0 - 127): 116
0    |  MIDI Event: Chan 12 Note ON: D5, Velocity (0 - 127): 120
29   |  MIDI Event: Chan 10 Note OFF: B3, Velocity (0 - 127): 64
0    |  MIDI Event: Chan 10 Note OFF: F#2, Velocity (0 - 127): 64
0    |  MIDI Event: Chan 10 Note OFF: B1, Velocity (0 - 127): 64
30   |  MIDI Event: Chan 12 Note OFF: D5, Velocity (0 - 127): 64
0    |  MIDI Event: Chan 6 Note OFF: D4, Velocity (0 - 127): 64
0    |  MIDI Event: Chan 1 Note OFF: D4, Velocity (0 - 127): 64
0    |  MIDI Event: Chan 5 Note OFF: A2, Velocity (0 - 127): 64
0    |  MIDI Event: Chan 1 Note OFF: F#3, Velocity (0 - 127): 64
0    |  MIDI Event: Chan 5 Note OFF: D3, Velocity (0 - 127): 64
0    |  MIDI Event: Chan 6 Note OFF: D5, Velocity (0 - 127): 64
0    |  MIDI Event: Chan 7 Note OFF: D5, Velocity (0 - 127): 64
0    |  MIDI Event: Chan 1 Note OFF: A3, Velocity (0 - 127): 64
1    |  MIDI Event: Chan 1 Note ON: A3, Velocity (0 - 127): 69
0    |  MIDI Event: Chan 1 Note ON: D4, Velocity (0 - 127): 98
0    |  MIDI Event: Chan 1 Note ON: F#4, Velocity (0 - 127): 74
0    |  MIDI Event: Chan 2 Control/Mode Change: Expression Control (0-127): 127
0    |  MIDI Event: Chan 3 Control/Mode Change: Expression Control (0-127): 127
0    |  MIDI Event: Chan 5 Note ON: A2, Velocity (0 - 127): 100
0    |  MIDI Event: Chan 5 Note ON: D3, Velocity (0 - 127): 111
0    |  MIDI Event: Chan 5 Note ON: F#3, Velocity (0 - 127): 89
0    |  MIDI Event: Chan 10 Note ON: A#2, Velocity (0 - 127): 120
0    |  MIDI Event: Chan 10 Note ON: C#5, Velocity (0 - 127): 109
29   |  MIDI Event: Chan 10 Note OFF: C#5, Velocity (0 - 127): 64
0    |  MIDI Event: Chan 10 Note OFF: A#2, Velocity (0 - 127): 64
30   |  MIDI Event: Chan 2 Note OFF: D2, Velocity (0 - 127): 64
1    |  MIDI Event: Chan 2 Control/Mode Change: Expression Control (0-127): 64
0    |  MIDI Event: Chan 2 Note ON: D2, Velocity (0 - 127): 120
0    |  MIDI Event: Chan 3 Control/Mode Change: Expression Control (0-127): 73
0    |  MIDI Event: Chan 6 Note ON: D4, Velocity (0 - 127): 120
0    |  MIDI Event: Chan 6 Note ON: D5, Velocity (0 - 127): 120
0    |  MIDI Event: Chan 7 Note ON: D5, Velocity (0 - 127): 120
0    |  MIDI Event: Chan 10 Note ON: B1, Velocity (0 - 127): 120
0    |  MIDI Event: Chan 10 Note ON: F#2, Velocity (0 - 127): 120
0    |  MIDI Event: Chan 10 Note ON: B3, Velocity (0 - 127): 116
0    |  MIDI Event: Chan 12 Note ON: D5, Velocity (0 - 127): 120
29   |  MIDI Event: Chan 10 Note OFF: B3, Velocity (0 - 127): 64
0    |  MIDI Event: Chan 10 Note OFF: F#2, Velocity (0 - 127): 64
0    |  MIDI Event: Chan 5 Note OFF: A2, Velocity (0 - 127): 64
0    |  MIDI Event: Chan 1 Note OFF: F#4, Velocity (0 - 127): 64
0    |  MIDI Event: Chan 1 Note OFF: D4, Velocity (0 - 127): 64
0    |  MIDI Event: Chan 1 Note OFF: A3, Velocity (0 - 127): 64
0    |  MIDI Event: Chan 5 Note OFF: F#3, Velocity (0 - 127): 64
0    |  MIDI Event: Chan 10 Note OFF: B1, Velocity (0 - 127): 64
0    |  MIDI Event: Chan 5 Note OFF: D3, Velocity (0 - 127): 64
1    |  MIDI Event: Chan 1 Note ON: F#3, Velocity (0 - 127): 44
0    |  MIDI Event: Chan 1 Note ON: A3, Velocity (0 - 127): 78
0    |  MIDI Event: Chan 1 Note ON: D4, Velocity (0 - 127): 58
0    |  MIDI Event: Chan 5 Note ON: A2, Velocity (0 - 127): 85
0    |  MIDI Event: Chan 5 Note ON: D3, Velocity (0 - 127): 105
0    |  MIDI Event: Chan 5 Note ON: F#3, Velocity (0 - 127): 81
29   |  MIDI Event: Chan 5 Note OFF: F#3, Velocity (0 - 127): 64
0    |  MIDI Event: Chan 6 Note OFF: D4, Velocity (0 - 127): 64
0    |  MIDI Event: Chan 7 Note OFF: D5, Velocity (0 - 127): 64
0    |  MIDI Event: Chan 1 Note OFF: A3, Velocity (0 - 127): 64
0    |  MIDI Event: Chan 12 Note OFF: D5, Velocity (0 - 127): 64
0    |  MIDI Event: Chan 6 Note OFF: D5, Velocity (0 - 127): 64
0    |  MIDI Event: Chan 1 Note OFF: F#3, Velocity (0 - 127): 64
0    |  MIDI Event: Chan 5 Note OFF: D3, Velocity (0 - 127): 64
0    |  MIDI Event: Chan 5 Note OFF: A2, Velocity (0 - 127): 64
0    |  MIDI Event: Chan 1 Note OFF: D4, Velocity (0 - 127): 64
1    |  MIDI Event: Chan 1 Note ON: A3, Velocity (0 - 127): 57
0    |  MIDI Event: Chan 1 Note ON: D4, Velocity (0 - 127): 91
0    |  MIDI Event: Chan 1 Note ON: F#4, Velocity (0 - 127): 77
0    |  MIDI Event: Chan 2 Control/Mode Change: Expression Control (0-127): 127
0    |  MIDI Event: Chan 3 Control/Mode Change: Expression Control (0-127): 127
0    |  MIDI Event: Chan 5 Note ON: D3, Velocity (0 - 127): 109
0    |  MIDI Event: Chan 5 Note ON: F#3, Velocity (0 - 127): 89
0    |  MIDI Event: Chan 5 Note ON: A3, Velocity (0 - 127): 109
0    |  MIDI Event: Chan 10 Note ON: A#2, Velocity (0 - 127): 120
0    |  MIDI Event: Chan 10 Note ON: C#5, Velocity (0 - 127): 119
29   |  MIDI Event: Chan 10 Note OFF: C#5, Velocity (0 - 127): 64
0    |  MIDI Event: Chan 5 Note OFF: A3, Velocity (0 - 127): 64
0    |  MIDI Event: Chan 5 Note OFF: D3, Velocity (0 - 127): 64
0    |  MIDI Event: Chan 1 Note OFF: F#4, Velocity (0 - 127): 64
0    |  MIDI Event: Chan 5 Note OFF: F#3, Velocity (0 - 127): 64
0    |  MIDI Event: Chan 10 Note OFF: A#2, Velocity (0 - 127): 64
0    |  MIDI Event: Chan 1 Note OFF: A3, Velocity (0 - 127): 64
0    |  MIDI Event: Chan 1 Note OFF: D4, Velocity (0 - 127): 64
1    |  MIDI Event: Chan 1 Note ON: F#3, Velocity (0 - 127): 35
0    |  MIDI Event: Chan 1 Note ON: A3, Velocity (0 - 127): 79
0    |  MIDI Event: Chan 1 Note ON: D4, Velocity (0 - 127): 56
0    |  MIDI Event: Chan 5 Note ON: D3, Velocity (0 - 127): 111
0    |  MIDI Event: Chan 5 Note ON: F#3, Velocity (0 - 127): 100
0    |  MIDI Event: Chan 5 Note ON: A3, Velocity (0 - 127): 100
0    |  MIDI Event: Chan 6 Note ON: D4, Velocity (0 - 127): 89
0    |  MIDI Event: Chan 6 Note ON: D5, Velocity (0 - 127): 89
0    |  MIDI Event: Chan 7 Note ON: D5, Velocity (0 - 127): 120
0    |  MIDI Event: Chan 12 Note ON: D5, Velocity (0 - 127): 120
29   |  MIDI Event: Chan 12 Note OFF: D5, Velocity (0 - 127): 64
0    |  MIDI Event: Chan 1 Note OFF: F#3, Velocity (0 - 127): 64
0    |  MIDI Event: Chan 1 Note OFF: A3, Velocity (0 - 127): 64
0    |  MIDI Event: Chan 5 Note OFF: A3, Velocity (0 - 127): 64
0    |  MIDI Event: Chan 5 Note OFF: D3, Velocity (0 - 127): 64
0    |  MIDI Event: Chan 1 Note OFF: D4, Velocity (0 - 127): 64
0    |  MIDI Event: Chan 2 Note OFF: D2, Velocity (0 - 127): 64
0    |  MIDI Event: Chan 5 Note OFF: F#3, Velocity (0 - 127): 64
0    |  MIDI Event: Chan 6 Note OFF: D5, Velocity (0 - 127): 64
0    |  MIDI Event: Chan 6 Note OFF: D4, Velocity (0 - 127): 64
0    |  MIDI Event: Chan 7 Note OFF: D5, Velocity (0 - 127): 64
1    |  MIDI Event: Chan 1 Note ON: F#3, Velocity (0 - 127): 49
0    |  MIDI Event: Chan 1 Note ON: A3, Velocity (0 - 127): 85
0    |  MIDI Event: Chan 1 Note ON: D4, Velocity (0 - 127): 75
0    |  MIDI Event: Chan 2 Control/Mode Change: Expression Control (0-127): 64
0    |  MIDI Event: Chan 2 Note ON: D2, Velocity (0 - 127): 120
0    |  MIDI Event: Chan 3 Control/Mode Change: Expression Control (0-127): 71
0    |  MIDI Event: Chan 5 Note ON: A2, Velocity (0 - 127): 105
0    |  MIDI Event: Chan 5 Note ON: D3, Velocity (0 - 127): 116
0    |  MIDI Event: Chan 6 Note ON: E4, Velocity (0 - 127): 81
0    |  MIDI Event: Chan 6 Note ON: E5, Velocity (0 - 127): 81
0    |  MIDI Event: Chan 7 Note ON: E5, Velocity (0 - 127): 120
0    |  MIDI Event: Chan 10 Note ON: B1, Velocity (0 - 127): 120
0    |  MIDI Event: Chan 10 Note ON: F#2, Velocity (0 - 127): 120
0    |  MIDI Event: Chan 10 Note ON: B3, Velocity (0 - 127): 118
0    |  MIDI Event: Chan 12 Note ON: E5, Velocity (0 - 127): 120
29   |  MIDI Event: Chan 12 Note OFF: E5, Velocity (0 - 127): 64
0    |  MIDI Event: Chan 10 Note OFF: B3, Velocity (0 - 127): 64
0    |  MIDI Event: Chan 7 Note OFF: E5, Velocity (0 - 127): 64
0    |  MIDI Event: Chan 6 Note OFF: E4, Velocity (0 - 127): 64
0    |  MIDI Event: Chan 10 Note OFF: F#2, Velocity (0 - 127): 64
0    |  MIDI Event: Chan 6 Note OFF: E5, Velocity (0 - 127): 64
0    |  MIDI Event: Chan 10 Note OFF: B1, Velocity (0 - 127): 64
1    |  MIDI Event: Chan 6 Note ON: D4, Velocity (0 - 127): 95
0    |  MIDI Event: Chan 6 Note ON: D5, Velocity (0 - 127): 95
0    |  MIDI Event: Chan 7 Note ON: D5, Velocity (0 - 127): 120
0    |  MIDI Event: Chan 12 Note ON: D5, Velocity (0 - 127): 120
29   |  MIDI Event: Chan 12 Note OFF: D5, Velocity (0 - 127): 64
0    |  MIDI Event: Chan 5 Note OFF: A2, Velocity (0 - 127): 64
0    |  MIDI Event: Chan 1 Note OFF: A3, Velocity (0 - 127): 64
0    |  MIDI Event: Chan 1 Note OFF: F#3, Velocity (0 - 127): 64
0    |  MIDI Event: Chan 5 Note OFF: D3, Velocity (0 - 127): 64
0    |  MIDI Event: Chan 6 Note OFF: D4, Velocity (0 - 127): 64
0    |  MIDI Event: Chan 1 Note OFF: D4, Velocity (0 - 127): 64
0    |  MIDI Event: Chan 7 Note OFF: D5, Velocity (0 - 127): 64
0    |  MIDI Event: Chan 6 Note OFF: D5, Velocity (0 - 127): 64
1    |  MIDI Event: Chan 1 Note ON: A3, Velocity (0 - 127): 56
0    |  MIDI Event: Chan 1 Note ON: D4, Velocity (0 - 127): 84
0    |  MIDI Event: Chan 1 Note ON: F#4, Velocity (0 - 127): 49
0    |  MIDI Event: Chan 2 Control/Mode Change: Expression Control (0-127): 127
0    |  MIDI Event: Chan 3 Control/Mode Change: Expression Control (0-127): 127
0    |  MIDI Event: Chan 5 Note ON: D3, Velocity (0 - 127): 105
0    |  MIDI Event: Chan 5 Note ON: F#3, Velocity (0 - 127): 115
0    |  MIDI Event: Chan 6 Note ON: E4, Velocity (0 - 127): 111
0    |  MIDI Event: Chan 6 Note ON: E5, Velocity (0 - 127): 111
0    |  MIDI Event: Chan 7 Note ON: E5, Velocity (0 - 127): 120
0    |  MIDI Event: Chan 10 Note ON: A#2, Velocity (0 - 127): 120
0    |  MIDI Event: Chan 10 Note ON: C#5, Velocity (0 - 127): 115
0    |  MIDI Event: Chan 12 Note ON: E5, Velocity (0 - 127): 120
29   |  MIDI Event: Chan 10 Note OFF: C#5, Velocity (0 - 127): 64
0    |  MIDI Event: Chan 5 Note OFF: D3, Velocity (0 - 127): 64
0    |  MIDI Event: Chan 1 Note OFF: A3, Velocity (0 - 127): 64
0    |  MIDI Event: Chan 1 Note OFF: F#4, Velocity (0 - 127): 64
0    |  MIDI Event: Chan 10 Note OFF: A#2, Velocity (0 - 127): 64
0    |  MIDI Event: Chan 1 Note OFF: D4, Velocity (0 - 127): 64
0    |  MIDI Event: Chan 5 Note OFF: F#3, Velocity (0 - 127): 64
1    |  MIDI Event: Chan 1 Note ON: A3, Velocity (0 - 127): 84
0    |  MIDI Event: Chan 1 Note ON: D4, Velocity (0 - 127): 94
0    |  MIDI Event: Chan 1 Note ON: F#4, Velocity (0 - 127): 76
0    |  MIDI Event: Chan 5 Note ON: D3, Velocity (0 - 127): 100
0    |  MIDI Event: Chan 5 Note ON: F#3, Velocity (0 - 127): 92
21   |  MIDI Event: Chan 6 Pitch Bend Change (0-16383): 7749 (factor==0.992841)
2    |  MIDI Event: Chan 6 Pitch Bend Change (0-16383): 6215 (factor==0.968447)
3    |  MIDI Event: Chan 6 Pitch Bend Change (0-16383): 4197 (factor==0.937266)
2    |  MIDI Event: Chan 6 Pitch Bend Change (0-16383): 2422 (factor==0.91067)
1    |  MIDI Event: Chan 5 Note OFF: F#3, Velocity (0 - 127): 64
0    |  MIDI Event: Chan 3 Note OFF: D4, Velocity (0 - 127): 64
0    |  MIDI Event: Chan 3 Note OFF: F#4, Velocity (0 - 127): 64
0    |  MIDI Event: Chan 2 Note OFF: D2, Velocity (0 - 127): 64
0    |  MIDI Event: Chan 6 Note OFF: E5, Velocity (0 - 127): 64
0    |  MIDI Event: Chan 12 Note OFF: E5, Velocity (0 - 127): 64
0    |  MIDI Event: Chan 3 Note OFF: A3, Velocity (0 - 127): 64
0    |  MIDI Event: Chan 6 Note OFF: E4, Velocity (0 - 127): 64
0    |  MIDI Event: Chan 1 Note OFF: F#4, Velocity (0 - 127): 64
0    |  MIDI Event: Chan 1 Note OFF: A3, Velocity (0 - 127): 64
0    |  MIDI Event: Chan 7 Note OFF: E5, Velocity (0 - 127): 64
0    |  MIDI Event: Chan 5 Note OFF: D3, Velocity (0 - 127): 64
0    |  MIDI Event: Chan 1 Note OFF: D4, Velocity (0 - 127): 64
1    |  MIDI Event: Chan 1 Note ON: E3, Velocity (0 - 127): 47
0    |  MIDI Event: Chan 1 Note ON: A3, Velocity (0 - 127): 89
0    |  MIDI Event: Chan 1 Note ON: C#4, Velocity (0 - 127): 52
0    |  MIDI Event: Chan 2 Control/Mode Change: Expression Control (0-127): 64
0    |  MIDI Event: Chan 2 Note ON: A1, Velocity (0 - 127): 120
0    |  MIDI Event: Chan 3 Control/Mode Change: Expression Control (0-127): 80
0    |  MIDI Event: Chan 3 Note ON: A3, Velocity (0 - 127): 120
0    |  MIDI Event: Chan 3 Note ON: C#4, Velocity (0 - 127): 120
0    |  MIDI Event: Chan 3 Note ON: E4, Velocity (0 - 127): 120
0    |  MIDI Event: Chan 5 Note ON: A2, Velocity (0 - 127): 101
0    |  MIDI Event: Chan 5 Note ON: E3, Velocity (0 - 127): 101
0    |  MIDI Event: Chan 6 Note ON: F#4, Velocity (0 - 127): 119
0    |  MIDI Event: Chan 6 Note ON: F#5, Velocity (0 - 127): 119
0    |  MIDI Event: Chan 7 Note ON: F#5, Velocity (0 - 127): 120
0    |  MIDI Event: Chan 10 Note ON: B1, Velocity (0 - 127): 120
0    |  MIDI Event: Chan 10 Note ON: F#2, Velocity (0 - 127): 120
0    |  MIDI Event: Chan 10 Note ON: B3, Velocity (0 - 127): 119
0    |  MIDI Event: Chan 12 Note ON: F#5, Velocity (0 - 127): 120
1    |  MIDI Event: Chan 6 Pitch Bend Change (0-16383): 1211 (factor==0.89296)
2    |  MIDI Event: Chan 6 Pitch Bend Change (0-16383): 646 (factor==0.884815)
3    |  MIDI Event: Chan 6 Pitch Bend Change (0-16383): 565 (factor==0.883653)
2    |  MIDI Event: Chan 6 Pitch Bend Change (0-16383): 646 (factor==0.884815)
3    |  MIDI Event: Chan 6 Pitch Bend Change (0-16383): 1373 (factor==0.895309)
2    |  MIDI Event: Chan 6 Pitch Bend Change (0-16383): 2260 (factor==0.908281)
3    |  MIDI Event: Chan 6 Pitch Bend Change (0-16383): 3471 (factor==0.926295)
2    |  MIDI Event: Chan 6 Pitch Bend Change (0-16383): 5085 (factor==0.950861)
3    |  MIDI Event: Chan 6 Pitch Bend Change (0-16383): 6942 (factor==0.979932)
2    |  MIDI Event: Chan 6 Pitch Bend Change (0-16383): 8071 (factor==0.99804)
3    |  MIDI Event: Chan 6 Pitch Bend Change (0-16383): 8192 (factor==1)
3    |  MIDI Event: Chan 10 Note OFF: B3, Velocity (0 - 127): 64
0    |  MIDI Event: Chan 10 Note OFF: F#2, Velocity (0 - 127): 64
0    |  MIDI Event: Chan 10 Note OFF: B1, Velocity (0 - 127): 64
30   |  MIDI Event: Chan 12 Note OFF: F#5, Velocity (0 - 127): 64
0    |  MIDI Event: Chan 6 Note OFF: F#4, Velocity (0 - 127): 64
0    |  MIDI Event: Chan 1 Note OFF: C#4, Velocity (0 - 127): 64
0    |  MIDI Event: Chan 5 Note OFF: A2, Velocity (0 - 127): 64
0    |  MIDI Event: Chan 1 Note OFF: E3, Velocity (0 - 127): 64
0    |  MIDI Event: Chan 5 Note OFF: E3, Velocity (0 - 127): 64
0    |  MIDI Event: Chan 6 Note OFF: F#5, Velocity (0 - 127): 64
0    |  MIDI Event: Chan 7 Note OFF: F#5, Velocity (0 - 127): 64
0    |  MIDI Event: Chan 1 Note OFF: A3, Velocity (0 - 127): 64
1    |  MIDI Event: Chan 1 Note ON: A3, Velocity (0 - 127): 51
0    |  MIDI Event: Chan 1 Note ON: C#4, Velocity (0 - 127): 52
0    |  MIDI Event: Chan 1 Note ON: E4, Velocity (0 - 127): 78
0    |  MIDI Event: Chan 2 Control/Mode Change: Expression Control (0-127): 127
0    |  MIDI Event: Chan 3 Control/Mode Change: Expression Control (0-127): 127
0    |  MIDI Event: Chan 5 Note ON: C#3, Velocity (0 - 127): 89
0    |  MIDI Event: Chan 5 Note ON: E3, Velocity (0 - 127): 101
0    |  MIDI Event: Chan 5 Note ON: A3, Velocity (0 - 127): 89
0    |  MIDI Event: Chan 6 Note ON: D4, Velocity (0 - 127): 98
0    |  MIDI Event: Chan 6 Note ON: D5, Velocity (0 - 127): 98
0    |  MIDI Event: Chan 7 Note ON: D5, Velocity (0 - 127): 120
0    |  MIDI Event: Chan 10 Note ON: A#2, Velocity (0 - 127): 120
0    |  MIDI Event: Chan 10 Note ON: C#5, Velocity (0 - 127): 111
0    |  MIDI Event: Chan 12 Note ON: D5, Velocity (0 - 127): 120
29   |  MIDI Event: Chan 10 Note OFF: C#5, Velocity (0 - 127): 64
0    |  MIDI Event: Chan 5 Note OFF: E3, Velocity (0 - 127): 64
0    |  MIDI Event: Chan 1 Note OFF: C#4, Velocity (0 - 127): 64
0    |  MIDI Event: Chan 1 Note OFF: A3, Velocity (0 - 127): 64
0    |  MIDI Event: Chan 1 Note OFF: E4, Velocity (0 - 127): 64
0    |  MIDI Event: Chan 5 Note OFF: C#3, Velocity (0 - 127): 64
0    |  MIDI Event: Chan 10 Note OFF: A#2, Velocity (0 - 127): 64
0    |  MIDI Event: Chan 5 Note OFF: A3, Velocity (0 - 127): 64
1    |  MIDI Event: Chan 1 Note ON: A3, Velocity (0 - 127): 73
0    |  MIDI Event: Chan 1 Note ON: C#4, Velocity (0 - 127): 52
0    |  MIDI Event: Chan 1 Note ON: E4, Velocity (0 - 127): 83
0    |  MIDI Event: Chan 5 Note ON: C#3, Velocity (0 - 127): 119
0    |  MIDI Event: Chan 5 Note ON: E3, Velocity (0 - 127): 118
0    |  MIDI Event: Chan 5 Note ON: A3, Velocity (0 - 127): 105
29   |  MIDI Event: Chan 5 Note OFF: A3, Velocity (0 - 127): 64
0    |  MIDI Event: Chan 6 Note OFF: D4, Velocity (0 - 127): 64
0    |  MIDI Event: Chan 2 Note OFF: A1, Velocity (0 - 127): 64
0    |  MIDI Event: Chan 7 Note OFF: D5, Velocity (0 - 127): 64
0    |  MIDI Event: Chan 3 Note OFF: A3, Velocity (0 - 127): 64
0    |  MIDI Event: Chan 6 Note OFF: D5, Velocity (0 - 127): 64
0    |  MIDI Event: Chan 3 Note OFF: C#4, Velocity (0 - 127): 64
0    |  MIDI Event: Chan 12 Note OFF: D5, Velocity (0 - 127): 64
0    |  MIDI Event: Chan 5 Note OFF: C#3, Velocity (0 - 127): 64
0    |  MIDI Event: Chan 1 Note OFF: E4, Velocity (0 - 127): 64
0    |  MIDI Event: Chan 1 Note OFF: A3, Velocity (0 - 127): 64
0    |  MIDI Event: Chan 3 Note OFF: E4, Velocity (0 - 127): 64
0    |  MIDI Event: Chan 5 Note OFF: E3, Velocity (0 - 127): 64
0    |  MIDI Event: Chan 1 Note OFF: C#4, Velocity (0 - 127): 64
1    |  MIDI Event: Chan 1 Control/Mode Change: Sound Controller 5 (default: Brightness) (0-127): 61
0    |  MIDI Event: Chan 1 Note ON: B3, Velocity (0 - 127): 58
0    |  MIDI Event: Chan 1 Note ON: D4, Velocity (0 - 127): 91
0    |  MIDI Event: Chan 2 Control/Mode Change: Expression Control (0-127): 64
0    |  MIDI Event: Chan 3 Control/Mode Change: Expression Control (0-127): 64
0    |  MIDI Event: Chan 3 Note ON: B3, Velocity (0 - 127): 120
0    |  MIDI Event: Chan 3 Note ON: D4, Velocity (0 - 127): 120
0    |  MIDI Event: Chan 3 Note ON: F#4, Velocity (0 - 127): 120
0    |  MIDI Event: Chan 5 Control/Mode Change: Sound Controller 5 (default: Brightness) (0-127): 61
0    |  MIDI Event: Chan 5 Note ON: B2, Velocity (0 - 127): 85
0    |  MIDI Event: Chan 5 Note ON: F#3, Velocity (0 - 127): 120
0    |  MIDI Event: Chan 6 Note ON: B3, Velocity (0 - 127): 105
0    |  MIDI Event: Chan 6 Note ON: B4, Velocity (0 - 127): 105
0    |  MIDI Event: Chan 7 Note ON: B4, Velocity (0 - 127): 120
0    |  MIDI Event: Chan 10 Note ON: B1, Velocity (0 - 127): 120
0    |  MIDI Event: Chan 10 Note ON: F#2, Velocity (0 - 127): 120
0    |  MIDI Event: Chan 10 Note ON: B3, Velocity (0 - 127): 119
0    |  MIDI Event: Chan 12 Note ON: B4, Velocity (0 - 127): 120
15   |  MIDI Event: Chan 1 Control/Mode Change: Sound Controller 5 (default: Brightness) (0-127): 62
0    |  MIDI Event: Chan 5 Control/Mode Change: Sound Controller 5 (default: Brightness) (0-127): 62
14   |  MIDI Event: Chan 10 Note OFF: B3, Velocity (0 - 127): 64
0    |  MIDI Event: Chan 10 Note OFF: F#2, Velocity (0 - 127): 64
0    |  MIDI Event: Chan 10 Note OFF: B1, Velocity (0 - 127): 64
1    |  MIDI Event: Chan 1 Control/Mode Change: Sound Controller 5 (default: Brightness) (0-127): 63
0    |  MIDI Event: Chan 5 Control/Mode Change: Sound Controller 5 (default: Brightness) (0-127): 63
15   |  MIDI Event: Chan 1 Control/Mode Change: Sound Controller 5 (default: Brightness) (0-127): 65
0    |  MIDI Event: Chan 5 Control/Mode Change: Sound Controller 5 (default: Brightness) (0-127): 65
14   |  MIDI Event: Chan 7 Note OFF: B4, Velocity (0 - 127): 64
0    |  MIDI Event: Chan 6 Note OFF: B3, Velocity (0 - 127): 64
0    |  MIDI Event: Chan 5 Note OFF: F#3, Velocity (0 - 127): 64
0    |  MIDI Event: Chan 1 Note OFF: B3, Velocity (0 - 127): 64
0    |  MIDI Event: Chan 6 Note OFF: B4, Velocity (0 - 127): 64
0    |  MIDI Event: Chan 12 Note OFF: B4, Velocity (0 - 127): 64
0    |  MIDI Event: Chan 1 Note OFF: D4, Velocity (0 - 127): 64
0    |  MIDI Event: Chan 5 Note OFF: B2, Velocity (0 - 127): 64
1    |  MIDI Event: Chan 1 Control/Mode Change: Sound Controller 5 (default: Brightness) (0-127): 66
0    |  MIDI Event: Chan 1 Note ON: B3, Velocity (0 - 127): 79
0    |  MIDI Event: Chan 1 Note ON: D4, Velocity (0 - 127): 95
0    |  MIDI Event: Chan 1 Note ON: F#4, Velocity (0 - 127): 74
0    |  MIDI Event: Chan 2 Control/Mode Change: Expression Control (0-127): 127
0    |  MIDI Event: Chan 3 Control/Mode Change: Expression Control (0-127): 127
0    |  MIDI Event: Chan 5 Control/Mode Change: Sound Controller 5 (default: Brightness) (0-127): 66
0    |  MIDI Event: Chan 5 Note ON: D3, Velocity (0 - 127): 92
0    |  MIDI Event: Chan 5 Note ON: F#3, Velocity (0 - 127): 87
0    |  MIDI Event: Chan 5 Note ON: D4, Velocity (0 - 127): 95
0    |  MIDI Event: Chan 10 Note ON: A#2, Velocity (0 - 127): 120
0    |  MIDI Event: Chan 10 Note ON: C#5, Velocity (0 - 127): 109
15   |  MIDI Event: Chan 1 Control/Mode Change: Sound Controller 5 (default: Brightness) (0-127): 68
0    |  MIDI Event: Chan 5 Control/Mode Change: Sound Controller 5 (default: Brightness) (0-127): 68
14   |  MIDI Event: Chan 10 Note OFF: C#5, Velocity (0 - 127): 64
0    |  MIDI Event: Chan 10 Note OFF: A#2, Velocity (0 - 127): 64
1    |  MIDI Event: Chan 1 Control/Mode Change: Sound Controller 5 (default: Brightness) (0-127): 69
0    |  MIDI Event: Chan 5 Control/Mode Change: Sound Controller 5 (default: Brightness) (0-127): 69
15   |  MIDI Event: Chan 1 Control/Mode Change: Sound Controller 5 (default: Brightness) (0-127): 71
0    |  MIDI Event: Chan 5 Control/Mode Change: Sound Controller 5 (default: Brightness) (0-127): 71
15   |  MIDI Event: Chan 1 Control/Mode Change: Sound Controller 5 (default: Brightness) (0-127): 72
0    |  MIDI Event: Chan 2 Control/Mode Change: Expression Control (0-127): 64
0    |  MIDI Event: Chan 3 Control/Mode Change: Expression Control (0-127): 73
0    |  MIDI Event: Chan 5 Control/Mode Change: Sound Controller 5 (default: Brightness) (0-127): 72
0    |  MIDI Event: Chan 6 Note ON: B3, Velocity (0 - 127): 119
0    |  MIDI Event: Chan 6 Note ON: B4, Velocity (0 - 127): 119
0    |  MIDI Event: Chan 7 Note ON: B4, Velocity (0 - 127): 120
0    |  MIDI Event: Chan 10 Note ON: B1, Velocity (0 - 127): 120
0    |  MIDI Event: Chan 10 Note ON: F#2, Velocity (0 - 127): 120
0    |  MIDI Event: Chan 10 Note ON: B3, Velocity (0 - 127): 118
0    |  MIDI Event: Chan 12 Note ON: B4, Velocity (0 - 127): 120
15   |  MIDI Event: Chan 1 Control/Mode Change: Sound Controller 5 (default: Brightness) (0-127): 73
0    |  MIDI Event: Chan 5 Control/Mode Change: Sound Controller 5 (default: Brightness) (0-127): 73
14   |  MIDI Event: Chan 10 Note OFF: B3, Velocity (0 - 127): 64
0    |  MIDI Event: Chan 5 Note OFF: D3, Velocity (0 - 127): 64
0    |  MIDI Event: Chan 5 Note OFF: F#3, Velocity (0 - 127): 64
0    |  MIDI Event: Chan 1 Note OFF: D4, Velocity (0 - 127): 64
0    |  MIDI Event: Chan 1 Note OFF: B3, Velocity (0 - 127): 64
0    |  MIDI Event: Chan 5 Note OFF: D4, Velocity (0 - 127): 64
0    |  MIDI Event: Chan 10 Note OFF: F#2, Velocity (0 - 127): 64
0    |  MIDI Event: Chan 1 Note OFF: F#4, Velocity (0 - 127): 64
0    |  MIDI Event: Chan 10 Note OFF: B1, Velocity (0 - 127): 64
1    |  MIDI Event: Chan 1 Control/Mode Change: Sound Controller 5 (default: Brightness) (0-127): 75
0    |  MIDI Event: Chan 1 Note ON: B3, Velocity (0 - 127): 71
0    |  MIDI Event: Chan 1 Note ON: D4, Velocity (0 - 127): 91
0    |  MIDI Event: Chan 1 Note ON: F#4, Velocity (0 - 127): 60
0    |  MIDI Event: Chan 5 Control/Mode Change: Sound Controller 5 (default: Brightness) (0-127): 75
0    |  MIDI Event: Chan 5 Note ON: F#3, Velocity (0 - 127): 109
0    |  MIDI Event: Chan 5 Note ON: B3, Velocity (0 - 127): 95
15   |  MIDI Event: Chan 1 Control/Mode Change: Sound Controller 5 (default: Brightness) (0-127): 76
0    |  MIDI Event: Chan 5 Control/Mode Change: Sound Controller 5 (default: Brightness) (0-127): 76
14   |  MIDI Event: Chan 5 Note OFF: B3, Velocity (0 - 127): 64
0    |  MIDI Event: Chan 1 Note OFF: F#4, Velocity (0 - 127): 64
0    |  MIDI Event: Chan 1 Note OFF: B3, Velocity (0 - 127): 64
0    |  MIDI Event: Chan 12 Note OFF: B4, Velocity (0 - 127): 64
0    |  MIDI Event: Chan 7 Note OFF: B4, Velocity (0 - 127): 64
0    |  MIDI Event: Chan 1 Note OFF: D4, Velocity (0 - 127): 64
0    |  MIDI Event: Chan 6 Note OFF: B3, Velocity (0 - 127): 64
0    |  MIDI Event: Chan 6 Note OFF: B4, Velocity (0 - 127): 64
0    |  MIDI Event: Chan 5 Note OFF: F#3, Velocity (0 - 127): 64
1    |  MIDI Event: Chan 1 Control/Mode Change: Sound Controller 5 (default: Brightness) (0-127): 78
0    |  MIDI Event: Chan 1 Note ON: D4, Velocity (0 - 127): 80
0    |  MIDI Event: Chan 1 Note ON: F#4, Velocity (0 - 127): 62
0    |  MIDI Event: Chan 1 Note ON: B4, Velocity (0 - 127): 91
0    |  MIDI Event: Chan 2 Control/Mode Change: Expression Control (0-127): 127
0    |  MIDI Event: Chan 3 Control/Mode Change: Expression Control (0-127): 127
0    |  MIDI Event: Chan 5 Control/Mode Change: Sound Controller 5 (default: Brightness) (0-127): 78
0    |  MIDI Event: Chan 5 Note ON: D3, Velocity (0 - 127): 103
0    |  MIDI Event: Chan 5 Note ON: F#3, Velocity (0 - 127): 115
0    |  MIDI Event: Chan 10 Note ON: A#2, Velocity (0 - 127): 120
0    |  MIDI Event: Chan 10 Note ON: C#5, Velocity (0 - 127): 119
15   |  MIDI Event: Chan 1 Control/Mode Change: Sound Controller 5 (default: Brightness) (0-127): 79
0    |  MIDI Event: Chan 5 Control/Mode Change: Sound Controller 5 (default: Brightness) (0-127): 79
14   |  MIDI Event: Chan 10 Note OFF: C#5, Velocity (0 - 127): 64
0    |  MIDI Event: Chan 10 Note OFF: A#2, Velocity (0 - 127): 64
0    |  MIDI Event: Chan 5 Note OFF: D3, Velocity (0 - 127): 64
0    |  MIDI Event: Chan 1 Note OFF: D4, Velocity (0 - 127): 64
0    |  MIDI Event: Chan 1 Note OFF: F#4, Velocity (0 - 127): 64
0    |  MIDI Event: Chan 5 Note OFF: F#3, Velocity (0 - 127): 64
0    |  MIDI Event: Chan 1 Note OFF: B4, Velocity (0 - 127): 64
1    |  MIDI Event: Chan 1 Control/Mode Change: Sound Controller 5 (default: Brightness) (0-127): 81
0    |  MIDI Event: Chan 1 Note ON: B3, Velocity (0 - 127): 51
0    |  MIDI Event: Chan 1 Note ON: D4, Velocity (0 - 127): 85
0    |  MIDI Event: Chan 1 Note ON: F#4, Velocity (0 - 127): 59
0    |  MIDI Event: Chan 5 Control/Mode Change: Sound Controller 5 (default: Brightness) (0-127): 81
0    |  MIDI Event: Chan 5 Note ON: B2, Velocity (0 - 127): 92
0    |  MIDI Event: Chan 5 Note ON: E3, Velocity (0 - 127): 98
0    |  MIDI Event: Chan 6 Note ON: A3, Velocity (0 - 127): 91
0    |  MIDI Event: Chan 6 Note ON: A4, Velocity (0 - 127): 91
0    |  MIDI Event: Chan 7 Note ON: A4, Velocity (0 - 127): 120
0    |  MIDI Event: Chan 12 Note ON: A4, Velocity (0 - 127): 120
15   |  MIDI Event: Chan 1 Control/Mode Change: Sound Controller 5 (default: Brightness) (0-127): 82
0    |  MIDI Event: Chan 5 Control/Mode Change: Sound Controller 5 (default: Brightness) (0-127): 82
14   |  MIDI Event: Chan 12 Note OFF: A4, Velocity (0 - 127): 64
0    |  MIDI Event: Chan 3 Note OFF: B3, Velocity (0 - 127): 64
0    |  MIDI Event: Chan 5 Note OFF: E3, Velocity (0 - 127): 64
0    |  MIDI Event: Chan 3 Note OFF: D4, Velocity (0 - 127): 64
0    |  MIDI Event: Chan 1 Note OFF: B3, Velocity (0 - 127): 64
0    |  MIDI Event: Chan 3 Note OFF: F#4, Velocity (0 - 127): 64
0    |  MIDI Event: Chan 1 Note OFF: D4, Velocity (0 - 127): 64
0    |  MIDI Event: Chan 1 Note OFF: F#4, Velocity (0 - 127): 64
0    |  MIDI Event: Chan 6 Note OFF: A3, Velocity (0 - 127): 64
0    |  MIDI Event: Chan 5 Note OFF: B2, Velocity (0 - 127): 64
0    |  MIDI Event: Chan 7 Note OFF: A4, Velocity (0 - 127): 64
0    |  MIDI Event: Chan 6 Note OFF: A4, Velocity (0 - 127): 64
1    |  MIDI Event: Chan 1 Control/Mode Change: Sound Controller 5 (default: Brightness) (0-127): 83
0    |  MIDI Event: Chan 1 Note ON: G3, Velocity (0 - 127): 74
0    |  MIDI Event: Chan 1 Note ON: B3, Velocity (0 - 127): 94
0    |  MIDI Event: Chan 1 Note ON: D4, Velocity (0 - 127): 91
0    |  MIDI Event: Chan 2 Control/Mode Change: Expression Control (0-127): 64
0    |  MIDI Event: Chan 3 Control/Mode Change: Expression Control (0-127): 71
0    |  MIDI Event: Chan 3 Note ON: B3, Velocity (0 - 127): 120
0    |  MIDI Event: Chan 3 Note ON: D4, Velocity (0 - 127): 120
0    |  MIDI Event: Chan 3 Note ON: G4, Velocity (0 - 127): 120
0    |  MIDI Event: Chan 5 Control/Mode Change: Sound Controller 5 (default: Brightness) (0-127): 83
0    |  MIDI Event: Chan 5 Note ON: G2, Velocity (0 - 127): 98
0    |  MIDI Event: Chan 5 Note ON: D3, Velocity (0 - 127): 116
0    |  MIDI Event: Chan 6 Note ON: B3, Velocity (0 - 127): 97
0    |  MIDI Event: Chan 6 Note ON: B4, Velocity (0 - 127): 97
0    |  MIDI Event: Chan 7 Note ON: B4, Velocity (0 - 127): 120
0    |  MIDI Event: Chan 10 Note ON: B1, Velocity (0 - 127): 120
0    |  MIDI Event: Chan 10 Note ON: F#2, Velocity (0 - 127): 120
0    |  MIDI Event: Chan 10 Note ON: B3, Velocity (0 - 127): 116
0    |  MIDI Event: Chan 12 Note ON: B4, Velocity (0 - 127): 120
15   |  MIDI Event: Chan 1 Control/Mode Change: Sound Controller 5 (default: Brightness) (0-127): 85
0    |  MIDI Event: Chan 5 Control/Mode Change: Sound Controller 5 (default: Brightness) (0-127): 85
14   |  MIDI Event: Chan 12 Note OFF: B4, Velocity (0 - 127): 64
0    |  MIDI Event: Chan 10 Note OFF: B1, Velocity (0 - 127): 64
0    |  MIDI Event: Chan 6 Note OFF: B4, Velocity (0 - 127): 64
0    |  MIDI Event: Chan 6 Note OFF: B3, Velocity (0 - 127): 64
0    |  MIDI Event: Chan 10 Note OFF: B3, Velocity (0 - 127): 64
0    |  MIDI Event: Chan 7 Note OFF: B4, Velocity (0 - 127): 64
0    |  MIDI Event: Chan 10 Note OFF: F#2, Velocity (0 - 127): 64
1    |  MIDI Event: Chan 1 Control/Mode Change: Sound Controller 5 (default: Brightness) (0-127): 86
0    |  MIDI Event: Chan 5 Control/Mode Change: Sound Controller 5 (default: Brightness) (0-127): 86
0    |  MIDI Event: Chan 6 Note ON: D4, Velocity (0 - 127): 80
0    |  MIDI Event: Chan 6 Note ON: D5, Velocity (0 - 127): 80
0    |  MIDI Event: Chan 7 Note ON: D5, Velocity (0 - 127): 120
0    |  MIDI Event: Chan 12 Note ON: D5, Velocity (0 - 127): 120
15   |  MIDI Event: Chan 1 Control/Mode Change: Sound Controller 5 (default: Brightness) (0-127): 88
0    |  MIDI Event: Chan 5 Control/Mode Change: Sound Controller 5 (default: Brightness) (0-127): 88
14   |  MIDI Event: Chan 12 Note OFF: D5, Velocity (0 - 127): 64
0    |  MIDI Event: Chan 6 Note OFF: D5, Velocity (0 - 127): 64
0    |  MIDI Event: Chan 1 Note OFF: G3, Velocity (0 - 127): 64
0    |  MIDI Event: Chan 1 Note OFF: B3, Velocity (0 - 127): 64
0    |  MIDI Event: Chan 1 Note OFF: D4, Velocity (0 - 127): 64
0    |  MIDI Event: Chan 5 Note OFF: G2, Velocity (0 - 127): 64
0    |  MIDI Event: Chan 6 Note OFF: D4, Velocity (0 - 127): 64
0    |  MIDI Event: Chan 5 Note OFF: D3, Velocity (0 - 127): 64
0    |  MIDI Event: Chan 7 Note OFF: D5, Velocity (0 - 127): 64
1    |  MIDI Event: Chan 1 Control/Mode Change: Sound Controller 5 (default: Brightness) (0-127): 89
0    |  MIDI Event: Chan 1 Note ON: B3, Velocity (0 - 127): 70
0    |  MIDI Event: Chan 1 Note ON: D4, Velocity (0 - 127): 94
0    |  MIDI Event: Chan 1 Note ON: G4, Velocity (0 - 127): 101
0    |  MIDI Event: Chan 2 Control/Mode Change: Expression Control (0-127): 127
0    |  MIDI Event: Chan 3 Control/Mode Change: Expression Control (0-127): 127
0    |  MIDI Event: Chan 5 Control/Mode Change: Sound Controller 5 (default: Brightness) (0-127): 89
0    |  MIDI Event: Chan 5 Note ON: D3, Velocity (0 - 127): 79
0    |  MIDI Event: Chan 5 Note ON: G3, Velocity (0 - 127): 111
0    |  MIDI Event: Chan 5 Note ON: B3, Velocity (0 - 127): 100
0    |  MIDI Event: Chan 6 Note ON: B3, Velocity (0 - 127): 113
0    |  MIDI Event: Chan 6 Note ON: B4, Velocity (0 - 127): 113
0    |  MIDI Event: Chan 7 Note ON: B4, Velocity (0 - 127): 120
0    |  MIDI Event: Chan 10 Note ON: A#2, Velocity (0 - 127): 120
0    |  MIDI Event: Chan 10 Note ON: C#5, Velocity (0 - 127): 119
0    |  MIDI Event: Chan 12 Note ON: B4, Velocity (0 - 127): 120
15   |  MIDI Event: Chan 1 Control/Mode Change: Sound Controller 5 (default: Brightness) (0-127): 91
0    |  MIDI Event: Chan 5 Control/Mode Change: Sound Controller 5 (default: Brightness) (0-127): 91
14   |  MIDI Event: Chan 10 Note OFF: C#5, Velocity (0 - 127): 64
0    |  MIDI Event: Chan 10 Note OFF: A#2, Velocity (0 - 127): 64
1    |  MIDI Event: Chan 1 Control/Mode Change: Sound Controller 5 (default: Brightness) (0-127): 92
0    |  MIDI Event: Chan 5 Control/Mode Change: Sound Controller 5 (default: Brightness) (0-127): 92
15   |  MIDI Event: Chan 1 Control/Mode Change: Sound Controller 5 (default: Brightness) (0-127): 94
0    |  MIDI Event: Chan 5 Control/Mode Change: Sound Controller 5 (default: Brightness) (0-127): 94
14   |  MIDI Event: Chan 6 Note OFF: B3, Velocity (0 - 127): 64
0    |  MIDI Event: Chan 7 Note OFF: B4, Velocity (0 - 127): 64
0    |  MIDI Event: Chan 6 Note OFF: B4, Velocity (0 - 127): 64
0    |  MIDI Event: Chan 12 Note OFF: B4, Velocity (0 - 127): 64
1    |  MIDI Event: Chan 1 Control/Mode Change: Sound Controller 5 (default: Brightness) (0-127): 95
0    |  MIDI Event: Chan 2 Control/Mode Change: Expression Control (0-127): 64
0    |  MIDI Event: Chan 3 Control/Mode Change: Expression Control (0-127): 80
0    |  MIDI Event: Chan 5 Control/Mode Change: Sound Controller 5 (default: Brightness) (0-127): 95
0    |  MIDI Event: Chan 10 Note ON: B1, Velocity (0 - 127): 120
0    |  MIDI Event: Chan 10 Note ON: F#2, Velocity (0 - 127): 120
0    |  MIDI Event: Chan 10 Note ON: B3, Velocity (0 - 127): 120
15   |  MIDI Event: Chan 1 Control/Mode Change: Sound Controller 5 (default: Brightness) (0-127): 96
0    |  MIDI Event: Chan 5 Control/Mode Change: Sound Controller 5 (default: Brightness) (0-127): 96
14   |  MIDI Event: Chan 10 Note OFF: B3, Velocity (0 - 127): 64
0    |  MIDI Event: Chan 1 Note OFF: G4, Velocity (0 - 127): 64
0    |  MIDI Event: Chan 5 Note OFF: D3, Velocity (0 - 127): 64
0    |  MIDI Event: Chan 5 Note OFF: B3, Velocity (0 - 127): 64
0    |  MIDI Event: Chan 10 Note OFF: B1, Velocity (0 - 127): 64
0    |  MIDI Event: Chan 1 Note OFF: B3, Velocity (0 - 127): 64
0    |  MIDI Event: Chan 1 Note OFF: D4, Velocity (0 - 127): 64
0    |  MIDI Event: Chan 5 Note OFF: G3, Velocity (0 - 127): 64
0    |  MIDI Event: Chan 10 Note OFF: F#2, Velocity (0 - 127): 64
1    |  MIDI Event: Chan 1 Control/Mode Change: Sound Controller 5 (default: Brightness) (0-127): 98
0    |  MIDI Event: Chan 1 Note ON: B3, Velocity (0 - 127): 52
0    |  MIDI Event: Chan 1 Note ON: D4, Velocity (0 - 127): 85
0    |  MIDI Event: Chan 1 Note ON: G4, Velocity (0 - 127): 94
0    |  MIDI Event: Chan 5 Control/Mode Change: Sound Controller 5 (default: Brightness) (0-127): 98
0    |  MIDI Event: Chan 5 Note ON: D3, Velocity (0 - 127): 82
0    |  MIDI Event: Chan 5 Note ON: G3, Velocity (0 - 127): 98
0    |  MIDI Event: Chan 5 Note ON: B3, Velocity (0 - 127): 85
0    |  MIDI Event: Chan 6 Note ON: A3, Velocity (0 - 127): 98
0    |  MIDI Event: Chan 6 Note ON: A4, Velocity (0 - 127): 98
0    |  MIDI Event: Chan 7 Note ON: A4, Velocity (0 - 127): 120
0    |  MIDI Event: Chan 12 Note ON: A4, Velocity (0 - 127): 120
15   |  MIDI Event: Chan 1 Control/Mode Change: Sound Controller 5 (default: Brightness) (0-127): 99
0    |  MIDI Event: Chan 5 Control/Mode Change: Sound Controller 5 (default: Brightness) (0-127): 99
14   |  MIDI Event: Chan 12 Note OFF: A4, Velocity (0 - 127): 64
0    |  MIDI Event: Chan 1 Note OFF: G4, Velocity (0 - 127): 64
0    |  MIDI Event: Chan 6 Note OFF: A3, Velocity (0 - 127): 64
0    |  MIDI Event: Chan 5 Note OFF: G3, Velocity (0 - 127): 64
0    |  MIDI Event: Chan 5 Note OFF: D3, Velocity (0 - 127): 64
0    |  MIDI Event: Chan 1 Note OFF: B3, Velocity (0 - 127): 64
0    |  MIDI Event: Chan 5 Note OFF: B3, Velocity (0 - 127): 64
0    |  MIDI Event: Chan 1 Note OFF: D4, Velocity (0 - 127): 64
0    |  MIDI Event: Chan 6 Note OFF: A4, Velocity (0 - 127): 64
0    |  MIDI Event: Chan 7 Note OFF: A4, Velocity (0 - 127): 64
1    |  MIDI Event: Chan 1 Control/Mode Change: Sound Controller 5 (default: Brightness) (0-127): 101
0    |  MIDI Event: Chan 1 Note ON: D4, Velocity (0 - 127): 78
0    |  MIDI Event: Chan 1 Note ON: G4, Velocity (0 - 127): 100
0    |  MIDI Event: Chan 1 Note ON: B4, Velocity (0 - 127): 46
0    |  MIDI Event: Chan 2 Control/Mode Change: Expression Control (0-127): 127
0    |  MIDI Event: Chan 3 Control/Mode Change: Expression Control (0-127): 127
0    |  MIDI Event: Chan 5 Control/Mode Change: Sound Controller 5 (default: Brightness) (0-127): 101
0    |  MIDI Event: Chan 5 Note ON: G2, Velocity (0 - 127): 109
0    |  MIDI Event: Chan 5 Note ON: D3, Velocity (0 - 127): 109
0    |  MIDI Event: Chan 6 Note ON: B3, Velocity (0 - 127): 101
0    |  MIDI Event: Chan 6 Note ON: B4, Velocity (0 - 127): 101
0    |  MIDI Event: Chan 7 Note ON: B4, Velocity (0 - 127): 120
0    |  MIDI Event: Chan 10 Note ON: A#2, Velocity (0 - 127): 120
0    |  MIDI Event: Chan 10 Note ON: C#5, Velocity (0 - 127): 115
0    |  MIDI Event: Chan 12 Note ON: B4, Velocity (0 - 127): 120
15   |  MIDI Event: Chan 1 Control/Mode Change: Sound Controller 5 (default: Brightness) (0-127): 102
0    |  MIDI Event: Chan 5 Control/Mode Change: Sound Controller 5 (default: Brightness) (0-127): 102
14   |  MIDI Event: Chan 12 Note OFF: B4, Velocity (0 - 127): 64
0    |  MIDI Event: Chan 1 Note OFF: G4, Velocity (0 - 127): 64
0    |  MIDI Event: Chan 1 Note OFF: B4, Velocity (0 - 127): 64
0    |  MIDI Event: Chan 6 Note OFF: B4, Velocity (0 - 127): 64
0    |  MIDI Event: Chan 5 Note OFF: D3, Velocity (0 - 127): 64
0    |  MIDI Event: Chan 5 Note OFF: G2, Velocity (0 - 127): 64
0    |  MIDI Event: Chan 1 Note OFF: D4, Velocity (0 - 127): 64
0    |  MIDI Event: Chan 6 Note OFF: B3, Velocity (0 - 127): 64
0    |  MIDI Event: Chan 10 Note OFF: A#2, Velocity (0 - 127): 64
0    |  MIDI Event: Chan 7 Note OFF: B4, Velocity (0 - 127): 64
0    |  MIDI Event: Chan 10 Note OFF: C#5, Velocity (0 - 127): 64
1    |  MIDI Event: Chan 1 Control/Mode Change: Sound Controller 5 (default: Brightness) (0-127): 104
0    |  MIDI Event: Chan 1 Note ON: B3, Velocity (0 - 127): 45
0    |  MIDI Event: Chan 1 Note ON: D4, Velocity (0 - 127): 73
0    |  MIDI Event: Chan 1 Note ON: G4, Velocity (0 - 127): 86
0    |  MIDI Event: Chan 5 Control/Mode Change: Sound Controller 5 (default: Brightness) (0-127): 104
0    |  MIDI Event: Chan 5 Note ON: G2, Velocity (0 - 127): 101
0    |  MIDI Event: Chan 5 Note ON: E3, Velocity (0 - 127): 116
0    |  MIDI Event: Chan 6 Note ON: A3, Velocity (0 - 127): 91
0    |  MIDI Event: Chan 6 Note ON: A4, Velocity (0 - 127): 91
0    |  MIDI Event: Chan 7 Note ON: A4, Velocity (0 - 127): 120
0    |  MIDI Event: Chan 12 Note ON: A4, Velocity (0 - 127): 120
15   |  MIDI Event: Chan 1 Control/Mode Change: Sound Controller 5 (default: Brightness) (0-127): 105
0    |  MIDI Event: Chan 5 Control/Mode Change: Sound Controller 5 (default: Brightness) (0-127): 105
14   |  MIDI Event: Chan 12 Note OFF: A4, Velocity (0 - 127): 64
0    |  MIDI Event: Chan 3 Note OFF: D4, Velocity (0 - 127): 64
0    |  MIDI Event: Chan 5 Note OFF: E3, Velocity (0 - 127): 64
0    |  MIDI Event: Chan 3 Note OFF: G4, Velocity (0 - 127): 64
0    |  MIDI Event: Chan 1 Note OFF: B3, Velocity (0 - 127): 64
0    |  MIDI Event: Chan 3 Note OFF: B3, Velocity (0 - 127): 64
0    |  MIDI Event: Chan 1 Note OFF: D4, Velocity (0 - 127): 64
0    |  MIDI Event: Chan 1 Note OFF: G4, Velocity (0 - 127): 64
0    |  MIDI Event: Chan 6 Note OFF: A3, Velocity (0 - 127): 64
0    |  MIDI Event: Chan 5 Note OFF: G2, Velocity (0 - 127): 64
0    |  MIDI Event: Chan 7 Note OFF: A4, Velocity (0 - 127): 64
0    |  MIDI Event: Chan 6 Note OFF: A4, Velocity (0 - 127): 64
1    |  MIDI Event: Chan 1 Control/Mode Change: Sound Controller 5 (default: Brightness) (0-127): 106
0    |  MIDI Event: Chan 1 Note ON: F#3, Velocity (0 - 127): 35
0    |  MIDI Event: Chan 1 Note ON: A3, Velocity (0 - 127): 85
0    |  MIDI Event: Chan 1 Note ON: D4, Velocity (0 - 127): 79
0    |  MIDI Event: Chan 3 Control/Mode Change: Sound Controller 5 (default: Brightness) (0-127): 65
0    |  MIDI Event: Chan 3 Control/Mode Change: Expression Control (0-127): 64
0    |  MIDI Event: Chan 3 Note ON: A3, Velocity (0 - 127): 120
0    |  MIDI Event: Chan 3 Note ON: D4, Velocity (0 - 127): 120
0    |  MIDI Event: Chan 3 Note ON: F#4, Velocity (0 - 127): 120
0    |  MIDI Event: Chan 5 Control/Mode Change: Sound Controller 5 (default: Brightness) (0-127): 106
0    |  MIDI Event: Chan 5 Note ON: A2, Velocity (0 - 127): 90
0    |  MIDI Event: Chan 5 Note ON: D3, Velocity (0 - 127): 105
0    |  MIDI Event: Chan 6 Note ON: D4, Velocity (0 - 127): 105
0    |  MIDI Event: Chan 6 Note ON: D5, Velocity (0 - 127): 105
0    |  MIDI Event: Chan 7 Note ON: D5, Velocity (0 - 127): 120
0    |  MIDI Event: Chan 9 Note ON: D3, Velocity (0 - 127): 120
0    |  MIDI Event: Chan 9 Note ON: D4, Velocity (0 - 127): 120
0    |  MIDI Event: Chan 10 Note ON: F#2, Velocity (0 - 127): 120
0    |  MIDI Event: Chan 10 Note ON: B3, Velocity (0 - 127): 111
0    |  MIDI Event: Chan 12 Note ON: D5, Velocity (0 - 127): 120
15   |  MIDI Event: Chan 1 Control/Mode Change: Sound Controller 5 (default: Brightness) (0-127): 108
0    |  MIDI Event: Chan 5 Control/Mode Change: Sound Controller 5 (default: Brightness) (0-127): 108
14   |  MIDI Event: Chan 10 Note OFF: B3, Velocity (0 - 127): 64
0    |  MIDI Event: Chan 10 Note OFF: F#2, Velocity (0 - 127): 64
1    |  MIDI Event: Chan 1 Control/Mode Change: Sound Controller 5 (default: Brightness) (0-127): 109
0    |  MIDI Event: Chan 3 Control/Mode Change: Sound Controller 5 (default: Brightness) (0-127): 70
0    |  MIDI Event: Chan 5 Control/Mode Change: Sound Controller 5 (default: Brightness) (0-127): 109
15   |  MIDI Event: Chan 1 Control/Mode Change: Sound Controller 5 (default: Brightness) (0-127): 111
0    |  MIDI Event: Chan 3 Control/Mode Change: Sound Controller 5 (default: Brightness) (0-127): 74
0    |  MIDI Event: Chan 5 Control/Mode Change: Sound Controller 5 (default: Brightness) (0-127): 111
14   |  MIDI Event: Chan 1 Note OFF: D4, Velocity (0 - 127): 64
0    |  MIDI Event: Chan 12 Note OFF: D5, Velocity (0 - 127): 64
0    |  MIDI Event: Chan 6 Note OFF: D5, Velocity (0 - 127): 64
0    |  MIDI Event: Chan 5 Note OFF: A2, Velocity (0 - 127): 64
0    |  MIDI Event: Chan 5 Note OFF: D3, Velocity (0 - 127): 64
0    |  MIDI Event: Chan 1 Note OFF: F#3, Velocity (0 - 127): 64
0    |  MIDI Event: Chan 6 Note OFF: D4, Velocity (0 - 127): 64
0    |  MIDI Event: Chan 7 Note OFF: D5, Velocity (0 - 127): 64
0    |  MIDI Event: Chan 1 Note OFF: A3, Velocity (0 - 127): 64
1    |  MIDI Event: Chan 1 Control/Mode Change: Sound Controller 5 (default: Brightness) (0-127): 112
0    |  MIDI Event: Chan 1 Note ON: A3, Velocity (0 - 127): 69
0    |  MIDI Event: Chan 1 Note ON: D4, Velocity (0 - 127): 98
0    |  MIDI Event: Chan 1 Note ON: F#4, Velocity (0 - 127): 74
0    |  MIDI Event: Chan 3 Control/Mode Change: Sound Controller 5 (default: Brightness) (0-127): 78
0    |  MIDI Event: Chan 3 Control/Mode Change: Expression Control (0-127): 127
0    |  MIDI Event: Chan 5 Control/Mode Change: Sound Controller 5 (default: Brightness) (0-127): 112
0    |  MIDI Event: Chan 5 Note ON: A2, Velocity (0 - 127): 100
0    |  MIDI Event: Chan 5 Note ON: D3, Velocity (0 - 127): 111
0    |  MIDI Event: Chan 5 Note ON: F#3, Velocity (0 - 127): 89
0    |  MIDI Event: Chan 10 Note ON: A#2, Velocity (0 - 127): 120
0    |  MIDI Event: Chan 10 Note ON: C#5, Velocity (0 - 127): 119
0    |  MIDI Event: Chan 13 Control/Mode Change: Expression Control (0-127): 95
15   |  MIDI Event: Chan 1 Control/Mode Change: Sound Controller 5 (default: Brightness) (0-127): 114
0    |  MIDI Event: Chan 3 Control/Mode Change: Sound Controller 5 (default: Brightness) (0-127): 83
0    |  MIDI Event: Chan 5 Control/Mode Change: Sound Controller 5 (default: Brightness) (0-127): 114
14   |  MIDI Event: Chan 10 Note OFF: C#5, Velocity (0 - 127): 64
0    |  MIDI Event: Chan 10 Note OFF: A#2, Velocity (0 - 127): 64
1    |  MIDI Event: Chan 1 Control/Mode Change: Sound Controller 5 (default: Brightness) (0-127): 115
0    |  MIDI Event: Chan 3 Control/Mode Change: Sound Controller 5 (default: Brightness) (0-127): 87
0    |  MIDI Event: Chan 5 Control/Mode Change: Sound Controller 5 (default: Brightness) (0-127): 115
15   |  MIDI Event: Chan 1 Control/Mode Change: Sound Controller 5 (default: Brightness) (0-127): 116
0    |  MIDI Event: Chan 3 Control/Mode Change: Sound Controller 5 (default: Brightness) (0-127): 91
0    |  MIDI Event: Chan 5 Control/Mode Change: Sound Controller 5 (default: Brightness) (0-127): 116
15   |  MIDI Event: Chan 1 Control/Mode Change: Sound Controller 5 (default: Brightness) (0-127): 118
0    |  MIDI Event: Chan 3 Control/Mode Change: Sound Controller 5 (default: Brightness) (0-127): 96
0    |  MIDI Event: Chan 3 Control/Mode Change: Expression Control (0-127): 73
0    |  MIDI Event: Chan 5 Control/Mode Change: Sound Controller 5 (default: Brightness) (0-127): 118
0    |  MIDI Event: Chan 6 Note ON: D4, Velocity (0 - 127): 119
0    |  MIDI Event: Chan 6 Note ON: D5, Velocity (0 - 127): 119
0    |  MIDI Event: Chan 7 Note ON: D5, Velocity (0 - 127): 120
0    |  MIDI Event: Chan 10 Note ON: F#2, Velocity (0 - 127): 120
0    |  MIDI Event: Chan 10 Note ON: B3, Velocity (0 - 127): 119
0    |  MIDI Event: Chan 12 Note ON: D5, Velocity (0 - 127): 120
0    |  MIDI Event: Chan 13 Note ON: C5, Velocity (0 - 127): 120
15   |  MIDI Event: Chan 1 Control/Mode Change: Sound Controller 5 (default: Brightness) (0-127): 119
0    |  MIDI Event: Chan 3 Control/Mode Change: Sound Controller 5 (default: Brightness) (0-127): 100
0    |  MIDI Event: Chan 5 Control/Mode Change: Sound Controller 5 (default: Brightness) (0-127): 119
0    |  MIDI Event: Chan 13 Control/Mode Change: Sound Controller 5 (default: Brightness) (0-127): 123
14   |  MIDI Event: Chan 10 Note OFF: B3, Velocity (0 - 127): 64
0    |  MIDI Event: Chan 10 Note OFF: F#2, Velocity (0 - 127): 64
0    |  MIDI Event: Chan 1 Note OFF: D4, Velocity (0 - 127): 64
0    |  MIDI Event: Chan 5 Note OFF: A2, Velocity (0 - 127): 64
0    |  MIDI Event: Chan 1 Note OFF: F#4, Velocity (0 - 127): 64
0    |  MIDI Event: Chan 5 Note OFF: D3, Velocity (0 - 127): 64
0    |  MIDI Event: Chan 5 Note OFF: F#3, Velocity (0 - 127): 64
0    |  MIDI Event: Chan 1 Note OFF: A3, Velocity (0 - 127): 64
1    |  MIDI Event: Chan 1 Control/Mode Change: Sound Controller 5 (default: Brightness) (0-127): 121
0    |  MIDI Event: Chan 1 Note ON: F#3, Velocity (0 - 127): 44
0    |  MIDI Event: Chan 1 Note ON: A3, Velocity (0 - 127): 78
0    |  MIDI Event: Chan 1 Note ON: D4, Velocity (0 - 127): 58
0    |  MIDI Event: Chan 3 Control/Mode Change: Sound Controller 5 (default: Brightness) (0-127): 105
0    |  MIDI Event: Chan 5 Control/Mode Change: Sound Controller 5 (default: Brightness) (0-127): 121
0    |  MIDI Event: Chan 5 Note ON: A2, Velocity (0 - 127): 85
0    |  MIDI Event: Chan 5 Note ON: D3, Velocity (0 - 127): 105
0    |  MIDI Event: Chan 5 Note ON: F#3, Velocity (0 - 127): 81
0    |  MIDI Event: Chan 13 Control/Mode Change: Sound Controller 5 (default: Brightness) (0-127): 120
15   |  MIDI Event: Chan 1 Control/Mode Change: Sound Controller 5 (default: Brightness) (0-127): 122
0    |  MIDI Event: Chan 3 Control/Mode Change: Sound Controller 5 (default: Brightness) (0-127): 109
0    |  MIDI Event: Chan 5 Control/Mode Change: Sound Controller 5 (default: Brightness) (0-127): 122
0    |  MIDI Event: Chan 13 Control/Mode Change: Sound Controller 5 (default: Brightness) (0-127): 117
14   |  MIDI Event: Chan 5 Note OFF: F#3, Velocity (0 - 127): 64
0    |  MIDI Event: Chan 5 Note OFF: D3, Velocity (0 - 127): 64
0    |  MIDI Event: Chan 1 Note OFF: A3, Velocity (0 - 127): 64
0    |  MIDI Event: Chan 6 Note OFF: D5, Velocity (0 - 127): 64
0    |  MIDI Event: Chan 6 Note OFF: D4, Velocity (0 - 127): 64
0    |  MIDI Event: Chan 7 Note OFF: D5, Velocity (0 - 127): 64
0    |  MIDI Event: Chan 12 Note OFF: D5, Velocity (0 - 127): 64
0    |  MIDI Event: Chan 5 Note OFF: A2, Velocity (0 - 127): 64
0    |  MIDI Event: Chan 1 Note OFF: F#3, Velocity (0 - 127): 64
0    |  MIDI Event: Chan 1 Note OFF: D4, Velocity (0 - 127): 64
1    |  MIDI Event: Chan 1 Control/Mode Change: Sound Controller 5 (default: Brightness) (0-127): 124
0    |  MIDI Event: Chan 1 Note ON: A3, Velocity (0 - 127): 57
0    |  MIDI Event: Chan 1 Note ON: D4, Velocity (0 - 127): 91
0    |  MIDI Event: Chan 1 Note ON: F#4, Velocity (0 - 127): 77
0    |  MIDI Event: Chan 3 Control/Mode Change: Sound Controller 5 (default: Brightness) (0-127): 113
0    |  MIDI Event: Chan 3 Control/Mode Change: Expression Control (0-127): 127
0    |  MIDI Event: Chan 5 Control/Mode Change: Sound Controller 5 (default: Brightness) (0-127): 124
0    |  MIDI Event: Chan 5 Note ON: D3, Velocity (0 - 127): 109
0    |  MIDI Event: Chan 5 Note ON: F#3, Velocity (0 - 127): 89
0    |  MIDI Event: Chan 5 Note ON: A3, Velocity (0 - 127): 109
0    |  MIDI Event: Chan 10 Note ON: A#2, Velocity (0 - 127): 120
0    |  MIDI Event: Chan 10 Note ON: C#5, Velocity (0 - 127): 119
0    |  MIDI Event: Chan 13 Control/Mode Change: Sound Controller 5 (default: Brightness) (0-127): 114
15   |  MIDI Event: Chan 1 Control/Mode Change: Sound Controller 5 (default: Brightness) (0-127): 125
0    |  MIDI Event: Chan 3 Control/Mode Change: Sound Controller 5 (default: Brightness) (0-127): 118
0    |  MIDI Event: Chan 5 Control/Mode Change: Sound Controller 5 (default: Brightness) (0-127): 125
0    |  MIDI Event: Chan 13 Control/Mode Change: Sound Controller 5 (default: Brightness) (0-127): 111
14   |  MIDI Event: Chan 10 Note OFF: C#5, Velocity (0 - 127): 64
0    |  MIDI Event: Chan 5 Note OFF: D3, Velocity (0 - 127): 64
0    |  MIDI Event: Chan 1 Note OFF: A3, Velocity (0 - 127): 64
0    |  MIDI Event: Chan 1 Note OFF: F#4, Velocity (0 - 127): 64
0    |  MIDI Event: Chan 1 Note OFF: D4, Velocity (0 - 127): 64
0    |  MIDI Event: Chan 10 Note OFF: A#2, Velocity (0 - 127): 64
0    |  MIDI Event: Chan 5 Note OFF: F#3, Velocity (0 - 127): 64
0    |  MIDI Event: Chan 5 Note OFF: A3, Velocity (0 - 127): 64
1    |  MIDI Event: Chan 1 Control/Mode Change: Sound Controller 5 (default: Brightness) (0-127): 127
0    |  MIDI Event: Chan 1 Note ON: F#3, Velocity (0 - 127): 35
0    |  MIDI Event: Chan 1 Note ON: A3, Velocity (0 - 127): 79
0    |  MIDI Event: Chan 1 Note ON: D4, Velocity (0 - 127): 56
0    |  MIDI Event: Chan 3 Control/Mode Change: Sound Controller 5 (default: Brightness) (0-127): 122
0    |  MIDI Event: Chan 5 Control/Mode Change: Sound Controller 5 (default: Brightness) (0-127): 127
0    |  MIDI Event: Chan 5 Note ON: D3, Velocity (0 - 127): 111
0    |  MIDI Event: Chan 5 Note ON: F#3, Velocity (0 - 127): 100
0    |  MIDI Event: Chan 5 Note ON: A3, Velocity (0 - 127): 100
0    |  MIDI Event: Chan 6 Note ON: D4, Velocity (0 - 127): 103
0    |  MIDI Event: Chan 6 Note ON: D5, Velocity (0 - 127): 103
0    |  MIDI Event: Chan 7 Note ON: D5, Velocity (0 - 127): 120
0    |  MIDI Event: Chan 12 Note ON: D5, Velocity (0 - 127): 120
0    |  MIDI Event: Chan 13 Control/Mode Change: Sound Controller 5 (default: Brightness) (0-127): 107
15   |  MIDI Event: Chan 3 Control/Mode Change: Sound Controller 5 (default: Brightness) (0-127): 127
0    |  MIDI Event: Chan 13 Control/Mode Change: Sound Controller 5 (default: Brightness) (0-127): 104
14   |  MIDI Event: Chan 12 Note OFF: D5, Velocity (0 - 127): 64
0    |  MIDI Event: Chan 7 Note OFF: D5, Velocity (0 - 127): 64
0    |  MIDI Event: Chan 5 Note OFF: A3, Velocity (0 - 127): 64
0    |  MIDI Event: Chan 5 Note OFF: D3, Velocity (0 - 127): 64
0    |  MIDI Event: Chan 1 Note OFF: F#3, Velocity (0 - 127): 64
0    |  MIDI Event: Chan 1 Note OFF: D4, Velocity (0 - 127): 64
0    |  MIDI Event: Chan 1 Note OFF: A3, Velocity (0 - 127): 64
0    |  MIDI Event: Chan 6 Note OFF: D5, Velocity (0 - 127): 64
0    |  MIDI Event: Chan 5 Note OFF: F#3, Velocity (0 - 127): 64
0    |  MIDI Event: Chan 6 Note OFF: D4, Velocity (0 - 127): 64
1    |  MIDI Event: Chan 1 Note ON: F#3, Velocity (0 - 127): 49
0    |  MIDI Event: Chan 1 Note ON: A3, Velocity (0 - 127): 85
0    |  MIDI Event: Chan 1 Note ON: D4, Velocity (0 - 127): 75
0    |  MIDI Event: Chan 3 Control/Mode Change: Expression Control (0-127): 71
0    |  MIDI Event: Chan 5 Note ON: A2, Velocity (0 - 127): 105
0    |  MIDI Event: Chan 5 Note ON: D3, Velocity (0 - 127): 116
0    |  MIDI Event: Chan 6 Note ON: E4, Velocity (0 - 127): 95
0    |  MIDI Event: Chan 6 Note ON: E5, Velocity (0 - 127): 95
0    |  MIDI Event: Chan 7 Note ON: E5, Velocity (0 - 127): 120
0    |  MIDI Event: Chan 10 Note ON: F#2, Velocity (0 - 127): 120
0    |  MIDI Event: Chan 10 Note ON: B3, Velocity (0 - 127): 116
0    |  MIDI Event: Chan 12 Note ON: E5, Velocity (0 - 127): 120
0    |  MIDI Event: Chan 13 Control/Mode Change: Sound Controller 5 (default: Brightness) (0-127): 101
15   |  MIDI Event: Chan 13 Control/Mode Change: Sound Controller 5 (default: Brightness) (0-127): 98
14   |  MIDI Event: Chan 12 Note OFF: E5, Velocity (0 - 127): 64
0    |  MIDI Event: Chan 10 Note OFF: B3, Velocity (0 - 127): 64
0    |  MIDI Event: Chan 10 Note OFF: F#2, Velocity (0 - 127): 64
0    |  MIDI Event: Chan 6 Note OFF: E4, Velocity (0 - 127): 64
0    |  MIDI Event: Chan 7 Note OFF: E5, Velocity (0 - 127): 64
0    |  MIDI Event: Chan 6 Note OFF: E5, Velocity (0 - 127): 64
1    |  MIDI Event: Chan 1 Control/Mode Change: Sound Controller 5 (default: Brightness) (0-127): 122
0    |  MIDI Event: Chan 5 Control/Mode Change: Sound Controller 5 (default: Brightness) (0-127): 122
0    |  MIDI Event: Chan 6 Note ON: D4, Velocity (0 - 127): 86
0    |  MIDI Event: Chan 6 Note ON: D5, Velocity (0 - 127): 86
0    |  MIDI Event: Chan 7 Note ON: D5, Velocity (0 - 127): 120
0    |  MIDI Event: Chan 12 Note ON: D5, Velocity (0 - 127): 120
0    |  MIDI Event: Chan 13 Control/Mode Change: Sound Controller 5 (default: Brightness) (0-127): 95
15   |  MIDI Event: Chan 1 Control/Mode Change: Sound Controller 5 (default: Brightness) (0-127): 118
0    |  MIDI Event: Chan 5 Control/Mode Change: Sound Controller 5 (default: Brightness) (0-127): 118
0    |  MIDI Event: Chan 13 Control/Mode Change: Sound Controller 5 (default: Brightness) (0-127): 92
14   |  MIDI Event: Chan 12 Note OFF: D5, Velocity (0 - 127): 64
0    |  MIDI Event: Chan 6 Note OFF: D4, Velocity (0 - 127): 64
0    |  MIDI Event: Chan 5 Note OFF: A2, Velocity (0 - 127): 64
0    |  MIDI Event: Chan 5 Note OFF: D3, Velocity (0 - 127): 64
0    |  MIDI Event: Chan 1 Note OFF: D4, Velocity (0 - 127): 64
0    |  MIDI Event: Chan 1 Note OFF: A3, Velocity (0 - 127): 64
0    |  MIDI Event: Chan 7 Note OFF: D5, Velocity (0 - 127): 64
0    |  MIDI Event: Chan 1 Note OFF: F#3, Velocity (0 - 127): 64
0    |  MIDI Event: Chan 6 Note OFF: D5, Velocity (0 - 127): 64
1    |  MIDI Event: Chan 1 Control/Mode Change: Sound Controller 5 (default: Brightness) (0-127): 113
0    |  MIDI Event: Chan 1 Note ON: A3, Velocity (0 - 127): 56
0    |  MIDI Event: Chan 1 Note ON: D4, Velocity (0 - 127): 84
0    |  MIDI Event: Chan 1 Note ON: F#4, Velocity (0 - 127): 49
0    |  MIDI Event: Chan 3 Control/Mode Change: Expression Control (0-127): 127
0    |  MIDI Event: Chan 5 Control/Mode Change: Sound Controller 5 (default: Brightness) (0-127): 113
0    |  MIDI Event: Chan 5 Note ON: D3, Velocity (0 - 127): 105
0    |  MIDI Event: Chan 5 Note ON: F#3, Velocity (0 - 127): 115
0    |  MIDI Event: Chan 6 Note ON: E4, Velocity (0 - 127): 98
0    |  MIDI Event: Chan 6 Note ON: E5, Velocity (0 - 127): 98
0    |  MIDI Event: Chan 7 Note ON: E5, Velocity (0 - 127): 120
0    |  MIDI Event: Chan 10 Note ON: A#2, Velocity (0 - 127): 120
0    |  MIDI Event: Chan 10 Note ON: C#5, Velocity (0 - 127): 119
0    |  MIDI Event: Chan 12 Note ON: E5, Velocity (0 - 127): 120
0    |  MIDI Event: Chan 13 Control/Mode Change: Sound Controller 5 (default: Brightness) (0-127): 88
15   |  MIDI Event: Chan 1 Control/Mode Change: Sound Controller 5 (default: Brightness) (0-127): 109
0    |  MIDI Event: Chan 3 Control/Mode Change: Sound Controller 5 (default: Brightness) (0-127): 121
0    |  MIDI Event: Chan 5 Control/Mode Change: Sound Controller 5 (default: Brightness) (0-127): 109
0    |  MIDI Event: Chan 13 Control/Mode Change: Sound Controller 5 (default: Brightness) (0-127): 85
14   |  MIDI Event: Chan 10 Note OFF: C#5, Velocity (0 - 127): 64
0    |  MIDI Event: Chan 10 Note OFF: A#2, Velocity (0 - 127): 64
0    |  MIDI Event: Chan 5 Note OFF: D3, Velocity (0 - 127): 64
0    |  MIDI Event: Chan 1 Note OFF: A3, Velocity (0 - 127): 64
0    |  MIDI Event: Chan 1 Note OFF: F#4, Velocity (0 - 127): 64
0    |  MIDI Event: Chan 1 Note OFF: D4, Velocity (0 - 127): 64
0    |  MIDI Event: Chan 5 Note OFF: F#3, Velocity (0 - 127): 64
1    |  MIDI Event: Chan 1 Control/Mode Change: Sound Controller 5 (default: Brightness) (0-127): 104
0    |  MIDI Event: Chan 1 Note ON: A3, Velocity (0 - 127): 84
0    |  MIDI Event: Chan 1 Note ON: D4, Velocity (0 - 127): 94
0    |  MIDI Event: Chan 1 Note ON: F#4, Velocity (0 - 127): 76
0    |  MIDI Event: Chan 3 Control/Mode Change: Sound Controller 5 (default: Brightness) (0-127): 116
0    |  MIDI Event: Chan 5 Control/Mode Change: Sound Controller 5 (default: Brightness) (0-127): 104
0    |  MIDI Event: Chan 5 Note ON: D3, Velocity (0 - 127): 100
0    |  MIDI Event: Chan 5 Note ON: F#3, Velocity (0 - 127): 92
0    |  MIDI Event: Chan 13 Control/Mode Change: Sound Controller 5 (default: Brightness) (0-127): 82
15   |  MIDI Event: Chan 1 Control/Mode Change: Sound Controller 5 (default: Brightness) (0-127): 100
0    |  MIDI Event: Chan 3 Control/Mode Change: Sound Controller 5 (default: Brightness) (0-127): 111
0    |  MIDI Event: Chan 5 Control/Mode Change: Sound Controller 5 (default: Brightness) (0-127): 100
0    |  MIDI Event: Chan 13 Control/Mode Change: Sound Controller 5 (default: Brightness) (0-127): 79
5    |  MIDI Event: Chan 6 Pitch Bend Change (0-16383): 8071 (factor==0.99804)
5    |  MIDI Event: Chan 6 Pitch Bend Change (0-16383): 6296 (factor==0.96972)
3    |  MIDI Event: Chan 6 Pitch Bend Change (0-16383): 4197 (factor==0.937266)
1    |  MIDI Event: Chan 5 Note OFF: F#3, Velocity (0 - 127): 64
0    |  MIDI Event: Chan 1 Note OFF: D4, Velocity (0 - 127): 64
0    |  MIDI Event: Chan 7 Note OFF: E5, Velocity (0 - 127): 64
0    |  MIDI Event: Chan 6 Note OFF: E4, Velocity (0 - 127): 64
0    |  MIDI Event: Chan 6 Note OFF: E5, Velocity (0 - 127): 64
0    |  MIDI Event: Chan 3 Note OFF: A3, Velocity (0 - 127): 64
0    |  MIDI Event: Chan 12 Note OFF: E5, Velocity (0 - 127): 64
0    |  MIDI Event: Chan 3 Note OFF: F#4, Velocity (0 - 127): 64
0    |  MIDI Event: Chan 3 Note OFF: D4, Velocity (0 - 127): 64
0    |  MIDI Event: Chan 1 Note OFF: F#4, Velocity (0 - 127): 64
0    |  MIDI Event: Chan 1 Note OFF: A3, Velocity (0 - 127): 64
0    |  MIDI Event: Chan 5 Note OFF: D3, Velocity (0 - 127): 64
1    |  MIDI Event: Chan 1 Control/Mode Change: Sound Controller 5 (default: Brightness) (0-127): 95
0    |  MIDI Event: Chan 1 Note ON: E3, Velocity (0 - 127): 47
0    |  MIDI Event: Chan 1 Note ON: A3, Velocity (0 - 127): 89
0    |  MIDI Event: Chan 1 Note ON: C#4, Velocity (0 - 127): 52
0    |  MIDI Event: Chan 3 Control/Mode Change: Sound Controller 5 (default: Brightness) (0-127): 106
0    |  MIDI Event: Chan 3 Control/Mode Change: Expression Control (0-127): 80
0    |  MIDI Event: Chan 3 Note ON: A3, Velocity (0 - 127): 120
0    |  MIDI Event: Chan 3 Note ON: D4, Velocity (0 - 127): 120
0    |  MIDI Event: Chan 3 Note ON: F#4, Velocity (0 - 127): 120
0    |  MIDI Event: Chan 5 Control/Mode Change: Sound Controller 5 (default: Brightness) (0-127): 95
0    |  MIDI Event: Chan 5 Note ON: A2, Velocity (0 - 127): 101
0    |  MIDI Event: Chan 5 Note ON: E3, Velocity (0 - 127): 101
0    |  MIDI Event: Chan 6 Note ON: F#4, Velocity (0 - 127): 119
0    |  MIDI Event: Chan 6 Note ON: F#5, Velocity (0 - 127): 119
0    |  MIDI Event: Chan 6 Pitch Bend Change (0-16383): 1776 (factor==0.901179)
0    |  MIDI Event: Chan 7 Note ON: F#5, Velocity (0 - 127): 120
0    |  MIDI Event: Chan 10 Note ON: F#2, Velocity (0 - 127): 120
0    |  MIDI Event: Chan 10 Note ON: B3, Velocity (0 - 127): 120
0    |  MIDI Event: Chan 12 Note ON: F#5, Velocity (0 - 127): 120
0    |  MIDI Event: Chan 13 Control/Mode Change: Sound Controller 5 (default: Brightness) (0-127): 76
3    |  MIDI Event: Chan 6 Pitch Bend Change (0-16383): 0 (factor==0.875594)
12   |  MIDI Event: Chan 1 Control/Mode Change: Sound Controller 5 (default: Brightness) (0-127): 91
0    |  MIDI Event: Chan 3 Control/Mode Change: Sound Controller 5 (default: Brightness) (0-127): 100
0    |  MIDI Event: Chan 5 Control/Mode Change: Sound Controller 5 (default: Brightness) (0-127): 91
0    |  MIDI Event: Chan 13 Control/Mode Change: Sound Controller 5 (default: Brightness) (0-127): 73
5    |  MIDI Event: Chan 6 Pitch Bend Change (0-16383): 646 (factor==0.884815)
3    |  MIDI Event: Chan 6 Pitch Bend Change (0-16383): 2422 (factor==0.91067)
2    |  MIDI Event: Chan 6 Pitch Bend Change (0-16383): 4520 (factor==0.942188)
3    |  MIDI Event: Chan 6 Pitch Bend Change (0-16383): 6942 (factor==0.979932)
1    |  MIDI Event: Chan 10 Note OFF: B3, Velocity (0 - 127): 64
0    |  MIDI Event: Chan 10 Note OFF: F#2, Velocity (0 - 127): 64
1    |  MIDI Event: Chan 1 Control/Mode Change: Sound Controller 5 (default: Brightness) (0-127): 86
0    |  MIDI Event: Chan 3 Control/Mode Change: Sound Controller 5 (default: Brightness) (0-127): 95
0    |  MIDI Event: Chan 5 Control/Mode Change: Sound Controller 5 (default: Brightness) (0-127): 86
0    |  MIDI Event: Chan 6 Pitch Bend Change (0-16383): 8192 (factor==1)
0    |  MIDI Event: Chan 13 Control/Mode Change: Sound Controller 5 (default: Brightness) (0-127): 69
15   |  MIDI Event: Chan 1 Control/Mode Change: Sound Controller 5 (default: Brightness) (0-127): 82
0    |  MIDI Event: Chan 3 Control/Mode Change: Sound Controller 5 (default: Brightness) (0-127): 90
0    |  MIDI Event: Chan 5 Control/Mode Change: Sound Controller 5 (default: Brightness) (0-127): 82
0    |  MIDI Event: Chan 13 Control/Mode Change: Sound Controller 5 (default: Brightness) (0-127): 66
14   |  MIDI Event: Chan 12 Note OFF: F#5, Velocity (0 - 127): 64
0    |  MIDI Event: Chan 6 Note OFF: F#4, Velocity (0 - 127): 64
0    |  MIDI Event: Chan 5 Note OFF: A2, Velocity (0 - 127): 64
0    |  MIDI Event: Chan 1 Note OFF: A3, Velocity (0 - 127): 64
0    |  MIDI Event: Chan 1 Note OFF: C#4, Velocity (0 - 127): 64
0    |  MIDI Event: Chan 1 Note OFF: E3, Velocity (0 - 127): 64
0    |  MIDI Event: Chan 7 Note OFF: F#5, Velocity (0 - 127): 64
0    |  MIDI Event: Chan 5 Note OFF: E3, Velocity (0 - 127): 64
0    |  MIDI Event: Chan 6 Note OFF: F#5, Velocity (0 - 127): 64
1    |  MIDI Event: Chan 1 Control/Mode Change: Sound Controller 5 (default: Brightness) (0-127): 77
0    |  MIDI Event: Chan 1 Note ON: A3, Velocity (0 - 127): 51
0    |  MIDI Event: Chan 1 Note ON: C#4, Velocity (0 - 127): 52
0    |  MIDI Event: Chan 1 Note ON: E4, Velocity (0 - 127): 78
0    |  MIDI Event: Chan 3 Control/Mode Change: Sound Controller 5 (default: Brightness) (0-127): 85
0    |  MIDI Event: Chan 3 Control/Mode Change: Expression Control (0-127): 127
0    |  MIDI Event: Chan 5 Control/Mode Change: Sound Controller 5 (default: Brightness) (0-127): 77
0    |  MIDI Event: Chan 5 Note ON: C#3, Velocity (0 - 127): 89
0    |  MIDI Event: Chan 5 Note ON: E3, Velocity (0 - 127): 101
0    |  MIDI Event: Chan 5 Note ON: A3, Velocity (0 - 127): 89
0    |  MIDI Event: Chan 6 Note ON: D4, Velocity (0 - 127): 111
0    |  MIDI Event: Chan 6 Note ON: D5, Velocity (0 - 127): 111
0    |  MIDI Event: Chan 7 Note ON: D5, Velocity (0 - 127): 120
0    |  MIDI Event: Chan 10 Note ON: A#2, Velocity (0 - 127): 120
0    |  MIDI Event: Chan 10 Note ON: C#5, Velocity (0 - 127): 115
0    |  MIDI Event: Chan 12 Note ON: D5, Velocity (0 - 127): 120
0    |  MIDI Event: Chan 13 Control/Mode Change: Sound Controller 5 (default: Brightness) (0-127): 63
15   |  MIDI Event: Chan 1 Control/Mode Change: Sound Controller 5 (default: Brightness) (0-127): 73
0    |  MIDI Event: Chan 3 Control/Mode Change: Sound Controller 5 (default: Brightness) (0-127): 79
0    |  MIDI Event: Chan 5 Control/Mode Change: Sound Controller 5 (default: Brightness) (0-127): 73
0    |  MIDI Event: Chan 13 Control/Mode Change: Sound Controller 5 (default: Brightness) (0-127): 60
14   |  MIDI Event: Chan 10 Note OFF: C#5, Velocity (0 - 127): 64
0    |  MIDI Event: Chan 10 Note OFF: A#2, Velocity (0 - 127): 64
0    |  MIDI Event: Chan 5 Note OFF: A3, Velocity (0 - 127): 64
0    |  MIDI Event: Chan 5 Note OFF: C#3, Velocity (0 - 127): 64
0    |  MIDI Event: Chan 1 Note OFF: A3, Velocity (0 - 127): 64
0    |  MIDI Event: Chan 1 Note OFF: E4, Velocity (0 - 127): 64
0    |  MIDI Event: Chan 1 Note OFF: C#4, Velocity (0 - 127): 64
0    |  MIDI Event: Chan 5 Note OFF: E3, Velocity (0 - 127): 64
1    |  MIDI Event: Chan 1 Control/Mode Change: Sound Controller 5 (default: Brightness) (0-127): 68
0    |  MIDI Event: Chan 1 Note ON: A3, Velocity (0 - 127): 73
0    |  MIDI Event: Chan 1 Note ON: C#4, Velocity (0 - 127): 52
0    |  MIDI Event: Chan 1 Note ON: E4, Velocity (0 - 127): 83
0    |  MIDI Event: Chan 3 Control/Mode Change: Sound Controller 5 (default: Brightness) (0-127): 74
0    |  MIDI Event: Chan 5 Control/Mode Change: Sound Controller 5 (default: Brightness) (0-127): 68
0    |  MIDI Event: Chan 5 Note ON: C#3, Velocity (0 - 127): 119
0    |  MIDI Event: Chan 5 Note ON: E3, Velocity (0 - 127): 118
0    |  MIDI Event: Chan 5 Note ON: A3, Velocity (0 - 127): 105
0    |  MIDI Event: Chan 13 Control/Mode Change: Sound Controller 5 (default: Brightness) (0-127): 57
15   |  MIDI Event: Chan 1 Control/Mode Change: Sound Controller 5 (default: Brightness) (0-127): 64
0    |  MIDI Event: Chan 3 Control/Mode Change: Sound Controller 5 (default: Brightness) (0-127): 69
0    |  MIDI Event: Chan 5 Control/Mode Change: Sound Controller 5 (default: Brightness) (0-127): 64
14   |  MIDI Event: Chan 5 Note OFF: A3, Velocity (0 - 127): 64
0    |  MIDI Event: Chan 3 Note OFF: A3, Velocity (0 - 127): 64
0    |  MIDI Event: Chan 1 Note OFF: C#4, Velocity (0 - 127): 64
0    |  MIDI Event: Chan 7 Note OFF: D5, Velocity (0 - 127): 64
0    |  MIDI Event: Chan 6 Note OFF: D4, Velocity (0 - 127): 64
0    |  MIDI Event: Chan 5 Note OFF: E3, Velocity (0 - 127): 64
0    |  MIDI Event: Chan 9 Note OFF: D3, Velocity (0 - 127): 64
0    |  MIDI Event: Chan 9 Note OFF: D4, Velocity (0 - 127): 64
0    |  MIDI Event: Chan 12 Note OFF: D5, Velocity (0 - 127): 64
0    |  MIDI Event: Chan 6 Note OFF: D5, Velocity (0 - 127): 64
0    |  MIDI Event: Chan 1 Note OFF: E4, Velocity (0 - 127): 64
0    |  MIDI Event: Chan 1 Note OFF: A3, Velocity (0 - 127): 64
0    |  MIDI Event: Chan 3 Note OFF: D4, Velocity (0 - 127): 64
0    |  MIDI Event: Chan 3 Note OFF: F#4, Velocity (0 - 127): 64
0    |  MIDI Event: Chan 5 Note OFF: C#3, Velocity (0 - 127): 64
1    |  MIDI Event: Chan 13 Note OFF: C5, Velocity (0 - 127): 64
0    |  MIDI Event: Chan 1 Note ON: B3, Velocity (0 - 127): 58
0    |  MIDI Event: Chan 1 Note ON: D4, Velocity (0 - 127): 91
0    |  MIDI Event: Chan 5 Note ON: B2, Velocity (0 - 127): 85
0    |  MIDI Event: Chan 5 Note ON: F#3, Velocity (0 - 127): 120
0    |  MIDI Event: Chan 10 Note ON: G#2, Velocity (0 - 127): 111
59   |  MIDI Event: Chan 5 Note OFF: F#3, Velocity (0 - 127): 64
0    |  MIDI Event: Chan 5 Note OFF: B2, Velocity (0 - 127): 64
0    |  MIDI Event: Chan 1 Note OFF: B3, Velocity (0 - 127): 64
0    |  MIDI Event: Chan 1 Note OFF: D4, Velocity (0 - 127): 64
1    |  MIDI Event: Chan 1 Note ON: B3, Velocity (0 - 127): 79
0    |  MIDI Event: Chan 1 Note ON: D4, Velocity (0 - 127): 95
0    |  MIDI Event: Chan 1 Note ON: F#4, Velocity (0 - 127): 74
0    |  MIDI Event: Chan 5 Note ON: D3, Velocity (0 - 127): 92
0    |  MIDI Event: Chan 5 Note ON: F#3, Velocity (0 - 127): 87
0    |  MIDI Event: Chan 5 Note ON: D4, Velocity (0 - 127): 95
60   |  MIDI Event: Chan 4 Note ON: B3, Velocity (0 - 127): 120
0    |  Meta Event: Lyric: I 
29   |  MIDI Event: Chan 4 Note OFF: B3, Velocity (0 - 127): 64
0    |  MIDI Event: Chan 5 Note OFF: D4, Velocity (0 - 127): 64
0    |  MIDI Event: Chan 5 Note OFF: D3, Velocity (0 - 127): 64
0    |  MIDI Event: Chan 1 Note OFF: B3, Velocity (0 - 127): 64
0    |  MIDI Event: Chan 1 Note OFF: D4, Velocity (0 - 127): 64
0    |  MIDI Event: Chan 1 Note OFF: F#4, Velocity (0 - 127): 64
0    |  MIDI Event: Chan 5 Note OFF: F#3, Velocity (0 - 127): 64
1    |  MIDI Event: Chan 1 Note ON: B3, Velocity (0 - 127): 71
0    |  MIDI Event: Chan 1 Note ON: D4, Velocity (0 - 127): 91
0    |  MIDI Event: Chan 1 Note ON: F#4, Velocity (0 - 127): 60
0    |  MIDI Event: Chan 4 Note ON: B3, Velocity (0 - 127): 111
0    |  MIDI Event: Chan 5 Note ON: F#3, Velocity (0 - 127): 109
0    |  MIDI Event: Chan 5 Note ON: B3, Velocity (0 - 127): 95
0    |  Meta Event: Lyric: tried 
29   |  MIDI Event: Chan 5 Note OFF: B3, Velocity (0 - 127): 64
0    |  MIDI Event: Chan 4 Note OFF: B3, Velocity (0 - 127): 64
0    |  MIDI Event: Chan 1 Note OFF: B3, Velocity (0 - 127): 64
0    |  MIDI Event: Chan 1 Note OFF: D4, Velocity (0 - 127): 64
0    |  MIDI Event: Chan 1 Note OFF: F#4, Velocity (0 - 127): 64
0    |  MIDI Event: Chan 5 Note OFF: F#3, Velocity (0 - 127): 64
1    |  MIDI Event: Chan 1 Note ON: D4, Velocity (0 - 127): 80
0    |  MIDI Event: Chan 1 Note ON: F#4, Velocity (0 - 127): 62
0    |  MIDI Event: Chan 1 Note ON: B4, Velocity (0 - 127): 91
0    |  MIDI Event: Chan 5 Note ON: D3, Velocity (0 - 127): 103
0    |  MIDI Event: Chan 5 Note ON: F#3, Velocity (0 - 127): 115
29   |  MIDI Event: Chan 5 Note OFF: F#3, Velocity (0 - 127): 64
0    |  MIDI Event: Chan 1 Note OFF: D4, Velocity (0 - 127): 64
0    |  MIDI Event: Chan 1 Note OFF: F#4, Velocity (0 - 127): 64
0    |  MIDI Event: Chan 1 Note OFF: B4, Velocity (0 - 127): 64
0    |  MIDI Event: Chan 5 Note OFF: D3, Velocity (0 - 127): 64
1    |  MIDI Event: Chan 1 Note ON: B3, Velocity (0 - 127): 51
0    |  MIDI Event: Chan 1 Note ON: D4, Velocity (0 - 127): 85
0    |  MIDI Event: Chan 1 Note ON: F#4, Velocity (0 - 127): 59
0    |  MIDI Event: Chan 4 Note ON: B3, Velocity (0 - 127): 97
0    |  MIDI Event: Chan 5 Note ON: B2, Velocity (0 - 127): 92
0    |  MIDI Event: Chan 5 Note ON: E3, Velocity (0 - 127): 98
0    |  Meta Event: Lyric: car
29   |  MIDI Event: Chan 5 Note OFF: E3, Velocity (0 - 127): 64
0    |  MIDI Event: Chan 4 Note OFF: B3, Velocity (0 - 127): 64
0    |  MIDI Event: Chan 1 Note OFF: B3, Velocity (0 - 127): 64
0    |  MIDI Event: Chan 1 Note OFF: D4, Velocity (0 - 127): 64
0    |  MIDI Event: Chan 10 Note OFF: G#2, Velocity (0 - 127): 64
0    |  MIDI Event: Chan 5 Note OFF: B2, Velocity (0 - 127): 64
0    |  MIDI Event: Chan 1 Note OFF: F#4, Velocity (0 - 127): 64
1    |  MIDI Event: Chan 1 Note ON: G3, Velocity (0 - 127): 74
0    |  MIDI Event: Chan 1 Note ON: B3, Velocity (0 - 127): 94
0    |  MIDI Event: Chan 1 Note ON: D4, Velocity (0 - 127): 91
0    |  MIDI Event: Chan 4 Note ON: B3, Velocity (0 - 127): 111
0    |  MIDI Event: Chan 5 Note ON: G2, Velocity (0 - 127): 98
0    |  MIDI Event: Chan 5 Note ON: D3, Velocity (0 - 127): 116
0    |  Meta Event: Lyric: ry
59   |  MIDI Event: Chan 5 Note OFF: D3, Velocity (0 - 127): 64
0    |  MIDI Event: Chan 1 Note OFF: B3, Velocity (0 - 127): 64
0    |  MIDI Event: Chan 1 Note OFF: D4, Velocity (0 - 127): 64
0    |  MIDI Event: Chan 1 Note OFF: G3, Velocity (0 - 127): 64
0    |  MIDI Event: Chan 5 Note OFF: G2, Velocity (0 - 127): 64
0    |  MIDI Event: Chan 4 Note OFF: B3, Velocity (0 - 127): 64
1    |  MIDI Event: Chan 1 Note ON: B3, Velocity (0 - 127): 70
0    |  MIDI Event: Chan 1 Note ON: D4, Velocity (0 - 127): 94
0    |  MIDI Event: Chan 1 Note ON: G4, Velocity (0 - 127): 101
0    |  MIDI Event: Chan 5 Note ON: D3, Velocity (0 - 127): 79
0    |  MIDI Event: Chan 5 Note ON: G3, Velocity (0 - 127): 111
0    |  MIDI Event: Chan 5 Note ON: B3, Velocity (0 - 127): 100
30   |  MIDI Event: Chan 4 Note ON: A3, Velocity (0 - 127): 111
0    |  Meta Event: Lyric: ing 
0    |  Meta Event: Lyric: 
59   |  MIDI Event: Chan 4 Note OFF: A3, Velocity (0 - 127): 64
0    |  MIDI Event: Chan 5 Note OFF: G3, Velocity (0 - 127): 64
0    |  MIDI Event: Chan 1 Note OFF: D4, Velocity (0 - 127): 64
0    |  MIDI Event: Chan 1 Note OFF: G4, Velocity (0 - 127): 64
0    |  MIDI Event: Chan 1 Note OFF: B3, Velocity (0 - 127): 64
0    |  MIDI Event: Chan 5 Note OFF: B3, Velocity (0 - 127): 64
0    |  MIDI Event: Chan 5 Note OFF: D3, Velocity (0 - 127): 64
1    |  MIDI Event: Chan 1 Note ON: B3, Velocity (0 - 127): 52
0    |  MIDI Event: Chan 1 Note ON: D4, Velocity (0 - 127): 85
0    |  MIDI Event: Chan 1 Note ON: G4, Velocity (0 - 127): 94
0    |  MIDI Event: Chan 5 Note ON: D3, Velocity (0 - 127): 82
0    |  MIDI Event: Chan 5 Note ON: G3, Velocity (0 - 127): 98
0    |  MIDI Event: Chan 5 Note ON: B3, Velocity (0 - 127): 85
29   |  MIDI Event: Chan 5 Note OFF: B3, Velocity (0 - 127): 64
0    |  MIDI Event: Chan 1 Note OFF: D4, Velocity (0 - 127): 64
0    |  MIDI Event: Chan 1 Note OFF: G4, Velocity (0 - 127): 64
0    |  MIDI Event: Chan 1 Note OFF: B3, Velocity (0 - 127): 64
0    |  MIDI Event: Chan 5 Note OFF: G3, Velocity (0 - 127): 64
0    |  MIDI Event: Chan 5 Note OFF: D3, Velocity (0 - 127): 64
1    |  MIDI Event: Chan 1 Note ON: D4, Velocity (0 - 127): 78
0    |  MIDI Event: Chan 1 Note ON: G4, Velocity (0 - 127): 100
0    |  MIDI Event: Chan 1 Note ON: B4, Velocity (0 - 127): 46
0    |  MIDI Event: Chan 4 Note ON: F#3, Velocity (0 - 127): 109
0    |  MIDI Event: Chan 5 Note ON: G2, Velocity (0 - 127): 109
0    |  MIDI Event: Chan 5 Note ON: D3, Velocity (0 - 127): 109
0    |  Meta Event: Lyric: the 
29   |  MIDI Event: Chan 5 Note OFF: D3, Velocity (0 - 127): 64
0    |  MIDI Event: Chan 1 Note OFF: G4, Velocity (0 - 127): 64
0    |  MIDI Event: Chan 1 Note OFF: B4, Velocity (0 - 127): 64
0    |  MIDI Event: Chan 1 Note OFF: D4, Velocity (0 - 127): 64
0    |  MIDI Event: Chan 5 Note OFF: G2, Velocity (0 - 127): 64
0    |  MIDI Event: Chan 4 Note OFF: F#3, Velocity (0 - 127): 64
1    |  MIDI Event: Chan 1 Note ON: B3, Velocity (0 - 127): 45
0    |  MIDI Event: Chan 1 Note ON: D4, Velocity (0 - 127): 73
0    |  MIDI Event: Chan 1 Note ON: G4, Velocity (0 - 127): 86
0    |  MIDI Event: Chan 5 Note ON: G2, Velocity (0 - 127): 101
0    |  MIDI Event: Chan 5 Note ON: E3, Velocity (0 - 127): 116
29   |  MIDI Event: Chan 5 Note OFF: E3, Velocity (0 - 127): 64
0    |  MIDI Event: Chan 1 Note OFF: G4, Velocity (0 - 127): 64
0    |  MIDI Event: Chan 1 Note OFF: B3, Velocity (0 - 127): 64
0    |  MIDI Event: Chan 1 Note OFF: D4, Velocity (0 - 127): 64
0    |  MIDI Event: Chan 5 Note OFF: G2, Velocity (0 - 127): 64
1    |  MIDI Event: Chan 1 Note ON: F#3, Velocity (0 - 127): 35
0    |  MIDI Event: Chan 1 Note ON: A3, Velocity (0 - 127): 85
0    |  MIDI Event: Chan 1 Note ON: D4, Velocity (0 - 127): 79
0    |  MIDI Event: Chan 4 Note ON: A3, Velocity (0 - 127): 113
0    |  MIDI Event: Chan 5 Note ON: A2, Velocity (0 - 127): 90
0    |  MIDI Event: Chan 5 Note ON: D3, Velocity (0 - 127): 105
0    |  Meta Event: Lyric: weight 
59   |  MIDI Event: Chan 5 Note OFF: D3, Velocity (0 - 127): 64
0    |  MIDI Event: Chan 1 Note OFF: A3, Velocity (0 - 127): 64
0    |  MIDI Event: Chan 1 Note OFF: F#3, Velocity (0 - 127): 64
0    |  MIDI Event: Chan 1 Note OFF: D4, Velocity (0 - 127): 64
0    |  MIDI Event: Chan 5 Note OFF: A2, Velocity (0 - 127): 64
1    |  MIDI Event: Chan 1 Note ON: A3, Velocity (0 - 127): 69
0    |  MIDI Event: Chan 1 Note ON: D4, Velocity (0 - 127): 98
0    |  MIDI Event: Chan 1 Note ON: F#4, Velocity (0 - 127): 74
0    |  MIDI Event: Chan 5 Note ON: A2, Velocity (0 - 127): 100
0    |  MIDI Event: Chan 5 Note ON: D3, Velocity (0 - 127): 111
0    |  MIDI Event: Chan 5 Note ON: F#3, Velocity (0 - 127): 89
59   |  MIDI Event: Chan 4 Note OFF: A3, Velocity (0 - 127): 64
1    |  MIDI Event: Chan 4 Note ON: F#3, Velocity (0 - 127): 120
0    |  Meta Event: Lyric: o
29   |  MIDI Event: Chan 4 Note OFF: F#3, Velocity (0 - 127): 64
0    |  MIDI Event: Chan 5 Note OFF: F#3, Velocity (0 - 127): 64
0    |  MIDI Event: Chan 1 Note OFF: D4, Velocity (0 - 127): 64
0    |  MIDI Event: Chan 1 Note OFF: F#4, Velocity (0 - 127): 64
0    |  MIDI Event: Chan 1 Note OFF: A3, Velocity (0 - 127): 64
0    |  MIDI Event: Chan 5 Note OFF: D3, Velocity (0 - 127): 64
0    |  MIDI Event: Chan 5 Note OFF: A2, Velocity (0 - 127): 64
1    |  MIDI Event: Chan 1 Note ON: F#3, Velocity (0 - 127): 44
0    |  MIDI Event: Chan 1 Note ON: A3, Velocity (0 - 127): 78
0    |  MIDI Event: Chan 1 Note ON: D4, Velocity (0 - 127): 58
0    |  MIDI Event: Chan 4 Note ON: E3, Velocity (0 - 127): 98
0    |  MIDI Event: Chan 5 Note ON: A2, Velocity (0 - 127): 85
0    |  MIDI Event: Chan 5 Note ON: D3, Velocity (0 - 127): 105
0    |  MIDI Event: Chan 5 Note ON: F#3, Velocity (0 - 127): 81
0    |  Meta Event: Lyric: f 
29   |  MIDI Event: Chan 5 Note OFF: F#3, Velocity (0 - 127): 64
0    |  MIDI Event: Chan 5 Note OFF: A2, Velocity (0 - 127): 64
0    |  MIDI Event: Chan 1 Note OFF: A3, Velocity (0 - 127): 64
0    |  MIDI Event: Chan 1 Note OFF: D4, Velocity (0 - 127): 64
0    |  MIDI Event: Chan 1 Note OFF: F#3, Velocity (0 - 127): 64
0    |  MIDI Event: Chan 5 Note OFF: D3, Velocity (0 - 127): 64
0    |  MIDI Event: Chan 4 Note OFF: E3, Velocity (0 - 127): 64
1    |  MIDI Event: Chan 1 Note ON: A3, Velocity (0 - 127): 57
0    |  MIDI Event: Chan 1 Note ON: D4, Velocity (0 - 127): 91
0    |  MIDI Event: Chan 1 Note ON: F#4, Velocity (0 - 127): 77
0    |  MIDI Event: Chan 4 Note ON: D3, Velocity (0 - 127): 107
0    |  MIDI Event: Chan 5 Note ON: D3, Velocity (0 - 127): 109
0    |  MIDI Event: Chan 5 Note ON: F#3, Velocity (0 - 127): 89
0    |  MIDI Event: Chan 5 Note ON: A3, Velocity (0 - 127): 109
0    |  Meta Event: Lyric: the 
29   |  MIDI Event: Chan 5 Note OFF: A3, Velocity (0 - 127): 64
0    |  MIDI Event: Chan 5 Note OFF: D3, Velocity (0 - 127): 64
0    |  MIDI Event: Chan 1 Note OFF: D4, Velocity (0 - 127): 64
0    |  MIDI Event: Chan 1 Note OFF: F#4, Velocity (0 - 127): 64
0    |  MIDI Event: Chan 1 Note OFF: A3, Velocity (0 - 127): 64
0    |  MIDI Event: Chan 5 Note OFF: F#3, Velocity (0 - 127): 64
0    |  MIDI Event: Chan 4 Note OFF: D3, Velocity (0 - 127): 64
1    |  MIDI Event: Chan 1 Note ON: F#3, Velocity (0 - 127): 35
0    |  MIDI Event: Chan 1 Note ON: A3, Velocity (0 - 127): 79
0    |  MIDI Event: Chan 1 Note ON: D4, Velocity (0 - 127): 56
0    |  MIDI Event: Chan 4 Note ON: D3, Velocity (0 - 127): 120
0    |  MIDI Event: Chan 5 Note ON: D3, Velocity (0 - 127): 111
0    |  MIDI Event: Chan 5 Note ON: F#3, Velocity (0 - 127): 100
0    |  MIDI Event: Chan 5 Note ON: A3, Velocity (0 - 127): 100
0    |  Meta Event: Lyric: world 
0    |  Meta Event: Lyric: 
29   |  MIDI Event: Chan 5 Note OFF: A3, Velocity (0 - 127): 64
0    |  MIDI Event: Chan 5 Note OFF: D3, Velocity (0 - 127): 64
0    |  MIDI Event: Chan 1 Note OFF: A3, Velocity (0 - 127): 64
0    |  MIDI Event: Chan 1 Note OFF: F#3, Velocity (0 - 127): 64
0    |  MIDI Event: Chan 1 Note OFF: D4, Velocity (0 - 127): 64
0    |  MIDI Event: Chan 5 Note OFF: F#3, Velocity (0 - 127): 64
1    |  MIDI Event: Chan 1 Note ON: F#3, Velocity (0 - 127): 35
0    |  MIDI Event: Chan 1 Note ON: A3, Velocity (0 - 127): 85
0    |  MIDI Event: Chan 1 Note ON: D4, Velocity (0 - 127): 79
0    |  MIDI Event: Chan 5 Note ON: A2, Velocity (0 - 127): 90
0    |  MIDI Event: Chan 5 Note ON: D3, Velocity (0 - 127): 105
59   |  MIDI Event: Chan 5 Note OFF: D3, Velocity (0 - 127): 64
0    |  MIDI Event: Chan 1 Note OFF: F#3, Velocity (0 - 127): 64
0    |  MIDI Event: Chan 1 Note OFF: A3, Velocity (0 - 127): 64
0    |  MIDI Event: Chan 1 Note OFF: D4, Velocity (0 - 127): 64
0    |  MIDI Event: Chan 5 Note OFF: A2, Velocity (0 - 127): 64
1    |  MIDI Event: Chan 1 Note ON: A3, Velocity (0 - 127): 69
0    |  MIDI Event: Chan 1 Note ON: D4, Velocity (0 - 127): 98
0    |  MIDI Event: Chan 1 Note ON: F#4, Velocity (0 - 127): 74
0    |  MIDI Event: Chan 5 Note ON: A2, Velocity (0 - 127): 100
0    |  MIDI Event: Chan 5 Note ON: D3, Velocity (0 - 127): 111
0    |  MIDI Event: Chan 5 Note ON: F#3, Velocity (0 - 127): 89
59   |  MIDI Event: Chan 4 Note OFF: D3, Velocity (0 - 127): 64
30   |  MIDI Event: Chan 5 Note OFF: D3, Velocity (0 - 127): 64
0    |  MIDI Event: Chan 1 Note OFF: D4, Velocity (0 - 127): 64
0    |  MIDI Event: Chan 1 Note OFF: F#4, Velocity (0 - 127): 64
0    |  MIDI Event: Chan 1 Note OFF: A3, Velocity (0 - 127): 64
0    |  MIDI Event: Chan 5 Note OFF: F#3, Velocity (0 - 127): 64
0    |  MIDI Event: Chan 5 Note OFF: A2, Velocity (0 - 127): 64
1    |  MIDI Event: Chan 1 Note ON: F#3, Velocity (0 - 127): 44
0    |  MIDI Event: Chan 1 Note ON: A3, Velocity (0 - 127): 78
0    |  MIDI Event: Chan 1 Note ON: D4, Velocity (0 - 127): 58
0    |  MIDI Event: Chan 5 Note ON: A2, Velocity (0 - 127): 85
0    |  MIDI Event: Chan 5 Note ON: D3, Velocity (0 - 127): 105
0    |  MIDI Event: Chan 5 Note ON: F#3, Velocity (0 - 127): 81
29   |  MIDI Event: Chan 5 Note OFF: F#3, Velocity (0 - 127): 64
0    |  MIDI Event: Chan 1 Note OFF: A3, Velocity (0 - 127): 64
0    |  MIDI Event: Chan 1 Note OFF: D4, Velocity (0 - 127): 64
0    |  MIDI Event: Chan 1 Note OFF: F#3, Velocity (0 - 127): 64
0    |  MIDI Event: Chan 5 Note OFF: D3, Velocity (0 - 127): 64
0    |  MIDI Event: Chan 5 Note OFF: A2, Velocity (0 - 127): 64
1    |  MIDI Event: Chan 1 Note ON: A3, Velocity (0 - 127): 57
0    |  MIDI Event: Chan 1 Note ON: D4, Velocity (0 - 127): 91
0    |  MIDI Event: Chan 1 Note ON: F#4, Velocity (0 - 127): 77
0    |  MIDI Event: Chan 5 Note ON: D3, Velocity (0 - 127): 109
0    |  MIDI Event: Chan 5 Note ON: F#3, Velocity (0 - 127): 89
0    |  MIDI Event: Chan 5 Note ON: A3, Velocity (0 - 127): 109
29   |  MIDI Event: Chan 5 Note OFF: A3, Velocity (0 - 127): 64
0    |  MIDI Event: Chan 1 Note OFF: D4, Velocity (0 - 127): 64
0    |  MIDI Event: Chan 1 Note OFF: F#4, Velocity (0 - 127): 64
0    |  MIDI Event: Chan 1 Note OFF: A3, Velocity (0 - 127): 64
0    |  MIDI Event: Chan 5 Note OFF: F#3, Velocity (0 - 127): 64
0    |  MIDI Event: Chan 5 Note OFF: D3, Velocity (0 - 127): 64
1    |  MIDI Event: Chan 1 Note ON: F#3, Velocity (0 - 127): 35
0    |  MIDI Event: Chan 1 Note ON: A3, Velocity (0 - 127): 79
0    |  MIDI Event: Chan 1 Note ON: D4, Velocity (0 - 127): 56
0    |  MIDI Event: Chan 5 Note ON: D3, Velocity (0 - 127): 111
0    |  MIDI Event: Chan 5 Note ON: F#3, Velocity (0 - 127): 100
0    |  MIDI Event: Chan 5 Note ON: A3, Velocity (0 - 127): 100
29   |  MIDI Event: Chan 5 Note OFF: A3, Velocity (0 - 127): 64
0    |  MIDI Event: Chan 1 Note OFF: A3, Velocity (0 - 127): 64
0    |  MIDI Event: Chan 1 Note OFF: D4, Velocity (0 - 127): 64
0    |  MIDI Event: Chan 1 Note OFF: F#3, Velocity (0 - 127): 64
0    |  MIDI Event: Chan 5 Note OFF: F#3, Velocity (0 - 127): 64
0    |  MIDI Event: Chan 5 Note OFF: D3, Velocity (0 - 127): 64
1    |  MIDI Event: Chan 1 Note ON: B3, Velocity (0 - 127): 58
0    |  MIDI Event: Chan 1 Note ON: D4, Velocity (0 - 127): 91
0    |  MIDI Event: Chan 5 Note ON: B2, Velocity (0 - 127): 85
0    |  MIDI Event: Chan 5 Note ON: F#3, Velocity (0 - 127): 120
59   |  MIDI Event: Chan 5 Note OFF: F#3, Velocity (0 - 127): 64
0    |  MIDI Event: Chan 1 Note OFF: B3, Velocity (0 - 127): 64
0    |  MIDI Event: Chan 1 Note OFF: D4, Velocity (0 - 127): 64
0    |  MIDI Event: Chan 5 Note OFF: B2, Velocity (0 - 127): 64
1    |  MIDI Event: Chan 1 Note ON: B3, Velocity (0 - 127): 79
0    |  MIDI Event: Chan 1 Note ON: D4, Velocity (0 - 127): 95
0    |  MIDI Event: Chan 1 Note ON: F#4, Velocity (0 - 127): 74
0    |  MIDI Event: Chan 5 Note ON: D3, Velocity (0 - 127): 92
0    |  MIDI Event: Chan 5 Note ON: F#3, Velocity (0 - 127): 87
0    |  MIDI Event: Chan 5 Note ON: D4, Velocity (0 - 127): 95
60   |  MIDI Event: Chan 4 Note ON: B3, Velocity (0 - 127): 91
0    |  Meta Event: Lyric: But 
29   |  MIDI Event: Chan 4 Note OFF: B3, Velocity (0 - 127): 64
0    |  MIDI Event: Chan 5 Note OFF: F#3, Velocity (0 - 127): 64
0    |  MIDI Event: Chan 1 Note OFF: D4, Velocity (0 - 127): 64
0    |  MIDI Event: Chan 1 Note OFF: F#4, Velocity (0 - 127): 64
0    |  MIDI Event: Chan 1 Note OFF: B3, Velocity (0 - 127): 64
0    |  MIDI Event: Chan 5 Note OFF: D4, Velocity (0 - 127): 64
0    |  MIDI Event: Chan 5 Note OFF: D3, Velocity (0 - 127): 64
1    |  MIDI Event: Chan 1 Note ON: B3, Velocity (0 - 127): 71
0    |  MIDI Event: Chan 1 Note ON: D4, Velocity (0 - 127): 91
0    |  MIDI Event: Chan 1 Note ON: F#4, Velocity (0 - 127): 60
0    |  MIDI Event: Chan 4 Note ON: C#4, Velocity (0 - 127): 100
0    |  MIDI Event: Chan 5 Note ON: F#3, Velocity (0 - 127): 109
0    |  MIDI Event: Chan 5 Note ON: B3, Velocity (0 - 127): 95
0    |  Meta Event: Lyric: I 
29   |  MIDI Event: Chan 5 Note OFF: B3, Velocity (0 - 127): 64
0    |  MIDI Event: Chan 1 Note OFF: D4, Velocity (0 - 127): 64
0    |  MIDI Event: Chan 1 Note OFF: F#4, Velocity (0 - 127): 64
0    |  MIDI Event: Chan 1 Note OFF: B3, Velocity (0 - 127): 64
0    |  MIDI Event: Chan 5 Note OFF: F#3, Velocity (0 - 127): 64
0    |  MIDI Event: Chan 4 Note OFF: C#4, Velocity (0 - 127): 64
1    |  MIDI Event: Chan 1 Note ON: D4, Velocity (0 - 127): 80
0    |  MIDI Event: Chan 1 Note ON: F#4, Velocity (0 - 127): 62
0    |  MIDI Event: Chan 1 Note ON: B4, Velocity (0 - 127): 91
0    |  MIDI Event: Chan 5 Note ON: D3, Velocity (0 - 127): 103
0    |  MIDI Event: Chan 5 Note ON: F#3, Velocity (0 - 127): 115
29   |  MIDI Event: Chan 5 Note OFF: F#3, Velocity (0 - 127): 64
0    |  MIDI Event: Chan 1 Note OFF: B4, Velocity (0 - 127): 64
0    |  MIDI Event: Chan 1 Note OFF: D4, Velocity (0 - 127): 64
0    |  MIDI Event: Chan 1 Note OFF: F#4, Velocity (0 - 127): 64
0    |  MIDI Event: Chan 5 Note OFF: D3, Velocity (0 - 127): 64
1    |  MIDI Event: Chan 1 Note ON: B3, Velocity (0 - 127): 51
0    |  MIDI Event: Chan 1 Note ON: D4, Velocity (0 - 127): 85
0    |  MIDI Event: Chan 1 Note ON: F#4, Velocity (0 - 127): 59
0    |  MIDI Event: Chan 4 Note ON: D4, Velocity (0 - 127): 103
0    |  MIDI Event: Chan 5 Note ON: B2, Velocity (0 - 127): 92
0    |  MIDI Event: Chan 5 Note ON: E3, Velocity (0 - 127): 98
0    |  Meta Event: Lyric: on
29   |  MIDI Event: Chan 5 Note OFF: E3, Velocity (0 - 127): 64
0    |  MIDI Event: Chan 1 Note OFF: D4, Velocity (0 - 127): 64
0    |  MIDI Event: Chan 1 Note OFF: F#4, Velocity (0 - 127): 64
0    |  MIDI Event: Chan 1 Note OFF: B3, Velocity (0 - 127): 64
0    |  MIDI Event: Chan 5 Note OFF: B2, Velocity (0 - 127): 64
0    |  MIDI Event: Chan 4 Note OFF: D4, Velocity (0 - 127): 64
1    |  MIDI Event: Chan 1 Note ON: G3, Velocity (0 - 127): 74
0    |  MIDI Event: Chan 1 Note ON: B3, Velocity (0 - 127): 94
0    |  MIDI Event: Chan 1 Note ON: D4, Velocity (0 - 127): 91
0    |  MIDI Event: Chan 5 Note ON: G2, Velocity (0 - 127): 98
0    |  MIDI Event: Chan 5 Note ON: D3, Velocity (0 - 127): 116
30   |  MIDI Event: Chan 4 Note ON: D4, Velocity (0 - 127): 103
0    |  Meta Event: Lyric: ly 
29   |  MIDI Event: Chan 4 Note OFF: D4, Velocity (0 - 127): 64
0    |  MIDI Event: Chan 1 Note OFF: B3, Velocity (0 - 127): 64
0    |  MIDI Event: Chan 1 Note OFF: D4, Velocity (0 - 127): 64
0    |  MIDI Event: Chan 1 Note OFF: G3, Velocity (0 - 127): 64
0    |  MIDI Event: Chan 5 Note OFF: D3, Velocity (0 - 127): 64
0    |  MIDI Event: Chan 5 Note OFF: G2, Velocity (0 - 127): 64
1    |  MIDI Event: Chan 1 Note ON: B3, Velocity (0 - 127): 70
0    |  MIDI Event: Chan 1 Note ON: D4, Velocity (0 - 127): 94
0    |  MIDI Event: Chan 1 Note ON: G4, Velocity (0 - 127): 101
0    |  MIDI Event: Chan 5 Note ON: D3, Velocity (0 - 127): 79
0    |  MIDI Event: Chan 5 Note ON: G3, Velocity (0 - 127): 111
0    |  MIDI Event: Chan 5 Note ON: B3, Velocity (0 - 127): 100
30   |  MIDI Event: Chan 4 Note ON: E4, Velocity (0 - 127): 109
0    |  Meta Event: Lyric: have 
29   |  MIDI Event: Chan 4 Note OFF: E4, Velocity (0 - 127): 64
30   |  MIDI Event: Chan 5 Note OFF: G3, Velocity (0 - 127): 64
0    |  MIDI Event: Chan 1 Note OFF: D4, Velocity (0 - 127): 64
0    |  MIDI Event: Chan 1 Note OFF: G4, Velocity (0 - 127): 64
0    |  MIDI Event: Chan 1 Note OFF: B3, Velocity (0 - 127): 64
0    |  MIDI Event: Chan 5 Note OFF: B3, Velocity (0 - 127): 64
0    |  MIDI Event: Chan 5 Note OFF: D3, Velocity (0 - 127): 64
1    |  MIDI Event: Chan 1 Note ON: B3, Velocity (0 - 127): 52
0    |  MIDI Event: Chan 1 Note ON: D4, Velocity (0 - 127): 85
0    |  MIDI Event: Chan 1 Note ON: G4, Velocity (0 - 127): 94
0    |  MIDI Event: Chan 4 Note ON: E4, Velocity (0 - 127): 109
0    |  MIDI Event: Chan 5 Note ON: D3, Velocity (0 - 127): 82
0    |  MIDI Event: Chan 5 Note ON: G3, Velocity (0 - 127): 98
0    |  MIDI Event: Chan 5 Note ON: B3, Velocity (0 - 127): 85
0    |  Meta Event: Lyric: two 
29   |  MIDI Event: Chan 5 Note OFF: B3, Velocity (0 - 127): 64
0    |  MIDI Event: Chan 5 Note OFF: D3, Velocity (0 - 127): 64
0    |  MIDI Event: Chan 1 Note OFF: D4, Velocity (0 - 127): 64
0    |  MIDI Event: Chan 1 Note OFF: B3, Velocity (0 - 127): 64
0    |  MIDI Event: Chan 1 Note OFF: G4, Velocity (0 - 127): 64
0    |  MIDI Event: Chan 5 Note OFF: G3, Velocity (0 - 127): 64
1    |  MIDI Event: Chan 1 Note ON: D4, Velocity (0 - 127): 78
0    |  MIDI Event: Chan 1 Note ON: G4, Velocity (0 - 127): 100
0    |  MIDI Event: Chan 1 Note ON: B4, Velocity (0 - 127): 46
0    |  MIDI Event: Chan 5 Note ON: G2, Velocity (0 - 127): 109
0    |  MIDI Event: Chan 5 Note ON: D3, Velocity (0 - 127): 109
29   |  MIDI Event: Chan 5 Note OFF: D3, Velocity (0 - 127): 64
0    |  MIDI Event: Chan 1 Note OFF: D4, Velocity (0 - 127): 64
0    |  MIDI Event: Chan 1 Note OFF: G4, Velocity (0 - 127): 64
0    |  MIDI Event: Chan 1 Note OFF: B4, Velocity (0 - 127): 64
0    |  MIDI Event: Chan 5 Note OFF: G2, Velocity (0 - 127): 64
1    |  MIDI Event: Chan 1 Note ON: B3, Velocity (0 - 127): 45
0    |  MIDI Event: Chan 1 Note ON: D4, Velocity (0 - 127): 73
0    |  MIDI Event: Chan 1 Note ON: G4, Velocity (0 - 127): 86
0    |  MIDI Event: Chan 5 Note ON: G2, Velocity (0 - 127): 101
0    |  MIDI Event: Chan 5 Note ON: E3, Velocity (0 - 127): 116
29   |  MIDI Event: Chan 5 Note OFF: E3, Velocity (0 - 127): 64
0    |  MIDI Event: Chan 1 Note OFF: B3, Velocity (0 - 127): 64
0    |  MIDI Event: Chan 1 Note OFF: D4, Velocity (0 - 127): 64
0    |  MIDI Event: Chan 4 Note OFF: E4, Velocity (0 - 127): 64
0    |  MIDI Event: Chan 5 Note OFF: G2, Velocity (0 - 127): 64
0    |  MIDI Event: Chan 1 Note OFF: G4, Velocity (0 - 127): 64
1    |  MIDI Event: Chan 1 Note ON: F#3, Velocity (0 - 127): 35
0    |  MIDI Event: Chan 1 Note ON: A3, Velocity (0 - 127): 85
0    |  MIDI Event: Chan 1 Note ON: D4, Velocity (0 - 127): 79
0    |  MIDI Event: Chan 4 Note ON: A3, Velocity (0 - 127): 105
0    |  MIDI Event: Chan 5 Note ON: A2, Velocity (0 - 127): 90
0    |  MIDI Event: Chan 5 Note ON: D3, Velocity (0 - 127): 105
0    |  Meta Event: Lyric: hands 
0    |  Meta Event: Lyric: 
59   |  MIDI Event: Chan 5 Note OFF: D3, Velocity (0 - 127): 64
0    |  MIDI Event: Chan 1 Note OFF: A3, Velocity (0 - 127): 64
0    |  MIDI Event: Chan 1 Note OFF: F#3, Velocity (0 - 127): 64
0    |  MIDI Event: Chan 1 Note OFF: D4, Velocity (0 - 127): 64
0    |  MIDI Event: Chan 5 Note OFF: A2, Velocity (0 - 127): 64
1    |  MIDI Event: Chan 1 Note ON: A3, Velocity (0 - 127): 69
0    |  MIDI Event: Chan 1 Note ON: D4, Velocity (0 - 127): 98
0    |  MIDI Event: Chan 1 Note ON: F#4, Velocity (0 - 127): 74
0    |  MIDI Event: Chan 5 Note ON: A2, Velocity (0 - 127): 100
0    |  MIDI Event: Chan 5 Note ON: D3, Velocity (0 - 127): 111
0    |  MIDI Event: Chan 5 Note ON: F#3, Velocity (0 - 127): 89
89   |  MIDI Event: Chan 5 Note OFF: F#3, Velocity (0 - 127): 64
0    |  MIDI Event: Chan 5 Note OFF: A2, Velocity (0 - 127): 64
0    |  MIDI Event: Chan 1 Note OFF: A3, Velocity (0 - 127): 64
0    |  MIDI Event: Chan 1 Note OFF: D4, Velocity (0 - 127): 64
0    |  MIDI Event: Chan 1 Note OFF: F#4, Velocity (0 - 127): 64
0    |  MIDI Event: Chan 5 Note OFF: D3, Velocity (0 - 127): 64
1    |  MIDI Event: Chan 1 Note ON: F#3, Velocity (0 - 127): 44
0    |  MIDI Event: Chan 1 Note ON: A3, Velocity (0 - 127): 78
0    |  MIDI Event: Chan 1 Note ON: D4, Velocity (0 - 127): 58
0    |  MIDI Event: Chan 5 Note ON: A2, Velocity (0 - 127): 85
0    |  MIDI Event: Chan 5 Note ON: D3, Velocity (0 - 127): 105
0    |  MIDI Event: Chan 5 Note ON: F#3, Velocity (0 - 127): 81
29   |  MIDI Event: Chan 5 Note OFF: F#3, Velocity (0 - 127): 64
0    |  MIDI Event: Chan 5 Note OFF: A2, Velocity (0 - 127): 64
0    |  MIDI Event: Chan 1 Note OFF: F#3, Velocity (0 - 127): 64
0    |  MIDI Event: Chan 1 Note OFF: A3, Velocity (0 - 127): 64
0    |  MIDI Event: Chan 1 Note OFF: D4, Velocity (0 - 127): 64
0    |  MIDI Event: Chan 5 Note OFF: D3, Velocity (0 - 127): 64
1    |  MIDI Event: Chan 1 Note ON: A3, Velocity (0 - 127): 57
0    |  MIDI Event: Chan 1 Note ON: D4, Velocity (0 - 127): 91
0    |  MIDI Event: Chan 1 Note ON: F#4, Velocity (0 - 127): 77
0    |  MIDI Event: Chan 5 Note ON: D3, Velocity (0 - 127): 109
0    |  MIDI Event: Chan 5 Note ON: F#3, Velocity (0 - 127): 89
0    |  MIDI Event: Chan 5 Note ON: A3, Velocity (0 - 127): 109
29   |  MIDI Event: Chan 5 Note OFF: A3, Velocity (0 - 127): 64
0    |  MIDI Event: Chan 5 Note OFF: D3, Velocity (0 - 127): 64
0    |  MIDI Event: Chan 1 Note OFF: A3, Velocity (0 - 127): 64
0    |  MIDI Event: Chan 1 Note OFF: D4, Velocity (0 - 127): 64
0    |  MIDI Event: Chan 1 Note OFF: F#4, Velocity (0 - 127): 64
0    |  MIDI Event: Chan 5 Note OFF: F#3, Velocity (0 - 127): 64
1    |  MIDI Event: Chan 1 Note ON: F#3, Velocity (0 - 127): 35
0    |  MIDI Event: Chan 1 Note ON: A3, Velocity (0 - 127): 79
0    |  MIDI Event: Chan 1 Note ON: D4, Velocity (0 - 127): 56
0    |  MIDI Event: Chan 5 Note ON: D3, Velocity (0 - 127): 111
0    |  MIDI Event: Chan 5 Note ON: F#3, Velocity (0 - 127): 100
0    |  MIDI Event: Chan 5 Note ON: A3, Velocity (0 - 127): 100
29   |  MIDI Event: Chan 5 Note OFF: A3, Velocity (0 - 127): 64
0    |  MIDI Event: Chan 5 Note OFF: D3, Velocity (0 - 127): 64
0    |  MIDI Event: Chan 1 Note OFF: F#3, Velocity (0 - 127): 64
0    |  MIDI Event: Chan 1 Note OFF: A3, Velocity (0 - 127): 64
0    |  MIDI Event: Chan 4 Note OFF: A3, Velocity (0 - 127): 64
0    |  MIDI Event: Chan 5 Note OFF: F#3, Velocity (0 - 127): 64
0    |  MIDI Event: Chan 1 Note OFF: D4, Velocity (0 - 127): 64
1    |  MIDI Event: Chan 1 Note ON: F#3, Velocity (0 - 127): 35
0    |  MIDI Event: Chan 1 Note ON: A3, Velocity (0 - 127): 85
0    |  MIDI Event: Chan 1 Note ON: D4, Velocity (0 - 127): 79
0    |  MIDI Event: Chan 5 Note ON: A2, Velocity (0 - 127): 90
0    |  MIDI Event: Chan 5 Note ON: D3, Velocity (0 - 127): 105
59   |  MIDI Event: Chan 5 Note OFF: D3, Velocity (0 - 127): 64
0    |  MIDI Event: Chan 1 Note OFF: D4, Velocity (0 - 127): 64
0    |  MIDI Event: Chan 1 Note OFF: F#3, Velocity (0 - 127): 64
0    |  MIDI Event: Chan 1 Note OFF: A3, Velocity (0 - 127): 64
0    |  MIDI Event: Chan 5 Note OFF: A2, Velocity (0 - 127): 64
1    |  MIDI Event: Chan 1 Note ON: A3, Velocity (0 - 127): 69
0    |  MIDI Event: Chan 1 Note ON: D4, Velocity (0 - 127): 98
0    |  MIDI Event: Chan 1 Note ON: F#4, Velocity (0 - 127): 74
0    |  MIDI Event: Chan 5 Note ON: A2, Velocity (0 - 127): 100
0    |  MIDI Event: Chan 5 Note ON: D3, Velocity (0 - 127): 111
0    |  MIDI Event: Chan 5 Note ON: F#3, Velocity (0 - 127): 89
89   |  MIDI Event: Chan 5 Note OFF: F#3, Velocity (0 - 127): 64
0    |  MIDI Event: Chan 1 Note OFF: D4, Velocity (0 - 127): 64
0    |  MIDI Event: Chan 1 Note OFF: F#4, Velocity (0 - 127): 64
0    |  MIDI Event: Chan 1 Note OFF: A3, Velocity (0 - 127): 64
0    |  MIDI Event: Chan 5 Note OFF: D3, Velocity (0 - 127): 64
0    |  MIDI Event: Chan 5 Note OFF: A2, Velocity (0 - 127): 64
1    |  MIDI Event: Chan 1 Note ON: F#3, Velocity (0 - 127): 44
0    |  MIDI Event: Chan 1 Note ON: A3, Velocity (0 - 127): 78
0    |  MIDI Event: Chan 1 Note ON: D4, Velocity (0 - 127): 58
0    |  MIDI Event: Chan 5 Note ON: A2, Velocity (0 - 127): 85
0    |  MIDI Event: Chan 5 Note ON: D3, Velocity (0 - 127): 105
0    |  MIDI Event: Chan 5 Note ON: F#3, Velocity (0 - 127): 81
29   |  MIDI Event: Chan 5 Note OFF: F#3, Velocity (0 - 127): 64
0    |  MIDI Event: Chan 1 Note OFF: A3, Velocity (0 - 127): 64
0    |  MIDI Event: Chan 1 Note OFF: D4, Velocity (0 - 127): 64
0    |  MIDI Event: Chan 1 Note OFF: F#3, Velocity (0 - 127): 64
0    |  MIDI Event: Chan 5 Note OFF: D3, Velocity (0 - 127): 64
0    |  MIDI Event: Chan 5 Note OFF: A2, Velocity (0 - 127): 64
1    |  MIDI Event: Chan 1 Note ON: A3, Velocity (0 - 127): 57
0    |  MIDI Event: Chan 1 Note ON: D4, Velocity (0 - 127): 91
0    |  MIDI Event: Chan 1 Note ON: F#4, Velocity (0 - 127): 77
0    |  MIDI Event: Chan 5 Note ON: D3, Velocity (0 - 127): 109
0    |  MIDI Event: Chan 5 Note ON: F#3, Velocity (0 - 127): 89
0    |  MIDI Event: Chan 5 Note ON: A3, Velocity (0 - 127): 109
29   |  MIDI Event: Chan 5 Note OFF: A3, Velocity (0 - 127): 64
0    |  MIDI Event: Chan 1 Note OFF: D4, Velocity (0 - 127): 64
0    |  MIDI Event: Chan 1 Note OFF: F#4, Velocity (0 - 127): 64
0    |  MIDI Event: Chan 1 Note OFF: A3, Velocity (0 - 127): 64
0    |  MIDI Event: Chan 5 Note OFF: F#3, Velocity (0 - 127): 64
0    |  MIDI Event: Chan 5 Note OFF: D3, Velocity (0 - 127): 64
1    |  MIDI Event: Chan 1 Note ON: F#3, Velocity (0 - 127): 35
0    |  MIDI Event: Chan 1 Note ON: A3, Velocity (0 - 127): 79
0    |  MIDI Event: Chan 1 Note ON: D4, Velocity (0 - 127): 56
0    |  MIDI Event: Chan 5 Note ON: D3, Velocity (0 - 127): 111
0    |  MIDI Event: Chan 5 Note ON: F#3, Velocity (0 - 127): 100
0    |  MIDI Event: Chan 5 Note ON: A3, Velocity (0 - 127): 100
29   |  MIDI Event: Chan 5 Note OFF: A3, Velocity (0 - 127): 64
0    |  MIDI Event: Chan 1 Note OFF: A3, Velocity (0 - 127): 64
0    |  MIDI Event: Chan 1 Note OFF: D4, Velocity (0 - 127): 64
0    |  MIDI Event: Chan 1 Note OFF: F#3, Velocity (0 - 127): 64
0    |  MIDI Event: Chan 5 Note OFF: F#3, Velocity (0 - 127): 64
0    |  MIDI Event: Chan 5 Note OFF: D3, Velocity (0 - 127): 64
1    |  MIDI Event: Chan 1 Note ON: B3, Velocity (0 - 127): 58
0    |  MIDI Event: Chan 1 Note ON: D4, Velocity (0 - 127): 91
0    |  MIDI Event: Chan 5 Note ON: B2, Velocity (0 - 127): 85
0    |  MIDI Event: Chan 5 Note ON: F#3, Velocity (0 - 127): 120
59   |  MIDI Event: Chan 5 Note OFF: F#3, Velocity (0 - 127): 64
0    |  MIDI Event: Chan 1 Note OFF: B3, Velocity (0 - 127): 64
0    |  MIDI Event: Chan 1 Note OFF: D4, Velocity (0 - 127): 64
0    |  MIDI Event: Chan 5 Note OFF: B2, Velocity (0 - 127): 64
1    |  MIDI Event: Chan 1 Note ON: B3, Velocity (0 - 127): 79
0    |  MIDI Event: Chan 1 Note ON: D4, Velocity (0 - 127): 95
0    |  MIDI Event: Chan 1 Note ON: F#4, Velocity (0 - 127): 74
0    |  MIDI Event: Chan 5 Note ON: D3, Velocity (0 - 127): 92
0    |  MIDI Event: Chan 5 Note ON: F#3, Velocity (0 - 127): 87
0    |  MIDI Event: Chan 5 Note ON: D4, Velocity (0 - 127): 95
30   |  MIDI Event: Chan 4 Note ON: B2, Velocity (0 - 127): 1
0    |  Meta Event: Lyric: I 
29   |  MIDI Event: Chan 4 Note OFF: B2, Velocity (0 - 127): 64
1    |  MIDI Event: Chan 4 Note ON: B3, Velocity (0 - 127): 116
0    |  Meta Event: Lyric: hope 
29   |  MIDI Event: Chan 4 Note OFF: B3, Velocity (0 - 127): 64
0    |  MIDI Event: Chan 5 Note OFF: D4, Velocity (0 - 127): 64
0    |  MIDI Event: Chan 1 Note OFF: D4, Velocity (0 - 127): 64
0    |  MIDI Event: Chan 1 Note OFF: F#4, Velocity (0 - 127): 64
0    |  MIDI Event: Chan 1 Note OFF: B3, Velocity (0 - 127): 64
0    |  MIDI Event: Chan 5 Note OFF: F#3, Velocity (0 - 127): 64
0    |  MIDI Event: Chan 5 Note OFF: D3, Velocity (0 - 127): 64
1    |  MIDI Event: Chan 1 Note ON: B3, Velocity (0 - 127): 71
0    |  MIDI Event: Chan 1 Note ON: D4, Velocity (0 - 127): 91
0    |  MIDI Event: Chan 1 Note ON: F#4, Velocity (0 - 127): 60
0    |  MIDI Event: Chan 5 Note ON: F#3, Velocity (0 - 127): 109
0    |  MIDI Event: Chan 5 Note ON: B3, Velocity (0 - 127): 95
29   |  MIDI Event: Chan 5 Note OFF: B3, Velocity (0 - 127): 64
0    |  MIDI Event: Chan 1 Note OFF: F#4, Velocity (0 - 127): 64
0    |  MIDI Event: Chan 1 Note OFF: B3, Velocity (0 - 127): 64
0    |  MIDI Event: Chan 1 Note OFF: D4, Velocity (0 - 127): 64
0    |  MIDI Event: Chan 5 Note OFF: F#3, Velocity (0 - 127): 64
1    |  MIDI Event: Chan 1 Note ON: D4, Velocity (0 - 127): 80
0    |  MIDI Event: Chan 1 Note ON: F#4, Velocity (0 - 127): 62
0    |  MIDI Event: Chan 1 Note ON: B4, Velocity (0 - 127): 91
0    |  MIDI Event: Chan 4 Note ON: B3, Velocity (0 - 127): 100
0    |  MIDI Event: Chan 5 Note ON: D3, Velocity (0 - 127): 103
0    |  MIDI Event: Chan 5 Note ON: F#3, Velocity (0 - 127): 115
0    |  Meta Event: Lyric: I 
29   |  MIDI Event: Chan 5 Note OFF: F#3, Velocity (0 - 127): 64
0    |  MIDI Event: Chan 1 Note OFF: F#4, Velocity (0 - 127): 64
0    |  MIDI Event: Chan 1 Note OFF: B4, Velocity (0 - 127): 64
0    |  MIDI Event: Chan 1 Note OFF: D4, Velocity (0 - 127): 64
0    |  MIDI Event: Chan 5 Note OFF: D3, Velocity (0 - 127): 64
0    |  MIDI Event: Chan 4 Note OFF: B3, Velocity (0 - 127): 64
1    |  MIDI Event: Chan 1 Note ON: B3, Velocity (0 - 127): 51
0    |  MIDI Event: Chan 1 Note ON: D4, Velocity (0 - 127): 85
0    |  MIDI Event: Chan 1 Note ON: F#4, Velocity (0 - 127): 59
0    |  MIDI Event: Chan 4 Note ON: B3, Velocity (0 - 127): 101
0    |  MIDI Event: Chan 5 Note ON: B2, Velocity (0 - 127): 92
0    |  MIDI Event: Chan 5 Note ON: E3, Velocity (0 - 127): 98
0    |  Meta Event: Lyric: get 
29   |  MIDI Event: Chan 5 Note OFF: E3, Velocity (0 - 127): 64
0    |  MIDI Event: Chan 1 Note OFF: D4, Velocity (0 - 127): 64
0    |  MIDI Event: Chan 1 Note OFF: B3, Velocity (0 - 127): 64
0    |  MIDI Event: Chan 1 Note OFF: F#4, Velocity (0 - 127): 64
0    |  MIDI Event: Chan 5 Note OFF: B2, Velocity (0 - 127): 64
1    |  MIDI Event: Chan 1 Note ON: G3, Velocity (0 - 127): 74
0    |  MIDI Event: Chan 1 Note ON: B3, Velocity (0 - 127): 94
0    |  MIDI Event: Chan 1 Note ON: D4, Velocity (0 - 127): 91
0    |  MIDI Event: Chan 5 Note ON: G2, Velocity (0 - 127): 98
0    |  MIDI Event: Chan 5 Note ON: D3, Velocity (0 - 127): 116
29   |  MIDI Event: Chan 4 Note OFF: B3, Velocity (0 - 127): 64
30   |  MIDI Event: Chan 1 Note OFF: B3, Velocity (0 - 127): 64
0    |  MIDI Event: Chan 1 Note OFF: D4, Velocity (0 - 127): 64
0    |  MIDI Event: Chan 1 Note OFF: G3, Velocity (0 - 127): 64
0    |  MIDI Event: Chan 5 Note OFF: D3, Velocity (0 - 127): 64
0    |  MIDI Event: Chan 5 Note OFF: G2, Velocity (0 - 127): 64
1    |  MIDI Event: Chan 1 Note ON: B3, Velocity (0 - 127): 70
0    |  MIDI Event: Chan 1 Note ON: D4, Velocity (0 - 127): 94
0    |  MIDI Event: Chan 1 Note ON: G4, Velocity (0 - 127): 101
0    |  MIDI Event: Chan 4 Note ON: A3, Velocity (0 - 127): 98
0    |  MIDI Event: Chan 5 Note ON: D3, Velocity (0 - 127): 79
0    |  MIDI Event: Chan 5 Note ON: G3, Velocity (0 - 127): 111
0    |  MIDI Event: Chan 5 Note ON: B3, Velocity (0 - 127): 100
0    |  Meta Event: Lyric: the 
29   |  MIDI Event: Chan 4 Note OFF: A3, Velocity (0 - 127): 64
1    |  MIDI Event: Chan 4 Note ON: A3, Velocity (0 - 127): 111
0    |  Meta Event: Lyric: chance 
0    |  Meta Event: Lyric: 
59   |  MIDI Event: Chan 4 Note OFF: A3, Velocity (0 - 127): 64
0    |  MIDI Event: Chan 5 Note OFF: B3, Velocity (0 - 127): 64
0    |  MIDI Event: Chan 1 Note OFF: D4, Velocity (0 - 127): 64
0    |  MIDI Event: Chan 1 Note OFF: G4, Velocity (0 - 127): 64
0    |  MIDI Event: Chan 1 Note OFF: B3, Velocity (0 - 127): 64
0    |  MIDI Event: Chan 5 Note OFF: G3, Velocity (0 - 127): 64
0    |  MIDI Event: Chan 5 Note OFF: D3, Velocity (0 - 127): 64
1    |  MIDI Event: Chan 1 Note ON: B3, Velocity (0 - 127): 52
0    |  MIDI Event: Chan 1 Note ON: D4, Velocity (0 - 127): 85
0    |  MIDI Event: Chan 1 Note ON: G4, Velocity (0 - 127): 94
0    |  MIDI Event: Chan 4 Note ON: F#3, Velocity (0 - 127): 102
0    |  MIDI Event: Chan 5 Note ON: D3, Velocity (0 - 127): 82
0    |  MIDI Event: Chan 5 Note ON: G3, Velocity (0 - 127): 98
0    |  MIDI Event: Chan 5 Note ON: B3, Velocity (0 - 127): 85
0    |  Meta Event: Lyric: to 
29   |  MIDI Event: Chan 5 Note OFF: B3, Velocity (0 - 127): 64
0    |  MIDI Event: Chan 5 Note OFF: D3, Velocity (0 - 127): 64
0    |  MIDI Event: Chan 1 Note OFF: D4, Velocity (0 - 127): 64
0    |  MIDI Event: Chan 1 Note OFF: G4, Velocity (0 - 127): 64
0    |  MIDI Event: Chan 1 Note OFF: B3, Velocity (0 - 127): 64
0    |  MIDI Event: Chan 5 Note OFF: G3, Velocity (0 - 127): 64
0    |  MIDI Event: Chan 4 Note OFF: F#3, Velocity (0 - 127): 64
1    |  MIDI Event: Chan 1 Note ON: D4, Velocity (0 - 127): 78
0    |  MIDI Event: Chan 1 Note ON: G4, Velocity (0 - 127): 100
0    |  MIDI Event: Chan 1 Note ON: B4, Velocity (0 - 127): 46
0    |  MIDI Event: Chan 5 Note ON: G2, Velocity (0 - 127): 109
0    |  MIDI Event: Chan 5 Note ON: D3, Velocity (0 - 127): 109
29   |  MIDI Event: Chan 5 Note OFF: D3, Velocity (0 - 127): 64
0    |  MIDI Event: Chan 1 Note OFF: B4, Velocity (0 - 127): 64
0    |  MIDI Event: Chan 1 Note OFF: D4, Velocity (0 - 127): 64
0    |  MIDI Event: Chan 1 Note OFF: G4, Velocity (0 - 127): 64
0    |  MIDI Event: Chan 5 Note OFF: G2, Velocity (0 - 127): 64
1    |  MIDI Event: Chan 1 Note ON: B3, Velocity (0 - 127): 45
0    |  MIDI Event: Chan 1 Note ON: D4, Velocity (0 - 127): 73
0    |  MIDI Event: Chan 1 Note ON: G4, Velocity (0 - 127): 86
0    |  MIDI Event: Chan 4 Note ON: A3, Velocity (0 - 127): 111
0    |  MIDI Event: Chan 5 Note ON: G2, Velocity (0 - 127): 101
0    |  MIDI Event: Chan 5 Note ON: E3, Velocity (0 - 127): 116
0    |  Meta Event: Lyric: tra
29   |  MIDI Event: Chan 5 Note OFF: E3, Velocity (0 - 127): 64
0    |  MIDI Event: Chan 1 Note OFF: D4, Velocity (0 - 127): 64
0    |  MIDI Event: Chan 1 Note OFF: B3, Velocity (0 - 127): 64
0    |  MIDI Event: Chan 1 Note OFF: G4, Velocity (0 - 127): 64
0    |  MIDI Event: Chan 5 Note OFF: G2, Velocity (0 - 127): 64
1    |  MIDI Event: Chan 1 Note ON: F#3, Velocity (0 - 127): 35
0    |  MIDI Event: Chan 1 Note ON: A3, Velocity (0 - 127): 85
0    |  MIDI Event: Chan 1 Note ON: D4, Velocity (0 - 127): 79
0    |  MIDI Event: Chan 5 Note ON: A2, Velocity (0 - 127): 90
0    |  MIDI Event: Chan 5 Note ON: D3, Velocity (0 - 127): 105
59   |  MIDI Event: Chan 5 Note OFF: D3, Velocity (0 - 127): 64
0    |  MIDI Event: Chan 1 Note OFF: F#3, Velocity (0 - 127): 64
0    |  MIDI Event: Chan 1 Note OFF: A3, Velocity (0 - 127): 64
0    |  MIDI Event: Chan 1 Note OFF: D4, Velocity (0 - 127): 64
0    |  MIDI Event: Chan 5 Note OFF: A2, Velocity (0 - 127): 64
1    |  MIDI Event: Chan 1 Note ON: A3, Velocity (0 - 127): 69
0    |  MIDI Event: Chan 1 Note ON: D4, Velocity (0 - 127): 98
0    |  MIDI Event: Chan 1 Note ON: F#4, Velocity (0 - 127): 74
0    |  MIDI Event: Chan 5 Note ON: A2, Velocity (0 - 127): 100
0    |  MIDI Event: Chan 5 Note ON: D3, Velocity (0 - 127): 111
0    |  MIDI Event: Chan 5 Note ON: F#3, Velocity (0 - 127): 89
29   |  MIDI Event: Chan 4 Note OFF: A3, Velocity (0 - 127): 64
31   |  MIDI Event: Chan 4 Note ON: D3, Velocity (0 - 127): 98
0    |  Meta Event: Lyric: vel 
29   |  MIDI Event: Chan 4 Note OFF: D3, Velocity (0 - 127): 64
0    |  MIDI Event: Chan 5 Note OFF: F#3, Velocity (0 - 127): 64
0    |  MIDI Event: Chan 1 Note OFF: D4, Velocity (0 - 127): 64
0    |  MIDI Event: Chan 1 Note OFF: F#4, Velocity (0 - 127): 64
0    |  MIDI Event: Chan 1 Note OFF: A3, Velocity (0 - 127): 64
0    |  MIDI Event: Chan 5 Note OFF: D3, Velocity (0 - 127): 64
0    |  MIDI Event: Chan 5 Note OFF: A2, Velocity (0 - 127): 64
1    |  MIDI Event: Chan 1 Note ON: F#3, Velocity (0 - 127): 44
0    |  MIDI Event: Chan 1 Note ON: A3, Velocity (0 - 127): 78
0    |  MIDI Event: Chan 1 Note ON: D4, Velocity (0 - 127): 58
0    |  MIDI Event: Chan 5 Note ON: A2, Velocity (0 - 127): 85
0    |  MIDI Event: Chan 5 Note ON: D3, Velocity (0 - 127): 105
0    |  MIDI Event: Chan 5 Note ON: F#3, Velocity (0 - 127): 81
29   |  MIDI Event: Chan 5 Note OFF: F#3, Velocity (0 - 127): 64
0    |  MIDI Event: Chan 1 Note OFF: A3, Velocity (0 - 127): 64
0    |  MIDI Event: Chan 1 Note OFF: D4, Velocity (0 - 127): 64
0    |  MIDI Event: Chan 1 Note OFF: F#3, Velocity (0 - 127): 64
0    |  MIDI Event: Chan 5 Note OFF: D3, Velocity (0 - 127): 64
0    |  MIDI Event: Chan 5 Note OFF: A2, Velocity (0 - 127): 64
1    |  MIDI Event: Chan 1 Note ON: A3, Velocity (0 - 127): 57
0    |  MIDI Event: Chan 1 Note ON: D4, Velocity (0 - 127): 91
0    |  MIDI Event: Chan 1 Note ON: F#4, Velocity (0 - 127): 77
0    |  MIDI Event: Chan 4 Note ON: D3, Velocity (0 - 127): 107
0    |  MIDI Event: Chan 5 Note ON: D3, Velocity (0 - 127): 109
0    |  MIDI Event: Chan 5 Note ON: F#3, Velocity (0 - 127): 89
0    |  MIDI Event: Chan 5 Note ON: A3, Velocity (0 - 127): 109
0    |  Meta Event: Lyric: the 
29   |  MIDI Event: Chan 5 Note OFF: A3, Velocity (0 - 127): 64
0    |  MIDI Event: Chan 5 Note OFF: D3, Velocity (0 - 127): 64
0    |  MIDI Event: Chan 1 Note OFF: D4, Velocity (0 - 127): 64
0    |  MIDI Event: Chan 1 Note OFF: F#4, Velocity (0 - 127): 64
0    |  MIDI Event: Chan 1 Note OFF: A3, Velocity (0 - 127): 64
0    |  MIDI Event: Chan 5 Note OFF: F#3, Velocity (0 - 127): 64
0    |  MIDI Event: Chan 4 Note OFF: D3, Velocity (0 - 127): 64
1    |  MIDI Event: Chan 1 Note ON: F#3, Velocity (0 - 127): 35
0    |  MIDI Event: Chan 1 Note ON: A3, Velocity (0 - 127): 79
0    |  MIDI Event: Chan 1 Note ON: D4, Velocity (0 - 127): 56
0    |  MIDI Event: Chan 4 Note ON: D3, Velocity (0 - 127): 103
0    |  MIDI Event: Chan 5 Note ON: D3, Velocity (0 - 127): 111
0    |  MIDI Event: Chan 5 Note ON: F#3, Velocity (0 - 127): 100
0    |  MIDI Event: Chan 5 Note ON: A3, Velocity (0 - 127): 100
0    |  Meta Event: Lyric: world 
0    |  Meta Event: Lyric: 
29   |  MIDI Event: Chan 5 Note OFF: A3, Velocity (0 - 127): 64
0    |  MIDI Event: Chan 5 Note OFF: D3, Velocity (0 - 127): 64
0    |  MIDI Event: Chan 1 Note OFF: A3, Velocity (0 - 127): 64
0    |  MIDI Event: Chan 1 Note OFF: F#3, Velocity (0 - 127): 64
0    |  MIDI Event: Chan 1 Note OFF: D4, Velocity (0 - 127): 64
0    |  MIDI Event: Chan 5 Note OFF: F#3, Velocity (0 - 127): 64
1    |  MIDI Event: Chan 1 Note ON: F#3, Velocity (0 - 127): 35
0    |  MIDI Event: Chan 1 Note ON: A3, Velocity (0 - 127): 85
0    |  MIDI Event: Chan 1 Note ON: D4, Velocity (0 - 127): 79
0    |  MIDI Event: Chan 5 Note ON: A2, Velocity (0 - 127): 90
0    |  MIDI Event: Chan 5 Note ON: D3, Velocity (0 - 127): 105
59   |  MIDI Event: Chan 5 Note OFF: D3, Velocity (0 - 127): 64
0    |  MIDI Event: Chan 1 Note OFF: F#3, Velocity (0 - 127): 64
0    |  MIDI Event: Chan 1 Note OFF: A3, Velocity (0 - 127): 64
0    |  MIDI Event: Chan 1 Note OFF: D4, Velocity (0 - 127): 64
0    |  MIDI Event: Chan 5 Note OFF: A2, Velocity (0 - 127): 64
1    |  MIDI Event: Chan 1 Note ON: A3, Velocity (0 - 127): 69
0    |  MIDI Event: Chan 1 Note ON: D4, Velocity (0 - 127): 98
0    |  MIDI Event: Chan 1 Note ON: F#4, Velocity (0 - 127): 74
0    |  MIDI Event: Chan 5 Note ON: A2, Velocity (0 - 127): 100
0    |  MIDI Event: Chan 5 Note ON: D3, Velocity (0 - 127): 111
0    |  MIDI Event: Chan 5 Note ON: F#3, Velocity (0 - 127): 89
59   |  MIDI Event: Chan 4 Note OFF: D3, Velocity (0 - 127): 64
30   |  MIDI Event: Chan 5 Note OFF: D3, Velocity (0 - 127): 64
0    |  MIDI Event: Chan 1 Note OFF: D4, Velocity (0 - 127): 64
0    |  MIDI Event: Chan 1 Note OFF: F#4, Velocity (0 - 127): 64
0    |  MIDI Event: Chan 1 Note OFF: A3, Velocity (0 - 127): 64
0    |  MIDI Event: Chan 5 Note OFF: F#3, Velocity (0 - 127): 64
0    |  MIDI Event: Chan 5 Note OFF: A2, Velocity (0 - 127): 64
1    |  MIDI Event: Chan 1 Note ON: F#3, Velocity (0 - 127): 44
0    |  MIDI Event: Chan 1 Note ON: A3, Velocity (0 - 127): 78
0    |  MIDI Event: Chan 1 Note ON: D4, Velocity (0 - 127): 58
0    |  MIDI Event: Chan 5 Note ON: A2, Velocity (0 - 127): 85
0    |  MIDI Event: Chan 5 Note ON: D3, Velocity (0 - 127): 105
0    |  MIDI Event: Chan 5 Note ON: F#3, Velocity (0 - 127): 81
29   |  MIDI Event: Chan 5 Note OFF: F#3, Velocity (0 - 127): 64
0    |  MIDI Event: Chan 1 Note OFF: A3, Velocity (0 - 127): 64
0    |  MIDI Event: Chan 1 Note OFF: D4, Velocity (0 - 127): 64
0    |  MIDI Event: Chan 1 Note OFF: F#3, Velocity (0 - 127): 64
0    |  MIDI Event: Chan 5 Note OFF: D3, Velocity (0 - 127): 64
0    |  MIDI Event: Chan 5 Note OFF: A2, Velocity (0 - 127): 64
1    |  MIDI Event: Chan 1 Note ON: A3, Velocity (0 - 127): 57
0    |  MIDI Event: Chan 1 Note ON: D4, Velocity (0 - 127): 91
0    |  MIDI Event: Chan 1 Note ON: F#4, Velocity (0 - 127): 77
0    |  MIDI Event: Chan 5 Note ON: D3, Velocity (0 - 127): 109
0    |  MIDI Event: Chan 5 Note ON: F#3, Velocity (0 - 127): 89
0    |  MIDI Event: Chan 5 Note ON: A3, Velocity (0 - 127): 109
29   |  MIDI Event: Chan 5 Note OFF: A3, Velocity (0 - 127): 64
0    |  MIDI Event: Chan 1 Note OFF: D4, Velocity (0 - 127): 64
0    |  MIDI Event: Chan 1 Note OFF: F#4, Velocity (0 - 127): 64
0    |  MIDI Event: Chan 1 Note OFF: A3, Velocity (0 - 127): 64
0    |  MIDI Event: Chan 5 Note OFF: F#3, Velocity (0 - 127): 64
0    |  MIDI Event: Chan 5 Note OFF: D3, Velocity (0 - 127): 64
1    |  MIDI Event: Chan 1 Note ON: F#3, Velocity (0 - 127): 35
0    |  MIDI Event: Chan 1 Note ON: A3, Velocity (0 - 127): 79
0    |  MIDI Event: Chan 1 Note ON: D4, Velocity (0 - 127): 56
0    |  MIDI Event: Chan 5 Note ON: D3, Velocity (0 - 127): 111
0    |  MIDI Event: Chan 5 Note ON: F#3, Velocity (0 - 127): 100
0    |  MIDI Event: Chan 5 Note ON: A3, Velocity (0 - 127): 100
29   |  MIDI Event: Chan 5 Note OFF: A3, Velocity (0 - 127): 64
0    |  MIDI Event: Chan 1 Note OFF: A3, Velocity (0 - 127): 64
0    |  MIDI Event: Chan 1 Note OFF: D4, Velocity (0 - 127): 64
0    |  MIDI Event: Chan 1 Note OFF: F#3, Velocity (0 - 127): 64
0    |  MIDI Event: Chan 5 Note OFF: F#3, Velocity (0 - 127): 64
0    |  MIDI Event: Chan 5 Note OFF: D3, Velocity (0 - 127): 64
1    |  MIDI Event: Chan 1 Note ON: B3, Velocity (0 - 127): 58
0    |  MIDI Event: Chan 1 Note ON: D4, Velocity (0 - 127): 91
0    |  MIDI Event: Chan 5 Note ON: B2, Velocity (0 - 127): 85
0    |  MIDI Event: Chan 5 Note ON: F#3, Velocity (0 - 127): 120
59   |  MIDI Event: Chan 5 Note OFF: F#3, Velocity (0 - 127): 64
0    |  MIDI Event: Chan 1 Note OFF: B3, Velocity (0 - 127): 64
0    |  MIDI Event: Chan 1 Note OFF: D4, Velocity (0 - 127): 64
0    |  MIDI Event: Chan 5 Note OFF: B2, Velocity (0 - 127): 64
1    |  MIDI Event: Chan 1 Note ON: B3, Velocity (0 - 127): 79
0    |  MIDI Event: Chan 1 Note ON: D4, Velocity (0 - 127): 95
0    |  MIDI Event: Chan 1 Note ON: F#4, Velocity (0 - 127): 74
0    |  MIDI Event: Chan 5 Note ON: D3, Velocity (0 - 127): 92
0    |  MIDI Event: Chan 5 Note ON: F#3, Velocity (0 - 127): 87
0    |  MIDI Event: Chan 5 Note ON: D4, Velocity (0 - 127): 95
30   |  MIDI Event: Chan 4 Note ON: D3, Velocity (0 - 127): 98
0    |  Meta Event: Lyric: And 
29   |  MIDI Event: Chan 4 Note OFF: D3, Velocity (0 - 127): 64
1    |  MIDI Event: Chan 4 Note ON: E3, Velocity (0 - 127): 94
0    |  Meta Event: Lyric: I 
29   |  MIDI Event: Chan 4 Note OFF: E3, Velocity (0 - 127): 64
0    |  MIDI Event: Chan 5 Note OFF: D4, Velocity (0 - 127): 64
0    |  MIDI Event: Chan 1 Note OFF: D4, Velocity (0 - 127): 64
0    |  MIDI Event: Chan 1 Note OFF: F#4, Velocity (0 - 127): 64
0    |  MIDI Event: Chan 1 Note OFF: B3, Velocity (0 - 127): 64
0    |  MIDI Event: Chan 5 Note OFF: F#3, Velocity (0 - 127): 64
0    |  MIDI Event: Chan 5 Note OFF: D3, Velocity (0 - 127): 64
1    |  MIDI Event: Chan 1 Note ON: B3, Velocity (0 - 127): 71
0    |  MIDI Event: Chan 1 Note ON: D4, Velocity (0 - 127): 91
0    |  MIDI Event: Chan 1 Note ON: F#4, Velocity (0 - 127): 60
0    |  MIDI Event: Chan 4 Note ON: F#3, Velocity (0 - 127): 119
0    |  MIDI Event: Chan 5 Note ON: F#3, Velocity (0 - 127): 109
0    |  MIDI Event: Chan 5 Note ON: B3, Velocity (0 - 127): 95
0    |  Meta Event: Lyric: don't 
29   |  MIDI Event: Chan 5 Note OFF: B3, Velocity (0 - 127): 64
0    |  MIDI Event: Chan 1 Note OFF: D4, Velocity (0 - 127): 64
0    |  MIDI Event: Chan 1 Note OFF: F#4, Velocity (0 - 127): 64
0    |  MIDI Event: Chan 1 Note OFF: B3, Velocity (0 - 127): 64
0    |  MIDI Event: Chan 5 Note OFF: F#3, Velocity (0 - 127): 64
0    |  MIDI Event: Chan 4 Note OFF: F#3, Velocity (0 - 127): 64
1    |  MIDI Event: Chan 1 Note ON: D4, Velocity (0 - 127): 80
0    |  MIDI Event: Chan 1 Note ON: F#4, Velocity (0 - 127): 62
0    |  MIDI Event: Chan 1 Note ON: B4, Velocity (0 - 127): 91
0    |  MIDI Event: Chan 5 Note ON: D3, Velocity (0 - 127): 103
0    |  MIDI Event: Chan 5 Note ON: F#3, Velocity (0 - 127): 115
29   |  MIDI Event: Chan 5 Note OFF: F#3, Velocity (0 - 127): 64
0    |  MIDI Event: Chan 1 Note OFF: B4, Velocity (0 - 127): 64
0    |  MIDI Event: Chan 1 Note OFF: D4, Velocity (0 - 127): 64
0    |  MIDI Event: Chan 1 Note OFF: F#4, Velocity (0 - 127): 64
0    |  MIDI Event: Chan 5 Note OFF: D3, Velocity (0 - 127): 64
1    |  MIDI Event: Chan 1 Note ON: B3, Velocity (0 - 127): 51
0    |  MIDI Event: Chan 1 Note ON: D4, Velocity (0 - 127): 85
0    |  MIDI Event: Chan 1 Note ON: F#4, Velocity (0 - 127): 59
0    |  MIDI Event: Chan 4 Note ON: G3, Velocity (0 - 127): 119
0    |  MIDI Event: Chan 5 Note ON: B2, Velocity (0 - 127): 92
0    |  MIDI Event: Chan 5 Note ON: E3, Velocity (0 - 127): 98
0    |  Meta Event: Lyric: have 
29   |  MIDI Event: Chan 5 Note OFF: E3, Velocity (0 - 127): 64
0    |  MIDI Event: Chan 1 Note OFF: D4, Velocity (0 - 127): 64
0    |  MIDI Event: Chan 1 Note OFF: B3, Velocity (0 - 127): 64
0    |  MIDI Event: Chan 1 Note OFF: F#4, Velocity (0 - 127): 64
0    |  MIDI Event: Chan 5 Note OFF: B2, Velocity (0 - 127): 64
1    |  MIDI Event: Chan 1 Note ON: G3, Velocity (0 - 127): 74
0    |  MIDI Event: Chan 1 Note ON: B3, Velocity (0 - 127): 94
0    |  MIDI Event: Chan 1 Note ON: D4, Velocity (0 - 127): 91
0    |  MIDI Event: Chan 5 Note ON: G2, Velocity (0 - 127): 98
0    |  MIDI Event: Chan 5 Note ON: D3, Velocity (0 - 127): 116
59   |  MIDI Event: Chan 5 Note OFF: D3, Velocity (0 - 127): 64
0    |  MIDI Event: Chan 1 Note OFF: G3, Velocity (0 - 127): 64
0    |  MIDI Event: Chan 1 Note OFF: B3, Velocity (0 - 127): 64
0    |  MIDI Event: Chan 1 Note OFF: D4, Velocity (0 - 127): 64
0    |  MIDI Event: Chan 5 Note OFF: G2, Velocity (0 - 127): 64
1    |  MIDI Event: Chan 1 Note ON: B3, Velocity (0 - 127): 70
0    |  MIDI Event: Chan 1 Note ON: D4, Velocity (0 - 127): 94
0    |  MIDI Event: Chan 1 Note ON: G4, Velocity (0 - 127): 101
0    |  MIDI Event: Chan 5 Note ON: D3, Velocity (0 - 127): 79
0    |  MIDI Event: Chan 5 Note ON: G3, Velocity (0 - 127): 111
0    |  MIDI Event: Chan 5 Note ON: B3, Velocity (0 - 127): 100
29   |  MIDI Event: Chan 4 Note OFF: G3, Velocity (0 - 127): 64
31   |  MIDI Event: Chan 4 Note ON: A3, Velocity (0 - 127): 116
0    |  Meta Event: Lyric: a
29   |  MIDI Event: Chan 4 Note OFF: A3, Velocity (0 - 127): 64
0    |  MIDI Event: Chan 5 Note OFF: B3, Velocity (0 - 127): 64
0    |  MIDI Event: Chan 1 Note OFF: D4, Velocity (0 - 127): 64
0    |  MIDI Event: Chan 1 Note OFF: G4, Velocity (0 - 127): 64
0    |  MIDI Event: Chan 1 Note OFF: B3, Velocity (0 - 127): 64
0    |  MIDI Event: Chan 5 Note OFF: G3, Velocity (0 - 127): 64
0    |  MIDI Event: Chan 5 Note OFF: D3, Velocity (0 - 127): 64
1    |  MIDI Event: Chan 1 Note ON: B3, Velocity (0 - 127): 52
0    |  MIDI Event: Chan 1 Note ON: D4, Velocity (0 - 127): 85
0    |  MIDI Event: Chan 1 Note ON: G4, Velocity (0 - 127): 94
0    |  MIDI Event: Chan 5 Note ON: D3, Velocity (0 - 127): 82
0    |  MIDI Event: Chan 5 Note ON: G3, Velocity (0 - 127): 98
0    |  MIDI Event: Chan 5 Note ON: B3, Velocity (0 - 127): 85
29   |  MIDI Event: Chan 5 Note OFF: B3, Velocity (0 - 127): 64
0    |  MIDI Event: Chan 1 Note OFF: D4, Velocity (0 - 127): 64
0    |  MIDI Event: Chan 1 Note OFF: G4, Velocity (0 - 127): 64
0    |  MIDI Event: Chan 1 Note OFF: B3, Velocity (0 - 127): 64
0    |  MIDI Event: Chan 5 Note OFF: G3, Velocity (0 - 127): 64
0    |  MIDI Event: Chan 5 Note OFF: D3, Velocity (0 - 127): 64
1    |  MIDI Event: Chan 1 Note ON: D4, Velocity (0 - 127): 78
0    |  MIDI Event: Chan 1 Note ON: G4, Velocity (0 - 127): 100
0    |  MIDI Event: Chan 1 Note ON: B4, Velocity (0 - 127): 46
0    |  MIDI Event: Chan 4 Note ON: A3, Velocity (0 - 127): 109
0    |  MIDI Event: Chan 5 Note ON: G2, Velocity (0 - 127): 109
0    |  MIDI Event: Chan 5 Note ON: D3, Velocity (0 - 127): 109
0    |  Meta Event: Lyric: ny 
29   |  MIDI Event: Chan 5 Note OFF: D3, Velocity (0 - 127): 64
0    |  MIDI Event: Chan 1 Note OFF: G4, Velocity (0 - 127): 64
0    |  MIDI Event: Chan 1 Note OFF: B4, Velocity (0 - 127): 64
0    |  MIDI Event: Chan 1 Note OFF: D4, Velocity (0 - 127): 64
0    |  MIDI Event: Chan 5 Note OFF: G2, Velocity (0 - 127): 64
0    |  MIDI Event: Chan 4 Note OFF: A3, Velocity (0 - 127): 64
1    |  MIDI Event: Chan 1 Note ON: B3, Velocity (0 - 127): 45
0    |  MIDI Event: Chan 1 Note ON: D4, Velocity (0 - 127): 73
0    |  MIDI Event: Chan 1 Note ON: G4, Velocity (0 - 127): 86
0    |  MIDI Event: Chan 4 Note ON: D3, Velocity (0 - 127): 111
0    |  MIDI Event: Chan 5 Note ON: G2, Velocity (0 - 127): 101
0    |  MIDI Event: Chan 5 Note ON: E3, Velocity (0 - 127): 116
0    |  Meta Event: Lyric: plans 
0    |  Meta Event: Lyric: 
29   |  MIDI Event: Chan 5 Note OFF: E3, Velocity (0 - 127): 64
0    |  MIDI Event: Chan 1 Note OFF: D4, Velocity (0 - 127): 64
0    |  MIDI Event: Chan 1 Note OFF: B3, Velocity (0 - 127): 64
0    |  MIDI Event: Chan 1 Note OFF: G4, Velocity (0 - 127): 64
0    |  MIDI Event: Chan 5 Note OFF: G2, Velocity (0 - 127): 64
1    |  MIDI Event: Chan 1 Note ON: F#3, Velocity (0 - 127): 35
0    |  MIDI Event: Chan 1 Note ON: A3, Velocity (0 - 127): 85
0    |  MIDI Event: Chan 1 Note ON: D4, Velocity (0 - 127): 79
0    |  MIDI Event: Chan 5 Note ON: A2, Velocity (0 - 127): 90
0    |  MIDI Event: Chan 5 Note ON: D3, Velocity (0 - 127): 105
59   |  MIDI Event: Chan 5 Note OFF: D3, Velocity (0 - 127): 64
0    |  MIDI Event: Chan 1 Note OFF: F#3, Velocity (0 - 127): 64
0    |  MIDI Event: Chan 1 Note OFF: A3, Velocity (0 - 127): 64
0    |  MIDI Event: Chan 1 Note OFF: D4, Velocity (0 - 127): 64
0    |  MIDI Event: Chan 5 Note OFF: A2, Velocity (0 - 127): 64
1    |  MIDI Event: Chan 1 Note ON: A3, Velocity (0 - 127): 69
0    |  MIDI Event: Chan 1 Note ON: D4, Velocity (0 - 127): 98
0    |  MIDI Event: Chan 1 Note ON: F#4, Velocity (0 - 127): 74
0    |  MIDI Event: Chan 5 Note ON: A2, Velocity (0 - 127): 100
0    |  MIDI Event: Chan 5 Note ON: D3, Velocity (0 - 127): 111
0    |  MIDI Event: Chan 5 Note ON: F#3, Velocity (0 - 127): 89
89   |  MIDI Event: Chan 5 Note OFF: F#3, Velocity (0 - 127): 64
0    |  MIDI Event: Chan 5 Note OFF: A2, Velocity (0 - 127): 64
0    |  MIDI Event: Chan 1 Note OFF: A3, Velocity (0 - 127): 64
0    |  MIDI Event: Chan 1 Note OFF: D4, Velocity (0 - 127): 64
0    |  MIDI Event: Chan 1 Note OFF: F#4, Velocity (0 - 127): 64
0    |  MIDI Event: Chan 5 Note OFF: D3, Velocity (0 - 127): 64
1    |  MIDI Event: Chan 1 Note ON: F#3, Velocity (0 - 127): 44
0    |  MIDI Event: Chan 1 Note ON: A3, Velocity (0 - 127): 78
0    |  MIDI Event: Chan 1 Note ON: D4, Velocity (0 - 127): 58
0    |  MIDI Event: Chan 5 Note ON: A2, Velocity (0 - 127): 85
0    |  MIDI Event: Chan 5 Note ON: D3, Velocity (0 - 127): 105
0    |  MIDI Event: Chan 5 Note ON: F#3, Velocity (0 - 127): 81
29   |  MIDI Event: Chan 5 Note OFF: F#3, Velocity (0 - 127): 64
0    |  MIDI Event: Chan 5 Note OFF: A2, Velocity (0 - 127): 64
0    |  MIDI Event: Chan 1 Note OFF: F#3, Velocity (0 - 127): 64
0    |  MIDI Event: Chan 1 Note OFF: A3, Velocity (0 - 127): 64
0    |  MIDI Event: Chan 1 Note OFF: D4, Velocity (0 - 127): 64
0    |  MIDI Event: Chan 5 Note OFF: D3, Velocity (0 - 127): 64
1    |  MIDI Event: Chan 1 Note ON: A3, Velocity (0 - 127): 57
0    |  MIDI Event: Chan 1 Note ON: D4, Velocity (0 - 127): 91
0    |  MIDI Event: Chan 1 Note ON: F#4, Velocity (0 - 127): 77
0    |  MIDI Event: Chan 5 Note ON: D3, Velocity (0 - 127): 109
0    |  MIDI Event: Chan 5 Note ON: F#3, Velocity (0 - 127): 89
0    |  MIDI Event: Chan 5 Note ON: A3, Velocity (0 - 127): 109
29   |  MIDI Event: Chan 5 Note OFF: A3, Velocity (0 - 127): 64
0    |  MIDI Event: Chan 5 Note OFF: D3, Velocity (0 - 127): 64
0    |  MIDI Event: Chan 1 Note OFF: A3, Velocity (0 - 127): 64
0    |  MIDI Event: Chan 1 Note OFF: D4, Velocity (0 - 127): 64
0    |  MIDI Event: Chan 1 Note OFF: F#4, Velocity (0 - 127): 64
0    |  MIDI Event: Chan 5 Note OFF: F#3, Velocity (0 - 127): 64
1    |  MIDI Event: Chan 1 Note ON: F#3, Velocity (0 - 127): 35
0    |  MIDI Event: Chan 1 Note ON: A3, Velocity (0 - 127): 79
0    |  MIDI Event: Chan 1 Note ON: D4, Velocity (0 - 127): 56
0    |  MIDI Event: Chan 5 Note ON: D3, Velocity (0 - 127): 111
0    |  MIDI Event: Chan 5 Note ON: F#3, Velocity (0 - 127): 100
0    |  MIDI Event: Chan 5 Note ON: A3, Velocity (0 - 127): 100
29   |  MIDI Event: Chan 5 Note OFF: A3, Velocity (0 - 127): 64
0    |  MIDI Event: Chan 5 Note OFF: D3, Velocity (0 - 127): 64
0    |  MIDI Event: Chan 1 Note OFF: F#3, Velocity (0 - 127): 64
0    |  MIDI Event: Chan 1 Note OFF: A3, Velocity (0 - 127): 64
0    |  MIDI Event: Chan 4 Note OFF: D3, Velocity (0 - 127): 64
0    |  MIDI Event: Chan 5 Note OFF: F#3, Velocity (0 - 127): 64
0    |  MIDI Event: Chan 1 Note OFF: D4, Velocity (0 - 127): 64
1    |  MIDI Event: Chan 1 Note ON: F#3, Velocity (0 - 127): 35
0    |  MIDI Event: Chan 1 Note ON: A3, Velocity (0 - 127): 85
0    |  MIDI Event: Chan 1 Note ON: D4, Velocity (0 - 127): 79
0    |  MIDI Event: Chan 5 Note ON: A2, Velocity (0 - 127): 90
0    |  MIDI Event: Chan 5 Note ON: D3, Velocity (0 - 127): 105
59   |  MIDI Event: Chan 5 Note OFF: D3, Velocity (0 - 127): 64
0    |  MIDI Event: Chan 1 Note OFF: D4, Velocity (0 - 127): 64
0    |  MIDI Event: Chan 1 Note OFF: F#3, Velocity (0 - 127): 64
0    |  MIDI Event: Chan 1 Note OFF: A3, Velocity (0 - 127): 64
0    |  MIDI Event: Chan 5 Note OFF: A2, Velocity (0 - 127): 64
1    |  MIDI Event: Chan 1 Note ON: A3, Velocity (0 - 127): 69
0    |  MIDI Event: Chan 1 Note ON: D4, Velocity (0 - 127): 98
0    |  MIDI Event: Chan 1 Note ON: F#4, Velocity (0 - 127): 74
0    |  MIDI Event: Chan 5 Note ON: A2, Velocity (0 - 127): 100
0    |  MIDI Event: Chan 5 Note ON: D3, Velocity (0 - 127): 111
0    |  MIDI Event: Chan 5 Note ON: F#3, Velocity (0 - 127): 89
89   |  MIDI Event: Chan 5 Note OFF: F#3, Velocity (0 - 127): 64
0    |  MIDI Event: Chan 1 Note OFF: D4, Velocity (0 - 127): 64
0    |  MIDI Event: Chan 1 Note OFF: F#4, Velocity (0 - 127): 64
0    |  MIDI Event: Chan 1 Note OFF: A3, Velocity (0 - 127): 64
0    |  MIDI Event: Chan 5 Note OFF: D3, Velocity (0 - 127): 64
0    |  MIDI Event: Chan 5 Note OFF: A2, Velocity (0 - 127): 64
1    |  MIDI Event: Chan 1 Note ON: F#3, Velocity (0 - 127): 44
0    |  MIDI Event: Chan 1 Note ON: A3, Velocity (0 - 127): 78
0    |  MIDI Event: Chan 1 Note ON: D4, Velocity (0 - 127): 58
0    |  MIDI Event: Chan 5 Note ON: A2, Velocity (0 - 127): 85
0    |  MIDI Event: Chan 5 Note ON: D3, Velocity (0 - 127): 105
0    |  MIDI Event: Chan 5 Note ON: F#3, Velocity (0 - 127): 81
29   |  MIDI Event: Chan 5 Note OFF: F#3, Velocity (0 - 127): 64
0    |  MIDI Event: Chan 1 Note OFF: A3, Velocity (0 - 127): 64
0    |  MIDI Event: Chan 1 Note OFF: D4, Velocity (0 - 127): 64
0    |  MIDI Event: Chan 1 Note OFF: F#3, Velocity (0 - 127): 64
0    |  MIDI Event: Chan 5 Note OFF: D3, Velocity (0 - 127): 64
0    |  MIDI Event: Chan 5 Note OFF: A2, Velocity (0 - 127): 64
1    |  MIDI Event: Chan 1 Note ON: A3, Velocity (0 - 127): 57
0    |  MIDI Event: Chan 1 Note ON: D4, Velocity (0 - 127): 91
0    |  MIDI Event: Chan 1 Note ON: F#4, Velocity (0 - 127): 77
0    |  MIDI Event: Chan 5 Note ON: D3, Velocity (0 - 127): 109
0    |  MIDI Event: Chan 5 Note ON: F#3, Velocity (0 - 127): 89
0    |  MIDI Event: Chan 5 Note ON: A3, Velocity (0 - 127): 109
29   |  MIDI Event: Chan 5 Note OFF: A3, Velocity (0 - 127): 64
0    |  MIDI Event: Chan 1 Note OFF: D4, Velocity (0 - 127): 64
0    |  MIDI Event: Chan 1 Note OFF: F#4, Velocity (0 - 127): 64
0    |  MIDI Event: Chan 1 Note OFF: A3, Velocity (0 - 127): 64
0    |  MIDI Event: Chan 5 Note OFF: F#3, Velocity (0 - 127): 64
0    |  MIDI Event: Chan 5 Note OFF: D3, Velocity (0 - 127): 64
1    |  MIDI Event: Chan 1 Note ON: F#3, Velocity (0 - 127): 35
0    |  MIDI Event: Chan 1 Note ON: A3, Velocity (0 - 127): 79
0    |  MIDI Event: Chan 1 Note ON: D4, Velocity (0 - 127): 56
0    |  MIDI Event: Chan 5 Note ON: D3, Velocity (0 - 127): 111
0    |  MIDI Event: Chan 5 Note ON: F#3, Velocity (0 - 127): 100
0    |  MIDI Event: Chan 5 Note ON: A3, Velocity (0 - 127): 100
29   |  MIDI Event: Chan 5 Note OFF: A3, Velocity (0 - 127): 64
0    |  MIDI Event: Chan 1 Note OFF: A3, Velocity (0 - 127): 64
0    |  MIDI Event: Chan 1 Note OFF: D4, Velocity (0 - 127): 64
0    |  MIDI Event: Chan 1 Note OFF: F#3, Velocity (0 - 127): 64
0    |  MIDI Event: Chan 5 Note OFF: F#3, Velocity (0 - 127): 64
0    |  MIDI Event: Chan 5 Note OFF: D3, Velocity (0 - 127): 64
1    |  MIDI Event: Chan 1 Note ON: B3, Velocity (0 - 127): 58
0    |  MIDI Event: Chan 1 Note ON: D4, Velocity (0 - 127): 91
0    |  MIDI Event: Chan 5 Note ON: B2, Velocity (0 - 127): 85
0    |  MIDI Event: Chan 5 Note ON: F#3, Velocity (0 - 127): 120
0    |  MIDI Event: Chan 8 Note ON: B2, Velocity (0 - 127): 111
0    |  MIDI Event: Chan 8 Note ON: B3, Velocity (0 - 127): 105
0    |  MIDI Event: Chan 8 Note ON: D4, Velocity (0 - 127): 119
0    |  MIDI Event: Chan 8 Note ON: F#4, Velocity (0 - 127): 89
0    |  MIDI Event: Chan 10 Note ON: F#2, Velocity (0 - 127): 119
29   |  MIDI Event: Chan 10 Note OFF: F#2, Velocity (0 - 127): 64
30   |  MIDI Event: Chan 1 Note OFF: B3, Velocity (0 - 127): 64
0    |  MIDI Event: Chan 5 Note OFF: F#3, Velocity (0 - 127): 64
0    |  MIDI Event: Chan 5 Note OFF: B2, Velocity (0 - 127): 64
0    |  MIDI Event: Chan 1 Note OFF: D4, Velocity (0 - 127): 64
1    |  MIDI Event: Chan 1 Note ON: B3, Velocity (0 - 127): 79
0    |  MIDI Event: Chan 1 Note ON: D4, Velocity (0 - 127): 95
0    |  MIDI Event: Chan 1 Note ON: F#4, Velocity (0 - 127): 74
0    |  MIDI Event: Chan 5 Note ON: D3, Velocity (0 - 127): 92
0    |  MIDI Event: Chan 5 Note ON: F#3, Velocity (0 - 127): 87
0    |  MIDI Event: Chan 5 Note ON: D4, Velocity (0 - 127): 95
30   |  MIDI Event: Chan 4 Note ON: D3, Velocity (0 - 127): 87
0    |  Meta Event: Lyric: I 
29   |  MIDI Event: Chan 4 Note OFF: D3, Velocity (0 - 127): 64
1    |  MIDI Event: Chan 4 Note ON: B3, Velocity (0 - 127): 109
0    |  MIDI Event: Chan 10 Note ON: F#2, Velocity (0 - 127): 119
0    |  Meta Event: Lyric: wish 
29   |  MIDI Event: Chan 10 Note OFF: F#2, Velocity (0 - 127): 64
0    |  MIDI Event: Chan 5 Note OFF: D3, Velocity (0 - 127): 64
0    |  MIDI Event: Chan 5 Note OFF: F#3, Velocity (0 - 127): 64
0    |  MIDI Event: Chan 1 Note OFF: F#4, Velocity (0 - 127): 64
0    |  MIDI Event: Chan 5 Note OFF: D4, Velocity (0 - 127): 64
0    |  MIDI Event: Chan 4 Note OFF: B3, Velocity (0 - 127): 64
0    |  MIDI Event: Chan 1 Note OFF: B3, Velocity (0 - 127): 64
0    |  MIDI Event: Chan 1 Note OFF: D4, Velocity (0 - 127): 64
1    |  MIDI Event: Chan 1 Note ON: B3, Velocity (0 - 127): 71
0    |  MIDI Event: Chan 1 Note ON: D4, Velocity (0 - 127): 91
0    |  MIDI Event: Chan 1 Note ON: F#4, Velocity (0 - 127): 60
0    |  MIDI Event: Chan 5 Note ON: F#3, Velocity (0 - 127): 109
0    |  MIDI Event: Chan 5 Note ON: B3, Velocity (0 - 127): 95
29   |  MIDI Event: Chan 5 Note OFF: B3, Velocity (0 - 127): 64
0    |  MIDI Event: Chan 5 Note OFF: F#3, Velocity (0 - 127): 64
0    |  MIDI Event: Chan 1 Note OFF: F#4, Velocity (0 - 127): 64
0    |  MIDI Event: Chan 1 Note OFF: B3, Velocity (0 - 127): 64
0    |  MIDI Event: Chan 1 Note OFF: D4, Velocity (0 - 127): 64
1    |  MIDI Event: Chan 1 Note ON: D4, Velocity (0 - 127): 80
0    |  MIDI Event: Chan 1 Note ON: F#4, Velocity (0 - 127): 62
0    |  MIDI Event: Chan 1 Note ON: B4, Velocity (0 - 127): 91
0    |  MIDI Event: Chan 4 Note ON: B3, Velocity (0 - 127): 111
0    |  MIDI Event: Chan 5 Note ON: D3, Velocity (0 - 127): 103
0    |  MIDI Event: Chan 5 Note ON: F#3, Velocity (0 - 127): 115
0    |  Meta Event: Lyric: that 
29   |  MIDI Event: Chan 5 Note OFF: F#3, Velocity (0 - 127): 64
0    |  MIDI Event: Chan 5 Note OFF: D3, Velocity (0 - 127): 64
0    |  MIDI Event: Chan 1 Note OFF: B4, Velocity (0 - 127): 64
0    |  MIDI Event: Chan 4 Note OFF: B3, Velocity (0 - 127): 64
0    |  MIDI Event: Chan 1 Note OFF: D4, Velocity (0 - 127): 64
0    |  MIDI Event: Chan 1 Note OFF: F#4, Velocity (0 - 127): 64
1    |  MIDI Event: Chan 1 Note ON: B3, Velocity (0 - 127): 51
0    |  MIDI Event: Chan 1 Note ON: D4, Velocity (0 - 127): 85
0    |  MIDI Event: Chan 1 Note ON: F#4, Velocity (0 - 127): 59
0    |  MIDI Event: Chan 4 Note ON: B3, Velocity (0 - 127): 113
0    |  MIDI Event: Chan 5 Note ON: B2, Velocity (0 - 127): 92
0    |  MIDI Event: Chan 5 Note ON: E3, Velocity (0 - 127): 98
0    |  Meta Event: Lyric: I 
29   |  MIDI Event: Chan 5 Note OFF: E3, Velocity (0 - 127): 64
0    |  MIDI Event: Chan 8 Note OFF: D4, Velocity (0 - 127): 64
0    |  MIDI Event: Chan 8 Note OFF: B3, Velocity (0 - 127): 64
0    |  MIDI Event: Chan 5 Note OFF: B2, Velocity (0 - 127): 64
0    |  MIDI Event: Chan 1 Note OFF: B3, Velocity (0 - 127): 64
0    |  MIDI Event: Chan 8 Note OFF: F#4, Velocity (0 - 127): 64
0    |  MIDI Event: Chan 1 Note OFF: F#4, Velocity (0 - 127): 64
0    |  MIDI Event: Chan 8 Note OFF: B2, Velocity (0 - 127): 64
0    |  MIDI Event: Chan 1 Note OFF: D4, Velocity (0 - 127): 64
1    |  MIDI Event: Chan 1 Note ON: G3, Velocity (0 - 127): 74
0    |  MIDI Event: Chan 1 Note ON: B3, Velocity (0 - 127): 94
0    |  MIDI Event: Chan 1 Note ON: D4, Velocity (0 - 127): 91
0    |  MIDI Event: Chan 5 Note ON: G2, Velocity (0 - 127): 98
0    |  MIDI Event: Chan 5 Note ON: D3, Velocity (0 - 127): 116
0    |  MIDI Event: Chan 8 Note ON: G2, Velocity (0 - 127): 116
0    |  MIDI Event: Chan 8 Note ON: B3, Velocity (0 - 127): 105
0    |  MIDI Event: Chan 8 Note ON: D4, Velocity (0 - 127): 116
0    |  MIDI Event: Chan 8 Note ON: G4, Velocity (0 - 127): 118
0    |  MIDI Event: Chan 10 Note ON: F#2, Velocity (0 - 127): 119
29   |  MIDI Event: Chan 10 Note OFF: F#2, Velocity (0 - 127): 64
0    |  MIDI Event: Chan 4 Note OFF: B3, Velocity (0 - 127): 64
1    |  MIDI Event: Chan 4 Note ON: A3, Velocity (0 - 127): 119
0    |  Meta Event: Lyric: could 
29   |  MIDI Event: Chan 4 Note OFF: A3, Velocity (0 - 127): 64
0    |  MIDI Event: Chan 5 Note OFF: G2, Velocity (0 - 127): 64
0    |  MIDI Event: Chan 1 Note OFF: D4, Velocity (0 - 127): 64
0    |  MIDI Event: Chan 1 Note OFF: G3, Velocity (0 - 127): 64
0    |  MIDI Event: Chan 5 Note OFF: D3, Velocity (0 - 127): 64
0    |  MIDI Event: Chan 1 Note OFF: B3, Velocity (0 - 127): 64
1    |  MIDI Event: Chan 1 Note ON: B3, Velocity (0 - 127): 70
0    |  MIDI Event: Chan 1 Note ON: D4, Velocity (0 - 127): 94
0    |  MIDI Event: Chan 1 Note ON: G4, Velocity (0 - 127): 101
0    |  MIDI Event: Chan 5 Note ON: D3, Velocity (0 - 127): 79
0    |  MIDI Event: Chan 5 Note ON: G3, Velocity (0 - 127): 111
0    |  MIDI Event: Chan 5 Note ON: B3, Velocity (0 - 127): 100
30   |  MIDI Event: Chan 4 Note ON: A3, Velocity (0 - 127): 111
0    |  Meta Event: Lyric: stay 
0    |  Meta Event: Lyric: 
30   |  MIDI Event: Chan 10 Note ON: F#2, Velocity (0 - 127): 119
29   |  MIDI Event: Chan 10 Note OFF: F#2, Velocity (0 - 127): 64
0    |  MIDI Event: Chan 5 Note OFF: B3, Velocity (0 - 127): 64
0    |  MIDI Event: Chan 5 Note OFF: D3, Velocity (0 - 127): 64
0    |  MIDI Event: Chan 1 Note OFF: G4, Velocity (0 - 127): 64
0    |  MIDI Event: Chan 5 Note OFF: G3, Velocity (0 - 127): 64
0    |  MIDI Event: Chan 4 Note OFF: A3, Velocity (0 - 127): 64
0    |  MIDI Event: Chan 1 Note OFF: B3, Velocity (0 - 127): 64
0    |  MIDI Event: Chan 1 Note OFF: D4, Velocity (0 - 127): 64
1    |  MIDI Event: Chan 1 Note ON: B3, Velocity (0 - 127): 52
0    |  MIDI Event: Chan 1 Note ON: D4, Velocity (0 - 127): 85
0    |  MIDI Event: Chan 1 Note ON: G4, Velocity (0 - 127): 94
0    |  MIDI Event: Chan 4 Note ON: F#3, Velocity (0 - 127): 120
0    |  MIDI Event: Chan 5 Note ON: D3, Velocity (0 - 127): 82
0    |  MIDI Event: Chan 5 Note ON: G3, Velocity (0 - 127): 98
0    |  MIDI Event: Chan 5 Note ON: B3, Velocity (0 - 127): 85
0    |  Meta Event: Lyric: for
29   |  MIDI Event: Chan 5 Note OFF: B3, Velocity (0 - 127): 64
0    |  MIDI Event: Chan 1 Note OFF: G4, Velocity (0 - 127): 64
0    |  MIDI Event: Chan 5 Note OFF: G3, Velocity (0 - 127): 64
0    |  MIDI Event: Chan 5 Note OFF: D3, Velocity (0 - 127): 64
0    |  MIDI Event: Chan 1 Note OFF: D4, Velocity (0 - 127): 64
0    |  MIDI Event: Chan 1 Note OFF: B3, Velocity (0 - 127): 64
1    |  MIDI Event: Chan 1 Note ON: D4, Velocity (0 - 127): 78
0    |  MIDI Event: Chan 1 Note ON: G4, Velocity (0 - 127): 100
0    |  MIDI Event: Chan 1 Note ON: B4, Velocity (0 - 127): 46
0    |  MIDI Event: Chan 5 Note ON: G2, Velocity (0 - 127): 109
0    |  MIDI Event: Chan 5 Note ON: D3, Velocity (0 - 127): 109
29   |  MIDI Event: Chan 5 Note OFF: D3, Velocity (0 - 127): 64
0    |  MIDI Event: Chan 5 Note OFF: G2, Velocity (0 - 127): 64
0    |  MIDI Event: Chan 1 Note OFF: G4, Velocity (0 - 127): 64
0    |  MIDI Event: Chan 1 Note OFF: B4, Velocity (0 - 127): 64
0    |  MIDI Event: Chan 4 Note OFF: F#3, Velocity (0 - 127): 64
0    |  MIDI Event: Chan 1 Note OFF: D4, Velocity (0 - 127): 64
1    |  MIDI Event: Chan 1 Note ON: B3, Velocity (0 - 127): 45
0    |  MIDI Event: Chan 1 Note ON: D4, Velocity (0 - 127): 73
0    |  MIDI Event: Chan 1 Note ON: G4, Velocity (0 - 127): 86
0    |  MIDI Event: Chan 5 Note ON: G2, Velocity (0 - 127): 101
0    |  MIDI Event: Chan 5 Note ON: E3, Velocity (0 - 127): 116
29   |  MIDI Event: Chan 5 Note OFF: E3, Velocity (0 - 127): 64
0    |  MIDI Event: Chan 8 Note OFF: G4, Velocity (0 - 127): 64
0    |  MIDI Event: Chan 8 Note OFF: D4, Velocity (0 - 127): 64
0    |  MIDI Event: Chan 1 Note OFF: B3, Velocity (0 - 127): 64
0    |  MIDI Event: Chan 8 Note OFF: G2, Velocity (0 - 127): 64
0    |  MIDI Event: Chan 8 Note OFF: B3, Velocity (0 - 127): 64
0    |  MIDI Event: Chan 1 Note OFF: G4, Velocity (0 - 127): 64
0    |  MIDI Event: Chan 1 Note OFF: D4, Velocity (0 - 127): 64
0    |  MIDI Event: Chan 5 Note OFF: G2, Velocity (0 - 127): 64
1    |  MIDI Event: Chan 1 Note ON: F#3, Velocity (0 - 127): 35
0    |  MIDI Event: Chan 1 Note ON: A3, Velocity (0 - 127): 85
0    |  MIDI Event: Chan 1 Note ON: D4, Velocity (0 - 127): 79
0    |  MIDI Event: Chan 4 Note ON: A3, Velocity (0 - 127): 119
0    |  MIDI Event: Chan 5 Note ON: A2, Velocity (0 - 127): 90
0    |  MIDI Event: Chan 5 Note ON: D3, Velocity (0 - 127): 105
0    |  MIDI Event: Chan 8 Note ON: D2, Velocity (0 - 127): 101
0    |  MIDI Event: Chan 8 Note ON: A3, Velocity (0 - 127): 109
0    |  MIDI Event: Chan 8 Note ON: D4, Velocity (0 - 127): 113
0    |  MIDI Event: Chan 8 Note ON: F#4, Velocity (0 - 127): 104
0    |  MIDI Event: Chan 10 Note ON: F#2, Velocity (0 - 127): 120
0    |  Meta Event: Lyric: e
29   |  MIDI Event: Chan 10 Note OFF: F#2, Velocity (0 - 127): 64
30   |  MIDI Event: Chan 1 Note OFF: F#3, Velocity (0 - 127): 64
0    |  MIDI Event: Chan 5 Note OFF: D3, Velocity (0 - 127): 64
0    |  MIDI Event: Chan 1 Note OFF: D4, Velocity (0 - 127): 64
0    |  MIDI Event: Chan 5 Note OFF: A2, Velocity (0 - 127): 64
0    |  MIDI Event: Chan 1 Note OFF: A3, Velocity (0 - 127): 64
1    |  MIDI Event: Chan 1 Note ON: A3, Velocity (0 - 127): 69
0    |  MIDI Event: Chan 1 Note ON: D4, Velocity (0 - 127): 98
0    |  MIDI Event: Chan 1 Note ON: F#4, Velocity (0 - 127): 74
0    |  MIDI Event: Chan 5 Note ON: A2, Velocity (0 - 127): 100
0    |  MIDI Event: Chan 5 Note ON: D3, Velocity (0 - 127): 111
0    |  MIDI Event: Chan 5 Note ON: F#3, Velocity (0 - 127): 89
29   |  MIDI Event: Chan 4 Note OFF: A3, Velocity (0 - 127): 64
31   |  MIDI Event: Chan 4 Note ON: A3, Velocity (0 - 127): 111
0    |  MIDI Event: Chan 10 Note ON: F#2, Velocity (0 - 127): 120
0    |  Meta Event: Lyric: ver 
29   |  MIDI Event: Chan 10 Note OFF: F#2, Velocity (0 - 127): 64
0    |  MIDI Event: Chan 5 Note OFF: A2, Velocity (0 - 127): 64
0    |  MIDI Event: Chan 5 Note OFF: D3, Velocity (0 - 127): 64
0    |  MIDI Event: Chan 1 Note OFF: F#4, Velocity (0 - 127): 64
0    |  MIDI Event: Chan 5 Note OFF: F#3, Velocity (0 - 127): 64
0    |  MIDI Event: Chan 4 Note OFF: A3, Velocity (0 - 127): 64
0    |  MIDI Event: Chan 1 Note OFF: A3, Velocity (0 - 127): 64
0    |  MIDI Event: Chan 1 Note OFF: D4, Velocity (0 - 127): 64
1    |  MIDI Event: Chan 1 Note ON: F#3, Velocity (0 - 127): 44
0    |  MIDI Event: Chan 1 Note ON: A3, Velocity (0 - 127): 78
0    |  MIDI Event: Chan 1 Note ON: D4, Velocity (0 - 127): 58
0    |  MIDI Event: Chan 4 Note ON: F#3, Velocity (0 - 127): 109
0    |  MIDI Event: Chan 5 Note ON: A2, Velocity (0 - 127): 85
0    |  MIDI Event: Chan 5 Note ON: D3, Velocity (0 - 127): 105
0    |  MIDI Event: Chan 5 Note ON: F#3, Velocity (0 - 127): 81
0    |  Meta Event: Lyric: this 
29   |  MIDI Event: Chan 5 Note OFF: F#3, Velocity (0 - 127): 64
0    |  MIDI Event: Chan 4 Note OFF: F#3, Velocity (0 - 127): 64
0    |  MIDI Event: Chan 5 Note OFF: D3, Velocity (0 - 127): 64
0    |  MIDI Event: Chan 1 Note OFF: D4, Velocity (0 - 127): 64
0    |  MIDI Event: Chan 5 Note OFF: A2, Velocity (0 - 127): 64
0    |  MIDI Event: Chan 1 Note OFF: F#3, Velocity (0 - 127): 64
0    |  MIDI Event: Chan 1 Note OFF: A3, Velocity (0 - 127): 64
1    |  MIDI Event: Chan 1 Note ON: A3, Velocity (0 - 127): 57
0    |  MIDI Event: Chan 1 Note ON: D4, Velocity (0 - 127): 91
0    |  MIDI Event: Chan 1 Note ON: F#4, Velocity (0 - 127): 77
0    |  MIDI Event: Chan 5 Note ON: D3, Velocity (0 - 127): 109
0    |  MIDI Event: Chan 5 Note ON: F#3, Velocity (0 - 127): 89
0    |  MIDI Event: Chan 5 Note ON: A3, Velocity (0 - 127): 109
29   |  MIDI Event: Chan 5 Note OFF: A3, Velocity (0 - 127): 64
0    |  MIDI Event: Chan 5 Note OFF: F#3, Velocity (0 - 127): 64
0    |  MIDI Event: Chan 1 Note OFF: F#4, Velocity (0 - 127): 64
0    |  MIDI Event: Chan 5 Note OFF: D3, Velocity (0 - 127): 64
0    |  MIDI Event: Chan 1 Note OFF: A3, Velocity (0 - 127): 64
0    |  MIDI Event: Chan 1 Note OFF: D4, Velocity (0 - 127): 64
1    |  MIDI Event: Chan 1 Note ON: F#3, Velocity (0 - 127): 35
0    |  MIDI Event: Chan 1 Note ON: A3, Velocity (0 - 127): 79
0    |  MIDI Event: Chan 1 Note ON: D4, Velocity (0 - 127): 56
0    |  MIDI Event: Chan 5 Note ON: D3, Velocity (0 - 127): 111
0    |  MIDI Event: Chan 5 Note ON: F#3, Velocity (0 - 127): 100
0    |  MIDI Event: Chan 5 Note ON: A3, Velocity (0 - 127): 100
29   |  MIDI Event: Chan 5 Note OFF: A3, Velocity (0 - 127): 64
0    |  MIDI Event: Chan 5 Note OFF: F#3, Velocity (0 - 127): 64
0    |  MIDI Event: Chan 1 Note OFF: D4, Velocity (0 - 127): 64
0    |  MIDI Event: Chan 5 Note OFF: D3, Velocity (0 - 127): 64
0    |  MIDI Event: Chan 1 Note OFF: F#3, Velocity (0 - 127): 64
0    |  MIDI Event: Chan 1 Note OFF: A3, Velocity (0 - 127): 64
1    |  MIDI Event: Chan 1 Note ON: F#3, Velocity (0 - 127): 35
0    |  MIDI Event: Chan 1 Note ON: A3, Velocity (0 - 127): 85
0    |  MIDI Event: Chan 1 Note ON: D4, Velocity (0 - 127): 79
0    |  MIDI Event: Chan 4 Note ON: A3, Velocity (0 - 127): 119
0    |  MIDI Event: Chan 5 Note ON: A2, Velocity (0 - 127): 90
0    |  MIDI Event: Chan 5 Note ON: D3, Velocity (0 - 127): 105
0    |  MIDI Event: Chan 10 Note ON: F#2, Velocity (0 - 127): 119
0    |  Meta Event: Lyric: yo
29   |  MIDI Event: Chan 10 Note OFF: F#2, Velocity (0 - 127): 64
30   |  MIDI Event: Chan 1 Note OFF: D4, Velocity (0 - 127): 64
0    |  MIDI Event: Chan 5 Note OFF: D3, Velocity (0 - 127): 64
0    |  MIDI Event: Chan 5 Note OFF: A2, Velocity (0 - 127): 64
0    |  MIDI Event: Chan 1 Note OFF: A3, Velocity (0 - 127): 64
0    |  MIDI Event: Chan 1 Note OFF: F#3, Velocity (0 - 127): 64
1    |  MIDI Event: Chan 1 Note ON: A3, Velocity (0 - 127): 69
0    |  MIDI Event: Chan 1 Note ON: D4, Velocity (0 - 127): 98
0    |  MIDI Event: Chan 1 Note ON: F#4, Velocity (0 - 127): 74
0    |  MIDI Event: Chan 5 Note ON: A2, Velocity (0 - 127): 100
0    |  MIDI Event: Chan 5 Note ON: D3, Velocity (0 - 127): 111
0    |  MIDI Event: Chan 5 Note ON: F#3, Velocity (0 - 127): 89
59   |  MIDI Event: Chan 4 Note OFF: A3, Velocity (0 - 127): 64
1    |  MIDI Event: Chan 4 Note ON: F#3, Velocity (0 - 127): 119
0    |  MIDI Event: Chan 10 Note ON: F#2, Velocity (0 - 127): 120
0    |  Meta Event: Lyric: ung 
0    |  Meta Event: Lyric: 
29   |  MIDI Event: Chan 10 Note OFF: F#2, Velocity (0 - 127): 64
0    |  MIDI Event: Chan 5 Note OFF: F#3, Velocity (0 - 127): 64
0    |  MIDI Event: Chan 1 Note OFF: F#4, Velocity (0 - 127): 64
0    |  MIDI Event: Chan 5 Note OFF: D3, Velocity (0 - 127): 64
0    |  MIDI Event: Chan 5 Note OFF: A2, Velocity (0 - 127): 64
0    |  MIDI Event: Chan 1 Note OFF: D4, Velocity (0 - 127): 64
0    |  MIDI Event: Chan 1 Note OFF: A3, Velocity (0 - 127): 64
1    |  MIDI Event: Chan 1 Note ON: F#3, Velocity (0 - 127): 44
0    |  MIDI Event: Chan 1 Note ON: A3, Velocity (0 - 127): 78
0    |  MIDI Event: Chan 1 Note ON: D4, Velocity (0 - 127): 58
0    |  MIDI Event: Chan 5 Note ON: A2, Velocity (0 - 127): 85
0    |  MIDI Event: Chan 5 Note ON: D3, Velocity (0 - 127): 105
0    |  MIDI Event: Chan 5 Note ON: F#3, Velocity (0 - 127): 81
29   |  MIDI Event: Chan 5 Note OFF: F#3, Velocity (0 - 127): 64
0    |  MIDI Event: Chan 1 Note OFF: D4, Velocity (0 - 127): 64
0    |  MIDI Event: Chan 5 Note OFF: D3, Velocity (0 - 127): 64
0    |  MIDI Event: Chan 1 Note OFF: A3, Velocity (0 - 127): 64
0    |  MIDI Event: Chan 5 Note OFF: A2, Velocity (0 - 127): 64
0    |  MIDI Event: Chan 1 Note OFF: F#3, Velocity (0 - 127): 64
1    |  MIDI Event: Chan 1 Note ON: A3, Velocity (0 - 127): 57
0    |  MIDI Event: Chan 1 Note ON: D4, Velocity (0 - 127): 91
0    |  MIDI Event: Chan 1 Note ON: F#4, Velocity (0 - 127): 77
0    |  MIDI Event: Chan 5 Note ON: D3, Velocity (0 - 127): 109
0    |  MIDI Event: Chan 5 Note ON: F#3, Velocity (0 - 127): 89
0    |  MIDI Event: Chan 5 Note ON: A3, Velocity (0 - 127): 109
29   |  MIDI Event: Chan 5 Note OFF: A3, Velocity (0 - 127): 64
0    |  MIDI Event: Chan 1 Note OFF: F#4, Velocity (0 - 127): 64
0    |  MIDI Event: Chan 5 Note OFF: F#3, Velocity (0 - 127): 64
0    |  MIDI Event: Chan 1 Note OFF: D4, Velocity (0 - 127): 64
0    |  MIDI Event: Chan 5 Note OFF: D3, Velocity (0 - 127): 64
0    |  MIDI Event: Chan 1 Note OFF: A3, Velocity (0 - 127): 64
1    |  MIDI Event: Chan 1 Note ON: F#3, Velocity (0 - 127): 35
0    |  MIDI Event: Chan 1 Note ON: A3, Velocity (0 - 127): 79
0    |  MIDI Event: Chan 1 Note ON: D4, Velocity (0 - 127): 56
0    |  MIDI Event: Chan 5 Note ON: D3, Velocity (0 - 127): 111
0    |  MIDI Event: Chan 5 Note ON: F#3, Velocity (0 - 127): 100
0    |  MIDI Event: Chan 5 Note ON: A3, Velocity (0 - 127): 100
29   |  MIDI Event: Chan 5 Note OFF: A3, Velocity (0 - 127): 64
0    |  MIDI Event: Chan 1 Note OFF: D4, Velocity (0 - 127): 64
0    |  MIDI Event: Chan 8 Note OFF: A3, Velocity (0 - 127): 64
0    |  MIDI Event: Chan 4 Note OFF: F#3, Velocity (0 - 127): 64
0    |  MIDI Event: Chan 8 Note OFF: D2, Velocity (0 - 127): 64
0    |  MIDI Event: Chan 8 Note OFF: D4, Velocity (0 - 127): 64
0    |  MIDI Event: Chan 8 Note OFF: F#4, Velocity (0 - 127): 64
0    |  MIDI Event: Chan 5 Note OFF: D3, Velocity (0 - 127): 64
0    |  MIDI Event: Chan 1 Note OFF: A3, Velocity (0 - 127): 64
0    |  MIDI Event: Chan 1 Note OFF: F#3, Velocity (0 - 127): 64
0    |  MIDI Event: Chan 5 Note OFF: F#3, Velocity (0 - 127): 64
1    |  MIDI Event: Chan 1 Note ON: B3, Velocity (0 - 127): 58
0    |  MIDI Event: Chan 1 Note ON: D4, Velocity (0 - 127): 91
0    |  MIDI Event: Chan 5 Note ON: B2, Velocity (0 - 127): 85
0    |  MIDI Event: Chan 5 Note ON: F#3, Velocity (0 - 127): 120
0    |  MIDI Event: Chan 8 Note ON: B2, Velocity (0 - 127): 116
0    |  MIDI Event: Chan 8 Note ON: B3, Velocity (0 - 127): 90
0    |  MIDI Event: Chan 8 Note ON: D4, Velocity (0 - 127): 111
0    |  MIDI Event: Chan 8 Note ON: F#4, Velocity (0 - 127): 81
0    |  MIDI Event: Chan 10 Note ON: F#2, Velocity (0 - 127): 115
29   |  MIDI Event: Chan 10 Note OFF: F#2, Velocity (0 - 127): 64
30   |  MIDI Event: Chan 1 Note OFF: B3, Velocity (0 - 127): 64
0    |  MIDI Event: Chan 5 Note OFF: F#3, Velocity (0 - 127): 64
0    |  MIDI Event: Chan 5 Note OFF: B2, Velocity (0 - 127): 64
0    |  MIDI Event: Chan 1 Note OFF: D4, Velocity (0 - 127): 64
1    |  MIDI Event: Chan 1 Note ON: B3, Velocity (0 - 127): 79
0    |  MIDI Event: Chan 1 Note ON: D4, Velocity (0 - 127): 95
0    |  MIDI Event: Chan 1 Note ON: F#4, Velocity (0 - 127): 74
0    |  MIDI Event: Chan 5 Note ON: D3, Velocity (0 - 127): 92
0    |  MIDI Event: Chan 5 Note ON: F#3, Velocity (0 - 127): 87
0    |  MIDI Event: Chan 5 Note ON: D4, Velocity (0 - 127): 95
60   |  MIDI Event: Chan 4 Note ON: B3, Velocity (0 - 127): 116
0    |  MIDI Event: Chan 10 Note ON: F#2, Velocity (0 - 127): 109
0    |  Meta Event: Lyric: Not 
29   |  MIDI Event: Chan 10 Note OFF: F#2, Velocity (0 - 127): 64
0    |  MIDI Event: Chan 5 Note OFF: D4, Velocity (0 - 127): 64
0    |  MIDI Event: Chan 5 Note OFF: D3, Velocity (0 - 127): 64
0    |  MIDI Event: Chan 1 Note OFF: F#4, Velocity (0 - 127): 64
0    |  MIDI Event: Chan 5 Note OFF: F#3, Velocity (0 - 127): 64
0    |  MIDI Event: Chan 4 Note OFF: B3, Velocity (0 - 127): 64
0    |  MIDI Event: Chan 1 Note OFF: B3, Velocity (0 - 127): 64
0    |  MIDI Event: Chan 1 Note OFF: D4, Velocity (0 - 127): 64
1    |  MIDI Event: Chan 1 Note ON: B3, Velocity (0 - 127): 71
0    |  MIDI Event: Chan 1 Note ON: D4, Velocity (0 - 127): 91
0    |  MIDI Event: Chan 1 Note ON: F#4, Velocity (0 - 127): 60
0    |  MIDI Event: Chan 5 Note ON: F#3, Velocity (0 - 127): 109
0    |  MIDI Event: Chan 5 Note ON: B3, Velocity (0 - 127): 95
29   |  MIDI Event: Chan 5 Note OFF: B3, Velocity (0 - 127): 64
0    |  MIDI Event: Chan 5 Note OFF: F#3, Velocity (0 - 127): 64
0    |  MIDI Event: Chan 1 Note OFF: F#4, Velocity (0 - 127): 64
0    |  MIDI Event: Chan 1 Note OFF: B3, Velocity (0 - 127): 64
0    |  MIDI Event: Chan 1 Note OFF: D4, Velocity (0 - 127): 64
1    |  MIDI Event: Chan 1 Note ON: D4, Velocity (0 - 127): 80
0    |  MIDI Event: Chan 1 Note ON: F#4, Velocity (0 - 127): 62
0    |  MIDI Event: Chan 1 Note ON: B4, Velocity (0 - 127): 91
0    |  MIDI Event: Chan 4 Note ON: C#4, Velocity (0 - 127): 119
0    |  MIDI Event: Chan 5 Note ON: D3, Velocity (0 - 127): 103
0    |  MIDI Event: Chan 5 Note ON: F#3, Velocity (0 - 127): 115
0    |  Meta Event: Lyric: af
29   |  MIDI Event: Chan 5 Note OFF: F#3, Velocity (0 - 127): 64
0    |  MIDI Event: Chan 5 Note OFF: D3, Velocity (0 - 127): 64
0    |  MIDI Event: Chan 1 Note OFF: B4, Velocity (0 - 127): 64
0    |  MIDI Event: Chan 4 Note OFF: C#4, Velocity (0 - 127): 64
0    |  MIDI Event: Chan 1 Note OFF: D4, Velocity (0 - 127): 64
0    |  MIDI Event: Chan 1 Note OFF: F#4, Velocity (0 - 127): 64
1    |  MIDI Event: Chan 1 Note ON: B3, Velocity (0 - 127): 51
0    |  MIDI Event: Chan 1 Note ON: D4, Velocity (0 - 127): 85
0    |  MIDI Event: Chan 1 Note ON: F#4, Velocity (0 - 127): 59
0    |  MIDI Event: Chan 4 Note ON: D4, Velocity (0 - 127): 119
0    |  MIDI Event: Chan 5 Note ON: B2, Velocity (0 - 127): 92
0    |  MIDI Event: Chan 5 Note ON: E3, Velocity (0 - 127): 98
0    |  Meta Event: Lyric: raid 
29   |  MIDI Event: Chan 5 Note OFF: E3, Velocity (0 - 127): 64
0    |  MIDI Event: Chan 8 Note OFF: D4, Velocity (0 - 127): 64
0    |  MIDI Event: Chan 8 Note OFF: B3, Velocity (0 - 127): 64
0    |  MIDI Event: Chan 5 Note OFF: B2, Velocity (0 - 127): 64
0    |  MIDI Event: Chan 1 Note OFF: B3, Velocity (0 - 127): 64
0    |  MIDI Event: Chan 8 Note OFF: F#4, Velocity (0 - 127): 64
0    |  MIDI Event: Chan 1 Note OFF: F#4, Velocity (0 - 127): 64
0    |  MIDI Event: Chan 8 Note OFF: B2, Velocity (0 - 127): 64
0    |  MIDI Event: Chan 1 Note OFF: D4, Velocity (0 - 127): 64
1    |  MIDI Event: Chan 1 Note ON: G3, Velocity (0 - 127): 74
0    |  MIDI Event: Chan 1 Note ON: B3, Velocity (0 - 127): 94
0    |  MIDI Event: Chan 1 Note ON: D4, Velocity (0 - 127): 91
0    |  MIDI Event: Chan 5 Note ON: G2, Velocity (0 - 127): 98
0    |  MIDI Event: Chan 5 Note ON: D3, Velocity (0 - 127): 116
0    |  MIDI Event: Chan 8 Note ON: G2, Velocity (0 - 127): 101
0    |  MIDI Event: Chan 8 Note ON: B3, Velocity (0 - 127): 105
0    |  MIDI Event: Chan 8 Note ON: D4, Velocity (0 - 127): 118
0    |  MIDI Event: Chan 8 Note ON: G4, Velocity (0 - 127): 116
0    |  MIDI Event: Chan 10 Note ON: F#2, Velocity (0 - 127): 115
29   |  MIDI Event: Chan 10 Note OFF: F#2, Velocity (0 - 127): 64
0    |  MIDI Event: Chan 4 Note OFF: D4, Velocity (0 - 127): 64
30   |  MIDI Event: Chan 1 Note OFF: D4, Velocity (0 - 127): 64
0    |  MIDI Event: Chan 1 Note OFF: G3, Velocity (0 - 127): 64
0    |  MIDI Event: Chan 5 Note OFF: G2, Velocity (0 - 127): 64
0    |  MIDI Event: Chan 5 Note OFF: D3, Velocity (0 - 127): 64
0    |  MIDI Event: Chan 1 Note OFF: B3, Velocity (0 - 127): 64
1    |  MIDI Event: Chan 1 Note ON: B3, Velocity (0 - 127): 70
0    |  MIDI Event: Chan 1 Note ON: D4, Velocity (0 - 127): 94
0    |  MIDI Event: Chan 1 Note ON: G4, Velocity (0 - 127): 101
0    |  MIDI Event: Chan 4 Note ON: D4, Velocity (0 - 127): 116
0    |  MIDI Event: Chan 5 Note ON: D3, Velocity (0 - 127): 79
0    |  MIDI Event: Chan 5 Note ON: G3, Velocity (0 - 127): 111
0    |  MIDI Event: Chan 5 Note ON: B3, Velocity (0 - 127): 100
0    |  Meta Event: Lyric: to 
29   |  MIDI Event: Chan 4 Note OFF: D4, Velocity (0 - 127): 64
1    |  MIDI Event: Chan 4 Note ON: E4, Velocity (0 - 127): 119
0    |  Meta Event: Lyric: close 
29   |  MIDI Event: Chan 4 Note OFF: E4, Velocity (0 - 127): 64
1    |  MIDI Event: Chan 10 Note ON: F#2, Velocity (0 - 127): 115
29   |  MIDI Event: Chan 10 Note OFF: F#2, Velocity (0 - 127): 64
0    |  MIDI Event: Chan 5 Note OFF: B3, Velocity (0 - 127): 64
0    |  MIDI Event: Chan 5 Note OFF: G3, Velocity (0 - 127): 64
0    |  MIDI Event: Chan 1 Note OFF: G4, Velocity (0 - 127): 64
0    |  MIDI Event: Chan 5 Note OFF: D3, Velocity (0 - 127): 64
0    |  MIDI Event: Chan 1 Note OFF: B3, Velocity (0 - 127): 64
0    |  MIDI Event: Chan 1 Note OFF: D4, Velocity (0 - 127): 64
1    |  MIDI Event: Chan 1 Note ON: B3, Velocity (0 - 127): 52
0    |  MIDI Event: Chan 1 Note ON: D4, Velocity (0 - 127): 85
0    |  MIDI Event: Chan 1 Note ON: G4, Velocity (0 - 127): 94
0    |  MIDI Event: Chan 4 Note ON: E4, Velocity (0 - 127): 105
0    |  MIDI Event: Chan 5 Note ON: D3, Velocity (0 - 127): 82
0    |  MIDI Event: Chan 5 Note ON: G3, Velocity (0 - 127): 98
0    |  MIDI Event: Chan 5 Note ON: B3, Velocity (0 - 127): 85
0    |  Meta Event: Lyric: my 
29   |  MIDI Event: Chan 5 Note OFF: B3, Velocity (0 - 127): 64
0    |  MIDI Event: Chan 1 Note OFF: G4, Velocity (0 - 127): 64
0    |  MIDI Event: Chan 5 Note OFF: G3, Velocity (0 - 127): 64
0    |  MIDI Event: Chan 5 Note OFF: D3, Velocity (0 - 127): 64
0    |  MIDI Event: Chan 1 Note OFF: D4, Velocity (0 - 127): 64
0    |  MIDI Event: Chan 1 Note OFF: B3, Velocity (0 - 127): 64
1    |  MIDI Event: Chan 1 Note ON: D4, Velocity (0 - 127): 78
0    |  MIDI Event: Chan 1 Note ON: G4, Velocity (0 - 127): 100
0    |  MIDI Event: Chan 1 Note ON: B4, Velocity (0 - 127): 46
0    |  MIDI Event: Chan 5 Note ON: G2, Velocity (0 - 127): 109
0    |  MIDI Event: Chan 5 Note ON: D3, Velocity (0 - 127): 109
29   |  MIDI Event: Chan 5 Note OFF: D3, Velocity (0 - 127): 64
0    |  MIDI Event: Chan 5 Note OFF: G2, Velocity (0 - 127): 64
0    |  MIDI Event: Chan 1 Note OFF: G4, Velocity (0 - 127): 64
0    |  MIDI Event: Chan 1 Note OFF: B4, Velocity (0 - 127): 64
0    |  MIDI Event: Chan 1 Note OFF: D4, Velocity (0 - 127): 64
1    |  MIDI Event: Chan 1 Note ON: B3, Velocity (0 - 127): 45
0    |  MIDI Event: Chan 1 Note ON: D4, Velocity (0 - 127): 73
0    |  MIDI Event: Chan 1 Note ON: G4, Velocity (0 - 127): 86
0    |  MIDI Event: Chan 5 Note ON: G2, Velocity (0 - 127): 101
0    |  MIDI Event: Chan 5 Note ON: E3, Velocity (0 - 127): 116
29   |  MIDI Event: Chan 5 Note OFF: E3, Velocity (0 - 127): 64
0    |  MIDI Event: Chan 8 Note OFF: D4, Velocity (0 - 127): 64
0    |  MIDI Event: Chan 4 Note OFF: E4, Velocity (0 - 127): 64
0    |  MIDI Event: Chan 8 Note OFF: G4, Velocity (0 - 127): 64
0    |  MIDI Event: Chan 8 Note OFF: B3, Velocity (0 - 127): 64
0    |  MIDI Event: Chan 8 Note OFF: G2, Velocity (0 - 127): 64
0    |  MIDI Event: Chan 1 Note OFF: G4, Velocity (0 - 127): 64
0    |  MIDI Event: Chan 1 Note OFF: D4, Velocity (0 - 127): 64
0    |  MIDI Event: Chan 1 Note OFF: B3, Velocity (0 - 127): 64
0    |  MIDI Event: Chan 5 Note OFF: G2, Velocity (0 - 127): 64
1    |  MIDI Event: Chan 1 Note ON: F#3, Velocity (0 - 127): 35
0    |  MIDI Event: Chan 1 Note ON: A3, Velocity (0 - 127): 85
0    |  MIDI Event: Chan 1 Note ON: D4, Velocity (0 - 127): 79
0    |  MIDI Event: Chan 4 Note ON: A3, Velocity (0 - 127): 119
0    |  MIDI Event: Chan 5 Note ON: A2, Velocity (0 - 127): 90
0    |  MIDI Event: Chan 5 Note ON: D3, Velocity (0 - 127): 105
0    |  MIDI Event: Chan 8 Note ON: D2, Velocity (0 - 127): 111
0    |  MIDI Event: Chan 8 Note ON: A3, Velocity (0 - 127): 116
0    |  MIDI Event: Chan 8 Note ON: D4, Velocity (0 - 127): 118
0    |  MIDI Event: Chan 8 Note ON: F#4, Velocity (0 - 127): 109
0    |  MIDI Event: Chan 10 Note ON: F#2, Velocity (0 - 127): 120
0    |  Meta Event: Lyric: eyes 
0    |  Meta Event: Lyric: 
29   |  MIDI Event: Chan 10 Note OFF: F#2, Velocity (0 - 127): 64
30   |  MIDI Event: Chan 1 Note OFF: F#3, Velocity (0 - 127): 64
0    |  MIDI Event: Chan 5 Note OFF: D3, Velocity (0 - 127): 64
0    |  MIDI Event: Chan 1 Note OFF: D4, Velocity (0 - 127): 64
0    |  MIDI Event: Chan 5 Note OFF: A2, Velocity (0 - 127): 64
0    |  MIDI Event: Chan 1 Note OFF: A3, Velocity (0 - 127): 64
1    |  MIDI Event: Chan 1 Note ON: A3, Velocity (0 - 127): 69
0    |  MIDI Event: Chan 1 Note ON: D4, Velocity (0 - 127): 98
0    |  MIDI Event: Chan 1 Note ON: F#4, Velocity (0 - 127): 74
0    |  MIDI Event: Chan 5 Note ON: A2, Velocity (0 - 127): 100
0    |  MIDI Event: Chan 5 Note ON: D3, Velocity (0 - 127): 111
0    |  MIDI Event: Chan 5 Note ON: F#3, Velocity (0 - 127): 89
60   |  MIDI Event: Chan 10 Note ON: F#2, Velocity (0 - 127): 119
29   |  MIDI Event: Chan 10 Note OFF: F#2, Velocity (0 - 127): 64
0    |  MIDI Event: Chan 5 Note OFF: D3, Velocity (0 - 127): 64
0    |  MIDI Event: Chan 1 Note OFF: F#4, Velocity (0 - 127): 64
0    |  MIDI Event: Chan 1 Note OFF: D4, Velocity (0 - 127): 64
0    |  MIDI Event: Chan 5 Note OFF: A2, Velocity (0 - 127): 64
0    |  MIDI Event: Chan 5 Note OFF: F#3, Velocity (0 - 127): 64
0    |  MIDI Event: Chan 1 Note OFF: A3, Velocity (0 - 127): 64
1    |  MIDI Event: Chan 1 Note ON: F#3, Velocity (0 - 127): 44
0    |  MIDI Event: Chan 1 Note ON: A3, Velocity (0 - 127): 78
0    |  MIDI Event: Chan 1 Note ON: D4, Velocity (0 - 127): 58
0    |  MIDI Event: Chan 5 Note ON: A2, Velocity (0 - 127): 85
0    |  MIDI Event: Chan 5 Note ON: D3, Velocity (0 - 127): 105
0    |  MIDI Event: Chan 5 Note ON: F#3, Velocity (0 - 127): 81
29   |  MIDI Event: Chan 5 Note OFF: F#3, Velocity (0 - 127): 64
0    |  MIDI Event: Chan 1 Note OFF: D4, Velocity (0 - 127): 64
0    |  MIDI Event: Chan 5 Note OFF: D3, Velocity (0 - 127): 64
0    |  MIDI Event: Chan 1 Note OFF: A3, Velocity (0 - 127): 64
0    |  MIDI Event: Chan 5 Note OFF: A2, Velocity (0 - 127): 64
0    |  MIDI Event: Chan 1 Note OFF: F#3, Velocity (0 - 127): 64
1    |  MIDI Event: Chan 1 Note ON: A3, Velocity (0 - 127): 57
0    |  MIDI Event: Chan 1 Note ON: D4, Velocity (0 - 127): 91
0    |  MIDI Event: Chan 1 Note ON: F#4, Velocity (0 - 127): 77
0    |  MIDI Event: Chan 5 Note ON: D3, Velocity (0 - 127): 109
0    |  MIDI Event: Chan 5 Note ON: F#3, Velocity (0 - 127): 89
0    |  MIDI Event: Chan 5 Note ON: A3, Velocity (0 - 127): 109
29   |  MIDI Event: Chan 5 Note OFF: A3, Velocity (0 - 127): 64
0    |  MIDI Event: Chan 1 Note OFF: F#4, Velocity (0 - 127): 64
0    |  MIDI Event: Chan 5 Note OFF: F#3, Velocity (0 - 127): 64
0    |  MIDI Event: Chan 1 Note OFF: D4, Velocity (0 - 127): 64
0    |  MIDI Event: Chan 5 Note OFF: D3, Velocity (0 - 127): 64
0    |  MIDI Event: Chan 1 Note OFF: A3, Velocity (0 - 127): 64
1    |  MIDI Event: Chan 1 Note ON: F#3, Velocity (0 - 127): 35
0    |  MIDI Event: Chan 1 Note ON: A3, Velocity (0 - 127): 79
0    |  MIDI Event: Chan 1 Note ON: D4, Velocity (0 - 127): 56
0    |  MIDI Event: Chan 5 Note ON: D3, Velocity (0 - 127): 111
0    |  MIDI Event: Chan 5 Note ON: F#3, Velocity (0 - 127): 100
0    |  MIDI Event: Chan 5 Note ON: A3, Velocity (0 - 127): 100
29   |  MIDI Event: Chan 5 Note OFF: A3, Velocity (0 - 127): 64
0    |  MIDI Event: Chan 1 Note OFF: D4, Velocity (0 - 127): 64
0    |  MIDI Event: Chan 5 Note OFF: F#3, Velocity (0 - 127): 64
0    |  MIDI Event: Chan 1 Note OFF: A3, Velocity (0 - 127): 64
0    |  MIDI Event: Chan 5 Note OFF: D3, Velocity (0 - 127): 64
0    |  MIDI Event: Chan 4 Note OFF: A3, Velocity (0 - 127): 64
0    |  MIDI Event: Chan 1 Note OFF: F#3, Velocity (0 - 127): 64
1    |  MIDI Event: Chan 1 Note ON: F#3, Velocity (0 - 127): 35
0    |  MIDI Event: Chan 1 Note ON: A3, Velocity (0 - 127): 85
0    |  MIDI Event: Chan 1 Note ON: D4, Velocity (0 - 127): 79
0    |  MIDI Event: Chan 5 Note ON: A2, Velocity (0 - 127): 90
0    |  MIDI Event: Chan 5 Note ON: D3, Velocity (0 - 127): 105
0    |  MIDI Event: Chan 10 Note ON: F#2, Velocity (0 - 127): 115
29   |  MIDI Event: Chan 10 Note OFF: F#2, Velocity (0 - 127): 64
30   |  MIDI Event: Chan 5 Note OFF: D3, Velocity (0 - 127): 64
0    |  MIDI Event: Chan 1 Note OFF: D4, Velocity (0 - 127): 64
0    |  MIDI Event: Chan 5 Note OFF: A2, Velocity (0 - 127): 64
0    |  MIDI Event: Chan 1 Note OFF: F#3, Velocity (0 - 127): 64
0    |  MIDI Event: Chan 1 Note OFF: A3, Velocity (0 - 127): 64
1    |  MIDI Event: Chan 1 Note ON: A3, Velocity (0 - 127): 69
0    |  MIDI Event: Chan 1 Note ON: D4, Velocity (0 - 127): 98
0    |  MIDI Event: Chan 1 Note ON: F#4, Velocity (0 - 127): 74
0    |  MIDI Event: Chan 5 Note ON: A2, Velocity (0 - 127): 100
0    |  MIDI Event: Chan 5 Note ON: D3, Velocity (0 - 127): 111
0    |  MIDI Event: Chan 5 Note ON: F#3, Velocity (0 - 127): 89
60   |  MIDI Event: Chan 10 Note ON: F#2, Velocity (0 - 127): 120
29   |  MIDI Event: Chan 10 Note OFF: F#2, Velocity (0 - 127): 64
0    |  MIDI Event: Chan 5 Note OFF: A2, Velocity (0 - 127): 64
0    |  MIDI Event: Chan 5 Note OFF: F#3, Velocity (0 - 127): 64
0    |  MIDI Event: Chan 1 Note OFF: F#4, Velocity (0 - 127): 64
0    |  MIDI Event: Chan 5 Note OFF: D3, Velocity (0 - 127): 64
0    |  MIDI Event: Chan 1 Note OFF: A3, Velocity (0 - 127): 64
0    |  MIDI Event: Chan 1 Note OFF: D4, Velocity (0 - 127): 64
1    |  MIDI Event: Chan 1 Note ON: F#3, Velocity (0 - 127): 44
0    |  MIDI Event: Chan 1 Note ON: A3, Velocity (0 - 127): 78
0    |  MIDI Event: Chan 1 Note ON: D4, Velocity (0 - 127): 58
0    |  MIDI Event: Chan 5 Note ON: A2, Velocity (0 - 127): 85
0    |  MIDI Event: Chan 5 Note ON: D3, Velocity (0 - 127): 105
0    |  MIDI Event: Chan 5 Note ON: F#3, Velocity (0 - 127): 81
29   |  MIDI Event: Chan 5 Note OFF: F#3, Velocity (0 - 127): 64
0    |  MIDI Event: Chan 5 Note OFF: D3, Velocity (0 - 127): 64
0    |  MIDI Event: Chan 1 Note OFF: D4, Velocity (0 - 127): 64
0    |  MIDI Event: Chan 5 Note OFF: A2, Velocity (0 - 127): 64
0    |  MIDI Event: Chan 1 Note OFF: F#3, Velocity (0 - 127): 64
0    |  MIDI Event: Chan 1 Note OFF: A3, Velocity (0 - 127): 64
1    |  MIDI Event: Chan 1 Note ON: A3, Velocity (0 - 127): 57
0    |  MIDI Event: Chan 1 Note ON: D4, Velocity (0 - 127): 91
0    |  MIDI Event: Chan 1 Note ON: F#4, Velocity (0 - 127): 77
0    |  MIDI Event: Chan 5 Note ON: D3, Velocity (0 - 127): 109
0    |  MIDI Event: Chan 5 Note ON: F#3, Velocity (0 - 127): 89
0    |  MIDI Event: Chan 5 Note ON: A3, Velocity (0 - 127): 109
29   |  MIDI Event: Chan 5 Note OFF: A3, Velocity (0 - 127): 64
0    |  MIDI Event: Chan 5 Note OFF: F#3, Velocity (0 - 127): 64
0    |  MIDI Event: Chan 1 Note OFF: F#4, Velocity (0 - 127): 64
0    |  MIDI Event: Chan 5 Note OFF: D3, Velocity (0 - 127): 64
0    |  MIDI Event: Chan 1 Note OFF: A3, Velocity (0 - 127): 64
0    |  MIDI Event: Chan 1 Note OFF: D4, Velocity (0 - 127): 64
1    |  MIDI Event: Chan 1 Note ON: F#3, Velocity (0 - 127): 35
0    |  MIDI Event: Chan 1 Note ON: A3, Velocity (0 - 127): 79
0    |  MIDI Event: Chan 1 Note ON: D4, Velocity (0 - 127): 56
0    |  MIDI Event: Chan 5 Note ON: D3, Velocity (0 - 127): 111
0    |  MIDI Event: Chan 5 Note ON: F#3, Velocity (0 - 127): 100
0    |  MIDI Event: Chan 5 Note ON: A3, Velocity (0 - 127): 100
29   |  MIDI Event: Chan 5 Note OFF: A3, Velocity (0 - 127): 64
0    |  MIDI Event: Chan 8 Note OFF: A3, Velocity (0 - 127): 64
0    |  MIDI Event: Chan 8 Note OFF: F#4, Velocity (0 - 127): 64
0    |  MIDI Event: Chan 8 Note OFF: D2, Velocity (0 - 127): 64
0    |  MIDI Event: Chan 1 Note OFF: F#3, Velocity (0 - 127): 64
0    |  MIDI Event: Chan 8 Note OFF: D4, Velocity (0 - 127): 64
0    |  MIDI Event: Chan 5 Note OFF: D3, Velocity (0 - 127): 64
0    |  MIDI Event: Chan 1 Note OFF: D4, Velocity (0 - 127): 64
0    |  MIDI Event: Chan 1 Note OFF: A3, Velocity (0 - 127): 64
0    |  MIDI Event: Chan 5 Note OFF: F#3, Velocity (0 - 127): 64
1    |  MIDI Event: Chan 1 Note ON: B3, Velocity (0 - 127): 58
0    |  MIDI Event: Chan 1 Note ON: D4, Velocity (0 - 127): 91
0    |  MIDI Event: Chan 5 Note ON: B2, Velocity (0 - 127): 85
0    |  MIDI Event: Chan 5 Note ON: F#3, Velocity (0 - 127): 120
0    |  MIDI Event: Chan 8 Note ON: B2, Velocity (0 - 127): 111
0    |  MIDI Event: Chan 8 Note ON: B3, Velocity (0 - 127): 105
0    |  MIDI Event: Chan 8 Note ON: D4, Velocity (0 - 127): 119
0    |  MIDI Event: Chan 8 Note ON: F#4, Velocity (0 - 127): 89
0    |  MIDI Event: Chan 10 Note ON: F#2, Velocity (0 - 127): 119
29   |  MIDI Event: Chan 10 Note OFF: F#2, Velocity (0 - 127): 64
30   |  MIDI Event: Chan 1 Note OFF: B3, Velocity (0 - 127): 64
0    |  MIDI Event: Chan 5 Note OFF: F#3, Velocity (0 - 127): 64
0    |  MIDI Event: Chan 5 Note OFF: B2, Velocity (0 - 127): 64
0    |  MIDI Event: Chan 1 Note OFF: D4, Velocity (0 - 127): 64
1    |  MIDI Event: Chan 1 Note ON: B3, Velocity (0 - 127): 79
0    |  MIDI Event: Chan 1 Note ON: D4, Velocity (0 - 127): 95
0    |  MIDI Event: Chan 1 Note ON: F#4, Velocity (0 - 127): 74
0    |  MIDI Event: Chan 5 Note ON: D3, Velocity (0 - 127): 92
0    |  MIDI Event: Chan 5 Note ON: F#3, Velocity (0 - 127): 87
0    |  MIDI Event: Chan 5 Note ON: D4, Velocity (0 - 127): 95
60   |  MIDI Event: Chan 4 Note ON: B3, Velocity (0 - 127): 120
0    |  MIDI Event: Chan 10 Note ON: F#2, Velocity (0 - 127): 119
0    |  Meta Event: Lyric: Life's 
29   |  MIDI Event: Chan 10 Note OFF: F#2, Velocity (0 - 127): 64
0    |  MIDI Event: Chan 5 Note OFF: D4, Velocity (0 - 127): 64
0    |  MIDI Event: Chan 5 Note OFF: D3, Velocity (0 - 127): 64
0    |  MIDI Event: Chan 1 Note OFF: F#4, Velocity (0 - 127): 64
0    |  MIDI Event: Chan 5 Note OFF: F#3, Velocity (0 - 127): 64
0    |  MIDI Event: Chan 4 Note OFF: B3, Velocity (0 - 127): 64
0    |  MIDI Event: Chan 1 Note OFF: B3, Velocity (0 - 127): 64
0    |  MIDI Event: Chan 1 Note OFF: D4, Velocity (0 - 127): 64
1    |  MIDI Event: Chan 1 Note ON: B3, Velocity (0 - 127): 71
0    |  MIDI Event: Chan 1 Note ON: D4, Velocity (0 - 127): 91
0    |  MIDI Event: Chan 1 Note ON: F#4, Velocity (0 - 127): 60
0    |  MIDI Event: Chan 5 Note ON: F#3, Velocity (0 - 127): 109
0    |  MIDI Event: Chan 5 Note ON: B3, Velocity (0 - 127): 95
29   |  MIDI Event: Chan 5 Note OFF: B3, Velocity (0 - 127): 64
0    |  MIDI Event: Chan 5 Note OFF: F#3, Velocity (0 - 127): 64
0    |  MIDI Event: Chan 1 Note OFF: F#4, Velocity (0 - 127): 64
0    |  MIDI Event: Chan 1 Note OFF: B3, Velocity (0 - 127): 64
0    |  MIDI Event: Chan 1 Note OFF: D4, Velocity (0 - 127): 64
1    |  MIDI Event: Chan 1 Note ON: D4, Velocity (0 - 127): 80
0    |  MIDI Event: Chan 1 Note ON: F#4, Velocity (0 - 127): 62
0    |  MIDI Event: Chan 1 Note ON: B4, Velocity (0 - 127): 91
0    |  MIDI Event: Chan 4 Note ON: C#4, Velocity (0 - 127): 115
0    |  MIDI Event: Chan 5 Note ON: D3, Velocity (0 - 127): 103
0    |  MIDI Event: Chan 5 Note ON: F#3, Velocity (0 - 127): 115
0    |  Meta Event: Lyric: a 
29   |  MIDI Event: Chan 5 Note OFF: F#3, Velocity (0 - 127): 64
0    |  MIDI Event: Chan 5 Note OFF: D3, Velocity (0 - 127): 64
0    |  MIDI Event: Chan 1 Note OFF: B4, Velocity (0 - 127): 64
0    |  MIDI Event: Chan 4 Note OFF: C#4, Velocity (0 - 127): 64
0    |  MIDI Event: Chan 1 Note OFF: D4, Velocity (0 - 127): 64
0    |  MIDI Event: Chan 1 Note OFF: F#4, Velocity (0 - 127): 64
1    |  MIDI Event: Chan 1 Note ON: B3, Velocity (0 - 127): 51
0    |  MIDI Event: Chan 1 Note ON: D4, Velocity (0 - 127): 85
0    |  MIDI Event: Chan 1 Note ON: F#4, Velocity (0 - 127): 59
0    |  MIDI Event: Chan 4 Note ON: D4, Velocity (0 - 127): 116
0    |  MIDI Event: Chan 5 Note ON: B2, Velocity (0 - 127): 92
0    |  MIDI Event: Chan 5 Note ON: E3, Velocity (0 - 127): 98
0    |  Meta Event: Lyric: game, 
29   |  MIDI Event: Chan 5 Note OFF: E3, Velocity (0 - 127): 64
0    |  MIDI Event: Chan 8 Note OFF: D4, Velocity (0 - 127): 64
0    |  MIDI Event: Chan 8 Note OFF: B3, Velocity (0 - 127): 64
0    |  MIDI Event: Chan 5 Note OFF: B2, Velocity (0 - 127): 64
0    |  MIDI Event: Chan 1 Note OFF: B3, Velocity (0 - 127): 64
0    |  MIDI Event: Chan 8 Note OFF: F#4, Velocity (0 - 127): 64
0    |  MIDI Event: Chan 1 Note OFF: F#4, Velocity (0 - 127): 64
0    |  MIDI Event: Chan 8 Note OFF: B2, Velocity (0 - 127): 64
0    |  MIDI Event: Chan 1 Note OFF: D4, Velocity (0 - 127): 64
1    |  MIDI Event: Chan 1 Note ON: G3, Velocity (0 - 127): 74
0    |  MIDI Event: Chan 1 Note ON: B3, Velocity (0 - 127): 94
0    |  MIDI Event: Chan 1 Note ON: D4, Velocity (0 - 127): 91
0    |  MIDI Event: Chan 5 Note ON: G2, Velocity (0 - 127): 98
0    |  MIDI Event: Chan 5 Note ON: D3, Velocity (0 - 127): 116
0    |  MIDI Event: Chan 8 Note ON: G2, Velocity (0 - 127): 116
0    |  MIDI Event: Chan 8 Note ON: B3, Velocity (0 - 127): 105
0    |  MIDI Event: Chan 8 Note ON: D4, Velocity (0 - 127): 116
0    |  MIDI Event: Chan 8 Note ON: G4, Velocity (0 - 127): 118
0    |  MIDI Event: Chan 10 Note ON: F#2, Velocity (0 - 127): 119
29   |  MIDI Event: Chan 10 Note OFF: F#2, Velocity (0 - 127): 64
30   |  MIDI Event: Chan 1 Note OFF: B3, Velocity (0 - 127): 64
0    |  MIDI Event: Chan 5 Note OFF: D3, Velocity (0 - 127): 64
0    |  MIDI Event: Chan 4 Note OFF: D4, Velocity (0 - 127): 64
0    |  MIDI Event: Chan 1 Note OFF: D4, Velocity (0 - 127): 64
0    |  MIDI Event: Chan 5 Note OFF: G2, Velocity (0 - 127): 64
0    |  MIDI Event: Chan 1 Note OFF: G3, Velocity (0 - 127): 64
1    |  MIDI Event: Chan 1 Note ON: B3, Velocity (0 - 127): 70
0    |  MIDI Event: Chan 1 Note ON: D4, Velocity (0 - 127): 94
0    |  MIDI Event: Chan 1 Note ON: G4, Velocity (0 - 127): 101
0    |  MIDI Event: Chan 5 Note ON: D3, Velocity (0 - 127): 79
0    |  MIDI Event: Chan 5 Note ON: G3, Velocity (0 - 127): 111
0    |  MIDI Event: Chan 5 Note ON: B3, Velocity (0 - 127): 100
30   |  MIDI Event: Chan 4 Note ON: C#4, Velocity (0 - 127): 119
0    |  Meta Event: Lyric: made 
30   |  MIDI Event: Chan 10 Note ON: F#2, Velocity (0 - 127): 119
29   |  MIDI Event: Chan 10 Note OFF: F#2, Velocity (0 - 127): 64
0    |  MIDI Event: Chan 5 Note OFF: B3, Velocity (0 - 127): 64
0    |  MIDI Event: Chan 5 Note OFF: D3, Velocity (0 - 127): 64
0    |  MIDI Event: Chan 1 Note OFF: G4, Velocity (0 - 127): 64
0    |  MIDI Event: Chan 5 Note OFF: G3, Velocity (0 - 127): 64
0    |  MIDI Event: Chan 4 Note OFF: C#4, Velocity (0 - 127): 64
0    |  MIDI Event: Chan 1 Note OFF: B3, Velocity (0 - 127): 64
0    |  MIDI Event: Chan 1 Note OFF: D4, Velocity (0 - 127): 64
1    |  MIDI Event: Chan 1 Note ON: B3, Velocity (0 - 127): 52
0    |  MIDI Event: Chan 1 Note ON: D4, Velocity (0 - 127): 85
0    |  MIDI Event: Chan 1 Note ON: G4, Velocity (0 - 127): 94
0    |  MIDI Event: Chan 5 Note ON: D3, Velocity (0 - 127): 82
0    |  MIDI Event: Chan 5 Note ON: G3, Velocity (0 - 127): 98
0    |  MIDI Event: Chan 5 Note ON: B3, Velocity (0 - 127): 85
29   |  MIDI Event: Chan 5 Note OFF: B3, Velocity (0 - 127): 64
0    |  MIDI Event: Chan 5 Note OFF: G3, Velocity (0 - 127): 64
0    |  MIDI Event: Chan 1 Note OFF: G4, Velocity (0 - 127): 64
0    |  MIDI Event: Chan 5 Note OFF: D3, Velocity (0 - 127): 64
0    |  MIDI Event: Chan 1 Note OFF: B3, Velocity (0 - 127): 64
0    |  MIDI Event: Chan 1 Note OFF: D4, Velocity (0 - 127): 64
1    |  MIDI Event: Chan 1 Note ON: D4, Velocity (0 - 127): 78
0    |  MIDI Event: Chan 1 Note ON: G4, Velocity (0 - 127): 100
0    |  MIDI Event: Chan 1 Note ON: B4, Velocity (0 - 127): 46
0    |  MIDI Event: Chan 4 Note ON: B3, Velocity (0 - 127): 111
0    |  MIDI Event: Chan 5 Note ON: G2, Velocity (0 - 127): 109
0    |  MIDI Event: Chan 5 Note ON: D3, Velocity (0 - 127): 109
0    |  Meta Event: Lyric: for 
29   |  MIDI Event: Chan 5 Note OFF: D3, Velocity (0 - 127): 64
0    |  MIDI Event: Chan 5 Note OFF: G2, Velocity (0 - 127): 64
0    |  MIDI Event: Chan 1 Note OFF: B4, Velocity (0 - 127): 64
0    |  MIDI Event: Chan 4 Note OFF: B3, Velocity (0 - 127): 64
0    |  MIDI Event: Chan 1 Note OFF: D4, Velocity (0 - 127): 64
0    |  MIDI Event: Chan 1 Note OFF: G4, Velocity (0 - 127): 64
1    |  MIDI Event: Chan 1 Note ON: B3, Velocity (0 - 127): 45
0    |  MIDI Event: Chan 1 Note ON: D4, Velocity (0 - 127): 73
0    |  MIDI Event: Chan 1 Note ON: G4, Velocity (0 - 127): 86
0    |  MIDI Event: Chan 5 Note ON: G2, Velocity (0 - 127): 101
0    |  MIDI Event: Chan 5 Note ON: E3, Velocity (0 - 127): 116
29   |  MIDI Event: Chan 5 Note OFF: E3, Velocity (0 - 127): 64
0    |  MIDI Event: Chan 8 Note OFF: B3, Velocity (0 - 127): 64
0    |  MIDI Event: Chan 8 Note OFF: G2, Velocity (0 - 127): 64
0    |  MIDI Event: Chan 1 Note OFF: B3, Velocity (0 - 127): 64
0    |  MIDI Event: Chan 8 Note OFF: G4, Velocity (0 - 127): 64
0    |  MIDI Event: Chan 8 Note OFF: D4, Velocity (0 - 127): 64
0    |  MIDI Event: Chan 1 Note OFF: G4, Velocity (0 - 127): 64
0    |  MIDI Event: Chan 1 Note OFF: D4, Velocity (0 - 127): 64
0    |  MIDI Event: Chan 5 Note OFF: G2, Velocity (0 - 127): 64
1    |  MIDI Event: Chan 1 Note ON: F#3, Velocity (0 - 127): 35
0    |  MIDI Event: Chan 1 Note ON: A3, Velocity (0 - 127): 85
0    |  MIDI Event: Chan 1 Note ON: D4, Velocity (0 - 127): 79
0    |  MIDI Event: Chan 4 Note ON: A3, Velocity (0 - 127): 116
0    |  MIDI Event: Chan 5 Note ON: A2, Velocity (0 - 127): 90
0    |  MIDI Event: Chan 5 Note ON: D3, Velocity (0 - 127): 105
0    |  MIDI Event: Chan 8 Note ON: D2, Velocity (0 - 127): 101
0    |  MIDI Event: Chan 8 Note ON: A3, Velocity (0 - 127): 109
0    |  MIDI Event: Chan 8 Note ON: D4, Velocity (0 - 127): 113
0    |  MIDI Event: Chan 8 Note ON: F#4, Velocity (0 - 127): 104
0    |  MIDI Event: Chan 10 Note ON: F#2, Velocity (0 - 127): 120
0    |  Meta Event: Lyric: eve
29   |  MIDI Event: Chan 10 Note OFF: F#2, Velocity (0 - 127): 64
30   |  MIDI Event: Chan 1 Note OFF: F#3, Velocity (0 - 127): 64
0    |  MIDI Event: Chan 5 Note OFF: D3, Velocity (0 - 127): 64
0    |  MIDI Event: Chan 1 Note OFF: D4, Velocity (0 - 127): 64
0    |  MIDI Event: Chan 5 Note OFF: A2, Velocity (0 - 127): 64
0    |  MIDI Event: Chan 1 Note OFF: A3, Velocity (0 - 127): 64
1    |  MIDI Event: Chan 1 Note ON: A3, Velocity (0 - 127): 69
0    |  MIDI Event: Chan 1 Note ON: D4, Velocity (0 - 127): 98
0    |  MIDI Event: Chan 1 Note ON: F#4, Velocity (0 - 127): 74
0    |  MIDI Event: Chan 5 Note ON: A2, Velocity (0 - 127): 100
0    |  MIDI Event: Chan 5 Note ON: D3, Velocity (0 - 127): 111
0    |  MIDI Event: Chan 5 Note ON: F#3, Velocity (0 - 127): 89
59   |  MIDI Event: Chan 4 Note OFF: A3, Velocity (0 - 127): 64
1    |  MIDI Event: Chan 4 Note ON: F#3, Velocity (0 - 127): 120
0    |  MIDI Event: Chan 10 Note ON: F#2, Velocity (0 - 127): 120
0    |  Meta Event: Lyric: ry
29   |  MIDI Event: Chan 10 Note OFF: F#2, Velocity (0 - 127): 64
0    |  MIDI Event: Chan 5 Note OFF: F#3, Velocity (0 - 127): 64
0    |  MIDI Event: Chan 1 Note OFF: F#4, Velocity (0 - 127): 64
0    |  MIDI Event: Chan 5 Note OFF: D3, Velocity (0 - 127): 64
0    |  MIDI Event: Chan 5 Note OFF: A2, Velocity (0 - 127): 64
0    |  MIDI Event: Chan 1 Note OFF: D4, Velocity (0 - 127): 64
0    |  MIDI Event: Chan 1 Note OFF: A3, Velocity (0 - 127): 64
1    |  MIDI Event: Chan 1 Note ON: F#3, Velocity (0 - 127): 44
0    |  MIDI Event: Chan 1 Note ON: A3, Velocity (0 - 127): 78
0    |  MIDI Event: Chan 1 Note ON: D4, Velocity (0 - 127): 58
0    |  MIDI Event: Chan 5 Note ON: A2, Velocity (0 - 127): 85
0    |  MIDI Event: Chan 5 Note ON: D3, Velocity (0 - 127): 105
0    |  MIDI Event: Chan 5 Note ON: F#3, Velocity (0 - 127): 81
29   |  MIDI Event: Chan 5 Note OFF: F#3, Velocity (0 - 127): 64
0    |  MIDI Event: Chan 1 Note OFF: D4, Velocity (0 - 127): 64
0    |  MIDI Event: Chan 5 Note OFF: D3, Velocity (0 - 127): 64
0    |  MIDI Event: Chan 1 Note OFF: A3, Velocity (0 - 127): 64
0    |  MIDI Event: Chan 5 Note OFF: A2, Velocity (0 - 127): 64
0    |  MIDI Event: Chan 4 Note OFF: F#3, Velocity (0 - 127): 64
0    |  MIDI Event: Chan 1 Note OFF: F#3, Velocity (0 - 127): 64
1    |  MIDI Event: Chan 1 Note ON: A3, Velocity (0 - 127): 57
0    |  MIDI Event: Chan 1 Note ON: D4, Velocity (0 - 127): 91
0    |  MIDI Event: Chan 1 Note ON: F#4, Velocity (0 - 127): 77
0    |  MIDI Event: Chan 4 Note ON: E3, Velocity (0 - 127): 103
0    |  MIDI Event: Chan 5 Note ON: D3, Velocity (0 - 127): 109
0    |  MIDI Event: Chan 5 Note ON: F#3, Velocity (0 - 127): 89
0    |  MIDI Event: Chan 5 Note ON: A3, Velocity (0 - 127): 109
29   |  MIDI Event: Chan 5 Note OFF: A3, Velocity (0 - 127): 64
0    |  MIDI Event: Chan 1 Note OFF: F#4, Velocity (0 - 127): 64
0    |  MIDI Event: Chan 5 Note OFF: F#3, Velocity (0 - 127): 64
0    |  MIDI Event: Chan 5 Note OFF: D3, Velocity (0 - 127): 64
0    |  MIDI Event: Chan 1 Note OFF: D4, Velocity (0 - 127): 64
0    |  MIDI Event: Chan 1 Note OFF: A3, Velocity (0 - 127): 64
1    |  MIDI Event: Chan 1 Note ON: F#3, Velocity (0 - 127): 35
0    |  MIDI Event: Chan 1 Note ON: A3, Velocity (0 - 127): 79
0    |  MIDI Event: Chan 1 Note ON: D4, Velocity (0 - 127): 56
0    |  MIDI Event: Chan 5 Note ON: D3, Velocity (0 - 127): 111
0    |  MIDI Event: Chan 5 Note ON: F#3, Velocity (0 - 127): 100
0    |  MIDI Event: Chan 5 Note ON: A3, Velocity (0 - 127): 100
29   |  MIDI Event: Chan 5 Note OFF: A3, Velocity (0 - 127): 64
0    |  MIDI Event: Chan 1 Note OFF: D4, Velocity (0 - 127): 64
0    |  MIDI Event: Chan 5 Note OFF: F#3, Velocity (0 - 127): 64
0    |  MIDI Event: Chan 1 Note OFF: A3, Velocity (0 - 127): 64
0    |  MIDI Event: Chan 5 Note OFF: D3, Velocity (0 - 127): 64
0    |  MIDI Event: Chan 4 Note OFF: E3, Velocity (0 - 127): 64
0    |  MIDI Event: Chan 1 Note OFF: F#3, Velocity (0 - 127): 64
1    |  MIDI Event: Chan 1 Note ON: F#3, Velocity (0 - 127): 35
0    |  MIDI Event: Chan 1 Note ON: A3, Velocity (0 - 127): 85
0    |  MIDI Event: Chan 1 Note ON: D4, Velocity (0 - 127): 79
0    |  MIDI Event: Chan 4 Note ON: D3, Velocity (0 - 127): 119
0    |  MIDI Event: Chan 5 Note ON: A2, Velocity (0 - 127): 90
0    |  MIDI Event: Chan 5 Note ON: D3, Velocity (0 - 127): 105
0    |  MIDI Event: Chan 10 Note ON: F#2, Velocity (0 - 127): 119
0    |  Meta Event: Lyric: one 
0    |  Meta Event: Lyric: 
29   |  MIDI Event: Chan 10 Note OFF: F#2, Velocity (0 - 127): 64
30   |  MIDI Event: Chan 1 Note OFF: D4, Velocity (0 - 127): 64
0    |  MIDI Event: Chan 5 Note OFF: D3, Velocity (0 - 127): 64
0    |  MIDI Event: Chan 5 Note OFF: A2, Velocity (0 - 127): 64
0    |  MIDI Event: Chan 1 Note OFF: A3, Velocity (0 - 127): 64
0    |  MIDI Event: Chan 1 Note OFF: F#3, Velocity (0 - 127): 64
1    |  MIDI Event: Chan 1 Note ON: A3, Velocity (0 - 127): 69
0    |  MIDI Event: Chan 1 Note ON: D4, Velocity (0 - 127): 98
0    |  MIDI Event: Chan 1 Note ON: F#4, Velocity (0 - 127): 74
0    |  MIDI Event: Chan 5 Note ON: A2, Velocity (0 - 127): 100
0    |  MIDI Event: Chan 5 Note ON: D3, Velocity (0 - 127): 111
0    |  MIDI Event: Chan 5 Note ON: F#3, Velocity (0 - 127): 89
59   |  MIDI Event: Chan 4 Note OFF: D3, Velocity (0 - 127): 64
1    |  MIDI Event: Chan 10 Note ON: F#2, Velocity (0 - 127): 120
29   |  MIDI Event: Chan 10 Note OFF: F#2, Velocity (0 - 127): 64
0    |  MIDI Event: Chan 5 Note OFF: D3, Velocity (0 - 127): 64
0    |  MIDI Event: Chan 5 Note OFF: A2, Velocity (0 - 127): 64
0    |  MIDI Event: Chan 1 Note OFF: F#4, Velocity (0 - 127): 64
0    |  MIDI Event: Chan 5 Note OFF: F#3, Velocity (0 - 127): 64
0    |  MIDI Event: Chan 1 Note OFF: A3, Velocity (0 - 127): 64
0    |  MIDI Event: Chan 1 Note OFF: D4, Velocity (0 - 127): 64
1    |  MIDI Event: Chan 1 Note ON: F#3, Velocity (0 - 127): 44
0    |  MIDI Event: Chan 1 Note ON: A3, Velocity (0 - 127): 78
0    |  MIDI Event: Chan 1 Note ON: D4, Velocity (0 - 127): 58
0    |  MIDI Event: Chan 5 Note ON: A2, Velocity (0 - 127): 85
0    |  MIDI Event: Chan 5 Note ON: D3, Velocity (0 - 127): 105
0    |  MIDI Event: Chan 5 Note ON: F#3, Velocity (0 - 127): 81
29   |  MIDI Event: Chan 5 Note OFF: F#3, Velocity (0 - 127): 64
0    |  MIDI Event: Chan 5 Note OFF: D3, Velocity (0 - 127): 64
0    |  MIDI Event: Chan 1 Note OFF: D4, Velocity (0 - 127): 64
0    |  MIDI Event: Chan 5 Note OFF: A2, Velocity (0 - 127): 64
0    |  MIDI Event: Chan 1 Note OFF: F#3, Velocity (0 - 127): 64
0    |  MIDI Event: Chan 1 Note OFF: A3, Velocity (0 - 127): 64
1    |  MIDI Event: Chan 1 Note ON: A3, Velocity (0 - 127): 57
0    |  MIDI Event: Chan 1 Note ON: D4, Velocity (0 - 127): 91
0    |  MIDI Event: Chan 1 Note ON: F#4, Velocity (0 - 127): 77
0    |  MIDI Event: Chan 5 Note ON: D3, Velocity (0 - 127): 109
0    |  MIDI Event: Chan 5 Note ON: F#3, Velocity (0 - 127): 89
0    |  MIDI Event: Chan 5 Note ON: A3, Velocity (0 - 127): 109
29   |  MIDI Event: Chan 5 Note OFF: A3, Velocity (0 - 127): 64
0    |  MIDI Event: Chan 5 Note OFF: F#3, Velocity (0 - 127): 64
0    |  MIDI Event: Chan 1 Note OFF: F#4, Velocity (0 - 127): 64
0    |  MIDI Event: Chan 5 Note OFF: D3, Velocity (0 - 127): 64
0    |  MIDI Event: Chan 1 Note OFF: A3, Velocity (0 - 127): 64
0    |  MIDI Event: Chan 1 Note OFF: D4, Velocity (0 - 127): 64
1    |  MIDI Event: Chan 1 Note ON: F#3, Velocity (0 - 127): 35
0    |  MIDI Event: Chan 1 Note ON: A3, Velocity (0 - 127): 79
0    |  MIDI Event: Chan 1 Note ON: D4, Velocity (0 - 127): 56
0    |  MIDI Event: Chan 5 Note ON: D3, Velocity (0 - 127): 111
0    |  MIDI Event: Chan 5 Note ON: F#3, Velocity (0 - 127): 100
0    |  MIDI Event: Chan 5 Note ON: A3, Velocity (0 - 127): 100
29   |  MIDI Event: Chan 5 Note OFF: A3, Velocity (0 - 127): 64
0    |  MIDI Event: Chan 8 Note OFF: D4, Velocity (0 - 127): 64
0    |  MIDI Event: Chan 8 Note OFF: F#4, Velocity (0 - 127): 64
0    |  MIDI Event: Chan 8 Note OFF: A3, Velocity (0 - 127): 64
0    |  MIDI Event: Chan 1 Note OFF: F#3, Velocity (0 - 127): 64
0    |  MIDI Event: Chan 8 Note OFF: D2, Velocity (0 - 127): 64
0    |  MIDI Event: Chan 5 Note OFF: D3, Velocity (0 - 127): 64
0    |  MIDI Event: Chan 1 Note OFF: D4, Velocity (0 - 127): 64
0    |  MIDI Event: Chan 1 Note OFF: A3, Velocity (0 - 127): 64
0    |  MIDI Event: Chan 5 Note OFF: F#3, Velocity (0 - 127): 64
1    |  MIDI Event: Chan 1 Note ON: B3, Velocity (0 - 127): 58
0    |  MIDI Event: Chan 1 Note ON: D4, Velocity (0 - 127): 91
0    |  MIDI Event: Chan 5 Note ON: B2, Velocity (0 - 127): 85
0    |  MIDI Event: Chan 5 Note ON: F#3, Velocity (0 - 127): 120
0    |  MIDI Event: Chan 8 Note ON: B2, Velocity (0 - 127): 116
0    |  MIDI Event: Chan 8 Note ON: B3, Velocity (0 - 127): 90
0    |  MIDI Event: Chan 8 Note ON: D4, Velocity (0 - 127): 111
0    |  MIDI Event: Chan 8 Note ON: F#4, Velocity (0 - 127): 81
0    |  MIDI Event: Chan 10 Note ON: F#2, Velocity (0 - 127): 115
29   |  MIDI Event: Chan 10 Note OFF: F#2, Velocity (0 - 127): 64
30   |  MIDI Event: Chan 1 Note OFF: B3, Velocity (0 - 127): 64
0    |  MIDI Event: Chan 5 Note OFF: F#3, Velocity (0 - 127): 64
0    |  MIDI Event: Chan 5 Note OFF: B2, Velocity (0 - 127): 64
0    |  MIDI Event: Chan 1 Note OFF: D4, Velocity (0 - 127): 64
1    |  MIDI Event: Chan 1 Note ON: B3, Velocity (0 - 127): 79
0    |  MIDI Event: Chan 1 Note ON: D4, Velocity (0 - 127): 95
0    |  MIDI Event: Chan 1 Note ON: F#4, Velocity (0 - 127): 74
0    |  MIDI Event: Chan 5 Note ON: D3, Velocity (0 - 127): 92
0    |  MIDI Event: Chan 5 Note ON: F#3, Velocity (0 - 127): 87
0    |  MIDI Event: Chan 5 Note ON: D4, Velocity (0 - 127): 95
60   |  MIDI Event: Chan 10 Note ON: F#2, Velocity (0 - 127): 109
29   |  MIDI Event: Chan 10 Note OFF: F#2, Velocity (0 - 127): 64
0    |  MIDI Event: Chan 5 Note OFF: D3, Velocity (0 - 127): 64
0    |  MIDI Event: Chan 5 Note OFF: D4, Velocity (0 - 127): 64
0    |  MIDI Event: Chan 1 Note OFF: F#4, Velocity (0 - 127): 64
0    |  MIDI Event: Chan 5 Note OFF: F#3, Velocity (0 - 127): 64
0    |  MIDI Event: Chan 1 Note OFF: B3, Velocity (0 - 127): 64
0    |  MIDI Event: Chan 1 Note OFF: D4, Velocity (0 - 127): 64
1    |  MIDI Event: Chan 1 Note ON: B3, Velocity (0 - 127): 71
0    |  MIDI Event: Chan 1 Note ON: D4, Velocity (0 - 127): 91
0    |  MIDI Event: Chan 1 Note ON: F#4, Velocity (0 - 127): 60
0    |  MIDI Event: Chan 5 Note ON: F#3, Velocity (0 - 127): 109
0    |  MIDI Event: Chan 5 Note ON: B3, Velocity (0 - 127): 95
29   |  MIDI Event: Chan 5 Note OFF: B3, Velocity (0 - 127): 64
0    |  MIDI Event: Chan 5 Note OFF: F#3, Velocity (0 - 127): 64
0    |  MIDI Event: Chan 1 Note OFF: F#4, Velocity (0 - 127): 64
0    |  MIDI Event: Chan 1 Note OFF: B3, Velocity (0 - 127): 64
0    |  MIDI Event: Chan 1 Note OFF: D4, Velocity (0 - 127): 64
1    |  MIDI Event: Chan 1 Note ON: D4, Velocity (0 - 127): 80
0    |  MIDI Event: Chan 1 Note ON: F#4, Velocity (0 - 127): 62
0    |  MIDI Event: Chan 1 Note ON: B4, Velocity (0 - 127): 91
0    |  MIDI Event: Chan 4 Note ON: F#3, Velocity (0 - 127): 115
0    |  MIDI Event: Chan 5 Note ON: D3, Velocity (0 - 127): 103
0    |  MIDI Event: Chan 5 Note ON: F#3, Velocity (0 - 127): 115
0    |  Meta Event: Lyric: And 
29   |  MIDI Event: Chan 5 Note OFF: F#3, Velocity (0 - 127): 64
0    |  MIDI Event: Chan 5 Note OFF: D3, Velocity (0 - 127): 64
0    |  MIDI Event: Chan 1 Note OFF: B4, Velocity (0 - 127): 64
0    |  MIDI Event: Chan 4 Note OFF: F#3, Velocity (0 - 127): 64
0    |  MIDI Event: Chan 1 Note OFF: D4, Velocity (0 - 127): 64
0    |  MIDI Event: Chan 1 Note OFF: F#4, Velocity (0 - 127): 64
1    |  MIDI Event: Chan 1 Note ON: B3, Velocity (0 - 127): 51
0    |  MIDI Event: Chan 1 Note ON: D4, Velocity (0 - 127): 85
0    |  MIDI Event: Chan 1 Note ON: F#4, Velocity (0 - 127): 59
0    |  MIDI Event: Chan 5 Note ON: B2, Velocity (0 - 127): 92
0    |  MIDI Event: Chan 5 Note ON: E3, Velocity (0 - 127): 98
29   |  MIDI Event: Chan 5 Note OFF: E3, Velocity (0 - 127): 64
0    |  MIDI Event: Chan 8 Note OFF: F#4, Velocity (0 - 127): 64
0    |  MIDI Event: Chan 8 Note OFF: D4, Velocity (0 - 127): 64
0    |  MIDI Event: Chan 1 Note OFF: B3, Velocity (0 - 127): 64
0    |  MIDI Event: Chan 8 Note OFF: B3, Velocity (0 - 127): 64
0    |  MIDI Event: Chan 8 Note OFF: B2, Velocity (0 - 127): 64
0    |  MIDI Event: Chan 1 Note OFF: F#4, Velocity (0 - 127): 64
0    |  MIDI Event: Chan 1 Note OFF: D4, Velocity (0 - 127): 64
0    |  MIDI Event: Chan 5 Note OFF: B2, Velocity (0 - 127): 64
1    |  MIDI Event: Chan 1 Note ON: G3, Velocity (0 - 127): 74
0    |  MIDI Event: Chan 1 Note ON: B3, Velocity (0 - 127): 94
0    |  MIDI Event: Chan 1 Note ON: D4, Velocity (0 - 127): 91
0    |  MIDI Event: Chan 4 Note ON: G3, Velocity (0 - 127): 116
0    |  MIDI Event: Chan 5 Note ON: G2, Velocity (0 - 127): 98
0    |  MIDI Event: Chan 5 Note ON: D3, Velocity (0 - 127): 116
0    |  MIDI Event: Chan 8 Note ON: G2, Velocity (0 - 127): 101
0    |  MIDI Event: Chan 8 Note ON: B3, Velocity (0 - 127): 105
0    |  MIDI Event: Chan 8 Note ON: D4, Velocity (0 - 127): 118
0    |  MIDI Event: Chan 8 Note ON: G4, Velocity (0 - 127): 116
0    |  MIDI Event: Chan 10 Note ON: F#2, Velocity (0 - 127): 115
0    |  Meta Event: Lyric: love 
29   |  MIDI Event: Chan 10 Note OFF: F#2, Velocity (0 - 127): 64
30   |  MIDI Event: Chan 1 Note OFF: G3, Velocity (0 - 127): 64
0    |  MIDI Event: Chan 5 Note OFF: D3, Velocity (0 - 127): 64
0    |  MIDI Event: Chan 1 Note OFF: D4, Velocity (0 - 127): 64
0    |  MIDI Event: Chan 5 Note OFF: G2, Velocity (0 - 127): 64
0    |  MIDI Event: Chan 1 Note OFF: B3, Velocity (0 - 127): 64
1    |  MIDI Event: Chan 1 Note ON: B3, Velocity (0 - 127): 70
0    |  MIDI Event: Chan 1 Note ON: D4, Velocity (0 - 127): 94
0    |  MIDI Event: Chan 1 Note ON: G4, Velocity (0 - 127): 101
0    |  MIDI Event: Chan 5 Note ON: D3, Velocity (0 - 127): 79
0    |  MIDI Event: Chan 5 Note ON: G3, Velocity (0 - 127): 111
0    |  MIDI Event: Chan 5 Note ON: B3, Velocity (0 - 127): 100
29   |  MIDI Event: Chan 4 Note OFF: G3, Velocity (0 - 127): 64
31   |  MIDI Event: Chan 4 Note ON: A3, Velocity (0 - 127): 116
0    |  MIDI Event: Chan 10 Note ON: F#2, Velocity (0 - 127): 115
0    |  Meta Event: Lyric: is 
29   |  MIDI Event: Chan 10 Note OFF: F#2, Velocity (0 - 127): 64
0    |  MIDI Event: Chan 5 Note OFF: D3, Velocity (0 - 127): 64
0    |  MIDI Event: Chan 5 Note OFF: G3, Velocity (0 - 127): 64
0    |  MIDI Event: Chan 1 Note OFF: G4, Velocity (0 - 127): 64
0    |  MIDI Event: Chan 5 Note OFF: B3, Velocity (0 - 127): 64
0    |  MIDI Event: Chan 4 Note OFF: A3, Velocity (0 - 127): 64
0    |  MIDI Event: Chan 1 Note OFF: B3, Velocity (0 - 127): 64
0    |  MIDI Event: Chan 1 Note OFF: D4, Velocity (0 - 127): 64
1    |  MIDI Event: Chan 1 Note ON: B3, Velocity (0 - 127): 52
0    |  MIDI Event: Chan 1 Note ON: D4, Velocity (0 - 127): 85
0    |  MIDI Event: Chan 1 Note ON: G4, Velocity (0 - 127): 94
0    |  MIDI Event: Chan 5 Note ON: D3, Velocity (0 - 127): 82
0    |  MIDI Event: Chan 5 Note ON: G3, Velocity (0 - 127): 98
0    |  MIDI Event: Chan 5 Note ON: B3, Velocity (0 - 127): 85
29   |  MIDI Event: Chan 5 Note OFF: B3, Velocity (0 - 127): 64
0    |  MIDI Event: Chan 5 Note OFF: G3, Velocity (0 - 127): 64
0    |  MIDI Event: Chan 1 Note OFF: G4, Velocity (0 - 127): 64
0    |  MIDI Event: Chan 5 Note OFF: D3, Velocity (0 - 127): 64
0    |  MIDI Event: Chan 1 Note OFF: B3, Velocity (0 - 127): 64
0    |  MIDI Event: Chan 1 Note OFF: D4, Velocity (0 - 127): 64
1    |  MIDI Event: Chan 1 Note ON: D4, Velocity (0 - 127): 78
0    |  MIDI Event: Chan 1 Note ON: G4, Velocity (0 - 127): 100
0    |  MIDI Event: Chan 1 Note ON: B4, Velocity (0 - 127): 46
0    |  MIDI Event: Chan 4 Note ON: A3, Velocity (0 - 127): 107
0    |  MIDI Event: Chan 5 Note ON: G2, Velocity (0 - 127): 109
0    |  MIDI Event: Chan 5 Note ON: D3, Velocity (0 - 127): 109
0    |  Meta Event: Lyric: a 
29   |  MIDI Event: Chan 5 Note OFF: D3, Velocity (0 - 127): 64
0    |  MIDI Event: Chan 5 Note OFF: G2, Velocity (0 - 127): 64
0    |  MIDI Event: Chan 1 Note OFF: B4, Velocity (0 - 127): 64
0    |  MIDI Event: Chan 4 Note OFF: A3, Velocity (0 - 127): 64
0    |  MIDI Event: Chan 1 Note OFF: D4, Velocity (0 - 127): 64
0    |  MIDI Event: Chan 1 Note OFF: G4, Velocity (0 - 127): 64
1    |  MIDI Event: Chan 1 Note ON: B3, Velocity (0 - 127): 45
0    |  MIDI Event: Chan 1 Note ON: D4, Velocity (0 - 127): 73
0    |  MIDI Event: Chan 1 Note ON: G4, Velocity (0 - 127): 86
0    |  MIDI Event: Chan 4 Note ON: D3, Velocity (0 - 127): 118
0    |  MIDI Event: Chan 5 Note ON: G2, Velocity (0 - 127): 101
0    |  MIDI Event: Chan 5 Note ON: E3, Velocity (0 - 127): 116
0    |  Meta Event: Lyric: prize 
0    |  Meta Event: Lyric: 
29   |  MIDI Event: Chan 5 Note OFF: E3, Velocity (0 - 127): 64
0    |  MIDI Event: Chan 8 Note OFF: B3, Velocity (0 - 127): 64
0    |  MIDI Event: Chan 8 Note OFF: G2, Velocity (0 - 127): 64
0    |  MIDI Event: Chan 5 Note OFF: G2, Velocity (0 - 127): 64
0    |  MIDI Event: Chan 1 Note OFF: B3, Velocity (0 - 127): 64
0    |  MIDI Event: Chan 8 Note OFF: D4, Velocity (0 - 127): 64
0    |  MIDI Event: Chan 1 Note OFF: G4, Velocity (0 - 127): 64
0    |  MIDI Event: Chan 8 Note OFF: G4, Velocity (0 - 127): 64
0    |  MIDI Event: Chan 1 Note OFF: D4, Velocity (0 - 127): 64
1    |  MIDI Event: Chan 1 Note ON: F#3, Velocity (0 - 127): 35
0    |  MIDI Event: Chan 1 Note ON: A3, Velocity (0 - 127): 85
0    |  MIDI Event: Chan 1 Note ON: D4, Velocity (0 - 127): 79
0    |  MIDI Event: Chan 5 Note ON: A2, Velocity (0 - 127): 90
0    |  MIDI Event: Chan 5 Note ON: D3, Velocity (0 - 127): 105
0    |  MIDI Event: Chan 8 Note ON: D2, Velocity (0 - 127): 111
0    |  MIDI Event: Chan 8 Note ON: A3, Velocity (0 - 127): 116
0    |  MIDI Event: Chan 8 Note ON: D4, Velocity (0 - 127): 118
0    |  MIDI Event: Chan 8 Note ON: F#4, Velocity (0 - 127): 109
0    |  MIDI Event: Chan 10 Note ON: F#2, Velocity (0 - 127): 120
29   |  MIDI Event: Chan 10 Note OFF: F#2, Velocity (0 - 127): 64
30   |  MIDI Event: Chan 1 Note OFF: A3, Velocity (0 - 127): 64
0    |  MIDI Event: Chan 5 Note OFF: D3, Velocity (0 - 127): 64
0    |  MIDI Event: Chan 1 Note OFF: D4, Velocity (0 - 127): 64
0    |  MIDI Event: Chan 5 Note OFF: A2, Velocity (0 - 127): 64
0    |  MIDI Event: Chan 1 Note OFF: F#3, Velocity (0 - 127): 64
1    |  MIDI Event: Chan 1 Note ON: A3, Velocity (0 - 127): 69
0    |  MIDI Event: Chan 1 Note ON: D4, Velocity (0 - 127): 98
0    |  MIDI Event: Chan 1 Note ON: F#4, Velocity (0 - 127): 74
0    |  MIDI Event: Chan 5 Note ON: A2, Velocity (0 - 127): 100
0    |  MIDI Event: Chan 5 Note ON: D3, Velocity (0 - 127): 111
0    |  MIDI Event: Chan 5 Note ON: F#3, Velocity (0 - 127): 89
60   |  MIDI Event: Chan 10 Note ON: F#2, Velocity (0 - 127): 119
29   |  MIDI Event: Chan 10 Note OFF: F#2, Velocity (0 - 127): 64
0    |  MIDI Event: Chan 5 Note OFF: D3, Velocity (0 - 127): 64
0    |  MIDI Event: Chan 1 Note OFF: F#4, Velocity (0 - 127): 64
0    |  MIDI Event: Chan 1 Note OFF: D4, Velocity (0 - 127): 64
0    |  MIDI Event: Chan 5 Note OFF: A2, Velocity (0 - 127): 64
0    |  MIDI Event: Chan 5 Note OFF: F#3, Velocity (0 - 127): 64
0    |  MIDI Event: Chan 1 Note OFF: A3, Velocity (0 - 127): 64
1    |  MIDI Event: Chan 1 Note ON: F#3, Velocity (0 - 127): 44
0    |  MIDI Event: Chan 1 Note ON: A3, Velocity (0 - 127): 78
0    |  MIDI Event: Chan 1 Note ON: D4, Velocity (0 - 127): 58
0    |  MIDI Event: Chan 5 Note ON: A2, Velocity (0 - 127): 85
0    |  MIDI Event: Chan 5 Note ON: D3, Velocity (0 - 127): 105
0    |  MIDI Event: Chan 5 Note ON: F#3, Velocity (0 - 127): 81
29   |  MIDI Event: Chan 5 Note OFF: F#3, Velocity (0 - 127): 64
0    |  MIDI Event: Chan 1 Note OFF: D4, Velocity (0 - 127): 64
0    |  MIDI Event: Chan 5 Note OFF: D3, Velocity (0 - 127): 64
0    |  MIDI Event: Chan 1 Note OFF: A3, Velocity (0 - 127): 64
0    |  MIDI Event: Chan 5 Note OFF: A2, Velocity (0 - 127): 64
0    |  MIDI Event: Chan 1 Note OFF: F#3, Velocity (0 - 127): 64
1    |  MIDI Event: Chan 1 Note ON: A3, Velocity (0 - 127): 57
0    |  MIDI Event: Chan 1 Note ON: D4, Velocity (0 - 127): 91
0    |  MIDI Event: Chan 1 Note ON: F#4, Velocity (0 - 127): 77
0    |  MIDI Event: Chan 5 Note ON: D3, Velocity (0 - 127): 109
0    |  MIDI Event: Chan 5 Note ON: F#3, Velocity (0 - 127): 89
0    |  MIDI Event: Chan 5 Note ON: A3, Velocity (0 - 127): 109
29   |  MIDI Event: Chan 5 Note OFF: A3, Velocity (0 - 127): 64
0    |  MIDI Event: Chan 1 Note OFF: F#4, Velocity (0 - 127): 64
0    |  MIDI Event: Chan 5 Note OFF: F#3, Velocity (0 - 127): 64
0    |  MIDI Event: Chan 1 Note OFF: D4, Velocity (0 - 127): 64
0    |  MIDI Event: Chan 5 Note OFF: D3, Velocity (0 - 127): 64
0    |  MIDI Event: Chan 4 Note OFF: D3, Velocity (0 - 127): 64
0    |  MIDI Event: Chan 1 Note OFF: A3, Velocity (0 - 127): 64
1    |  MIDI Event: Chan 1 Note ON: F#3, Velocity (0 - 127): 35
0    |  MIDI Event: Chan 1 Note ON: A3, Velocity (0 - 127): 79
0    |  MIDI Event: Chan 1 Note ON: D4, Velocity (0 - 127): 56
0    |  MIDI Event: Chan 5 Note ON: D3, Velocity (0 - 127): 111
0    |  MIDI Event: Chan 5 Note ON: F#3, Velocity (0 - 127): 100
0    |  MIDI Event: Chan 5 Note ON: A3, Velocity (0 - 127): 100
29   |  MIDI Event: Chan 5 Note OFF: A3, Velocity (0 - 127): 64
0    |  MIDI Event: Chan 5 Note OFF: F#3, Velocity (0 - 127): 64
0    |  MIDI Event: Chan 1 Note OFF: D4, Velocity (0 - 127): 64
0    |  MIDI Event: Chan 5 Note OFF: D3, Velocity (0 - 127): 64
0    |  MIDI Event: Chan 1 Note OFF: F#3, Velocity (0 - 127): 64
0    |  MIDI Event: Chan 1 Note OFF: A3, Velocity (0 - 127): 64
1    |  MIDI Event: Chan 5 Note ON: A2, Velocity (0 - 127): 90
0    |  MIDI Event: Chan 5 Note ON: D3, Velocity (0 - 127): 105
0    |  MIDI Event: Chan 10 Note ON: F#2, Velocity (0 - 127): 115
29   |  MIDI Event: Chan 10 Note OFF: F#2, Velocity (0 - 127): 64
30   |  MIDI Event: Chan 5 Note OFF: A2, Velocity (0 - 127): 64
0    |  MIDI Event: Chan 5 Note OFF: D3, Velocity (0 - 127): 64
1    |  MIDI Event: Chan 4 Note ON: B3, Velocity (0 - 127): 116
0    |  MIDI Event: Chan 5 Note ON: A2, Velocity (0 - 127): 100
0    |  MIDI Event: Chan 5 Note ON: D3, Velocity (0 - 127): 111
0    |  MIDI Event: Chan 5 Note ON: F#3, Velocity (0 - 127): 89
0    |  Meta Event: Lyric: So 
29   |  MIDI Event: Chan 4 Note OFF: B3, Velocity (0 - 127): 64
31   |  MIDI Event: Chan 4 Note ON: B3, Velocity (0 - 127): 111
0    |  MIDI Event: Chan 10 Note ON: F#2, Velocity (0 - 127): 120
0    |  Meta Event: Lyric: wake 
29   |  MIDI Event: Chan 10 Note OFF: F#2, Velocity (0 - 127): 64
0    |  MIDI Event: Chan 4 Note OFF: B3, Velocity (0 - 127): 64
0    |  MIDI Event: Chan 5 Note OFF: F#3, Velocity (0 - 127): 64
0    |  MIDI Event: Chan 5 Note OFF: A2, Velocity (0 - 127): 64
0    |  MIDI Event: Chan 5 Note OFF: D3, Velocity (0 - 127): 64
1    |  MIDI Event: Chan 5 Note ON: A2, Velocity (0 - 127): 85
0    |  MIDI Event: Chan 5 Note ON: D3, Velocity (0 - 127): 105
0    |  MIDI Event: Chan 5 Note ON: F#3, Velocity (0 - 127): 81
29   |  MIDI Event: Chan 5 Note OFF: F#3, Velocity (0 - 127): 64
0    |  MIDI Event: Chan 5 Note OFF: A2, Velocity (0 - 127): 64
0    |  MIDI Event: Chan 5 Note OFF: D3, Velocity (0 - 127): 64
1    |  MIDI Event: Chan 4 Note ON: C#4, Velocity (0 - 127): 119
0    |  MIDI Event: Chan 5 Note ON: D3, Velocity (0 - 127): 109
0    |  MIDI Event: Chan 5 Note ON: F#3, Velocity (0 - 127): 89
0    |  MIDI Event: Chan 5 Note ON: A3, Velocity (0 - 127): 109
0    |  Meta Event: Lyric: me 
29   |  MIDI Event: Chan 5 Note OFF: A3, Velocity (0 - 127): 64
0    |  MIDI Event: Chan 5 Note OFF: F#3, Velocity (0 - 127): 64
0    |  MIDI Event: Chan 4 Note OFF: C#4, Velocity (0 - 127): 64
0    |  MIDI Event: Chan 5 Note OFF: D3, Velocity (0 - 127): 64
1    |  MIDI Event: Chan 5 Note ON: D3, Velocity (0 - 127): 111
0    |  MIDI Event: Chan 5 Note ON: F#3, Velocity (0 - 127): 100
0    |  MIDI Event: Chan 5 Note ON: A3, Velocity (0 - 127): 100
29   |  MIDI Event: Chan 5 Note OFF: A3, Velocity (0 - 127): 64
0    |  MIDI Event: Chan 5 Note OFF: D3, Velocity (0 - 127): 64
0    |  MIDI Event: Chan 8 Note OFF: D4, Velocity (0 - 127): 64
0    |  MIDI Event: Chan 8 Note OFF: F#4, Velocity (0 - 127): 64
0    |  MIDI Event: Chan 8 Note OFF: A3, Velocity (0 - 127): 64
0    |  MIDI Event: Chan 5 Note OFF: F#3, Velocity (0 - 127): 64
0    |  MIDI Event: Chan 8 Note OFF: D2, Velocity (0 - 127): 64
1    |  MIDI Event: Chan 1 Note ON: B3, Velocity (0 - 127): 58
0    |  MIDI Event: Chan 1 Note ON: D4, Velocity (0 - 127): 91
0    |  MIDI Event: Chan 2 Note ON: B1, Velocity (0 - 127): 100
0    |  MIDI Event: Chan 4 Note ON: D4, Velocity (0 - 127): 120
0    |  MIDI Event: Chan 5 Note ON: B2, Velocity (0 - 127): 85
0    |  MIDI Event: Chan 5 Note ON: F#3, Velocity (0 - 127): 120
0    |  MIDI Event: Chan 10 Note ON: B1, Velocity (0 - 127): 120
0    |  Meta Event: Lyric: up 
29   |  MIDI Event: Chan 10 Note OFF: B1, Velocity (0 - 127): 64
30   |  MIDI Event: Chan 5 Note OFF: B2, Velocity (0 - 127): 64
0    |  MIDI Event: Chan 1 Note OFF: D4, Velocity (0 - 127): 64
0    |  MIDI Event: Chan 1 Note OFF: B3, Velocity (0 - 127): 64
0    |  MIDI Event: Chan 5 Note OFF: F#3, Velocity (0 - 127): 64
1    |  MIDI Event: Chan 1 Note ON: B3, Velocity (0 - 127): 79
0    |  MIDI Event: Chan 1 Note ON: D4, Velocity (0 - 127): 95
0    |  MIDI Event: Chan 1 Note ON: F#4, Velocity (0 - 127): 74
0    |  MIDI Event: Chan 5 Note ON: D3, Velocity (0 - 127): 92
0    |  MIDI Event: Chan 5 Note ON: F#3, Velocity (0 - 127): 87
0    |  MIDI Event: Chan 5 Note ON: D4, Velocity (0 - 127): 95
0    |  MIDI Event: Chan 10 Note ON: D#2, Velocity (0 - 127): 120
0    |  MIDI Event: Chan 10 Note ON: C#5, Velocity (0 - 127): 109
29   |  MIDI Event: Chan 10 Note OFF: C#5, Velocity (0 - 127): 64
0    |  MIDI Event: Chan 10 Note OFF: D#2, Velocity (0 - 127): 64
0    |  MIDI Event: Chan 4 Note OFF: D4, Velocity (0 - 127): 64
30   |  MIDI Event: Chan 2 Note OFF: B1, Velocity (0 - 127): 64
1    |  MIDI Event: Chan 2 Note ON: B1, Velocity (0 - 127): 100
0    |  MIDI Event: Chan 4 Note ON: D4, Velocity (0 - 127): 119
0    |  MIDI Event: Chan 10 Note ON: B1, Velocity (0 - 127): 120
0    |  Meta Event: Lyric: when 
29   |  MIDI Event: Chan 10 Note OFF: B1, Velocity (0 - 127): 64
0    |  MIDI Event: Chan 5 Note OFF: D4, Velocity (0 - 127): 64
0    |  MIDI Event: Chan 5 Note OFF: D3, Velocity (0 - 127): 64
0    |  MIDI Event: Chan 1 Note OFF: D4, Velocity (0 - 127): 64
0    |  MIDI Event: Chan 1 Note OFF: B3, Velocity (0 - 127): 64
0    |  MIDI Event: Chan 1 Note OFF: F#4, Velocity (0 - 127): 64
0    |  MIDI Event: Chan 5 Note OFF: F#3, Velocity (0 - 127): 64
1    |  MIDI Event: Chan 1 Note ON: B3, Velocity (0 - 127): 71
0    |  MIDI Event: Chan 1 Note ON: D4, Velocity (0 - 127): 91
0    |  MIDI Event: Chan 1 Note ON: F#4, Velocity (0 - 127): 60
0    |  MIDI Event: Chan 5 Note ON: F#3, Velocity (0 - 127): 109
0    |  MIDI Event: Chan 5 Note ON: B3, Velocity (0 - 127): 95
29   |  MIDI Event: Chan 5 Note OFF: B3, Velocity (0 - 127): 64
0    |  MIDI Event: Chan 1 Note OFF: F#4, Velocity (0 - 127): 64
0    |  MIDI Event: Chan 1 Note OFF: D4, Velocity (0 - 127): 64
0    |  MIDI Event: Chan 1 Note OFF: B3, Velocity (0 - 127): 64
0    |  MIDI Event: Chan 5 Note OFF: F#3, Velocity (0 - 127): 64
1    |  MIDI Event: Chan 1 Note ON: D4, Velocity (0 - 127): 80
0    |  MIDI Event: Chan 1 Note ON: F#4, Velocity (0 - 127): 62
0    |  MIDI Event: Chan 1 Note ON: B4, Velocity (0 - 127): 91
0    |  MIDI Event: Chan 5 Note ON: D3, Velocity (0 - 127): 103
0    |  MIDI Event: Chan 5 Note ON: F#3, Velocity (0 - 127): 115
0    |  MIDI Event: Chan 10 Note ON: D#2, Velocity (0 - 127): 120
0    |  MIDI Event: Chan 10 Note ON: C#5, Velocity (0 - 127): 109
29   |  MIDI Event: Chan 10 Note OFF: C#5, Velocity (0 - 127): 64
0    |  MIDI Event: Chan 1 Note OFF: F#4, Velocity (0 - 127): 64
0    |  MIDI Event: Chan 10 Note OFF: D#2, Velocity (0 - 127): 64
0    |  MIDI Event: Chan 1 Note OFF: B4, Velocity (0 - 127): 64
0    |  MIDI Event: Chan 4 Note OFF: D4, Velocity (0 - 127): 64
0    |  MIDI Event: Chan 1 Note OFF: D4, Velocity (0 - 127): 64
0    |  MIDI Event: Chan 5 Note OFF: F#3, Velocity (0 - 127): 64
0    |  MIDI Event: Chan 5 Note OFF: D3, Velocity (0 - 127): 64
1    |  MIDI Event: Chan 1 Note ON: B3, Velocity (0 - 127): 51
0    |  MIDI Event: Chan 1 Note ON: D4, Velocity (0 - 127): 85
0    |  MIDI Event: Chan 1 Note ON: F#4, Velocity (0 - 127): 59
0    |  MIDI Event: Chan 5 Note ON: B2, Velocity (0 - 127): 92
0    |  MIDI Event: Chan 5 Note ON: E3, Velocity (0 - 127): 98
29   |  MIDI Event: Chan 5 Note OFF: E3, Velocity (0 - 127): 64
0    |  MIDI Event: Chan 1 Note OFF: B3, Velocity (0 - 127): 64
0    |  MIDI Event: Chan 1 Note OFF: D4, Velocity (0 - 127): 64
0    |  MIDI Event: Chan 2 Note OFF: B1, Velocity (0 - 127): 64
0    |  MIDI Event: Chan 5 Note OFF: B2, Velocity (0 - 127): 64
0    |  MIDI Event: Chan 1 Note OFF: F#4, Velocity (0 - 127): 64
1    |  MIDI Event: Chan 1 Note ON: G3, Velocity (0 - 127): 74
0    |  MIDI Event: Chan 1 Note ON: B3, Velocity (0 - 127): 94
0    |  MIDI Event: Chan 1 Note ON: D4, Velocity (0 - 127): 91
0    |  MIDI Event: Chan 2 Note ON: G1, Velocity (0 - 127): 100
0    |  MIDI Event: Chan 4 Note ON: B3, Velocity (0 - 127): 103
0    |  MIDI Event: Chan 5 Note ON: G2, Velocity (0 - 127): 98
0    |  MIDI Event: Chan 5 Note ON: D3, Velocity (0 - 127): 116
0    |  MIDI Event: Chan 10 Note ON: B1, Velocity (0 - 127): 120
0    |  Meta Event: Lyric: it's 
29   |  MIDI Event: Chan 10 Note OFF: B1, Velocity (0 - 127): 64
30   |  MIDI Event: Chan 5 Note OFF: D3, Velocity (0 - 127): 64
0    |  MIDI Event: Chan 1 Note OFF: D4, Velocity (0 - 127): 64
0    |  MIDI Event: Chan 1 Note OFF: B3, Velocity (0 - 127): 64
0    |  MIDI Event: Chan 1 Note OFF: G3, Velocity (0 - 127): 64
0    |  MIDI Event: Chan 5 Note OFF: G2, Velocity (0 - 127): 64
1    |  MIDI Event: Chan 1 Note ON: B3, Velocity (0 - 127): 70
0    |  MIDI Event: Chan 1 Note ON: D4, Velocity (0 - 127): 94
0    |  MIDI Event: Chan 1 Note ON: G4, Velocity (0 - 127): 101
0    |  MIDI Event: Chan 5 Note ON: D3, Velocity (0 - 127): 79
0    |  MIDI Event: Chan 5 Note ON: G3, Velocity (0 - 127): 111
0    |  MIDI Event: Chan 5 Note ON: B3, Velocity (0 - 127): 100
0    |  MIDI Event: Chan 10 Note ON: D#2, Velocity (0 - 127): 120
0    |  MIDI Event: Chan 10 Note ON: C#5, Velocity (0 - 127): 115
29   |  MIDI Event: Chan 10 Note OFF: C#5, Velocity (0 - 127): 64
0    |  MIDI Event: Chan 10 Note OFF: D#2, Velocity (0 - 127): 64
0    |  MIDI Event: Chan 4 Note OFF: B3, Velocity (0 - 127): 64
30   |  MIDI Event: Chan 2 Note OFF: G1, Velocity (0 - 127): 64
1    |  MIDI Event: Chan 2 Note ON: G1, Velocity (0 - 127): 100
0    |  MIDI Event: Chan 4 Note ON: A3, Velocity (0 - 127): 113
0    |  MIDI Event: Chan 10 Note ON: B1, Velocity (0 - 127): 120
0    |  Meta Event: Lyric: all 
29   |  MIDI Event: Chan 10 Note OFF: B1, Velocity (0 - 127): 64
0    |  MIDI Event: Chan 5 Note OFF: B3, Velocity (0 - 127): 64
0    |  MIDI Event: Chan 5 Note OFF: D3, Velocity (0 - 127): 64
0    |  MIDI Event: Chan 1 Note OFF: D4, Velocity (0 - 127): 64
0    |  MIDI Event: Chan 1 Note OFF: B3, Velocity (0 - 127): 64
0    |  MIDI Event: Chan 1 Note OFF: G4, Velocity (0 - 127): 64
0    |  MIDI Event: Chan 5 Note OFF: G3, Velocity (0 - 127): 64
1    |  MIDI Event: Chan 1 Note ON: B3, Velocity (0 - 127): 52
0    |  MIDI Event: Chan 1 Note ON: D4, Velocity (0 - 127): 85
0    |  MIDI Event: Chan 1 Note ON: G4, Velocity (0 - 127): 94
0    |  MIDI Event: Chan 5 Note ON: D3, Velocity (0 - 127): 82
0    |  MIDI Event: Chan 5 Note ON: G3, Velocity (0 - 127): 98
0    |  MIDI Event: Chan 5 Note ON: B3, Velocity (0 - 127): 85
29   |  MIDI Event: Chan 5 Note OFF: B3, Velocity (0 - 127): 64
0    |  MIDI Event: Chan 5 Note OFF: G3, Velocity (0 - 127): 64
0    |  MIDI Event: Chan 1 Note OFF: G4, Velocity (0 - 127): 64
0    |  MIDI Event: Chan 4 Note OFF: A3, Velocity (0 - 127): 64
0    |  MIDI Event: Chan 1 Note OFF: B3, Velocity (0 - 127): 64
0    |  MIDI Event: Chan 1 Note OFF: D4, Velocity (0 - 127): 64
0    |  MIDI Event: Chan 5 Note OFF: D3, Velocity (0 - 127): 64
1    |  MIDI Event: Chan 1 Note ON: D4, Velocity (0 - 127): 78
0    |  MIDI Event: Chan 1 Note ON: G4, Velocity (0 - 127): 100
0    |  MIDI Event: Chan 1 Note ON: B4, Velocity (0 - 127): 46
0    |  MIDI Event: Chan 5 Note ON: G2, Velocity (0 - 127): 109
0    |  MIDI Event: Chan 5 Note ON: D3, Velocity (0 - 127): 109
0    |  MIDI Event: Chan 10 Note ON: D#2, Velocity (0 - 127): 120
0    |  MIDI Event: Chan 10 Note ON: C#5, Velocity (0 - 127): 119
29   |  MIDI Event: Chan 10 Note OFF: C#5, Velocity (0 - 127): 64
0    |  MIDI Event: Chan 10 Note OFF: D#2, Velocity (0 - 127): 64
0    |  MIDI Event: Chan 5 Note OFF: G2, Velocity (0 - 127): 64
0    |  MIDI Event: Chan 1 Note OFF: D4, Velocity (0 - 127): 64
0    |  MIDI Event: Chan 1 Note OFF: G4, Velocity (0 - 127): 64
0    |  MIDI Event: Chan 1 Note OFF: B4, Velocity (0 - 127): 64
0    |  MIDI Event: Chan 5 Note OFF: D3, Velocity (0 - 127): 64
1    |  MIDI Event: Chan 1 Note ON: B3, Velocity (0 - 127): 45
0    |  MIDI Event: Chan 1 Note ON: D4, Velocity (0 - 127): 73
0    |  MIDI Event: Chan 1 Note ON: G4, Velocity (0 - 127): 86
0    |  MIDI Event: Chan 4 Note ON: A3, Velocity (0 - 127): 111
0    |  MIDI Event: Chan 5 Note ON: G2, Velocity (0 - 127): 101
0    |  MIDI Event: Chan 5 Note ON: E3, Velocity (0 - 127): 116
0    |  Meta Event: Lyric: o
29   |  MIDI Event: Chan 5 Note OFF: E3, Velocity (0 - 127): 64
0    |  MIDI Event: Chan 1 Note OFF: G4, Velocity (0 - 127): 64
0    |  MIDI Event: Chan 1 Note OFF: B3, Velocity (0 - 127): 64
0    |  MIDI Event: Chan 1 Note OFF: D4, Velocity (0 - 127): 64
0    |  MIDI Event: Chan 2 Note OFF: G1, Velocity (0 - 127): 64
0    |  MIDI Event: Chan 5 Note OFF: G2, Velocity (0 - 127): 64
1    |  MIDI Event: Chan 1 Note ON: F#3, Velocity (0 - 127): 35
0    |  MIDI Event: Chan 1 Note ON: A3, Velocity (0 - 127): 85
0    |  MIDI Event: Chan 1 Note ON: D4, Velocity (0 - 127): 79
0    |  MIDI Event: Chan 2 Note ON: D2, Velocity (0 - 127): 100
0    |  MIDI Event: Chan 5 Note ON: A2, Velocity (0 - 127): 90
0    |  MIDI Event: Chan 5 Note ON: D3, Velocity (0 - 127): 105
0    |  MIDI Event: Chan 10 Note ON: B1, Velocity (0 - 127): 120
29   |  MIDI Event: Chan 10 Note OFF: B1, Velocity (0 - 127): 64
0    |  MIDI Event: Chan 4 Note OFF: A3, Velocity (0 - 127): 64
30   |  MIDI Event: Chan 5 Note OFF: A2, Velocity (0 - 127): 64
0    |  MIDI Event: Chan 1 Note OFF: A3, Velocity (0 - 127): 64
0    |  MIDI Event: Chan 1 Note OFF: F#3, Velocity (0 - 127): 64
0    |  MIDI Event: Chan 1 Note OFF: D4, Velocity (0 - 127): 64
0    |  MIDI Event: Chan 5 Note OFF: D3, Velocity (0 - 127): 64
1    |  MIDI Event: Chan 1 Note ON: A3, Velocity (0 - 127): 69
0    |  MIDI Event: Chan 1 Note ON: D4, Velocity (0 - 127): 98
0    |  MIDI Event: Chan 1 Note ON: F#4, Velocity (0 - 127): 74
0    |  MIDI Event: Chan 4 Note ON: D3, Velocity (0 - 127): 120
0    |  MIDI Event: Chan 5 Note ON: A2, Velocity (0 - 127): 100
0    |  MIDI Event: Chan 5 Note ON: D3, Velocity (0 - 127): 111
0    |  MIDI Event: Chan 5 Note ON: F#3, Velocity (0 - 127): 89
0    |  MIDI Event: Chan 10 Note ON: D#2, Velocity (0 - 127): 119
0    |  MIDI Event: Chan 10 Note ON: C#5, Velocity (0 - 127): 115
0    |  Meta Event: Lyric: ver 
0    |  Meta Event: Lyric: 
29   |  MIDI Event: Chan 10 Note OFF: C#5, Velocity (0 - 127): 64
0    |  MIDI Event: Chan 10 Note OFF: D#2, Velocity (0 - 127): 64
0    |  MIDI Event: Chan 4 Note OFF: D3, Velocity (0 - 127): 64
30   |  MIDI Event: Chan 2 Note OFF: D2, Velocity (0 - 127): 64
1    |  MIDI Event: Chan 2 Note ON: D2, Velocity (0 - 127): 100
0    |  MIDI Event: Chan 10 Note ON: B1, Velocity (0 - 127): 120
29   |  MIDI Event: Chan 10 Note OFF: B1, Velocity (0 - 127): 64
0    |  MIDI Event: Chan 5 Note OFF: F#3, Velocity (0 - 127): 64
0    |  MIDI Event: Chan 5 Note OFF: A2, Velocity (0 - 127): 64
0    |  MIDI Event: Chan 1 Note OFF: D4, Velocity (0 - 127): 64
0    |  MIDI Event: Chan 1 Note OFF: F#4, Velocity (0 - 127): 64
0    |  MIDI Event: Chan 1 Note OFF: A3, Velocity (0 - 127): 64
0    |  MIDI Event: Chan 5 Note OFF: D3, Velocity (0 - 127): 64
1    |  MIDI Event: Chan 1 Note ON: F#3, Velocity (0 - 127): 44
0    |  MIDI Event: Chan 1 Note ON: A3, Velocity (0 - 127): 78
0    |  MIDI Event: Chan 1 Note ON: D4, Velocity (0 - 127): 58
0    |  MIDI Event: Chan 5 Note ON: A2, Velocity (0 - 127): 85
0    |  MIDI Event: Chan 5 Note ON: D3, Velocity (0 - 127): 105
0    |  MIDI Event: Chan 5 Note ON: F#3, Velocity (0 - 127): 81
29   |  MIDI Event: Chan 5 Note OFF: F#3, Velocity (0 - 127): 64
0    |  MIDI Event: Chan 5 Note OFF: A2, Velocity (0 - 127): 64
0    |  MIDI Event: Chan 1 Note OFF: F#3, Velocity (0 - 127): 64
0    |  MIDI Event: Chan 1 Note OFF: A3, Velocity (0 - 127): 64
0    |  MIDI Event: Chan 1 Note OFF: D4, Velocity (0 - 127): 64
0    |  MIDI Event: Chan 5 Note OFF: D3, Velocity (0 - 127): 64
1    |  MIDI Event: Chan 1 Note ON: A3, Velocity (0 - 127): 57
0    |  MIDI Event: Chan 1 Note ON: D4, Velocity (0 - 127): 91
0    |  MIDI Event: Chan 1 Note ON: F#4, Velocity (0 - 127): 77
0    |  MIDI Event: Chan 5 Note ON: D3, Velocity (0 - 127): 109
0    |  MIDI Event: Chan 5 Note ON: F#3, Velocity (0 - 127): 89
0    |  MIDI Event: Chan 5 Note ON: A3, Velocity (0 - 127): 109
0    |  MIDI Event: Chan 10 Note ON: D#2, Velocity (0 - 127): 120
0    |  MIDI Event: Chan 10 Note ON: C#5, Velocity (0 - 127): 111
29   |  MIDI Event: Chan 10 Note OFF: C#5, Velocity (0 - 127): 64
0    |  MIDI Event: Chan 1 Note OFF: F#4, Velocity (0 - 127): 64
0    |  MIDI Event: Chan 10 Note OFF: D#2, Velocity (0 - 127): 64
0    |  MIDI Event: Chan 5 Note OFF: D3, Velocity (0 - 127): 64
0    |  MIDI Event: Chan 1 Note OFF: A3, Velocity (0 - 127): 64
0    |  MIDI Event: Chan 1 Note OFF: D4, Velocity (0 - 127): 64
0    |  MIDI Event: Chan 5 Note OFF: A3, Velocity (0 - 127): 64
0    |  MIDI Event: Chan 5 Note OFF: F#3, Velocity (0 - 127): 64
1    |  MIDI Event: Chan 1 Note ON: F#3, Velocity (0 - 127): 35
0    |  MIDI Event: Chan 1 Note ON: A3, Velocity (0 - 127): 79
0    |  MIDI Event: Chan 1 Note ON: D4, Velocity (0 - 127): 56
0    |  MIDI Event: Chan 5 Note ON: D3, Velocity (0 - 127): 111
0    |  MIDI Event: Chan 5 Note ON: F#3, Velocity (0 - 127): 100
0    |  MIDI Event: Chan 5 Note ON: A3, Velocity (0 - 127): 100
29   |  MIDI Event: Chan 5 Note OFF: A3, Velocity (0 - 127): 64
0    |  MIDI Event: Chan 5 Note OFF: D3, Velocity (0 - 127): 64
0    |  MIDI Event: Chan 1 Note OFF: F#3, Velocity (0 - 127): 64
0    |  MIDI Event: Chan 1 Note OFF: A3, Velocity (0 - 127): 64
0    |  MIDI Event: Chan 2 Note OFF: D2, Velocity (0 - 127): 64
0    |  MIDI Event: Chan 5 Note OFF: F#3, Velocity (0 - 127): 64
0    |  MIDI Event: Chan 1 Note OFF: D4, Velocity (0 - 127): 64
1    |  MIDI Event: Chan 1 Note ON: F#3, Velocity (0 - 127): 49
0    |  MIDI Event: Chan 1 Note ON: A3, Velocity (0 - 127): 85
0    |  MIDI Event: Chan 1 Note ON: D4, Velocity (0 - 127): 75
0    |  MIDI Event: Chan 2 Note ON: D2, Velocity (0 - 127): 100
0    |  MIDI Event: Chan 5 Note ON: A2, Velocity (0 - 127): 105
0    |  MIDI Event: Chan 5 Note ON: D3, Velocity (0 - 127): 116
0    |  MIDI Event: Chan 10 Note ON: B1, Velocity (0 - 127): 120
29   |  MIDI Event: Chan 10 Note OFF: B1, Velocity (0 - 127): 64
30   |  MIDI Event: Chan 5 Note OFF: A2, Velocity (0 - 127): 64
0    |  MIDI Event: Chan 1 Note OFF: A3, Velocity (0 - 127): 64
0    |  MIDI Event: Chan 1 Note OFF: F#3, Velocity (0 - 127): 64
0    |  MIDI Event: Chan 1 Note OFF: D4, Velocity (0 - 127): 64
0    |  MIDI Event: Chan 5 Note OFF: D3, Velocity (0 - 127): 64
1    |  MIDI Event: Chan 1 Note ON: A3, Velocity (0 - 127): 56
0    |  MIDI Event: Chan 1 Note ON: D4, Velocity (0 - 127): 84
0    |  MIDI Event: Chan 1 Note ON: F#4, Velocity (0 - 127): 49
0    |  MIDI Event: Chan 5 Note ON: D3, Velocity (0 - 127): 105
0    |  MIDI Event: Chan 5 Note ON: F#3, Velocity (0 - 127): 115
0    |  MIDI Event: Chan 10 Note ON: D#2, Velocity (0 - 127): 115
0    |  MIDI Event: Chan 10 Note ON: C#5, Velocity (0 - 127): 115
29   |  MIDI Event: Chan 10 Note OFF: C#5, Velocity (0 - 127): 64
0    |  MIDI Event: Chan 10 Note OFF: D#2, Velocity (0 - 127): 64
0    |  MIDI Event: Chan 5 Note OFF: D3, Velocity (0 - 127): 64
0    |  MIDI Event: Chan 1 Note OFF: A3, Velocity (0 - 127): 64
0    |  MIDI Event: Chan 1 Note OFF: D4, Velocity (0 - 127): 64
0    |  MIDI Event: Chan 1 Note OFF: F#4, Velocity (0 - 127): 64
0    |  MIDI Event: Chan 5 Note OFF: F#3, Velocity (0 - 127): 64
1    |  MIDI Event: Chan 1 Note ON: A3, Velocity (0 - 127): 84
0    |  MIDI Event: Chan 1 Note ON: D4, Velocity (0 - 127): 94
0    |  MIDI Event: Chan 1 Note ON: F#4, Velocity (0 - 127): 76
0    |  MIDI Event: Chan 5 Note ON: D3, Velocity (0 - 127): 100
0    |  MIDI Event: Chan 5 Note ON: F#3, Velocity (0 - 127): 92
29   |  MIDI Event: Chan 5 Note OFF: F#3, Velocity (0 - 127): 64
0    |  MIDI Event: Chan 1 Note OFF: A3, Velocity (0 - 127): 64
0    |  MIDI Event: Chan 1 Note OFF: D4, Velocity (0 - 127): 64
0    |  MIDI Event: Chan 2 Note OFF: D2, Velocity (0 - 127): 64
0    |  MIDI Event: Chan 5 Note OFF: D3, Velocity (0 - 127): 64
0    |  MIDI Event: Chan 1 Note OFF: F#4, Velocity (0 - 127): 64
1    |  MIDI Event: Chan 1 Note ON: E3, Velocity (0 - 127): 47
0    |  MIDI Event: Chan 1 Note ON: A3, Velocity (0 - 127): 89
0    |  MIDI Event: Chan 1 Note ON: C#4, Velocity (0 - 127): 52
0    |  MIDI Event: Chan 2 Note ON: A1, Velocity (0 - 127): 100
0    |  MIDI Event: Chan 4 Note ON: B3, Velocity (0 - 127): 118
0    |  MIDI Event: Chan 5 Note ON: A2, Velocity (0 - 127): 101
0    |  MIDI Event: Chan 5 Note ON: E3, Velocity (0 - 127): 101
0    |  MIDI Event: Chan 10 Note ON: B1, Velocity (0 - 127): 120
0    |  Meta Event: Lyric: When 
29   |  MIDI Event: Chan 10 Note OFF: B1, Velocity (0 - 127): 64
30   |  MIDI Event: Chan 5 Note OFF: E3, Velocity (0 - 127): 64
0    |  MIDI Event: Chan 4 Note OFF: B3, Velocity (0 - 127): 64
0    |  MIDI Event: Chan 1 Note OFF: A3, Velocity (0 - 127): 64
0    |  MIDI Event: Chan 1 Note OFF: E3, Velocity (0 - 127): 64
0    |  MIDI Event: Chan 1 Note OFF: C#4, Velocity (0 - 127): 64
0    |  MIDI Event: Chan 5 Note OFF: A2, Velocity (0 - 127): 64
1    |  MIDI Event: Chan 1 Note ON: A3, Velocity (0 - 127): 51
0    |  MIDI Event: Chan 1 Note ON: C#4, Velocity (0 - 127): 52
0    |  MIDI Event: Chan 1 Note ON: E4, Velocity (0 - 127): 78
0    |  MIDI Event: Chan 4 Note ON: C#4, Velocity (0 - 127): 120
0    |  MIDI Event: Chan 5 Note ON: C#3, Velocity (0 - 127): 89
0    |  MIDI Event: Chan 5 Note ON: E3, Velocity (0 - 127): 101
0    |  MIDI Event: Chan 5 Note ON: A3, Velocity (0 - 127): 89
0    |  MIDI Event: Chan 10 Note ON: D#2, Velocity (0 - 127): 119
0    |  MIDI Event: Chan 10 Note ON: C#5, Velocity (0 - 127): 119
0    |  Meta Event: Lyric: I'm 
29   |  MIDI Event: Chan 10 Note OFF: C#5, Velocity (0 - 127): 64
0    |  MIDI Event: Chan 1 Note OFF: C#4, Velocity (0 - 127): 64
0    |  MIDI Event: Chan 1 Note OFF: E4, Velocity (0 - 127): 64
0    |  MIDI Event: Chan 10 Note OFF: D#2, Velocity (0 - 127): 64
0    |  MIDI Event: Chan 4 Note OFF: C#4, Velocity (0 - 127): 64
0    |  MIDI Event: Chan 1 Note OFF: A3, Velocity (0 - 127): 64
0    |  MIDI Event: Chan 5 Note OFF: A3, Velocity (0 - 127): 64
0    |  MIDI Event: Chan 5 Note OFF: E3, Velocity (0 - 127): 64
0    |  MIDI Event: Chan 5 Note OFF: C#3, Velocity (0 - 127): 64
1    |  MIDI Event: Chan 1 Note ON: A3, Velocity (0 - 127): 73
0    |  MIDI Event: Chan 1 Note ON: C#4, Velocity (0 - 127): 52
0    |  MIDI Event: Chan 1 Note ON: E4, Velocity (0 - 127): 83
0    |  MIDI Event: Chan 5 Note ON: C#3, Velocity (0 - 127): 119
0    |  MIDI Event: Chan 5 Note ON: E3, Velocity (0 - 127): 118
0    |  MIDI Event: Chan 5 Note ON: A3, Velocity (0 - 127): 105
29   |  MIDI Event: Chan 5 Note OFF: A3, Velocity (0 - 127): 64
0    |  MIDI Event: Chan 5 Note OFF: C#3, Velocity (0 - 127): 64
0    |  MIDI Event: Chan 1 Note OFF: A3, Velocity (0 - 127): 64
0    |  MIDI Event: Chan 1 Note OFF: C#4, Velocity (0 - 127): 64
0    |  MIDI Event: Chan 2 Note OFF: A1, Velocity (0 - 127): 64
0    |  MIDI Event: Chan 5 Note OFF: E3, Velocity (0 - 127): 64
0    |  MIDI Event: Chan 1 Note OFF: E4, Velocity (0 - 127): 64
1    |  MIDI Event: Chan 1 Note ON: B3, Velocity (0 - 127): 58
0    |  MIDI Event: Chan 1 Note ON: D4, Velocity (0 - 127): 91
0    |  MIDI Event: Chan 2 Note ON: B1, Velocity (0 - 127): 100
0    |  MIDI Event: Chan 4 Note ON: D4, Velocity (0 - 127): 116
0    |  MIDI Event: Chan 5 Note ON: B2, Velocity (0 - 127): 85
0    |  MIDI Event: Chan 5 Note ON: F#3, Velocity (0 - 127): 120
0    |  MIDI Event: Chan 10 Note ON: B1, Velocity (0 - 127): 120
0    |  Meta Event: Lyric: wi
29   |  MIDI Event: Chan 10 Note OFF: B1, Velocity (0 - 127): 64
30   |  MIDI Event: Chan 5 Note OFF: B2, Velocity (0 - 127): 64
0    |  MIDI Event: Chan 1 Note OFF: D4, Velocity (0 - 127): 64
0    |  MIDI Event: Chan 1 Note OFF: B3, Velocity (0 - 127): 64
0    |  MIDI Event: Chan 5 Note OFF: F#3, Velocity (0 - 127): 64
1    |  MIDI Event: Chan 1 Note ON: B3, Velocity (0 - 127): 79
0    |  MIDI Event: Chan 1 Note ON: D4, Velocity (0 - 127): 95
0    |  MIDI Event: Chan 1 Note ON: F#4, Velocity (0 - 127): 74
0    |  MIDI Event: Chan 5 Note ON: D3, Velocity (0 - 127): 92
0    |  MIDI Event: Chan 5 Note ON: F#3, Velocity (0 - 127): 87
0    |  MIDI Event: Chan 5 Note ON: D4, Velocity (0 - 127): 95
0    |  MIDI Event: Chan 10 Note ON: D#2, Velocity (0 - 127): 119
0    |  MIDI Event: Chan 10 Note ON: C#5, Velocity (0 - 127): 115
29   |  MIDI Event: Chan 10 Note OFF: C#5, Velocity (0 - 127): 64
0    |  MIDI Event: Chan 10 Note OFF: D#2, Velocity (0 - 127): 64
0    |  MIDI Event: Chan 4 Note OFF: D4, Velocity (0 - 127): 64
30   |  MIDI Event: Chan 2 Note OFF: B1, Velocity (0 - 127): 64
1    |  MIDI Event: Chan 2 Note ON: B1, Velocity (0 - 127): 100
0    |  MIDI Event: Chan 4 Note ON: D4, Velocity (0 - 127): 120
0    |  MIDI Event: Chan 10 Note ON: B1, Velocity (0 - 127): 120
0    |  Meta Event: Lyric: ser 
29   |  MIDI Event: Chan 10 Note OFF: B1, Velocity (0 - 127): 64
0    |  MIDI Event: Chan 5 Note OFF: D4, Velocity (0 - 127): 64
0    |  MIDI Event: Chan 5 Note OFF: D3, Velocity (0 - 127): 64
0    |  MIDI Event: Chan 1 Note OFF: D4, Velocity (0 - 127): 64
0    |  MIDI Event: Chan 1 Note OFF: B3, Velocity (0 - 127): 64
0    |  MIDI Event: Chan 1 Note OFF: F#4, Velocity (0 - 127): 64
0    |  MIDI Event: Chan 5 Note OFF: F#3, Velocity (0 - 127): 64
1    |  MIDI Event: Chan 1 Note ON: B3, Velocity (0 - 127): 71
0    |  MIDI Event: Chan 1 Note ON: D4, Velocity (0 - 127): 91
0    |  MIDI Event: Chan 1 Note ON: F#4, Velocity (0 - 127): 60
0    |  MIDI Event: Chan 5 Note ON: F#3, Velocity (0 - 127): 109
0    |  MIDI Event: Chan 5 Note ON: B3, Velocity (0 - 127): 95
29   |  MIDI Event: Chan 5 Note OFF: B3, Velocity (0 - 127): 64
0    |  MIDI Event: Chan 1 Note OFF: F#4, Velocity (0 - 127): 64
0    |  MIDI Event: Chan 1 Note OFF: D4, Velocity (0 - 127): 64
0    |  MIDI Event: Chan 1 Note OFF: B3, Velocity (0 - 127): 64
0    |  MIDI Event: Chan 5 Note OFF: F#3, Velocity (0 - 127): 64
1    |  MIDI Event: Chan 1 Note ON: D4, Velocity (0 - 127): 80
0    |  MIDI Event: Chan 1 Note ON: F#4, Velocity (0 - 127): 62
0    |  MIDI Event: Chan 1 Note ON: B4, Velocity (0 - 127): 91
0    |  MIDI Event: Chan 5 Note ON: D3, Velocity (0 - 127): 103
0    |  MIDI Event: Chan 5 Note ON: F#3, Velocity (0 - 127): 115
0    |  MIDI Event: Chan 10 Note ON: D#2, Velocity (0 - 127): 120
0    |  MIDI Event: Chan 10 Note ON: C#5, Velocity (0 - 127): 109
29   |  MIDI Event: Chan 10 Note OFF: C#5, Velocity (0 - 127): 64
0    |  MIDI Event: Chan 1 Note OFF: F#4, Velocity (0 - 127): 64
0    |  MIDI Event: Chan 10 Note OFF: D#2, Velocity (0 - 127): 64
0    |  MIDI Event: Chan 1 Note OFF: B4, Velocity (0 - 127): 64
0    |  MIDI Event: Chan 5 Note OFF: F#3, Velocity (0 - 127): 64
0    |  MIDI Event: Chan 1 Note OFF: D4, Velocity (0 - 127): 64
0    |  MIDI Event: Chan 5 Note OFF: D3, Velocity (0 - 127): 64
1    |  MIDI Event: Chan 1 Note ON: B3, Velocity (0 - 127): 51
0    |  MIDI Event: Chan 1 Note ON: D4, Velocity (0 - 127): 85
0    |  MIDI Event: Chan 1 Note ON: F#4, Velocity (0 - 127): 59
0    |  MIDI Event: Chan 5 Note ON: B2, Velocity (0 - 127): 92
0    |  MIDI Event: Chan 5 Note ON: E3, Velocity (0 - 127): 98
29   |  MIDI Event: Chan 5 Note OFF: E3, Velocity (0 - 127): 64
0    |  MIDI Event: Chan 1 Note OFF: F#4, Velocity (0 - 127): 64
0    |  MIDI Event: Chan 4 Note OFF: D4, Velocity (0 - 127): 64
0    |  MIDI Event: Chan 1 Note OFF: B3, Velocity (0 - 127): 64
0    |  MIDI Event: Chan 2 Note OFF: B1, Velocity (0 - 127): 64
0    |  MIDI Event: Chan 5 Note OFF: B2, Velocity (0 - 127): 64
0    |  MIDI Event: Chan 1 Note OFF: D4, Velocity (0 - 127): 64
1    |  MIDI Event: Chan 1 Note ON: G3, Velocity (0 - 127): 74
0    |  MIDI Event: Chan 1 Note ON: B3, Velocity (0 - 127): 94
0    |  MIDI Event: Chan 1 Note ON: D4, Velocity (0 - 127): 91
0    |  MIDI Event: Chan 2 Note ON: G1, Velocity (0 - 127): 100
0    |  MIDI Event: Chan 4 Note ON: B3, Velocity (0 - 127): 116
0    |  MIDI Event: Chan 5 Note ON: G2, Velocity (0 - 127): 98
0    |  MIDI Event: Chan 5 Note ON: D3, Velocity (0 - 127): 116
0    |  MIDI Event: Chan 10 Note ON: B1, Velocity (0 - 127): 120
0    |  Meta Event: Lyric: and 
29   |  MIDI Event: Chan 10 Note OFF: B1, Velocity (0 - 127): 64
30   |  MIDI Event: Chan 5 Note OFF: D3, Velocity (0 - 127): 64
0    |  MIDI Event: Chan 1 Note OFF: D4, Velocity (0 - 127): 64
0    |  MIDI Event: Chan 1 Note OFF: B3, Velocity (0 - 127): 64
0    |  MIDI Event: Chan 1 Note OFF: G3, Velocity (0 - 127): 64
0    |  MIDI Event: Chan 5 Note OFF: G2, Velocity (0 - 127): 64
1    |  MIDI Event: Chan 1 Note ON: B3, Velocity (0 - 127): 70
0    |  MIDI Event: Chan 1 Note ON: D4, Velocity (0 - 127): 94
0    |  MIDI Event: Chan 1 Note ON: G4, Velocity (0 - 127): 101
0    |  MIDI Event: Chan 5 Note ON: D3, Velocity (0 - 127): 79
0    |  MIDI Event: Chan 5 Note ON: G3, Velocity (0 - 127): 111
0    |  MIDI Event: Chan 5 Note ON: B3, Velocity (0 - 127): 100
0    |  MIDI Event: Chan 10 Note ON: D#2, Velocity (0 - 127): 120
0    |  MIDI Event: Chan 10 Note ON: C#5, Velocity (0 - 127): 119
29   |  MIDI Event: Chan 10 Note OFF: C#5, Velocity (0 - 127): 64
0    |  MIDI Event: Chan 10 Note OFF: D#2, Velocity (0 - 127): 64
0    |  MIDI Event: Chan 4 Note OFF: B3, Velocity (0 - 127): 64
30   |  MIDI Event: Chan 2 Note OFF: G1, Velocity (0 - 127): 64
1    |  MIDI Event: Chan 2 Note ON: G1, Velocity (0 - 127): 100
0    |  MIDI Event: Chan 4 Note ON: A3, Velocity (0 - 127): 120
0    |  MIDI Event: Chan 10 Note ON: B1, Velocity (0 - 127): 120
0    |  Meta Event: Lyric: I'm 
29   |  MIDI Event: Chan 10 Note OFF: B1, Velocity (0 - 127): 64
0    |  MIDI Event: Chan 5 Note OFF: B3, Velocity (0 - 127): 64
0    |  MIDI Event: Chan 5 Note OFF: D3, Velocity (0 - 127): 64
0    |  MIDI Event: Chan 1 Note OFF: D4, Velocity (0 - 127): 64
0    |  MIDI Event: Chan 1 Note OFF: B3, Velocity (0 - 127): 64
0    |  MIDI Event: Chan 1 Note OFF: G4, Velocity (0 - 127): 64
0    |  MIDI Event: Chan 5 Note OFF: G3, Velocity (0 - 127): 64
1    |  MIDI Event: Chan 1 Note ON: B3, Velocity (0 - 127): 52
0    |  MIDI Event: Chan 1 Note ON: D4, Velocity (0 - 127): 85
0    |  MIDI Event: Chan 1 Note ON: G4, Velocity (0 - 127): 94
0    |  MIDI Event: Chan 5 Note ON: D3, Velocity (0 - 127): 82
0    |  MIDI Event: Chan 5 Note ON: G3, Velocity (0 - 127): 98
0    |  MIDI Event: Chan 5 Note ON: B3, Velocity (0 - 127): 85
29   |  MIDI Event: Chan 5 Note OFF: B3, Velocity (0 - 127): 64
0    |  MIDI Event: Chan 5 Note OFF: G3, Velocity (0 - 127): 64
0    |  MIDI Event: Chan 1 Note OFF: G4, Velocity (0 - 127): 64
0    |  MIDI Event: Chan 4 Note OFF: A3, Velocity (0 - 127): 64
0    |  MIDI Event: Chan 1 Note OFF: B3, Velocity (0 - 127): 64
0    |  MIDI Event: Chan 1 Note OFF: D4, Velocity (0 - 127): 64
0    |  MIDI Event: Chan 5 Note OFF: D3, Velocity (0 - 127): 64
1    |  MIDI Event: Chan 1 Note ON: D4, Velocity (0 - 127): 78
0    |  MIDI Event: Chan 1 Note ON: G4, Velocity (0 - 127): 100
0    |  MIDI Event: Chan 1 Note ON: B4, Velocity (0 - 127): 46
0    |  MIDI Event: Chan 5 Note ON: G2, Velocity (0 - 127): 109
0    |  MIDI Event: Chan 5 Note ON: D3, Velocity (0 - 127): 109
0    |  MIDI Event: Chan 10 Note ON: D#2, Velocity (0 - 127): 120
0    |  MIDI Event: Chan 10 Note ON: C#5, Velocity (0 - 127): 119
29   |  MIDI Event: Chan 10 Note OFF: C#5, Velocity (0 - 127): 64
0    |  MIDI Event: Chan 10 Note OFF: D#2, Velocity (0 - 127): 64
0    |  MIDI Event: Chan 5 Note OFF: G2, Velocity (0 - 127): 64
0    |  MIDI Event: Chan 1 Note OFF: D4, Velocity (0 - 127): 64
0    |  MIDI Event: Chan 1 Note OFF: G4, Velocity (0 - 127): 64
0    |  MIDI Event: Chan 1 Note OFF: B4, Velocity (0 - 127): 64
0    |  MIDI Event: Chan 5 Note OFF: D3, Velocity (0 - 127): 64
1    |  MIDI Event: Chan 1 Note ON: B3, Velocity (0 - 127): 45
0    |  MIDI Event: Chan 1 Note ON: D4, Velocity (0 - 127): 73
0    |  MIDI Event: Chan 1 Note ON: G4, Velocity (0 - 127): 86
0    |  MIDI Event: Chan 4 Note ON: B3, Velocity (0 - 127): 120
0    |  MIDI Event: Chan 5 Note ON: G2, Velocity (0 - 127): 101
0    |  MIDI Event: Chan 5 Note ON: E3, Velocity (0 - 127): 116
0    |  Meta Event: Lyric: ol
29   |  MIDI Event: Chan 5 Note OFF: E3, Velocity (0 - 127): 64
0    |  MIDI Event: Chan 1 Note OFF: G4, Velocity (0 - 127): 64
0    |  MIDI Event: Chan 1 Note OFF: B3, Velocity (0 - 127): 64
0    |  MIDI Event: Chan 1 Note OFF: D4, Velocity (0 - 127): 64
0    |  MIDI Event: Chan 2 Note OFF: G1, Velocity (0 - 127): 64
0    |  MIDI Event: Chan 5 Note OFF: G2, Velocity (0 - 127): 64
1    |  MIDI Event: Chan 1 Note ON: F#3, Velocity (0 - 127): 35
0    |  MIDI Event: Chan 1 Note ON: A3, Velocity (0 - 127): 85
0    |  MIDI Event: Chan 1 Note ON: D4, Velocity (0 - 127): 79
0    |  MIDI Event: Chan 2 Note ON: D2, Velocity (0 - 127): 100
0    |  MIDI Event: Chan 5 Note ON: A2, Velocity (0 - 127): 90
0    |  MIDI Event: Chan 5 Note ON: D3, Velocity (0 - 127): 105
0    |  MIDI Event: Chan 10 Note ON: B1, Velocity (0 - 127): 120
29   |  MIDI Event: Chan 10 Note OFF: B1, Velocity (0 - 127): 64
30   |  MIDI Event: Chan 4 Note OFF: B3, Velocity (0 - 127): 64
0    |  MIDI Event: Chan 1 Note OFF: D4, Velocity (0 - 127): 64
0    |  MIDI Event: Chan 1 Note OFF: F#3, Velocity (0 - 127): 64
0    |  MIDI Event: Chan 5 Note OFF: D3, Velocity (0 - 127): 64
0    |  MIDI Event: Chan 1 Note OFF: A3, Velocity (0 - 127): 64
0    |  MIDI Event: Chan 5 Note OFF: A2, Velocity (0 - 127): 64
1    |  MIDI Event: Chan 1 Note ON: A3, Velocity (0 - 127): 69
0    |  MIDI Event: Chan 1 Note ON: D4, Velocity (0 - 127): 98
0    |  MIDI Event: Chan 1 Note ON: F#4, Velocity (0 - 127): 74
0    |  MIDI Event: Chan 4 Note ON: A3, Velocity (0 - 127): 120
0    |  MIDI Event: Chan 5 Note ON: A2, Velocity (0 - 127): 100
0    |  MIDI Event: Chan 5 Note ON: D3, Velocity (0 - 127): 111
0    |  MIDI Event: Chan 5 Note ON: F#3, Velocity (0 - 127): 89
0    |  MIDI Event: Chan 10 Note ON: D#2, Velocity (0 - 127): 120
0    |  MIDI Event: Chan 10 Note ON: C#5, Velocity (0 - 127): 119
0    |  Meta Event: Lyric: der 
0    |  Meta Event: Lyric: 
29   |  MIDI Event: Chan 10 Note OFF: C#5, Velocity (0 - 127): 64
0    |  MIDI Event: Chan 10 Note OFF: D#2, Velocity (0 - 127): 64
0    |  MIDI Event: Chan 4 Note OFF: A3, Velocity (0 - 127): 64
30   |  MIDI Event: Chan 2 Note OFF: D2, Velocity (0 - 127): 64
1    |  MIDI Event: Chan 2 Note ON: D2, Velocity (0 - 127): 100
0    |  MIDI Event: Chan 10 Note ON: B1, Velocity (0 - 127): 120
29   |  MIDI Event: Chan 10 Note OFF: B1, Velocity (0 - 127): 64
0    |  MIDI Event: Chan 5 Note OFF: F#3, Velocity (0 - 127): 64
0    |  MIDI Event: Chan 5 Note OFF: A2, Velocity (0 - 127): 64
0    |  MIDI Event: Chan 1 Note OFF: D4, Velocity (0 - 127): 64
0    |  MIDI Event: Chan 1 Note OFF: F#4, Velocity (0 - 127): 64
0    |  MIDI Event: Chan 1 Note OFF: A3, Velocity (0 - 127): 64
0    |  MIDI Event: Chan 5 Note OFF: D3, Velocity (0 - 127): 64
1    |  MIDI Event: Chan 1 Note ON: F#3, Velocity (0 - 127): 44
0    |  MIDI Event: Chan 1 Note ON: A3, Velocity (0 - 127): 78
0    |  MIDI Event: Chan 1 Note ON: D4, Velocity (0 - 127): 58
0    |  MIDI Event: Chan 5 Note ON: A2, Velocity (0 - 127): 85
0    |  MIDI Event: Chan 5 Note ON: D3, Velocity (0 - 127): 105
0    |  MIDI Event: Chan 5 Note ON: F#3, Velocity (0 - 127): 81
29   |  MIDI Event: Chan 5 Note OFF: F#3, Velocity (0 - 127): 64
0    |  MIDI Event: Chan 5 Note OFF: A2, Velocity (0 - 127): 64
0    |  MIDI Event: Chan 1 Note OFF: F#3, Velocity (0 - 127): 64
0    |  MIDI Event: Chan 1 Note OFF: A3, Velocity (0 - 127): 64
0    |  MIDI Event: Chan 1 Note OFF: D4, Velocity (0 - 127): 64
0    |  MIDI Event: Chan 5 Note OFF: D3, Velocity (0 - 127): 64
1    |  MIDI Event: Chan 1 Note ON: A3, Velocity (0 - 127): 57
0    |  MIDI Event: Chan 1 Note ON: D4, Velocity (0 - 127): 91
0    |  MIDI Event: Chan 1 Note ON: F#4, Velocity (0 - 127): 77
0    |  MIDI Event: Chan 5 Note ON: D3, Velocity (0 - 127): 109
0    |  MIDI Event: Chan 5 Note ON: F#3, Velocity (0 - 127): 89
0    |  MIDI Event: Chan 5 Note ON: A3, Velocity (0 - 127): 109
0    |  MIDI Event: Chan 10 Note ON: D#2, Velocity (0 - 127): 120
0    |  MIDI Event: Chan 10 Note ON: C#5, Velocity (0 - 127): 111
29   |  MIDI Event: Chan 10 Note OFF: C#5, Velocity (0 - 127): 64
0    |  MIDI Event: Chan 1 Note OFF: F#4, Velocity (0 - 127): 64
0    |  MIDI Event: Chan 10 Note OFF: D#2, Velocity (0 - 127): 64
0    |  MIDI Event: Chan 5 Note OFF: D3, Velocity (0 - 127): 64
0    |  MIDI Event: Chan 1 Note OFF: A3, Velocity (0 - 127): 64
0    |  MIDI Event: Chan 1 Note OFF: D4, Velocity (0 - 127): 64
0    |  MIDI Event: Chan 5 Note OFF: A3, Velocity (0 - 127): 64
0    |  MIDI Event: Chan 5 Note OFF: F#3, Velocity (0 - 127): 64
1    |  MIDI Event: Chan 1 Note ON: F#3, Velocity (0 - 127): 35
0    |  MIDI Event: Chan 1 Note ON: A3, Velocity (0 - 127): 79
0    |  MIDI Event: Chan 1 Note ON: D4, Velocity (0 - 127): 56
0    |  MIDI Event: Chan 5 Note ON: D3, Velocity (0 - 127): 111
0    |  MIDI Event: Chan 5 Note ON: F#3, Velocity (0 - 127): 100
0    |  MIDI Event: Chan 5 Note ON: A3, Velocity (0 - 127): 100
29   |  MIDI Event: Chan 5 Note OFF: A3, Velocity (0 - 127): 64
0    |  MIDI Event: Chan 5 Note OFF: D3, Velocity (0 - 127): 64
0    |  MIDI Event: Chan 1 Note OFF: F#3, Velocity (0 - 127): 64
0    |  MIDI Event: Chan 1 Note OFF: A3, Velocity (0 - 127): 64
0    |  MIDI Event: Chan 2 Note OFF: D2, Velocity (0 - 127): 64
0    |  MIDI Event: Chan 5 Note OFF: F#3, Velocity (0 - 127): 64
0    |  MIDI Event: Chan 1 Note OFF: D4, Velocity (0 - 127): 64
1    |  MIDI Event: Chan 1 Note ON: F#3, Velocity (0 - 127): 49
0    |  MIDI Event: Chan 1 Note ON: A3, Velocity (0 - 127): 85
0    |  MIDI Event: Chan 1 Note ON: D4, Velocity (0 - 127): 75
0    |  MIDI Event: Chan 2 Note ON: D2, Velocity (0 - 127): 100
0    |  MIDI Event: Chan 5 Note ON: A2, Velocity (0 - 127): 105
0    |  MIDI Event: Chan 5 Note ON: D3, Velocity (0 - 127): 116
0    |  MIDI Event: Chan 10 Note ON: B1, Velocity (0 - 127): 119
29   |  MIDI Event: Chan 10 Note OFF: B1, Velocity (0 - 127): 64
30   |  MIDI Event: Chan 5 Note OFF: A2, Velocity (0 - 127): 64
0    |  MIDI Event: Chan 1 Note OFF: A3, Velocity (0 - 127): 64
0    |  MIDI Event: Chan 1 Note OFF: F#3, Velocity (0 - 127): 64
0    |  MIDI Event: Chan 1 Note OFF: D4, Velocity (0 - 127): 64
0    |  MIDI Event: Chan 5 Note OFF: D3, Velocity (0 - 127): 64
1    |  MIDI Event: Chan 1 Note ON: A3, Velocity (0 - 127): 56
0    |  MIDI Event: Chan 1 Note ON: D4, Velocity (0 - 127): 84
0    |  MIDI Event: Chan 1 Note ON: F#4, Velocity (0 - 127): 49
0    |  MIDI Event: Chan 5 Note ON: D3, Velocity (0 - 127): 105
0    |  MIDI Event: Chan 5 Note ON: F#3, Velocity (0 - 127): 115
0    |  MIDI Event: Chan 10 Note ON: D#2, Velocity (0 - 127): 120
0    |  MIDI Event: Chan 10 Note ON: C#5, Velocity (0 - 127): 120
29   |  MIDI Event: Chan 10 Note OFF: C#5, Velocity (0 - 127): 64
0    |  MIDI Event: Chan 10 Note OFF: D#2, Velocity (0 - 127): 64
0    |  MIDI Event: Chan 5 Note OFF: D3, Velocity (0 - 127): 64
0    |  MIDI Event: Chan 1 Note OFF: A3, Velocity (0 - 127): 64
0    |  MIDI Event: Chan 1 Note OFF: D4, Velocity (0 - 127): 64
0    |  MIDI Event: Chan 1 Note OFF: F#4, Velocity (0 - 127): 64
0    |  MIDI Event: Chan 5 Note OFF: F#3, Velocity (0 - 127): 64
1    |  MIDI Event: Chan 1 Note ON: A3, Velocity (0 - 127): 84
0    |  MIDI Event: Chan 1 Note ON: D4, Velocity (0 - 127): 94
0    |  MIDI Event: Chan 1 Note ON: F#4, Velocity (0 - 127): 76
0    |  MIDI Event: Chan 5 Note ON: D3, Velocity (0 - 127): 100
0    |  MIDI Event: Chan 5 Note ON: F#3, Velocity (0 - 127): 92
29   |  MIDI Event: Chan 5 Note OFF: F#3, Velocity (0 - 127): 64
0    |  MIDI Event: Chan 1 Note OFF: A3, Velocity (0 - 127): 64
0    |  MIDI Event: Chan 1 Note OFF: D4, Velocity (0 - 127): 64
0    |  MIDI Event: Chan 2 Note OFF: D2, Velocity (0 - 127): 64
0    |  MIDI Event: Chan 5 Note OFF: D3, Velocity (0 - 127): 64
0    |  MIDI Event: Chan 1 Note OFF: F#4, Velocity (0 - 127): 64
1    |  MIDI Event: Chan 1 Note ON: E3, Velocity (0 - 127): 47
0    |  MIDI Event: Chan 1 Note ON: A3, Velocity (0 - 127): 89
0    |  MIDI Event: Chan 1 Note ON: C#4, Velocity (0 - 127): 52
0    |  MIDI Event: Chan 2 Note ON: F#1, Velocity (0 - 127): 100
0    |  MIDI Event: Chan 4 Note ON: B3, Velocity (0 - 127): 119
0    |  MIDI Event: Chan 5 Note ON: A2, Velocity (0 - 127): 101
0    |  MIDI Event: Chan 5 Note ON: E3, Velocity (0 - 127): 101
0    |  MIDI Event: Chan 10 Note ON: B1, Velocity (0 - 127): 120
0    |  Meta Event: Lyric: All 
29   |  MIDI Event: Chan 10 Note OFF: B1, Velocity (0 - 127): 64
0    |  MIDI Event: Chan 4 Note OFF: B3, Velocity (0 - 127): 64
30   |  MIDI Event: Chan 5 Note OFF: A2, Velocity (0 - 127): 64
0    |  MIDI Event: Chan 1 Note OFF: A3, Velocity (0 - 127): 64
0    |  MIDI Event: Chan 1 Note OFF: E3, Velocity (0 - 127): 64
0    |  MIDI Event: Chan 1 Note OFF: C#4, Velocity (0 - 127): 64
0    |  MIDI Event: Chan 5 Note OFF: E3, Velocity (0 - 127): 64
1    |  MIDI Event: Chan 1 Note ON: A3, Velocity (0 - 127): 51
0    |  MIDI Event: Chan 1 Note ON: C#4, Velocity (0 - 127): 52
0    |  MIDI Event: Chan 1 Note ON: E4, Velocity (0 - 127): 78
0    |  MIDI Event: Chan 4 Note ON: C#4, Velocity (0 - 127): 120
0    |  MIDI Event: Chan 5 Note ON: C#3, Velocity (0 - 127): 89
0    |  MIDI Event: Chan 5 Note ON: E3, Velocity (0 - 127): 101
0    |  MIDI Event: Chan 5 Note ON: A3, Velocity (0 - 127): 89
0    |  MIDI Event: Chan 10 Note ON: D#2, Velocity (0 - 127): 120
0    |  MIDI Event: Chan 10 Note ON: C#5, Velocity (0 - 127): 119
0    |  Meta Event: Lyric: this 
29   |  MIDI Event: Chan 10 Note OFF: C#5, Velocity (0 - 127): 64
0    |  MIDI Event: Chan 1 Note OFF: C#4, Velocity (0 - 127): 64
0    |  MIDI Event: Chan 1 Note OFF: E4, Velocity (0 - 127): 64
0    |  MIDI Event: Chan 10 Note OFF: D#2, Velocity (0 - 127): 64
0    |  MIDI Event: Chan 4 Note OFF: C#4, Velocity (0 - 127): 64
0    |  MIDI Event: Chan 1 Note OFF: A3, Velocity (0 - 127): 64
0    |  MIDI Event: Chan 5 Note OFF: A3, Velocity (0 - 127): 64
0    |  MIDI Event: Chan 5 Note OFF: E3, Velocity (0 - 127): 64
0    |  MIDI Event: Chan 5 Note OFF: C#3, Velocity (0 - 127): 64
1    |  MIDI Event: Chan 1 Note ON: A3, Velocity (0 - 127): 73
0    |  MIDI Event: Chan 1 Note ON: C#4, Velocity (0 - 127): 52
0    |  MIDI Event: Chan 1 Note ON: E4, Velocity (0 - 127): 83
0    |  MIDI Event: Chan 5 Note ON: C#3, Velocity (0 - 127): 119
0    |  MIDI Event: Chan 5 Note ON: E3, Velocity (0 - 127): 118
0    |  MIDI Event: Chan 5 Note ON: A3, Velocity (0 - 127): 105
29   |  MIDI Event: Chan 5 Note OFF: A3, Velocity (0 - 127): 64
0    |  MIDI Event: Chan 5 Note OFF: C#3, Velocity (0 - 127): 64
0    |  MIDI Event: Chan 1 Note OFF: A3, Velocity (0 - 127): 64
0    |  MIDI Event: Chan 1 Note OFF: C#4, Velocity (0 - 127): 64
0    |  MIDI Event: Chan 2 Note OFF: F#1, Velocity (0 - 127): 64
0    |  MIDI Event: Chan 5 Note OFF: E3, Velocity (0 - 127): 64
0    |  MIDI Event: Chan 1 Note OFF: E4, Velocity (0 - 127): 64
1    |  MIDI Event: Chan 1 Note ON: B3, Velocity (0 - 127): 58
0    |  MIDI Event: Chan 1 Note ON: D4, Velocity (0 - 127): 91
0    |  MIDI Event: Chan 2 Note ON: B1, Velocity (0 - 127): 100
0    |  MIDI Event: Chan 4 Note ON: D4, Velocity (0 - 127): 116
0    |  MIDI Event: Chan 5 Note ON: B2, Velocity (0 - 127): 85
0    |  MIDI Event: Chan 5 Note ON: F#3, Velocity (0 - 127): 120
0    |  MIDI Event: Chan 10 Note ON: B1, Velocity (0 - 127): 120
0    |  Meta Event: Lyric: time 
29   |  MIDI Event: Chan 10 Note OFF: B1, Velocity (0 - 127): 64
30   |  MIDI Event: Chan 5 Note OFF: B2, Velocity (0 - 127): 64
0    |  MIDI Event: Chan 1 Note OFF: D4, Velocity (0 - 127): 64
0    |  MIDI Event: Chan 1 Note OFF: B3, Velocity (0 - 127): 64
0    |  MIDI Event: Chan 5 Note OFF: F#3, Velocity (0 - 127): 64
1    |  MIDI Event: Chan 1 Note ON: B3, Velocity (0 - 127): 79
0    |  MIDI Event: Chan 1 Note ON: D4, Velocity (0 - 127): 95
0    |  MIDI Event: Chan 1 Note ON: F#4, Velocity (0 - 127): 74
0    |  MIDI Event: Chan 5 Note ON: D3, Velocity (0 - 127): 92
0    |  MIDI Event: Chan 5 Note ON: F#3, Velocity (0 - 127): 87
0    |  MIDI Event: Chan 5 Note ON: D4, Velocity (0 - 127): 95
0    |  MIDI Event: Chan 10 Note ON: D#2, Velocity (0 - 127): 120
0    |  MIDI Event: Chan 10 Note ON: C#5, Velocity (0 - 127): 119
29   |  MIDI Event: Chan 10 Note OFF: C#5, Velocity (0 - 127): 64
0    |  MIDI Event: Chan 10 Note OFF: D#2, Velocity (0 - 127): 64
0    |  MIDI Event: Chan 4 Note OFF: D4, Velocity (0 - 127): 64
30   |  MIDI Event: Chan 2 Note OFF: B1, Velocity (0 - 127): 64
1    |  MIDI Event: Chan 2 Note ON: B1, Velocity (0 - 127): 100
0    |  MIDI Event: Chan 4 Note ON: F#4, Velocity (0 - 127): 120
0    |  MIDI Event: Chan 10 Note ON: B1, Velocity (0 - 127): 120
0    |  Meta Event: Lyric: I 
29   |  MIDI Event: Chan 10 Note OFF: B1, Velocity (0 - 127): 64
0    |  MIDI Event: Chan 1 Note OFF: D4, Velocity (0 - 127): 64
0    |  MIDI Event: Chan 5 Note OFF: D4, Velocity (0 - 127): 64
0    |  MIDI Event: Chan 4 Note OFF: F#4, Velocity (0 - 127): 64
0    |  MIDI Event: Chan 1 Note OFF: B3, Velocity (0 - 127): 64
0    |  MIDI Event: Chan 1 Note OFF: F#4, Velocity (0 - 127): 64
0    |  MIDI Event: Chan 5 Note OFF: D3, Velocity (0 - 127): 64
0    |  MIDI Event: Chan 5 Note OFF: F#3, Velocity (0 - 127): 64
1    |  MIDI Event: Chan 1 Note ON: B3, Velocity (0 - 127): 71
0    |  MIDI Event: Chan 1 Note ON: D4, Velocity (0 - 127): 91
0    |  MIDI Event: Chan 1 Note ON: F#4, Velocity (0 - 127): 60
0    |  MIDI Event: Chan 5 Note ON: F#3, Velocity (0 - 127): 109
0    |  MIDI Event: Chan 5 Note ON: B3, Velocity (0 - 127): 95
29   |  MIDI Event: Chan 5 Note OFF: B3, Velocity (0 - 127): 64
0    |  MIDI Event: Chan 1 Note OFF: B3, Velocity (0 - 127): 64
0    |  MIDI Event: Chan 1 Note OFF: D4, Velocity (0 - 127): 64
0    |  MIDI Event: Chan 1 Note OFF: F#4, Velocity (0 - 127): 64
0    |  MIDI Event: Chan 5 Note OFF: F#3, Velocity (0 - 127): 64
1    |  MIDI Event: Chan 1 Note ON: D4, Velocity (0 - 127): 80
0    |  MIDI Event: Chan 1 Note ON: F#4, Velocity (0 - 127): 62
0    |  MIDI Event: Chan 1 Note ON: B4, Velocity (0 - 127): 91
0    |  MIDI Event: Chan 4 Note ON: F#4, Velocity (0 - 127): 120
0    |  MIDI Event: Chan 5 Note ON: D3, Velocity (0 - 127): 103
0    |  MIDI Event: Chan 5 Note ON: F#3, Velocity (0 - 127): 115
0    |  MIDI Event: Chan 10 Note ON: D#2, Velocity (0 - 127): 120
0    |  MIDI Event: Chan 10 Note ON: C#5, Velocity (0 - 127): 119
0    |  Meta Event: Lyric: was 
29   |  MIDI Event: Chan 10 Note OFF: C#5, Velocity (0 - 127): 64
0    |  MIDI Event: Chan 1 Note OFF: B4, Velocity (0 - 127): 64
0    |  MIDI Event: Chan 10 Note OFF: D#2, Velocity (0 - 127): 64
0    |  MIDI Event: Chan 4 Note OFF: F#4, Velocity (0 - 127): 64
0    |  MIDI Event: Chan 1 Note OFF: D4, Velocity (0 - 127): 64
0    |  MIDI Event: Chan 1 Note OFF: F#4, Velocity (0 - 127): 64
0    |  MIDI Event: Chan 5 Note OFF: F#3, Velocity (0 - 127): 64
0    |  MIDI Event: Chan 5 Note OFF: D3, Velocity (0 - 127): 64
1    |  MIDI Event: Chan 1 Note ON: B3, Velocity (0 - 127): 51
0    |  MIDI Event: Chan 1 Note ON: D4, Velocity (0 - 127): 85
0    |  MIDI Event: Chan 1 Note ON: F#4, Velocity (0 - 127): 59
0    |  MIDI Event: Chan 5 Note ON: B2, Velocity (0 - 127): 92
0    |  MIDI Event: Chan 5 Note ON: E3, Velocity (0 - 127): 98
29   |  MIDI Event: Chan 5 Note OFF: E3, Velocity (0 - 127): 64
0    |  MIDI Event: Chan 1 Note OFF: B3, Velocity (0 - 127): 64
0    |  MIDI Event: Chan 1 Note OFF: D4, Velocity (0 - 127): 64
0    |  MIDI Event: Chan 2 Note OFF: B1, Velocity (0 - 127): 64
0    |  MIDI Event: Chan 5 Note OFF: B2, Velocity (0 - 127): 64
0    |  MIDI Event: Chan 1 Note OFF: F#4, Velocity (0 - 127): 64
1    |  MIDI Event: Chan 1 Note ON: G3, Velocity (0 - 127): 74
0    |  MIDI Event: Chan 1 Note ON: B3, Velocity (0 - 127): 94
0    |  MIDI Event: Chan 1 Note ON: D4, Velocity (0 - 127): 91
0    |  MIDI Event: Chan 2 Note ON: G1, Velocity (0 - 127): 100
0    |  MIDI Event: Chan 4 Note ON: E4, Velocity (0 - 127): 116
0    |  MIDI Event: Chan 5 Note ON: G2, Velocity (0 - 127): 98
0    |  MIDI Event: Chan 5 Note ON: D3, Velocity (0 - 127): 116
0    |  MIDI Event: Chan 10 Note ON: B1, Velocity (0 - 127): 120
0    |  Meta Event: Lyric: fin
29   |  MIDI Event: Chan 10 Note OFF: B1, Velocity (0 - 127): 64
30   |  MIDI Event: Chan 5 Note OFF: D3, Velocity (0 - 127): 64
0    |  MIDI Event: Chan 4 Note OFF: E4, Velocity (0 - 127): 64
0    |  MIDI Event: Chan 1 Note OFF: B3, Velocity (0 - 127): 64
0    |  MIDI Event: Chan 1 Note OFF: G3, Velocity (0 - 127): 64
0    |  MIDI Event: Chan 1 Note OFF: D4, Velocity (0 - 127): 64
0    |  MIDI Event: Chan 5 Note OFF: G2, Velocity (0 - 127): 64
1    |  MIDI Event: Chan 1 Note ON: B3, Velocity (0 - 127): 70
0    |  MIDI Event: Chan 1 Note ON: D4, Velocity (0 - 127): 94
0    |  MIDI Event: Chan 1 Note ON: G4, Velocity (0 - 127): 101
0    |  MIDI Event: Chan 5 Note ON: D3, Velocity (0 - 127): 79
0    |  MIDI Event: Chan 5 Note ON: G3, Velocity (0 - 127): 111
0    |  MIDI Event: Chan 5 Note ON: B3, Velocity (0 - 127): 100
0    |  MIDI Event: Chan 10 Note ON: D#2, Velocity (0 - 127): 120
0    |  MIDI Event: Chan 10 Note ON: C#5, Velocity (0 - 127): 119
29   |  MIDI Event: Chan 10 Note OFF: C#5, Velocity (0 - 127): 64
0    |  MIDI Event: Chan 10 Note OFF: D#2, Velocity (0 - 127): 64
1    |  MIDI Event: Chan 4 Note ON: D4, Velocity (0 - 127): 120
0    |  Meta Event: Lyric: ding 
29   |  MIDI Event: Chan 4 Note OFF: D4, Velocity (0 - 127): 64
0    |  MIDI Event: Chan 2 Note OFF: G1, Velocity (0 - 127): 64
1    |  MIDI Event: Chan 2 Note ON: G1, Velocity (0 - 127): 100
0    |  MIDI Event: Chan 10 Note ON: B1, Velocity (0 - 127): 120
29   |  MIDI Event: Chan 10 Note OFF: B1, Velocity (0 - 127): 64
0    |  MIDI Event: Chan 1 Note OFF: B3, Velocity (0 - 127): 64
0    |  MIDI Event: Chan 5 Note OFF: G3, Velocity (0 - 127): 64
0    |  MIDI Event: Chan 1 Note OFF: D4, Velocity (0 - 127): 64
0    |  MIDI Event: Chan 1 Note OFF: G4, Velocity (0 - 127): 64
0    |  MIDI Event: Chan 5 Note OFF: D3, Velocity (0 - 127): 64
0    |  MIDI Event: Chan 5 Note OFF: B3, Velocity (0 - 127): 64
1    |  MIDI Event: Chan 1 Note ON: B3, Velocity (0 - 127): 52
0    |  MIDI Event: Chan 1 Note ON: D4, Velocity (0 - 127): 85
0    |  MIDI Event: Chan 1 Note ON: G4, Velocity (0 - 127): 94
0    |  MIDI Event: Chan 4 Note ON: E4, Velocity (0 - 127): 120
0    |  MIDI Event: Chan 5 Note ON: D3, Velocity (0 - 127): 82
0    |  MIDI Event: Chan 5 Note ON: G3, Velocity (0 - 127): 98
0    |  MIDI Event: Chan 5 Note ON: B3, Velocity (0 - 127): 85
0    |  Meta Event: Lyric: my
29   |  MIDI Event: Chan 5 Note OFF: B3, Velocity (0 - 127): 64
0    |  MIDI Event: Chan 5 Note OFF: G3, Velocity (0 - 127): 64
0    |  MIDI Event: Chan 1 Note OFF: G4, Velocity (0 - 127): 64
0    |  MIDI Event: Chan 1 Note OFF: B3, Velocity (0 - 127): 64
0    |  MIDI Event: Chan 1 Note OFF: D4, Velocity (0 - 127): 64
0    |  MIDI Event: Chan 5 Note OFF: D3, Velocity (0 - 127): 64
1    |  MIDI Event: Chan 1 Note ON: D4, Velocity (0 - 127): 78
0    |  MIDI Event: Chan 1 Note ON: G4, Velocity (0 - 127): 100
0    |  MIDI Event: Chan 1 Note ON: B4, Velocity (0 - 127): 46
0    |  MIDI Event: Chan 5 Note ON: G2, Velocity (0 - 127): 109
0    |  MIDI Event: Chan 5 Note ON: D3, Velocity (0 - 127): 109
0    |  MIDI Event: Chan 10 Note ON: D#2, Velocity (0 - 127): 120
0    |  MIDI Event: Chan 10 Note ON: C#5, Velocity (0 - 127): 119
29   |  MIDI Event: Chan 10 Note OFF: C#5, Velocity (0 - 127): 64
0    |  MIDI Event: Chan 1 Note OFF: G4, Velocity (0 - 127): 64
0    |  MIDI Event: Chan 10 Note OFF: D#2, Velocity (0 - 127): 64
0    |  MIDI Event: Chan 1 Note OFF: B4, Velocity (0 - 127): 64
0    |  MIDI Event: Chan 4 Note OFF: E4, Velocity (0 - 127): 64
0    |  MIDI Event: Chan 1 Note OFF: D4, Velocity (0 - 127): 64
0    |  MIDI Event: Chan 5 Note OFF: D3, Velocity (0 - 127): 64
0    |  MIDI Event: Chan 5 Note OFF: G2, Velocity (0 - 127): 64
1    |  MIDI Event: Chan 1 Note ON: B3, Velocity (0 - 127): 45
0    |  MIDI Event: Chan 1 Note ON: D4, Velocity (0 - 127): 73
0    |  MIDI Event: Chan 1 Note ON: G4, Velocity (0 - 127): 86
0    |  MIDI Event: Chan 5 Note ON: G2, Velocity (0 - 127): 101
0    |  MIDI Event: Chan 5 Note ON: E3, Velocity (0 - 127): 116
29   |  MIDI Event: Chan 5 Note OFF: E3, Velocity (0 - 127): 64
0    |  MIDI Event: Chan 1 Note OFF: B3, Velocity (0 - 127): 64
0    |  MIDI Event: Chan 1 Note OFF: D4, Velocity (0 - 127): 64
0    |  MIDI Event: Chan 2 Note OFF: G1, Velocity (0 - 127): 64
0    |  MIDI Event: Chan 5 Note OFF: G2, Velocity (0 - 127): 64
0    |  MIDI Event: Chan 1 Note OFF: G4, Velocity (0 - 127): 64
1    |  MIDI Event: Chan 1 Note ON: F#3, Velocity (0 - 127): 35
0    |  MIDI Event: Chan 1 Note ON: A3, Velocity (0 - 127): 85
0    |  MIDI Event: Chan 1 Note ON: D4, Velocity (0 - 127): 79
0    |  MIDI Event: Chan 2 Note ON: D2, Velocity (0 - 127): 100
0    |  MIDI Event: Chan 4 Note ON: D4, Velocity (0 - 127): 120
0    |  MIDI Event: Chan 5 Note ON: A2, Velocity (0 - 127): 90
0    |  MIDI Event: Chan 5 Note ON: D3, Velocity (0 - 127): 105
0    |  MIDI Event: Chan 10 Note ON: B1, Velocity (0 - 127): 120
0    |  Meta Event: Lyric: self 
0    |  Meta Event: Lyric: 
29   |  MIDI Event: Chan 10 Note OFF: B1, Velocity (0 - 127): 64
30   |  MIDI Event: Chan 5 Note OFF: D3, Velocity (0 - 127): 64
0    |  MIDI Event: Chan 1 Note OFF: D4, Velocity (0 - 127): 64
0    |  MIDI Event: Chan 1 Note OFF: A3, Velocity (0 - 127): 64
0    |  MIDI Event: Chan 1 Note OFF: F#3, Velocity (0 - 127): 64
0    |  MIDI Event: Chan 5 Note OFF: A2, Velocity (0 - 127): 64
1    |  MIDI Event: Chan 1 Note ON: A3, Velocity (0 - 127): 69
0    |  MIDI Event: Chan 1 Note ON: D4, Velocity (0 - 127): 98
0    |  MIDI Event: Chan 1 Note ON: F#4, Velocity (0 - 127): 74
0    |  MIDI Event: Chan 5 Note ON: A2, Velocity (0 - 127): 100
0    |  MIDI Event: Chan 5 Note ON: D3, Velocity (0 - 127): 111
0    |  MIDI Event: Chan 5 Note ON: F#3, Velocity (0 - 127): 89
0    |  MIDI Event: Chan 10 Note ON: D#2, Velocity (0 - 127): 119
0    |  MIDI Event: Chan 10 Note ON: C#5, Velocity (0 - 127): 119
29   |  MIDI Event: Chan 10 Note OFF: C#5, Velocity (0 - 127): 64
0    |  MIDI Event: Chan 10 Note OFF: D#2, Velocity (0 - 127): 64
30   |  MIDI Event: Chan 4 Note OFF: D4, Velocity (0 - 127): 64
0    |  MIDI Event: Chan 2 Note OFF: D2, Velocity (0 - 127): 64
1    |  MIDI Event: Chan 2 Note ON: D2, Velocity (0 - 127): 100
0    |  MIDI Event: Chan 10 Note ON: B1, Velocity (0 - 127): 120
29   |  MIDI Event: Chan 10 Note OFF: B1, Velocity (0 - 127): 64
0    |  MIDI Event: Chan 1 Note OFF: F#4, Velocity (0 - 127): 64
0    |  MIDI Event: Chan 5 Note OFF: A2, Velocity (0 - 127): 64
0    |  MIDI Event: Chan 1 Note OFF: A3, Velocity (0 - 127): 64
0    |  MIDI Event: Chan 5 Note OFF: F#3, Velocity (0 - 127): 64
0    |  MIDI Event: Chan 1 Note OFF: D4, Velocity (0 - 127): 64
0    |  MIDI Event: Chan 5 Note OFF: D3, Velocity (0 - 127): 64
1    |  MIDI Event: Chan 1 Note ON: F#3, Velocity (0 - 127): 44
0    |  MIDI Event: Chan 1 Note ON: A3, Velocity (0 - 127): 78
0    |  MIDI Event: Chan 1 Note ON: D4, Velocity (0 - 127): 58
0    |  MIDI Event: Chan 5 Note ON: A2, Velocity (0 - 127): 85
0    |  MIDI Event: Chan 5 Note ON: D3, Velocity (0 - 127): 105
0    |  MIDI Event: Chan 5 Note ON: F#3, Velocity (0 - 127): 81
29   |  MIDI Event: Chan 5 Note OFF: F#3, Velocity (0 - 127): 64
0    |  MIDI Event: Chan 5 Note OFF: A2, Velocity (0 - 127): 64
0    |  MIDI Event: Chan 1 Note OFF: F#3, Velocity (0 - 127): 64
0    |  MIDI Event: Chan 1 Note OFF: A3, Velocity (0 - 127): 64
0    |  MIDI Event: Chan 1 Note OFF: D4, Velocity (0 - 127): 64
0    |  MIDI Event: Chan 5 Note OFF: D3, Velocity (0 - 127): 64
1    |  MIDI Event: Chan 1 Note ON: A3, Velocity (0 - 127): 57
0    |  MIDI Event: Chan 1 Note ON: D4, Velocity (0 - 127): 91
0    |  MIDI Event: Chan 1 Note ON: F#4, Velocity (0 - 127): 77
0    |  MIDI Event: Chan 4 Note ON: A3, Velocity (0 - 127): 120
0    |  MIDI Event: Chan 5 Note ON: D3, Velocity (0 - 127): 109
0    |  MIDI Event: Chan 5 Note ON: F#3, Velocity (0 - 127): 89
0    |  MIDI Event: Chan 5 Note ON: A3, Velocity (0 - 127): 109
0    |  MIDI Event: Chan 10 Note ON: D#2, Velocity (0 - 127): 120
0    |  MIDI Event: Chan 10 Note ON: C#5, Velocity (0 - 127): 119
0    |  Meta Event: Lyric: And 
29   |  MIDI Event: Chan 10 Note OFF: C#5, Velocity (0 - 127): 64
0    |  MIDI Event: Chan 1 Note OFF: D4, Velocity (0 - 127): 64
0    |  MIDI Event: Chan 1 Note OFF: F#4, Velocity (0 - 127): 64
0    |  MIDI Event: Chan 10 Note OFF: D#2, Velocity (0 - 127): 64
0    |  MIDI Event: Chan 4 Note OFF: A3, Velocity (0 - 127): 64
0    |  MIDI Event: Chan 1 Note OFF: A3, Velocity (0 - 127): 64
0    |  MIDI Event: Chan 5 Note OFF: A3, Velocity (0 - 127): 64
0    |  MIDI Event: Chan 5 Note OFF: F#3, Velocity (0 - 127): 64
0    |  MIDI Event: Chan 5 Note OFF: D3, Velocity (0 - 127): 64
1    |  MIDI Event: Chan 1 Note ON: F#3, Velocity (0 - 127): 35
0    |  MIDI Event: Chan 1 Note ON: A3, Velocity (0 - 127): 79
0    |  MIDI Event: Chan 1 Note ON: D4, Velocity (0 - 127): 56
0    |  MIDI Event: Chan 4 Note ON: A3, Velocity (0 - 127): 109
0    |  MIDI Event: Chan 5 Note ON: D3, Velocity (0 - 127): 111
0    |  MIDI Event: Chan 5 Note ON: F#3, Velocity (0 - 127): 100
0    |  MIDI Event: Chan 5 Note ON: A3, Velocity (0 - 127): 100
0    |  Meta Event: Lyric: I 
29   |  MIDI Event: Chan 5 Note OFF: A3, Velocity (0 - 127): 64
0    |  MIDI Event: Chan 2 Note OFF: D2, Velocity (0 - 127): 64
0    |  MIDI Event: Chan 1 Note OFF: D4, Velocity (0 - 127): 64
0    |  MIDI Event: Chan 1 Note OFF: F#3, Velocity (0 - 127): 64
0    |  MIDI Event: Chan 5 Note OFF: F#3, Velocity (0 - 127): 64
0    |  MIDI Event: Chan 1 Note OFF: A3, Velocity (0 - 127): 64
0    |  MIDI Event: Chan 5 Note OFF: D3, Velocity (0 - 127): 64
1    |  MIDI Event: Chan 1 Note ON: F#3, Velocity (0 - 127): 49
0    |  MIDI Event: Chan 1 Note ON: A3, Velocity (0 - 127): 85
0    |  MIDI Event: Chan 1 Note ON: D4, Velocity (0 - 127): 75
0    |  MIDI Event: Chan 2 Note ON: D2, Velocity (0 - 127): 100
0    |  MIDI Event: Chan 5 Note ON: A2, Velocity (0 - 127): 105
0    |  MIDI Event: Chan 5 Note ON: D3, Velocity (0 - 127): 116
0    |  MIDI Event: Chan 10 Note ON: B1, Velocity (0 - 127): 120
29   |  MIDI Event: Chan 10 Note OFF: B1, Velocity (0 - 127): 64
30   |  MIDI Event: Chan 5 Note OFF: D3, Velocity (0 - 127): 64
0    |  MIDI Event: Chan 1 Note OFF: D4, Velocity (0 - 127): 64
0    |  MIDI Event: Chan 1 Note OFF: F#3, Velocity (0 - 127): 64
0    |  MIDI Event: Chan 1 Note OFF: A3, Velocity (0 - 127): 64
0    |  MIDI Event: Chan 5 Note OFF: A2, Velocity (0 - 127): 64
1    |  MIDI Event: Chan 1 Note ON: A3, Velocity (0 - 127): 56
0    |  MIDI Event: Chan 1 Note ON: D4, Velocity (0 - 127): 84
0    |  MIDI Event: Chan 1 Note ON: F#4, Velocity (0 - 127): 49
0    |  MIDI Event: Chan 5 Note ON: D3, Velocity (0 - 127): 105
0    |  MIDI Event: Chan 5 Note ON: F#3, Velocity (0 - 127): 115
0    |  MIDI Event: Chan 10 Note ON: D#2, Velocity (0 - 127): 115
0    |  MIDI Event: Chan 10 Note ON: C#5, Velocity (0 - 127): 115
29   |  MIDI Event: Chan 10 Note OFF: C#5, Velocity (0 - 127): 64
0    |  MIDI Event: Chan 1 Note OFF: D4, Velocity (0 - 127): 64
0    |  MIDI Event: Chan 10 Note OFF: D#2, Velocity (0 - 127): 64
0    |  MIDI Event: Chan 1 Note OFF: F#4, Velocity (0 - 127): 64
0    |  MIDI Event: Chan 5 Note OFF: F#3, Velocity (0 - 127): 64
0    |  MIDI Event: Chan 1 Note OFF: A3, Velocity (0 - 127): 64
0    |  MIDI Event: Chan 5 Note OFF: D3, Velocity (0 - 127): 64
1    |  MIDI Event: Chan 1 Note ON: A3, Velocity (0 - 127): 84
0    |  MIDI Event: Chan 1 Note ON: D4, Velocity (0 - 127): 94
0    |  MIDI Event: Chan 1 Note ON: F#4, Velocity (0 - 127): 76
0    |  MIDI Event: Chan 5 Note ON: D3, Velocity (0 - 127): 100
0    |  MIDI Event: Chan 5 Note ON: F#3, Velocity (0 - 127): 92
29   |  MIDI Event: Chan 5 Note OFF: F#3, Velocity (0 - 127): 64
0    |  MIDI Event: Chan 1 Note OFF: F#4, Velocity (0 - 127): 64
0    |  MIDI Event: Chan 2 Note OFF: D2, Velocity (0 - 127): 64
0    |  MIDI Event: Chan 1 Note OFF: A3, Velocity (0 - 127): 64
0    |  MIDI Event: Chan 1 Note OFF: D4, Velocity (0 - 127): 64
0    |  MIDI Event: Chan 5 Note OFF: D3, Velocity (0 - 127): 64
1    |  MIDI Event: Chan 1 Note ON: E3, Velocity (0 - 127): 47
0    |  MIDI Event: Chan 1 Note ON: A3, Velocity (0 - 127): 89
0    |  MIDI Event: Chan 1 Note ON: C#4, Velocity (0 - 127): 52
0    |  MIDI Event: Chan 2 Note ON: A1, Velocity (0 - 127): 100
0    |  MIDI Event: Chan 5 Note ON: A2, Velocity (0 - 127): 101
0    |  MIDI Event: Chan 5 Note ON: E3, Velocity (0 - 127): 101
0    |  MIDI Event: Chan 10 Note ON: B1, Velocity (0 - 127): 120
29   |  MIDI Event: Chan 10 Note OFF: B1, Velocity (0 - 127): 64
30   |  MIDI Event: Chan 5 Note OFF: E3, Velocity (0 - 127): 64
0    |  MIDI Event: Chan 1 Note OFF: C#4, Velocity (0 - 127): 64
0    |  MIDI Event: Chan 1 Note OFF: E3, Velocity (0 - 127): 64
0    |  MIDI Event: Chan 1 Note OFF: A3, Velocity (0 - 127): 64
0    |  MIDI Event: Chan 5 Note OFF: A2, Velocity (0 - 127): 64
1    |  MIDI Event: Chan 1 Note ON: A3, Velocity (0 - 127): 51
0    |  MIDI Event: Chan 1 Note ON: C#4, Velocity (0 - 127): 52
0    |  MIDI Event: Chan 1 Note ON: E4, Velocity (0 - 127): 78
0    |  MIDI Event: Chan 5 Note ON: C#3, Velocity (0 - 127): 89
0    |  MIDI Event: Chan 5 Note ON: E3, Velocity (0 - 127): 101
0    |  MIDI Event: Chan 5 Note ON: A3, Velocity (0 - 127): 89
0    |  MIDI Event: Chan 10 Note ON: D#2, Velocity (0 - 127): 119
0    |  MIDI Event: Chan 10 Note ON: C#5, Velocity (0 - 127): 115
29   |  MIDI Event: Chan 10 Note OFF: C#5, Velocity (0 - 127): 64
0    |  MIDI Event: Chan 1 Note OFF: A3, Velocity (0 - 127): 64
0    |  MIDI Event: Chan 1 Note OFF: C#4, Velocity (0 - 127): 64
0    |  MIDI Event: Chan 10 Note OFF: D#2, Velocity (0 - 127): 64
0    |  MIDI Event: Chan 1 Note OFF: E4, Velocity (0 - 127): 64
0    |  MIDI Event: Chan 4 Note OFF: A3, Velocity (0 - 127): 64
0    |  MIDI Event: Chan 5 Note OFF: A3, Velocity (0 - 127): 64
0    |  MIDI Event: Chan 5 Note OFF: E3, Velocity (0 - 127): 64
0    |  MIDI Event: Chan 5 Note OFF: C#3, Velocity (0 - 127): 64
1    |  MIDI Event: Chan 1 Note ON: A3, Velocity (0 - 127): 73
0    |  MIDI Event: Chan 1 Note ON: C#4, Velocity (0 - 127): 52
0    |  MIDI Event: Chan 1 Note ON: E4, Velocity (0 - 127): 83
0    |  MIDI Event: Chan 5 Note ON: C#3, Velocity (0 - 127): 119
0    |  MIDI Event: Chan 5 Note ON: E3, Velocity (0 - 127): 118
0    |  MIDI Event: Chan 5 Note ON: A3, Velocity (0 - 127): 105
29   |  MIDI Event: Chan 5 Note OFF: A3, Velocity (0 - 127): 64
0    |  MIDI Event: Chan 5 Note OFF: C#3, Velocity (0 - 127): 64
0    |  MIDI Event: Chan 1 Note OFF: A3, Velocity (0 - 127): 64
0    |  MIDI Event: Chan 1 Note OFF: C#4, Velocity (0 - 127): 64
0    |  MIDI Event: Chan 2 Note OFF: A1, Velocity (0 - 127): 64
0    |  MIDI Event: Chan 5 Note OFF: E3, Velocity (0 - 127): 64
0    |  MIDI Event: Chan 1 Note OFF: E4, Velocity (0 - 127): 64
1    |  MIDI Event: Chan 1 Note ON: B3, Velocity (0 - 127): 58
0    |  MIDI Event: Chan 1 Note ON: D4, Velocity (0 - 127): 91
0    |  MIDI Event: Chan 2 Note ON: B1, Velocity (0 - 127): 100
0    |  MIDI Event: Chan 5 Note ON: B2, Velocity (0 - 127): 85
0    |  MIDI Event: Chan 5 Note ON: F#3, Velocity (0 - 127): 120
0    |  MIDI Event: Chan 10 Note ON: B1, Velocity (0 - 127): 120
0    |  MIDI Event: Chan 13 Control/Mode Change: Sound Controller 5 (default: Brightness) (0-127): 21
0    |  MIDI Event: Chan 13 Control/Mode Change: Expression Control (0-127): 23
0    |  MIDI Event: Chan 13 Note ON: C4, Velocity (0 - 127): 120
15   |  MIDI Event: Chan 13 Control/Mode Change: Sound Controller 5 (default: Brightness) (0-127): 24
0    |  MIDI Event: Chan 13 Control/Mode Change: Expression Control (0-127): 25
14   |  MIDI Event: Chan 10 Note OFF: B1, Velocity (0 - 127): 64
1    |  MIDI Event: Chan 13 Control/Mode Change: Sound Controller 5 (default: Brightness) (0-127): 27
0    |  MIDI Event: Chan 13 Control/Mode Change: Expression Control (0-127): 27
15   |  MIDI Event: Chan 13 Control/Mode Change: Sound Controller 5 (default: Brightness) (0-127): 31
0    |  MIDI Event: Chan 13 Control/Mode Change: Expression Control (0-127): 29
14   |  MIDI Event: Chan 5 Note OFF: B2, Velocity (0 - 127): 64
0    |  MIDI Event: Chan 1 Note OFF: B3, Velocity (0 - 127): 64
0    |  MIDI Event: Chan 1 Note OFF: D4, Velocity (0 - 127): 64
0    |  MIDI Event: Chan 5 Note OFF: F#3, Velocity (0 - 127): 64
1    |  MIDI Event: Chan 1 Note ON: B3, Velocity (0 - 127): 79
0    |  MIDI Event: Chan 1 Note ON: D4, Velocity (0 - 127): 95
0    |  MIDI Event: Chan 1 Note ON: F#4, Velocity (0 - 127): 74
0    |  MIDI Event: Chan 5 Note ON: D3, Velocity (0 - 127): 92
0    |  MIDI Event: Chan 5 Note ON: F#3, Velocity (0 - 127): 87
0    |  MIDI Event: Chan 5 Note ON: D4, Velocity (0 - 127): 95
0    |  MIDI Event: Chan 10 Note ON: D#2, Velocity (0 - 127): 119
0    |  MIDI Event: Chan 10 Note ON: C#5, Velocity (0 - 127): 119
0    |  MIDI Event: Chan 13 Control/Mode Change: Sound Controller 5 (default: Brightness) (0-127): 34
0    |  MIDI Event: Chan 13 Control/Mode Change: Expression Control (0-127): 31
15   |  MIDI Event: Chan 13 Control/Mode Change: Sound Controller 5 (default: Brightness) (0-127): 38
0    |  MIDI Event: Chan 13 Control/Mode Change: Expression Control (0-127): 34
14   |  MIDI Event: Chan 10 Note OFF: C#5, Velocity (0 - 127): 64
0    |  MIDI Event: Chan 10 Note OFF: D#2, Velocity (0 - 127): 64
1    |  MIDI Event: Chan 13 Control/Mode Change: Sound Controller 5 (default: Brightness) (0-127): 41
0    |  MIDI Event: Chan 13 Control/Mode Change: Expression Control (0-127): 36
15   |  MIDI Event: Chan 13 Control/Mode Change: Sound Controller 5 (default: Brightness) (0-127): 44
0    |  MIDI Event: Chan 13 Control/Mode Change: Expression Control (0-127): 38
14   |  MIDI Event: Chan 2 Note OFF: B1, Velocity (0 - 127): 64
1    |  MIDI Event: Chan 2 Note ON: B1, Velocity (0 - 127): 100
0    |  MIDI Event: Chan 4 Note ON: A3, Velocity (0 - 127): 111
0    |  MIDI Event: Chan 10 Note ON: B1, Velocity (0 - 127): 120
0    |  MIDI Event: Chan 13 Control/Mode Change: Sound Controller 5 (default: Brightness) (0-127): 48
0    |  MIDI Event: Chan 13 Control/Mode Change: Expression Control (0-127): 40
0    |  Meta Event: Lyric: did
15   |  MIDI Event: Chan 13 Control/Mode Change: Sound Controller 5 (default: Brightness) (0-127): 51
0    |  MIDI Event: Chan 13 Control/Mode Change: Expression Control (0-127): 42
14   |  MIDI Event: Chan 10 Note OFF: B1, Velocity (0 - 127): 64
0    |  MIDI Event: Chan 1 Note OFF: D4, Velocity (0 - 127): 64
0    |  MIDI Event: Chan 4 Note OFF: A3, Velocity (0 - 127): 64
0    |  MIDI Event: Chan 5 Note OFF: D4, Velocity (0 - 127): 64
0    |  MIDI Event: Chan 5 Note OFF: D3, Velocity (0 - 127): 64
0    |  MIDI Event: Chan 1 Note OFF: B3, Velocity (0 - 127): 64
0    |  MIDI Event: Chan 1 Note OFF: F#4, Velocity (0 - 127): 64
0    |  MIDI Event: Chan 5 Note OFF: F#3, Velocity (0 - 127): 64
1    |  MIDI Event: Chan 1 Note ON: B3, Velocity (0 - 127): 71
0    |  MIDI Event: Chan 1 Note ON: D4, Velocity (0 - 127): 91
0    |  MIDI Event: Chan 1 Note ON: F#4, Velocity (0 - 127): 60
0    |  MIDI Event: Chan 5 Note ON: F#3, Velocity (0 - 127): 109
0    |  MIDI Event: Chan 5 Note ON: B3, Velocity (0 - 127): 95
0    |  MIDI Event: Chan 13 Control/Mode Change: Sound Controller 5 (default: Brightness) (0-127): 55
0    |  MIDI Event: Chan 13 Control/Mode Change: Expression Control (0-127): 45
15   |  MIDI Event: Chan 13 Control/Mode Change: Sound Controller 5 (default: Brightness) (0-127): 58
0    |  MIDI Event: Chan 13 Control/Mode Change: Expression Control (0-127): 47
14   |  MIDI Event: Chan 5 Note OFF: B3, Velocity (0 - 127): 64
0    |  MIDI Event: Chan 1 Note OFF: F#4, Velocity (0 - 127): 64
0    |  MIDI Event: Chan 1 Note OFF: D4, Velocity (0 - 127): 64
0    |  MIDI Event: Chan 1 Note OFF: B3, Velocity (0 - 127): 64
0    |  MIDI Event: Chan 5 Note OFF: F#3, Velocity (0 - 127): 64
1    |  MIDI Event: Chan 1 Note ON: D4, Velocity (0 - 127): 80
0    |  MIDI Event: Chan 1 Note ON: F#4, Velocity (0 - 127): 62
0    |  MIDI Event: Chan 1 Note ON: B4, Velocity (0 - 127): 91
0    |  MIDI Event: Chan 4 Note ON: A3, Velocity (0 - 127): 103
0    |  MIDI Event: Chan 5 Note ON: D3, Velocity (0 - 127): 103
0    |  MIDI Event: Chan 5 Note ON: F#3, Velocity (0 - 127): 115
0    |  MIDI Event: Chan 10 Note ON: D#2, Velocity (0 - 127): 120
0    |  MIDI Event: Chan 10 Note ON: C#5, Velocity (0 - 127): 111
0    |  MIDI Event: Chan 13 Control/Mode Change: Sound Controller 5 (default: Brightness) (0-127): 62
0    |  MIDI Event: Chan 13 Control/Mode Change: Expression Control (0-127): 49
0    |  Meta Event: Lyric: n't 
15   |  MIDI Event: Chan 13 Control/Mode Change: Sound Controller 5 (default: Brightness) (0-127): 65
0    |  MIDI Event: Chan 13 Control/Mode Change: Expression Control (0-127): 51
14   |  MIDI Event: Chan 10 Note OFF: C#5, Velocity (0 - 127): 64
0    |  MIDI Event: Chan 1 Note OFF: D4, Velocity (0 - 127): 64
0    |  MIDI Event: Chan 1 Note OFF: F#4, Velocity (0 - 127): 64
0    |  MIDI Event: Chan 10 Note OFF: D#2, Velocity (0 - 127): 64
0    |  MIDI Event: Chan 1 Note OFF: B4, Velocity (0 - 127): 64
0    |  MIDI Event: Chan 5 Note OFF: D3, Velocity (0 - 127): 64
0    |  MIDI Event: Chan 5 Note OFF: F#3, Velocity (0 - 127): 64
0    |  MIDI Event: Chan 4 Note OFF: A3, Velocity (0 - 127): 64
1    |  MIDI Event: Chan 1 Note ON: B3, Velocity (0 - 127): 51
0    |  MIDI Event: Chan 1 Note ON: D4, Velocity (0 - 127): 85
0    |  MIDI Event: Chan 1 Note ON: F#4, Velocity (0 - 127): 59
0    |  MIDI Event: Chan 5 Note ON: B2, Velocity (0 - 127): 92
0    |  MIDI Event: Chan 5 Note ON: E3, Velocity (0 - 127): 98
0    |  MIDI Event: Chan 13 Control/Mode Change: Sound Controller 5 (default: Brightness) (0-127): 68
0    |  MIDI Event: Chan 13 Control/Mode Change: Expression Control (0-127): 53
15   |  MIDI Event: Chan 13 Control/Mode Change: Sound Controller 5 (default: Brightness) (0-127): 72
0    |  MIDI Event: Chan 13 Control/Mode Change: Expression Control (0-127): 56
14   |  MIDI Event: Chan 5 Note OFF: E3, Velocity (0 - 127): 64
0    |  MIDI Event: Chan 1 Note OFF: F#4, Velocity (0 - 127): 64
0    |  MIDI Event: Chan 2 Note OFF: B1, Velocity (0 - 127): 64
0    |  MIDI Event: Chan 1 Note OFF: B3, Velocity (0 - 127): 64
0    |  MIDI Event: Chan 1 Note OFF: D4, Velocity (0 - 127): 64
0    |  MIDI Event: Chan 5 Note OFF: B2, Velocity (0 - 127): 64
1    |  MIDI Event: Chan 1 Note ON: G3, Velocity (0 - 127): 74
0    |  MIDI Event: Chan 1 Note ON: B3, Velocity (0 - 127): 94
0    |  MIDI Event: Chan 1 Note ON: D4, Velocity (0 - 127): 91
0    |  MIDI Event: Chan 2 Note ON: G1, Velocity (0 - 127): 100
0    |  MIDI Event: Chan 4 Note ON: G3, Velocity (0 - 127): 118
0    |  MIDI Event: Chan 5 Note ON: G2, Velocity (0 - 127): 98
0    |  MIDI Event: Chan 5 Note ON: D3, Velocity (0 - 127): 116
0    |  MIDI Event: Chan 10 Note ON: B1, Velocity (0 - 127): 120
0    |  MIDI Event: Chan 13 Control/Mode Change: Sound Controller 5 (default: Brightness) (0-127): 75
0    |  MIDI Event: Chan 13 Control/Mode Change: Expression Control (0-127): 58
0    |  Meta Event: Lyric: know 
15   |  MIDI Event: Chan 13 Control/Mode Change: Sound Controller 5 (default: Brightness) (0-127): 79
0    |  MIDI Event: Chan 13 Control/Mode Change: Expression Control (0-127): 60
14   |  MIDI Event: Chan 10 Note OFF: B1, Velocity (0 - 127): 64
1    |  MIDI Event: Chan 13 Control/Mode Change: Sound Controller 5 (default: Brightness) (0-127): 82
0    |  MIDI Event: Chan 13 Control/Mode Change: Expression Control (0-127): 62
15   |  MIDI Event: Chan 13 Control/Mode Change: Sound Controller 5 (default: Brightness) (0-127): 85
0    |  MIDI Event: Chan 13 Control/Mode Change: Expression Control (0-127): 65
14   |  MIDI Event: Chan 1 Note OFF: B3, Velocity (0 - 127): 64
0    |  MIDI Event: Chan 5 Note OFF: D3, Velocity (0 - 127): 64
0    |  MIDI Event: Chan 1 Note OFF: D4, Velocity (0 - 127): 64
0    |  MIDI Event: Chan 1 Note OFF: G3, Velocity (0 - 127): 64
0    |  MIDI Event: Chan 5 Note OFF: G2, Velocity (0 - 127): 64
0    |  MIDI Event: Chan 4 Note OFF: G3, Velocity (0 - 127): 64
1    |  MIDI Event: Chan 1 Note ON: B3, Velocity (0 - 127): 70
0    |  MIDI Event: Chan 1 Note ON: D4, Velocity (0 - 127): 94
0    |  MIDI Event: Chan 1 Note ON: G4, Velocity (0 - 127): 101
0    |  MIDI Event: Chan 5 Note ON: D3, Velocity (0 - 127): 79
0    |  MIDI Event: Chan 5 Note ON: G3, Velocity (0 - 127): 111
0    |  MIDI Event: Chan 5 Note ON: B3, Velocity (0 - 127): 100
0    |  MIDI Event: Chan 10 Note ON: D#2, Velocity (0 - 127): 120
0    |  MIDI Event: Chan 10 Note ON: C#5, Velocity (0 - 127): 109
0    |  MIDI Event: Chan 13 Control/Mode Change: Sound Controller 5 (default: Brightness) (0-127): 89
0    |  MIDI Event: Chan 13 Control/Mode Change: Expression Control (0-127): 67
15   |  MIDI Event: Chan 13 Control/Mode Change: Sound Controller 5 (default: Brightness) (0-127): 92
0    |  MIDI Event: Chan 13 Control/Mode Change: Expression Control (0-127): 69
14   |  MIDI Event: Chan 10 Note OFF: C#5, Velocity (0 - 127): 64
0    |  MIDI Event: Chan 10 Note OFF: D#2, Velocity (0 - 127): 64
1    |  MIDI Event: Chan 4 Note ON: F#3, Velocity (0 - 127): 115
0    |  MIDI Event: Chan 13 Control/Mode Change: Sound Controller 5 (default: Brightness) (0-127): 96
0    |  MIDI Event: Chan 13 Control/Mode Change: Expression Control (0-127): 71
0    |  Meta Event: Lyric: I 
15   |  MIDI Event: Chan 13 Control/Mode Change: Sound Controller 5 (default: Brightness) (0-127): 99
0    |  MIDI Event: Chan 13 Control/Mode Change: Expression Control (0-127): 73
14   |  MIDI Event: Chan 4 Note OFF: F#3, Velocity (0 - 127): 64
0    |  MIDI Event: Chan 2 Note OFF: G1, Velocity (0 - 127): 64
1    |  MIDI Event: Chan 2 Note ON: G1, Velocity (0 - 127): 100
0    |  MIDI Event: Chan 10 Note ON: B1, Velocity (0 - 127): 120
0    |  MIDI Event: Chan 13 Control/Mode Change: Sound Controller 5 (default: Brightness) (0-127): 103
0    |  MIDI Event: Chan 13 Control/Mode Change: Expression Control (0-127): 76
15   |  MIDI Event: Chan 13 Control/Mode Change: Sound Controller 5 (default: Brightness) (0-127): 106
0    |  MIDI Event: Chan 13 Control/Mode Change: Expression Control (0-127): 78
14   |  MIDI Event: Chan 10 Note OFF: B1, Velocity (0 - 127): 64
0    |  MIDI Event: Chan 5 Note OFF: B3, Velocity (0 - 127): 64
0    |  MIDI Event: Chan 1 Note OFF: G4, Velocity (0 - 127): 64
0    |  MIDI Event: Chan 5 Note OFF: D3, Velocity (0 - 127): 64
0    |  MIDI Event: Chan 1 Note OFF: B3, Velocity (0 - 127): 64
0    |  MIDI Event: Chan 1 Note OFF: D4, Velocity (0 - 127): 64
0    |  MIDI Event: Chan 5 Note OFF: G3, Velocity (0 - 127): 64
1    |  MIDI Event: Chan 1 Note ON: B3, Velocity (0 - 127): 52
0    |  MIDI Event: Chan 1 Note ON: D4, Velocity (0 - 127): 85
0    |  MIDI Event: Chan 1 Note ON: G4, Velocity (0 - 127): 94
0    |  MIDI Event: Chan 4 Note ON: E3, Velocity (0 - 127): 101
0    |  MIDI Event: Chan 5 Note ON: D3, Velocity (0 - 127): 82
0    |  MIDI Event: Chan 5 Note ON: G3, Velocity (0 - 127): 98
0    |  MIDI Event: Chan 5 Note ON: B3, Velocity (0 - 127): 85
0    |  MIDI Event: Chan 13 Control/Mode Change: Sound Controller 5 (default: Brightness) (0-127): 109
0    |  MIDI Event: Chan 13 Control/Mode Change: Expression Control (0-127): 80
0    |  Meta Event: Lyric: was 
15   |  MIDI Event: Chan 13 Control/Mode Change: Sound Controller 5 (default: Brightness) (0-127): 113
0    |  MIDI Event: Chan 13 Control/Mode Change: Expression Control (0-127): 82
14   |  MIDI Event: Chan 5 Note OFF: B3, Velocity (0 - 127): 64
0    |  MIDI Event: Chan 1 Note OFF: D4, Velocity (0 - 127): 64
0    |  MIDI Event: Chan 5 Note OFF: G3, Velocity (0 - 127): 64
0    |  MIDI Event: Chan 5 Note OFF: D3, Velocity (0 - 127): 64
0    |  MIDI Event: Chan 1 Note OFF: B3, Velocity (0 - 127): 64
0    |  MIDI Event: Chan 1 Note OFF: G4, Velocity (0 - 127): 64
1    |  MIDI Event: Chan 1 Note ON: D4, Velocity (0 - 127): 78
0    |  MIDI Event: Chan 1 Note ON: G4, Velocity (0 - 127): 100
0    |  MIDI Event: Chan 1 Note ON: B4, Velocity (0 - 127): 46
0    |  MIDI Event: Chan 5 Note ON: G2, Velocity (0 - 127): 109
0    |  MIDI Event: Chan 5 Note ON: D3, Velocity (0 - 127): 109
0    |  MIDI Event: Chan 10 Note ON: D#2, Velocity (0 - 127): 120
0    |  MIDI Event: Chan 10 Note ON: C#5, Velocity (0 - 127): 115
0    |  MIDI Event: Chan 13 Control/Mode Change: Sound Controller 5 (default: Brightness) (0-127): 116
0    |  MIDI Event: Chan 13 Control/Mode Change: Expression Control (0-127): 84
15   |  MIDI Event: Chan 13 Control/Mode Change: Sound Controller 5 (default: Brightness) (0-127): 120
0    |  MIDI Event: Chan 13 Control/Mode Change: Expression Control (0-127): 87
14   |  MIDI Event: Chan 10 Note OFF: C#5, Velocity (0 - 127): 64
0    |  MIDI Event: Chan 4 Note OFF: E3, Velocity (0 - 127): 64
0    |  MIDI Event: Chan 1 Note OFF: D4, Velocity (0 - 127): 64
0    |  MIDI Event: Chan 10 Note OFF: D#2, Velocity (0 - 127): 64
0    |  MIDI Event: Chan 1 Note OFF: G4, Velocity (0 - 127): 64
0    |  MIDI Event: Chan 5 Note OFF: G2, Velocity (0 - 127): 64
0    |  MIDI Event: Chan 5 Note OFF: D3, Velocity (0 - 127): 64
0    |  MIDI Event: Chan 1 Note OFF: B4, Velocity (0 - 127): 64
1    |  MIDI Event: Chan 1 Note ON: B3, Velocity (0 - 127): 45
0    |  MIDI Event: Chan 1 Note ON: D4, Velocity (0 - 127): 73
0    |  MIDI Event: Chan 1 Note ON: G4, Velocity (0 - 127): 86
0    |  MIDI Event: Chan 5 Note ON: G2, Velocity (0 - 127): 101
0    |  MIDI Event: Chan 5 Note ON: E3, Velocity (0 - 127): 116
0    |  MIDI Event: Chan 13 Control/Mode Change: Sound Controller 5 (default: Brightness) (0-127): 123
0    |  MIDI Event: Chan 13 Control/Mode Change: Expression Control (0-127): 89
15   |  MIDI Event: Chan 13 Control/Mode Change: Sound Controller 5 (default: Brightness) (0-127): 127
0    |  MIDI Event: Chan 13 Control/Mode Change: Expression Control (0-127): 91
14   |  MIDI Event: Chan 5 Note OFF: E3, Velocity (0 - 127): 64
0    |  MIDI Event: Chan 1 Note OFF: G4, Velocity (0 - 127): 64
0    |  MIDI Event: Chan 2 Note OFF: G1, Velocity (0 - 127): 64
0    |  MIDI Event: Chan 1 Note OFF: B3, Velocity (0 - 127): 64
0    |  MIDI Event: Chan 1 Note OFF: D4, Velocity (0 - 127): 64
0    |  MIDI Event: Chan 5 Note OFF: G2, Velocity (0 - 127): 64
1    |  MIDI Event: Chan 1 Note ON: F#3, Velocity (0 - 127): 35
0    |  MIDI Event: Chan 1 Note ON: A3, Velocity (0 - 127): 85
0    |  MIDI Event: Chan 1 Note ON: D4, Velocity (0 - 127): 79
0    |  MIDI Event: Chan 2 Note ON: D2, Velocity (0 - 127): 100
0    |  MIDI Event: Chan 4 Note ON: D3, Velocity (0 - 127): 119
0    |  MIDI Event: Chan 5 Note ON: A2, Velocity (0 - 127): 90
0    |  MIDI Event: Chan 5 Note ON: D3, Velocity (0 - 127): 105
0    |  MIDI Event: Chan 11 Note ON: C5, Velocity (0 - 127): 120
0    |  MIDI Event: Chan 13 Control/Mode Change: Expression Control (0-127): 93
0    |  Meta Event: Lyric: lost 
0    |  Meta Event: Lyric: 
15   |  MIDI Event: Chan 13 Control/Mode Change: Expression Control (0-127): 96
15   |  MIDI Event: Chan 13 Control/Mode Change: Expression Control (0-127): 98
15   |  MIDI Event: Chan 13 Control/Mode Change: Expression Control (0-127): 100
14   |  MIDI Event: Chan 5 Note OFF: D3, Velocity (0 - 127): 64
0    |  MIDI Event: Chan 5 Note OFF: A2, Velocity (0 - 127): 64
0    |  MIDI Event: Chan 1 Note OFF: A3, Velocity (0 - 127): 64
0    |  MIDI Event: Chan 1 Note OFF: F#3, Velocity (0 - 127): 64
0    |  MIDI Event: Chan 1 Note OFF: D4, Velocity (0 - 127): 64
1    |  MIDI Event: Chan 1 Note ON: A3, Velocity (0 - 127): 69
0    |  MIDI Event: Chan 1 Note ON: D4, Velocity (0 - 127): 98
0    |  MIDI Event: Chan 1 Note ON: F#4, Velocity (0 - 127): 74
0    |  MIDI Event: Chan 5 Note ON: A2, Velocity (0 - 127): 100
0    |  MIDI Event: Chan 5 Note ON: D3, Velocity (0 - 127): 111
0    |  MIDI Event: Chan 5 Note ON: F#3, Velocity (0 - 127): 89
0    |  MIDI Event: Chan 13 Control/Mode Change: Expression Control (0-127): 102
15   |  MIDI Event: Chan 13 Control/Mode Change: Expression Control (0-127): 104
15   |  MIDI Event: Chan 13 Control/Mode Change: Expression Control (0-127): 107
15   |  MIDI Event: Chan 13 Control/Mode Change: Expression Control (0-127): 109
14   |  MIDI Event: Chan 2 Note OFF: D2, Velocity (0 - 127): 64
1    |  MIDI Event: Chan 2 Note ON: D2, Velocity (0 - 127): 100
0    |  MIDI Event: Chan 13 Control/Mode Change: Expression Control (0-127): 111
15   |  MIDI Event: Chan 13 Control/Mode Change: Expression Control (0-127): 113
14   |  MIDI Event: Chan 5 Note OFF: F#3, Velocity (0 - 127): 64
0    |  MIDI Event: Chan 5 Note OFF: A2, Velocity (0 - 127): 64
0    |  MIDI Event: Chan 1 Note OFF: A3, Velocity (0 - 127): 64
0    |  MIDI Event: Chan 5 Note OFF: D3, Velocity (0 - 127): 64
0    |  MIDI Event: Chan 1 Note OFF: D4, Velocity (0 - 127): 64
0    |  MIDI Event: Chan 1 Note OFF: F#4, Velocity (0 - 127): 64
1    |  MIDI Event: Chan 1 Note ON: F#3, Velocity (0 - 127): 44
0    |  MIDI Event: Chan 1 Note ON: A3, Velocity (0 - 127): 78
0    |  MIDI Event: Chan 1 Note ON: D4, Velocity (0 - 127): 58
0    |  MIDI Event: Chan 5 Note ON: A2, Velocity (0 - 127): 85
0    |  MIDI Event: Chan 5 Note ON: D3, Velocity (0 - 127): 105
0    |  MIDI Event: Chan 5 Note ON: F#3, Velocity (0 - 127): 81
0    |  MIDI Event: Chan 13 Control/Mode Change: Expression Control (0-127): 115
15   |  MIDI Event: Chan 13 Control/Mode Change: Expression Control (0-127): 118
14   |  MIDI Event: Chan 5 Note OFF: F#3, Velocity (0 - 127): 64
0    |  MIDI Event: Chan 5 Note OFF: D3, Velocity (0 - 127): 64
0    |  MIDI Event: Chan 1 Note OFF: D4, Velocity (0 - 127): 64
0    |  MIDI Event: Chan 5 Note OFF: A2, Velocity (0 - 127): 64
0    |  MIDI Event: Chan 1 Note OFF: F#3, Velocity (0 - 127): 64
0    |  MIDI Event: Chan 1 Note OFF: A3, Velocity (0 - 127): 64
1    |  MIDI Event: Chan 1 Note ON: A3, Velocity (0 - 127): 57
0    |  MIDI Event: Chan 1 Note ON: D4, Velocity (0 - 127): 91
0    |  MIDI Event: Chan 1 Note ON: F#4, Velocity (0 - 127): 77
0    |  MIDI Event: Chan 5 Note ON: D3, Velocity (0 - 127): 109
0    |  MIDI Event: Chan 5 Note ON: F#3, Velocity (0 - 127): 89
0    |  MIDI Event: Chan 5 Note ON: A3, Velocity (0 - 127): 109
0    |  MIDI Event: Chan 13 Control/Mode Change: Expression Control (0-127): 120
15   |  MIDI Event: Chan 13 Control/Mode Change: Expression Control (0-127): 122
14   |  MIDI Event: Chan 5 Note OFF: A3, Velocity (0 - 127): 64
0    |  MIDI Event: Chan 5 Note OFF: F#3, Velocity (0 - 127): 64
0    |  MIDI Event: Chan 1 Note OFF: F#4, Velocity (0 - 127): 64
0    |  MIDI Event: Chan 4 Note OFF: D3, Velocity (0 - 127): 64
0    |  MIDI Event: Chan 1 Note OFF: A3, Velocity (0 - 127): 64
0    |  MIDI Event: Chan 5 Note OFF: D3, Velocity (0 - 127): 64
0    |  MIDI Event: Chan 1 Note OFF: D4, Velocity (0 - 127): 64
1    |  MIDI Event: Chan 1 Note ON: F#3, Velocity (0 - 127): 35
0    |  MIDI Event: Chan 1 Note ON: A3, Velocity (0 - 127): 79
0    |  MIDI Event: Chan 1 Note ON: D4, Velocity (0 - 127): 56
0    |  MIDI Event: Chan 5 Note ON: D3, Velocity (0 - 127): 111
0    |  MIDI Event: Chan 5 Note ON: F#3, Velocity (0 - 127): 100
0    |  MIDI Event: Chan 5 Note ON: A3, Velocity (0 - 127): 100
0    |  MIDI Event: Chan 13 Control/Mode Change: Expression Control (0-127): 124
15   |  MIDI Event: Chan 13 Control/Mode Change: Expression Control (0-127): 127
14   |  MIDI Event: Chan 5 Note OFF: A3, Velocity (0 - 127): 64
0    |  MIDI Event: Chan 1 Note OFF: F#3, Velocity (0 - 127): 64
0    |  MIDI Event: Chan 13 Note OFF: C4, Velocity (0 - 127): 64
0    |  MIDI Event: Chan 1 Note OFF: A3, Velocity (0 - 127): 64
0    |  MIDI Event: Chan 2 Note OFF: D2, Velocity (0 - 127): 64
0    |  MIDI Event: Chan 11 Note OFF: C5, Velocity (0 - 127): 64
0    |  MIDI Event: Chan 5 Note OFF: D3, Velocity (0 - 127): 64
0    |  MIDI Event: Chan 1 Note OFF: D4, Velocity (0 - 127): 64
0    |  MIDI Event: Chan 5 Note OFF: F#3, Velocity (0 - 127): 64
61   |  MIDI Event: Chan 4 Note ON: B3, Velocity (0 - 127): 111
0    |  Meta Event: Lyric: So 
29   |  MIDI Event: Chan 4 Note OFF: B3, Velocity (0 - 127): 64
31   |  MIDI Event: Chan 4 Note ON: B3, Velocity (0 - 127): 111
0    |  Meta Event: Lyric: wake 
29   |  MIDI Event: Chan 4 Note OFF: B3, Velocity (0 - 127): 64
31   |  MIDI Event: Chan 4 Note ON: C#4, Velocity (0 - 127): 119
0    |  Meta Event: Lyric: me 
29   |  MIDI Event: Chan 4 Note OFF: C#4, Velocity (0 - 127): 64
31   |  MIDI Event: Chan 1 Note ON: B3, Velocity (0 - 127): 58
0    |  MIDI Event: Chan 1 Note ON: D4, Velocity (0 - 127): 91
0    |  MIDI Event: Chan 2 Note ON: B1, Velocity (0 - 127): 100
0    |  MIDI Event: Chan 4 Note ON: D4, Velocity (0 - 127): 120
0    |  MIDI Event: Chan 5 Note ON: B2, Velocity (0 - 127): 85
0    |  MIDI Event: Chan 5 Note ON: F#3, Velocity (0 - 127): 120
0    |  MIDI Event: Chan 10 Note ON: B1, Velocity (0 - 127): 120
0    |  MIDI Event: Chan 10 Note ON: A#4, Velocity (0 - 127): 115
0    |  MIDI Event: Chan 13 Control/Mode Change: Expression Control (0-127): 126
0    |  MIDI Event: Chan 13 Note ON: C4, Velocity (0 - 127): 120
0    |  Meta Event: Lyric: up 
15   |  MIDI Event: Chan 13 Control/Mode Change: Expression Control (0-127): 121
14   |  MIDI Event: Chan 10 Note OFF: A#4, Velocity (0 - 127): 64
0    |  MIDI Event: Chan 10 Note OFF: B1, Velocity (0 - 127): 64
1    |  MIDI Event: Chan 13 Control/Mode Change: Expression Control (0-127): 117
15   |  MIDI Event: Chan 13 Control/Mode Change: Expression Control (0-127): 113
14   |  MIDI Event: Chan 1 Note OFF: D4, Velocity (0 - 127): 64
0    |  MIDI Event: Chan 5 Note OFF: B2, Velocity (0 - 127): 64
0    |  MIDI Event: Chan 1 Note OFF: B3, Velocity (0 - 127): 64
0    |  MIDI Event: Chan 5 Note OFF: F#3, Velocity (0 - 127): 64
1    |  MIDI Event: Chan 1 Note ON: B3, Velocity (0 - 127): 79
0    |  MIDI Event: Chan 1 Note ON: D4, Velocity (0 - 127): 95
0    |  MIDI Event: Chan 1 Note ON: F#4, Velocity (0 - 127): 74
0    |  MIDI Event: Chan 5 Note ON: D3, Velocity (0 - 127): 92
0    |  MIDI Event: Chan 5 Note ON: F#3, Velocity (0 - 127): 87
0    |  MIDI Event: Chan 5 Note ON: D4, Velocity (0 - 127): 95
0    |  MIDI Event: Chan 10 Note ON: D#2, Velocity (0 - 127): 120
0    |  MIDI Event: Chan 10 Note ON: C#5, Velocity (0 - 127): 111
0    |  MIDI Event: Chan 13 Control/Mode Change: Expression Control (0-127): 109
15   |  MIDI Event: Chan 13 Control/Mode Change: Expression Control (0-127): 105
14   |  MIDI Event: Chan 10 Note OFF: C#5, Velocity (0 - 127): 64
0    |  MIDI Event: Chan 10 Note OFF: D#2, Velocity (0 - 127): 64
1    |  MIDI Event: Chan 13 Control/Mode Change: Expression Control (0-127): 101
15   |  MIDI Event: Chan 13 Control/Mode Change: Expression Control (0-127): 97
14   |  MIDI Event: Chan 2 Note OFF: B1, Velocity (0 - 127): 64
0    |  MIDI Event: Chan 4 Note OFF: D4, Velocity (0 - 127): 64
1    |  MIDI Event: Chan 2 Note ON: B1, Velocity (0 - 127): 100
0    |  MIDI Event: Chan 4 Note ON: C#4, Velocity (0 - 127): 120
0    |  MIDI Event: Chan 10 Note ON: B1, Velocity (0 - 127): 120
0    |  MIDI Event: Chan 10 Note ON: A#4, Velocity (0 - 127): 115
0    |  MIDI Event: Chan 13 Control/Mode Change: Expression Control (0-127): 93
0    |  Meta Event: Lyric: when 
15   |  MIDI Event: Chan 13 Control/Mode Change: Expression Control (0-127): 89
14   |  MIDI Event: Chan 10 Note OFF: A#4, Velocity (0 - 127): 64
0    |  MIDI Event: Chan 5 Note OFF: F#3, Velocity (0 - 127): 64
0    |  MIDI Event: Chan 1 Note OFF: D4, Velocity (0 - 127): 64
0    |  MIDI Event: Chan 10 Note OFF: B1, Velocity (0 - 127): 64
0    |  MIDI Event: Chan 5 Note OFF: D4, Velocity (0 - 127): 64
0    |  MIDI Event: Chan 1 Note OFF: F#4, Velocity (0 - 127): 64
0    |  MIDI Event: Chan 1 Note OFF: B3, Velocity (0 - 127): 64
0    |  MIDI Event: Chan 5 Note OFF: D3, Velocity (0 - 127): 64
1    |  MIDI Event: Chan 1 Note ON: B3, Velocity (0 - 127): 71
0    |  MIDI Event: Chan 1 Note ON: D4, Velocity (0 - 127): 91
0    |  MIDI Event: Chan 1 Note ON: F#4, Velocity (0 - 127): 60
0    |  MIDI Event: Chan 5 Note ON: F#3, Velocity (0 - 127): 109
0    |  MIDI Event: Chan 5 Note ON: B3, Velocity (0 - 127): 95
0    |  MIDI Event: Chan 13 Control/Mode Change: Expression Control (0-127): 85
15   |  MIDI Event: Chan 13 Control/Mode Change: Expression Control (0-127): 81
14   |  MIDI Event: Chan 5 Note OFF: B3, Velocity (0 - 127): 64
0    |  MIDI Event: Chan 5 Note OFF: F#3, Velocity (0 - 127): 64
0    |  MIDI Event: Chan 1 Note OFF: D4, Velocity (0 - 127): 64
0    |  MIDI Event: Chan 1 Note OFF: B3, Velocity (0 - 127): 64
0    |  MIDI Event: Chan 1 Note OFF: F#4, Velocity (0 - 127): 64
1    |  MIDI Event: Chan 1 Note ON: D4, Velocity (0 - 127): 80
0    |  MIDI Event: Chan 1 Note ON: F#4, Velocity (0 - 127): 62
0    |  MIDI Event: Chan 1 Note ON: B4, Velocity (0 - 127): 91
0    |  MIDI Event: Chan 5 Note ON: D3, Velocity (0 - 127): 103
0    |  MIDI Event: Chan 5 Note ON: F#3, Velocity (0 - 127): 115
0    |  MIDI Event: Chan 10 Note ON: D#2, Velocity (0 - 127): 120
0    |  MIDI Event: Chan 10 Note ON: C#5, Velocity (0 - 127): 111
0    |  MIDI Event: Chan 13 Control/Mode Change: Expression Control (0-127): 77
15   |  MIDI Event: Chan 13 Control/Mode Change: Expression Control (0-127): 73
14   |  MIDI Event: Chan 10 Note OFF: C#5, Velocity (0 - 127): 64
0    |  MIDI Event: Chan 4 Note OFF: C#4, Velocity (0 - 127): 64
0    |  MIDI Event: Chan 1 Note OFF: D4, Velocity (0 - 127): 64
0    |  MIDI Event: Chan 10 Note OFF: D#2, Velocity (0 - 127): 64
0    |  MIDI Event: Chan 1 Note OFF: F#4, Velocity (0 - 127): 64
0    |  MIDI Event: Chan 5 Note OFF: D3, Velocity (0 - 127): 64
0    |  MIDI Event: Chan 5 Note OFF: F#3, Velocity (0 - 127): 64
0    |  MIDI Event: Chan 1 Note OFF: B4, Velocity (0 - 127): 64
1    |  MIDI Event: Chan 1 Note ON: B3, Velocity (0 - 127): 51
0    |  MIDI Event: Chan 1 Note ON: D4, Velocity (0 - 127): 85
0    |  MIDI Event: Chan 1 Note ON: F#4, Velocity (0 - 127): 59
0    |  MIDI Event: Chan 5 Note ON: B2, Velocity (0 - 127): 92
0    |  MIDI Event: Chan 5 Note ON: E3, Velocity (0 - 127): 98
0    |  MIDI Event: Chan 13 Control/Mode Change: Expression Control (0-127): 69
15   |  MIDI Event: Chan 13 Control/Mode Change: Expression Control (0-127): 65
14   |  MIDI Event: Chan 5 Note OFF: E3, Velocity (0 - 127): 64
0    |  MIDI Event: Chan 1 Note OFF: F#4, Velocity (0 - 127): 64
0    |  MIDI Event: Chan 2 Note OFF: B1, Velocity (0 - 127): 64
0    |  MIDI Event: Chan 1 Note OFF: B3, Velocity (0 - 127): 64
0    |  MIDI Event: Chan 1 Note OFF: D4, Velocity (0 - 127): 64
0    |  MIDI Event: Chan 5 Note OFF: B2, Velocity (0 - 127): 64
1    |  MIDI Event: Chan 1 Note ON: G3, Velocity (0 - 127): 74
0    |  MIDI Event: Chan 1 Note ON: B3, Velocity (0 - 127): 94
0    |  MIDI Event: Chan 1 Note ON: D4, Velocity (0 - 127): 91
0    |  MIDI Event: Chan 2 Note ON: G1, Velocity (0 - 127): 100
0    |  MIDI Event: Chan 4 Note ON: B3, Velocity (0 - 127): 118
0    |  MIDI Event: Chan 5 Note ON: G2, Velocity (0 - 127): 98
0    |  MIDI Event: Chan 5 Note ON: D3, Velocity (0 - 127): 116
0    |  MIDI Event: Chan 10 Note ON: B1, Velocity (0 - 127): 120
0    |  MIDI Event: Chan 10 Note ON: A#4, Velocity (0 - 127): 104
0    |  MIDI Event: Chan 13 Control/Mode Change: Expression Control (0-127): 60
0    |  Meta Event: Lyric: it's 
15   |  MIDI Event: Chan 13 Control/Mode Change: Expression Control (0-127): 56
14   |  MIDI Event: Chan 10 Note OFF: A#4, Velocity (0 - 127): 64
0    |  MIDI Event: Chan 10 Note OFF: B1, Velocity (0 - 127): 64
1    |  MIDI Event: Chan 13 Control/Mode Change: Expression Control (0-127): 52
15   |  MIDI Event: Chan 13 Control/Mode Change: Expression Control (0-127): 48
14   |  MIDI Event: Chan 5 Note OFF: G2, Velocity (0 - 127): 64
0    |  MIDI Event: Chan 1 Note OFF: B3, Velocity (0 - 127): 64
0    |  MIDI Event: Chan 1 Note OFF: G3, Velocity (0 - 127): 64
0    |  MIDI Event: Chan 5 Note OFF: D3, Velocity (0 - 127): 64
0    |  MIDI Event: Chan 1 Note OFF: D4, Velocity (0 - 127): 64
1    |  MIDI Event: Chan 1 Note ON: B3, Velocity (0 - 127): 70
0    |  MIDI Event: Chan 1 Note ON: D4, Velocity (0 - 127): 94
0    |  MIDI Event: Chan 1 Note ON: G4, Velocity (0 - 127): 101
0    |  MIDI Event: Chan 5 Note ON: D3, Velocity (0 - 127): 79
0    |  MIDI Event: Chan 5 Note ON: G3, Velocity (0 - 127): 111
0    |  MIDI Event: Chan 5 Note ON: B3, Velocity (0 - 127): 100
0    |  MIDI Event: Chan 10 Note ON: D#2, Velocity (0 - 127): 120
0    |  MIDI Event: Chan 10 Note ON: C#5, Velocity (0 - 127): 109
0    |  MIDI Event: Chan 13 Control/Mode Change: Expression Control (0-127): 44
15   |  MIDI Event: Chan 13 Control/Mode Change: Expression Control (0-127): 40
14   |  MIDI Event: Chan 10 Note OFF: C#5, Velocity (0 - 127): 64
0    |  MIDI Event: Chan 10 Note OFF: D#2, Velocity (0 - 127): 64
0    |  MIDI Event: Chan 4 Note OFF: B3, Velocity (0 - 127): 64
1    |  MIDI Event: Chan 13 Control/Mode Change: Expression Control (0-127): 36
15   |  MIDI Event: Chan 13 Control/Mode Change: Expression Control (0-127): 32
14   |  MIDI Event: Chan 2 Note OFF: G1, Velocity (0 - 127): 64
1    |  MIDI Event: Chan 2 Note ON: G1, Velocity (0 - 127): 100
0    |  MIDI Event: Chan 4 Note ON: A3, Velocity (0 - 127): 116
0    |  MIDI Event: Chan 10 Note ON: B1, Velocity (0 - 127): 120
0    |  MIDI Event: Chan 10 Note ON: A#4, Velocity (0 - 127): 119
0    |  MIDI Event: Chan 13 Control/Mode Change: Expression Control (0-127): 28
0    |  Meta Event: Lyric: all 
15   |  MIDI Event: Chan 13 Control/Mode Change: Expression Control (0-127): 24
14   |  MIDI Event: Chan 10 Note OFF: A#4, Velocity (0 - 127): 64
0    |  MIDI Event: Chan 5 Note OFF: G3, Velocity (0 - 127): 64
0    |  MIDI Event: Chan 1 Note OFF: D4, Velocity (0 - 127): 64
0    |  MIDI Event: Chan 10 Note OFF: B1, Velocity (0 - 127): 64
0    |  MIDI Event: Chan 5 Note OFF: B3, Velocity (0 - 127): 64
0    |  MIDI Event: Chan 1 Note OFF: G4, Velocity (0 - 127): 64
0    |  MIDI Event: Chan 1 Note OFF: B3, Velocity (0 - 127): 64
0    |  MIDI Event: Chan 5 Note OFF: D3, Velocity (0 - 127): 64
1    |  MIDI Event: Chan 1 Note ON: B3, Velocity (0 - 127): 52
0    |  MIDI Event: Chan 1 Note ON: D4, Velocity (0 - 127): 85
0    |  MIDI Event: Chan 1 Note ON: G4, Velocity (0 - 127): 94
0    |  MIDI Event: Chan 5 Note ON: D3, Velocity (0 - 127): 82
0    |  MIDI Event: Chan 5 Note ON: G3, Velocity (0 - 127): 98
0    |  MIDI Event: Chan 5 Note ON: B3, Velocity (0 - 127): 85
0    |  MIDI Event: Chan 13 Control/Mode Change: Expression Control (0-127): 20
15   |  MIDI Event: Chan 13 Control/Mode Change: Expression Control (0-127): 16
14   |  MIDI Event: Chan 5 Note OFF: B3, Velocity (0 - 127): 64
0    |  MIDI Event: Chan 1 Note OFF: B3, Velocity (0 - 127): 64
0    |  MIDI Event: Chan 5 Note OFF: G3, Velocity (0 - 127): 64
0    |  MIDI Event: Chan 1 Note OFF: D4, Velocity (0 - 127): 64
0    |  MIDI Event: Chan 5 Note OFF: D3, Velocity (0 - 127): 64
0    |  MIDI Event: Chan 4 Note OFF: A3, Velocity (0 - 127): 64
0    |  MIDI Event: Chan 1 Note OFF: G4, Velocity (0 - 127): 64
1    |  MIDI Event: Chan 1 Note ON: D4, Velocity (0 - 127): 78
0    |  MIDI Event: Chan 1 Note ON: G4, Velocity (0 - 127): 100
0    |  MIDI Event: Chan 1 Note ON: B4, Velocity (0 - 127): 46
0    |  MIDI Event: Chan 5 Note ON: G2, Velocity (0 - 127): 109
0    |  MIDI Event: Chan 5 Note ON: D3, Velocity (0 - 127): 109
0    |  MIDI Event: Chan 10 Note ON: D#2, Velocity (0 - 127): 120
0    |  MIDI Event: Chan 10 Note ON: C#5, Velocity (0 - 127): 115
0    |  MIDI Event: Chan 13 Control/Mode Change: Expression Control (0-127): 12
15   |  MIDI Event: Chan 13 Control/Mode Change: Expression Control (0-127): 8
14   |  MIDI Event: Chan 10 Note OFF: C#5, Velocity (0 - 127): 64
0    |  MIDI Event: Chan 1 Note OFF: G4, Velocity (0 - 127): 64
0    |  MIDI Event: Chan 10 Note OFF: D#2, Velocity (0 - 127): 64
0    |  MIDI Event: Chan 1 Note OFF: B4, Velocity (0 - 127): 64
0    |  MIDI Event: Chan 5 Note OFF: D3, Velocity (0 - 127): 64
0    |  MIDI Event: Chan 1 Note OFF: D4, Velocity (0 - 127): 64
0    |  MIDI Event: Chan 5 Note OFF: G2, Velocity (0 - 127): 64
1    |  MIDI Event: Chan 1 Note ON: B3, Velocity (0 - 127): 45
0    |  MIDI Event: Chan 1 Note ON: D4, Velocity (0 - 127): 73
0    |  MIDI Event: Chan 1 Note ON: G4, Velocity (0 - 127): 86
0    |  MIDI Event: Chan 4 Note ON: A3, Velocity (0 - 127): 116
0    |  MIDI Event: Chan 5 Note ON: G2, Velocity (0 - 127): 101
0    |  MIDI Event: Chan 5 Note ON: E3, Velocity (0 - 127): 116
0    |  MIDI Event: Chan 13 Control/Mode Change: Expression Control (0-127): 4
0    |  Meta Event: Lyric: o
15   |  MIDI Event: Chan 13 Control/Mode Change: Expression Control (0-127): 0
14   |  MIDI Event: Chan 5 Note OFF: E3, Velocity (0 - 127): 64
0    |  MIDI Event: Chan 13 Note OFF: C4, Velocity (0 - 127): 64
0    |  MIDI Event: Chan 2 Note OFF: G1, Velocity (0 - 127): 64
0    |  MIDI Event: Chan 5 Note OFF: G2, Velocity (0 - 127): 64
0    |  MIDI Event: Chan 1 Note OFF: B3, Velocity (0 - 127): 64
0    |  MIDI Event: Chan 1 Note OFF: D4, Velocity (0 - 127): 64
0    |  MIDI Event: Chan 1 Note OFF: G4, Velocity (0 - 127): 64
1    |  MIDI Event: Chan 1 Note ON: F#3, Velocity (0 - 127): 35
0    |  MIDI Event: Chan 1 Note ON: A3, Velocity (0 - 127): 85
0    |  MIDI Event: Chan 1 Note ON: D4, Velocity (0 - 127): 79
0    |  MIDI Event: Chan 2 Note ON: D2, Velocity (0 - 127): 100
0    |  MIDI Event: Chan 5 Note ON: A2, Velocity (0 - 127): 90
0    |  MIDI Event: Chan 5 Note ON: D3, Velocity (0 - 127): 105
0    |  MIDI Event: Chan 10 Note ON: B1, Velocity (0 - 127): 120
0    |  MIDI Event: Chan 10 Note ON: A#4, Velocity (0 - 127): 109
29   |  MIDI Event: Chan 10 Note OFF: A#4, Velocity (0 - 127): 64
0    |  MIDI Event: Chan 10 Note OFF: B1, Velocity (0 - 127): 64
0    |  MIDI Event: Chan 4 Note OFF: A3, Velocity (0 - 127): 64
30   |  MIDI Event: Chan 5 Note OFF: A2, Velocity (0 - 127): 64
0    |  MIDI Event: Chan 1 Note OFF: A3, Velocity (0 - 127): 64
0    |  MIDI Event: Chan 1 Note OFF: F#3, Velocity (0 - 127): 64
0    |  MIDI Event: Chan 1 Note OFF: D4, Velocity (0 - 127): 64
0    |  MIDI Event: Chan 5 Note OFF: D3, Velocity (0 - 127): 64
1    |  MIDI Event: Chan 1 Note ON: A3, Velocity (0 - 127): 69
0    |  MIDI Event: Chan 1 Note ON: D4, Velocity (0 - 127): 98
0    |  MIDI Event: Chan 1 Note ON: F#4, Velocity (0 - 127): 74
0    |  MIDI Event: Chan 4 Note ON: D3, Velocity (0 - 127): 120
0    |  MIDI Event: Chan 5 Note ON: A2, Velocity (0 - 127): 100
0    |  MIDI Event: Chan 5 Note ON: D3, Velocity (0 - 127): 111
0    |  MIDI Event: Chan 5 Note ON: F#3, Velocity (0 - 127): 89
0    |  MIDI Event: Chan 10 Note ON: D#2, Velocity (0 - 127): 119
0    |  MIDI Event: Chan 10 Note ON: C#5, Velocity (0 - 127): 111
0    |  Meta Event: Lyric: ver 
0    |  Meta Event: Lyric: 
29   |  MIDI Event: Chan 10 Note OFF: C#5, Velocity (0 - 127): 64
0    |  MIDI Event: Chan 10 Note OFF: D#2, Velocity (0 - 127): 64
0    |  MIDI Event: Chan 4 Note OFF: D3, Velocity (0 - 127): 64
30   |  MIDI Event: Chan 2 Note OFF: D2, Velocity (0 - 127): 64
1    |  MIDI Event: Chan 2 Note ON: D2, Velocity (0 - 127): 100
0    |  MIDI Event: Chan 10 Note ON: B1, Velocity (0 - 127): 120
0    |  MIDI Event: Chan 10 Note ON: A#4, Velocity (0 - 127): 111
29   |  MIDI Event: Chan 10 Note OFF: A#4, Velocity (0 - 127): 64
0    |  MIDI Event: Chan 1 Note OFF: A3, Velocity (0 - 127): 64
0    |  MIDI Event: Chan 5 Note OFF: F#3, Velocity (0 - 127): 64
0    |  MIDI Event: Chan 10 Note OFF: B1, Velocity (0 - 127): 64
0    |  MIDI Event: Chan 1 Note OFF: D4, Velocity (0 - 127): 64
0    |  MIDI Event: Chan 1 Note OFF: F#4, Velocity (0 - 127): 64
0    |  MIDI Event: Chan 5 Note OFF: A2, Velocity (0 - 127): 64
0    |  MIDI Event: Chan 5 Note OFF: D3, Velocity (0 - 127): 64
1    |  MIDI Event: Chan 1 Note ON: F#3, Velocity (0 - 127): 44
0    |  MIDI Event: Chan 1 Note ON: A3, Velocity (0 - 127): 78
0    |  MIDI Event: Chan 1 Note ON: D4, Velocity (0 - 127): 58
0    |  MIDI Event: Chan 5 Note ON: A2, Velocity (0 - 127): 85
0    |  MIDI Event: Chan 5 Note ON: D3, Velocity (0 - 127): 105
0    |  MIDI Event: Chan 5 Note ON: F#3, Velocity (0 - 127): 81
29   |  MIDI Event: Chan 5 Note OFF: F#3, Velocity (0 - 127): 64
0    |  MIDI Event: Chan 5 Note OFF: A2, Velocity (0 - 127): 64
0    |  MIDI Event: Chan 1 Note OFF: F#3, Velocity (0 - 127): 64
0    |  MIDI Event: Chan 1 Note OFF: A3, Velocity (0 - 127): 64
0    |  MIDI Event: Chan 1 Note OFF: D4, Velocity (0 - 127): 64
0    |  MIDI Event: Chan 5 Note OFF: D3, Velocity (0 - 127): 64
1    |  MIDI Event: Chan 1 Note ON: A3, Velocity (0 - 127): 57
0    |  MIDI Event: Chan 1 Note ON: D4, Velocity (0 - 127): 91
0    |  MIDI Event: Chan 1 Note ON: F#4, Velocity (0 - 127): 77
0    |  MIDI Event: Chan 5 Note ON: D3, Velocity (0 - 127): 109
0    |  MIDI Event: Chan 5 Note ON: F#3, Velocity (0 - 127): 89
0    |  MIDI Event: Chan 5 Note ON: A3, Velocity (0 - 127): 109
0    |  MIDI Event: Chan 10 Note ON: D#2, Velocity (0 - 127): 120
0    |  MIDI Event: Chan 10 Note ON: C#5, Velocity (0 - 127): 109
29   |  MIDI Event: Chan 10 Note OFF: C#5, Velocity (0 - 127): 64
0    |  MIDI Event: Chan 1 Note OFF: F#4, Velocity (0 - 127): 64
0    |  MIDI Event: Chan 10 Note OFF: D#2, Velocity (0 - 127): 64
0    |  MIDI Event: Chan 5 Note OFF: D3, Velocity (0 - 127): 64
0    |  MIDI Event: Chan 1 Note OFF: A3, Velocity (0 - 127): 64
0    |  MIDI Event: Chan 1 Note OFF: D4, Velocity (0 - 127): 64
0    |  MIDI Event: Chan 5 Note OFF: A3, Velocity (0 - 127): 64
0    |  MIDI Event: Chan 5 Note OFF: F#3, Velocity (0 - 127): 64
1    |  MIDI Event: Chan 1 Note ON: F#3, Velocity (0 - 127): 35
0    |  MIDI Event: Chan 1 Note ON: A3, Velocity (0 - 127): 79
0    |  MIDI Event: Chan 1 Note ON: D4, Velocity (0 - 127): 56
0    |  MIDI Event: Chan 5 Note ON: D3, Velocity (0 - 127): 111
0    |  MIDI Event: Chan 5 Note ON: F#3, Velocity (0 - 127): 100
0    |  MIDI Event: Chan 5 Note ON: A3, Velocity (0 - 127): 100
29   |  MIDI Event: Chan 5 Note OFF: A3, Velocity (0 - 127): 64
0    |  MIDI Event: Chan 5 Note OFF: D3, Velocity (0 - 127): 64
0    |  MIDI Event: Chan 1 Note OFF: F#3, Velocity (0 - 127): 64
0    |  MIDI Event: Chan 1 Note OFF: A3, Velocity (0 - 127): 64
0    |  MIDI Event: Chan 2 Note OFF: D2, Velocity (0 - 127): 64
0    |  MIDI Event: Chan 5 Note OFF: F#3, Velocity (0 - 127): 64
0    |  MIDI Event: Chan 1 Note OFF: D4, Velocity (0 - 127): 64
1    |  MIDI Event: Chan 1 Note ON: F#3, Velocity (0 - 127): 49
0    |  MIDI Event: Chan 1 Note ON: A3, Velocity (0 - 127): 85
0    |  MIDI Event: Chan 1 Note ON: D4, Velocity (0 - 127): 75
0    |  MIDI Event: Chan 2 Note ON: D2, Velocity (0 - 127): 100
0    |  MIDI Event: Chan 5 Note ON: A2, Velocity (0 - 127): 105
0    |  MIDI Event: Chan 5 Note ON: D3, Velocity (0 - 127): 116
0    |  MIDI Event: Chan 10 Note ON: B1, Velocity (0 - 127): 120
0    |  MIDI Event: Chan 10 Note ON: A#4, Velocity (0 - 127): 109
29   |  MIDI Event: Chan 10 Note OFF: A#4, Velocity (0 - 127): 64
0    |  MIDI Event: Chan 10 Note OFF: B1, Velocity (0 - 127): 64
30   |  MIDI Event: Chan 5 Note OFF: A2, Velocity (0 - 127): 64
0    |  MIDI Event: Chan 1 Note OFF: A3, Velocity (0 - 127): 64
0    |  MIDI Event: Chan 1 Note OFF: F#3, Velocity (0 - 127): 64
0    |  MIDI Event: Chan 1 Note OFF: D4, Velocity (0 - 127): 64
0    |  MIDI Event: Chan 5 Note OFF: D3, Velocity (0 - 127): 64
1    |  MIDI Event: Chan 1 Note ON: A3, Velocity (0 - 127): 56
0    |  MIDI Event: Chan 1 Note ON: D4, Velocity (0 - 127): 84
0    |  MIDI Event: Chan 1 Note ON: F#4, Velocity (0 - 127): 49
0    |  MIDI Event: Chan 5 Note ON: D3, Velocity (0 - 127): 105
0    |  MIDI Event: Chan 5 Note ON: F#3, Velocity (0 - 127): 115
0    |  MIDI Event: Chan 10 Note ON: D#2, Velocity (0 - 127): 115
0    |  MIDI Event: Chan 10 Note ON: C#5, Velocity (0 - 127): 109
29   |  MIDI Event: Chan 10 Note OFF: C#5, Velocity (0 - 127): 64
0    |  MIDI Event: Chan 10 Note OFF: D#2, Velocity (0 - 127): 64
0    |  MIDI Event: Chan 5 Note OFF: D3, Velocity (0 - 127): 64
0    |  MIDI Event: Chan 1 Note OFF: A3, Velocity (0 - 127): 64
0    |  MIDI Event: Chan 1 Note OFF: D4, Velocity (0 - 127): 64
0    |  MIDI Event: Chan 1 Note OFF: F#4, Velocity (0 - 127): 64
0    |  MIDI Event: Chan 5 Note OFF: F#3, Velocity (0 - 127): 64
1    |  MIDI Event: Chan 1 Note ON: A3, Velocity (0 - 127): 84
0    |  MIDI Event: Chan 1 Note ON: D4, Velocity (0 - 127): 94
0    |  MIDI Event: Chan 1 Note ON: F#4, Velocity (0 - 127): 76
0    |  MIDI Event: Chan 5 Note ON: D3, Velocity (0 - 127): 100
0    |  MIDI Event: Chan 5 Note ON: F#3, Velocity (0 - 127): 92
29   |  MIDI Event: Chan 5 Note OFF: F#3, Velocity (0 - 127): 64
0    |  MIDI Event: Chan 1 Note OFF: A3, Velocity (0 - 127): 64
0    |  MIDI Event: Chan 1 Note OFF: D4, Velocity (0 - 127): 64
0    |  MIDI Event: Chan 2 Note OFF: D2, Velocity (0 - 127): 64
0    |  MIDI Event: Chan 5 Note OFF: D3, Velocity (0 - 127): 64
0    |  MIDI Event: Chan 1 Note OFF: F#4, Velocity (0 - 127): 64
1    |  MIDI Event: Chan 1 Note ON: E3, Velocity (0 - 127): 47
0    |  MIDI Event: Chan 1 Note ON: A3, Velocity (0 - 127): 89
0    |  MIDI Event: Chan 1 Note ON: C#4, Velocity (0 - 127): 52
0    |  MIDI Event: Chan 2 Note ON: A1, Velocity (0 - 127): 100
0    |  MIDI Event: Chan 4 Note ON: B3, Velocity (0 - 127): 119
0    |  MIDI Event: Chan 5 Note ON: A2, Velocity (0 - 127): 101
0    |  MIDI Event: Chan 5 Note ON: E3, Velocity (0 - 127): 101
0    |  MIDI Event: Chan 10 Note ON: B1, Velocity (0 - 127): 120
0    |  MIDI Event: Chan 10 Note ON: A#4, Velocity (0 - 127): 109
0    |  Meta Event: Lyric: When 
29   |  MIDI Event: Chan 10 Note OFF: A#4, Velocity (0 - 127): 64
0    |  MIDI Event: Chan 10 Note OFF: B1, Velocity (0 - 127): 64
30   |  MIDI Event: Chan 1 Note OFF: C#4, Velocity (0 - 127): 64
0    |  MIDI Event: Chan 4 Note OFF: B3, Velocity (0 - 127): 64
0    |  MIDI Event: Chan 1 Note OFF: A3, Velocity (0 - 127): 64
0    |  MIDI Event: Chan 1 Note OFF: E3, Velocity (0 - 127): 64
0    |  MIDI Event: Chan 5 Note OFF: E3, Velocity (0 - 127): 64
0    |  MIDI Event: Chan 5 Note OFF: A2, Velocity (0 - 127): 64
1    |  MIDI Event: Chan 1 Note ON: A3, Velocity (0 - 127): 51
0    |  MIDI Event: Chan 1 Note ON: C#4, Velocity (0 - 127): 52
0    |  MIDI Event: Chan 1 Note ON: E4, Velocity (0 - 127): 78
0    |  MIDI Event: Chan 4 Note ON: C#4, Velocity (0 - 127): 120
0    |  MIDI Event: Chan 5 Note ON: C#3, Velocity (0 - 127): 89
0    |  MIDI Event: Chan 5 Note ON: E3, Velocity (0 - 127): 101
0    |  MIDI Event: Chan 5 Note ON: A3, Velocity (0 - 127): 89
0    |  MIDI Event: Chan 10 Note ON: D#2, Velocity (0 - 127): 119
0    |  MIDI Event: Chan 10 Note ON: C#5, Velocity (0 - 127): 111
0    |  Meta Event: Lyric: I'm 
29   |  MIDI Event: Chan 10 Note OFF: C#5, Velocity (0 - 127): 64
0    |  MIDI Event: Chan 1 Note OFF: C#4, Velocity (0 - 127): 64
0    |  MIDI Event: Chan 1 Note OFF: E4, Velocity (0 - 127): 64
0    |  MIDI Event: Chan 10 Note OFF: D#2, Velocity (0 - 127): 64
0    |  MIDI Event: Chan 4 Note OFF: C#4, Velocity (0 - 127): 64
0    |  MIDI Event: Chan 1 Note OFF: A3, Velocity (0 - 127): 64
0    |  MIDI Event: Chan 5 Note OFF: A3, Velocity (0 - 127): 64
0    |  MIDI Event: Chan 5 Note OFF: E3, Velocity (0 - 127): 64
0    |  MIDI Event: Chan 5 Note OFF: C#3, Velocity (0 - 127): 64
1    |  MIDI Event: Chan 1 Note ON: A3, Velocity (0 - 127): 73
0    |  MIDI Event: Chan 1 Note ON: C#4, Velocity (0 - 127): 52
0    |  MIDI Event: Chan 1 Note ON: E4, Velocity (0 - 127): 83
0    |  MIDI Event: Chan 5 Note ON: C#3, Velocity (0 - 127): 119
0    |  MIDI Event: Chan 5 Note ON: E3, Velocity (0 - 127): 118
0    |  MIDI Event: Chan 5 Note ON: A3, Velocity (0 - 127): 105
29   |  MIDI Event: Chan 5 Note OFF: A3, Velocity (0 - 127): 64
0    |  MIDI Event: Chan 5 Note OFF: C#3, Velocity (0 - 127): 64
0    |  MIDI Event: Chan 1 Note OFF: A3, Velocity (0 - 127): 64
0    |  MIDI Event: Chan 1 Note OFF: C#4, Velocity (0 - 127): 64
0    |  MIDI Event: Chan 2 Note OFF: A1, Velocity (0 - 127): 64
0    |  MIDI Event: Chan 5 Note OFF: E3, Velocity (0 - 127): 64
0    |  MIDI Event: Chan 1 Note OFF: E4, Velocity (0 - 127): 64
1    |  MIDI Event: Chan 1 Note ON: B3, Velocity (0 - 127): 58
0    |  MIDI Event: Chan 1 Note ON: D4, Velocity (0 - 127): 91
0    |  MIDI Event: Chan 2 Note ON: B1, Velocity (0 - 127): 100
0    |  MIDI Event: Chan 4 Note ON: D4, Velocity (0 - 127): 119
0    |  MIDI Event: Chan 5 Note ON: B2, Velocity (0 - 127): 85
0    |  MIDI Event: Chan 5 Note ON: F#3, Velocity (0 - 127): 120
0    |  MIDI Event: Chan 10 Note ON: B1, Velocity (0 - 127): 120
0    |  MIDI Event: Chan 10 Note ON: A#4, Velocity (0 - 127): 109
0    |  MIDI Event: Chan 13 Control/Mode Change: Expression Control (0-127): 127
0    |  Meta Event: Lyric: wi
29   |  MIDI Event: Chan 10 Note OFF: A#4, Velocity (0 - 127): 64
0    |  MIDI Event: Chan 10 Note OFF: B1, Velocity (0 - 127): 64
30   |  MIDI Event: Chan 5 Note OFF: B2, Velocity (0 - 127): 64
0    |  MIDI Event: Chan 1 Note OFF: D4, Velocity (0 - 127): 64
0    |  MIDI Event: Chan 1 Note OFF: B3, Velocity (0 - 127): 64
0    |  MIDI Event: Chan 5 Note OFF: F#3, Velocity (0 - 127): 64
1    |  MIDI Event: Chan 1 Note ON: B3, Velocity (0 - 127): 79
0    |  MIDI Event: Chan 1 Note ON: D4, Velocity (0 - 127): 95
0    |  MIDI Event: Chan 1 Note ON: F#4, Velocity (0 - 127): 74
0    |  MIDI Event: Chan 5 Note ON: D3, Velocity (0 - 127): 92
0    |  MIDI Event: Chan 5 Note ON: F#3, Velocity (0 - 127): 87
0    |  MIDI Event: Chan 5 Note ON: D4, Velocity (0 - 127): 95
0    |  MIDI Event: Chan 10 Note ON: D#2, Velocity (0 - 127): 119
0    |  MIDI Event: Chan 10 Note ON: C#5, Velocity (0 - 127): 104
29   |  MIDI Event: Chan 10 Note OFF: C#5, Velocity (0 - 127): 64
0    |  MIDI Event: Chan 10 Note OFF: D#2, Velocity (0 - 127): 64
0    |  MIDI Event: Chan 4 Note OFF: D4, Velocity (0 - 127): 64
30   |  MIDI Event: Chan 2 Note OFF: B1, Velocity (0 - 127): 64
1    |  MIDI Event: Chan 2 Note ON: B1, Velocity (0 - 127): 100
0    |  MIDI Event: Chan 4 Note ON: F#4, Velocity (0 - 127): 120
0    |  MIDI Event: Chan 10 Note ON: B1, Velocity (0 - 127): 120
0    |  MIDI Event: Chan 10 Note ON: A#4, Velocity (0 - 127): 109
0    |  Meta Event: Lyric: ser 
29   |  MIDI Event: Chan 10 Note OFF: A#4, Velocity (0 - 127): 64
0    |  MIDI Event: Chan 1 Note OFF: F#4, Velocity (0 - 127): 64
0    |  MIDI Event: Chan 5 Note OFF: D4, Velocity (0 - 127): 64
0    |  MIDI Event: Chan 10 Note OFF: B1, Velocity (0 - 127): 64
0    |  MIDI Event: Chan 1 Note OFF: D4, Velocity (0 - 127): 64
0    |  MIDI Event: Chan 1 Note OFF: B3, Velocity (0 - 127): 64
0    |  MIDI Event: Chan 5 Note OFF: D3, Velocity (0 - 127): 64
0    |  MIDI Event: Chan 5 Note OFF: F#3, Velocity (0 - 127): 64
1    |  MIDI Event: Chan 1 Note ON: B3, Velocity (0 - 127): 71
0    |  MIDI Event: Chan 1 Note ON: D4, Velocity (0 - 127): 91
0    |  MIDI Event: Chan 1 Note ON: F#4, Velocity (0 - 127): 60
0    |  MIDI Event: Chan 5 Note ON: F#3, Velocity (0 - 127): 109
0    |  MIDI Event: Chan 5 Note ON: B3, Velocity (0 - 127): 95
29   |  MIDI Event: Chan 5 Note OFF: B3, Velocity (0 - 127): 64
0    |  MIDI Event: Chan 1 Note OFF: F#4, Velocity (0 - 127): 64
0    |  MIDI Event: Chan 1 Note OFF: D4, Velocity (0 - 127): 64
0    |  MIDI Event: Chan 1 Note OFF: B3, Velocity (0 - 127): 64
0    |  MIDI Event: Chan 5 Note OFF: F#3, Velocity (0 - 127): 64
1    |  MIDI Event: Chan 1 Note ON: D4, Velocity (0 - 127): 80
0    |  MIDI Event: Chan 1 Note ON: F#4, Velocity (0 - 127): 62
0    |  MIDI Event: Chan 1 Note ON: B4, Velocity (0 - 127): 91
0    |  MIDI Event: Chan 5 Note ON: D3, Velocity (0 - 127): 103
0    |  MIDI Event: Chan 5 Note ON: F#3, Velocity (0 - 127): 115
0    |  MIDI Event: Chan 10 Note ON: D#2, Velocity (0 - 127): 120
0    |  MIDI Event: Chan 10 Note ON: C#5, Velocity (0 - 127): 109
29   |  MIDI Event: Chan 10 Note OFF: C#5, Velocity (0 - 127): 64
0    |  MIDI Event: Chan 1 Note OFF: F#4, Velocity (0 - 127): 64
0    |  MIDI Event: Chan 10 Note OFF: D#2, Velocity (0 - 127): 64
0    |  MIDI Event: Chan 1 Note OFF: B4, Velocity (0 - 127): 64
0    |  MIDI Event: Chan 4 Note OFF: F#4, Velocity (0 - 127): 64
0    |  MIDI Event: Chan 1 Note OFF: D4, Velocity (0 - 127): 64
0    |  MIDI Event: Chan 5 Note OFF: F#3, Velocity (0 - 127): 64
0    |  MIDI Event: Chan 5 Note OFF: D3, Velocity (0 - 127): 64
1    |  MIDI Event: Chan 1 Note ON: B3, Velocity (0 - 127): 51
0    |  MIDI Event: Chan 1 Note ON: D4, Velocity (0 - 127): 85
0    |  MIDI Event: Chan 1 Note ON: F#4, Velocity (0 - 127): 59
0    |  MIDI Event: Chan 5 Note ON: B2, Velocity (0 - 127): 92
0    |  MIDI Event: Chan 5 Note ON: E3, Velocity (0 - 127): 98
29   |  MIDI Event: Chan 5 Note OFF: E3, Velocity (0 - 127): 64
0    |  MIDI Event: Chan 1 Note OFF: B3, Velocity (0 - 127): 64
0    |  MIDI Event: Chan 1 Note OFF: D4, Velocity (0 - 127): 64
0    |  MIDI Event: Chan 2 Note OFF: B1, Velocity (0 - 127): 64
0    |  MIDI Event: Chan 5 Note OFF: B2, Velocity (0 - 127): 64
0    |  MIDI Event: Chan 1 Note OFF: F#4, Velocity (0 - 127): 64
1    |  MIDI Event: Chan 1 Note ON: G3, Velocity (0 - 127): 74
0    |  MIDI Event: Chan 1 Note ON: B3, Velocity (0 - 127): 94
0    |  MIDI Event: Chan 1 Note ON: D4, Velocity (0 - 127): 91
0    |  MIDI Event: Chan 2 Note ON: G1, Velocity (0 - 127): 100
0    |  MIDI Event: Chan 4 Note ON: G4, Velocity (0 - 127): 120
0    |  MIDI Event: Chan 5 Note ON: G2, Velocity (0 - 127): 98
0    |  MIDI Event: Chan 5 Note ON: D3, Velocity (0 - 127): 116
0    |  MIDI Event: Chan 10 Note ON: B1, Velocity (0 - 127): 120
0    |  MIDI Event: Chan 10 Note ON: A#4, Velocity (0 - 127): 115
0    |  Meta Event: Lyric: and 
29   |  MIDI Event: Chan 10 Note OFF: A#4, Velocity (0 - 127): 64
0    |  MIDI Event: Chan 10 Note OFF: B1, Velocity (0 - 127): 64
30   |  MIDI Event: Chan 1 Note OFF: G3, Velocity (0 - 127): 64
0    |  MIDI Event: Chan 1 Note OFF: D4, Velocity (0 - 127): 64
0    |  MIDI Event: Chan 1 Note OFF: B3, Velocity (0 - 127): 64
0    |  MIDI Event: Chan 5 Note OFF: D3, Velocity (0 - 127): 64
0    |  MIDI Event: Chan 5 Note OFF: G2, Velocity (0 - 127): 64
1    |  MIDI Event: Chan 1 Note ON: B3, Velocity (0 - 127): 70
0    |  MIDI Event: Chan 1 Note ON: D4, Velocity (0 - 127): 94
0    |  MIDI Event: Chan 1 Note ON: G4, Velocity (0 - 127): 101
0    |  MIDI Event: Chan 5 Note ON: D3, Velocity (0 - 127): 79
0    |  MIDI Event: Chan 5 Note ON: G3, Velocity (0 - 127): 111
0    |  MIDI Event: Chan 5 Note ON: B3, Velocity (0 - 127): 100
0    |  MIDI Event: Chan 10 Note ON: D#2, Velocity (0 - 127): 120
0    |  MIDI Event: Chan 10 Note ON: C#5, Velocity (0 - 127): 109
29   |  MIDI Event: Chan 10 Note OFF: C#5, Velocity (0 - 127): 64
0    |  MIDI Event: Chan 10 Note OFF: D#2, Velocity (0 - 127): 64
0    |  MIDI Event: Chan 4 Note OFF: G4, Velocity (0 - 127): 64
30   |  MIDI Event: Chan 2 Note OFF: G1, Velocity (0 - 127): 64
1    |  MIDI Event: Chan 2 Note ON: G1, Velocity (0 - 127): 100
0    |  MIDI Event: Chan 4 Note ON: A4, Velocity (0 - 127): 120
0    |  MIDI Event: Chan 10 Note ON: B1, Velocity (0 - 127): 120
0    |  MIDI Event: Chan 10 Note ON: A#4, Velocity (0 - 127): 109
0    |  Meta Event: Lyric: I'm 
29   |  MIDI Event: Chan 10 Note OFF: A#4, Velocity (0 - 127): 64
0    |  MIDI Event: Chan 1 Note OFF: G4, Velocity (0 - 127): 64
0    |  MIDI Event: Chan 5 Note OFF: B3, Velocity (0 - 127): 64
0    |  MIDI Event: Chan 10 Note OFF: B1, Velocity (0 - 127): 64
0    |  MIDI Event: Chan 1 Note OFF: D4, Velocity (0 - 127): 64
0    |  MIDI Event: Chan 1 Note OFF: B3, Velocity (0 - 127): 64
0    |  MIDI Event: Chan 5 Note OFF: D3, Velocity (0 - 127): 64
0    |  MIDI Event: Chan 5 Note OFF: G3, Velocity (0 - 127): 64
1    |  MIDI Event: Chan 1 Note ON: B3, Velocity (0 - 127): 52
0    |  MIDI Event: Chan 1 Note ON: D4, Velocity (0 - 127): 85
0    |  MIDI Event: Chan 1 Note ON: G4, Velocity (0 - 127): 94
0    |  MIDI Event: Chan 5 Note ON: D3, Velocity (0 - 127): 82
0    |  MIDI Event: Chan 5 Note ON: G3, Velocity (0 - 127): 98
0    |  MIDI Event: Chan 5 Note ON: B3, Velocity (0 - 127): 85
29   |  MIDI Event: Chan 5 Note OFF: B3, Velocity (0 - 127): 64
0    |  MIDI Event: Chan 5 Note OFF: G3, Velocity (0 - 127): 64
0    |  MIDI Event: Chan 1 Note OFF: G4, Velocity (0 - 127): 64
0    |  MIDI Event: Chan 4 Note OFF: A4, Velocity (0 - 127): 64
0    |  MIDI Event: Chan 1 Note OFF: B3, Velocity (0 - 127): 64
0    |  MIDI Event: Chan 1 Note OFF: D4, Velocity (0 - 127): 64
0    |  MIDI Event: Chan 5 Note OFF: D3, Velocity (0 - 127): 64
1    |  MIDI Event: Chan 1 Note ON: D4, Velocity (0 - 127): 78
0    |  MIDI Event: Chan 1 Note ON: G4, Velocity (0 - 127): 100
0    |  MIDI Event: Chan 1 Note ON: B4, Velocity (0 - 127): 46
0    |  MIDI Event: Chan 5 Note ON: G2, Velocity (0 - 127): 109
0    |  MIDI Event: Chan 5 Note ON: D3, Velocity (0 - 127): 109
0    |  MIDI Event: Chan 10 Note ON: D#2, Velocity (0 - 127): 120
0    |  MIDI Event: Chan 10 Note ON: C#5, Velocity (0 - 127): 109
29   |  MIDI Event: Chan 10 Note OFF: C#5, Velocity (0 - 127): 64
0    |  MIDI Event: Chan 10 Note OFF: D#2, Velocity (0 - 127): 64
0    |  MIDI Event: Chan 5 Note OFF: G2, Velocity (0 - 127): 64
0    |  MIDI Event: Chan 1 Note OFF: D4, Velocity (0 - 127): 64
0    |  MIDI Event: Chan 1 Note OFF: G4, Velocity (0 - 127): 64
0    |  MIDI Event: Chan 1 Note OFF: B4, Velocity (0 - 127): 64
0    |  MIDI Event: Chan 5 Note OFF: D3, Velocity (0 - 127): 64
1    |  MIDI Event: Chan 1 Note ON: B3, Velocity (0 - 127): 45
0    |  MIDI Event: Chan 1 Note ON: D4, Velocity (0 - 127): 73
0    |  MIDI Event: Chan 1 Note ON: G4, Velocity (0 - 127): 86
0    |  MIDI Event: Chan 4 Note ON: D4, Velocity (0 - 127): 119
0    |  MIDI Event: Chan 5 Note ON: G2, Velocity (0 - 127): 101
0    |  MIDI Event: Chan 5 Note ON: E3, Velocity (0 - 127): 116
0    |  Meta Event: Lyric: ol
29   |  MIDI Event: Chan 5 Note OFF: E3, Velocity (0 - 127): 64
0    |  MIDI Event: Chan 1 Note OFF: G4, Velocity (0 - 127): 64
0    |  MIDI Event: Chan 1 Note OFF: B3, Velocity (0 - 127): 64
0    |  MIDI Event: Chan 1 Note OFF: D4, Velocity (0 - 127): 64
0    |  MIDI Event: Chan 2 Note OFF: G1, Velocity (0 - 127): 64
0    |  MIDI Event: Chan 5 Note OFF: G2, Velocity (0 - 127): 64
1    |  MIDI Event: Chan 1 Note ON: F#3, Velocity (0 - 127): 35
0    |  MIDI Event: Chan 1 Note ON: A3, Velocity (0 - 127): 85
0    |  MIDI Event: Chan 1 Note ON: D4, Velocity (0 - 127): 79
0    |  MIDI Event: Chan 2 Note ON: D2, Velocity (0 - 127): 100
0    |  MIDI Event: Chan 5 Note ON: A2, Velocity (0 - 127): 90
0    |  MIDI Event: Chan 5 Note ON: D3, Velocity (0 - 127): 105
0    |  MIDI Event: Chan 10 Note ON: B1, Velocity (0 - 127): 120
0    |  MIDI Event: Chan 10 Note ON: A#4, Velocity (0 - 127): 115
29   |  MIDI Event: Chan 10 Note OFF: A#4, Velocity (0 - 127): 64
0    |  MIDI Event: Chan 10 Note OFF: B1, Velocity (0 - 127): 64
0    |  MIDI Event: Chan 4 Note OFF: D4, Velocity (0 - 127): 64
30   |  MIDI Event: Chan 5 Note OFF: A2, Velocity (0 - 127): 64
0    |  MIDI Event: Chan 1 Note OFF: A3, Velocity (0 - 127): 64
0    |  MIDI Event: Chan 1 Note OFF: F#3, Velocity (0 - 127): 64
0    |  MIDI Event: Chan 1 Note OFF: D4, Velocity (0 - 127): 64
0    |  MIDI Event: Chan 5 Note OFF: D3, Velocity (0 - 127): 64
1    |  MIDI Event: Chan 1 Note ON: A3, Velocity (0 - 127): 69
0    |  MIDI Event: Chan 1 Note ON: D4, Velocity (0 - 127): 98
0    |  MIDI Event: Chan 1 Note ON: F#4, Velocity (0 - 127): 74
0    |  MIDI Event: Chan 4 Note ON: D4, Velocity (0 - 127): 120
0    |  MIDI Event: Chan 5 Note ON: A2, Velocity (0 - 127): 100
0    |  MIDI Event: Chan 5 Note ON: D3, Velocity (0 - 127): 111
0    |  MIDI Event: Chan 5 Note ON: F#3, Velocity (0 - 127): 89
0    |  MIDI Event: Chan 10 Note ON: D#2, Velocity (0 - 127): 120
0    |  MIDI Event: Chan 10 Note ON: C#5, Velocity (0 - 127): 115
0    |  Meta Event: Lyric: der 
0    |  Meta Event: Lyric: 
29   |  MIDI Event: Chan 10 Note OFF: C#5, Velocity (0 - 127): 64
0    |  MIDI Event: Chan 10 Note OFF: D#2, Velocity (0 - 127): 64
30   |  MIDI Event: Chan 2 Note OFF: D2, Velocity (0 - 127): 64
1    |  MIDI Event: Chan 2 Note ON: D2, Velocity (0 - 127): 100
0    |  MIDI Event: Chan 10 Note ON: B1, Velocity (0 - 127): 120
0    |  MIDI Event: Chan 10 Note ON: A#4, Velocity (0 - 127): 109
29   |  MIDI Event: Chan 10 Note OFF: A#4, Velocity (0 - 127): 64
0    |  MIDI Event: Chan 1 Note OFF: F#4, Velocity (0 - 127): 64
0    |  MIDI Event: Chan 5 Note OFF: F#3, Velocity (0 - 127): 64
0    |  MIDI Event: Chan 10 Note OFF: B1, Velocity (0 - 127): 64
0    |  MIDI Event: Chan 5 Note OFF: A2, Velocity (0 - 127): 64
0    |  MIDI Event: Chan 1 Note OFF: D4, Velocity (0 - 127): 64
0    |  MIDI Event: Chan 1 Note OFF: A3, Velocity (0 - 127): 64
0    |  MIDI Event: Chan 4 Note OFF: D4, Velocity (0 - 127): 64
0    |  MIDI Event: Chan 5 Note OFF: D3, Velocity (0 - 127): 64
1    |  MIDI Event: Chan 1 Note ON: F#3, Velocity (0 - 127): 44
0    |  MIDI Event: Chan 1 Note ON: A3, Velocity (0 - 127): 78
0    |  MIDI Event: Chan 1 Note ON: D4, Velocity (0 - 127): 58
0    |  MIDI Event: Chan 5 Note ON: A2, Velocity (0 - 127): 85
0    |  MIDI Event: Chan 5 Note ON: D3, Velocity (0 - 127): 105
0    |  MIDI Event: Chan 5 Note ON: F#3, Velocity (0 - 127): 81
29   |  MIDI Event: Chan 5 Note OFF: F#3, Velocity (0 - 127): 64
0    |  MIDI Event: Chan 5 Note OFF: A2, Velocity (0 - 127): 64
0    |  MIDI Event: Chan 1 Note OFF: F#3, Velocity (0 - 127): 64
0    |  MIDI Event: Chan 1 Note OFF: A3, Velocity (0 - 127): 64
0    |  MIDI Event: Chan 1 Note OFF: D4, Velocity (0 - 127): 64
0    |  MIDI Event: Chan 5 Note OFF: D3, Velocity (0 - 127): 64
1    |  MIDI Event: Chan 1 Note ON: A3, Velocity (0 - 127): 57
0    |  MIDI Event: Chan 1 Note ON: D4, Velocity (0 - 127): 91
0    |  MIDI Event: Chan 1 Note ON: F#4, Velocity (0 - 127): 77
0    |  MIDI Event: Chan 5 Note ON: D3, Velocity (0 - 127): 109
0    |  MIDI Event: Chan 5 Note ON: F#3, Velocity (0 - 127): 89
0    |  MIDI Event: Chan 5 Note ON: A3, Velocity (0 - 127): 109
0    |  MIDI Event: Chan 10 Note ON: D#2, Velocity (0 - 127): 120
0    |  MIDI Event: Chan 10 Note ON: C#5, Velocity (0 - 127): 111
29   |  MIDI Event: Chan 10 Note OFF: C#5, Velocity (0 - 127): 64
0    |  MIDI Event: Chan 1 Note OFF: F#4, Velocity (0 - 127): 64
0    |  MIDI Event: Chan 10 Note OFF: D#2, Velocity (0 - 127): 64
0    |  MIDI Event: Chan 5 Note OFF: D3, Velocity (0 - 127): 64
0    |  MIDI Event: Chan 1 Note OFF: A3, Velocity (0 - 127): 64
0    |  MIDI Event: Chan 1 Note OFF: D4, Velocity (0 - 127): 64
0    |  MIDI Event: Chan 5 Note OFF: A3, Velocity (0 - 127): 64
0    |  MIDI Event: Chan 5 Note OFF: F#3, Velocity (0 - 127): 64
1    |  MIDI Event: Chan 1 Note ON: F#3, Velocity (0 - 127): 35
0    |  MIDI Event: Chan 1 Note ON: A3, Velocity (0 - 127): 79
0    |  MIDI Event: Chan 1 Note ON: D4, Velocity (0 - 127): 56
0    |  MIDI Event: Chan 5 Note ON: D3, Velocity (0 - 127): 111
0    |  MIDI Event: Chan 5 Note ON: F#3, Velocity (0 - 127): 100
0    |  MIDI Event: Chan 5 Note ON: A3, Velocity (0 - 127): 100
29   |  MIDI Event: Chan 5 Note OFF: A3, Velocity (0 - 127): 64
0    |  MIDI Event: Chan 5 Note OFF: D3, Velocity (0 - 127): 64
0    |  MIDI Event: Chan 1 Note OFF: F#3, Velocity (0 - 127): 64
0    |  MIDI Event: Chan 1 Note OFF: A3, Velocity (0 - 127): 64
0    |  MIDI Event: Chan 2 Note OFF: D2, Velocity (0 - 127): 64
0    |  MIDI Event: Chan 5 Note OFF: F#3, Velocity (0 - 127): 64
0    |  MIDI Event: Chan 1 Note OFF: D4, Velocity (0 - 127): 64
1    |  MIDI Event: Chan 1 Note ON: F#3, Velocity (0 - 127): 49
0    |  MIDI Event: Chan 1 Note ON: A3, Velocity (0 - 127): 85
0    |  MIDI Event: Chan 1 Note ON: D4, Velocity (0 - 127): 75
0    |  MIDI Event: Chan 2 Note ON: D2, Velocity (0 - 127): 100
0    |  MIDI Event: Chan 5 Note ON: A2, Velocity (0 - 127): 105
0    |  MIDI Event: Chan 5 Note ON: D3, Velocity (0 - 127): 116
0    |  MIDI Event: Chan 10 Note ON: B1, Velocity (0 - 127): 119
0    |  MIDI Event: Chan 10 Note ON: A#4, Velocity (0 - 127): 109
29   |  MIDI Event: Chan 10 Note OFF: A#4, Velocity (0 - 127): 64
0    |  MIDI Event: Chan 10 Note OFF: B1, Velocity (0 - 127): 64
30   |  MIDI Event: Chan 5 Note OFF: A2, Velocity (0 - 127): 64
0    |  MIDI Event: Chan 1 Note OFF: A3, Velocity (0 - 127): 64
0    |  MIDI Event: Chan 1 Note OFF: F#3, Velocity (0 - 127): 64
0    |  MIDI Event: Chan 1 Note OFF: D4, Velocity (0 - 127): 64
0    |  MIDI Event: Chan 5 Note OFF: D3, Velocity (0 - 127): 64
1    |  MIDI Event: Chan 1 Note ON: A3, Velocity (0 - 127): 56
0    |  MIDI Event: Chan 1 Note ON: D4, Velocity (0 - 127): 84
0    |  MIDI Event: Chan 1 Note ON: F#4, Velocity (0 - 127): 49
0    |  MIDI Event: Chan 5 Note ON: D3, Velocity (0 - 127): 105
0    |  MIDI Event: Chan 5 Note ON: F#3, Velocity (0 - 127): 115
0    |  MIDI Event: Chan 10 Note ON: D#2, Velocity (0 - 127): 120
0    |  MIDI Event: Chan 10 Note ON: C#5, Velocity (0 - 127): 111
29   |  MIDI Event: Chan 10 Note OFF: C#5, Velocity (0 - 127): 64
0    |  MIDI Event: Chan 10 Note OFF: D#2, Velocity (0 - 127): 64
0    |  MIDI Event: Chan 5 Note OFF: D3, Velocity (0 - 127): 64
0    |  MIDI Event: Chan 1 Note OFF: A3, Velocity (0 - 127): 64
0    |  MIDI Event: Chan 1 Note OFF: D4, Velocity (0 - 127): 64
0    |  MIDI Event: Chan 1 Note OFF: F#4, Velocity (0 - 127): 64
0    |  MIDI Event: Chan 5 Note OFF: F#3, Velocity (0 - 127): 64
1    |  MIDI Event: Chan 1 Note ON: A3, Velocity (0 - 127): 84
0    |  MIDI Event: Chan 1 Note ON: D4, Velocity (0 - 127): 94
0    |  MIDI Event: Chan 1 Note ON: F#4, Velocity (0 - 127): 76
0    |  MIDI Event: Chan 5 Note ON: D3, Velocity (0 - 127): 100
0    |  MIDI Event: Chan 5 Note ON: F#3, Velocity (0 - 127): 92
29   |  MIDI Event: Chan 5 Note OFF: F#3, Velocity (0 - 127): 64
0    |  MIDI Event: Chan 1 Note OFF: A3, Velocity (0 - 127): 64
0    |  MIDI Event: Chan 1 Note OFF: D4, Velocity (0 - 127): 64
0    |  MIDI Event: Chan 2 Note OFF: D2, Velocity (0 - 127): 64
0    |  MIDI Event: Chan 5 Note OFF: D3, Velocity (0 - 127): 64
0    |  MIDI Event: Chan 1 Note OFF: F#4, Velocity (0 - 127): 64
1    |  MIDI Event: Chan 1 Note ON: E3, Velocity (0 - 127): 47
0    |  MIDI Event: Chan 1 Note ON: A3, Velocity (0 - 127): 89
0    |  MIDI Event: Chan 1 Note ON: C#4, Velocity (0 - 127): 52
0    |  MIDI Event: Chan 2 Note ON: F#1, Velocity (0 - 127): 100
0    |  MIDI Event: Chan 4 Note ON: B4, Velocity (0 - 127): 120
0    |  MIDI Event: Chan 5 Note ON: A2, Velocity (0 - 127): 101
0    |  MIDI Event: Chan 5 Note ON: E3, Velocity (0 - 127): 101
0    |  MIDI Event: Chan 10 Note ON: B1, Velocity (0 - 127): 120
0    |  MIDI Event: Chan 10 Note ON: A#4, Velocity (0 - 127): 111
0    |  Meta Event: Lyric: All 
29   |  MIDI Event: Chan 10 Note OFF: A#4, Velocity (0 - 127): 64
0    |  MIDI Event: Chan 10 Note OFF: B1, Velocity (0 - 127): 64
30   |  MIDI Event: Chan 1 Note OFF: C#4, Velocity (0 - 127): 64
0    |  MIDI Event: Chan 4 Note OFF: B4, Velocity (0 - 127): 64
0    |  MIDI Event: Chan 1 Note OFF: A3, Velocity (0 - 127): 64
0    |  MIDI Event: Chan 1 Note OFF: E3, Velocity (0 - 127): 64
0    |  MIDI Event: Chan 5 Note OFF: E3, Velocity (0 - 127): 64
0    |  MIDI Event: Chan 5 Note OFF: A2, Velocity (0 - 127): 64
1    |  MIDI Event: Chan 1 Note ON: A3, Velocity (0 - 127): 51
0    |  MIDI Event: Chan 1 Note ON: C#4, Velocity (0 - 127): 52
0    |  MIDI Event: Chan 1 Note ON: E4, Velocity (0 - 127): 78
0    |  MIDI Event: Chan 4 Note ON: A4, Velocity (0 - 127): 120
0    |  MIDI Event: Chan 5 Note ON: C#3, Velocity (0 - 127): 89
0    |  MIDI Event: Chan 5 Note ON: E3, Velocity (0 - 127): 101
0    |  MIDI Event: Chan 5 Note ON: A3, Velocity (0 - 127): 89
0    |  MIDI Event: Chan 10 Note ON: D#2, Velocity (0 - 127): 120
0    |  MIDI Event: Chan 10 Note ON: C#5, Velocity (0 - 127): 109
0    |  Meta Event: Lyric: this 
29   |  MIDI Event: Chan 10 Note OFF: C#5, Velocity (0 - 127): 64
0    |  MIDI Event: Chan 1 Note OFF: C#4, Velocity (0 - 127): 64
0    |  MIDI Event: Chan 1 Note OFF: E4, Velocity (0 - 127): 64
0    |  MIDI Event: Chan 10 Note OFF: D#2, Velocity (0 - 127): 64
0    |  MIDI Event: Chan 4 Note OFF: A4, Velocity (0 - 127): 64
0    |  MIDI Event: Chan 1 Note OFF: A3, Velocity (0 - 127): 64
0    |  MIDI Event: Chan 5 Note OFF: A3, Velocity (0 - 127): 64
0    |  MIDI Event: Chan 5 Note OFF: E3, Velocity (0 - 127): 64
0    |  MIDI Event: Chan 5 Note OFF: C#3, Velocity (0 - 127): 64
1    |  MIDI Event: Chan 1 Note ON: A3, Velocity (0 - 127): 73
0    |  MIDI Event: Chan 1 Note ON: C#4, Velocity (0 - 127): 52
0    |  MIDI Event: Chan 1 Note ON: E4, Velocity (0 - 127): 83
0    |  MIDI Event: Chan 5 Note ON: C#3, Velocity (0 - 127): 119
0    |  MIDI Event: Chan 5 Note ON: E3, Velocity (0 - 127): 118
0    |  MIDI Event: Chan 5 Note ON: A3, Velocity (0 - 127): 105
29   |  MIDI Event: Chan 5 Note OFF: A3, Velocity (0 - 127): 64
0    |  MIDI Event: Chan 5 Note OFF: C#3, Velocity (0 - 127): 64
0    |  MIDI Event: Chan 1 Note OFF: A3, Velocity (0 - 127): 64
0    |  MIDI Event: Chan 1 Note OFF: C#4, Velocity (0 - 127): 64
0    |  MIDI Event: Chan 2 Note OFF: F#1, Velocity (0 - 127): 64
0    |  MIDI Event: Chan 5 Note OFF: E3, Velocity (0 - 127): 64
0    |  MIDI Event: Chan 1 Note OFF: E4, Velocity (0 - 127): 64
1    |  MIDI Event: Chan 1 Note ON: B3, Velocity (0 - 127): 58
0    |  MIDI Event: Chan 1 Note ON: D4, Velocity (0 - 127): 91
0    |  MIDI Event: Chan 2 Note ON: B1, Velocity (0 - 127): 100
0    |  MIDI Event: Chan 4 Note ON: F#4, Velocity (0 - 127): 120
0    |  MIDI Event: Chan 5 Note ON: B2, Velocity (0 - 127): 85
0    |  MIDI Event: Chan 5 Note ON: F#3, Velocity (0 - 127): 120
0    |  MIDI Event: Chan 10 Note ON: B1, Velocity (0 - 127): 120
0    |  MIDI Event: Chan 10 Note ON: A#4, Velocity (0 - 127): 109
0    |  Meta Event: Lyric: time 
29   |  MIDI Event: Chan 10 Note OFF: A#4, Velocity (0 - 127): 64
0    |  MIDI Event: Chan 10 Note OFF: B1, Velocity (0 - 127): 64
30   |  MIDI Event: Chan 5 Note OFF: B2, Velocity (0 - 127): 64
0    |  MIDI Event: Chan 1 Note OFF: B3, Velocity (0 - 127): 64
0    |  MIDI Event: Chan 1 Note OFF: D4, Velocity (0 - 127): 64
0    |  MIDI Event: Chan 4 Note OFF: F#4, Velocity (0 - 127): 64
0    |  MIDI Event: Chan 5 Note OFF: F#3, Velocity (0 - 127): 64
1    |  MIDI Event: Chan 1 Note ON: B3, Velocity (0 - 127): 79
0    |  MIDI Event: Chan 1 Note ON: D4, Velocity (0 - 127): 95
0    |  MIDI Event: Chan 1 Note ON: F#4, Velocity (0 - 127): 74
0    |  MIDI Event: Chan 5 Note ON: D3, Velocity (0 - 127): 92
0    |  MIDI Event: Chan 5 Note ON: F#3, Velocity (0 - 127): 87
0    |  MIDI Event: Chan 5 Note ON: D4, Velocity (0 - 127): 95
0    |  MIDI Event: Chan 10 Note ON: D#2, Velocity (0 - 127): 120
0    |  MIDI Event: Chan 10 Note ON: C#5, Velocity (0 - 127): 104
29   |  MIDI Event: Chan 10 Note OFF: C#5, Velocity (0 - 127): 64
0    |  MIDI Event: Chan 10 Note OFF: D#2, Velocity (0 - 127): 64
1    |  MIDI Event: Chan 4 Note ON: F#4, Velocity (0 - 127): 120
0    |  Meta Event: Lyric: I 
29   |  MIDI Event: Chan 2 Note OFF: B1, Velocity (0 - 127): 64
1    |  MIDI Event: Chan 2 Note ON: B1, Velocity (0 - 127): 100
0    |  MIDI Event: Chan 10 Note ON: B1, Velocity (0 - 127): 120
0    |  MIDI Event: Chan 10 Note ON: A#4, Velocity (0 - 127): 109
29   |  MIDI Event: Chan 10 Note OFF: A#4, Velocity (0 - 127): 64
0    |  MIDI Event: Chan 1 Note OFF: F#4, Velocity (0 - 127): 64
0    |  MIDI Event: Chan 1 Note OFF: B3, Velocity (0 - 127): 64
0    |  MIDI Event: Chan 10 Note OFF: B1, Velocity (0 - 127): 64
0    |  MIDI Event: Chan 5 Note OFF: F#3, Velocity (0 - 127): 64
0    |  MIDI Event: Chan 1 Note OFF: D4, Velocity (0 - 127): 64
0    |  MIDI Event: Chan 5 Note OFF: D3, Velocity (0 - 127): 64
0    |  MIDI Event: Chan 4 Note OFF: F#4, Velocity (0 - 127): 64
0    |  MIDI Event: Chan 5 Note OFF: D4, Velocity (0 - 127): 64
1    |  MIDI Event: Chan 1 Note ON: B3, Velocity (0 - 127): 71
0    |  MIDI Event: Chan 1 Note ON: D4, Velocity (0 - 127): 91
0    |  MIDI Event: Chan 1 Note ON: F#4, Velocity (0 - 127): 60
0    |  MIDI Event: Chan 5 Note ON: F#3, Velocity (0 - 127): 109
0    |  MIDI Event: Chan 5 Note ON: B3, Velocity (0 - 127): 95
29   |  MIDI Event: Chan 5 Note OFF: B3, Velocity (0 - 127): 64
0    |  MIDI Event: Chan 1 Note OFF: B3, Velocity (0 - 127): 64
0    |  MIDI Event: Chan 1 Note OFF: D4, Velocity (0 - 127): 64
0    |  MIDI Event: Chan 1 Note OFF: F#4, Velocity (0 - 127): 64
0    |  MIDI Event: Chan 5 Note OFF: F#3, Velocity (0 - 127): 64
1    |  MIDI Event: Chan 1 Note ON: D4, Velocity (0 - 127): 80
0    |  MIDI Event: Chan 1 Note ON: F#4, Velocity (0 - 127): 62
0    |  MIDI Event: Chan 1 Note ON: B4, Velocity (0 - 127): 91
0    |  MIDI Event: Chan 4 Note ON: A4, Velocity (0 - 127): 120
0    |  MIDI Event: Chan 5 Note ON: D3, Velocity (0 - 127): 103
0    |  MIDI Event: Chan 5 Note ON: F#3, Velocity (0 - 127): 115
0    |  MIDI Event: Chan 10 Note ON: D#2, Velocity (0 - 127): 120
0    |  MIDI Event: Chan 10 Note ON: C#5, Velocity (0 - 127): 109
0    |  Meta Event: Lyric: was 
29   |  MIDI Event: Chan 10 Note OFF: C#5, Velocity (0 - 127): 64
0    |  MIDI Event: Chan 1 Note OFF: B4, Velocity (0 - 127): 64
0    |  MIDI Event: Chan 10 Note OFF: D#2, Velocity (0 - 127): 64
0    |  MIDI Event: Chan 4 Note OFF: A4, Velocity (0 - 127): 64
0    |  MIDI Event: Chan 1 Note OFF: D4, Velocity (0 - 127): 64
0    |  MIDI Event: Chan 1 Note OFF: F#4, Velocity (0 - 127): 64
0    |  MIDI Event: Chan 5 Note OFF: F#3, Velocity (0 - 127): 64
0    |  MIDI Event: Chan 5 Note OFF: D3, Velocity (0 - 127): 64
1    |  MIDI Event: Chan 1 Note ON: B3, Velocity (0 - 127): 51
0    |  MIDI Event: Chan 1 Note ON: D4, Velocity (0 - 127): 85
0    |  MIDI Event: Chan 1 Note ON: F#4, Velocity (0 - 127): 59
0    |  MIDI Event: Chan 5 Note ON: B2, Velocity (0 - 127): 92
0    |  MIDI Event: Chan 5 Note ON: E3, Velocity (0 - 127): 98
29   |  MIDI Event: Chan 5 Note OFF: E3, Velocity (0 - 127): 64
0    |  MIDI Event: Chan 1 Note OFF: B3, Velocity (0 - 127): 64
0    |  MIDI Event: Chan 1 Note OFF: D4, Velocity (0 - 127): 64
0    |  MIDI Event: Chan 2 Note OFF: B1, Velocity (0 - 127): 64
0    |  MIDI Event: Chan 5 Note OFF: B2, Velocity (0 - 127): 64
0    |  MIDI Event: Chan 1 Note OFF: F#4, Velocity (0 - 127): 64
1    |  MIDI Event: Chan 1 Note ON: G3, Velocity (0 - 127): 74
0    |  MIDI Event: Chan 1 Note ON: B3, Velocity (0 - 127): 94
0    |  MIDI Event: Chan 1 Note ON: D4, Velocity (0 - 127): 91
0    |  MIDI Event: Chan 2 Note ON: G1, Velocity (0 - 127): 100
0    |  MIDI Event: Chan 4 Note ON: E4, Velocity (0 - 127): 120
0    |  MIDI Event: Chan 5 Note ON: G2, Velocity (0 - 127): 98
0    |  MIDI Event: Chan 5 Note ON: D3, Velocity (0 - 127): 116
0    |  MIDI Event: Chan 10 Note ON: B1, Velocity (0 - 127): 120
0    |  MIDI Event: Chan 10 Note ON: A#4, Velocity (0 - 127): 106
0    |  Meta Event: Lyric: fin
29   |  MIDI Event: Chan 10 Note OFF: A#4, Velocity (0 - 127): 64
0    |  MIDI Event: Chan 10 Note OFF: B1, Velocity (0 - 127): 64
30   |  MIDI Event: Chan 1 Note OFF: G3, Velocity (0 - 127): 64
0    |  MIDI Event: Chan 1 Note OFF: D4, Velocity (0 - 127): 64
0    |  MIDI Event: Chan 1 Note OFF: B3, Velocity (0 - 127): 64
0    |  MIDI Event: Chan 5 Note OFF: D3, Velocity (0 - 127): 64
0    |  MIDI Event: Chan 5 Note OFF: G2, Velocity (0 - 127): 64
1    |  MIDI Event: Chan 1 Note ON: B3, Velocity (0 - 127): 70
0    |  MIDI Event: Chan 1 Note ON: D4, Velocity (0 - 127): 94
0    |  MIDI Event: Chan 1 Note ON: G4, Velocity (0 - 127): 101
0    |  MIDI Event: Chan 5 Note ON: D3, Velocity (0 - 127): 79
0    |  MIDI Event: Chan 5 Note ON: G3, Velocity (0 - 127): 111
0    |  MIDI Event: Chan 5 Note ON: B3, Velocity (0 - 127): 100
0    |  MIDI Event: Chan 10 Note ON: D#2, Velocity (0 - 127): 120
0    |  MIDI Event: Chan 10 Note ON: C#5, Velocity (0 - 127): 98
29   |  MIDI Event: Chan 10 Note OFF: C#5, Velocity (0 - 127): 64
0    |  MIDI Event: Chan 10 Note OFF: D#2, Velocity (0 - 127): 64
0    |  MIDI Event: Chan 4 Note OFF: E4, Velocity (0 - 127): 64
30   |  MIDI Event: Chan 2 Note OFF: G1, Velocity (0 - 127): 64
1    |  MIDI Event: Chan 2 Note ON: G1, Velocity (0 - 127): 100
0    |  MIDI Event: Chan 4 Note ON: E4, Velocity (0 - 127): 118
0    |  MIDI Event: Chan 10 Note ON: B1, Velocity (0 - 127): 120
0    |  MIDI Event: Chan 10 Note ON: A#4, Velocity (0 - 127): 115
0    |  Meta Event: Lyric: ding 
29   |  MIDI Event: Chan 10 Note OFF: A#4, Velocity (0 - 127): 64
0    |  MIDI Event: Chan 1 Note OFF: G4, Velocity (0 - 127): 64
0    |  MIDI Event: Chan 5 Note OFF: B3, Velocity (0 - 127): 64
0    |  MIDI Event: Chan 10 Note OFF: B1, Velocity (0 - 127): 64
0    |  MIDI Event: Chan 1 Note OFF: D4, Velocity (0 - 127): 64
0    |  MIDI Event: Chan 1 Note OFF: B3, Velocity (0 - 127): 64
0    |  MIDI Event: Chan 5 Note OFF: D3, Velocity (0 - 127): 64
0    |  MIDI Event: Chan 5 Note OFF: G3, Velocity (0 - 127): 64
1    |  MIDI Event: Chan 1 Note ON: B3, Velocity (0 - 127): 52
0    |  MIDI Event: Chan 1 Note ON: D4, Velocity (0 - 127): 85
0    |  MIDI Event: Chan 1 Note ON: G4, Velocity (0 - 127): 94
0    |  MIDI Event: Chan 5 Note ON: D3, Velocity (0 - 127): 82
0    |  MIDI Event: Chan 5 Note ON: G3, Velocity (0 - 127): 98
0    |  MIDI Event: Chan 5 Note ON: B3, Velocity (0 - 127): 85
29   |  MIDI Event: Chan 5 Note OFF: B3, Velocity (0 - 127): 64
0    |  MIDI Event: Chan 5 Note OFF: G3, Velocity (0 - 127): 64
0    |  MIDI Event: Chan 1 Note OFF: G4, Velocity (0 - 127): 64
0    |  MIDI Event: Chan 4 Note OFF: E4, Velocity (0 - 127): 64
0    |  MIDI Event: Chan 1 Note OFF: B3, Velocity (0 - 127): 64
0    |  MIDI Event: Chan 1 Note OFF: D4, Velocity (0 - 127): 64
0    |  MIDI Event: Chan 5 Note OFF: D3, Velocity (0 - 127): 64
1    |  MIDI Event: Chan 1 Note ON: D4, Velocity (0 - 127): 78
0    |  MIDI Event: Chan 1 Note ON: G4, Velocity (0 - 127): 100
0    |  MIDI Event: Chan 1 Note ON: B4, Velocity (0 - 127): 46
0    |  MIDI Event: Chan 4 Note ON: D4, Velocity (0 - 127): 111
0    |  MIDI Event: Chan 5 Note ON: G2, Velocity (0 - 127): 109
0    |  MIDI Event: Chan 5 Note ON: D3, Velocity (0 - 127): 109
0    |  MIDI Event: Chan 10 Note ON: D#2, Velocity (0 - 127): 120
0    |  MIDI Event: Chan 10 Note ON: C#5, Velocity (0 - 127): 111
0    |  Meta Event: Lyric: my
29   |  MIDI Event: Chan 10 Note OFF: C#5, Velocity (0 - 127): 64
0    |  MIDI Event: Chan 1 Note OFF: B4, Velocity (0 - 127): 64
0    |  MIDI Event: Chan 10 Note OFF: D#2, Velocity (0 - 127): 64
0    |  MIDI Event: Chan 4 Note OFF: D4, Velocity (0 - 127): 64
0    |  MIDI Event: Chan 1 Note OFF: D4, Velocity (0 - 127): 64
0    |  MIDI Event: Chan 1 Note OFF: G4, Velocity (0 - 127): 64
0    |  MIDI Event: Chan 5 Note OFF: D3, Velocity (0 - 127): 64
0    |  MIDI Event: Chan 5 Note OFF: G2, Velocity (0 - 127): 64
1    |  MIDI Event: Chan 1 Note ON: B3, Velocity (0 - 127): 45
0    |  MIDI Event: Chan 1 Note ON: D4, Velocity (0 - 127): 73
0    |  MIDI Event: Chan 1 Note ON: G4, Velocity (0 - 127): 86
0    |  MIDI Event: Chan 5 Note ON: G2, Velocity (0 - 127): 101
0    |  MIDI Event: Chan 5 Note ON: E3, Velocity (0 - 127): 116
29   |  MIDI Event: Chan 5 Note OFF: E3, Velocity (0 - 127): 64
0    |  MIDI Event: Chan 1 Note OFF: B3, Velocity (0 - 127): 64
0    |  MIDI Event: Chan 1 Note OFF: D4, Velocity (0 - 127): 64
0    |  MIDI Event: Chan 2 Note OFF: G1, Velocity (0 - 127): 64
0    |  MIDI Event: Chan 5 Note OFF: G2, Velocity (0 - 127): 64
0    |  MIDI Event: Chan 1 Note OFF: G4, Velocity (0 - 127): 64
1    |  MIDI Event: Chan 1 Note ON: F#3, Velocity (0 - 127): 35
0    |  MIDI Event: Chan 1 Note ON: A3, Velocity (0 - 127): 85
0    |  MIDI Event: Chan 1 Note ON: D4, Velocity (0 - 127): 79
0    |  MIDI Event: Chan 2 Note ON: D2, Velocity (0 - 127): 100
0    |  MIDI Event: Chan 4 Note ON: F#4, Velocity (0 - 127): 120
0    |  MIDI Event: Chan 5 Note ON: A2, Velocity (0 - 127): 90
0    |  MIDI Event: Chan 5 Note ON: D3, Velocity (0 - 127): 105
0    |  MIDI Event: Chan 10 Note ON: B1, Velocity (0 - 127): 120
0    |  MIDI Event: Chan 10 Note ON: A#4, Velocity (0 - 127): 104
0    |  Meta Event: Lyric: se
29   |  MIDI Event: Chan 10 Note OFF: A#4, Velocity (0 - 127): 64
0    |  MIDI Event: Chan 10 Note OFF: B1, Velocity (0 - 127): 64
0    |  MIDI Event: Chan 4 Note OFF: F#4, Velocity (0 - 127): 64
1    |  MIDI Event: Chan 4 Note ON: E4, Velocity (0 - 127): 105
29   |  MIDI Event: Chan 4 Note OFF: E4, Velocity (0 - 127): 64
0    |  MIDI Event: Chan 5 Note OFF: D3, Velocity (0 - 127): 64
0    |  MIDI Event: Chan 1 Note OFF: A3, Velocity (0 - 127): 64
0    |  MIDI Event: Chan 1 Note OFF: F#3, Velocity (0 - 127): 64
0    |  MIDI Event: Chan 1 Note OFF: D4, Velocity (0 - 127): 64
0    |  MIDI Event: Chan 5 Note OFF: A2, Velocity (0 - 127): 64
1    |  MIDI Event: Chan 1 Note ON: A3, Velocity (0 - 127): 69
0    |  MIDI Event: Chan 1 Note ON: D4, Velocity (0 - 127): 98
0    |  MIDI Event: Chan 1 Note ON: F#4, Velocity (0 - 127): 74
0    |  MIDI Event: Chan 4 Note ON: B3, Velocity (0 - 127): 118
0    |  MIDI Event: Chan 5 Note ON: A2, Velocity (0 - 127): 100
0    |  MIDI Event: Chan 5 Note ON: D3, Velocity (0 - 127): 111
0    |  MIDI Event: Chan 5 Note ON: F#3, Velocity (0 - 127): 89
0    |  MIDI Event: Chan 10 Note ON: D#2, Velocity (0 - 127): 119
0    |  MIDI Event: Chan 10 Note ON: C#5, Velocity (0 - 127): 109
29   |  MIDI Event: Chan 10 Note OFF: C#5, Velocity (0 - 127): 64
0    |  MIDI Event: Chan 10 Note OFF: D#2, Velocity (0 - 127): 64
0    |  MIDI Event: Chan 4 Note OFF: B3, Velocity (0 - 127): 64
1    |  MIDI Event: Chan 4 Note ON: A3, Velocity (0 - 127): 116
0    |  Meta Event: Lyric: lf 
0    |  Meta Event: Lyric: 
29   |  MIDI Event: Chan 2 Note OFF: D2, Velocity (0 - 127): 64
1    |  MIDI Event: Chan 2 Note ON: D2, Velocity (0 - 127): 100
0    |  MIDI Event: Chan 10 Note ON: B1, Velocity (0 - 127): 120
0    |  MIDI Event: Chan 10 Note ON: A#4, Velocity (0 - 127): 102
29   |  MIDI Event: Chan 10 Note OFF: A#4, Velocity (0 - 127): 64
0    |  MIDI Event: Chan 1 Note OFF: F#4, Velocity (0 - 127): 64
0    |  MIDI Event: Chan 1 Note OFF: A3, Velocity (0 - 127): 64
0    |  MIDI Event: Chan 10 Note OFF: B1, Velocity (0 - 127): 64
0    |  MIDI Event: Chan 5 Note OFF: A2, Velocity (0 - 127): 64
0    |  MIDI Event: Chan 1 Note OFF: D4, Velocity (0 - 127): 64
0    |  MIDI Event: Chan 5 Note OFF: F#3, Velocity (0 - 127): 64
0    |  MIDI Event: Chan 4 Note OFF: A3, Velocity (0 - 127): 64
0    |  MIDI Event: Chan 5 Note OFF: D3, Velocity (0 - 127): 64
1    |  MIDI Event: Chan 1 Note ON: F#3, Velocity (0 - 127): 44
0    |  MIDI Event: Chan 1 Note ON: A3, Velocity (0 - 127): 78
0    |  MIDI Event: Chan 1 Note ON: D4, Velocity (0 - 127): 58
0    |  MIDI Event: Chan 5 Note ON: A2, Velocity (0 - 127): 85
0    |  MIDI Event: Chan 5 Note ON: D3, Velocity (0 - 127): 105
0    |  MIDI Event: Chan 5 Note ON: F#3, Velocity (0 - 127): 81
29   |  MIDI Event: Chan 5 Note OFF: F#3, Velocity (0 - 127): 64
0    |  MIDI Event: Chan 5 Note OFF: A2, Velocity (0 - 127): 64
0    |  MIDI Event: Chan 1 Note OFF: F#3, Velocity (0 - 127): 64
0    |  MIDI Event: Chan 1 Note OFF: A3, Velocity (0 - 127): 64
0    |  MIDI Event: Chan 1 Note OFF: D4, Velocity (0 - 127): 64
0    |  MIDI Event: Chan 5 Note OFF: D3, Velocity (0 - 127): 64
1    |  MIDI Event: Chan 1 Note ON: A3, Velocity (0 - 127): 57
0    |  MIDI Event: Chan 1 Note ON: D4, Velocity (0 - 127): 91
0    |  MIDI Event: Chan 1 Note ON: F#4, Velocity (0 - 127): 77
0    |  MIDI Event: Chan 4 Note ON: A3, Velocity (0 - 127): 120
0    |  MIDI Event: Chan 5 Note ON: D3, Velocity (0 - 127): 109
0    |  MIDI Event: Chan 5 Note ON: F#3, Velocity (0 - 127): 89
0    |  MIDI Event: Chan 5 Note ON: A3, Velocity (0 - 127): 109
0    |  MIDI Event: Chan 10 Note ON: D#2, Velocity (0 - 127): 120
0    |  MIDI Event: Chan 10 Note ON: C#5, Velocity (0 - 127): 106
0    |  Meta Event: Lyric: And 
29   |  MIDI Event: Chan 10 Note OFF: C#5, Velocity (0 - 127): 64
0    |  MIDI Event: Chan 10 Note OFF: D#2, Velocity (0 - 127): 64
0    |  MIDI Event: Chan 5 Note OFF: F#3, Velocity (0 - 127): 64
0    |  MIDI Event: Chan 1 Note OFF: D4, Velocity (0 - 127): 64
0    |  MIDI Event: Chan 1 Note OFF: F#4, Velocity (0 - 127): 64
0    |  MIDI Event: Chan 1 Note OFF: A3, Velocity (0 - 127): 64
0    |  MIDI Event: Chan 5 Note OFF: A3, Velocity (0 - 127): 64
0    |  MIDI Event: Chan 5 Note OFF: D3, Velocity (0 - 127): 64
1    |  MIDI Event: Chan 1 Note ON: F#3, Velocity (0 - 127): 35
0    |  MIDI Event: Chan 1 Note ON: A3, Velocity (0 - 127): 79
0    |  MIDI Event: Chan 1 Note ON: D4, Velocity (0 - 127): 56
0    |  MIDI Event: Chan 5 Note ON: D3, Velocity (0 - 127): 111
0    |  MIDI Event: Chan 5 Note ON: F#3, Velocity (0 - 127): 100
0    |  MIDI Event: Chan 5 Note ON: A3, Velocity (0 - 127): 100
29   |  MIDI Event: Chan 5 Note OFF: A3, Velocity (0 - 127): 64
0    |  MIDI Event: Chan 2 Note OFF: D2, Velocity (0 - 127): 64
0    |  MIDI Event: Chan 1 Note OFF: D4, Velocity (0 - 127): 64
0    |  MIDI Event: Chan 4 Note OFF: A3, Velocity (0 - 127): 64
0    |  MIDI Event: Chan 1 Note OFF: F#3, Velocity (0 - 127): 64
0    |  MIDI Event: Chan 1 Note OFF: A3, Velocity (0 - 127): 64
0    |  MIDI Event: Chan 5 Note OFF: D3, Velocity (0 - 127): 64
0    |  MIDI Event: Chan 5 Note OFF: F#3, Velocity (0 - 127): 64
1    |  MIDI Event: Chan 1 Note ON: F#3, Velocity (0 - 127): 49
0    |  MIDI Event: Chan 1 Note ON: A3, Velocity (0 - 127): 85
0    |  MIDI Event: Chan 1 Note ON: D4, Velocity (0 - 127): 75
0    |  MIDI Event: Chan 2 Note ON: D2, Velocity (0 - 127): 100
0    |  MIDI Event: Chan 4 Note ON: F#4, Velocity (0 - 127): 120
0    |  MIDI Event: Chan 5 Note ON: A2, Velocity (0 - 127): 105
0    |  MIDI Event: Chan 5 Note ON: D3, Velocity (0 - 127): 116
0    |  MIDI Event: Chan 10 Note ON: B1, Velocity (0 - 127): 120
0    |  MIDI Event: Chan 10 Note ON: A#4, Velocity (0 - 127): 92
0    |  Meta Event: Lyric: I
29   |  MIDI Event: Chan 10 Note OFF: A#4, Velocity (0 - 127): 64
0    |  MIDI Event: Chan 10 Note OFF: B1, Velocity (0 - 127): 64
30   |  MIDI Event: Chan 1 Note OFF: F#3, Velocity (0 - 127): 64
0    |  MIDI Event: Chan 1 Note OFF: D4, Velocity (0 - 127): 64
0    |  MIDI Event: Chan 1 Note OFF: A3, Velocity (0 - 127): 64
0    |  MIDI Event: Chan 5 Note OFF: D3, Velocity (0 - 127): 64
0    |  MIDI Event: Chan 5 Note OFF: A2, Velocity (0 - 127): 64
1    |  MIDI Event: Chan 1 Note ON: A3, Velocity (0 - 127): 56
0    |  MIDI Event: Chan 1 Note ON: D4, Velocity (0 - 127): 84
0    |  MIDI Event: Chan 1 Note ON: F#4, Velocity (0 - 127): 49
0    |  MIDI Event: Chan 5 Note ON: D3, Velocity (0 - 127): 105
0    |  MIDI Event: Chan 5 Note ON: F#3, Velocity (0 - 127): 115
0    |  MIDI Event: Chan 10 Note ON: D#2, Velocity (0 - 127): 115
0    |  MIDI Event: Chan 10 Note ON: C#5, Velocity (0 - 127): 106
29   |  MIDI Event: Chan 10 Note OFF: C#5, Velocity (0 - 127): 64
0    |  MIDI Event: Chan 1 Note OFF: D4, Velocity (0 - 127): 64
0    |  MIDI Event: Chan 10 Note OFF: D#2, Velocity (0 - 127): 64
0    |  MIDI Event: Chan 1 Note OFF: F#4, Velocity (0 - 127): 64
0    |  MIDI Event: Chan 5 Note OFF: F#3, Velocity (0 - 127): 64
0    |  MIDI Event: Chan 1 Note OFF: A3, Velocity (0 - 127): 64
0    |  MIDI Event: Chan 5 Note OFF: D3, Velocity (0 - 127): 64
1    |  MIDI Event: Chan 1 Note ON: A3, Velocity (0 - 127): 84
0    |  MIDI Event: Chan 1 Note ON: D4, Velocity (0 - 127): 94
0    |  MIDI Event: Chan 1 Note ON: F#4, Velocity (0 - 127): 76
0    |  MIDI Event: Chan 5 Note ON: D3, Velocity (0 - 127): 100
0    |  MIDI Event: Chan 5 Note ON: F#3, Velocity (0 - 127): 92
29   |  MIDI Event: Chan 5 Note OFF: F#3, Velocity (0 - 127): 64
0    |  MIDI Event: Chan 1 Note OFF: F#4, Velocity (0 - 127): 64
0    |  MIDI Event: Chan 4 Note OFF: F#4, Velocity (0 - 127): 64
0    |  MIDI Event: Chan 1 Note OFF: A3, Velocity (0 - 127): 64
0    |  MIDI Event: Chan 2 Note OFF: D2, Velocity (0 - 127): 64
0    |  MIDI Event: Chan 5 Note OFF: D3, Velocity (0 - 127): 64
0    |  MIDI Event: Chan 1 Note OFF: D4, Velocity (0 - 127): 64
1    |  MIDI Event: Chan 1 Note ON: E3, Velocity (0 - 127): 47
0    |  MIDI Event: Chan 1 Note ON: A3, Velocity (0 - 127): 89
0    |  MIDI Event: Chan 1 Note ON: C#4, Velocity (0 - 127): 52
0    |  MIDI Event: Chan 2 Note ON: A1, Velocity (0 - 127): 100
0    |  MIDI Event: Chan 4 Note ON: E4, Velocity (0 - 127): 120
0    |  MIDI Event: Chan 5 Note ON: A2, Velocity (0 - 127): 101
0    |  MIDI Event: Chan 5 Note ON: E3, Velocity (0 - 127): 101
0    |  MIDI Event: Chan 10 Note ON: B1, Velocity (0 - 127): 120
0    |  MIDI Event: Chan 10 Note ON: A#4, Velocity (0 - 127): 106
0    |  Meta Event: Lyric: , 
29   |  MIDI Event: Chan 10 Note OFF: A#4, Velocity (0 - 127): 64
0    |  MIDI Event: Chan 10 Note OFF: B1, Velocity (0 - 127): 64
30   |  MIDI Event: Chan 1 Note OFF: E3, Velocity (0 - 127): 64
0    |  MIDI Event: Chan 1 Note OFF: C#4, Velocity (0 - 127): 64
0    |  MIDI Event: Chan 1 Note OFF: A3, Velocity (0 - 127): 64
0    |  MIDI Event: Chan 5 Note OFF: E3, Velocity (0 - 127): 64
0    |  MIDI Event: Chan 5 Note OFF: A2, Velocity (0 - 127): 64
1    |  MIDI Event: Chan 1 Note ON: A3, Velocity (0 - 127): 51
0    |  MIDI Event: Chan 1 Note ON: C#4, Velocity (0 - 127): 52
0    |  MIDI Event: Chan 1 Note ON: E4, Velocity (0 - 127): 78
0    |  MIDI Event: Chan 5 Note ON: C#3, Velocity (0 - 127): 89
0    |  MIDI Event: Chan 5 Note ON: E3, Velocity (0 - 127): 101
0    |  MIDI Event: Chan 5 Note ON: A3, Velocity (0 - 127): 89
0    |  MIDI Event: Chan 10 Note ON: D#2, Velocity (0 - 127): 119
0    |  MIDI Event: Chan 10 Note ON: C#5, Velocity (0 - 127): 109
29   |  MIDI Event: Chan 10 Note OFF: C#5, Velocity (0 - 127): 64
0    |  MIDI Event: Chan 1 Note OFF: A3, Velocity (0 - 127): 64
0    |  MIDI Event: Chan 1 Note OFF: C#4, Velocity (0 - 127): 64
0    |  MIDI Event: Chan 10 Note OFF: D#2, Velocity (0 - 127): 64
0    |  MIDI Event: Chan 1 Note OFF: E4, Velocity (0 - 127): 64
0    |  MIDI Event: Chan 5 Note OFF: E3, Velocity (0 - 127): 64
0    |  MIDI Event: Chan 5 Note OFF: A3, Velocity (0 - 127): 64
0    |  MIDI Event: Chan 5 Note OFF: C#3, Velocity (0 - 127): 64
1    |  MIDI Event: Chan 1 Note ON: A3, Velocity (0 - 127): 73
0    |  MIDI Event: Chan 1 Note ON: C#4, Velocity (0 - 127): 52
0    |  MIDI Event: Chan 1 Note ON: E4, Velocity (0 - 127): 83
0    |  MIDI Event: Chan 5 Note ON: C#3, Velocity (0 - 127): 119
0    |  MIDI Event: Chan 5 Note ON: E3, Velocity (0 - 127): 118
0    |  MIDI Event: Chan 5 Note ON: A3, Velocity (0 - 127): 105
29   |  MIDI Event: Chan 5 Note OFF: A3, Velocity (0 - 127): 64
0    |  MIDI Event: Chan 2 Note OFF: A1, Velocity (0 - 127): 64
0    |  MIDI Event: Chan 1 Note OFF: E4, Velocity (0 - 127): 64
0    |  MIDI Event: Chan 4 Note OFF: E4, Velocity (0 - 127): 64
0    |  MIDI Event: Chan 1 Note OFF: A3, Velocity (0 - 127): 64
0    |  MIDI Event: Chan 1 Note OFF: C#4, Velocity (0 - 127): 64
0    |  MIDI Event: Chan 5 Note OFF: C#3, Velocity (0 - 127): 64
0    |  MIDI Event: Chan 5 Note OFF: E3, Velocity (0 - 127): 64
1    |  MIDI Event: Chan 1 Note ON: B3, Velocity (0 - 127): 58
0    |  MIDI Event: Chan 1 Note ON: D4, Velocity (0 - 127): 91
0    |  MIDI Event: Chan 2 Note ON: B1, Velocity (0 - 127): 100
0    |  MIDI Event: Chan 5 Note ON: B2, Velocity (0 - 127): 85
0    |  MIDI Event: Chan 5 Note ON: F#3, Velocity (0 - 127): 120
0    |  MIDI Event: Chan 10 Note ON: B1, Velocity (0 - 127): 120
0    |  MIDI Event: Chan 10 Note ON: A#4, Velocity (0 - 127): 106
29   |  MIDI Event: Chan 10 Note OFF: A#4, Velocity (0 - 127): 64
0    |  MIDI Event: Chan 10 Note OFF: B1, Velocity (0 - 127): 64
30   |  MIDI Event: Chan 5 Note OFF: B2, Velocity (0 - 127): 64
0    |  MIDI Event: Chan 1 Note OFF: D4, Velocity (0 - 127): 64
0    |  MIDI Event: Chan 1 Note OFF: B3, Velocity (0 - 127): 64
0    |  MIDI Event: Chan 5 Note OFF: F#3, Velocity (0 - 127): 64
1    |  MIDI Event: Chan 1 Note ON: B3, Velocity (0 - 127): 79
0    |  MIDI Event: Chan 1 Note ON: D4, Velocity (0 - 127): 95
0    |  MIDI Event: Chan 1 Note ON: F#4, Velocity (0 - 127): 74
0    |  MIDI Event: Chan 5 Note ON: D3, Velocity (0 - 127): 92
0    |  MIDI Event: Chan 5 Note ON: F#3, Velocity (0 - 127): 87
0    |  MIDI Event: Chan 5 Note ON: D4, Velocity (0 - 127): 95
0    |  MIDI Event: Chan 10 Note ON: D#2, Velocity (0 - 127): 119
0    |  MIDI Event: Chan 10 Note ON: C#5, Velocity (0 - 127): 106
29   |  MIDI Event: Chan 10 Note OFF: C#5, Velocity (0 - 127): 64
0    |  MIDI Event: Chan 10 Note OFF: D#2, Velocity (0 - 127): 64
1    |  MIDI Event: Chan 4 Note ON: D4, Velocity (0 - 127): 119
0    |  Meta Event: Lyric: I 
29   |  MIDI Event: Chan 4 Note OFF: D4, Velocity (0 - 127): 64
0    |  MIDI Event: Chan 2 Note OFF: B1, Velocity (0 - 127): 64
1    |  MIDI Event: Chan 2 Note ON: B1, Velocity (0 - 127): 100
0    |  MIDI Event: Chan 4 Note ON: G4, Velocity (0 - 127): 120
0    |  MIDI Event: Chan 10 Note ON: B1, Velocity (0 - 127): 120
0    |  MIDI Event: Chan 10 Note ON: A#4, Velocity (0 - 127): 109
0    |  Meta Event: Lyric: did
29   |  MIDI Event: Chan 10 Note OFF: A#4, Velocity (0 - 127): 64
0    |  MIDI Event: Chan 1 Note OFF: F#4, Velocity (0 - 127): 64
0    |  MIDI Event: Chan 5 Note OFF: D3, Velocity (0 - 127): 64
0    |  MIDI Event: Chan 1 Note OFF: B3, Velocity (0 - 127): 64
0    |  MIDI Event: Chan 10 Note OFF: B1, Velocity (0 - 127): 64
0    |  MIDI Event: Chan 1 Note OFF: D4, Velocity (0 - 127): 64
0    |  MIDI Event: Chan 4 Note OFF: G4, Velocity (0 - 127): 64
0    |  MIDI Event: Chan 5 Note OFF: F#3, Velocity (0 - 127): 64
0    |  MIDI Event: Chan 5 Note OFF: D4, Velocity (0 - 127): 64
1    |  MIDI Event: Chan 1 Note ON: B3, Velocity (0 - 127): 71
0    |  MIDI Event: Chan 1 Note ON: D4, Velocity (0 - 127): 91
0    |  MIDI Event: Chan 1 Note ON: F#4, Velocity (0 - 127): 60
0    |  MIDI Event: Chan 4 Note ON: G4, Velocity (0 - 127): 119
0    |  MIDI Event: Chan 5 Note ON: F#3, Velocity (0 - 127): 109
0    |  MIDI Event: Chan 5 Note ON: B3, Velocity (0 - 127): 95
0    |  Meta Event: Lyric: n't 
29   |  MIDI Event: Chan 5 Note OFF: B3, Velocity (0 - 127): 64
0    |  MIDI Event: Chan 1 Note OFF: F#4, Velocity (0 - 127): 64
0    |  MIDI Event: Chan 1 Note OFF: B3, Velocity (0 - 127): 64
0    |  MIDI Event: Chan 1 Note OFF: D4, Velocity (0 - 127): 64
0    |  MIDI Event: Chan 5 Note OFF: F#3, Velocity (0 - 127): 64
1    |  MIDI Event: Chan 1 Note ON: D4, Velocity (0 - 127): 80
0    |  MIDI Event: Chan 1 Note ON: F#4, Velocity (0 - 127): 62
0    |  MIDI Event: Chan 1 Note ON: B4, Velocity (0 - 127): 91
0    |  MIDI Event: Chan 5 Note ON: D3, Velocity (0 - 127): 103
0    |  MIDI Event: Chan 5 Note ON: F#3, Velocity (0 - 127): 115
0    |  MIDI Event: Chan 10 Note ON: D#2, Velocity (0 - 127): 120
0    |  MIDI Event: Chan 10 Note ON: C#5, Velocity (0 - 127): 106
29   |  MIDI Event: Chan 10 Note OFF: C#5, Velocity (0 - 127): 64
0    |  MIDI Event: Chan 1 Note OFF: F#4, Velocity (0 - 127): 64
0    |  MIDI Event: Chan 10 Note OFF: D#2, Velocity (0 - 127): 64
0    |  MIDI Event: Chan 1 Note OFF: B4, Velocity (0 - 127): 64
0    |  MIDI Event: Chan 4 Note OFF: G4, Velocity (0 - 127): 64
0    |  MIDI Event: Chan 1 Note OFF: D4, Velocity (0 - 127): 64
0    |  MIDI Event: Chan 5 Note OFF: F#3, Velocity (0 - 127): 64
0    |  MIDI Event: Chan 5 Note OFF: D3, Velocity (0 - 127): 64
1    |  MIDI Event: Chan 1 Note ON: B3, Velocity (0 - 127): 51
0    |  MIDI Event: Chan 1 Note ON: D4, Velocity (0 - 127): 85
0    |  MIDI Event: Chan 1 Note ON: F#4, Velocity (0 - 127): 59
0    |  MIDI Event: Chan 5 Note ON: B2, Velocity (0 - 127): 92
0    |  MIDI Event: Chan 5 Note ON: E3, Velocity (0 - 127): 98
29   |  MIDI Event: Chan 5 Note OFF: E3, Velocity (0 - 127): 64
0    |  MIDI Event: Chan 1 Note OFF: B3, Velocity (0 - 127): 64
0    |  MIDI Event: Chan 1 Note OFF: D4, Velocity (0 - 127): 64
0    |  MIDI Event: Chan 2 Note OFF: B1, Velocity (0 - 127): 64
0    |  MIDI Event: Chan 5 Note OFF: B2, Velocity (0 - 127): 64
0    |  MIDI Event: Chan 1 Note OFF: F#4, Velocity (0 - 127): 64
1    |  MIDI Event: Chan 1 Note ON: G3, Velocity (0 - 127): 74
0    |  MIDI Event: Chan 1 Note ON: B3, Velocity (0 - 127): 94
0    |  MIDI Event: Chan 1 Note ON: D4, Velocity (0 - 127): 91
0    |  MIDI Event: Chan 2 Note ON: G1, Velocity (0 - 127): 100
0    |  MIDI Event: Chan 4 Note ON: F#4, Velocity (0 - 127): 119
0    |  MIDI Event: Chan 5 Note ON: G2, Velocity (0 - 127): 98
0    |  MIDI Event: Chan 5 Note ON: D3, Velocity (0 - 127): 116
0    |  MIDI Event: Chan 10 Note ON: B1, Velocity (0 - 127): 120
0    |  MIDI Event: Chan 10 Note ON: A#4, Velocity (0 - 127): 109
0    |  Meta Event: Lyric: know 
29   |  MIDI Event: Chan 10 Note OFF: A#4, Velocity (0 - 127): 64
0    |  MIDI Event: Chan 10 Note OFF: B1, Velocity (0 - 127): 64
30   |  MIDI Event: Chan 1 Note OFF: G3, Velocity (0 - 127): 64
0    |  MIDI Event: Chan 1 Note OFF: D4, Velocity (0 - 127): 64
0    |  MIDI Event: Chan 1 Note OFF: B3, Velocity (0 - 127): 64
0    |  MIDI Event: Chan 5 Note OFF: D3, Velocity (0 - 127): 64
0    |  MIDI Event: Chan 5 Note OFF: G2, Velocity (0 - 127): 64
1    |  MIDI Event: Chan 1 Note ON: B3, Velocity (0 - 127): 70
0    |  MIDI Event: Chan 1 Note ON: D4, Velocity (0 - 127): 94
0    |  MIDI Event: Chan 1 Note ON: G4, Velocity (0 - 127): 101
0    |  MIDI Event: Chan 5 Note ON: D3, Velocity (0 - 127): 79
0    |  MIDI Event: Chan 5 Note ON: G3, Velocity (0 - 127): 111
0    |  MIDI Event: Chan 5 Note ON: B3, Velocity (0 - 127): 100
0    |  MIDI Event: Chan 10 Note ON: D#2, Velocity (0 - 127): 120
0    |  MIDI Event: Chan 10 Note ON: C#5, Velocity (0 - 127): 98
29   |  MIDI Event: Chan 10 Note OFF: C#5, Velocity (0 - 127): 64
0    |  MIDI Event: Chan 10 Note OFF: D#2, Velocity (0 - 127): 64
0    |  MIDI Event: Chan 4 Note OFF: F#4, Velocity (0 - 127): 64
1    |  MIDI Event: Chan 4 Note ON: E4, Velocity (0 - 127): 116
0    |  Meta Event: Lyric: I 
29   |  MIDI Event: Chan 2 Note OFF: G1, Velocity (0 - 127): 64
1    |  MIDI Event: Chan 2 Note ON: G1, Velocity (0 - 127): 100
0    |  MIDI Event: Chan 10 Note ON: B1, Velocity (0 - 127): 120
0    |  MIDI Event: Chan 10 Note ON: A#4, Velocity (0 - 127): 115
29   |  MIDI Event: Chan 10 Note OFF: A#4, Velocity (0 - 127): 64
0    |  MIDI Event: Chan 1 Note OFF: G4, Velocity (0 - 127): 64
0    |  MIDI Event: Chan 1 Note OFF: D4, Velocity (0 - 127): 64
0    |  MIDI Event: Chan 10 Note OFF: B1, Velocity (0 - 127): 64
0    |  MIDI Event: Chan 5 Note OFF: D3, Velocity (0 - 127): 64
0    |  MIDI Event: Chan 1 Note OFF: B3, Velocity (0 - 127): 64
0    |  MIDI Event: Chan 5 Note OFF: B3, Velocity (0 - 127): 64
0    |  MIDI Event: Chan 4 Note OFF: E4, Velocity (0 - 127): 64
0    |  MIDI Event: Chan 5 Note OFF: G3, Velocity (0 - 127): 64
1    |  MIDI Event: Chan 1 Note ON: B3, Velocity (0 - 127): 52
0    |  MIDI Event: Chan 1 Note ON: D4, Velocity (0 - 127): 85
0    |  MIDI Event: Chan 1 Note ON: G4, Velocity (0 - 127): 94
0    |  MIDI Event: Chan 5 Note ON: D3, Velocity (0 - 127): 82
0    |  MIDI Event: Chan 5 Note ON: G3, Velocity (0 - 127): 98
0    |  MIDI Event: Chan 5 Note ON: B3, Velocity (0 - 127): 85
29   |  MIDI Event: Chan 5 Note OFF: B3, Velocity (0 - 127): 64
0    |  MIDI Event: Chan 5 Note OFF: D3, Velocity (0 - 127): 64
0    |  MIDI Event: Chan 1 Note OFF: B3, Velocity (0 - 127): 64
0    |  MIDI Event: Chan 1 Note OFF: D4, Velocity (0 - 127): 64
0    |  MIDI Event: Chan 1 Note OFF: G4, Velocity (0 - 127): 64
0    |  MIDI Event: Chan 5 Note OFF: G3, Velocity (0 - 127): 64
1    |  MIDI Event: Chan 1 Note ON: D4, Velocity (0 - 127): 78
0    |  MIDI Event: Chan 1 Note ON: G4, Velocity (0 - 127): 100
0    |  MIDI Event: Chan 1 Note ON: B4, Velocity (0 - 127): 46
0    |  MIDI Event: Chan 4 Note ON: D4, Velocity (0 - 127): 118
0    |  MIDI Event: Chan 5 Note ON: G2, Velocity (0 - 127): 109
0    |  MIDI Event: Chan 5 Note ON: D3, Velocity (0 - 127): 109
0    |  MIDI Event: Chan 10 Note ON: D#2, Velocity (0 - 127): 120
0    |  MIDI Event: Chan 10 Note ON: C#5, Velocity (0 - 127): 102
0    |  Meta Event: Lyric: was 
29   |  MIDI Event: Chan 10 Note OFF: C#5, Velocity (0 - 127): 64
0    |  MIDI Event: Chan 1 Note OFF: G4, Velocity (0 - 127): 64
0    |  MIDI Event: Chan 10 Note OFF: D#2, Velocity (0 - 127): 64
0    |  MIDI Event: Chan 1 Note OFF: B4, Velocity (0 - 127): 64
0    |  MIDI Event: Chan 1 Note OFF: D4, Velocity (0 - 127): 64
0    |  MIDI Event: Chan 5 Note OFF: D3, Velocity (0 - 127): 64
0    |  MIDI Event: Chan 5 Note OFF: G2, Velocity (0 - 127): 64
1    |  MIDI Event: Chan 1 Note ON: B3, Velocity (0 - 127): 45
0    |  MIDI Event: Chan 1 Note ON: D4, Velocity (0 - 127): 73
0    |  MIDI Event: Chan 1 Note ON: G4, Velocity (0 - 127): 86
0    |  MIDI Event: Chan 5 Note ON: G2, Velocity (0 - 127): 101
0    |  MIDI Event: Chan 5 Note ON: E3, Velocity (0 - 127): 116
29   |  MIDI Event: Chan 5 Note OFF: E3, Velocity (0 - 127): 64
0    |  MIDI Event: Chan 1 Note OFF: G4, Velocity (0 - 127): 64
0    |  MIDI Event: Chan 2 Note OFF: G1, Velocity (0 - 127): 64
0    |  MIDI Event: Chan 1 Note OFF: B3, Velocity (0 - 127): 64
0    |  MIDI Event: Chan 4 Note OFF: D4, Velocity (0 - 127): 64
0    |  MIDI Event: Chan 5 Note OFF: G2, Velocity (0 - 127): 64
0    |  MIDI Event: Chan 1 Note OFF: D4, Velocity (0 - 127): 64
1    |  MIDI Event: Chan 1 Note ON: F#3, Velocity (0 - 127): 35
0    |  MIDI Event: Chan 1 Note ON: A3, Velocity (0 - 127): 85
0    |  MIDI Event: Chan 1 Note ON: D4, Velocity (0 - 127): 79
0    |  MIDI Event: Chan 2 Note ON: D2, Velocity (0 - 127): 100
0    |  MIDI Event: Chan 4 Note ON: D4, Velocity (0 - 127): 116
0    |  MIDI Event: Chan 5 Note ON: A2, Velocity (0 - 127): 90
0    |  MIDI Event: Chan 5 Note ON: D3, Velocity (0 - 127): 105
0    |  MIDI Event: Chan 9 Note ON: D3, Velocity (0 - 127): 120
0    |  MIDI Event: Chan 9 Note ON: D4, Velocity (0 - 127): 120
0    |  MIDI Event: Chan 10 Note ON: A#4, Velocity (0 - 127): 102
0    |  MIDI Event: Chan 13 Control/Mode Change: Expression Control (0-127): 1
0    |  MIDI Event: Chan 13 Note ON: C4, Velocity (0 - 127): 120
0    |  Meta Event: Lyric: lost 
0    |  Meta Event: Lyric: 
15   |  MIDI Event: Chan 13 Control/Mode Change: Expression Control (0-127): 5
14   |  MIDI Event: Chan 10 Note OFF: A#4, Velocity (0 - 127): 64
1    |  MIDI Event: Chan 13 Control/Mode Change: Expression Control (0-127): 9
15   |  MIDI Event: Chan 13 Control/Mode Change: Expression Control (0-127): 13
14   |  MIDI Event: Chan 5 Note OFF: D3, Velocity (0 - 127): 64
0    |  MIDI Event: Chan 1 Note OFF: F#3, Velocity (0 - 127): 64
0    |  MIDI Event: Chan 5 Note OFF: A2, Velocity (0 - 127): 64
0    |  MIDI Event: Chan 1 Note OFF: A3, Velocity (0 - 127): 64
0    |  MIDI Event: Chan 1 Note OFF: D4, Velocity (0 - 127): 64
1    |  MIDI Event: Chan 1 Note ON: A3, Velocity (0 - 127): 69
0    |  MIDI Event: Chan 1 Note ON: D4, Velocity (0 - 127): 98
0    |  MIDI Event: Chan 1 Note ON: F#4, Velocity (0 - 127): 74
0    |  MIDI Event: Chan 5 Note ON: A2, Velocity (0 - 127): 100
0    |  MIDI Event: Chan 5 Note ON: D3, Velocity (0 - 127): 111
0    |  MIDI Event: Chan 5 Note ON: F#3, Velocity (0 - 127): 89
0    |  MIDI Event: Chan 10 Note ON: D#2, Velocity (0 - 127): 120
0    |  MIDI Event: Chan 10 Note ON: C#5, Velocity (0 - 127): 98
0    |  MIDI Event: Chan 13 Control/Mode Change: Expression Control (0-127): 17
15   |  MIDI Event: Chan 13 Control/Mode Change: Expression Control (0-127): 22
14   |  MIDI Event: Chan 10 Note OFF: C#5, Velocity (0 - 127): 64
0    |  MIDI Event: Chan 10 Note OFF: D#2, Velocity (0 - 127): 64
1    |  MIDI Event: Chan 13 Control/Mode Change: Expression Control (0-127): 26
15   |  MIDI Event: Chan 13 Control/Mode Change: Expression Control (0-127): 30
14   |  MIDI Event: Chan 2 Note OFF: D2, Velocity (0 - 127): 64
1    |  MIDI Event: Chan 2 Note ON: D2, Velocity (0 - 127): 100
0    |  MIDI Event: Chan 10 Note ON: A#4, Velocity (0 - 127): 106
0    |  MIDI Event: Chan 13 Control/Mode Change: Expression Control (0-127): 34
15   |  MIDI Event: Chan 13 Control/Mode Change: Expression Control (0-127): 38
14   |  MIDI Event: Chan 10 Note OFF: A#4, Velocity (0 - 127): 64
0    |  MIDI Event: Chan 5 Note OFF: F#3, Velocity (0 - 127): 64
0    |  MIDI Event: Chan 1 Note OFF: F#4, Velocity (0 - 127): 64
0    |  MIDI Event: Chan 5 Note OFF: D3, Velocity (0 - 127): 64
0    |  MIDI Event: Chan 5 Note OFF: A2, Velocity (0 - 127): 64
0    |  MIDI Event: Chan 1 Note OFF: D4, Velocity (0 - 127): 64
0    |  MIDI Event: Chan 1 Note OFF: A3, Velocity (0 - 127): 64
1    |  MIDI Event: Chan 1 Note ON: F#3, Velocity (0 - 127): 44
0    |  MIDI Event: Chan 1 Note ON: A3, Velocity (0 - 127): 78
0    |  MIDI Event: Chan 1 Note ON: D4, Velocity (0 - 127): 58
0    |  MIDI Event: Chan 5 Note ON: A2, Velocity (0 - 127): 85
0    |  MIDI Event: Chan 5 Note ON: D3, Velocity (0 - 127): 105
0    |  MIDI Event: Chan 5 Note ON: F#3, Velocity (0 - 127): 81
0    |  MIDI Event: Chan 13 Control/Mode Change: Expression Control (0-127): 43
15   |  MIDI Event: Chan 13 Control/Mode Change: Expression Control (0-127): 47
14   |  MIDI Event: Chan 5 Note OFF: F#3, Velocity (0 - 127): 64
0    |  MIDI Event: Chan 1 Note OFF: D4, Velocity (0 - 127): 64
0    |  MIDI Event: Chan 5 Note OFF: D3, Velocity (0 - 127): 64
0    |  MIDI Event: Chan 1 Note OFF: A3, Velocity (0 - 127): 64
0    |  MIDI Event: Chan 5 Note OFF: A2, Velocity (0 - 127): 64
0    |  MIDI Event: Chan 1 Note OFF: F#3, Velocity (0 - 127): 64
1    |  MIDI Event: Chan 1 Note ON: A3, Velocity (0 - 127): 57
0    |  MIDI Event: Chan 1 Note ON: D4, Velocity (0 - 127): 91
0    |  MIDI Event: Chan 1 Note ON: F#4, Velocity (0 - 127): 77
0    |  MIDI Event: Chan 5 Note ON: D3, Velocity (0 - 127): 109
0    |  MIDI Event: Chan 5 Note ON: F#3, Velocity (0 - 127): 89
0    |  MIDI Event: Chan 5 Note ON: A3, Velocity (0 - 127): 109
0    |  MIDI Event: Chan 10 Note ON: D#2, Velocity (0 - 127): 120
0    |  MIDI Event: Chan 10 Note ON: C#5, Velocity (0 - 127): 104
0    |  MIDI Event: Chan 13 Control/Mode Change: Expression Control (0-127): 51
15   |  MIDI Event: Chan 13 Control/Mode Change: Expression Control (0-127): 55
14   |  MIDI Event: Chan 10 Note OFF: C#5, Velocity (0 - 127): 64
0    |  MIDI Event: Chan 1 Note OFF: A3, Velocity (0 - 127): 64
0    |  MIDI Event: Chan 5 Note OFF: F#3, Velocity (0 - 127): 64
0    |  MIDI Event: Chan 1 Note OFF: F#4, Velocity (0 - 127): 64
0    |  MIDI Event: Chan 1 Note OFF: D4, Velocity (0 - 127): 64
0    |  MIDI Event: Chan 5 Note OFF: D3, Velocity (0 - 127): 64
0    |  MIDI Event: Chan 10 Note OFF: D#2, Velocity (0 - 127): 64
0    |  MIDI Event: Chan 5 Note OFF: A3, Velocity (0 - 127): 64
1    |  MIDI Event: Chan 1 Note ON: F#3, Velocity (0 - 127): 35
0    |  MIDI Event: Chan 1 Note ON: A3, Velocity (0 - 127): 79
0    |  MIDI Event: Chan 1 Note ON: D4, Velocity (0 - 127): 56
0    |  MIDI Event: Chan 5 Note ON: D3, Velocity (0 - 127): 111
0    |  MIDI Event: Chan 5 Note ON: F#3, Velocity (0 - 127): 100
0    |  MIDI Event: Chan 5 Note ON: A3, Velocity (0 - 127): 100
0    |  MIDI Event: Chan 13 Control/Mode Change: Expression Control (0-127): 59
15   |  MIDI Event: Chan 13 Control/Mode Change: Expression Control (0-127): 64
14   |  MIDI Event: Chan 5 Note OFF: A3, Velocity (0 - 127): 64
0    |  MIDI Event: Chan 1 Note OFF: D4, Velocity (0 - 127): 64
0    |  MIDI Event: Chan 5 Note OFF: F#3, Velocity (0 - 127): 64
0    |  MIDI Event: Chan 1 Note OFF: A3, Velocity (0 - 127): 64
0    |  MIDI Event: Chan 5 Note OFF: D3, Velocity (0 - 127): 64
0    |  MIDI Event: Chan 4 Note OFF: D4, Velocity (0 - 127): 64
0    |  MIDI Event: Chan 2 Note OFF: D2, Velocity (0 - 127): 64
0    |  MIDI Event: Chan 1 Note OFF: F#3, Velocity (0 - 127): 64
1    |  MIDI Event: Chan 1 Note ON: F#3, Velocity (0 - 127): 49
0    |  MIDI Event: Chan 1 Note ON: A3, Velocity (0 - 127): 85
0    |  MIDI Event: Chan 1 Note ON: D4, Velocity (0 - 127): 75
0    |  MIDI Event: Chan 2 Note ON: D2, Velocity (0 - 127): 100
0    |  MIDI Event: Chan 5 Note ON: A2, Velocity (0 - 127): 105
0    |  MIDI Event: Chan 5 Note ON: D3, Velocity (0 - 127): 116
0    |  MIDI Event: Chan 10 Note ON: A#4, Velocity (0 - 127): 111
0    |  MIDI Event: Chan 11 Note ON: C5, Velocity (0 - 127): 120
0    |  MIDI Event: Chan 13 Control/Mode Change: Expression Control (0-127): 68
15   |  MIDI Event: Chan 13 Control/Mode Change: Expression Control (0-127): 72
14   |  MIDI Event: Chan 10 Note OFF: A#4, Velocity (0 - 127): 64
1    |  MIDI Event: Chan 13 Control/Mode Change: Expression Control (0-127): 76
15   |  MIDI Event: Chan 13 Control/Mode Change: Expression Control (0-127): 80
14   |  MIDI Event: Chan 5 Note OFF: D3, Velocity (0 - 127): 64
0    |  MIDI Event: Chan 1 Note OFF: D4, Velocity (0 - 127): 64
0    |  MIDI Event: Chan 1 Note OFF: F#3, Velocity (0 - 127): 64
0    |  MIDI Event: Chan 5 Note OFF: A2, Velocity (0 - 127): 64
0    |  MIDI Event: Chan 1 Note OFF: A3, Velocity (0 - 127): 64
1    |  MIDI Event: Chan 1 Note ON: A3, Velocity (0 - 127): 56
0    |  MIDI Event: Chan 1 Note ON: D4, Velocity (0 - 127): 84
0    |  MIDI Event: Chan 1 Note ON: F#4, Velocity (0 - 127): 49
0    |  MIDI Event: Chan 5 Note ON: D3, Velocity (0 - 127): 105
0    |  MIDI Event: Chan 5 Note ON: F#3, Velocity (0 - 127): 115
0    |  MIDI Event: Chan 10 Note ON: C#5, Velocity (0 - 127): 109
0    |  MIDI Event: Chan 13 Control/Mode Change: Expression Control (0-127): 85
15   |  MIDI Event: Chan 13 Control/Mode Change: Expression Control (0-127): 89
14   |  MIDI Event: Chan 10 Note OFF: C#5, Velocity (0 - 127): 64
0    |  MIDI Event: Chan 1 Note OFF: F#4, Velocity (0 - 127): 64
0    |  MIDI Event: Chan 5 Note OFF: F#3, Velocity (0 - 127): 64
0    |  MIDI Event: Chan 1 Note OFF: D4, Velocity (0 - 127): 64
0    |  MIDI Event: Chan 5 Note OFF: D3, Velocity (0 - 127): 64
0    |  MIDI Event: Chan 1 Note OFF: A3, Velocity (0 - 127): 64
1    |  MIDI Event: Chan 1 Note ON: A3, Velocity (0 - 127): 84
0    |  MIDI Event: Chan 1 Note ON: D4, Velocity (0 - 127): 94
0    |  MIDI Event: Chan 1 Note ON: F#4, Velocity (0 - 127): 76
0    |  MIDI Event: Chan 5 Note ON: D3, Velocity (0 - 127): 100
0    |  MIDI Event: Chan 5 Note ON: F#3, Velocity (0 - 127): 92
0    |  MIDI Event: Chan 13 Control/Mode Change: Expression Control (0-127): 93
15   |  MIDI Event: Chan 13 Control/Mode Change: Expression Control (0-127): 97
14   |  MIDI Event: Chan 5 Note OFF: F#3, Velocity (0 - 127): 64
0    |  MIDI Event: Chan 5 Note OFF: D3, Velocity (0 - 127): 64
0    |  MIDI Event: Chan 1 Note OFF: D4, Velocity (0 - 127): 64
0    |  MIDI Event: Chan 1 Note OFF: F#4, Velocity (0 - 127): 64
0    |  MIDI Event: Chan 2 Note OFF: D2, Velocity (0 - 127): 64
0    |  MIDI Event: Chan 1 Note OFF: A3, Velocity (0 - 127): 64
1    |  MIDI Event: Chan 1 Note ON: E3, Velocity (0 - 127): 47
0    |  MIDI Event: Chan 1 Note ON: A3, Velocity (0 - 127): 89
0    |  MIDI Event: Chan 1 Note ON: C#4, Velocity (0 - 127): 52
0    |  MIDI Event: Chan 5 Note ON: A2, Velocity (0 - 127): 101
0    |  MIDI Event: Chan 5 Note ON: E3, Velocity (0 - 127): 101
0    |  MIDI Event: Chan 10 Note ON: A#4, Velocity (0 - 127): 115
0    |  MIDI Event: Chan 13 Control/Mode Change: Expression Control (0-127): 101
15   |  MIDI Event: Chan 13 Control/Mode Change: Expression Control (0-127): 106
14   |  MIDI Event: Chan 10 Note OFF: A#4, Velocity (0 - 127): 64
1    |  MIDI Event: Chan 13 Control/Mode Change: Expression Control (0-127): 110
15   |  MIDI Event: Chan 13 Control/Mode Change: Expression Control (0-127): 114
14   |  MIDI Event: Chan 5 Note OFF: E3, Velocity (0 - 127): 64
0    |  MIDI Event: Chan 1 Note OFF: C#4, Velocity (0 - 127): 64
0    |  MIDI Event: Chan 5 Note OFF: A2, Velocity (0 - 127): 64
0    |  MIDI Event: Chan 1 Note OFF: E3, Velocity (0 - 127): 64
0    |  MIDI Event: Chan 1 Note OFF: A3, Velocity (0 - 127): 64
1    |  MIDI Event: Chan 1 Note ON: A3, Velocity (0 - 127): 51
0    |  MIDI Event: Chan 1 Note ON: C#4, Velocity (0 - 127): 52
0    |  MIDI Event: Chan 1 Note ON: E4, Velocity (0 - 127): 78
0    |  MIDI Event: Chan 5 Note ON: C#3, Velocity (0 - 127): 89
0    |  MIDI Event: Chan 5 Note ON: E3, Velocity (0 - 127): 101
0    |  MIDI Event: Chan 5 Note ON: A3, Velocity (0 - 127): 89
0    |  MIDI Event: Chan 10 Note ON: C#5, Velocity (0 - 127): 115
0    |  MIDI Event: Chan 13 Control/Mode Change: Expression Control (0-127): 118
15   |  MIDI Event: Chan 13 Control/Mode Change: Expression Control (0-127): 122
14   |  MIDI Event: Chan 10 Note OFF: C#5, Velocity (0 - 127): 64
0    |  MIDI Event: Chan 5 Note OFF: C#3, Velocity (0 - 127): 64
0    |  MIDI Event: Chan 5 Note OFF: A3, Velocity (0 - 127): 64
0    |  MIDI Event: Chan 1 Note OFF: E4, Velocity (0 - 127): 64
0    |  MIDI Event: Chan 5 Note OFF: E3, Velocity (0 - 127): 64
0    |  MIDI Event: Chan 1 Note OFF: A3, Velocity (0 - 127): 64
0    |  MIDI Event: Chan 1 Note OFF: C#4, Velocity (0 - 127): 64
1    |  MIDI Event: Chan 1 Note ON: A3, Velocity (0 - 127): 73
0    |  MIDI Event: Chan 1 Note ON: C#4, Velocity (0 - 127): 52
0    |  MIDI Event: Chan 1 Note ON: E4, Velocity (0 - 127): 83
0    |  MIDI Event: Chan 5 Note ON: C#3, Velocity (0 - 127): 119
0    |  MIDI Event: Chan 5 Note ON: E3, Velocity (0 - 127): 118
0    |  MIDI Event: Chan 5 Note ON: A3, Velocity (0 - 127): 105
0    |  MIDI Event: Chan 13 Control/Mode Change: Expression Control (0-127): 127
29   |  MIDI Event: Chan 5 Note OFF: A3, Velocity (0 - 127): 64
0    |  MIDI Event: Chan 11 Note OFF: C5, Velocity (0 - 127): 64
0    |  MIDI Event: Chan 9 Note OFF: D3, Velocity (0 - 127): 64
0    |  MIDI Event: Chan 13 Note OFF: C4, Velocity (0 - 127): 64
0    |  MIDI Event: Chan 1 Note OFF: A3, Velocity (0 - 127): 64
0    |  MIDI Event: Chan 9 Note OFF: D4, Velocity (0 - 127): 64
0    |  MIDI Event: Chan 5 Note OFF: C#3, Velocity (0 - 127): 64
0    |  MIDI Event: Chan 1 Note OFF: E4, Velocity (0 - 127): 64
0    |  MIDI Event: Chan 1 Note OFF: C#4, Velocity (0 - 127): 64
0    |  MIDI Event: Chan 5 Note OFF: E3, Velocity (0 - 127): 64
1    |  MIDI Event: Chan 1 Control/Mode Change: Sound Controller 5 (default: Brightness) (0-127): 11
0    |  MIDI Event: Chan 1 Note ON: B3, Velocity (0 - 127): 58
0    |  MIDI Event: Chan 1 Note ON: D4, Velocity (0 - 127): 91
0    |  MIDI Event: Chan 5 Control/Mode Change: Sound Controller 5 (default: Brightness) (0-127): 11
0    |  MIDI Event: Chan 5 Note ON: B2, Velocity (0 - 127): 85
0    |  MIDI Event: Chan 5 Note ON: F#3, Velocity (0 - 127): 120
0    |  MIDI Event: Chan 5 Control/Mode Change: Effects 1 (Default==Reverb) Depth (0-127): 127
0    |  MIDI Event: Chan 6 Control/Mode Change: Sound Controller 5 (default: Brightness) (0-127): 11
0    |  MIDI Event: Chan 6 Note ON: B3, Velocity (0 - 127): 120
0    |  MIDI Event: Chan 6 Note ON: B4, Velocity (0 - 127): 120
0    |  MIDI Event: Chan 6 Control/Mode Change: Effects 1 (Default==Reverb) Depth (0-127): 127
0    |  MIDI Event: Chan 6 Control/Mode Change: Channel Pan (0-127): 115
0    |  MIDI Event: Chan 10 Note ON: C#3, Velocity (0 - 127): 120
0    |  MIDI Event: Chan 13 Control/Mode Change: Expression Control (0-127): 0
0    |  MIDI Event: Chan 14 Pitch Bend Change (0-16383): 8414 (factor==1.00361)
0    |  MIDI Event: Chan 14 Note ON: B2, Velocity (0 - 127): 120
0    |  MIDI Event: Chan 15 Note ON: C2, Velocity (0 - 127): 120
15   |  MIDI Event: Chan 14 Pitch Bend Change (0-16383): 8192 (factor==1)
14   |  MIDI Event: Chan 10 Note OFF: C#3, Velocity (0 - 127): 64
1    |  MIDI Event: Chan 14 Pitch Bend Change (0-16383): 7871 (factor==0.994808)
10   |  MIDI Event: Chan 6 Control/Mode Change: Channel Pan (0-127): 34
5    |  MIDI Event: Chan 14 Pitch Bend Change (0-16383): 7599 (factor==0.990429)
14   |  MIDI Event: Chan 5 Note OFF: F#3, Velocity (0 - 127): 64
0    |  MIDI Event: Chan 1 Note OFF: B3, Velocity (0 - 127): 64
0    |  MIDI Event: Chan 6 Note OFF: B3, Velocity (0 - 127): 64
0    |  MIDI Event: Chan 1 Note OFF: D4, Velocity (0 - 127): 64
0    |  MIDI Event: Chan 5 Note OFF: B2, Velocity (0 - 127): 64
0    |  MIDI Event: Chan 6 Note OFF: B4, Velocity (0 - 127): 64
1    |  MIDI Event: Chan 1 Note ON: B3, Velocity (0 - 127): 79
0    |  MIDI Event: Chan 1 Note ON: D4, Velocity (0 - 127): 95
0    |  MIDI Event: Chan 1 Note ON: F#4, Velocity (0 - 127): 74
0    |  MIDI Event: Chan 5 Note ON: D3, Velocity (0 - 127): 92
0    |  MIDI Event: Chan 5 Note ON: F#3, Velocity (0 - 127): 87
0    |  MIDI Event: Chan 5 Note ON: D4, Velocity (0 - 127): 95
0    |  MIDI Event: Chan 14 Pitch Bend Change (0-16383): 7328 (factor==0.986086)
15   |  MIDI Event: Chan 14 Pitch Bend Change (0-16383): 7057 (factor==0.981762)
5    |  MIDI Event: Chan 6 Control/Mode Change: Channel Pan (0-127): 94
10   |  MIDI Event: Chan 4 Note ON: B3, Velocity (0 - 127): 76
0    |  MIDI Event: Chan 14 Pitch Bend Change (0-16383): 6785 (factor==0.97744)
0    |  Meta Event: Lyric: I 
15   |  MIDI Event: Chan 14 Pitch Bend Change (0-16383): 6514 (factor==0.973154)
3    |  MIDI Event: Chan 1 Control/Mode Change: Sound Controller 5 (default: Brightness) (0-127): 12
0    |  MIDI Event: Chan 5 Control/Mode Change: Sound Controller 5 (default: Brightness) (0-127): 12
0    |  MIDI Event: Chan 6 Control/Mode Change: Sound Controller 5 (default: Brightness) (0-127): 12
11   |  MIDI Event: Chan 4 Note OFF: B3, Velocity (0 - 127): 64
1    |  MIDI Event: Chan 4 Note ON: G4, Velocity (0 - 127): 119
0    |  MIDI Event: Chan 6 Note ON: B3, Velocity (0 - 127): 120
0    |  MIDI Event: Chan 6 Note ON: B4, Velocity (0 - 127): 120
0    |  MIDI Event: Chan 6 Control/Mode Change: Channel Pan (0-127): 12
0    |  MIDI Event: Chan 14 Pitch Bend Change (0-16383): 6242 (factor==0.968871)
0    |  Meta Event: Lyric: did
15   |  MIDI Event: Chan 14 Pitch Bend Change (0-16383): 5971 (factor==0.964622)
14   |  MIDI Event: Chan 4 Note OFF: G4, Velocity (0 - 127): 64
0    |  MIDI Event: Chan 1 Note OFF: D4, Velocity (0 - 127): 64
0    |  MIDI Event: Chan 5 Note OFF: D4, Velocity (0 - 127): 64
0    |  MIDI Event: Chan 5 Note OFF: F#3, Velocity (0 - 127): 64
0    |  MIDI Event: Chan 1 Note OFF: B3, Velocity (0 - 127): 64
0    |  MIDI Event: Chan 1 Note OFF: F#4, Velocity (0 - 127): 64
0    |  MIDI Event: Chan 5 Note OFF: D3, Velocity (0 - 127): 64
1    |  MIDI Event: Chan 1 Note ON: B3, Velocity (0 - 127): 71
0    |  MIDI Event: Chan 1 Note ON: D4, Velocity (0 - 127): 91
0    |  MIDI Event: Chan 1 Note ON: F#4, Velocity (0 - 127): 60
0    |  MIDI Event: Chan 5 Note ON: F#3, Velocity (0 - 127): 109
0    |  MIDI Event: Chan 5 Note ON: B3, Velocity (0 - 127): 95
0    |  MIDI Event: Chan 14 Pitch Bend Change (0-16383): 5700 (factor==0.960392)
10   |  MIDI Event: Chan 6 Control/Mode Change: Channel Pan (0-127): 115
2    |  MIDI Event: Chan 1 Control/Mode Change: Sound Controller 5 (default: Brightness) (0-127): 13
0    |  MIDI Event: Chan 5 Control/Mode Change: Sound Controller 5 (default: Brightness) (0-127): 13
0    |  MIDI Event: Chan 6 Control/Mode Change: Sound Controller 5 (default: Brightness) (0-127): 13
3    |  MIDI Event: Chan 14 Pitch Bend Change (0-16383): 5428 (factor==0.956165)
14   |  MIDI Event: Chan 5 Note OFF: B3, Velocity (0 - 127): 64
0    |  MIDI Event: Chan 6 Note OFF: B4, Velocity (0 - 127): 64
0    |  MIDI Event: Chan 5 Note OFF: F#3, Velocity (0 - 127): 64
0    |  MIDI Event: Chan 1 Note OFF: B3, Velocity (0 - 127): 64
0    |  MIDI Event: Chan 1 Note OFF: F#4, Velocity (0 - 127): 64
0    |  MIDI Event: Chan 6 Note OFF: B3, Velocity (0 - 127): 64
0    |  MIDI Event: Chan 1 Note OFF: D4, Velocity (0 - 127): 64
1    |  MIDI Event: Chan 1 Note ON: D4, Velocity (0 - 127): 80
0    |  MIDI Event: Chan 1 Note ON: F#4, Velocity (0 - 127): 62
0    |  MIDI Event: Chan 1 Note ON: B4, Velocity (0 - 127): 91
0    |  MIDI Event: Chan 4 Note ON: G4, Velocity (0 - 127): 120
0    |  MIDI Event: Chan 5 Note ON: D3, Velocity (0 - 127): 103
0    |  MIDI Event: Chan 5 Note ON: F#3, Velocity (0 - 127): 115
0    |  MIDI Event: Chan 14 Pitch Bend Change (0-16383): 5157 (factor==0.951972)
0    |  Meta Event: Lyric: n't 
15   |  MIDI Event: Chan 14 Pitch Bend Change (0-16383): 4885 (factor==0.947782)
5    |  MIDI Event: Chan 6 Control/Mode Change: Channel Pan (0-127): 34
9    |  MIDI Event: Chan 5 Note OFF: F#3, Velocity (0 - 127): 64
0    |  MIDI Event: Chan 5 Note OFF: D3, Velocity (0 - 127): 64
0    |  MIDI Event: Chan 1 Note OFF: B4, Velocity (0 - 127): 64
0    |  MIDI Event: Chan 1 Note OFF: F#4, Velocity (0 - 127): 64
0    |  MIDI Event: Chan 1 Note OFF: D4, Velocity (0 - 127): 64
0    |  MIDI Event: Chan 4 Note OFF: G4, Velocity (0 - 127): 64
1    |  MIDI Event: Chan 1 Note ON: B3, Velocity (0 - 127): 51
0    |  MIDI Event: Chan 1 Note ON: D4, Velocity (0 - 127): 85
0    |  MIDI Event: Chan 1 Note ON: F#4, Velocity (0 - 127): 59
0    |  MIDI Event: Chan 5 Note ON: B2, Velocity (0 - 127): 92
0    |  MIDI Event: Chan 5 Note ON: E3, Velocity (0 - 127): 98
0    |  MIDI Event: Chan 6 Note ON: A3, Velocity (0 - 127): 98
0    |  MIDI Event: Chan 6 Note ON: A4, Velocity (0 - 127): 98
0    |  MIDI Event: Chan 14 Pitch Bend Change (0-16383): 4614 (factor==0.943625)
6    |  MIDI Event: Chan 1 Control/Mode Change: Sound Controller 5 (default: Brightness) (0-127): 14
0    |  MIDI Event: Chan 5 Control/Mode Change: Sound Controller 5 (default: Brightness) (0-127): 14
0    |  MIDI Event: Chan 6 Control/Mode Change: Sound Controller 5 (default: Brightness) (0-127): 14
9    |  MIDI Event: Chan 14 Pitch Bend Change (0-16383): 4343 (factor==0.939487)
14   |  MIDI Event: Chan 6 Note OFF: A4, Velocity (0 - 127): 64
0    |  MIDI Event: Chan 1 Note OFF: D4, Velocity (0 - 127): 64
0    |  MIDI Event: Chan 6 Note OFF: A3, Velocity (0 - 127): 64
0    |  MIDI Event: Chan 1 Note OFF: F#4, Velocity (0 - 127): 64
0    |  MIDI Event: Chan 5 Note OFF: E3, Velocity (0 - 127): 64
0    |  MIDI Event: Chan 1 Note OFF: B3, Velocity (0 - 127): 64
0    |  MIDI Event: Chan 5 Note OFF: B2, Velocity (0 - 127): 64
1    |  MIDI Event: Chan 1 Note ON: G3, Velocity (0 - 127): 74
0    |  MIDI Event: Chan 1 Note ON: B3, Velocity (0 - 127): 94
0    |  MIDI Event: Chan 1 Note ON: D4, Velocity (0 - 127): 91
0    |  MIDI Event: Chan 4 Note ON: F#4, Velocity (0 - 127): 119
0    |  MIDI Event: Chan 5 Note ON: G2, Velocity (0 - 127): 98
0    |  MIDI Event: Chan 5 Note ON: D3, Velocity (0 - 127): 116
0    |  MIDI Event: Chan 6 Note ON: B3, Velocity (0 - 127): 98
0    |  MIDI Event: Chan 6 Note ON: B4, Velocity (0 - 127): 98
0    |  MIDI Event: Chan 6 Control/Mode Change: Channel Pan (0-127): 94
0    |  MIDI Event: Chan 14 Pitch Bend Change (0-16383): 4071 (factor==0.935352)
0    |  Meta Event: Lyric: know 
15   |  MIDI Event: Chan 14 Pitch Bend Change (0-16383): 3800 (factor==0.931251)
14   |  MIDI Event: Chan 6 Note OFF: B4, Velocity (0 - 127): 64
0    |  MIDI Event: Chan 6 Note OFF: B3, Velocity (0 - 127): 64
1    |  MIDI Event: Chan 1 Control/Mode Change: Sound Controller 5 (default: Brightness) (0-127): 15
0    |  MIDI Event: Chan 5 Control/Mode Change: Sound Controller 5 (default: Brightness) (0-127): 15
0    |  MIDI Event: Chan 6 Control/Mode Change: Sound Controller 5 (default: Brightness) (0-127): 15
0    |  MIDI Event: Chan 6 Note ON: D4, Velocity (0 - 127): 54
0    |  MIDI Event: Chan 6 Note ON: D5, Velocity (0 - 127): 54
0    |  MIDI Event: Chan 14 Pitch Bend Change (0-16383): 3529 (factor==0.927167)
10   |  MIDI Event: Chan 6 Control/Mode Change: Channel Pan (0-127): 12
5    |  MIDI Event: Chan 14 Pitch Bend Change (0-16383): 3257 (factor==0.923086)
14   |  MIDI Event: Chan 6 Note OFF: D5, Velocity (0 - 127): 64
0    |  MIDI Event: Chan 5 Note OFF: D3, Velocity (0 - 127): 64
0    |  MIDI Event: Chan 5 Note OFF: G2, Velocity (0 - 127): 64
0    |  MIDI Event: Chan 6 Note OFF: D4, Velocity (0 - 127): 64
0    |  MIDI Event: Chan 1 Note OFF: G3, Velocity (0 - 127): 64
0    |  MIDI Event: Chan 1 Note OFF: B3, Velocity (0 - 127): 64
0    |  MIDI Event: Chan 1 Note OFF: D4, Velocity (0 - 127): 64
1    |  MIDI Event: Chan 1 Note ON: B3, Velocity (0 - 127): 70
0    |  MIDI Event: Chan 1 Note ON: D4, Velocity (0 - 127): 94
0    |  MIDI Event: Chan 1 Note ON: G4, Velocity (0 - 127): 101
0    |  MIDI Event: Chan 5 Note ON: D3, Velocity (0 - 127): 79
0    |  MIDI Event: Chan 5 Note ON: G3, Velocity (0 - 127): 111
0    |  MIDI Event: Chan 5 Note ON: B3, Velocity (0 - 127): 100
0    |  MIDI Event: Chan 6 Note ON: B3, Velocity (0 - 127): 116
0    |  MIDI Event: Chan 6 Note ON: B4, Velocity (0 - 127): 116
0    |  MIDI Event: Chan 14 Pitch Bend Change (0-16383): 2986 (factor==0.919038)
15   |  MIDI Event: Chan 14 Pitch Bend Change (0-16383): 2714 (factor==0.914993)
5    |  MIDI Event: Chan 6 Control/Mode Change: Channel Pan (0-127): 115
4    |  MIDI Event: Chan 1 Control/Mode Change: Sound Controller 5 (default: Brightness) (0-127): 16
0    |  MIDI Event: Chan 5 Control/Mode Change: Sound Controller 5 (default: Brightness) (0-127): 16
0    |  MIDI Event: Chan 6 Control/Mode Change: Sound Controller 5 (default: Brightness) (0-127): 16
5    |  MIDI Event: Chan 4 Note OFF: F#4, Velocity (0 - 127): 64
1    |  MIDI Event: Chan 14 Pitch Bend Change (0-16383): 2443 (factor==0.91098)
15   |  MIDI Event: Chan 14 Pitch Bend Change (0-16383): 2172 (factor==0.906985)
14   |  MIDI Event: Chan 6 Note OFF: B4, Velocity (0 - 127): 64
0    |  MIDI Event: Chan 6 Note OFF: B3, Velocity (0 - 127): 64
1    |  MIDI Event: Chan 4 Note ON: E4, Velocity (0 - 127): 101
0    |  MIDI Event: Chan 6 Control/Mode Change: Channel Pan (0-127): 34
0    |  MIDI Event: Chan 14 Pitch Bend Change (0-16383): 1900 (factor==0.902993)
0    |  Meta Event: Lyric: I 
15   |  MIDI Event: Chan 14 Pitch Bend Change (0-16383): 1629 (factor==0.899033)
3    |  MIDI Event: Chan 1 Control/Mode Change: Sound Controller 5 (default: Brightness) (0-127): 17
0    |  MIDI Event: Chan 5 Control/Mode Change: Sound Controller 5 (default: Brightness) (0-127): 17
0    |  MIDI Event: Chan 6 Control/Mode Change: Sound Controller 5 (default: Brightness) (0-127): 17
11   |  MIDI Event: Chan 4 Note OFF: E4, Velocity (0 - 127): 64
0    |  MIDI Event: Chan 5 Note OFF: G3, Velocity (0 - 127): 64
0    |  MIDI Event: Chan 1 Note OFF: D4, Velocity (0 - 127): 64
0    |  MIDI Event: Chan 1 Note OFF: G4, Velocity (0 - 127): 64
0    |  MIDI Event: Chan 1 Note OFF: B3, Velocity (0 - 127): 64
0    |  MIDI Event: Chan 5 Note OFF: B3, Velocity (0 - 127): 64
0    |  MIDI Event: Chan 5 Note OFF: D3, Velocity (0 - 127): 64
1    |  MIDI Event: Chan 1 Note ON: B3, Velocity (0 - 127): 52
0    |  MIDI Event: Chan 1 Note ON: D4, Velocity (0 - 127): 85
0    |  MIDI Event: Chan 1 Note ON: G4, Velocity (0 - 127): 94
0    |  MIDI Event: Chan 5 Note ON: D3, Velocity (0 - 127): 82
0    |  MIDI Event: Chan 5 Note ON: G3, Velocity (0 - 127): 98
0    |  MIDI Event: Chan 5 Note ON: B3, Velocity (0 - 127): 85
0    |  MIDI Event: Chan 6 Note ON: A3, Velocity (0 - 127): 83
0    |  MIDI Event: Chan 6 Note ON: A4, Velocity (0 - 127): 83
0    |  MIDI Event: Chan 14 Pitch Bend Change (0-16383): 1357 (factor==0.895076)
10   |  MIDI Event: Chan 6 Control/Mode Change: Channel Pan (0-127): 94
5    |  MIDI Event: Chan 14 Pitch Bend Change (0-16383): 1086 (factor==0.891151)
14   |  MIDI Event: Chan 6 Note OFF: A4, Velocity (0 - 127): 64
0    |  MIDI Event: Chan 1 Note OFF: B3, Velocity (0 - 127): 64
0    |  MIDI Event: Chan 1 Note OFF: D4, Velocity (0 - 127): 64
0    |  MIDI Event: Chan 6 Note OFF: A3, Velocity (0 - 127): 64
0    |  MIDI Event: Chan 1 Note OFF: G4, Velocity (0 - 127): 64
0    |  MIDI Event: Chan 5 Note OFF: G3, Velocity (0 - 127): 64
0    |  MIDI Event: Chan 5 Note OFF: B3, Velocity (0 - 127): 64
0    |  MIDI Event: Chan 5 Note OFF: D3, Velocity (0 - 127): 64
1    |  MIDI Event: Chan 1 Note ON: D4, Velocity (0 - 127): 78
0    |  MIDI Event: Chan 1 Note ON: G4, Velocity (0 - 127): 100
0    |  MIDI Event: Chan 1 Note ON: B4, Velocity (0 - 127): 46
0    |  MIDI Event: Chan 4 Note ON: D4, Velocity (0 - 127): 105
0    |  MIDI Event: Chan 5 Note ON: G2, Velocity (0 - 127): 109
0    |  MIDI Event: Chan 5 Note ON: D3, Velocity (0 - 127): 109
0    |  MIDI Event: Chan 6 Note ON: B3, Velocity (0 - 127): 98
0    |  MIDI Event: Chan 6 Note ON: B4, Velocity (0 - 127): 98
0    |  MIDI Event: Chan 14 Pitch Bend Change (0-16383): 815 (factor==0.887243)
0    |  Meta Event: Lyric: was 
12   |  MIDI Event: Chan 1 Control/Mode Change: Sound Controller 5 (default: Brightness) (0-127): 18
0    |  MIDI Event: Chan 5 Control/Mode Change: Sound Controller 5 (default: Brightness) (0-127): 18
0    |  MIDI Event: Chan 6 Control/Mode Change: Sound Controller 5 (default: Brightness) (0-127): 18
3    |  MIDI Event: Chan 14 Pitch Bend Change (0-16383): 543 (factor==0.883338)
5    |  MIDI Event: Chan 6 Control/Mode Change: Channel Pan (0-127): 12
9    |  MIDI Event: Chan 6 Note OFF: B4, Velocity (0 - 127): 64
0    |  MIDI Event: Chan 1 Note OFF: D4, Velocity (0 - 127): 64
0    |  MIDI Event: Chan 1 Note OFF: G4, Velocity (0 - 127): 64
0    |  MIDI Event: Chan 6 Note OFF: B3, Velocity (0 - 127): 64
0    |  MIDI Event: Chan 5 Note OFF: G2, Velocity (0 - 127): 64
0    |  MIDI Event: Chan 5 Note OFF: D3, Velocity (0 - 127): 64
0    |  MIDI Event: Chan 1 Note OFF: B4, Velocity (0 - 127): 64
1    |  MIDI Event: Chan 1 Note ON: B3, Velocity (0 - 127): 45
0    |  MIDI Event: Chan 1 Note ON: D4, Velocity (0 - 127): 73
0    |  MIDI Event: Chan 1 Note ON: G4, Velocity (0 - 127): 86
0    |  MIDI Event: Chan 5 Note ON: G2, Velocity (0 - 127): 101
0    |  MIDI Event: Chan 5 Note ON: E3, Velocity (0 - 127): 116
0    |  MIDI Event: Chan 6 Note ON: A3, Velocity (0 - 127): 94
0    |  MIDI Event: Chan 6 Note ON: A4, Velocity (0 - 127): 94
0    |  MIDI Event: Chan 14 Pitch Bend Change (0-16383): 272 (factor==0.879465)
14   |  MIDI Event: Chan 14 Note OFF: B2, Velocity (0 - 127): 64
1    |  MIDI Event: Chan 14 Pitch Bend Change (0-16383): 1 (factor==0.875608)
14   |  MIDI Event: Chan 1 Note OFF: B3, Velocity (0 - 127): 64
0    |  MIDI Event: Chan 1 Note OFF: D4, Velocity (0 - 127): 64
0    |  MIDI Event: Chan 6 Note OFF: A4, Velocity (0 - 127): 64
0    |  MIDI Event: Chan 1 Note OFF: G4, Velocity (0 - 127): 64
0    |  MIDI Event: Chan 4 Note OFF: D4, Velocity (0 - 127): 64
0    |  MIDI Event: Chan 6 Note OFF: A3, Velocity (0 - 127): 64
0    |  MIDI Event: Chan 5 Note OFF: E3, Velocity (0 - 127): 64
0    |  MIDI Event: Chan 5 Note OFF: G2, Velocity (0 - 127): 64
1    |  MIDI Event: Chan 1 Note ON: F#3, Velocity (0 - 127): 35
0    |  MIDI Event: Chan 1 Note ON: A3, Velocity (0 - 127): 85
0    |  MIDI Event: Chan 1 Note ON: D4, Velocity (0 - 127): 79
0    |  MIDI Event: Chan 4 Note ON: F#4, Velocity (0 - 127): 119
0    |  MIDI Event: Chan 5 Note ON: A2, Velocity (0 - 127): 90
0    |  MIDI Event: Chan 5 Note ON: D3, Velocity (0 - 127): 105
0    |  MIDI Event: Chan 6 Note ON: B3, Velocity (0 - 127): 120
0    |  MIDI Event: Chan 6 Note ON: B4, Velocity (0 - 127): 120
0    |  MIDI Event: Chan 6 Control/Mode Change: Channel Pan (0-127): 115
0    |  Meta Event: Lyric: lost 
0    |  Meta Event: Lyric: 
6    |  MIDI Event: Chan 1 Control/Mode Change: Sound Controller 5 (default: Brightness) (0-127): 19
0    |  MIDI Event: Chan 5 Control/Mode Change: Sound Controller 5 (default: Brightness) (0-127): 19
0    |  MIDI Event: Chan 6 Control/Mode Change: Sound Controller 5 (default: Brightness) (0-127): 19
14   |  MIDI Event: Chan 14 Pitch Bend Change (0-16383): 1695 (factor==0.899996)
2    |  MIDI Event: Chan 14 Pitch Bend Change (0-16383): 3955 (factor==0.933594)
3    |  MIDI Event: Chan 14 Pitch Bend Change (0-16383): 6377 (factor==0.970994)
2    |  MIDI Event: Chan 14 Pitch Bend Change (0-16383): 8152 (factor==0.999352)
2    |  MIDI Event: Chan 14 Pitch Bend Change (0-16383): 8192 (factor==1)
11   |  MIDI Event: Chan 6 Control/Mode Change: Channel Pan (0-127): 34
19   |  MIDI Event: Chan 6 Note OFF: B4, Velocity (0 - 127): 64
0    |  MIDI Event: Chan 1 Note OFF: A3, Velocity (0 - 127): 64
0    |  MIDI Event: Chan 6 Note OFF: B3, Velocity (0 - 127): 64
0    |  MIDI Event: Chan 1 Note OFF: D4, Velocity (0 - 127): 64
0    |  MIDI Event: Chan 1 Note OFF: F#3, Velocity (0 - 127): 64
0    |  MIDI Event: Chan 5 Note OFF: D3, Velocity (0 - 127): 64
0    |  MIDI Event: Chan 5 Note OFF: A2, Velocity (0 - 127): 64
1    |  MIDI Event: Chan 1 Control/Mode Change: Sound Controller 5 (default: Brightness) (0-127): 20
0    |  MIDI Event: Chan 1 Note ON: A3, Velocity (0 - 127): 69
0    |  MIDI Event: Chan 1 Note ON: D4, Velocity (0 - 127): 98
0    |  MIDI Event: Chan 1 Note ON: F#4, Velocity (0 - 127): 74
0    |  MIDI Event: Chan 5 Control/Mode Change: Sound Controller 5 (default: Brightness) (0-127): 20
0    |  MIDI Event: Chan 5 Note ON: A2, Velocity (0 - 127): 100
0    |  MIDI Event: Chan 5 Note ON: D3, Velocity (0 - 127): 111
0    |  MIDI Event: Chan 5 Note ON: F#3, Velocity (0 - 127): 89
0    |  MIDI Event: Chan 6 Control/Mode Change: Sound Controller 5 (default: Brightness) (0-127): 20
20   |  MIDI Event: Chan 6 Control/Mode Change: Channel Pan (0-127): 94
34   |  MIDI Event: Chan 1 Control/Mode Change: Sound Controller 5 (default: Brightness) (0-127): 21
0    |  MIDI Event: Chan 5 Control/Mode Change: Sound Controller 5 (default: Brightness) (0-127): 21
0    |  MIDI Event: Chan 6 Control/Mode Change: Sound Controller 5 (default: Brightness) (0-127): 21
6    |  MIDI Event: Chan 6 Note ON: B3, Velocity (0 - 127): 120
0    |  MIDI Event: Chan 6 Note ON: B4, Velocity (0 - 127): 120
0    |  MIDI Event: Chan 6 Control/Mode Change: Channel Pan (0-127): 12
29   |  MIDI Event: Chan 5 Note OFF: F#3, Velocity (0 - 127): 64
0    |  MIDI Event: Chan 5 Note OFF: D3, Velocity (0 - 127): 64
0    |  MIDI Event: Chan 1 Note OFF: D4, Velocity (0 - 127): 64
0    |  MIDI Event: Chan 1 Note OFF: A3, Velocity (0 - 127): 64
0    |  MIDI Event: Chan 1 Note OFF: F#4, Velocity (0 - 127): 64
0    |  MIDI Event: Chan 5 Note OFF: A2, Velocity (0 - 127): 64
1    |  MIDI Event: Chan 1 Note ON: F#3, Velocity (0 - 127): 44
0    |  MIDI Event: Chan 1 Note ON: A3, Velocity (0 - 127): 78
0    |  MIDI Event: Chan 1 Note ON: D4, Velocity (0 - 127): 58
0    |  MIDI Event: Chan 5 Note ON: A2, Velocity (0 - 127): 85
0    |  MIDI Event: Chan 5 Note ON: D3, Velocity (0 - 127): 105
0    |  MIDI Event: Chan 5 Note ON: F#3, Velocity (0 - 127): 81
10   |  MIDI Event: Chan 6 Control/Mode Change: Channel Pan (0-127): 115
8    |  MIDI Event: Chan 1 Control/Mode Change: Sound Controller 5 (default: Brightness) (0-127): 22
0    |  MIDI Event: Chan 5 Control/Mode Change: Sound Controller 5 (default: Brightness) (0-127): 22
0    |  MIDI Event: Chan 6 Control/Mode Change: Sound Controller 5 (default: Brightness) (0-127): 22
11   |  MIDI Event: Chan 5 Note OFF: F#3, Velocity (0 - 127): 64
0    |  MIDI Event: Chan 6 Note OFF: B4, Velocity (0 - 127): 64
0    |  MIDI Event: Chan 6 Note OFF: B3, Velocity (0 - 127): 64
0    |  MIDI Event: Chan 5 Note OFF: D3, Velocity (0 - 127): 64
0    |  MIDI Event: Chan 1 Note OFF: F#3, Velocity (0 - 127): 64
0    |  MIDI Event: Chan 1 Note OFF: D4, Velocity (0 - 127): 64
0    |  MIDI Event: Chan 5 Note OFF: A2, Velocity (0 - 127): 64
0    |  MIDI Event: Chan 1 Note OFF: A3, Velocity (0 - 127): 64
1    |  MIDI Event: Chan 1 Note ON: A3, Velocity (0 - 127): 57
0    |  MIDI Event: Chan 1 Note ON: D4, Velocity (0 - 127): 91
0    |  MIDI Event: Chan 1 Note ON: F#4, Velocity (0 - 127): 77
0    |  MIDI Event: Chan 5 Note ON: D3, Velocity (0 - 127): 109
0    |  MIDI Event: Chan 5 Note ON: F#3, Velocity (0 - 127): 89
0    |  MIDI Event: Chan 5 Note ON: A3, Velocity (0 - 127): 109
20   |  MIDI Event: Chan 6 Control/Mode Change: Channel Pan (0-127): 34
9    |  MIDI Event: Chan 5 Note OFF: A3, Velocity (0 - 127): 64
0    |  MIDI Event: Chan 5 Note OFF: F#3, Velocity (0 - 127): 64
0    |  MIDI Event: Chan 1 Note OFF: F#4, Velocity (0 - 127): 64
0    |  MIDI Event: Chan 1 Note OFF: D4, Velocity (0 - 127): 64
0    |  MIDI Event: Chan 1 Note OFF: A3, Velocity (0 - 127): 64
0    |  MIDI Event: Chan 5 Note OFF: D3, Velocity (0 - 127): 64
1    |  MIDI Event: Chan 1 Note ON: F#3, Velocity (0 - 127): 35
0    |  MIDI Event: Chan 1 Note ON: A3, Velocity (0 - 127): 79
0    |  MIDI Event: Chan 1 Note ON: D4, Velocity (0 - 127): 56
0    |  MIDI Event: Chan 5 Note ON: D3, Velocity (0 - 127): 111
0    |  MIDI Event: Chan 5 Note ON: F#3, Velocity (0 - 127): 100
0    |  MIDI Event: Chan 5 Note ON: A3, Velocity (0 - 127): 100
0    |  MIDI Event: Chan 6 Note ON: A3, Velocity (0 - 127): 98
0    |  MIDI Event: Chan 6 Note ON: A4, Velocity (0 - 127): 98
12   |  MIDI Event: Chan 1 Control/Mode Change: Sound Controller 5 (default: Brightness) (0-127): 23
0    |  MIDI Event: Chan 5 Control/Mode Change: Sound Controller 5 (default: Brightness) (0-127): 23
0    |  MIDI Event: Chan 6 Control/Mode Change: Sound Controller 5 (default: Brightness) (0-127): 23
17   |  MIDI Event: Chan 6 Note OFF: A4, Velocity (0 - 127): 64
0    |  MIDI Event: Chan 1 Note OFF: F#3, Velocity (0 - 127): 64
0    |  MIDI Event: Chan 1 Note OFF: A3, Velocity (0 - 127): 64
0    |  MIDI Event: Chan 6 Note OFF: A3, Velocity (0 - 127): 64
0    |  MIDI Event: Chan 1 Note OFF: D4, Velocity (0 - 127): 64
0    |  MIDI Event: Chan 4 Note OFF: F#4, Velocity (0 - 127): 64
0    |  MIDI Event: Chan 5 Note OFF: A3, Velocity (0 - 127): 64
0    |  MIDI Event: Chan 5 Note OFF: F#3, Velocity (0 - 127): 64
0    |  MIDI Event: Chan 5 Note OFF: D3, Velocity (0 - 127): 64
1    |  MIDI Event: Chan 1 Note ON: F#3, Velocity (0 - 127): 49
0    |  MIDI Event: Chan 1 Note ON: A3, Velocity (0 - 127): 85
0    |  MIDI Event: Chan 1 Note ON: D4, Velocity (0 - 127): 75
0    |  MIDI Event: Chan 5 Note ON: A2, Velocity (0 - 127): 105
0    |  MIDI Event: Chan 5 Note ON: D3, Velocity (0 - 127): 116
0    |  MIDI Event: Chan 6 Note ON: B3, Velocity (0 - 127): 98
0    |  MIDI Event: Chan 6 Note ON: B4, Velocity (0 - 127): 98
0    |  MIDI Event: Chan 6 Control/Mode Change: Channel Pan (0-127): 94
29   |  MIDI Event: Chan 6 Note OFF: B4, Velocity (0 - 127): 64
0    |  MIDI Event: Chan 6 Note OFF: B3, Velocity (0 - 127): 64
1    |  MIDI Event: Chan 6 Note ON: D4, Velocity (0 - 127): 54
0    |  MIDI Event: Chan 6 Note ON: D5, Velocity (0 - 127): 54
6    |  MIDI Event: Chan 1 Control/Mode Change: Sound Controller 5 (default: Brightness) (0-127): 24
0    |  MIDI Event: Chan 5 Control/Mode Change: Sound Controller 5 (default: Brightness) (0-127): 24
0    |  MIDI Event: Chan 6 Control/Mode Change: Sound Controller 5 (default: Brightness) (0-127): 24
4    |  MIDI Event: Chan 6 Control/Mode Change: Channel Pan (0-127): 12
19   |  MIDI Event: Chan 6 Note OFF: D5, Velocity (0 - 127): 64
0    |  MIDI Event: Chan 6 Note OFF: D4, Velocity (0 - 127): 64
0    |  MIDI Event: Chan 5 Note OFF: D3, Velocity (0 - 127): 64
0    |  MIDI Event: Chan 1 Note OFF: F#3, Velocity (0 - 127): 64
0    |  MIDI Event: Chan 1 Note OFF: A3, Velocity (0 - 127): 64
0    |  MIDI Event: Chan 1 Note OFF: D4, Velocity (0 - 127): 64
0    |  MIDI Event: Chan 5 Note OFF: A2, Velocity (0 - 127): 64
1    |  MIDI Event: Chan 1 Note ON: A3, Velocity (0 - 127): 56
0    |  MIDI Event: Chan 1 Note ON: D4, Velocity (0 - 127): 84
0    |  MIDI Event: Chan 1 Note ON: F#4, Velocity (0 - 127): 49
0    |  MIDI Event: Chan 5 Note ON: D3, Velocity (0 - 127): 105
0    |  MIDI Event: Chan 5 Note ON: F#3, Velocity (0 - 127): 115
0    |  MIDI Event: Chan 6 Note ON: B3, Velocity (0 - 127): 116
0    |  MIDI Event: Chan 6 Note ON: B4, Velocity (0 - 127): 116
20   |  MIDI Event: Chan 6 Control/Mode Change: Channel Pan (0-127): 115
9    |  MIDI Event: Chan 5 Note OFF: F#3, Velocity (0 - 127): 64
0    |  MIDI Event: Chan 1 Note OFF: F#4, Velocity (0 - 127): 64
0    |  MIDI Event: Chan 1 Note OFF: D4, Velocity (0 - 127): 64
0    |  MIDI Event: Chan 1 Note OFF: A3, Velocity (0 - 127): 64
0    |  MIDI Event: Chan 5 Note OFF: D3, Velocity (0 - 127): 64
1    |  MIDI Event: Chan 1 Control/Mode Change: Sound Controller 5 (default: Brightness) (0-127): 25
0    |  MIDI Event: Chan 1 Note ON: A3, Velocity (0 - 127): 84
0    |  MIDI Event: Chan 1 Note ON: D4, Velocity (0 - 127): 94
0    |  MIDI Event: Chan 1 Note ON: F#4, Velocity (0 - 127): 76
0    |  MIDI Event: Chan 5 Control/Mode Change: Sound Controller 5 (default: Brightness) (0-127): 25
0    |  MIDI Event: Chan 5 Note ON: D3, Velocity (0 - 127): 100
0    |  MIDI Event: Chan 5 Note ON: F#3, Velocity (0 - 127): 92
0    |  MIDI Event: Chan 6 Control/Mode Change: Sound Controller 5 (default: Brightness) (0-127): 25
29   |  MIDI Event: Chan 5 Note OFF: F#3, Velocity (0 - 127): 64
0    |  MIDI Event: Chan 6 Note OFF: B3, Velocity (0 - 127): 64
0    |  MIDI Event: Chan 1 Note OFF: D4, Velocity (0 - 127): 64
0    |  MIDI Event: Chan 5 Note OFF: D3, Velocity (0 - 127): 64
0    |  MIDI Event: Chan 6 Note OFF: B4, Velocity (0 - 127): 64
0    |  MIDI Event: Chan 1 Note OFF: A3, Velocity (0 - 127): 64
0    |  MIDI Event: Chan 1 Note OFF: F#4, Velocity (0 - 127): 64
1    |  MIDI Event: Chan 1 Note ON: E3, Velocity (0 - 127): 47
0    |  MIDI Event: Chan 1 Note ON: A3, Velocity (0 - 127): 89
0    |  MIDI Event: Chan 1 Note ON: C#4, Velocity (0 - 127): 52
0    |  MIDI Event: Chan 5 Note ON: A2, Velocity (0 - 127): 101
0    |  MIDI Event: Chan 5 Note ON: E3, Velocity (0 - 127): 101
0    |  MIDI Event: Chan 6 Control/Mode Change: Channel Pan (0-127): 34
24   |  MIDI Event: Chan 1 Control/Mode Change: Sound Controller 5 (default: Brightness) (0-127): 26
0    |  MIDI Event: Chan 5 Control/Mode Change: Sound Controller 5 (default: Brightness) (0-127): 26
0    |  MIDI Event: Chan 6 Control/Mode Change: Sound Controller 5 (default: Brightness) (0-127): 26
6    |  MIDI Event: Chan 6 Note ON: A3, Velocity (0 - 127): 83
0    |  MIDI Event: Chan 6 Note ON: A4, Velocity (0 - 127): 83
10   |  MIDI Event: Chan 6 Control/Mode Change: Channel Pan (0-127): 94
19   |  MIDI Event: Chan 6 Note OFF: A4, Velocity (0 - 127): 64
0    |  MIDI Event: Chan 6 Note OFF: A3, Velocity (0 - 127): 64
0    |  MIDI Event: Chan 5 Note OFF: A2, Velocity (0 - 127): 64
0    |  MIDI Event: Chan 1 Note OFF: E3, Velocity (0 - 127): 64
0    |  MIDI Event: Chan 1 Note OFF: A3, Velocity (0 - 127): 64
0    |  MIDI Event: Chan 1 Note OFF: C#4, Velocity (0 - 127): 64
0    |  MIDI Event: Chan 5 Note OFF: E3, Velocity (0 - 127): 64
1    |  MIDI Event: Chan 1 Note ON: A3, Velocity (0 - 127): 51
0    |  MIDI Event: Chan 1 Note ON: C#4, Velocity (0 - 127): 52
0    |  MIDI Event: Chan 1 Note ON: E4, Velocity (0 - 127): 78
0    |  MIDI Event: Chan 5 Note ON: C#3, Velocity (0 - 127): 89
0    |  MIDI Event: Chan 5 Note ON: E3, Velocity (0 - 127): 101
0    |  MIDI Event: Chan 5 Note ON: A3, Velocity (0 - 127): 89
0    |  MIDI Event: Chan 6 Note ON: B3, Velocity (0 - 127): 98
0    |  MIDI Event: Chan 6 Note ON: B4, Velocity (0 - 127): 98
18   |  MIDI Event: Chan 1 Control/Mode Change: Sound Controller 5 (default: Brightness) (0-127): 27
0    |  MIDI Event: Chan 5 Control/Mode Change: Sound Controller 5 (default: Brightness) (0-127): 27
0    |  MIDI Event: Chan 6 Control/Mode Change: Sound Controller 5 (default: Brightness) (0-127): 27
2    |  MIDI Event: Chan 6 Control/Mode Change: Channel Pan (0-127): 12
9    |  MIDI Event: Chan 6 Note OFF: B4, Velocity (0 - 127): 64
0    |  MIDI Event: Chan 1 Note OFF: E4, Velocity (0 - 127): 64
0    |  MIDI Event: Chan 6 Note OFF: B3, Velocity (0 - 127): 64
0    |  MIDI Event: Chan 5 Note OFF: C#3, Velocity (0 - 127): 64
0    |  MIDI Event: Chan 1 Note OFF: A3, Velocity (0 - 127): 64
0    |  MIDI Event: Chan 1 Note OFF: C#4, Velocity (0 - 127): 64
0    |  MIDI Event: Chan 5 Note OFF: A3, Velocity (0 - 127): 64
0    |  MIDI Event: Chan 5 Note OFF: E3, Velocity (0 - 127): 64
1    |  MIDI Event: Chan 1 Note ON: A3, Velocity (0 - 127): 73
0    |  MIDI Event: Chan 1 Note ON: C#4, Velocity (0 - 127): 52
0    |  MIDI Event: Chan 1 Note ON: E4, Velocity (0 - 127): 83
0    |  MIDI Event: Chan 5 Note ON: C#3, Velocity (0 - 127): 119
0    |  MIDI Event: Chan 5 Note ON: E3, Velocity (0 - 127): 118
0    |  MIDI Event: Chan 5 Note ON: A3, Velocity (0 - 127): 105
0    |  MIDI Event: Chan 6 Note ON: A3, Velocity (0 - 127): 94
0    |  MIDI Event: Chan 6 Note ON: A4, Velocity (0 - 127): 94
25   |  MIDI Event: Chan 15 Note OFF: C2, Velocity (0 - 127): 64
4    |  MIDI Event: Chan 5 Note OFF: C#3, Velocity (0 - 127): 64
0    |  MIDI Event: Chan 1 Note OFF: A3, Velocity (0 - 127): 64
0    |  MIDI Event: Chan 5 Note OFF: E3, Velocity (0 - 127): 64
0    |  MIDI Event: Chan 1 Note OFF: C#4, Velocity (0 - 127): 64
0    |  MIDI Event: Chan 1 Note OFF: E4, Velocity (0 - 127): 64
0    |  MIDI Event: Chan 6 Note OFF: A3, Velocity (0 - 127): 64
0    |  MIDI Event: Chan 5 Note OFF: A3, Velocity (0 - 127): 64
0    |  MIDI Event: Chan 6 Note OFF: A4, Velocity (0 - 127): 64
1    |  MIDI Event: Chan 1 Note ON: B3, Velocity (0 - 127): 58
0    |  MIDI Event: Chan 1 Note ON: D4, Velocity (0 - 127): 91
0    |  MIDI Event: Chan 5 Note ON: B2, Velocity (0 - 127): 85
0    |  MIDI Event: Chan 5 Note ON: F#3, Velocity (0 - 127): 120
0    |  MIDI Event: Chan 6 Note ON: B3, Velocity (0 - 127): 120
0    |  MIDI Event: Chan 6 Note ON: B4, Velocity (0 - 127): 120
0    |  MIDI Event: Chan 6 Control/Mode Change: Channel Pan (0-127): 115
12   |  MIDI Event: Chan 1 Control/Mode Change: Sound Controller 5 (default: Brightness) (0-127): 28
0    |  MIDI Event: Chan 5 Control/Mode Change: Sound Controller 5 (default: Brightness) (0-127): 28
0    |  MIDI Event: Chan 6 Control/Mode Change: Sound Controller 5 (default: Brightness) (0-127): 28
28   |  MIDI Event: Chan 6 Control/Mode Change: Channel Pan (0-127): 34
19   |  MIDI Event: Chan 6 Note OFF: B4, Velocity (0 - 127): 64
0    |  MIDI Event: Chan 1 Note OFF: D4, Velocity (0 - 127): 64
0    |  MIDI Event: Chan 5 Note OFF: B2, Velocity (0 - 127): 64
0    |  MIDI Event: Chan 1 Note OFF: B3, Velocity (0 - 127): 64
0    |  MIDI Event: Chan 6 Note OFF: B3, Velocity (0 - 127): 64
0    |  MIDI Event: Chan 5 Note OFF: F#3, Velocity (0 - 127): 64
1    |  MIDI Event: Chan 1 Note ON: B3, Velocity (0 - 127): 79
0    |  MIDI Event: Chan 1 Note ON: D4, Velocity (0 - 127): 95
0    |  MIDI Event: Chan 1 Note ON: F#4, Velocity (0 - 127): 74
0    |  MIDI Event: Chan 5 Note ON: D3, Velocity (0 - 127): 92
0    |  MIDI Event: Chan 5 Note ON: F#3, Velocity (0 - 127): 87
0    |  MIDI Event: Chan 5 Note ON: D4, Velocity (0 - 127): 95
6    |  MIDI Event: Chan 1 Control/Mode Change: Sound Controller 5 (default: Brightness) (0-127): 29
0    |  MIDI Event: Chan 5 Control/Mode Change: Sound Controller 5 (default: Brightness) (0-127): 29
0    |  MIDI Event: Chan 6 Control/Mode Change: Sound Controller 5 (default: Brightness) (0-127): 29
14   |  MIDI Event: Chan 6 Control/Mode Change: Channel Pan (0-127): 94
10   |  MIDI Event: Chan 4 Note ON: D4, Velocity (0 - 127): 113
0    |  Meta Event: Lyric: I 
29   |  MIDI Event: Chan 4 Note OFF: D4, Velocity (0 - 127): 64
1    |  MIDI Event: Chan 1 Control/Mode Change: Sound Controller 5 (default: Brightness) (0-127): 30
0    |  MIDI Event: Chan 4 Note ON: A4, Velocity (0 - 127): 103
0    |  MIDI Event: Chan 5 Control/Mode Change: Sound Controller 5 (default: Brightness) (0-127): 30
0    |  MIDI Event: Chan 6 Control/Mode Change: Sound Controller 5 (default: Brightness) (0-127): 30
0    |  MIDI Event: Chan 6 Note ON: B3, Velocity (0 - 127): 120
0    |  MIDI Event: Chan 6 Note ON: B4, Velocity (0 - 127): 120
0    |  MIDI Event: Chan 6 Control/Mode Change: Channel Pan (0-127): 12
0    |  Meta Event: Lyric: did
29   |  MIDI Event: Chan 4 Note OFF: A4, Velocity (0 - 127): 64
0    |  MIDI Event: Chan 5 Note OFF: D3, Velocity (0 - 127): 64
0    |  MIDI Event: Chan 1 Note OFF: B3, Velocity (0 - 127): 64
0    |  MIDI Event: Chan 5 Note OFF: D4, Velocity (0 - 127): 64
0    |  MIDI Event: Chan 1 Note OFF: D4, Velocity (0 - 127): 64
0    |  MIDI Event: Chan 1 Note OFF: F#4, Velocity (0 - 127): 64
0    |  MIDI Event: Chan 5 Note OFF: F#3, Velocity (0 - 127): 64
1    |  MIDI Event: Chan 1 Note ON: B3, Velocity (0 - 127): 71
0    |  MIDI Event: Chan 1 Note ON: D4, Velocity (0 - 127): 91
0    |  MIDI Event: Chan 1 Note ON: F#4, Velocity (0 - 127): 60
0    |  MIDI Event: Chan 4 Note ON: A4, Velocity (0 - 127): 111
0    |  MIDI Event: Chan 5 Note ON: F#3, Velocity (0 - 127): 109
0    |  MIDI Event: Chan 5 Note ON: B3, Velocity (0 - 127): 95
0    |  Meta Event: Lyric: n't 
10   |  MIDI Event: Chan 6 Control/Mode Change: Channel Pan (0-127): 115
14   |  MIDI Event: Chan 1 Control/Mode Change: Sound Controller 5 (default: Brightness) (0-127): 31
0    |  MIDI Event: Chan 5 Control/Mode Change: Sound Controller 5 (default: Brightness) (0-127): 31
0    |  MIDI Event: Chan 6 Control/Mode Change: Sound Controller 5 (default: Brightness) (0-127): 31
5    |  MIDI Event: Chan 5 Note OFF: B3, Velocity (0 - 127): 64
0    |  MIDI Event: Chan 6 Note OFF: B3, Velocity (0 - 127): 64
0    |  MIDI Event: Chan 1 Note OFF: F#4, Velocity (0 - 127): 64
0    |  MIDI Event: Chan 6 Note OFF: B4, Velocity (0 - 127): 64
0    |  MIDI Event: Chan 1 Note OFF: B3, Velocity (0 - 127): 64
0    |  MIDI Event: Chan 1 Note OFF: D4, Velocity (0 - 127): 64
0    |  MIDI Event: Chan 4 Note OFF: A4, Velocity (0 - 127): 64
0    |  MIDI Event: Chan 5 Note OFF: F#3, Velocity (0 - 127): 64
1    |  MIDI Event: Chan 1 Note ON: D4, Velocity (0 - 127): 80
0    |  MIDI Event: Chan 1 Note ON: F#4, Velocity (0 - 127): 62
0    |  MIDI Event: Chan 1 Note ON: B4, Velocity (0 - 127): 91
0    |  MIDI Event: Chan 5 Note ON: D3, Velocity (0 - 127): 103
0    |  MIDI Event: Chan 5 Note ON: F#3, Velocity (0 - 127): 115
20   |  MIDI Event: Chan 6 Control/Mode Change: Channel Pan (0-127): 34
9    |  MIDI Event: Chan 5 Note OFF: F#3, Velocity (0 - 127): 64
0    |  MIDI Event: Chan 1 Note OFF: B4, Velocity (0 - 127): 64
0    |  MIDI Event: Chan 1 Note OFF: D4, Velocity (0 - 127): 64
0    |  MIDI Event: Chan 1 Note OFF: F#4, Velocity (0 - 127): 64
0    |  MIDI Event: Chan 5 Note OFF: D3, Velocity (0 - 127): 64
1    |  MIDI Event: Chan 1 Note ON: B3, Velocity (0 - 127): 51
0    |  MIDI Event: Chan 1 Note ON: D4, Velocity (0 - 127): 85
0    |  MIDI Event: Chan 1 Note ON: F#4, Velocity (0 - 127): 59
0    |  MIDI Event: Chan 4 Note ON: A4, Velocity (0 - 127): 107
0    |  MIDI Event: Chan 5 Note ON: B2, Velocity (0 - 127): 92
0    |  MIDI Event: Chan 5 Note ON: E3, Velocity (0 - 127): 98
0    |  MIDI Event: Chan 6 Note ON: A3, Velocity (0 - 127): 98
0    |  MIDI Event: Chan 6 Note ON: A4, Velocity (0 - 127): 98
0    |  Meta Event: Lyric: know 
18   |  MIDI Event: Chan 1 Control/Mode Change: Sound Controller 5 (default: Brightness) (0-127): 32
0    |  MIDI Event: Chan 5 Control/Mode Change: Sound Controller 5 (default: Brightness) (0-127): 32
0    |  MIDI Event: Chan 6 Control/Mode Change: Sound Controller 5 (default: Brightness) (0-127): 32
11   |  MIDI Event: Chan 6 Note OFF: A4, Velocity (0 - 127): 64
0    |  MIDI Event: Chan 6 Note OFF: A3, Velocity (0 - 127): 64
0    |  MIDI Event: Chan 5 Note OFF: B2, Velocity (0 - 127): 64
0    |  MIDI Event: Chan 1 Note OFF: D4, Velocity (0 - 127): 64
0    |  MIDI Event: Chan 1 Note OFF: B3, Velocity (0 - 127): 64
0    |  MIDI Event: Chan 1 Note OFF: F#4, Velocity (0 - 127): 64
0    |  MIDI Event: Chan 5 Note OFF: E3, Velocity (0 - 127): 64
1    |  MIDI Event: Chan 1 Note ON: G3, Velocity (0 - 127): 74
0    |  MIDI Event: Chan 1 Note ON: B3, Velocity (0 - 127): 94
0    |  MIDI Event: Chan 1 Note ON: D4, Velocity (0 - 127): 91
0    |  MIDI Event: Chan 5 Note ON: G2, Velocity (0 - 127): 98
0    |  MIDI Event: Chan 5 Note ON: D3, Velocity (0 - 127): 116
0    |  MIDI Event: Chan 6 Note ON: B3, Velocity (0 - 127): 98
0    |  MIDI Event: Chan 6 Note ON: B4, Velocity (0 - 127): 98
0    |  MIDI Event: Chan 6 Control/Mode Change: Channel Pan (0-127): 94
29   |  MIDI Event: Chan 6 Note OFF: B4, Velocity (0 - 127): 64
0    |  MIDI Event: Chan 6 Note OFF: B3, Velocity (0 - 127): 64
1    |  MIDI Event: Chan 6 Note ON: D4, Velocity (0 - 127): 54
0    |  MIDI Event: Chan 6 Note ON: D5, Velocity (0 - 127): 54
10   |  MIDI Event: Chan 6 Control/Mode Change: Channel Pan (0-127): 12
2    |  MIDI Event: Chan 1 Control/Mode Change: Sound Controller 5 (default: Brightness) (0-127): 33
0    |  MIDI Event: Chan 5 Control/Mode Change: Sound Controller 5 (default: Brightness) (0-127): 33
0    |  MIDI Event: Chan 6 Control/Mode Change: Sound Controller 5 (default: Brightness) (0-127): 33
17   |  MIDI Event: Chan 6 Note OFF: D5, Velocity (0 - 127): 64
0    |  MIDI Event: Chan 1 Note OFF: D4, Velocity (0 - 127): 64
0    |  MIDI Event: Chan 5 Note OFF: D3, Velocity (0 - 127): 64
0    |  MIDI Event: Chan 1 Note OFF: G3, Velocity (0 - 127): 64
0    |  MIDI Event: Chan 1 Note OFF: B3, Velocity (0 - 127): 64
0    |  MIDI Event: Chan 4 Note OFF: A4, Velocity (0 - 127): 64
0    |  MIDI Event: Chan 5 Note OFF: G2, Velocity (0 - 127): 64
0    |  MIDI Event: Chan 6 Note OFF: D4, Velocity (0 - 127): 64
1    |  MIDI Event: Chan 1 Note ON: B3, Velocity (0 - 127): 70
0    |  MIDI Event: Chan 1 Note ON: D4, Velocity (0 - 127): 94
0    |  MIDI Event: Chan 1 Note ON: G4, Velocity (0 - 127): 101
0    |  MIDI Event: Chan 4 Note ON: G4, Velocity (0 - 127): 118
0    |  MIDI Event: Chan 5 Note ON: D3, Velocity (0 - 127): 79
0    |  MIDI Event: Chan 5 Note ON: G3, Velocity (0 - 127): 111
0    |  MIDI Event: Chan 5 Note ON: B3, Velocity (0 - 127): 100
0    |  MIDI Event: Chan 6 Note ON: B3, Velocity (0 - 127): 116
0    |  MIDI Event: Chan 6 Note ON: B4, Velocity (0 - 127): 116
0    |  Meta Event: Lyric: I 
20   |  MIDI Event: Chan 6 Control/Mode Change: Channel Pan (0-127): 115
16   |  MIDI Event: Chan 1 Control/Mode Change: Sound Controller 5 (default: Brightness) (0-127): 34
0    |  MIDI Event: Chan 5 Control/Mode Change: Sound Controller 5 (default: Brightness) (0-127): 34
0    |  MIDI Event: Chan 6 Control/Mode Change: Sound Controller 5 (default: Brightness) (0-127): 34
23   |  MIDI Event: Chan 6 Note OFF: B4, Velocity (0 - 127): 64
0    |  MIDI Event: Chan 6 Note OFF: B3, Velocity (0 - 127): 64
1    |  MIDI Event: Chan 6 Control/Mode Change: Channel Pan (0-127): 34
29   |  MIDI Event: Chan 1 Note OFF: B3, Velocity (0 - 127): 64
0    |  MIDI Event: Chan 5 Note OFF: D3, Velocity (0 - 127): 64
0    |  MIDI Event: Chan 1 Note OFF: D4, Velocity (0 - 127): 64
0    |  MIDI Event: Chan 1 Note OFF: G4, Velocity (0 - 127): 64
0    |  MIDI Event: Chan 5 Note OFF: B3, Velocity (0 - 127): 64
0    |  MIDI Event: Chan 5 Note OFF: G3, Velocity (0 - 127): 64
0    |  MIDI Event: Chan 4 Note OFF: G4, Velocity (0 - 127): 64
1    |  MIDI Event: Chan 1 Control/Mode Change: Sound Controller 5 (default: Brightness) (0-127): 35
0    |  MIDI Event: Chan 1 Note ON: B3, Velocity (0 - 127): 52
0    |  MIDI Event: Chan 1 Note ON: D4, Velocity (0 - 127): 85
0    |  MIDI Event: Chan 1 Note ON: G4, Velocity (0 - 127): 94
0    |  MIDI Event: Chan 4 Note ON: A4, Velocity (0 - 127): 105
0    |  MIDI Event: Chan 5 Control/Mode Change: Sound Controller 5 (default: Brightness) (0-127): 35
0    |  MIDI Event: Chan 5 Note ON: D3, Velocity (0 - 127): 82
0    |  MIDI Event: Chan 5 Note ON: G3, Velocity (0 - 127): 98
0    |  MIDI Event: Chan 5 Note ON: B3, Velocity (0 - 127): 85
0    |  MIDI Event: Chan 6 Control/Mode Change: Sound Controller 5 (default: Brightness) (0-127): 35
0    |  MIDI Event: Chan 6 Note ON: A3, Velocity (0 - 127): 83
0    |  MIDI Event: Chan 6 Note ON: A4, Velocity (0 - 127): 83
0    |  Meta Event: Lyric: was 
10   |  MIDI Event: Chan 6 Control/Mode Change: Channel Pan (0-127): 94
19   |  MIDI Event: Chan 6 Note OFF: A4, Velocity (0 - 127): 64
0    |  MIDI Event: Chan 1 Note OFF: G4, Velocity (0 - 127): 64
0    |  MIDI Event: Chan 6 Note OFF: A3, Velocity (0 - 127): 64
0    |  MIDI Event: Chan 5 Note OFF: D3, Velocity (0 - 127): 64
0    |  MIDI Event: Chan 1 Note OFF: D4, Velocity (0 - 127): 64
0    |  MIDI Event: Chan 1 Note OFF: B3, Velocity (0 - 127): 64
0    |  MIDI Event: Chan 5 Note OFF: B3, Velocity (0 - 127): 64
0    |  MIDI Event: Chan 5 Note OFF: G3, Velocity (0 - 127): 64
1    |  MIDI Event: Chan 1 Note ON: D4, Velocity (0 - 127): 78
0    |  MIDI Event: Chan 1 Note ON: G4, Velocity (0 - 127): 100
0    |  MIDI Event: Chan 1 Note ON: B4, Velocity (0 - 127): 46
0    |  MIDI Event: Chan 5 Note ON: G2, Velocity (0 - 127): 109
0    |  MIDI Event: Chan 5 Note ON: D3, Velocity (0 - 127): 109
0    |  MIDI Event: Chan 6 Note ON: B3, Velocity (0 - 127): 98
0    |  MIDI Event: Chan 6 Note ON: B4, Velocity (0 - 127): 98
20   |  MIDI Event: Chan 6 Control/Mode Change: Channel Pan (0-127): 12
4    |  MIDI Event: Chan 1 Control/Mode Change: Sound Controller 5 (default: Brightness) (0-127): 36
0    |  MIDI Event: Chan 5 Control/Mode Change: Sound Controller 5 (default: Brightness) (0-127): 36
0    |  MIDI Event: Chan 6 Control/Mode Change: Sound Controller 5 (default: Brightness) (0-127): 36
5    |  MIDI Event: Chan 6 Note OFF: B4, Velocity (0 - 127): 64
0    |  MIDI Event: Chan 4 Note OFF: A4, Velocity (0 - 127): 64
0    |  MIDI Event: Chan 5 Note OFF: G2, Velocity (0 - 127): 64
0    |  MIDI Event: Chan 1 Note OFF: D4, Velocity (0 - 127): 64
0    |  MIDI Event: Chan 1 Note OFF: G4, Velocity (0 - 127): 64
0    |  MIDI Event: Chan 1 Note OFF: B4, Velocity (0 - 127): 64
0    |  MIDI Event: Chan 5 Note OFF: D3, Velocity (0 - 127): 64
0    |  MIDI Event: Chan 6 Note OFF: B3, Velocity (0 - 127): 64
1    |  MIDI Event: Chan 1 Note ON: B3, Velocity (0 - 127): 45
0    |  MIDI Event: Chan 1 Note ON: D4, Velocity (0 - 127): 73
0    |  MIDI Event: Chan 1 Note ON: G4, Velocity (0 - 127): 86
0    |  MIDI Event: Chan 5 Note ON: G2, Velocity (0 - 127): 101
0    |  MIDI Event: Chan 5 Note ON: E3, Velocity (0 - 127): 116
0    |  MIDI Event: Chan 6 Note ON: A3, Velocity (0 - 127): 94
0    |  MIDI Event: Chan 6 Note ON: A4, Velocity (0 - 127): 94
29   |  MIDI Event: Chan 6 Note OFF: A4, Velocity (0 - 127): 64
0    |  MIDI Event: Chan 5 Note OFF: E3, Velocity (0 - 127): 64
0    |  MIDI Event: Chan 1 Note OFF: D4, Velocity (0 - 127): 64
0    |  MIDI Event: Chan 1 Note OFF: G4, Velocity (0 - 127): 64
0    |  MIDI Event: Chan 1 Note OFF: B3, Velocity (0 - 127): 64
0    |  MIDI Event: Chan 6 Note OFF: A3, Velocity (0 - 127): 64
0    |  MIDI Event: Chan 5 Note OFF: G2, Velocity (0 - 127): 64
1    |  MIDI Event: Chan 1 Note ON: F#3, Velocity (0 - 127): 35
0    |  MIDI Event: Chan 1 Note ON: A3, Velocity (0 - 127): 85
0    |  MIDI Event: Chan 1 Note ON: D4, Velocity (0 - 127): 79
0    |  MIDI Event: Chan 4 Note ON: F#4, Velocity (0 - 127): 119
0    |  MIDI Event: Chan 5 Note ON: A2, Velocity (0 - 127): 90
0    |  MIDI Event: Chan 5 Note ON: D3, Velocity (0 - 127): 105
0    |  MIDI Event: Chan 6 Note ON: B3, Velocity (0 - 127): 120
0    |  MIDI Event: Chan 6 Note ON: B4, Velocity (0 - 127): 120
0    |  MIDI Event: Chan 6 Control/Mode Change: Channel Pan (0-127): 115
0    |  Meta Event: Lyric: lost 
0    |  Meta Event: Lyric: 
18   |  MIDI Event: Chan 1 Control/Mode Change: Sound Controller 5 (default: Brightness) (0-127): 37
0    |  MIDI Event: Chan 5 Control/Mode Change: Sound Controller 5 (default: Brightness) (0-127): 37
0    |  MIDI Event: Chan 6 Control/Mode Change: Sound Controller 5 (default: Brightness) (0-127): 37
22   |  MIDI Event: Chan 6 Control/Mode Change: Channel Pan (0-127): 34
19   |  MIDI Event: Chan 6 Note OFF: B4, Velocity (0 - 127): 64
0    |  MIDI Event: Chan 6 Note OFF: B3, Velocity (0 - 127): 64
0    |  MIDI Event: Chan 5 Note OFF: A2, Velocity (0 - 127): 64
0    |  MIDI Event: Chan 1 Note OFF: A3, Velocity (0 - 127): 64
0    |  MIDI Event: Chan 1 Note OFF: F#3, Velocity (0 - 127): 64
0    |  MIDI Event: Chan 1 Note OFF: D4, Velocity (0 - 127): 64
0    |  MIDI Event: Chan 5 Note OFF: D3, Velocity (0 - 127): 64
1    |  MIDI Event: Chan 1 Note ON: A3, Velocity (0 - 127): 69
0    |  MIDI Event: Chan 1 Note ON: D4, Velocity (0 - 127): 98
0    |  MIDI Event: Chan 1 Note ON: F#4, Velocity (0 - 127): 74
0    |  MIDI Event: Chan 5 Note ON: A2, Velocity (0 - 127): 100
0    |  MIDI Event: Chan 5 Note ON: D3, Velocity (0 - 127): 111
0    |  MIDI Event: Chan 5 Note ON: F#3, Velocity (0 - 127): 89
12   |  MIDI Event: Chan 1 Control/Mode Change: Sound Controller 5 (default: Brightness) (0-127): 38
0    |  MIDI Event: Chan 5 Control/Mode Change: Sound Controller 5 (default: Brightness) (0-127): 38
0    |  MIDI Event: Chan 6 Control/Mode Change: Sound Controller 5 (default: Brightness) (0-127): 38
8    |  MIDI Event: Chan 6 Control/Mode Change: Channel Pan (0-127): 94
40   |  MIDI Event: Chan 6 Note ON: B3, Velocity (0 - 127): 120
0    |  MIDI Event: Chan 6 Note ON: B4, Velocity (0 - 127): 120
0    |  MIDI Event: Chan 6 Control/Mode Change: Channel Pan (0-127): 12
6    |  MIDI Event: Chan 1 Control/Mode Change: Sound Controller 5 (default: Brightness) (0-127): 39
0    |  MIDI Event: Chan 5 Control/Mode Change: Sound Controller 5 (default: Brightness) (0-127): 39
0    |  MIDI Event: Chan 6 Control/Mode Change: Sound Controller 5 (default: Brightness) (0-127): 39
23   |  MIDI Event: Chan 5 Note OFF: F#3, Velocity (0 - 127): 64
0    |  MIDI Event: Chan 1 Note OFF: F#4, Velocity (0 - 127): 64
0    |  MIDI Event: Chan 1 Note OFF: D4, Velocity (0 - 127): 64
0    |  MIDI Event: Chan 5 Note OFF: A2, Velocity (0 - 127): 64
0    |  MIDI Event: Chan 1 Note OFF: A3, Velocity (0 - 127): 64
0    |  MIDI Event: Chan 5 Note OFF: D3, Velocity (0 - 127): 64
1    |  MIDI Event: Chan 1 Note ON: F#3, Velocity (0 - 127): 44
0    |  MIDI Event: Chan 1 Note ON: A3, Velocity (0 - 127): 78
0    |  MIDI Event: Chan 1 Note ON: D4, Velocity (0 - 127): 58
0    |  MIDI Event: Chan 5 Note ON: A2, Velocity (0 - 127): 85
0    |  MIDI Event: Chan 5 Note ON: D3, Velocity (0 - 127): 105
0    |  MIDI Event: Chan 5 Note ON: F#3, Velocity (0 - 127): 81
10   |  MIDI Event: Chan 6 Control/Mode Change: Channel Pan (0-127): 115
19   |  MIDI Event: Chan 5 Note OFF: F#3, Velocity (0 - 127): 64
0    |  MIDI Event: Chan 1 Note OFF: F#3, Velocity (0 - 127): 64
0    |  MIDI Event: Chan 5 Note OFF: D3, Velocity (0 - 127): 64
0    |  MIDI Event: Chan 1 Note OFF: A3, Velocity (0 - 127): 64
0    |  MIDI Event: Chan 6 Note OFF: B3, Velocity (0 - 127): 64
0    |  MIDI Event: Chan 6 Note OFF: B4, Velocity (0 - 127): 64
0    |  MIDI Event: Chan 5 Note OFF: A2, Velocity (0 - 127): 64
0    |  MIDI Event: Chan 1 Note OFF: D4, Velocity (0 - 127): 64
1    |  MIDI Event: Chan 1 Control/Mode Change: Sound Controller 5 (default: Brightness) (0-127): 40
0    |  MIDI Event: Chan 1 Note ON: A3, Velocity (0 - 127): 57
0    |  MIDI Event: Chan 1 Note ON: D4, Velocity (0 - 127): 91
0    |  MIDI Event: Chan 1 Note ON: F#4, Velocity (0 - 127): 77
0    |  MIDI Event: Chan 5 Control/Mode Change: Sound Controller 5 (default: Brightness) (0-127): 40
0    |  MIDI Event: Chan 5 Note ON: D3, Velocity (0 - 127): 109
0    |  MIDI Event: Chan 5 Note ON: F#3, Velocity (0 - 127): 89
0    |  MIDI Event: Chan 5 Note ON: A3, Velocity (0 - 127): 109
0    |  MIDI Event: Chan 6 Control/Mode Change: Sound Controller 5 (default: Brightness) (0-127): 40
20   |  MIDI Event: Chan 6 Control/Mode Change: Channel Pan (0-127): 34
9    |  MIDI Event: Chan 5 Note OFF: A3, Velocity (0 - 127): 64
0    |  MIDI Event: Chan 5 Note OFF: D3, Velocity (0 - 127): 64
0    |  MIDI Event: Chan 1 Note OFF: A3, Velocity (0 - 127): 64
0    |  MIDI Event: Chan 1 Note OFF: D4, Velocity (0 - 127): 64
0    |  MIDI Event: Chan 1 Note OFF: F#4, Velocity (0 - 127): 64
0    |  MIDI Event: Chan 5 Note OFF: F#3, Velocity (0 - 127): 64
1    |  MIDI Event: Chan 1 Note ON: F#3, Velocity (0 - 127): 35
0    |  MIDI Event: Chan 1 Note ON: A3, Velocity (0 - 127): 79
0    |  MIDI Event: Chan 1 Note ON: D4, Velocity (0 - 127): 56
0    |  MIDI Event: Chan 5 Note ON: D3, Velocity (0 - 127): 111
0    |  MIDI Event: Chan 5 Note ON: F#3, Velocity (0 - 127): 100
0    |  MIDI Event: Chan 5 Note ON: A3, Velocity (0 - 127): 100
0    |  MIDI Event: Chan 6 Note ON: A3, Velocity (0 - 127): 98
0    |  MIDI Event: Chan 6 Note ON: A4, Velocity (0 - 127): 98
24   |  MIDI Event: Chan 1 Control/Mode Change: Sound Controller 5 (default: Brightness) (0-127): 41
0    |  MIDI Event: Chan 5 Control/Mode Change: Sound Controller 5 (default: Brightness) (0-127): 41
0    |  MIDI Event: Chan 6 Control/Mode Change: Sound Controller 5 (default: Brightness) (0-127): 41
5    |  MIDI Event: Chan 6 Note OFF: A4, Velocity (0 - 127): 64
0    |  MIDI Event: Chan 1 Note OFF: D4, Velocity (0 - 127): 64
0    |  MIDI Event: Chan 4 Note OFF: F#4, Velocity (0 - 127): 64
0    |  MIDI Event: Chan 5 Note OFF: D3, Velocity (0 - 127): 64
0    |  MIDI Event: Chan 1 Note OFF: F#3, Velocity (0 - 127): 64
0    |  MIDI Event: Chan 1 Note OFF: A3, Velocity (0 - 127): 64
0    |  MIDI Event: Chan 5 Note OFF: A3, Velocity (0 - 127): 64
0    |  MIDI Event: Chan 5 Note OFF: F#3, Velocity (0 - 127): 64
0    |  MIDI Event: Chan 6 Note OFF: A3, Velocity (0 - 127): 64
1    |  MIDI Event: Chan 1 Note ON: F#3, Velocity (0 - 127): 49
0    |  MIDI Event: Chan 1 Note ON: A3, Velocity (0 - 127): 85
0    |  MIDI Event: Chan 1 Note ON: D4, Velocity (0 - 127): 75
0    |  MIDI Event: Chan 5 Note ON: A2, Velocity (0 - 127): 105
0    |  MIDI Event: Chan 5 Note ON: D3, Velocity (0 - 127): 116
0    |  MIDI Event: Chan 6 Note ON: B3, Velocity (0 - 127): 98
0    |  MIDI Event: Chan 6 Note ON: B4, Velocity (0 - 127): 98
0    |  MIDI Event: Chan 6 Control/Mode Change: Channel Pan (0-127): 94
29   |  MIDI Event: Chan 6 Note OFF: B4, Velocity (0 - 127): 64
0    |  MIDI Event: Chan 6 Note OFF: B3, Velocity (0 - 127): 64
1    |  MIDI Event: Chan 6 Note ON: D4, Velocity (0 - 127): 54
0    |  MIDI Event: Chan 6 Note ON: D5, Velocity (0 - 127): 54
10   |  MIDI Event: Chan 6 Control/Mode Change: Channel Pan (0-127): 12
8    |  MIDI Event: Chan 1 Control/Mode Change: Sound Controller 5 (default: Brightness) (0-127): 42
0    |  MIDI Event: Chan 5 Control/Mode Change: Sound Controller 5 (default: Brightness) (0-127): 42
0    |  MIDI Event: Chan 6 Control/Mode Change: Sound Controller 5 (default: Brightness) (0-127): 42
11   |  MIDI Event: Chan 6 Note OFF: D5, Velocity (0 - 127): 64
0    |  MIDI Event: Chan 1 Note OFF: A3, Velocity (0 - 127): 64
0    |  MIDI Event: Chan 5 Note OFF: D3, Velocity (0 - 127): 64
0    |  MIDI Event: Chan 1 Note OFF: D4, Velocity (0 - 127): 64
0    |  MIDI Event: Chan 1 Note OFF: F#3, Velocity (0 - 127): 64
0    |  MIDI Event: Chan 6 Note OFF: D4, Velocity (0 - 127): 64
0    |  MIDI Event: Chan 5 Note OFF: A2, Velocity (0 - 127): 64
1    |  MIDI Event: Chan 1 Note ON: A3, Velocity (0 - 127): 56
0    |  MIDI Event: Chan 1 Note ON: D4, Velocity (0 - 127): 84
0    |  MIDI Event: Chan 1 Note ON: F#4, Velocity (0 - 127): 49
0    |  MIDI Event: Chan 5 Note ON: D3, Velocity (0 - 127): 105
0    |  MIDI Event: Chan 5 Note ON: F#3, Velocity (0 - 127): 115
0    |  MIDI Event: Chan 6 Note ON: B3, Velocity (0 - 127): 116
0    |  MIDI Event: Chan 6 Note ON: B4, Velocity (0 - 127): 116
20   |  MIDI Event: Chan 6 Control/Mode Change: Channel Pan (0-127): 115
9    |  MIDI Event: Chan 5 Note OFF: F#3, Velocity (0 - 127): 64
0    |  MIDI Event: Chan 5 Note OFF: D3, Velocity (0 - 127): 64
0    |  MIDI Event: Chan 1 Note OFF: A3, Velocity (0 - 127): 64
0    |  MIDI Event: Chan 1 Note OFF: F#4, Velocity (0 - 127): 64
0    |  MIDI Event: Chan 1 Note OFF: D4, Velocity (0 - 127): 64
1    |  MIDI Event: Chan 1 Note ON: A3, Velocity (0 - 127): 84
0    |  MIDI Event: Chan 1 Note ON: D4, Velocity (0 - 127): 94
0    |  MIDI Event: Chan 1 Note ON: F#4, Velocity (0 - 127): 76
0    |  MIDI Event: Chan 5 Note ON: D3, Velocity (0 - 127): 100
0    |  MIDI Event: Chan 5 Note ON: F#3, Velocity (0 - 127): 92
12   |  MIDI Event: Chan 1 Control/Mode Change: Sound Controller 5 (default: Brightness) (0-127): 43
0    |  MIDI Event: Chan 5 Control/Mode Change: Sound Controller 5 (default: Brightness) (0-127): 43
0    |  MIDI Event: Chan 6 Control/Mode Change: Sound Controller 5 (default: Brightness) (0-127): 43
17   |  MIDI Event: Chan 5 Note OFF: F#3, Velocity (0 - 127): 64
0    |  MIDI Event: Chan 1 Note OFF: F#4, Velocity (0 - 127): 64
0    |  MIDI Event: Chan 6 Note OFF: B4, Velocity (0 - 127): 64
0    |  MIDI Event: Chan 1 Note OFF: A3, Velocity (0 - 127): 64
0    |  MIDI Event: Chan 6 Note OFF: B3, Velocity (0 - 127): 64
0    |  MIDI Event: Chan 5 Note OFF: D3, Velocity (0 - 127): 64
0    |  MIDI Event: Chan 1 Note OFF: D4, Velocity (0 - 127): 64
1    |  MIDI Event: Chan 1 Note ON: E3, Velocity (0 - 127): 47
0    |  MIDI Event: Chan 1 Note ON: A3, Velocity (0 - 127): 89
0    |  MIDI Event: Chan 1 Note ON: C#4, Velocity (0 - 127): 52
0    |  MIDI Event: Chan 5 Note ON: A2, Velocity (0 - 127): 101
0    |  MIDI Event: Chan 5 Note ON: E3, Velocity (0 - 127): 101
0    |  MIDI Event: Chan 6 Control/Mode Change: Channel Pan (0-127): 34
30   |  MIDI Event: Chan 6 Note ON: A3, Velocity (0 - 127): 83
0    |  MIDI Event: Chan 6 Note ON: A4, Velocity (0 - 127): 83
6    |  MIDI Event: Chan 1 Control/Mode Change: Sound Controller 5 (default: Brightness) (0-127): 44
0    |  MIDI Event: Chan 5 Control/Mode Change: Sound Controller 5 (default: Brightness) (0-127): 44
0    |  MIDI Event: Chan 6 Control/Mode Change: Sound Controller 5 (default: Brightness) (0-127): 44
4    |  MIDI Event: Chan 6 Control/Mode Change: Channel Pan (0-127): 94
19   |  MIDI Event: Chan 6 Note OFF: A4, Velocity (0 - 127): 64
0    |  MIDI Event: Chan 5 Note OFF: E3, Velocity (0 - 127): 64
0    |  MIDI Event: Chan 1 Note OFF: A3, Velocity (0 - 127): 64
0    |  MIDI Event: Chan 1 Note OFF: C#4, Velocity (0 - 127): 64
0    |  MIDI Event: Chan 1 Note OFF: E3, Velocity (0 - 127): 64
0    |  MIDI Event: Chan 6 Note OFF: A3, Velocity (0 - 127): 64
0    |  MIDI Event: Chan 5 Note OFF: A2, Velocity (0 - 127): 64
1    |  MIDI Event: Chan 1 Note ON: A3, Velocity (0 - 127): 51
0    |  MIDI Event: Chan 1 Note ON: C#4, Velocity (0 - 127): 52
0    |  MIDI Event: Chan 1 Note ON: E4, Velocity (0 - 127): 78
0    |  MIDI Event: Chan 5 Note ON: C#3, Velocity (0 - 127): 89
0    |  MIDI Event: Chan 5 Note ON: E3, Velocity (0 - 127): 101
0    |  MIDI Event: Chan 5 Note ON: A3, Velocity (0 - 127): 89
0    |  MIDI Event: Chan 6 Note ON: B3, Velocity (0 - 127): 98
0    |  MIDI Event: Chan 6 Note ON: B4, Velocity (0 - 127): 98
20   |  MIDI Event: Chan 6 Control/Mode Change: Channel Pan (0-127): 12
9    |  MIDI Event: Chan 6 Note OFF: B4, Velocity (0 - 127): 64
0    |  MIDI Event: Chan 1 Note OFF: A3, Velocity (0 - 127): 64
0    |  MIDI Event: Chan 5 Note OFF: E3, Velocity (0 - 127): 64
0    |  MIDI Event: Chan 1 Note OFF: C#4, Velocity (0 - 127): 64
0    |  MIDI Event: Chan 1 Note OFF: E4, Velocity (0 - 127): 64
0    |  MIDI Event: Chan 5 Note OFF: C#3, Velocity (0 - 127): 64
0    |  MIDI Event: Chan 5 Note OFF: A3, Velocity (0 - 127): 64
0    |  MIDI Event: Chan 6 Note OFF: B3, Velocity (0 - 127): 64
1    |  MIDI Event: Chan 1 Control/Mode Change: Sound Controller 5 (default: Brightness) (0-127): 45
0    |  MIDI Event: Chan 1 Note ON: A3, Velocity (0 - 127): 73
0    |  MIDI Event: Chan 1 Note ON: C#4, Velocity (0 - 127): 52
0    |  MIDI Event: Chan 1 Note ON: E4, Velocity (0 - 127): 83
0    |  MIDI Event: Chan 5 Control/Mode Change: Sound Controller 5 (default: Brightness) (0-127): 45
0    |  MIDI Event: Chan 5 Note ON: C#3, Velocity (0 - 127): 119
0    |  MIDI Event: Chan 5 Note ON: E3, Velocity (0 - 127): 118
0    |  MIDI Event: Chan 5 Note ON: A3, Velocity (0 - 127): 105
0    |  MIDI Event: Chan 6 Control/Mode Change: Sound Controller 5 (default: Brightness) (0-127): 45
0    |  MIDI Event: Chan 6 Note ON: A3, Velocity (0 - 127): 94
0    |  MIDI Event: Chan 6 Note ON: A4, Velocity (0 - 127): 94
29   |  MIDI Event: Chan 6 Note OFF: A4, Velocity (0 - 127): 64
0    |  MIDI Event: Chan 1 Note OFF: A3, Velocity (0 - 127): 64
0    |  MIDI Event: Chan 5 Note OFF: E3, Velocity (0 - 127): 64
0    |  MIDI Event: Chan 1 Note OFF: C#4, Velocity (0 - 127): 64
0    |  MIDI Event: Chan 1 Note OFF: E4, Velocity (0 - 127): 64
0    |  MIDI Event: Chan 5 Note OFF: C#3, Velocity (0 - 127): 64
0    |  MIDI Event: Chan 5 Note OFF: A3, Velocity (0 - 127): 64
0    |  MIDI Event: Chan 6 Note OFF: A3, Velocity (0 - 127): 64
1    |  MIDI Event: Chan 1 Note ON: B3, Velocity (0 - 127): 58
0    |  MIDI Event: Chan 1 Note ON: D4, Velocity (0 - 127): 91
0    |  MIDI Event: Chan 5 Note ON: B2, Velocity (0 - 127): 85
0    |  MIDI Event: Chan 5 Note ON: F#3, Velocity (0 - 127): 120
0    |  MIDI Event: Chan 6 Note ON: B3, Velocity (0 - 127): 120
0    |  MIDI Event: Chan 6 Note ON: B4, Velocity (0 - 127): 120
0    |  MIDI Event: Chan 6 Control/Mode Change: Channel Pan (0-127): 115
24   |  MIDI Event: Chan 1 Control/Mode Change: Sound Controller 5 (default: Brightness) (0-127): 46
0    |  MIDI Event: Chan 5 Control/Mode Change: Sound Controller 5 (default: Brightness) (0-127): 46
0    |  MIDI Event: Chan 6 Control/Mode Change: Sound Controller 5 (default: Brightness) (0-127): 46
16   |  MIDI Event: Chan 6 Control/Mode Change: Channel Pan (0-127): 34
19   |  MIDI Event: Chan 6 Note OFF: B4, Velocity (0 - 127): 64
0    |  MIDI Event: Chan 1 Note OFF: D4, Velocity (0 - 127): 64
0    |  MIDI Event: Chan 5 Note OFF: B2, Velocity (0 - 127): 64
0    |  MIDI Event: Chan 1 Note OFF: B3, Velocity (0 - 127): 64
0    |  MIDI Event: Chan 6 Note OFF: B3, Velocity (0 - 127): 64
0    |  MIDI Event: Chan 5 Note OFF: F#3, Velocity (0 - 127): 64
1    |  MIDI Event: Chan 1 Note ON: B3, Velocity (0 - 127): 79
0    |  MIDI Event: Chan 1 Note ON: D4, Velocity (0 - 127): 95
0    |  MIDI Event: Chan 1 Note ON: F#4, Velocity (0 - 127): 74
0    |  MIDI Event: Chan 5 Note ON: D3, Velocity (0 - 127): 92
0    |  MIDI Event: Chan 5 Note ON: F#3, Velocity (0 - 127): 87
0    |  MIDI Event: Chan 5 Note ON: D4, Velocity (0 - 127): 95
18   |  MIDI Event: Chan 1 Control/Mode Change: Sound Controller 5 (default: Brightness) (0-127): 47
0    |  MIDI Event: Chan 5 Control/Mode Change: Sound Controller 5 (default: Brightness) (0-127): 47
0    |  MIDI Event: Chan 6 Control/Mode Change: Sound Controller 5 (default: Brightness) (0-127): 47
2    |  MIDI Event: Chan 6 Control/Mode Change: Channel Pan (0-127): 94
10   |  MIDI Event: Chan 4 Note ON: A3, Velocity (0 - 127): 111
0    |  Meta Event: Lyric: I 
29   |  MIDI Event: Chan 4 Note OFF: A3, Velocity (0 - 127): 64
1    |  MIDI Event: Chan 4 Note ON: D4, Velocity (0 - 127): 109
0    |  MIDI Event: Chan 6 Note ON: B3, Velocity (0 - 127): 120
0    |  MIDI Event: Chan 6 Note ON: B4, Velocity (0 - 127): 120
0    |  MIDI Event: Chan 6 Control/Mode Change: Channel Pan (0-127): 12
0    |  Meta Event: Lyric: did
12   |  MIDI Event: Chan 1 Control/Mode Change: Sound Controller 5 (default: Brightness) (0-127): 48
0    |  MIDI Event: Chan 5 Control/Mode Change: Sound Controller 5 (default: Brightness) (0-127): 48
0    |  MIDI Event: Chan 6 Control/Mode Change: Sound Controller 5 (default: Brightness) (0-127): 48
17   |  MIDI Event: Chan 4 Note OFF: D4, Velocity (0 - 127): 64
0    |  MIDI Event: Chan 5 Note OFF: D3, Velocity (0 - 127): 64
0    |  MIDI Event: Chan 1 Note OFF: B3, Velocity (0 - 127): 64
0    |  MIDI Event: Chan 5 Note OFF: D4, Velocity (0 - 127): 64
0    |  MIDI Event: Chan 1 Note OFF: D4, Velocity (0 - 127): 64
0    |  MIDI Event: Chan 1 Note OFF: F#4, Velocity (0 - 127): 64
0    |  MIDI Event: Chan 5 Note OFF: F#3, Velocity (0 - 127): 64
1    |  MIDI Event: Chan 1 Note ON: B3, Velocity (0 - 127): 71
0    |  MIDI Event: Chan 1 Note ON: D4, Velocity (0 - 127): 91
0    |  MIDI Event: Chan 1 Note ON: F#4, Velocity (0 - 127): 60
0    |  MIDI Event: Chan 5 Note ON: F#3, Velocity (0 - 127): 109
0    |  MIDI Event: Chan 5 Note ON: B3, Velocity (0 - 127): 95
10   |  MIDI Event: Chan 6 Control/Mode Change: Channel Pan (0-127): 115
19   |  MIDI Event: Chan 5 Note OFF: B3, Velocity (0 - 127): 64
0    |  MIDI Event: Chan 1 Note OFF: F#4, Velocity (0 - 127): 64
0    |  MIDI Event: Chan 6 Note OFF: B4, Velocity (0 - 127): 64
0    |  MIDI Event: Chan 1 Note OFF: B3, Velocity (0 - 127): 64
0    |  MIDI Event: Chan 6 Note OFF: B3, Velocity (0 - 127): 64
0    |  MIDI Event: Chan 5 Note OFF: F#3, Velocity (0 - 127): 64
0    |  MIDI Event: Chan 1 Note OFF: D4, Velocity (0 - 127): 64
1    |  MIDI Event: Chan 1 Note ON: D4, Velocity (0 - 127): 80
0    |  MIDI Event: Chan 1 Note ON: F#4, Velocity (0 - 127): 62
0    |  MIDI Event: Chan 1 Note ON: B4, Velocity (0 - 127): 91
0    |  MIDI Event: Chan 4 Note ON: D4, Velocity (0 - 127): 111
0    |  MIDI Event: Chan 5 Note ON: D3, Velocity (0 - 127): 103
0    |  MIDI Event: Chan 5 Note ON: F#3, Velocity (0 - 127): 115
0    |  Meta Event: Lyric: n't 
6    |  MIDI Event: Chan 1 Control/Mode Change: Sound Controller 5 (default: Brightness) (0-127): 49
0    |  MIDI Event: Chan 5 Control/Mode Change: Sound Controller 5 (default: Brightness) (0-127): 49
0    |  MIDI Event: Chan 6 Control/Mode Change: Sound Controller 5 (default: Brightness) (0-127): 49
14   |  MIDI Event: Chan 6 Control/Mode Change: Channel Pan (0-127): 34
9    |  MIDI Event: Chan 5 Note OFF: F#3, Velocity (0 - 127): 64
0    |  MIDI Event: Chan 1 Note OFF: F#4, Velocity (0 - 127): 64
0    |  MIDI Event: Chan 1 Note OFF: B4, Velocity (0 - 127): 64
0    |  MIDI Event: Chan 1 Note OFF: D4, Velocity (0 - 127): 64
0    |  MIDI Event: Chan 5 Note OFF: D3, Velocity (0 - 127): 64
0    |  MIDI Event: Chan 4 Note OFF: D4, Velocity (0 - 127): 64
1    |  MIDI Event: Chan 1 Note ON: B3, Velocity (0 - 127): 51
0    |  MIDI Event: Chan 1 Note ON: D4, Velocity (0 - 127): 85
0    |  MIDI Event: Chan 1 Note ON: F#4, Velocity (0 - 127): 59
0    |  MIDI Event: Chan 5 Note ON: B2, Velocity (0 - 127): 92
0    |  MIDI Event: Chan 5 Note ON: E3, Velocity (0 - 127): 98
0    |  MIDI Event: Chan 6 Note ON: A3, Velocity (0 - 127): 98
0    |  MIDI Event: Chan 6 Note ON: A4, Velocity (0 - 127): 98
29   |  MIDI Event: Chan 6 Note OFF: A4, Velocity (0 - 127): 64
0    |  MIDI Event: Chan 5 Note OFF: E3, Velocity (0 - 127): 64
0    |  MIDI Event: Chan 1 Note OFF: D4, Velocity (0 - 127): 64
0    |  MIDI Event: Chan 1 Note OFF: F#4, Velocity (0 - 127): 64
0    |  MIDI Event: Chan 1 Note OFF: B3, Velocity (0 - 127): 64
0    |  MIDI Event: Chan 6 Note OFF: A3, Velocity (0 - 127): 64
0    |  MIDI Event: Chan 5 Note OFF: B2, Velocity (0 - 127): 64
1    |  MIDI Event: Chan 1 Control/Mode Change: Sound Controller 5 (default: Brightness) (0-127): 50
0    |  MIDI Event: Chan 1 Note ON: G3, Velocity (0 - 127): 74
0    |  MIDI Event: Chan 1 Note ON: B3, Velocity (0 - 127): 94
0    |  MIDI Event: Chan 1 Note ON: D4, Velocity (0 - 127): 91
0    |  MIDI Event: Chan 4 Note ON: B3, Velocity (0 - 127): 118
0    |  MIDI Event: Chan 5 Control/Mode Change: Sound Controller 5 (default: Brightness) (0-127): 50
0    |  MIDI Event: Chan 5 Note ON: G2, Velocity (0 - 127): 98
0    |  MIDI Event: Chan 5 Note ON: D3, Velocity (0 - 127): 116
0    |  MIDI Event: Chan 6 Control/Mode Change: Sound Controller 5 (default: Brightness) (0-127): 50
0    |  MIDI Event: Chan 6 Note ON: B3, Velocity (0 - 127): 98
0    |  MIDI Event: Chan 6 Note ON: B4, Velocity (0 - 127): 98
0    |  MIDI Event: Chan 6 Control/Mode Change: Channel Pan (0-127): 94
0    |  Meta Event: Lyric: know 
29   |  MIDI Event: Chan 6 Note OFF: B4, Velocity (0 - 127): 64
0    |  MIDI Event: Chan 6 Note OFF: B3, Velocity (0 - 127): 64
1    |  MIDI Event: Chan 6 Note ON: D4, Velocity (0 - 127): 54
0    |  MIDI Event: Chan 6 Note ON: D5, Velocity (0 - 127): 54
10   |  MIDI Event: Chan 6 Control/Mode Change: Channel Pan (0-127): 12
14   |  MIDI Event: Chan 1 Control/Mode Change: Sound Controller 5 (default: Brightness) (0-127): 51
0    |  MIDI Event: Chan 5 Control/Mode Change: Sound Controller 5 (default: Brightness) (0-127): 51
0    |  MIDI Event: Chan 6 Control/Mode Change: Sound Controller 5 (default: Brightness) (0-127): 51
5    |  MIDI Event: Chan 6 Note OFF: D5, Velocity (0 - 127): 64
0    |  MIDI Event: Chan 6 Note OFF: D4, Velocity (0 - 127): 64
0    |  MIDI Event: Chan 5 Note OFF: D3, Velocity (0 - 127): 64
0    |  MIDI Event: Chan 1 Note OFF: B3, Velocity (0 - 127): 64
0    |  MIDI Event: Chan 1 Note OFF: G3, Velocity (0 - 127): 64
0    |  MIDI Event: Chan 1 Note OFF: D4, Velocity (0 - 127): 64
0    |  MIDI Event: Chan 5 Note OFF: G2, Velocity (0 - 127): 64
1    |  MIDI Event: Chan 1 Note ON: B3, Velocity (0 - 127): 70
0    |  MIDI Event: Chan 1 Note ON: D4, Velocity (0 - 127): 94
0    |  MIDI Event: Chan 1 Note ON: G4, Velocity (0 - 127): 101
0    |  MIDI Event: Chan 5 Note ON: D3, Velocity (0 - 127): 79
0    |  MIDI Event: Chan 5 Note ON: G3, Velocity (0 - 127): 111
0    |  MIDI Event: Chan 5 Note ON: B3, Velocity (0 - 127): 100
0    |  MIDI Event: Chan 6 Note ON: B3, Velocity (0 - 127): 116
0    |  MIDI Event: Chan 6 Note ON: B4, Velocity (0 - 127): 116
20   |  MIDI Event: Chan 6 Control/Mode Change: Channel Pan (0-127): 115
9    |  MIDI Event: Chan 4 Note OFF: B3, Velocity (0 - 127): 64
19   |  MIDI Event: Chan 1 Control/Mode Change: Sound Controller 5 (default: Brightness) (0-127): 52
0    |  MIDI Event: Chan 5 Control/Mode Change: Sound Controller 5 (default: Brightness) (0-127): 52
0    |  MIDI Event: Chan 6 Control/Mode Change: Sound Controller 5 (default: Brightness) (0-127): 52
11   |  MIDI Event: Chan 6 Note OFF: B4, Velocity (0 - 127): 64
0    |  MIDI Event: Chan 6 Note OFF: B3, Velocity (0 - 127): 64
1    |  MIDI Event: Chan 4 Note ON: B3, Velocity (0 - 127): 105
0    |  MIDI Event: Chan 6 Control/Mode Change: Channel Pan (0-127): 34
0    |  Meta Event: Lyric: I 
29   |  MIDI Event: Chan 4 Note OFF: B3, Velocity (0 - 127): 64
0    |  MIDI Event: Chan 5 Note OFF: B3, Velocity (0 - 127): 64
0    |  MIDI Event: Chan 1 Note OFF: D4, Velocity (0 - 127): 64
0    |  MIDI Event: Chan 1 Note OFF: G4, Velocity (0 - 127): 64
0    |  MIDI Event: Chan 5 Note OFF: D3, Velocity (0 - 127): 64
0    |  MIDI Event: Chan 5 Note OFF: G3, Velocity (0 - 127): 64
0    |  MIDI Event: Chan 1 Note OFF: B3, Velocity (0 - 127): 64
1    |  MIDI Event: Chan 1 Note ON: B3, Velocity (0 - 127): 52
0    |  MIDI Event: Chan 1 Note ON: D4, Velocity (0 - 127): 85
0    |  MIDI Event: Chan 1 Note ON: G4, Velocity (0 - 127): 94
0    |  MIDI Event: Chan 5 Note ON: D3, Velocity (0 - 127): 82
0    |  MIDI Event: Chan 5 Note ON: G3, Velocity (0 - 127): 98
0    |  MIDI Event: Chan 5 Note ON: B3, Velocity (0 - 127): 85
0    |  MIDI Event: Chan 6 Note ON: A3, Velocity (0 - 127): 83
0    |  MIDI Event: Chan 6 Note ON: A4, Velocity (0 - 127): 83
10   |  MIDI Event: Chan 6 Control/Mode Change: Channel Pan (0-127): 94
2    |  MIDI Event: Chan 1 Control/Mode Change: Sound Controller 5 (default: Brightness) (0-127): 53
0    |  MIDI Event: Chan 5 Control/Mode Change: Sound Controller 5 (default: Brightness) (0-127): 53
0    |  MIDI Event: Chan 6 Control/Mode Change: Sound Controller 5 (default: Brightness) (0-127): 53
17   |  MIDI Event: Chan 6 Note OFF: A4, Velocity (0 - 127): 64
0    |  MIDI Event: Chan 1 Note OFF: B3, Velocity (0 - 127): 64
0    |  MIDI Event: Chan 5 Note OFF: G3, Velocity (0 - 127): 64
0    |  MIDI Event: Chan 1 Note OFF: D4, Velocity (0 - 127): 64
0    |  MIDI Event: Chan 1 Note OFF: G4, Velocity (0 - 127): 64
0    |  MIDI Event: Chan 5 Note OFF: D3, Velocity (0 - 127): 64
0    |  MIDI Event: Chan 5 Note OFF: B3, Velocity (0 - 127): 64
0    |  MIDI Event: Chan 6 Note OFF: A3, Velocity (0 - 127): 64
1    |  MIDI Event: Chan 1 Note ON: D4, Velocity (0 - 127): 78
0    |  MIDI Event: Chan 1 Note ON: G4, Velocity (0 - 127): 100
0    |  MIDI Event: Chan 1 Note ON: B4, Velocity (0 - 127): 46
0    |  MIDI Event: Chan 4 Note ON: A3, Velocity (0 - 127): 118
0    |  MIDI Event: Chan 5 Note ON: G2, Velocity (0 - 127): 109
0    |  MIDI Event: Chan 5 Note ON: D3, Velocity (0 - 127): 109
0    |  MIDI Event: Chan 6 Note ON: B3, Velocity (0 - 127): 98
0    |  MIDI Event: Chan 6 Note ON: B4, Velocity (0 - 127): 98
0    |  Meta Event: Lyric: was 
20   |  MIDI Event: Chan 6 Control/Mode Change: Channel Pan (0-127): 12
9    |  MIDI Event: Chan 6 Note OFF: B4, Velocity (0 - 127): 64
0    |  MIDI Event: Chan 1 Note OFF: D4, Velocity (0 - 127): 64
0    |  MIDI Event: Chan 5 Note OFF: G2, Velocity (0 - 127): 64
0    |  MIDI Event: Chan 1 Note OFF: G4, Velocity (0 - 127): 64
0    |  MIDI Event: Chan 1 Note OFF: B4, Velocity (0 - 127): 64
0    |  MIDI Event: Chan 4 Note OFF: A3, Velocity (0 - 127): 64
0    |  MIDI Event: Chan 5 Note OFF: D3, Velocity (0 - 127): 64
0    |  MIDI Event: Chan 6 Note OFF: B3, Velocity (0 - 127): 64
1    |  MIDI Event: Chan 1 Note ON: B3, Velocity (0 - 127): 45
0    |  MIDI Event: Chan 1 Note ON: D4, Velocity (0 - 127): 73
0    |  MIDI Event: Chan 1 Note ON: G4, Velocity (0 - 127): 86
0    |  MIDI Event: Chan 5 Note ON: G2, Velocity (0 - 127): 101
0    |  MIDI Event: Chan 5 Note ON: E3, Velocity (0 - 127): 116
0    |  MIDI Event: Chan 6 Note ON: A3, Velocity (0 - 127): 94
0    |  MIDI Event: Chan 6 Note ON: A4, Velocity (0 - 127): 94
6    |  MIDI Event: Chan 1 Control/Mode Change: Sound Controller 5 (default: Brightness) (0-127): 54
0    |  MIDI Event: Chan 5 Control/Mode Change: Sound Controller 5 (default: Brightness) (0-127): 54
0    |  MIDI Event: Chan 6 Control/Mode Change: Sound Controller 5 (default: Brightness) (0-127): 54
23   |  MIDI Event: Chan 6 Note OFF: A4, Velocity (0 - 127): 64
0    |  MIDI Event: Chan 5 Note OFF: E3, Velocity (0 - 127): 64
0    |  MIDI Event: Chan 1 Note OFF: D4, Velocity (0 - 127): 64
0    |  MIDI Event: Chan 1 Note OFF: G4, Velocity (0 - 127): 64
0    |  MIDI Event: Chan 1 Note OFF: B3, Velocity (0 - 127): 64
0    |  MIDI Event: Chan 6 Note OFF: A3, Velocity (0 - 127): 64
0    |  MIDI Event: Chan 5 Note OFF: G2, Velocity (0 - 127): 64
1    |  MIDI Event: Chan 1 Note ON: F#3, Velocity (0 - 127): 35
0    |  MIDI Event: Chan 1 Note ON: A3, Velocity (0 - 127): 85
0    |  MIDI Event: Chan 1 Note ON: D4, Velocity (0 - 127): 79
0    |  MIDI Event: Chan 4 Note ON: A3, Velocity (0 - 127): 116
0    |  MIDI Event: Chan 5 Note ON: A2, Velocity (0 - 127): 90
0    |  MIDI Event: Chan 5 Note ON: D3, Velocity (0 - 127): 105
0    |  MIDI Event: Chan 6 Note ON: B3, Velocity (0 - 127): 120
0    |  MIDI Event: Chan 6 Note ON: B4, Velocity (0 - 127): 120
0    |  MIDI Event: Chan 6 Control/Mode Change: Channel Pan (0-127): 115
0    |  Meta Event: Lyric: lost 
0    |  Meta Event: Lyric: 
30   |  MIDI Event: Chan 1 Control/Mode Change: Sound Controller 5 (default: Brightness) (0-127): 55
0    |  MIDI Event: Chan 5 Control/Mode Change: Sound Controller 5 (default: Brightness) (0-127): 55
0    |  MIDI Event: Chan 6 Control/Mode Change: Sound Controller 5 (default: Brightness) (0-127): 55
10   |  MIDI Event: Chan 6 Control/Mode Change: Channel Pan (0-127): 34
19   |  MIDI Event: Chan 6 Note OFF: B4, Velocity (0 - 127): 64
0    |  MIDI Event: Chan 6 Note OFF: B3, Velocity (0 - 127): 64
0    |  MIDI Event: Chan 5 Note OFF: A2, Velocity (0 - 127): 64
0    |  MIDI Event: Chan 1 Note OFF: A3, Velocity (0 - 127): 64
0    |  MIDI Event: Chan 1 Note OFF: F#3, Velocity (0 - 127): 64
0    |  MIDI Event: Chan 1 Note OFF: D4, Velocity (0 - 127): 64
0    |  MIDI Event: Chan 5 Note OFF: D3, Velocity (0 - 127): 64
1    |  MIDI Event: Chan 1 Note ON: A3, Velocity (0 - 127): 69
0    |  MIDI Event: Chan 1 Note ON: D4, Velocity (0 - 127): 98
0    |  MIDI Event: Chan 1 Note ON: F#4, Velocity (0 - 127): 74
0    |  MIDI Event: Chan 5 Note ON: A2, Velocity (0 - 127): 100
0    |  MIDI Event: Chan 5 Note ON: D3, Velocity (0 - 127): 111
0    |  MIDI Event: Chan 5 Note ON: F#3, Velocity (0 - 127): 89
20   |  MIDI Event: Chan 6 Control/Mode Change: Channel Pan (0-127): 94
4    |  MIDI Event: Chan 1 Control/Mode Change: Sound Controller 5 (default: Brightness) (0-127): 56
0    |  MIDI Event: Chan 5 Control/Mode Change: Sound Controller 5 (default: Brightness) (0-127): 56
0    |  MIDI Event: Chan 6 Control/Mode Change: Sound Controller 5 (default: Brightness) (0-127): 56
36   |  MIDI Event: Chan 6 Note ON: B3, Velocity (0 - 127): 120
0    |  MIDI Event: Chan 6 Note ON: B4, Velocity (0 - 127): 120
0    |  MIDI Event: Chan 6 Control/Mode Change: Channel Pan (0-127): 12
18   |  MIDI Event: Chan 1 Control/Mode Change: Sound Controller 5 (default: Brightness) (0-127): 57
0    |  MIDI Event: Chan 5 Control/Mode Change: Sound Controller 5 (default: Brightness) (0-127): 57
0    |  MIDI Event: Chan 6 Control/Mode Change: Sound Controller 5 (default: Brightness) (0-127): 57
11   |  MIDI Event: Chan 5 Note OFF: F#3, Velocity (0 - 127): 64
0    |  MIDI Event: Chan 1 Note OFF: F#4, Velocity (0 - 127): 64
0    |  MIDI Event: Chan 1 Note OFF: D4, Velocity (0 - 127): 64
0    |  MIDI Event: Chan 5 Note OFF: A2, Velocity (0 - 127): 64
0    |  MIDI Event: Chan 1 Note OFF: A3, Velocity (0 - 127): 64
0    |  MIDI Event: Chan 5 Note OFF: D3, Velocity (0 - 127): 64
1    |  MIDI Event: Chan 1 Note ON: F#3, Velocity (0 - 127): 44
0    |  MIDI Event: Chan 1 Note ON: A3, Velocity (0 - 127): 78
0    |  MIDI Event: Chan 1 Note ON: D4, Velocity (0 - 127): 58
0    |  MIDI Event: Chan 5 Note ON: A2, Velocity (0 - 127): 85
0    |  MIDI Event: Chan 5 Note ON: D3, Velocity (0 - 127): 105
0    |  MIDI Event: Chan 5 Note ON: F#3, Velocity (0 - 127): 81
10   |  MIDI Event: Chan 6 Control/Mode Change: Channel Pan (0-127): 115
19   |  MIDI Event: Chan 5 Note OFF: F#3, Velocity (0 - 127): 64
0    |  MIDI Event: Chan 1 Note OFF: F#3, Velocity (0 - 127): 64
0    |  MIDI Event: Chan 5 Note OFF: D3, Velocity (0 - 127): 64
0    |  MIDI Event: Chan 1 Note OFF: A3, Velocity (0 - 127): 64
0    |  MIDI Event: Chan 6 Note OFF: B3, Velocity (0 - 127): 64
0    |  MIDI Event: Chan 6 Note OFF: B4, Velocity (0 - 127): 64
0    |  MIDI Event: Chan 5 Note OFF: A2, Velocity (0 - 127): 64
0    |  MIDI Event: Chan 1 Note OFF: D4, Velocity (0 - 127): 64
1    |  MIDI Event: Chan 1 Note ON: A3, Velocity (0 - 127): 57
0    |  MIDI Event: Chan 1 Note ON: D4, Velocity (0 - 127): 91
0    |  MIDI Event: Chan 1 Note ON: F#4, Velocity (0 - 127): 77
0    |  MIDI Event: Chan 5 Note ON: D3, Velocity (0 - 127): 109
0    |  MIDI Event: Chan 5 Note ON: F#3, Velocity (0 - 127): 89
0    |  MIDI Event: Chan 5 Note ON: A3, Velocity (0 - 127): 109
12   |  MIDI Event: Chan 1 Control/Mode Change: Sound Controller 5 (default: Brightness) (0-127): 58
0    |  MIDI Event: Chan 5 Control/Mode Change: Sound Controller 5 (default: Brightness) (0-127): 58
0    |  MIDI Event: Chan 6 Control/Mode Change: Sound Controller 5 (default: Brightness) (0-127): 58
8    |  MIDI Event: Chan 6 Control/Mode Change: Channel Pan (0-127): 34
9    |  MIDI Event: Chan 5 Note OFF: A3, Velocity (0 - 127): 64
0    |  MIDI Event: Chan 5 Note OFF: D3, Velocity (0 - 127): 64
0    |  MIDI Event: Chan 1 Note OFF: A3, Velocity (0 - 127): 64
0    |  MIDI Event: Chan 1 Note OFF: D4, Velocity (0 - 127): 64
0    |  MIDI Event: Chan 1 Note OFF: F#4, Velocity (0 - 127): 64
0    |  MIDI Event: Chan 5 Note OFF: F#3, Velocity (0 - 127): 64
1    |  MIDI Event: Chan 1 Note ON: F#3, Velocity (0 - 127): 35
0    |  MIDI Event: Chan 1 Note ON: A3, Velocity (0 - 127): 79
0    |  MIDI Event: Chan 1 Note ON: D4, Velocity (0 - 127): 56
0    |  MIDI Event: Chan 5 Note ON: D3, Velocity (0 - 127): 111
0    |  MIDI Event: Chan 5 Note ON: F#3, Velocity (0 - 127): 100
0    |  MIDI Event: Chan 5 Note ON: A3, Velocity (0 - 127): 100
0    |  MIDI Event: Chan 6 Note ON: A3, Velocity (0 - 127): 98
0    |  MIDI Event: Chan 6 Note ON: A4, Velocity (0 - 127): 98
29   |  MIDI Event: Chan 6 Note OFF: A4, Velocity (0 - 127): 64
0    |  MIDI Event: Chan 1 Note OFF: D4, Velocity (0 - 127): 64
0    |  MIDI Event: Chan 4 Note OFF: A3, Velocity (0 - 127): 64
0    |  MIDI Event: Chan 5 Note OFF: D3, Velocity (0 - 127): 64
0    |  MIDI Event: Chan 1 Note OFF: F#3, Velocity (0 - 127): 64
0    |  MIDI Event: Chan 1 Note OFF: A3, Velocity (0 - 127): 64
0    |  MIDI Event: Chan 5 Note OFF: A3, Velocity (0 - 127): 64
0    |  MIDI Event: Chan 5 Note OFF: F#3, Velocity (0 - 127): 64
0    |  MIDI Event: Chan 6 Note OFF: A3, Velocity (0 - 127): 64
1    |  MIDI Event: Chan 1 Note ON: F#3, Velocity (0 - 127): 49
0    |  MIDI Event: Chan 1 Note ON: A3, Velocity (0 - 127): 85
0    |  MIDI Event: Chan 1 Note ON: D4, Velocity (0 - 127): 75
0    |  MIDI Event: Chan 5 Note ON: A2, Velocity (0 - 127): 105
0    |  MIDI Event: Chan 5 Note ON: D3, Velocity (0 - 127): 116
0    |  MIDI Event: Chan 6 Note ON: B3, Velocity (0 - 127): 98
0    |  MIDI Event: Chan 6 Note ON: B4, Velocity (0 - 127): 98
0    |  MIDI Event: Chan 6 Control/Mode Change: Channel Pan (0-127): 94
6    |  MIDI Event: Chan 1 Control/Mode Change: Sound Controller 5 (default: Brightness) (0-127): 59
0    |  MIDI Event: Chan 5 Control/Mode Change: Sound Controller 5 (default: Brightness) (0-127): 59
0    |  MIDI Event: Chan 6 Control/Mode Change: Sound Controller 5 (default: Brightness) (0-127): 59
23   |  MIDI Event: Chan 6 Note OFF: B4, Velocity (0 - 127): 64
0    |  MIDI Event: Chan 6 Note OFF: B3, Velocity (0 - 127): 64
1    |  MIDI Event: Chan 6 Note ON: D4, Velocity (0 - 127): 54
0    |  MIDI Event: Chan 6 Note ON: D5, Velocity (0 - 127): 54
10   |  MIDI Event: Chan 6 Control/Mode Change: Channel Pan (0-127): 12
19   |  MIDI Event: Chan 6 Note OFF: D5, Velocity (0 - 127): 64
0    |  MIDI Event: Chan 1 Note OFF: A3, Velocity (0 - 127): 64
0    |  MIDI Event: Chan 5 Note OFF: D3, Velocity (0 - 127): 64
0    |  MIDI Event: Chan 1 Note OFF: D4, Velocity (0 - 127): 64
0    |  MIDI Event: Chan 1 Note OFF: F#3, Velocity (0 - 127): 64
0    |  MIDI Event: Chan 6 Note OFF: D4, Velocity (0 - 127): 64
0    |  MIDI Event: Chan 5 Note OFF: A2, Velocity (0 - 127): 64
1    |  MIDI Event: Chan 1 Control/Mode Change: Sound Controller 5 (default: Brightness) (0-127): 60
0    |  MIDI Event: Chan 1 Note ON: A3, Velocity (0 - 127): 56
0    |  MIDI Event: Chan 1 Note ON: D4, Velocity (0 - 127): 84
0    |  MIDI Event: Chan 1 Note ON: F#4, Velocity (0 - 127): 49
0    |  MIDI Event: Chan 5 Control/Mode Change: Sound Controller 5 (default: Brightness) (0-127): 60
0    |  MIDI Event: Chan 5 Note ON: D3, Velocity (0 - 127): 105
0    |  MIDI Event: Chan 5 Note ON: F#3, Velocity (0 - 127): 115
0    |  MIDI Event: Chan 6 Control/Mode Change: Sound Controller 5 (default: Brightness) (0-127): 60
0    |  MIDI Event: Chan 6 Note ON: B3, Velocity (0 - 127): 116
0    |  MIDI Event: Chan 6 Note ON: B4, Velocity (0 - 127): 116
20   |  MIDI Event: Chan 6 Control/Mode Change: Channel Pan (0-127): 115
9    |  MIDI Event: Chan 5 Note OFF: F#3, Velocity (0 - 127): 64
0    |  MIDI Event: Chan 5 Note OFF: D3, Velocity (0 - 127): 64
0    |  MIDI Event: Chan 1 Note OFF: A3, Velocity (0 - 127): 64
0    |  MIDI Event: Chan 1 Note OFF: F#4, Velocity (0 - 127): 64
0    |  MIDI Event: Chan 1 Note OFF: D4, Velocity (0 - 127): 64
1    |  MIDI Event: Chan 1 Note ON: A3, Velocity (0 - 127): 84
0    |  MIDI Event: Chan 1 Note ON: D4, Velocity (0 - 127): 94
0    |  MIDI Event: Chan 1 Note ON: F#4, Velocity (0 - 127): 76
0    |  MIDI Event: Chan 5 Note ON: D3, Velocity (0 - 127): 100
0    |  MIDI Event: Chan 5 Note ON: F#3, Velocity (0 - 127): 92
24   |  MIDI Event: Chan 1 Control/Mode Change: Sound Controller 5 (default: Brightness) (0-127): 61
0    |  MIDI Event: Chan 5 Control/Mode Change: Sound Controller 5 (default: Brightness) (0-127): 61
0    |  MIDI Event: Chan 6 Control/Mode Change: Sound Controller 5 (default: Brightness) (0-127): 61
5    |  MIDI Event: Chan 5 Note OFF: F#3, Velocity (0 - 127): 64
0    |  MIDI Event: Chan 1 Note OFF: F#4, Velocity (0 - 127): 64
0    |  MIDI Event: Chan 6 Note OFF: B4, Velocity (0 - 127): 64
0    |  MIDI Event: Chan 1 Note OFF: A3, Velocity (0 - 127): 64
0    |  MIDI Event: Chan 6 Note OFF: B3, Velocity (0 - 127): 64
0    |  MIDI Event: Chan 5 Note OFF: D3, Velocity (0 - 127): 64
0    |  MIDI Event: Chan 1 Note OFF: D4, Velocity (0 - 127): 64
1    |  MIDI Event: Chan 1 Note ON: E3, Velocity (0 - 127): 47
0    |  MIDI Event: Chan 1 Note ON: A3, Velocity (0 - 127): 89
0    |  MIDI Event: Chan 1 Note ON: C#4, Velocity (0 - 127): 52
0    |  MIDI Event: Chan 5 Note ON: A2, Velocity (0 - 127): 101
0    |  MIDI Event: Chan 5 Note ON: E3, Velocity (0 - 127): 101
0    |  MIDI Event: Chan 6 Control/Mode Change: Channel Pan (0-127): 34
30   |  MIDI Event: Chan 6 Note ON: A3, Velocity (0 - 127): 83
0    |  MIDI Event: Chan 6 Note ON: A4, Velocity (0 - 127): 83
10   |  MIDI Event: Chan 6 Control/Mode Change: Channel Pan (0-127): 94
8    |  MIDI Event: Chan 1 Control/Mode Change: Sound Controller 5 (default: Brightness) (0-127): 62
0    |  MIDI Event: Chan 5 Control/Mode Change: Sound Controller 5 (default: Brightness) (0-127): 62
0    |  MIDI Event: Chan 6 Control/Mode Change: Sound Controller 5 (default: Brightness) (0-127): 62
11   |  MIDI Event: Chan 6 Note OFF: A4, Velocity (0 - 127): 64
0    |  MIDI Event: Chan 5 Note OFF: E3, Velocity (0 - 127): 64
0    |  MIDI Event: Chan 1 Note OFF: A3, Velocity (0 - 127): 64
0    |  MIDI Event: Chan 1 Note OFF: C#4, Velocity (0 - 127): 64
0    |  MIDI Event: Chan 1 Note OFF: E3, Velocity (0 - 127): 64
0    |  MIDI Event: Chan 6 Note OFF: A3, Velocity (0 - 127): 64
0    |  MIDI Event: Chan 5 Note OFF: A2, Velocity (0 - 127): 64
1    |  MIDI Event: Chan 1 Note ON: A3, Velocity (0 - 127): 51
0    |  MIDI Event: Chan 1 Note ON: C#4, Velocity (0 - 127): 52
0    |  MIDI Event: Chan 1 Note ON: E4, Velocity (0 - 127): 78
0    |  MIDI Event: Chan 5 Note ON: C#3, Velocity (0 - 127): 89
0    |  MIDI Event: Chan 5 Note ON: E3, Velocity (0 - 127): 101
0    |  MIDI Event: Chan 5 Note ON: A3, Velocity (0 - 127): 89
0    |  MIDI Event: Chan 6 Note ON: B3, Velocity (0 - 127): 98
0    |  MIDI Event: Chan 6 Note ON: B4, Velocity (0 - 127): 98
20   |  MIDI Event: Chan 6 Control/Mode Change: Channel Pan (0-127): 12
9    |  MIDI Event: Chan 6 Note OFF: B4, Velocity (0 - 127): 64
0    |  MIDI Event: Chan 1 Note OFF: A3, Velocity (0 - 127): 64
0    |  MIDI Event: Chan 5 Note OFF: E3, Velocity (0 - 127): 64
0    |  MIDI Event: Chan 1 Note OFF: C#4, Velocity (0 - 127): 64
0    |  MIDI Event: Chan 1 Note OFF: E4, Velocity (0 - 127): 64
0    |  MIDI Event: Chan 5 Note OFF: C#3, Velocity (0 - 127): 64
0    |  MIDI Event: Chan 5 Note OFF: A3, Velocity (0 - 127): 64
0    |  MIDI Event: Chan 6 Note OFF: B3, Velocity (0 - 127): 64
1    |  MIDI Event: Chan 1 Note ON: A3, Velocity (0 - 127): 73
0    |  MIDI Event: Chan 1 Note ON: C#4, Velocity (0 - 127): 52
0    |  MIDI Event: Chan 1 Note ON: E4, Velocity (0 - 127): 83
0    |  MIDI Event: Chan 5 Note ON: C#3, Velocity (0 - 127): 119
0    |  MIDI Event: Chan 5 Note ON: E3, Velocity (0 - 127): 118
0    |  MIDI Event: Chan 5 Note ON: A3, Velocity (0 - 127): 105
0    |  MIDI Event: Chan 6 Note ON: A3, Velocity (0 - 127): 94
0    |  MIDI Event: Chan 6 Note ON: A4, Velocity (0 - 127): 94
12   |  MIDI Event: Chan 1 Control/Mode Change: Sound Controller 5 (default: Brightness) (0-127): 63
0    |  MIDI Event: Chan 5 Control/Mode Change: Sound Controller 5 (default: Brightness) (0-127): 63
0    |  MIDI Event: Chan 6 Control/Mode Change: Sound Controller 5 (default: Brightness) (0-127): 63
3    |  MIDI Event: Chan 13 Control/Mode Change: Sound Controller 5 (default: Brightness) (0-127): 19
14   |  MIDI Event: Chan 6 Note OFF: A4, Velocity (0 - 127): 64
0    |  MIDI Event: Chan 1 Note OFF: A3, Velocity (0 - 127): 64
0    |  MIDI Event: Chan 5 Note OFF: E3, Velocity (0 - 127): 64
0    |  MIDI Event: Chan 1 Note OFF: C#4, Velocity (0 - 127): 64
0    |  MIDI Event: Chan 1 Note OFF: E4, Velocity (0 - 127): 64
0    |  MIDI Event: Chan 5 Note OFF: C#3, Velocity (0 - 127): 64
0    |  MIDI Event: Chan 5 Note OFF: A3, Velocity (0 - 127): 64
0    |  MIDI Event: Chan 6 Note OFF: A3, Velocity (0 - 127): 64
1    |  MIDI Event: Chan 1 Note ON: B3, Velocity (0 - 127): 58
0    |  MIDI Event: Chan 1 Note ON: D4, Velocity (0 - 127): 91
0    |  MIDI Event: Chan 5 Note ON: B2, Velocity (0 - 127): 85
0    |  MIDI Event: Chan 5 Note ON: F#3, Velocity (0 - 127): 120
0    |  MIDI Event: Chan 6 Note ON: B3, Velocity (0 - 127): 120
0    |  MIDI Event: Chan 6 Note ON: B4, Velocity (0 - 127): 120
0    |  MIDI Event: Chan 6 Control/Mode Change: Channel Pan (0-127): 115
0    |  MIDI Event: Chan 13 Control/Mode Change: Sound Controller 5 (default: Brightness) (0-127): 21
0    |  MIDI Event: Chan 13 Control/Mode Change: Expression Control (0-127): 4
0    |  MIDI Event: Chan 13 Note ON: C4, Velocity (0 - 127): 120
15   |  MIDI Event: Chan 1 Control/Mode Change: Sound Controller 5 (default: Brightness) (0-127): 64
0    |  MIDI Event: Chan 5 Control/Mode Change: Sound Controller 5 (default: Brightness) (0-127): 64
0    |  MIDI Event: Chan 13 Control/Mode Change: Sound Controller 5 (default: Brightness) (0-127): 24
0    |  MIDI Event: Chan 13 Control/Mode Change: Expression Control (0-127): 6
15   |  MIDI Event: Chan 1 Control/Mode Change: Sound Controller 5 (default: Brightness) (0-127): 65
0    |  MIDI Event: Chan 5 Control/Mode Change: Sound Controller 5 (default: Brightness) (0-127): 65
0    |  MIDI Event: Chan 13 Control/Mode Change: Sound Controller 5 (default: Brightness) (0-127): 26
0    |  MIDI Event: Chan 13 Control/Mode Change: Expression Control (0-127): 8
10   |  MIDI Event: Chan 6 Control/Mode Change: Channel Pan (0-127): 34
5    |  MIDI Event: Chan 1 Control/Mode Change: Sound Controller 5 (default: Brightness) (0-127): 66
0    |  MIDI Event: Chan 5 Control/Mode Change: Sound Controller 5 (default: Brightness) (0-127): 66
0    |  MIDI Event: Chan 13 Control/Mode Change: Sound Controller 5 (default: Brightness) (0-127): 29
0    |  MIDI Event: Chan 13 Control/Mode Change: Expression Control (0-127): 10
14   |  MIDI Event: Chan 6 Note OFF: B4, Velocity (0 - 127): 64
0    |  MIDI Event: Chan 5 Note OFF: F#3, Velocity (0 - 127): 64
0    |  MIDI Event: Chan 1 Note OFF: D4, Velocity (0 - 127): 64
0    |  MIDI Event: Chan 5 Note OFF: B2, Velocity (0 - 127): 64
0    |  MIDI Event: Chan 1 Note OFF: B3, Velocity (0 - 127): 64
0    |  MIDI Event: Chan 6 Note OFF: B3, Velocity (0 - 127): 64
1    |  MIDI Event: Chan 1 Control/Mode Change: Sound Controller 5 (default: Brightness) (0-127): 68
0    |  MIDI Event: Chan 1 Note ON: B3, Velocity (0 - 127): 79
0    |  MIDI Event: Chan 1 Note ON: D4, Velocity (0 - 127): 95
0    |  MIDI Event: Chan 1 Note ON: F#4, Velocity (0 - 127): 74
0    |  MIDI Event: Chan 5 Control/Mode Change: Sound Controller 5 (default: Brightness) (0-127): 68
0    |  MIDI Event: Chan 5 Note ON: D3, Velocity (0 - 127): 92
0    |  MIDI Event: Chan 5 Note ON: F#3, Velocity (0 - 127): 87
0    |  MIDI Event: Chan 5 Note ON: D4, Velocity (0 - 127): 95
0    |  MIDI Event: Chan 13 Control/Mode Change: Sound Controller 5 (default: Brightness) (0-127): 32
0    |  MIDI Event: Chan 13 Control/Mode Change: Expression Control (0-127): 12
15   |  MIDI Event: Chan 1 Control/Mode Change: Sound Controller 5 (default: Brightness) (0-127): 69
0    |  MIDI Event: Chan 5 Control/Mode Change: Sound Controller 5 (default: Brightness) (0-127): 69
0    |  MIDI Event: Chan 13 Control/Mode Change: Sound Controller 5 (default: Brightness) (0-127): 34
0    |  MIDI Event: Chan 13 Control/Mode Change: Expression Control (0-127): 15
5    |  MIDI Event: Chan 6 Control/Mode Change: Channel Pan (0-127): 94
10   |  MIDI Event: Chan 1 Control/Mode Change: Sound Controller 5 (default: Brightness) (0-127): 71
0    |  MIDI Event: Chan 4 Note ON: B3, Velocity (0 - 127): 94
0    |  MIDI Event: Chan 5 Control/Mode Change: Sound Controller 5 (default: Brightness) (0-127): 71
0    |  MIDI Event: Chan 13 Control/Mode Change: Sound Controller 5 (default: Brightness) (0-127): 37
0    |  MIDI Event: Chan 13 Control/Mode Change: Expression Control (0-127): 17
0    |  Meta Event: Lyric: I 
15   |  MIDI Event: Chan 1 Control/Mode Change: Sound Controller 5 (default: Brightness) (0-127): 72
0    |  MIDI Event: Chan 5 Control/Mode Change: Sound Controller 5 (default: Brightness) (0-127): 72
0    |  MIDI Event: Chan 13 Control/Mode Change: Sound Controller 5 (default: Brightness) (0-127): 40
0    |  MIDI Event: Chan 13 Control/Mode Change: Expression Control (0-127): 19
14   |  MIDI Event: Chan 4 Note OFF: B3, Velocity (0 - 127): 64
1    |  MIDI Event: Chan 1 Control/Mode Change: Sound Controller 5 (default: Brightness) (0-127): 74
0    |  MIDI Event: Chan 4 Note ON: G4, Velocity (0 - 127): 118
0    |  MIDI Event: Chan 5 Control/Mode Change: Sound Controller 5 (default: Brightness) (0-127): 74
0    |  MIDI Event: Chan 6 Note ON: B3, Velocity (0 - 127): 120
0    |  MIDI Event: Chan 6 Note ON: B4, Velocity (0 - 127): 120
0    |  MIDI Event: Chan 6 Control/Mode Change: Channel Pan (0-127): 12
0    |  MIDI Event: Chan 13 Control/Mode Change: Sound Controller 5 (default: Brightness) (0-127): 42
0    |  MIDI Event: Chan 13 Control/Mode Change: Expression Control (0-127): 21
0    |  Meta Event: Lyric: did
15   |  MIDI Event: Chan 1 Control/Mode Change: Sound Controller 5 (default: Brightness) (0-127): 75
0    |  MIDI Event: Chan 5 Control/Mode Change: Sound Controller 5 (default: Brightness) (0-127): 75
0    |  MIDI Event: Chan 13 Control/Mode Change: Sound Controller 5 (default: Brightness) (0-127): 45
0    |  MIDI Event: Chan 13 Control/Mode Change: Expression Control (0-127): 24
14   |  MIDI Event: Chan 4 Note OFF: G4, Velocity (0 - 127): 64
0    |  MIDI Event: Chan 5 Note OFF: D4, Velocity (0 - 127): 64
0    |  MIDI Event: Chan 1 Note OFF: F#4, Velocity (0 - 127): 64
0    |  MIDI Event: Chan 1 Note OFF: D4, Velocity (0 - 127): 64
0    |  MIDI Event: Chan 5 Note OFF: D3, Velocity (0 - 127): 64
0    |  MIDI Event: Chan 1 Note OFF: B3, Velocity (0 - 127): 64
0    |  MIDI Event: Chan 5 Note OFF: F#3, Velocity (0 - 127): 64
1    |  MIDI Event: Chan 1 Control/Mode Change: Sound Controller 5 (default: Brightness) (0-127): 76
0    |  MIDI Event: Chan 1 Note ON: B3, Velocity (0 - 127): 71
0    |  MIDI Event: Chan 1 Note ON: D4, Velocity (0 - 127): 91
0    |  MIDI Event: Chan 1 Note ON: F#4, Velocity (0 - 127): 60
0    |  MIDI Event: Chan 4 Note ON: G4, Velocity (0 - 127): 119
0    |  MIDI Event: Chan 5 Control/Mode Change: Sound Controller 5 (default: Brightness) (0-127): 76
0    |  MIDI Event: Chan 5 Note ON: F#3, Velocity (0 - 127): 109
0    |  MIDI Event: Chan 5 Note ON: B3, Velocity (0 - 127): 95
0    |  MIDI Event: Chan 13 Control/Mode Change: Sound Controller 5 (default: Brightness) (0-127): 47
0    |  MIDI Event: Chan 13 Control/Mode Change: Expression Control (0-127): 26
0    |  Meta Event: Lyric: n't 
10   |  MIDI Event: Chan 6 Control/Mode Change: Channel Pan (0-127): 115
5    |  MIDI Event: Chan 1 Control/Mode Change: Sound Controller 5 (default: Brightness) (0-127): 78
0    |  MIDI Event: Chan 5 Control/Mode Change: Sound Controller 5 (default: Brightness) (0-127): 78
0    |  MIDI Event: Chan 13 Control/Mode Change: Sound Controller 5 (default: Brightness) (0-127): 50
0    |  MIDI Event: Chan 13 Control/Mode Change: Expression Control (0-127): 28
14   |  MIDI Event: Chan 5 Note OFF: B3, Velocity (0 - 127): 64
0    |  MIDI Event: Chan 1 Note OFF: B3, Velocity (0 - 127): 64
0    |  MIDI Event: Chan 5 Note OFF: F#3, Velocity (0 - 127): 64
0    |  MIDI Event: Chan 1 Note OFF: D4, Velocity (0 - 127): 64
0    |  MIDI Event: Chan 6 Note OFF: B3, Velocity (0 - 127): 64
0    |  MIDI Event: Chan 6 Note OFF: B4, Velocity (0 - 127): 64
0    |  MIDI Event: Chan 4 Note OFF: G4, Velocity (0 - 127): 64
0    |  MIDI Event: Chan 1 Note OFF: F#4, Velocity (0 - 127): 64
1    |  MIDI Event: Chan 1 Control/Mode Change: Sound Controller 5 (default: Brightness) (0-127): 79
0    |  MIDI Event: Chan 1 Note ON: D4, Velocity (0 - 127): 80
0    |  MIDI Event: Chan 1 Note ON: F#4, Velocity (0 - 127): 62
0    |  MIDI Event: Chan 1 Note ON: B4, Velocity (0 - 127): 91
0    |  MIDI Event: Chan 5 Control/Mode Change: Sound Controller 5 (default: Brightness) (0-127): 79
0    |  MIDI Event: Chan 5 Note ON: D3, Velocity (0 - 127): 103
0    |  MIDI Event: Chan 5 Note ON: F#3, Velocity (0 - 127): 115
0    |  MIDI Event: Chan 13 Control/Mode Change: Sound Controller 5 (default: Brightness) (0-127): 53
0    |  MIDI Event: Chan 13 Control/Mode Change: Expression Control (0-127): 30
15   |  MIDI Event: Chan 1 Control/Mode Change: Sound Controller 5 (default: Brightness) (0-127): 81
0    |  MIDI Event: Chan 5 Control/Mode Change: Sound Controller 5 (default: Brightness) (0-127): 81
0    |  MIDI Event: Chan 13 Control/Mode Change: Sound Controller 5 (default: Brightness) (0-127): 55
0    |  MIDI Event: Chan 13 Control/Mode Change: Expression Control (0-127): 33
5    |  MIDI Event: Chan 6 Control/Mode Change: Channel Pan (0-127): 34
9    |  MIDI Event: Chan 5 Note OFF: F#3, Velocity (0 - 127): 64
0    |  MIDI Event: Chan 1 Note OFF: D4, Velocity (0 - 127): 64
0    |  MIDI Event: Chan 1 Note OFF: F#4, Velocity (0 - 127): 64
0    |  MIDI Event: Chan 1 Note OFF: B4, Velocity (0 - 127): 64
0    |  MIDI Event: Chan 5 Note OFF: D3, Velocity (0 - 127): 64
1    |  MIDI Event: Chan 1 Control/Mode Change: Sound Controller 5 (default: Brightness) (0-127): 82
0    |  MIDI Event: Chan 1 Note ON: B3, Velocity (0 - 127): 51
0    |  MIDI Event: Chan 1 Note ON: D4, Velocity (0 - 127): 85
0    |  MIDI Event: Chan 1 Note ON: F#4, Velocity (0 - 127): 59
0    |  MIDI Event: Chan 4 Note ON: F#4, Velocity (0 - 127): 120
0    |  MIDI Event: Chan 5 Control/Mode Change: Sound Controller 5 (default: Brightness) (0-127): 82
0    |  MIDI Event: Chan 5 Note ON: B2, Velocity (0 - 127): 92
0    |  MIDI Event: Chan 5 Note ON: E3, Velocity (0 - 127): 98
0    |  MIDI Event: Chan 6 Note ON: A3, Velocity (0 - 127): 98
0    |  MIDI Event: Chan 6 Note ON: A4, Velocity (0 - 127): 98
0    |  MIDI Event: Chan 13 Control/Mode Change: Sound Controller 5 (default: Brightness) (0-127): 58
0    |  MIDI Event: Chan 13 Control/Mode Change: Expression Control (0-127): 35
0    |  Meta Event: Lyric: know... 
0    |  Meta Event: Lyric: 
15   |  MIDI Event: Chan 1 Control/Mode Change: Sound Controller 5 (default: Brightness) (0-127): 84
0    |  MIDI Event: Chan 5 Control/Mode Change: Sound Controller 5 (default: Brightness) (0-127): 84
0    |  MIDI Event: Chan 13 Control/Mode Change: Sound Controller 5 (default: Brightness) (0-127): 61
0    |  MIDI Event: Chan 13 Control/Mode Change: Expression Control (0-127): 37
14   |  MIDI Event: Chan 6 Note OFF: A4, Velocity (0 - 127): 64
0    |  MIDI Event: Chan 1 Note OFF: D4, Velocity (0 - 127): 64
0    |  MIDI Event: Chan 6 Note OFF: A3, Velocity (0 - 127): 64
0    |  MIDI Event: Chan 1 Note OFF: F#4, Velocity (0 - 127): 64
0    |  MIDI Event: Chan 1 Note OFF: B3, Velocity (0 - 127): 64
0    |  MIDI Event: Chan 5 Note OFF: E3, Velocity (0 - 127): 64
0    |  MIDI Event: Chan 5 Note OFF: B2, Velocity (0 - 127): 64
1    |  MIDI Event: Chan 1 Control/Mode Change: Sound Controller 5 (default: Brightness) (0-127): 85
0    |  MIDI Event: Chan 1 Note ON: G3, Velocity (0 - 127): 74
0    |  MIDI Event: Chan 1 Note ON: B3, Velocity (0 - 127): 94
0    |  MIDI Event: Chan 1 Note ON: D4, Velocity (0 - 127): 91
0    |  MIDI Event: Chan 5 Control/Mode Change: Sound Controller 5 (default: Brightness) (0-127): 85
0    |  MIDI Event: Chan 5 Note ON: G2, Velocity (0 - 127): 98
0    |  MIDI Event: Chan 5 Note ON: D3, Velocity (0 - 127): 116
0    |  MIDI Event: Chan 6 Note ON: B3, Velocity (0 - 127): 98
0    |  MIDI Event: Chan 6 Note ON: B4, Velocity (0 - 127): 98
0    |  MIDI Event: Chan 6 Control/Mode Change: Channel Pan (0-127): 94
0    |  MIDI Event: Chan 13 Control/Mode Change: Sound Controller 5 (default: Brightness) (0-127): 63
0    |  MIDI Event: Chan 13 Control/Mode Change: Expression Control (0-127): 39
15   |  MIDI Event: Chan 1 Control/Mode Change: Sound Controller 5 (default: Brightness) (0-127): 86
0    |  MIDI Event: Chan 5 Control/Mode Change: Sound Controller 5 (default: Brightness) (0-127): 86
0    |  MIDI Event: Chan 13 Control/Mode Change: Sound Controller 5 (default: Brightness) (0-127): 66
0    |  MIDI Event: Chan 13 Control/Mode Change: Expression Control (0-127): 42
14   |  MIDI Event: Chan 6 Note OFF: B4, Velocity (0 - 127): 64
0    |  MIDI Event: Chan 6 Note OFF: B3, Velocity (0 - 127): 64
1    |  MIDI Event: Chan 1 Control/Mode Change: Sound Controller 5 (default: Brightness) (0-127): 88
0    |  MIDI Event: Chan 5 Control/Mode Change: Sound Controller 5 (default: Brightness) (0-127): 88
0    |  MIDI Event: Chan 6 Note ON: D4, Velocity (0 - 127): 54
0    |  MIDI Event: Chan 6 Note ON: D5, Velocity (0 - 127): 54
0    |  MIDI Event: Chan 13 Control/Mode Change: Sound Controller 5 (default: Brightness) (0-127): 69
0    |  MIDI Event: Chan 13 Control/Mode Change: Expression Control (0-127): 44
10   |  MIDI Event: Chan 6 Control/Mode Change: Channel Pan (0-127): 12
5    |  MIDI Event: Chan 1 Control/Mode Change: Sound Controller 5 (default: Brightness) (0-127): 89
0    |  MIDI Event: Chan 5 Control/Mode Change: Sound Controller 5 (default: Brightness) (0-127): 89
0    |  MIDI Event: Chan 13 Control/Mode Change: Sound Controller 5 (default: Brightness) (0-127): 71
0    |  MIDI Event: Chan 13 Control/Mode Change: Expression Control (0-127): 46
14   |  MIDI Event: Chan 6 Note OFF: D5, Velocity (0 - 127): 64
0    |  MIDI Event: Chan 5 Note OFF: D3, Velocity (0 - 127): 64
0    |  MIDI Event: Chan 6 Note OFF: D4, Velocity (0 - 127): 64
0    |  MIDI Event: Chan 1 Note OFF: D4, Velocity (0 - 127): 64
0    |  MIDI Event: Chan 1 Note OFF: B3, Velocity (0 - 127): 64
0    |  MIDI Event: Chan 1 Note OFF: G3, Velocity (0 - 127): 64
0    |  MIDI Event: Chan 5 Note OFF: G2, Velocity (0 - 127): 64
1    |  MIDI Event: Chan 1 Control/Mode Change: Sound Controller 5 (default: Brightness) (0-127): 91
0    |  MIDI Event: Chan 1 Note ON: B3, Velocity (0 - 127): 70
0    |  MIDI Event: Chan 1 Note ON: D4, Velocity (0 - 127): 94
0    |  MIDI Event: Chan 1 Note ON: G4, Velocity (0 - 127): 101
0    |  MIDI Event: Chan 5 Control/Mode Change: Sound Controller 5 (default: Brightness) (0-127): 91
0    |  MIDI Event: Chan 5 Note ON: D3, Velocity (0 - 127): 79
0    |  MIDI Event: Chan 5 Note ON: G3, Velocity (0 - 127): 111
0    |  MIDI Event: Chan 5 Note ON: B3, Velocity (0 - 127): 100
0    |  MIDI Event: Chan 6 Note ON: B3, Velocity (0 - 127): 116
0    |  MIDI Event: Chan 6 Note ON: B4, Velocity (0 - 127): 116
0    |  MIDI Event: Chan 13 Control/Mode Change: Sound Controller 5 (default: Brightness) (0-127): 74
0    |  MIDI Event: Chan 13 Control/Mode Change: Expression Control (0-127): 48
15   |  MIDI Event: Chan 1 Control/Mode Change: Sound Controller 5 (default: Brightness) (0-127): 92
0    |  MIDI Event: Chan 5 Control/Mode Change: Sound Controller 5 (default: Brightness) (0-127): 92
0    |  MIDI Event: Chan 13 Control/Mode Change: Sound Controller 5 (default: Brightness) (0-127): 76
0    |  MIDI Event: Chan 13 Control/Mode Change: Expression Control (0-127): 50
5    |  MIDI Event: Chan 6 Control/Mode Change: Channel Pan (0-127): 115
9    |  MIDI Event: Chan 4 Note OFF: F#4, Velocity (0 - 127): 64
1    |  MIDI Event: Chan 1 Control/Mode Change: Sound Controller 5 (default: Brightness) (0-127): 94
0    |  MIDI Event: Chan 5 Control/Mode Change: Sound Controller 5 (default: Brightness) (0-127): 94
0    |  MIDI Event: Chan 13 Control/Mode Change: Sound Controller 5 (default: Brightness) (0-127): 79
0    |  MIDI Event: Chan 13 Control/Mode Change: Expression Control (0-127): 53
15   |  MIDI Event: Chan 1 Control/Mode Change: Sound Controller 5 (default: Brightness) (0-127): 95
0    |  MIDI Event: Chan 5 Control/Mode Change: Sound Controller 5 (default: Brightness) (0-127): 95
0    |  MIDI Event: Chan 13 Control/Mode Change: Sound Controller 5 (default: Brightness) (0-127): 82
0    |  MIDI Event: Chan 13 Control/Mode Change: Expression Control (0-127): 55
14   |  MIDI Event: Chan 6 Note OFF: B4, Velocity (0 - 127): 64
0    |  MIDI Event: Chan 6 Note OFF: B3, Velocity (0 - 127): 64
1    |  MIDI Event: Chan 1 Control/Mode Change: Sound Controller 5 (default: Brightness) (0-127): 96
0    |  MIDI Event: Chan 5 Control/Mode Change: Sound Controller 5 (default: Brightness) (0-127): 96
0    |  MIDI Event: Chan 6 Control/Mode Change: Channel Pan (0-127): 34
0    |  MIDI Event: Chan 13 Control/Mode Change: Sound Controller 5 (default: Brightness) (0-127): 84
0    |  MIDI Event: Chan 13 Control/Mode Change: Expression Control (0-127): 57
15   |  MIDI Event: Chan 1 Control/Mode Change: Sound Controller 5 (default: Brightness) (0-127): 98
0    |  MIDI Event: Chan 5 Control/Mode Change: Sound Controller 5 (default: Brightness) (0-127): 98
0    |  MIDI Event: Chan 13 Control/Mode Change: Sound Controller 5 (default: Brightness) (0-127): 87
0    |  MIDI Event: Chan 13 Control/Mode Change: Expression Control (0-127): 59
14   |  MIDI Event: Chan 1 Note OFF: G4, Velocity (0 - 127): 64
0    |  MIDI Event: Chan 5 Note OFF: D3, Velocity (0 - 127): 64
0    |  MIDI Event: Chan 1 Note OFF: B3, Velocity (0 - 127): 64
0    |  MIDI Event: Chan 1 Note OFF: D4, Velocity (0 - 127): 64
0    |  MIDI Event: Chan 5 Note OFF: B3, Velocity (0 - 127): 64
0    |  MIDI Event: Chan 5 Note OFF: G3, Velocity (0 - 127): 64
1    |  MIDI Event: Chan 1 Control/Mode Change: Sound Controller 5 (default: Brightness) (0-127): 99
0    |  MIDI Event: Chan 1 Note ON: B3, Velocity (0 - 127): 52
0    |  MIDI Event: Chan 1 Note ON: D4, Velocity (0 - 127): 85
0    |  MIDI Event: Chan 1 Note ON: G4, Velocity (0 - 127): 94
0    |  MIDI Event: Chan 5 Control/Mode Change: Sound Controller 5 (default: Brightness) (0-127): 99
0    |  MIDI Event: Chan 5 Note ON: D3, Velocity (0 - 127): 82
0    |  MIDI Event: Chan 5 Note ON: G3, Velocity (0 - 127): 98
0    |  MIDI Event: Chan 5 Note ON: B3, Velocity (0 - 127): 85
0    |  MIDI Event: Chan 6 Note ON: A3, Velocity (0 - 127): 83
0    |  MIDI Event: Chan 6 Note ON: A4, Velocity (0 - 127): 83
0    |  MIDI Event: Chan 13 Control/Mode Change: Sound Controller 5 (default: Brightness) (0-127): 90
0    |  MIDI Event: Chan 13 Control/Mode Change: Expression Control (0-127): 62
10   |  MIDI Event: Chan 6 Control/Mode Change: Channel Pan (0-127): 94
5    |  MIDI Event: Chan 1 Control/Mode Change: Sound Controller 5 (default: Brightness) (0-127): 101
0    |  MIDI Event: Chan 5 Control/Mode Change: Sound Controller 5 (default: Brightness) (0-127): 101
0    |  MIDI Event: Chan 13 Control/Mode Change: Sound Controller 5 (default: Brightness) (0-127): 92
0    |  MIDI Event: Chan 13 Control/Mode Change: Expression Control (0-127): 64
14   |  MIDI Event: Chan 6 Note OFF: A4, Velocity (0 - 127): 64
0    |  MIDI Event: Chan 1 Note OFF: G4, Velocity (0 - 127): 64
0    |  MIDI Event: Chan 6 Note OFF: A3, Velocity (0 - 127): 64
0    |  MIDI Event: Chan 5 Note OFF: D3, Velocity (0 - 127): 64
0    |  MIDI Event: Chan 1 Note OFF: B3, Velocity (0 - 127): 64
0    |  MIDI Event: Chan 1 Note OFF: D4, Velocity (0 - 127): 64
0    |  MIDI Event: Chan 5 Note OFF: B3, Velocity (0 - 127): 64
0    |  MIDI Event: Chan 5 Note OFF: G3, Velocity (0 - 127): 64
1    |  MIDI Event: Chan 1 Control/Mode Change: Sound Controller 5 (default: Brightness) (0-127): 102
0    |  MIDI Event: Chan 1 Note ON: D4, Velocity (0 - 127): 78
0    |  MIDI Event: Chan 1 Note ON: G4, Velocity (0 - 127): 100
0    |  MIDI Event: Chan 1 Note ON: B4, Velocity (0 - 127): 46
0    |  MIDI Event: Chan 5 Control/Mode Change: Sound Controller 5 (default: Brightness) (0-127): 102
0    |  MIDI Event: Chan 5 Note ON: G2, Velocity (0 - 127): 109
0    |  MIDI Event: Chan 5 Note ON: D3, Velocity (0 - 127): 109
0    |  MIDI Event: Chan 6 Note ON: B3, Velocity (0 - 127): 98
0    |  MIDI Event: Chan 6 Note ON: B4, Velocity (0 - 127): 98
0    |  MIDI Event: Chan 13 Control/Mode Change: Sound Controller 5 (default: Brightness) (0-127): 95
0    |  MIDI Event: Chan 13 Control/Mode Change: Expression Control (0-127): 66
15   |  MIDI Event: Chan 1 Control/Mode Change: Sound Controller 5 (default: Brightness) (0-127): 104
0    |  MIDI Event: Chan 5 Control/Mode Change: Sound Controller 5 (default: Brightness) (0-127): 104
0    |  MIDI Event: Chan 13 Control/Mode Change: Sound Controller 5 (default: Brightness) (0-127): 98
0    |  MIDI Event: Chan 13 Control/Mode Change: Expression Control (0-127): 68
5    |  MIDI Event: Chan 6 Control/Mode Change: Channel Pan (0-127): 12
9    |  MIDI Event: Chan 6 Note OFF: B4, Velocity (0 - 127): 64
0    |  MIDI Event: Chan 6 Note OFF: B3, Velocity (0 - 127): 64
0    |  MIDI Event: Chan 5 Note OFF: G2, Velocity (0 - 127): 64
0    |  MIDI Event: Chan 1 Note OFF: D4, Velocity (0 - 127): 64
0    |  MIDI Event: Chan 1 Note OFF: G4, Velocity (0 - 127): 64
0    |  MIDI Event: Chan 1 Note OFF: B4, Velocity (0 - 127): 64
0    |  MIDI Event: Chan 5 Note OFF: D3, Velocity (0 - 127): 64
1    |  MIDI Event: Chan 1 Control/Mode Change: Sound Controller 5 (default: Brightness) (0-127): 105
0    |  MIDI Event: Chan 1 Note ON: B3, Velocity (0 - 127): 45
0    |  MIDI Event: Chan 1 Note ON: D4, Velocity (0 - 127): 73
0    |  MIDI Event: Chan 1 Note ON: G4, Velocity (0 - 127): 86
0    |  MIDI Event: Chan 5 Control/Mode Change: Sound Controller 5 (default: Brightness) (0-127): 105
0    |  MIDI Event: Chan 5 Note ON: G2, Velocity (0 - 127): 101
0    |  MIDI Event: Chan 5 Note ON: E3, Velocity (0 - 127): 116
0    |  MIDI Event: Chan 6 Note ON: A3, Velocity (0 - 127): 94
0    |  MIDI Event: Chan 6 Note ON: A4, Velocity (0 - 127): 94
0    |  MIDI Event: Chan 13 Control/Mode Change: Sound Controller 5 (default: Brightness) (0-127): 100
0    |  MIDI Event: Chan 13 Control/Mode Change: Expression Control (0-127): 71
15   |  MIDI Event: Chan 1 Control/Mode Change: Sound Controller 5 (default: Brightness) (0-127): 106
0    |  MIDI Event: Chan 5 Control/Mode Change: Sound Controller 5 (default: Brightness) (0-127): 106
0    |  MIDI Event: Chan 13 Control/Mode Change: Sound Controller 5 (default: Brightness) (0-127): 103
0    |  MIDI Event: Chan 13 Control/Mode Change: Expression Control (0-127): 73
9    |  MIDI Event: Chan 5 Control/Mode Change: Effects 1 (Default==Reverb) Depth (0-127): 30
0    |  MIDI Event: Chan 6 Control/Mode Change: Effects 1 (Default==Reverb) Depth (0-127): 60
5    |  MIDI Event: Chan 6 Note OFF: A4, Velocity (0 - 127): 64
0    |  MIDI Event: Chan 6 Note OFF: A3, Velocity (0 - 127): 64
0    |  MIDI Event: Chan 5 Note OFF: G2, Velocity (0 - 127): 64
0    |  MIDI Event: Chan 1 Note OFF: B3, Velocity (0 - 127): 64
0    |  MIDI Event: Chan 1 Note OFF: D4, Velocity (0 - 127): 64
0    |  MIDI Event: Chan 1 Note OFF: G4, Velocity (0 - 127): 64
0    |  MIDI Event: Chan 5 Note OFF: E3, Velocity (0 - 127): 64
1    |  MIDI Event: Chan 1 Control/Mode Change: Sound Controller 5 (default: Brightness) (0-127): 108
0    |  MIDI Event: Chan 1 Note ON: F#3, Velocity (0 - 127): 35
0    |  MIDI Event: Chan 1 Note ON: A3, Velocity (0 - 127): 85
0    |  MIDI Event: Chan 1 Note ON: D4, Velocity (0 - 127): 79
0    |  MIDI Event: Chan 5 Control/Mode Change: Sound Controller 5 (default: Brightness) (0-127): 108
0    |  MIDI Event: Chan 5 Note ON: A2, Velocity (0 - 127): 90
0    |  MIDI Event: Chan 5 Note ON: D3, Velocity (0 - 127): 105
0    |  MIDI Event: Chan 6 Control/Mode Change: Channel Pan (0-127): 64
0    |  MIDI Event: Chan 13 Control/Mode Change: Sound Controller 5 (default: Brightness) (0-127): 105
0    |  MIDI Event: Chan 13 Control/Mode Change: Expression Control (0-127): 75
15   |  MIDI Event: Chan 1 Control/Mode Change: Sound Controller 5 (default: Brightness) (0-127): 109
0    |  MIDI Event: Chan 5 Control/Mode Change: Sound Controller 5 (default: Brightness) (0-127): 109
0    |  MIDI Event: Chan 13 Control/Mode Change: Sound Controller 5 (default: Brightness) (0-127): 108
0    |  MIDI Event: Chan 13 Control/Mode Change: Expression Control (0-127): 77
15   |  MIDI Event: Chan 1 Control/Mode Change: Sound Controller 5 (default: Brightness) (0-127): 111
0    |  MIDI Event: Chan 5 Control/Mode Change: Sound Controller 5 (default: Brightness) (0-127): 111
0    |  MIDI Event: Chan 13 Control/Mode Change: Sound Controller 5 (default: Brightness) (0-127): 111
0    |  MIDI Event: Chan 13 Control/Mode Change: Expression Control (0-127): 80
15   |  MIDI Event: Chan 1 Control/Mode Change: Sound Controller 5 (default: Brightness) (0-127): 112
0    |  MIDI Event: Chan 5 Control/Mode Change: Sound Controller 5 (default: Brightness) (0-127): 112
0    |  MIDI Event: Chan 13 Control/Mode Change: Sound Controller 5 (default: Brightness) (0-127): 113
0    |  MIDI Event: Chan 13 Control/Mode Change: Expression Control (0-127): 82
14   |  MIDI Event: Chan 5 Note OFF: D3, Velocity (0 - 127): 64
0    |  MIDI Event: Chan 1 Note OFF: F#3, Velocity (0 - 127): 64
0    |  MIDI Event: Chan 1 Note OFF: A3, Velocity (0 - 127): 64
0    |  MIDI Event: Chan 1 Note OFF: D4, Velocity (0 - 127): 64
0    |  MIDI Event: Chan 5 Note OFF: A2, Velocity (0 - 127): 64
1    |  MIDI Event: Chan 1 Control/Mode Change: Sound Controller 5 (default: Brightness) (0-127): 114
0    |  MIDI Event: Chan 1 Note ON: A3, Velocity (0 - 127): 69
0    |  MIDI Event: Chan 1 Note ON: D4, Velocity (0 - 127): 98
0    |  MIDI Event: Chan 1 Note ON: F#4, Velocity (0 - 127): 74
0    |  MIDI Event: Chan 5 Control/Mode Change: Sound Controller 5 (default: Brightness) (0-127): 114
0    |  MIDI Event: Chan 5 Note ON: A2, Velocity (0 - 127): 100
0    |  MIDI Event: Chan 5 Note ON: D3, Velocity (0 - 127): 111
0    |  MIDI Event: Chan 5 Note ON: F#3, Velocity (0 - 127): 89
0    |  MIDI Event: Chan 13 Control/Mode Change: Sound Controller 5 (default: Brightness) (0-127): 116
0    |  MIDI Event: Chan 13 Control/Mode Change: Expression Control (0-127): 84
15   |  MIDI Event: Chan 1 Control/Mode Change: Sound Controller 5 (default: Brightness) (0-127): 115
0    |  MIDI Event: Chan 5 Control/Mode Change: Sound Controller 5 (default: Brightness) (0-127): 115
0    |  MIDI Event: Chan 13 Control/Mode Change: Sound Controller 5 (default: Brightness) (0-127): 119
0    |  MIDI Event: Chan 13 Control/Mode Change: Expression Control (0-127): 86
15   |  MIDI Event: Chan 1 Control/Mode Change: Sound Controller 5 (default: Brightness) (0-127): 116
0    |  MIDI Event: Chan 5 Control/Mode Change: Sound Controller 5 (default: Brightness) (0-127): 116
0    |  MIDI Event: Chan 13 Control/Mode Change: Sound Controller 5 (default: Brightness) (0-127): 121
0    |  MIDI Event: Chan 13 Control/Mode Change: Expression Control (0-127): 88
15   |  MIDI Event: Chan 1 Control/Mode Change: Sound Controller 5 (default: Brightness) (0-127): 118
0    |  MIDI Event: Chan 5 Control/Mode Change: Sound Controller 5 (default: Brightness) (0-127): 118
0    |  MIDI Event: Chan 13 Control/Mode Change: Sound Controller 5 (default: Brightness) (0-127): 124
0    |  MIDI Event: Chan 13 Control/Mode Change: Expression Control (0-127): 91
15   |  MIDI Event: Chan 1 Control/Mode Change: Sound Controller 5 (default: Brightness) (0-127): 119
0    |  MIDI Event: Chan 5 Control/Mode Change: Sound Controller 5 (default: Brightness) (0-127): 119
0    |  MIDI Event: Chan 13 Control/Mode Change: Sound Controller 5 (default: Brightness) (0-127): 127
0    |  MIDI Event: Chan 13 Control/Mode Change: Expression Control (0-127): 93
15   |  MIDI Event: Chan 1 Control/Mode Change: Sound Controller 5 (default: Brightness) (0-127): 121
0    |  MIDI Event: Chan 5 Control/Mode Change: Sound Controller 5 (default: Brightness) (0-127): 121
0    |  MIDI Event: Chan 13 Control/Mode Change: Expression Control (0-127): 95
14   |  MIDI Event: Chan 5 Note OFF: F#3, Velocity (0 - 127): 64
0    |  MIDI Event: Chan 5 Note OFF: A2, Velocity (0 - 127): 64
0    |  MIDI Event: Chan 1 Note OFF: A3, Velocity (0 - 127): 64
0    |  MIDI Event: Chan 1 Note OFF: D4, Velocity (0 - 127): 64
0    |  MIDI Event: Chan 1 Note OFF: F#4, Velocity (0 - 127): 64
0    |  MIDI Event: Chan 5 Note OFF: D3, Velocity (0 - 127): 64
1    |  MIDI Event: Chan 1 Control/Mode Change: Sound Controller 5 (default: Brightness) (0-127): 122
0    |  MIDI Event: Chan 1 Note ON: F#3, Velocity (0 - 127): 44
0    |  MIDI Event: Chan 1 Note ON: A3, Velocity (0 - 127): 78
0    |  MIDI Event: Chan 1 Note ON: D4, Velocity (0 - 127): 58
0    |  MIDI Event: Chan 5 Control/Mode Change: Sound Controller 5 (default: Brightness) (0-127): 122
0    |  MIDI Event: Chan 5 Note ON: A2, Velocity (0 - 127): 85
0    |  MIDI Event: Chan 5 Note ON: D3, Velocity (0 - 127): 105
0    |  MIDI Event: Chan 5 Note ON: F#3, Velocity (0 - 127): 81
0    |  MIDI Event: Chan 13 Control/Mode Change: Expression Control (0-127): 97
15   |  MIDI Event: Chan 1 Control/Mode Change: Sound Controller 5 (default: Brightness) (0-127): 124
0    |  MIDI Event: Chan 5 Control/Mode Change: Sound Controller 5 (default: Brightness) (0-127): 124
0    |  MIDI Event: Chan 13 Control/Mode Change: Expression Control (0-127): 100
14   |  MIDI Event: Chan 5 Note OFF: F#3, Velocity (0 - 127): 64
0    |  MIDI Event: Chan 5 Note OFF: A2, Velocity (0 - 127): 64
0    |  MIDI Event: Chan 1 Note OFF: F#3, Velocity (0 - 127): 64
0    |  MIDI Event: Chan 1 Note OFF: A3, Velocity (0 - 127): 64
0    |  MIDI Event: Chan 1 Note OFF: D4, Velocity (0 - 127): 64
0    |  MIDI Event: Chan 5 Note OFF: D3, Velocity (0 - 127): 64
1    |  MIDI Event: Chan 1 Control/Mode Change: Sound Controller 5 (default: Brightness) (0-127): 125
0    |  MIDI Event: Chan 1 Note ON: A3, Velocity (0 - 127): 57
0    |  MIDI Event: Chan 1 Note ON: D4, Velocity (0 - 127): 91
0    |  MIDI Event: Chan 1 Note ON: F#4, Velocity (0 - 127): 77
0    |  MIDI Event: Chan 5 Control/Mode Change: Sound Controller 5 (default: Brightness) (0-127): 125
0    |  MIDI Event: Chan 5 Note ON: D3, Velocity (0 - 127): 109
0    |  MIDI Event: Chan 5 Note ON: F#3, Velocity (0 - 127): 89
0    |  MIDI Event: Chan 5 Note ON: A3, Velocity (0 - 127): 109
0    |  MIDI Event: Chan 13 Control/Mode Change: Expression Control (0-127): 102
15   |  MIDI Event: Chan 1 Control/Mode Change: Sound Controller 5 (default: Brightness) (0-127): 127
0    |  MIDI Event: Chan 5 Control/Mode Change: Sound Controller 5 (default: Brightness) (0-127): 127
0    |  MIDI Event: Chan 13 Control/Mode Change: Expression Control (0-127): 104
14   |  MIDI Event: Chan 5 Note OFF: A3, Velocity (0 - 127): 64
0    |  MIDI Event: Chan 5 Note OFF: D3, Velocity (0 - 127): 64
0    |  MIDI Event: Chan 1 Note OFF: A3, Velocity (0 - 127): 64
0    |  MIDI Event: Chan 1 Note OFF: D4, Velocity (0 - 127): 64
0    |  MIDI Event: Chan 1 Note OFF: F#4, Velocity (0 - 127): 64
0    |  MIDI Event: Chan 5 Note OFF: F#3, Velocity (0 - 127): 64
1    |  MIDI Event: Chan 1 Note ON: F#3, Velocity (0 - 127): 35
0    |  MIDI Event: Chan 1 Note ON: A3, Velocity (0 - 127): 79
0    |  MIDI Event: Chan 1 Note ON: D4, Velocity (0 - 127): 56
0    |  MIDI Event: Chan 5 Note ON: D3, Velocity (0 - 127): 111
0    |  MIDI Event: Chan 5 Note ON: F#3, Velocity (0 - 127): 100
0    |  MIDI Event: Chan 5 Note ON: A3, Velocity (0 - 127): 100
0    |  MIDI Event: Chan 13 Control/Mode Change: Expression Control (0-127): 106
15   |  MIDI Event: Chan 13 Control/Mode Change: Expression Control (0-127): 109
14   |  MIDI Event: Chan 5 Note OFF: A3, Velocity (0 - 127): 64
0    |  MIDI Event: Chan 5 Note OFF: D3, Velocity (0 - 127): 64
0    |  MIDI Event: Chan 1 Note OFF: F#3, Velocity (0 - 127): 64
0    |  MIDI Event: Chan 1 Note OFF: A3, Velocity (0 - 127): 64
0    |  MIDI Event: Chan 1 Note OFF: D4, Velocity (0 - 127): 64
0    |  MIDI Event: Chan 5 Note OFF: F#3, Velocity (0 - 127): 64
1    |  MIDI Event: Chan 11 Note ON: C5, Velocity (0 - 127): 120
0    |  MIDI Event: Chan 13 Control/Mode Change: Expression Control (0-127): 111
15   |  MIDI Event: Chan 13 Control/Mode Change: Expression Control (0-127): 113
15   |  MIDI Event: Chan 13 Control/Mode Change: Expression Control (0-127): 115
15   |  MIDI Event: Chan 13 Control/Mode Change: Expression Control (0-127): 118
15   |  MIDI Event: Chan 13 Control/Mode Change: Expression Control (0-127): 120
15   |  MIDI Event: Chan 13 Control/Mode Change: Expression Control (0-127): 122
15   |  MIDI Event: Chan 13 Control/Mode Change: Expression Control (0-127): 124
15   |  MIDI Event: Chan 13 Control/Mode Change: Expression Control (0-127): 127
14   |  MIDI Event: Chan 11 Note OFF: C5, Velocity (0 - 127): 64
0    |  MIDI Event: Chan 13 Note OFF: C4, Velocity (0 - 127): 64
61   |  MIDI Event: Chan 6 Note ON: D4, Velocity (0 - 127): 103
0    |  MIDI Event: Chan 6 Note ON: D5, Velocity (0 - 127): 105
0    |  MIDI Event: Chan 7 Note ON: D4, Velocity (0 - 127): 120
0    |  MIDI Event: Chan 7 Note ON: D5, Velocity (0 - 127): 120
0    |  MIDI Event: Chan 10 Note ON: B1, Velocity (0 - 127): 111
0    |  MIDI Event: Chan 10 Note ON: D#2, Velocity (0 - 127): 111
50   |  MIDI Event: Chan 7 Note OFF: D5, Velocity (0 - 127): 64
0    |  MIDI Event: Chan 6 Note OFF: D5, Velocity (0 - 127): 64
7    |  MIDI Event: Chan 6 Note OFF: D4, Velocity (0 - 127): 64
0    |  MIDI Event: Chan 7 Note OFF: D4, Velocity (0 - 127): 64
3    |  MIDI Event: Chan 1 Note ON: B3, Velocity (0 - 127): 58
0    |  MIDI Event: Chan 1 Note ON: D4, Velocity (0 - 127): 91
0    |  MIDI Event: Chan 5 Note ON: B2, Velocity (0 - 127): 85
0    |  MIDI Event: Chan 5 Note ON: F#3, Velocity (0 - 127): 120
0    |  MIDI Event: Chan 5 Control/Mode Change: Effects 1 (Default==Reverb) Depth (0-127): 127
0    |  MIDI Event: Chan 6 Note ON: B3, Velocity (0 - 127): 120
0    |  MIDI Event: Chan 6 Note ON: B4, Velocity (0 - 127): 120
0    |  MIDI Event: Chan 6 Control/Mode Change: Effects 1 (Default==Reverb) Depth (0-127): 127
0    |  MIDI Event: Chan 6 Control/Mode Change: Channel Pan (0-127): 115
0    |  MIDI Event: Chan 7 Note ON: B4, Velocity (0 - 127): 120
0    |  MIDI Event: Chan 10 Note ON: B1, Velocity (0 - 127): 98
0    |  MIDI Event: Chan 10 Note ON: E2, Velocity (0 - 127): 109
15   |  MIDI Event: Chan 1 Control/Mode Change: Sound Controller 5 (default: Brightness) (0-127): 27
0    |  MIDI Event: Chan 5 Control/Mode Change: Sound Controller 5 (default: Brightness) (0-127): 27
14   |  MIDI Event: Chan 10 Note OFF: E2, Velocity (0 - 127): 64
0    |  MIDI Event: Chan 10 Note OFF: B1, Velocity (0 - 127): 64
11   |  MIDI Event: Chan 6 Control/Mode Change: Channel Pan (0-127): 34
19   |  MIDI Event: Chan 1 Note OFF: D4, Velocity (0 - 127): 64
0    |  MIDI Event: Chan 6 Note OFF: B4, Velocity (0 - 127): 64
0    |  MIDI Event: Chan 5 Note OFF: B2, Velocity (0 - 127): 64
0    |  MIDI Event: Chan 5 Note OFF: F#3, Velocity (0 - 127): 64
0    |  MIDI Event: Chan 1 Note OFF: B3, Velocity (0 - 127): 64
0    |  MIDI Event: Chan 7 Note OFF: B4, Velocity (0 - 127): 64
0    |  MIDI Event: Chan 6 Note OFF: B3, Velocity (0 - 127): 64
1    |  MIDI Event: Chan 1 Note ON: B3, Velocity (0 - 127): 79
0    |  MIDI Event: Chan 1 Note ON: D4, Velocity (0 - 127): 95
0    |  MIDI Event: Chan 1 Note ON: F#4, Velocity (0 - 127): 74
0    |  MIDI Event: Chan 5 Note ON: D3, Velocity (0 - 127): 92
0    |  MIDI Event: Chan 5 Note ON: F#3, Velocity (0 - 127): 87
0    |  MIDI Event: Chan 5 Note ON: D4, Velocity (0 - 127): 95
20   |  MIDI Event: Chan 6 Control/Mode Change: Channel Pan (0-127): 94
37   |  MIDI Event: Chan 1 Control/Mode Change: Sound Controller 5 (default: Brightness) (0-127): 28
0    |  MIDI Event: Chan 5 Control/Mode Change: Sound Controller 5 (default: Brightness) (0-127): 28
3    |  MIDI Event: Chan 6 Note ON: B3, Velocity (0 - 127): 120
0    |  MIDI Event: Chan 6 Note ON: B4, Velocity (0 - 127): 120
0    |  MIDI Event: Chan 6 Control/Mode Change: Channel Pan (0-127): 12
0    |  MIDI Event: Chan 7 Note ON: B4, Velocity (0 - 127): 120
0    |  MIDI Event: Chan 10 Note ON: B1, Velocity (0 - 127): 94
0    |  MIDI Event: Chan 10 Note ON: E2, Velocity (0 - 127): 107
29   |  MIDI Event: Chan 10 Note OFF: E2, Velocity (0 - 127): 64
0    |  MIDI Event: Chan 10 Note OFF: B1, Velocity (0 - 127): 64
0    |  MIDI Event: Chan 5 Note OFF: F#3, Velocity (0 - 127): 64
0    |  MIDI Event: Chan 1 Note OFF: D4, Velocity (0 - 127): 64
0    |  MIDI Event: Chan 1 Note OFF: B3, Velocity (0 - 127): 64
0    |  MIDI Event: Chan 5 Note OFF: D4, Velocity (0 - 127): 64
0    |  MIDI Event: Chan 5 Note OFF: D3, Velocity (0 - 127): 64
0    |  MIDI Event: Chan 1 Note OFF: F#4, Velocity (0 - 127): 64
1    |  MIDI Event: Chan 1 Note ON: B3, Velocity (0 - 127): 71
0    |  MIDI Event: Chan 1 Note ON: D4, Velocity (0 - 127): 91
0    |  MIDI Event: Chan 1 Note ON: F#4, Velocity (0 - 127): 60
0    |  MIDI Event: Chan 5 Note ON: F#3, Velocity (0 - 127): 109
0    |  MIDI Event: Chan 5 Note ON: B3, Velocity (0 - 127): 95
10   |  MIDI Event: Chan 6 Control/Mode Change: Channel Pan (0-127): 115
8    |  MIDI Event: Chan 1 Control/Mode Change: Sound Controller 5 (default: Brightness) (0-127): 29
0    |  MIDI Event: Chan 5 Control/Mode Change: Sound Controller 5 (default: Brightness) (0-127): 29
11   |  MIDI Event: Chan 5 Note OFF: B3, Velocity (0 - 127): 64
0    |  MIDI Event: Chan 7 Note OFF: B4, Velocity (0 - 127): 64
0    |  MIDI Event: Chan 6 Note OFF: B4, Velocity (0 - 127): 64
0    |  MIDI Event: Chan 10 Note OFF: B1, Velocity (0 - 127): 64
0    |  MIDI Event: Chan 6 Note OFF: B3, Velocity (0 - 127): 64
0    |  MIDI Event: Chan 10 Note OFF: D#2, Velocity (0 - 127): 64
0    |  MIDI Event: Chan 1 Note OFF: F#4, Velocity (0 - 127): 64
0    |  MIDI Event: Chan 1 Note OFF: D4, Velocity (0 - 127): 64
0    |  MIDI Event: Chan 1 Note OFF: B3, Velocity (0 - 127): 64
0    |  MIDI Event: Chan 5 Note OFF: F#3, Velocity (0 - 127): 64
1    |  MIDI Event: Chan 1 Note ON: D4, Velocity (0 - 127): 80
0    |  MIDI Event: Chan 1 Note ON: F#4, Velocity (0 - 127): 62
0    |  MIDI Event: Chan 1 Note ON: B4, Velocity (0 - 127): 91
0    |  MIDI Event: Chan 5 Note ON: D3, Velocity (0 - 127): 103
0    |  MIDI Event: Chan 5 Note ON: F#3, Velocity (0 - 127): 115
20   |  MIDI Event: Chan 6 Control/Mode Change: Channel Pan (0-127): 34
9    |  MIDI Event: Chan 5 Note OFF: F#3, Velocity (0 - 127): 64
0    |  MIDI Event: Chan 1 Note OFF: B4, Velocity (0 - 127): 64
0    |  MIDI Event: Chan 1 Note OFF: D4, Velocity (0 - 127): 64
0    |  MIDI Event: Chan 1 Note OFF: F#4, Velocity (0 - 127): 64
0    |  MIDI Event: Chan 5 Note OFF: D3, Velocity (0 - 127): 64
1    |  MIDI Event: Chan 1 Note ON: B3, Velocity (0 - 127): 51
0    |  MIDI Event: Chan 1 Note ON: D4, Velocity (0 - 127): 85
0    |  MIDI Event: Chan 1 Note ON: F#4, Velocity (0 - 127): 59
0    |  MIDI Event: Chan 5 Note ON: B2, Velocity (0 - 127): 92
0    |  MIDI Event: Chan 5 Note ON: E3, Velocity (0 - 127): 98
0    |  MIDI Event: Chan 6 Note ON: A3, Velocity (0 - 127): 98
0    |  MIDI Event: Chan 6 Note ON: A4, Velocity (0 - 127): 98
0    |  MIDI Event: Chan 7 Note ON: A4, Velocity (0 - 127): 120
9    |  MIDI Event: Chan 1 Control/Mode Change: Sound Controller 5 (default: Brightness) (0-127): 30
0    |  MIDI Event: Chan 5 Control/Mode Change: Sound Controller 5 (default: Brightness) (0-127): 30
20   |  MIDI Event: Chan 7 Note OFF: A4, Velocity (0 - 127): 64
0    |  MIDI Event: Chan 1 Note OFF: B3, Velocity (0 - 127): 64
0    |  MIDI Event: Chan 5 Note OFF: E3, Velocity (0 - 127): 64
0    |  MIDI Event: Chan 1 Note OFF: D4, Velocity (0 - 127): 64
0    |  MIDI Event: Chan 1 Note OFF: F#4, Velocity (0 - 127): 64
0    |  MIDI Event: Chan 5 Note OFF: B2, Velocity (0 - 127): 64
0    |  MIDI Event: Chan 6 Note OFF: A3, Velocity (0 - 127): 64
0    |  MIDI Event: Chan 6 Note OFF: A4, Velocity (0 - 127): 64
1    |  MIDI Event: Chan 1 Note ON: G3, Velocity (0 - 127): 74
0    |  MIDI Event: Chan 1 Note ON: B3, Velocity (0 - 127): 94
0    |  MIDI Event: Chan 1 Note ON: D4, Velocity (0 - 127): 91
0    |  MIDI Event: Chan 5 Note ON: G2, Velocity (0 - 127): 98
0    |  MIDI Event: Chan 5 Note ON: D3, Velocity (0 - 127): 116
0    |  MIDI Event: Chan 6 Note ON: B3, Velocity (0 - 127): 98
0    |  MIDI Event: Chan 6 Note ON: B4, Velocity (0 - 127): 98
0    |  MIDI Event: Chan 6 Control/Mode Change: Channel Pan (0-127): 94
0    |  MIDI Event: Chan 7 Note ON: B4, Velocity (0 - 127): 120
0    |  MIDI Event: Chan 10 Note ON: B1, Velocity (0 - 127): 97
0    |  MIDI Event: Chan 10 Note ON: E2, Velocity (0 - 127): 105
29   |  MIDI Event: Chan 10 Note OFF: E2, Velocity (0 - 127): 64
0    |  MIDI Event: Chan 10 Note OFF: B1, Velocity (0 - 127): 64
0    |  MIDI Event: Chan 6 Note OFF: B4, Velocity (0 - 127): 64
0    |  MIDI Event: Chan 7 Note OFF: B4, Velocity (0 - 127): 64
0    |  MIDI Event: Chan 6 Note OFF: B3, Velocity (0 - 127): 64
1    |  MIDI Event: Chan 1 Control/Mode Change: Sound Controller 5 (default: Brightness) (0-127): 31
0    |  MIDI Event: Chan 5 Control/Mode Change: Sound Controller 5 (default: Brightness) (0-127): 31
0    |  MIDI Event: Chan 6 Note ON: D4, Velocity (0 - 127): 54
0    |  MIDI Event: Chan 6 Note ON: D5, Velocity (0 - 127): 54
0    |  MIDI Event: Chan 7 Note ON: D5, Velocity (0 - 127): 120
10   |  MIDI Event: Chan 6 Control/Mode Change: Channel Pan (0-127): 12
19   |  MIDI Event: Chan 7 Note OFF: D5, Velocity (0 - 127): 64
0    |  MIDI Event: Chan 1 Note OFF: D4, Velocity (0 - 127): 64
0    |  MIDI Event: Chan 1 Note OFF: B3, Velocity (0 - 127): 64
0    |  MIDI Event: Chan 5 Note OFF: D3, Velocity (0 - 127): 64
0    |  MIDI Event: Chan 5 Note OFF: G2, Velocity (0 - 127): 64
0    |  MIDI Event: Chan 1 Note OFF: G3, Velocity (0 - 127): 64
0    |  MIDI Event: Chan 6 Note OFF: D4, Velocity (0 - 127): 64
0    |  MIDI Event: Chan 6 Note OFF: D5, Velocity (0 - 127): 64
1    |  MIDI Event: Chan 1 Note ON: B3, Velocity (0 - 127): 70
0    |  MIDI Event: Chan 1 Note ON: D4, Velocity (0 - 127): 94
0    |  MIDI Event: Chan 1 Note ON: G4, Velocity (0 - 127): 101
0    |  MIDI Event: Chan 5 Note ON: D3, Velocity (0 - 127): 79
0    |  MIDI Event: Chan 5 Note ON: G3, Velocity (0 - 127): 111
0    |  MIDI Event: Chan 5 Note ON: B3, Velocity (0 - 127): 100
0    |  MIDI Event: Chan 6 Note ON: B3, Velocity (0 - 127): 116
0    |  MIDI Event: Chan 6 Note ON: B4, Velocity (0 - 127): 116
0    |  MIDI Event: Chan 7 Note ON: B4, Velocity (0 - 127): 120
20   |  MIDI Event: Chan 6 Control/Mode Change: Channel Pan (0-127): 115
1    |  MIDI Event: Chan 1 Control/Mode Change: Sound Controller 5 (default: Brightness) (0-127): 32
0    |  MIDI Event: Chan 5 Control/Mode Change: Sound Controller 5 (default: Brightness) (0-127): 32
38   |  MIDI Event: Chan 7 Note OFF: B4, Velocity (0 - 127): 64
0    |  MIDI Event: Chan 6 Note OFF: B4, Velocity (0 - 127): 64
0    |  MIDI Event: Chan 6 Note OFF: B3, Velocity (0 - 127): 64
1    |  MIDI Event: Chan 6 Control/Mode Change: Channel Pan (0-127): 34
0    |  MIDI Event: Chan 10 Note ON: B1, Velocity (0 - 127): 97
0    |  MIDI Event: Chan 10 Note ON: E2, Velocity (0 - 127): 111
12   |  MIDI Event: Chan 1 Control/Mode Change: Sound Controller 5 (default: Brightness) (0-127): 33
0    |  MIDI Event: Chan 5 Control/Mode Change: Sound Controller 5 (default: Brightness) (0-127): 33
17   |  MIDI Event: Chan 10 Note OFF: E2, Velocity (0 - 127): 64
0    |  MIDI Event: Chan 5 Note OFF: D3, Velocity (0 - 127): 64
0    |  MIDI Event: Chan 5 Note OFF: B3, Velocity (0 - 127): 64
0    |  MIDI Event: Chan 1 Note OFF: D4, Velocity (0 - 127): 64
0    |  MIDI Event: Chan 1 Note OFF: G4, Velocity (0 - 127): 64
0    |  MIDI Event: Chan 1 Note OFF: B3, Velocity (0 - 127): 64
0    |  MIDI Event: Chan 5 Note OFF: G3, Velocity (0 - 127): 64
0    |  MIDI Event: Chan 10 Note OFF: B1, Velocity (0 - 127): 64
1    |  MIDI Event: Chan 1 Note ON: B3, Velocity (0 - 127): 52
0    |  MIDI Event: Chan 1 Note ON: D4, Velocity (0 - 127): 85
0    |  MIDI Event: Chan 1 Note ON: G4, Velocity (0 - 127): 94
0    |  MIDI Event: Chan 5 Note ON: D3, Velocity (0 - 127): 82
0    |  MIDI Event: Chan 5 Note ON: G3, Velocity (0 - 127): 98
0    |  MIDI Event: Chan 5 Note ON: B3, Velocity (0 - 127): 85
0    |  MIDI Event: Chan 6 Note ON: A3, Velocity (0 - 127): 83
0    |  MIDI Event: Chan 6 Note ON: A4, Velocity (0 - 127): 83
0    |  MIDI Event: Chan 7 Note ON: A4, Velocity (0 - 127): 120
10   |  MIDI Event: Chan 6 Control/Mode Change: Channel Pan (0-127): 94
19   |  MIDI Event: Chan 7 Note OFF: A4, Velocity (0 - 127): 64
0    |  MIDI Event: Chan 5 Note OFF: D3, Velocity (0 - 127): 64
0    |  MIDI Event: Chan 1 Note OFF: B3, Velocity (0 - 127): 64
0    |  MIDI Event: Chan 5 Note OFF: G3, Velocity (0 - 127): 64
0    |  MIDI Event: Chan 1 Note OFF: D4, Velocity (0 - 127): 64
0    |  MIDI Event: Chan 1 Note OFF: G4, Velocity (0 - 127): 64
0    |  MIDI Event: Chan 6 Note OFF: A3, Velocity (0 - 127): 64
0    |  MIDI Event: Chan 5 Note OFF: B3, Velocity (0 - 127): 64
0    |  MIDI Event: Chan 6 Note OFF: A4, Velocity (0 - 127): 64
1    |  MIDI Event: Chan 1 Note ON: D4, Velocity (0 - 127): 78
0    |  MIDI Event: Chan 1 Note ON: G4, Velocity (0 - 127): 100
0    |  MIDI Event: Chan 1 Note ON: B4, Velocity (0 - 127): 46
0    |  MIDI Event: Chan 5 Note ON: G2, Velocity (0 - 127): 109
0    |  MIDI Event: Chan 5 Note ON: D3, Velocity (0 - 127): 109
0    |  MIDI Event: Chan 6 Note ON: B3, Velocity (0 - 127): 98
0    |  MIDI Event: Chan 6 Note ON: B4, Velocity (0 - 127): 98
0    |  MIDI Event: Chan 7 Note ON: B4, Velocity (0 - 127): 120
3    |  MIDI Event: Chan 1 Control/Mode Change: Sound Controller 5 (default: Brightness) (0-127): 34
0    |  MIDI Event: Chan 5 Control/Mode Change: Sound Controller 5 (default: Brightness) (0-127): 34
17   |  MIDI Event: Chan 6 Control/Mode Change: Channel Pan (0-127): 12
9    |  MIDI Event: Chan 7 Note OFF: B4, Velocity (0 - 127): 64
0    |  MIDI Event: Chan 1 Note OFF: D4, Velocity (0 - 127): 64
0    |  MIDI Event: Chan 5 Note OFF: D3, Velocity (0 - 127): 64
0    |  MIDI Event: Chan 1 Note OFF: G4, Velocity (0 - 127): 64
0    |  MIDI Event: Chan 1 Note OFF: B4, Velocity (0 - 127): 64
0    |  MIDI Event: Chan 5 Note OFF: G2, Velocity (0 - 127): 64
0    |  MIDI Event: Chan 6 Note OFF: B3, Velocity (0 - 127): 64
0    |  MIDI Event: Chan 6 Note OFF: B4, Velocity (0 - 127): 64
1    |  MIDI Event: Chan 1 Note ON: B3, Velocity (0 - 127): 45
0    |  MIDI Event: Chan 1 Note ON: D4, Velocity (0 - 127): 73
0    |  MIDI Event: Chan 1 Note ON: G4, Velocity (0 - 127): 86
0    |  MIDI Event: Chan 5 Note ON: G2, Velocity (0 - 127): 101
0    |  MIDI Event: Chan 5 Note ON: E3, Velocity (0 - 127): 116
0    |  MIDI Event: Chan 6 Note ON: A3, Velocity (0 - 127): 94
0    |  MIDI Event: Chan 6 Note ON: A4, Velocity (0 - 127): 94
0    |  MIDI Event: Chan 7 Note ON: A4, Velocity (0 - 127): 120
24   |  MIDI Event: Chan 1 Control/Mode Change: Sound Controller 5 (default: Brightness) (0-127): 35
0    |  MIDI Event: Chan 5 Control/Mode Change: Sound Controller 5 (default: Brightness) (0-127): 35
5    |  MIDI Event: Chan 7 Note OFF: A4, Velocity (0 - 127): 64
0    |  MIDI Event: Chan 1 Note OFF: B3, Velocity (0 - 127): 64
0    |  MIDI Event: Chan 5 Note OFF: E3, Velocity (0 - 127): 64
0    |  MIDI Event: Chan 1 Note OFF: D4, Velocity (0 - 127): 64
0    |  MIDI Event: Chan 1 Note OFF: G4, Velocity (0 - 127): 64
0    |  MIDI Event: Chan 5 Note OFF: G2, Velocity (0 - 127): 64
0    |  MIDI Event: Chan 6 Note OFF: A3, Velocity (0 - 127): 64
0    |  MIDI Event: Chan 6 Note OFF: A4, Velocity (0 - 127): 64
1    |  MIDI Event: Chan 1 Note ON: F#3, Velocity (0 - 127): 35
0    |  MIDI Event: Chan 1 Note ON: A3, Velocity (0 - 127): 85
0    |  MIDI Event: Chan 1 Note ON: D4, Velocity (0 - 127): 79
0    |  MIDI Event: Chan 5 Note ON: A2, Velocity (0 - 127): 90
0    |  MIDI Event: Chan 5 Note ON: D3, Velocity (0 - 127): 105
0    |  MIDI Event: Chan 6 Note ON: D4, Velocity (0 - 127): 120
0    |  MIDI Event: Chan 6 Note ON: D5, Velocity (0 - 127): 120
0    |  MIDI Event: Chan 6 Control/Mode Change: Channel Pan (0-127): 115
0    |  MIDI Event: Chan 7 Note ON: D5, Velocity (0 - 127): 120
0    |  MIDI Event: Chan 10 Note ON: B1, Velocity (0 - 127): 98
0    |  MIDI Event: Chan 10 Note ON: E2, Velocity (0 - 127): 111
29   |  MIDI Event: Chan 10 Note OFF: E2, Velocity (0 - 127): 64
0    |  MIDI Event: Chan 10 Note OFF: B1, Velocity (0 - 127): 64
11   |  MIDI Event: Chan 6 Control/Mode Change: Channel Pan (0-127): 34
5    |  MIDI Event: Chan 1 Control/Mode Change: Sound Controller 5 (default: Brightness) (0-127): 36
0    |  MIDI Event: Chan 5 Control/Mode Change: Sound Controller 5 (default: Brightness) (0-127): 36
14   |  MIDI Event: Chan 5 Note OFF: A2, Velocity (0 - 127): 64
0    |  MIDI Event: Chan 1 Note OFF: F#3, Velocity (0 - 127): 64
0    |  MIDI Event: Chan 5 Note OFF: D3, Velocity (0 - 127): 64
0    |  MIDI Event: Chan 1 Note OFF: A3, Velocity (0 - 127): 64
0    |  MIDI Event: Chan 7 Note OFF: D5, Velocity (0 - 127): 64
0    |  MIDI Event: Chan 6 Note OFF: D5, Velocity (0 - 127): 64
0    |  MIDI Event: Chan 6 Note OFF: D4, Velocity (0 - 127): 64
0    |  MIDI Event: Chan 1 Note OFF: D4, Velocity (0 - 127): 64
1    |  MIDI Event: Chan 1 Note ON: A3, Velocity (0 - 127): 69
0    |  MIDI Event: Chan 1 Note ON: D4, Velocity (0 - 127): 98
0    |  MIDI Event: Chan 1 Note ON: F#4, Velocity (0 - 127): 74
0    |  MIDI Event: Chan 5 Note ON: A2, Velocity (0 - 127): 100
0    |  MIDI Event: Chan 5 Note ON: D3, Velocity (0 - 127): 111
0    |  MIDI Event: Chan 5 Note ON: F#3, Velocity (0 - 127): 89
20   |  MIDI Event: Chan 6 Control/Mode Change: Channel Pan (0-127): 94
16   |  MIDI Event: Chan 1 Control/Mode Change: Sound Controller 5 (default: Brightness) (0-127): 37
0    |  MIDI Event: Chan 5 Control/Mode Change: Sound Controller 5 (default: Brightness) (0-127): 37
24   |  MIDI Event: Chan 6 Note ON: D4, Velocity (0 - 127): 120
0    |  MIDI Event: Chan 6 Note ON: D5, Velocity (0 - 127): 120
0    |  MIDI Event: Chan 6 Control/Mode Change: Channel Pan (0-127): 12
0    |  MIDI Event: Chan 7 Note ON: D5, Velocity (0 - 127): 120
0    |  MIDI Event: Chan 10 Note ON: B1, Velocity (0 - 127): 101
0    |  MIDI Event: Chan 10 Note ON: E2, Velocity (0 - 127): 105
27   |  MIDI Event: Chan 1 Control/Mode Change: Sound Controller 5 (default: Brightness) (0-127): 38
0    |  MIDI Event: Chan 5 Control/Mode Change: Sound Controller 5 (default: Brightness) (0-127): 38
2    |  MIDI Event: Chan 10 Note OFF: E2, Velocity (0 - 127): 64
0    |  MIDI Event: Chan 5 Note OFF: A2, Velocity (0 - 127): 64
0    |  MIDI Event: Chan 1 Note OFF: F#4, Velocity (0 - 127): 64
0    |  MIDI Event: Chan 10 Note OFF: B1, Velocity (0 - 127): 64
0    |  MIDI Event: Chan 1 Note OFF: A3, Velocity (0 - 127): 64
0    |  MIDI Event: Chan 5 Note OFF: F#3, Velocity (0 - 127): 64
0    |  MIDI Event: Chan 1 Note OFF: D4, Velocity (0 - 127): 64
0    |  MIDI Event: Chan 5 Note OFF: D3, Velocity (0 - 127): 64
1    |  MIDI Event: Chan 1 Note ON: F#3, Velocity (0 - 127): 44
0    |  MIDI Event: Chan 1 Note ON: A3, Velocity (0 - 127): 78
0    |  MIDI Event: Chan 1 Note ON: D4, Velocity (0 - 127): 58
0    |  MIDI Event: Chan 5 Note ON: A2, Velocity (0 - 127): 85
0    |  MIDI Event: Chan 5 Note ON: D3, Velocity (0 - 127): 105
0    |  MIDI Event: Chan 5 Note ON: F#3, Velocity (0 - 127): 81
10   |  MIDI Event: Chan 6 Control/Mode Change: Channel Pan (0-127): 115
19   |  MIDI Event: Chan 5 Note OFF: F#3, Velocity (0 - 127): 64
0    |  MIDI Event: Chan 1 Note OFF: F#3, Velocity (0 - 127): 64
0    |  MIDI Event: Chan 6 Note OFF: D4, Velocity (0 - 127): 64
0    |  MIDI Event: Chan 1 Note OFF: A3, Velocity (0 - 127): 64
0    |  MIDI Event: Chan 6 Note OFF: D5, Velocity (0 - 127): 64
0    |  MIDI Event: Chan 7 Note OFF: D5, Velocity (0 - 127): 64
0    |  MIDI Event: Chan 5 Note OFF: A2, Velocity (0 - 127): 64
0    |  MIDI Event: Chan 1 Note OFF: D4, Velocity (0 - 127): 64
0    |  MIDI Event: Chan 5 Note OFF: D3, Velocity (0 - 127): 64
1    |  MIDI Event: Chan 1 Note ON: A3, Velocity (0 - 127): 57
0    |  MIDI Event: Chan 1 Note ON: D4, Velocity (0 - 127): 91
0    |  MIDI Event: Chan 1 Note ON: F#4, Velocity (0 - 127): 77
0    |  MIDI Event: Chan 5 Note ON: D3, Velocity (0 - 127): 109
0    |  MIDI Event: Chan 5 Note ON: F#3, Velocity (0 - 127): 89
0    |  MIDI Event: Chan 5 Note ON: A3, Velocity (0 - 127): 109
18   |  MIDI Event: Chan 1 Control/Mode Change: Sound Controller 5 (default: Brightness) (0-127): 39
0    |  MIDI Event: Chan 5 Control/Mode Change: Sound Controller 5 (default: Brightness) (0-127): 39
2    |  MIDI Event: Chan 6 Control/Mode Change: Channel Pan (0-127): 34
9    |  MIDI Event: Chan 5 Note OFF: A3, Velocity (0 - 127): 64
0    |  MIDI Event: Chan 1 Note OFF: D4, Velocity (0 - 127): 64
0    |  MIDI Event: Chan 1 Note OFF: F#4, Velocity (0 - 127): 64
0    |  MIDI Event: Chan 1 Note OFF: A3, Velocity (0 - 127): 64
0    |  MIDI Event: Chan 5 Note OFF: F#3, Velocity (0 - 127): 64
0    |  MIDI Event: Chan 5 Note OFF: D3, Velocity (0 - 127): 64
1    |  MIDI Event: Chan 1 Note ON: F#3, Velocity (0 - 127): 35
0    |  MIDI Event: Chan 1 Note ON: A3, Velocity (0 - 127): 79
0    |  MIDI Event: Chan 1 Note ON: D4, Velocity (0 - 127): 56
0    |  MIDI Event: Chan 5 Note ON: D3, Velocity (0 - 127): 111
0    |  MIDI Event: Chan 5 Note ON: F#3, Velocity (0 - 127): 100
0    |  MIDI Event: Chan 5 Note ON: A3, Velocity (0 - 127): 100
0    |  MIDI Event: Chan 6 Note ON: D4, Velocity (0 - 127): 89
0    |  MIDI Event: Chan 6 Note ON: D5, Velocity (0 - 127): 89
0    |  MIDI Event: Chan 7 Note ON: D5, Velocity (0 - 127): 120
29   |  MIDI Event: Chan 7 Note OFF: D5, Velocity (0 - 127): 64
0    |  MIDI Event: Chan 5 Note OFF: D3, Velocity (0 - 127): 64
0    |  MIDI Event: Chan 1 Note OFF: F#3, Velocity (0 - 127): 64
0    |  MIDI Event: Chan 5 Note OFF: F#3, Velocity (0 - 127): 64
0    |  MIDI Event: Chan 1 Note OFF: A3, Velocity (0 - 127): 64
0    |  MIDI Event: Chan 1 Note OFF: D4, Velocity (0 - 127): 64
0    |  MIDI Event: Chan 6 Note OFF: D4, Velocity (0 - 127): 64
0    |  MIDI Event: Chan 5 Note OFF: A3, Velocity (0 - 127): 64
0    |  MIDI Event: Chan 6 Note OFF: D5, Velocity (0 - 127): 64
1    |  MIDI Event: Chan 1 Note ON: F#3, Velocity (0 - 127): 49
0    |  MIDI Event: Chan 1 Note ON: A3, Velocity (0 - 127): 85
0    |  MIDI Event: Chan 1 Note ON: D4, Velocity (0 - 127): 75
0    |  MIDI Event: Chan 5 Note ON: A2, Velocity (0 - 127): 105
0    |  MIDI Event: Chan 5 Note ON: D3, Velocity (0 - 127): 116
0    |  MIDI Event: Chan 6 Note ON: E4, Velocity (0 - 127): 81
0    |  MIDI Event: Chan 6 Note ON: E5, Velocity (0 - 127): 81
0    |  MIDI Event: Chan 6 Control/Mode Change: Channel Pan (0-127): 94
0    |  MIDI Event: Chan 7 Note ON: E5, Velocity (0 - 127): 120
0    |  MIDI Event: Chan 10 Note ON: B1, Velocity (0 - 127): 101
0    |  MIDI Event: Chan 10 Note ON: E2, Velocity (0 - 127): 85
9    |  MIDI Event: Chan 1 Control/Mode Change: Sound Controller 5 (default: Brightness) (0-127): 40
0    |  MIDI Event: Chan 5 Control/Mode Change: Sound Controller 5 (default: Brightness) (0-127): 40
20   |  MIDI Event: Chan 10 Note OFF: E2, Velocity (0 - 127): 64
0    |  MIDI Event: Chan 10 Note OFF: B1, Velocity (0 - 127): 64
0    |  MIDI Event: Chan 6 Note OFF: E5, Velocity (0 - 127): 64
0    |  MIDI Event: Chan 7 Note OFF: E5, Velocity (0 - 127): 64
0    |  MIDI Event: Chan 6 Note OFF: E4, Velocity (0 - 127): 64
1    |  MIDI Event: Chan 6 Note ON: D4, Velocity (0 - 127): 95
0    |  MIDI Event: Chan 6 Note ON: D5, Velocity (0 - 127): 95
0    |  MIDI Event: Chan 7 Note ON: D5, Velocity (0 - 127): 120
10   |  MIDI Event: Chan 6 Control/Mode Change: Channel Pan (0-127): 12
19   |  MIDI Event: Chan 7 Note OFF: D5, Velocity (0 - 127): 64
0    |  MIDI Event: Chan 1 Note OFF: D4, Velocity (0 - 127): 64
0    |  MIDI Event: Chan 1 Note OFF: A3, Velocity (0 - 127): 64
0    |  MIDI Event: Chan 5 Note OFF: D3, Velocity (0 - 127): 64
0    |  MIDI Event: Chan 5 Note OFF: A2, Velocity (0 - 127): 64
0    |  MIDI Event: Chan 1 Note OFF: F#3, Velocity (0 - 127): 64
0    |  MIDI Event: Chan 6 Note OFF: D4, Velocity (0 - 127): 64
0    |  MIDI Event: Chan 6 Note OFF: D5, Velocity (0 - 127): 64
1    |  MIDI Event: Chan 1 Control/Mode Change: Sound Controller 5 (default: Brightness) (0-127): 41
0    |  MIDI Event: Chan 1 Note ON: A3, Velocity (0 - 127): 56
0    |  MIDI Event: Chan 1 Note ON: D4, Velocity (0 - 127): 84
0    |  MIDI Event: Chan 1 Note ON: F#4, Velocity (0 - 127): 49
0    |  MIDI Event: Chan 5 Control/Mode Change: Sound Controller 5 (default: Brightness) (0-127): 41
0    |  MIDI Event: Chan 5 Note ON: D3, Velocity (0 - 127): 105
0    |  MIDI Event: Chan 5 Note ON: F#3, Velocity (0 - 127): 115
0    |  MIDI Event: Chan 6 Note ON: E4, Velocity (0 - 127): 111
0    |  MIDI Event: Chan 6 Note ON: E5, Velocity (0 - 127): 111
0    |  MIDI Event: Chan 7 Note ON: E5, Velocity (0 - 127): 120
20   |  MIDI Event: Chan 6 Control/Mode Change: Channel Pan (0-127): 115
9    |  MIDI Event: Chan 5 Note OFF: F#3, Velocity (0 - 127): 64
0    |  MIDI Event: Chan 5 Note OFF: D3, Velocity (0 - 127): 64
0    |  MIDI Event: Chan 1 Note OFF: A3, Velocity (0 - 127): 64
0    |  MIDI Event: Chan 1 Note OFF: F#4, Velocity (0 - 127): 64
0    |  MIDI Event: Chan 1 Note OFF: D4, Velocity (0 - 127): 64
1    |  MIDI Event: Chan 1 Note ON: A3, Velocity (0 - 127): 84
0    |  MIDI Event: Chan 1 Note ON: D4, Velocity (0 - 127): 94
0    |  MIDI Event: Chan 1 Note ON: F#4, Velocity (0 - 127): 76
0    |  MIDI Event: Chan 5 Note ON: D3, Velocity (0 - 127): 100
0    |  MIDI Event: Chan 5 Note ON: F#3, Velocity (0 - 127): 92
21   |  MIDI Event: Chan 1 Control/Mode Change: Sound Controller 5 (default: Brightness) (0-127): 42
0    |  MIDI Event: Chan 5 Control/Mode Change: Sound Controller 5 (default: Brightness) (0-127): 42
0    |  MIDI Event: Chan 6 Pitch Bend Change (0-16383): 7749 (factor==0.992841)
2    |  MIDI Event: Chan 6 Pitch Bend Change (0-16383): 6215 (factor==0.968447)
3    |  MIDI Event: Chan 6 Pitch Bend Change (0-16383): 4197 (factor==0.937266)
2    |  MIDI Event: Chan 6 Pitch Bend Change (0-16383): 2422 (factor==0.91067)
1    |  MIDI Event: Chan 5 Note OFF: F#3, Velocity (0 - 127): 64
0    |  MIDI Event: Chan 6 Note OFF: E4, Velocity (0 - 127): 64
0    |  MIDI Event: Chan 1 Note OFF: D4, Velocity (0 - 127): 64
0    |  MIDI Event: Chan 6 Note OFF: E5, Velocity (0 - 127): 64
0    |  MIDI Event: Chan 7 Note OFF: E5, Velocity (0 - 127): 64
0    |  MIDI Event: Chan 1 Note OFF: A3, Velocity (0 - 127): 64
0    |  MIDI Event: Chan 1 Note OFF: F#4, Velocity (0 - 127): 64
0    |  MIDI Event: Chan 5 Note OFF: D3, Velocity (0 - 127): 64
1    |  MIDI Event: Chan 1 Note ON: E3, Velocity (0 - 127): 47
0    |  MIDI Event: Chan 1 Note ON: A3, Velocity (0 - 127): 89
0    |  MIDI Event: Chan 1 Note ON: C#4, Velocity (0 - 127): 52
0    |  MIDI Event: Chan 5 Note ON: A2, Velocity (0 - 127): 101
0    |  MIDI Event: Chan 5 Note ON: E3, Velocity (0 - 127): 101
0    |  MIDI Event: Chan 6 Note ON: F#4, Velocity (0 - 127): 119
0    |  MIDI Event: Chan 6 Note ON: F#5, Velocity (0 - 127): 119
0    |  MIDI Event: Chan 6 Control/Mode Change: Channel Pan (0-127): 34
0    |  MIDI Event: Chan 7 Note ON: F#5, Velocity (0 - 127): 120
0    |  MIDI Event: Chan 10 Note ON: B1, Velocity (0 - 127): 105
0    |  MIDI Event: Chan 10 Note ON: E2, Velocity (0 - 127): 100
1    |  MIDI Event: Chan 6 Pitch Bend Change (0-16383): 1211 (factor==0.89296)
2    |  MIDI Event: Chan 6 Pitch Bend Change (0-16383): 646 (factor==0.884815)
3    |  MIDI Event: Chan 6 Pitch Bend Change (0-16383): 565 (factor==0.883653)
2    |  MIDI Event: Chan 6 Pitch Bend Change (0-16383): 646 (factor==0.884815)
3    |  MIDI Event: Chan 6 Pitch Bend Change (0-16383): 1373 (factor==0.895309)
2    |  MIDI Event: Chan 6 Pitch Bend Change (0-16383): 2260 (factor==0.908281)
3    |  MIDI Event: Chan 6 Pitch Bend Change (0-16383): 3471 (factor==0.926295)
2    |  MIDI Event: Chan 6 Pitch Bend Change (0-16383): 5085 (factor==0.950861)
3    |  MIDI Event: Chan 6 Pitch Bend Change (0-16383): 6942 (factor==0.979932)
2    |  MIDI Event: Chan 6 Pitch Bend Change (0-16383): 8071 (factor==0.99804)
3    |  MIDI Event: Chan 6 Pitch Bend Change (0-16383): 8192 (factor==1)
3    |  MIDI Event: Chan 10 Note OFF: E2, Velocity (0 - 127): 64
0    |  MIDI Event: Chan 10 Note OFF: B1, Velocity (0 - 127): 64
11   |  MIDI Event: Chan 6 Control/Mode Change: Channel Pan (0-127): 94
2    |  MIDI Event: Chan 1 Control/Mode Change: Sound Controller 5 (default: Brightness) (0-127): 43
0    |  MIDI Event: Chan 5 Control/Mode Change: Sound Controller 5 (default: Brightness) (0-127): 43
17   |  MIDI Event: Chan 5 Note OFF: A2, Velocity (0 - 127): 64
0    |  MIDI Event: Chan 1 Note OFF: E3, Velocity (0 - 127): 64
0    |  MIDI Event: Chan 5 Note OFF: E3, Velocity (0 - 127): 64
0    |  MIDI Event: Chan 1 Note OFF: A3, Velocity (0 - 127): 64
0    |  MIDI Event: Chan 7 Note OFF: F#5, Velocity (0 - 127): 64
0    |  MIDI Event: Chan 6 Note OFF: F#5, Velocity (0 - 127): 64
0    |  MIDI Event: Chan 6 Note OFF: F#4, Velocity (0 - 127): 64
0    |  MIDI Event: Chan 1 Note OFF: C#4, Velocity (0 - 127): 64
1    |  MIDI Event: Chan 1 Note ON: A3, Velocity (0 - 127): 51
0    |  MIDI Event: Chan 1 Note ON: C#4, Velocity (0 - 127): 52
0    |  MIDI Event: Chan 1 Note ON: E4, Velocity (0 - 127): 78
0    |  MIDI Event: Chan 5 Note ON: C#3, Velocity (0 - 127): 89
0    |  MIDI Event: Chan 5 Note ON: E3, Velocity (0 - 127): 101
0    |  MIDI Event: Chan 5 Note ON: A3, Velocity (0 - 127): 89
0    |  MIDI Event: Chan 6 Note ON: D4, Velocity (0 - 127): 98
0    |  MIDI Event: Chan 6 Note ON: D5, Velocity (0 - 127): 98
0    |  MIDI Event: Chan 7 Note ON: D5, Velocity (0 - 127): 120
20   |  MIDI Event: Chan 6 Control/Mode Change: Channel Pan (0-127): 12
9    |  MIDI Event: Chan 5 Note OFF: A3, Velocity (0 - 127): 64
0    |  MIDI Event: Chan 5 Note OFF: C#3, Velocity (0 - 127): 64
0    |  MIDI Event: Chan 1 Note OFF: A3, Velocity (0 - 127): 64
0    |  MIDI Event: Chan 1 Note OFF: E4, Velocity (0 - 127): 64
0    |  MIDI Event: Chan 1 Note OFF: C#4, Velocity (0 - 127): 64
0    |  MIDI Event: Chan 5 Note OFF: E3, Velocity (0 - 127): 64
1    |  MIDI Event: Chan 1 Note ON: A3, Velocity (0 - 127): 73
0    |  MIDI Event: Chan 1 Note ON: C#4, Velocity (0 - 127): 52
0    |  MIDI Event: Chan 1 Note ON: E4, Velocity (0 - 127): 83
0    |  MIDI Event: Chan 5 Note ON: C#3, Velocity (0 - 127): 119
0    |  MIDI Event: Chan 5 Note ON: E3, Velocity (0 - 127): 118
0    |  MIDI Event: Chan 5 Note ON: A3, Velocity (0 - 127): 105
3    |  MIDI Event: Chan 1 Control/Mode Change: Sound Controller 5 (default: Brightness) (0-127): 44
0    |  MIDI Event: Chan 5 Control/Mode Change: Sound Controller 5 (default: Brightness) (0-127): 44
26   |  MIDI Event: Chan 5 Note OFF: A3, Velocity (0 - 127): 64
0    |  MIDI Event: Chan 1 Note OFF: A3, Velocity (0 - 127): 64
0    |  MIDI Event: Chan 6 Note OFF: D4, Velocity (0 - 127): 64
0    |  MIDI Event: Chan 1 Note OFF: C#4, Velocity (0 - 127): 64
0    |  MIDI Event: Chan 6 Note OFF: D5, Velocity (0 - 127): 64
0    |  MIDI Event: Chan 7 Note OFF: D5, Velocity (0 - 127): 64
0    |  MIDI Event: Chan 5 Note OFF: C#3, Velocity (0 - 127): 64
0    |  MIDI Event: Chan 1 Note OFF: E4, Velocity (0 - 127): 64
0    |  MIDI Event: Chan 5 Note OFF: E3, Velocity (0 - 127): 64
1    |  MIDI Event: Chan 1 Note ON: B3, Velocity (0 - 127): 58
0    |  MIDI Event: Chan 1 Note ON: D4, Velocity (0 - 127): 91
0    |  MIDI Event: Chan 5 Note ON: B2, Velocity (0 - 127): 85
0    |  MIDI Event: Chan 5 Note ON: F#3, Velocity (0 - 127): 120
0    |  MIDI Event: Chan 6 Note ON: B3, Velocity (0 - 127): 105
0    |  MIDI Event: Chan 6 Note ON: B4, Velocity (0 - 127): 105
0    |  MIDI Event: Chan 6 Control/Mode Change: Channel Pan (0-127): 115
0    |  MIDI Event: Chan 7 Note ON: B4, Velocity (0 - 127): 120
0    |  MIDI Event: Chan 10 Note ON: B1, Velocity (0 - 127): 105
0    |  MIDI Event: Chan 10 Note ON: E2, Velocity (0 - 127): 100
24   |  MIDI Event: Chan 1 Control/Mode Change: Sound Controller 5 (default: Brightness) (0-127): 45
0    |  MIDI Event: Chan 5 Control/Mode Change: Sound Controller 5 (default: Brightness) (0-127): 45
5    |  MIDI Event: Chan 10 Note OFF: E2, Velocity (0 - 127): 64
0    |  MIDI Event: Chan 10 Note OFF: B1, Velocity (0 - 127): 64
11   |  MIDI Event: Chan 6 Control/Mode Change: Channel Pan (0-127): 34
19   |  MIDI Event: Chan 1 Note OFF: B3, Velocity (0 - 127): 64
0    |  MIDI Event: Chan 6 Note OFF: B3, Velocity (0 - 127): 64
0    |  MIDI Event: Chan 1 Note OFF: D4, Velocity (0 - 127): 64
0    |  MIDI Event: Chan 5 Note OFF: B2, Velocity (0 - 127): 64
0    |  MIDI Event: Chan 7 Note OFF: B4, Velocity (0 - 127): 64
0    |  MIDI Event: Chan 6 Note OFF: B4, Velocity (0 - 127): 64
0    |  MIDI Event: Chan 5 Note OFF: F#3, Velocity (0 - 127): 64
1    |  MIDI Event: Chan 1 Note ON: B3, Velocity (0 - 127): 79
0    |  MIDI Event: Chan 1 Note ON: D4, Velocity (0 - 127): 95
0    |  MIDI Event: Chan 1 Note ON: F#4, Velocity (0 - 127): 74
0    |  MIDI Event: Chan 5 Note ON: D3, Velocity (0 - 127): 92
0    |  MIDI Event: Chan 5 Note ON: F#3, Velocity (0 - 127): 87
0    |  MIDI Event: Chan 5 Note ON: D4, Velocity (0 - 127): 95
15   |  MIDI Event: Chan 1 Control/Mode Change: Sound Controller 5 (default: Brightness) (0-127): 46
0    |  MIDI Event: Chan 5 Control/Mode Change: Sound Controller 5 (default: Brightness) (0-127): 46
5    |  MIDI Event: Chan 6 Control/Mode Change: Channel Pan (0-127): 94
40   |  MIDI Event: Chan 6 Note ON: B3, Velocity (0 - 127): 119
0    |  MIDI Event: Chan 6 Note ON: B4, Velocity (0 - 127): 119
0    |  MIDI Event: Chan 6 Control/Mode Change: Channel Pan (0-127): 12
0    |  MIDI Event: Chan 7 Note ON: B4, Velocity (0 - 127): 120
0    |  MIDI Event: Chan 10 Note ON: B1, Velocity (0 - 127): 105
0    |  MIDI Event: Chan 10 Note ON: E2, Velocity (0 - 127): 98
6    |  MIDI Event: Chan 1 Control/Mode Change: Sound Controller 5 (default: Brightness) (0-127): 47
0    |  MIDI Event: Chan 5 Control/Mode Change: Sound Controller 5 (default: Brightness) (0-127): 47
23   |  MIDI Event: Chan 10 Note OFF: E2, Velocity (0 - 127): 64
0    |  MIDI Event: Chan 5 Note OFF: D3, Velocity (0 - 127): 64
0    |  MIDI Event: Chan 1 Note OFF: F#4, Velocity (0 - 127): 64
0    |  MIDI Event: Chan 10 Note OFF: B1, Velocity (0 - 127): 64
0    |  MIDI Event: Chan 1 Note OFF: B3, Velocity (0 - 127): 64
0    |  MIDI Event: Chan 5 Note OFF: D4, Velocity (0 - 127): 64
0    |  MIDI Event: Chan 1 Note OFF: D4, Velocity (0 - 127): 64
0    |  MIDI Event: Chan 5 Note OFF: F#3, Velocity (0 - 127): 64
1    |  MIDI Event: Chan 1 Note ON: B3, Velocity (0 - 127): 71
0    |  MIDI Event: Chan 1 Note ON: D4, Velocity (0 - 127): 91
0    |  MIDI Event: Chan 1 Note ON: F#4, Velocity (0 - 127): 60
0    |  MIDI Event: Chan 5 Note ON: F#3, Velocity (0 - 127): 109
0    |  MIDI Event: Chan 5 Note ON: B3, Velocity (0 - 127): 95
10   |  MIDI Event: Chan 6 Control/Mode Change: Channel Pan (0-127): 115
17   |  MIDI Event: Chan 1 Control/Mode Change: Sound Controller 5 (default: Brightness) (0-127): 48
0    |  MIDI Event: Chan 5 Control/Mode Change: Sound Controller 5 (default: Brightness) (0-127): 48
2    |  MIDI Event: Chan 5 Note OFF: B3, Velocity (0 - 127): 64
0    |  MIDI Event: Chan 6 Note OFF: B3, Velocity (0 - 127): 64
0    |  MIDI Event: Chan 1 Note OFF: D4, Velocity (0 - 127): 64
0    |  MIDI Event: Chan 6 Note OFF: B4, Velocity (0 - 127): 64
0    |  MIDI Event: Chan 7 Note OFF: B4, Velocity (0 - 127): 64
0    |  MIDI Event: Chan 1 Note OFF: B3, Velocity (0 - 127): 64
0    |  MIDI Event: Chan 1 Note OFF: F#4, Velocity (0 - 127): 64
0    |  MIDI Event: Chan 5 Note OFF: F#3, Velocity (0 - 127): 64
1    |  MIDI Event: Chan 1 Note ON: D4, Velocity (0 - 127): 80
0    |  MIDI Event: Chan 1 Note ON: F#4, Velocity (0 - 127): 62
0    |  MIDI Event: Chan 1 Note ON: B4, Velocity (0 - 127): 91
0    |  MIDI Event: Chan 5 Note ON: D3, Velocity (0 - 127): 103
0    |  MIDI Event: Chan 5 Note ON: F#3, Velocity (0 - 127): 115
20   |  MIDI Event: Chan 6 Control/Mode Change: Channel Pan (0-127): 34
9    |  MIDI Event: Chan 5 Note OFF: F#3, Velocity (0 - 127): 64
0    |  MIDI Event: Chan 1 Note OFF: B4, Velocity (0 - 127): 64
0    |  MIDI Event: Chan 1 Note OFF: D4, Velocity (0 - 127): 64
0    |  MIDI Event: Chan 1 Note OFF: F#4, Velocity (0 - 127): 64
0    |  MIDI Event: Chan 5 Note OFF: D3, Velocity (0 - 127): 64
1    |  MIDI Event: Chan 1 Note ON: B3, Velocity (0 - 127): 51
0    |  MIDI Event: Chan 1 Note ON: D4, Velocity (0 - 127): 85
0    |  MIDI Event: Chan 1 Note ON: F#4, Velocity (0 - 127): 59
0    |  MIDI Event: Chan 5 Note ON: B2, Velocity (0 - 127): 92
0    |  MIDI Event: Chan 5 Note ON: E3, Velocity (0 - 127): 98
0    |  MIDI Event: Chan 6 Note ON: A3, Velocity (0 - 127): 91
0    |  MIDI Event: Chan 6 Note ON: A4, Velocity (0 - 127): 91
0    |  MIDI Event: Chan 7 Note ON: A4, Velocity (0 - 127): 120
18   |  MIDI Event: Chan 1 Control/Mode Change: Sound Controller 5 (default: Brightness) (0-127): 49
0    |  MIDI Event: Chan 5 Control/Mode Change: Sound Controller 5 (default: Brightness) (0-127): 49
11   |  MIDI Event: Chan 7 Note OFF: A4, Velocity (0 - 127): 64
0    |  MIDI Event: Chan 1 Note OFF: B3, Velocity (0 - 127): 64
0    |  MIDI Event: Chan 5 Note OFF: E3, Velocity (0 - 127): 64
0    |  MIDI Event: Chan 1 Note OFF: D4, Velocity (0 - 127): 64
0    |  MIDI Event: Chan 1 Note OFF: F#4, Velocity (0 - 127): 64
0    |  MIDI Event: Chan 5 Note OFF: B2, Velocity (0 - 127): 64
0    |  MIDI Event: Chan 6 Note OFF: A3, Velocity (0 - 127): 64
0    |  MIDI Event: Chan 6 Note OFF: A4, Velocity (0 - 127): 64
1    |  MIDI Event: Chan 1 Note ON: G3, Velocity (0 - 127): 74
0    |  MIDI Event: Chan 1 Note ON: B3, Velocity (0 - 127): 94
0    |  MIDI Event: Chan 1 Note ON: D4, Velocity (0 - 127): 91
0    |  MIDI Event: Chan 5 Note ON: G2, Velocity (0 - 127): 98
0    |  MIDI Event: Chan 5 Note ON: D3, Velocity (0 - 127): 116
0    |  MIDI Event: Chan 6 Note ON: B3, Velocity (0 - 127): 97
0    |  MIDI Event: Chan 6 Note ON: B4, Velocity (0 - 127): 97
0    |  MIDI Event: Chan 6 Control/Mode Change: Channel Pan (0-127): 94
0    |  MIDI Event: Chan 7 Note ON: B4, Velocity (0 - 127): 120
0    |  MIDI Event: Chan 10 Note ON: B1, Velocity (0 - 127): 101
0    |  MIDI Event: Chan 10 Note ON: E2, Velocity (0 - 127): 98
29   |  MIDI Event: Chan 10 Note OFF: E2, Velocity (0 - 127): 64
0    |  MIDI Event: Chan 10 Note OFF: B1, Velocity (0 - 127): 64
0    |  MIDI Event: Chan 6 Note OFF: B4, Velocity (0 - 127): 64
0    |  MIDI Event: Chan 7 Note OFF: B4, Velocity (0 - 127): 64
0    |  MIDI Event: Chan 6 Note OFF: B3, Velocity (0 - 127): 64
1    |  MIDI Event: Chan 6 Note ON: D4, Velocity (0 - 127): 80
0    |  MIDI Event: Chan 6 Note ON: D5, Velocity (0 - 127): 80
0    |  MIDI Event: Chan 7 Note ON: D5, Velocity (0 - 127): 120
9    |  MIDI Event: Chan 1 Control/Mode Change: Sound Controller 5 (default: Brightness) (0-127): 50
0    |  MIDI Event: Chan 5 Control/Mode Change: Sound Controller 5 (default: Brightness) (0-127): 50
1    |  MIDI Event: Chan 6 Control/Mode Change: Channel Pan (0-127): 12
19   |  MIDI Event: Chan 7 Note OFF: D5, Velocity (0 - 127): 64
0    |  MIDI Event: Chan 1 Note OFF: D4, Velocity (0 - 127): 64
0    |  MIDI Event: Chan 1 Note OFF: B3, Velocity (0 - 127): 64
0    |  MIDI Event: Chan 5 Note OFF: D3, Velocity (0 - 127): 64
0    |  MIDI Event: Chan 5 Note OFF: G2, Velocity (0 - 127): 64
0    |  MIDI Event: Chan 1 Note OFF: G3, Velocity (0 - 127): 64
0    |  MIDI Event: Chan 6 Note OFF: D4, Velocity (0 - 127): 64
0    |  MIDI Event: Chan 6 Note OFF: D5, Velocity (0 - 127): 64
1    |  MIDI Event: Chan 1 Note ON: B3, Velocity (0 - 127): 70
0    |  MIDI Event: Chan 1 Note ON: D4, Velocity (0 - 127): 94
0    |  MIDI Event: Chan 1 Note ON: G4, Velocity (0 - 127): 101
0    |  MIDI Event: Chan 5 Note ON: D3, Velocity (0 - 127): 79
0    |  MIDI Event: Chan 5 Note ON: G3, Velocity (0 - 127): 111
0    |  MIDI Event: Chan 5 Note ON: B3, Velocity (0 - 127): 100
0    |  MIDI Event: Chan 6 Note ON: B3, Velocity (0 - 127): 113
0    |  MIDI Event: Chan 6 Note ON: B4, Velocity (0 - 127): 113
0    |  MIDI Event: Chan 7 Note ON: B4, Velocity (0 - 127): 120
20   |  MIDI Event: Chan 6 Control/Mode Change: Channel Pan (0-127): 115
10   |  MIDI Event: Chan 1 Control/Mode Change: Sound Controller 5 (default: Brightness) (0-127): 51
0    |  MIDI Event: Chan 5 Control/Mode Change: Sound Controller 5 (default: Brightness) (0-127): 51
29   |  MIDI Event: Chan 7 Note OFF: B4, Velocity (0 - 127): 64
0    |  MIDI Event: Chan 6 Note OFF: B4, Velocity (0 - 127): 64
0    |  MIDI Event: Chan 6 Note OFF: B3, Velocity (0 - 127): 64
1    |  MIDI Event: Chan 6 Control/Mode Change: Channel Pan (0-127): 34
0    |  MIDI Event: Chan 10 Note ON: B1, Velocity (0 - 127): 101
0    |  MIDI Event: Chan 10 Note ON: E2, Velocity (0 - 127): 101
21   |  MIDI Event: Chan 1 Control/Mode Change: Sound Controller 5 (default: Brightness) (0-127): 52
0    |  MIDI Event: Chan 5 Control/Mode Change: Sound Controller 5 (default: Brightness) (0-127): 52
8    |  MIDI Event: Chan 10 Note OFF: E2, Velocity (0 - 127): 64
0    |  MIDI Event: Chan 5 Note OFF: D3, Velocity (0 - 127): 64
0    |  MIDI Event: Chan 5 Note OFF: B3, Velocity (0 - 127): 64
0    |  MIDI Event: Chan 1 Note OFF: D4, Velocity (0 - 127): 64
0    |  MIDI Event: Chan 1 Note OFF: G4, Velocity (0 - 127): 64
0    |  MIDI Event: Chan 1 Note OFF: B3, Velocity (0 - 127): 64
0    |  MIDI Event: Chan 5 Note OFF: G3, Velocity (0 - 127): 64
0    |  MIDI Event: Chan 10 Note OFF: B1, Velocity (0 - 127): 64
1    |  MIDI Event: Chan 1 Note ON: B3, Velocity (0 - 127): 52
0    |  MIDI Event: Chan 1 Note ON: D4, Velocity (0 - 127): 85
0    |  MIDI Event: Chan 1 Note ON: G4, Velocity (0 - 127): 94
0    |  MIDI Event: Chan 5 Note ON: D3, Velocity (0 - 127): 82
0    |  MIDI Event: Chan 5 Note ON: G3, Velocity (0 - 127): 98
0    |  MIDI Event: Chan 5 Note ON: B3, Velocity (0 - 127): 85
0    |  MIDI Event: Chan 6 Note ON: A3, Velocity (0 - 127): 98
0    |  MIDI Event: Chan 6 Note ON: A4, Velocity (0 - 127): 98
0    |  MIDI Event: Chan 7 Note ON: A4, Velocity (0 - 127): 120
10   |  MIDI Event: Chan 6 Control/Mode Change: Channel Pan (0-127): 94
19   |  MIDI Event: Chan 7 Note OFF: A4, Velocity (0 - 127): 64
0    |  MIDI Event: Chan 5 Note OFF: D3, Velocity (0 - 127): 64
0    |  MIDI Event: Chan 1 Note OFF: B3, Velocity (0 - 127): 64
0    |  MIDI Event: Chan 5 Note OFF: G3, Velocity (0 - 127): 64
0    |  MIDI Event: Chan 1 Note OFF: D4, Velocity (0 - 127): 64
0    |  MIDI Event: Chan 1 Note OFF: G4, Velocity (0 - 127): 64
0    |  MIDI Event: Chan 6 Note OFF: A3, Velocity (0 - 127): 64
0    |  MIDI Event: Chan 5 Note OFF: B3, Velocity (0 - 127): 64
0    |  MIDI Event: Chan 6 Note OFF: A4, Velocity (0 - 127): 64
1    |  MIDI Event: Chan 1 Note ON: D4, Velocity (0 - 127): 78
0    |  MIDI Event: Chan 1 Note ON: G4, Velocity (0 - 127): 100
0    |  MIDI Event: Chan 1 Note ON: B4, Velocity (0 - 127): 46
0    |  MIDI Event: Chan 5 Note ON: G2, Velocity (0 - 127): 109
0    |  MIDI Event: Chan 5 Note ON: D3, Velocity (0 - 127): 109
0    |  MIDI Event: Chan 6 Note ON: B3, Velocity (0 - 127): 101
0    |  MIDI Event: Chan 6 Note ON: B4, Velocity (0 - 127): 101
0    |  MIDI Event: Chan 7 Note ON: B4, Velocity (0 - 127): 120
12   |  MIDI Event: Chan 1 Control/Mode Change: Sound Controller 5 (default: Brightness) (0-127): 53
0    |  MIDI Event: Chan 5 Control/Mode Change: Sound Controller 5 (default: Brightness) (0-127): 53
8    |  MIDI Event: Chan 6 Control/Mode Change: Channel Pan (0-127): 12
9    |  MIDI Event: Chan 7 Note OFF: B4, Velocity (0 - 127): 64
0    |  MIDI Event: Chan 1 Note OFF: D4, Velocity (0 - 127): 64
0    |  MIDI Event: Chan 5 Note OFF: D3, Velocity (0 - 127): 64
0    |  MIDI Event: Chan 1 Note OFF: G4, Velocity (0 - 127): 64
0    |  MIDI Event: Chan 1 Note OFF: B4, Velocity (0 - 127): 64
0    |  MIDI Event: Chan 5 Note OFF: G2, Velocity (0 - 127): 64
0    |  MIDI Event: Chan 6 Note OFF: B3, Velocity (0 - 127): 64
0    |  MIDI Event: Chan 6 Note OFF: B4, Velocity (0 - 127): 64
1    |  MIDI Event: Chan 1 Note ON: B3, Velocity (0 - 127): 45
0    |  MIDI Event: Chan 1 Note ON: D4, Velocity (0 - 127): 73
0    |  MIDI Event: Chan 1 Note ON: G4, Velocity (0 - 127): 86
0    |  MIDI Event: Chan 5 Note ON: G2, Velocity (0 - 127): 101
0    |  MIDI Event: Chan 5 Note ON: E3, Velocity (0 - 127): 116
0    |  MIDI Event: Chan 6 Note ON: A3, Velocity (0 - 127): 91
0    |  MIDI Event: Chan 6 Note ON: A4, Velocity (0 - 127): 91
0    |  MIDI Event: Chan 7 Note ON: A4, Velocity (0 - 127): 120
29   |  MIDI Event: Chan 7 Note OFF: A4, Velocity (0 - 127): 64
0    |  MIDI Event: Chan 1 Note OFF: B3, Velocity (0 - 127): 64
0    |  MIDI Event: Chan 5 Note OFF: E3, Velocity (0 - 127): 64
0    |  MIDI Event: Chan 1 Note OFF: D4, Velocity (0 - 127): 64
0    |  MIDI Event: Chan 1 Note OFF: G4, Velocity (0 - 127): 64
0    |  MIDI Event: Chan 5 Note OFF: G2, Velocity (0 - 127): 64
0    |  MIDI Event: Chan 6 Note OFF: A3, Velocity (0 - 127): 64
0    |  MIDI Event: Chan 6 Note OFF: A4, Velocity (0 - 127): 64
1    |  MIDI Event: Chan 1 Note ON: F#3, Velocity (0 - 127): 35
0    |  MIDI Event: Chan 1 Note ON: A3, Velocity (0 - 127): 85
0    |  MIDI Event: Chan 1 Note ON: D4, Velocity (0 - 127): 79
0    |  MIDI Event: Chan 5 Note ON: A2, Velocity (0 - 127): 90
0    |  MIDI Event: Chan 5 Note ON: D3, Velocity (0 - 127): 105
0    |  MIDI Event: Chan 6 Note ON: D4, Velocity (0 - 127): 105
0    |  MIDI Event: Chan 6 Note ON: D5, Velocity (0 - 127): 105
0    |  MIDI Event: Chan 6 Control/Mode Change: Channel Pan (0-127): 115
0    |  MIDI Event: Chan 7 Note ON: D5, Velocity (0 - 127): 120
0    |  MIDI Event: Chan 10 Note ON: B1, Velocity (0 - 127): 101
0    |  MIDI Event: Chan 10 Note ON: E2, Velocity (0 - 127): 98
3    |  MIDI Event: Chan 1 Control/Mode Change: Sound Controller 5 (default: Brightness) (0-127): 54
0    |  MIDI Event: Chan 5 Control/Mode Change: Sound Controller 5 (default: Brightness) (0-127): 54
26   |  MIDI Event: Chan 10 Note OFF: E2, Velocity (0 - 127): 64
0    |  MIDI Event: Chan 10 Note OFF: B1, Velocity (0 - 127): 64
11   |  MIDI Event: Chan 6 Control/Mode Change: Channel Pan (0-127): 34
14   |  MIDI Event: Chan 1 Control/Mode Change: Sound Controller 5 (default: Brightness) (0-127): 55
0    |  MIDI Event: Chan 5 Control/Mode Change: Sound Controller 5 (default: Brightness) (0-127): 55
5    |  MIDI Event: Chan 5 Note OFF: A2, Velocity (0 - 127): 64
0    |  MIDI Event: Chan 1 Note OFF: F#3, Velocity (0 - 127): 64
0    |  MIDI Event: Chan 5 Note OFF: D3, Velocity (0 - 127): 64
0    |  MIDI Event: Chan 1 Note OFF: A3, Velocity (0 - 127): 64
0    |  MIDI Event: Chan 7 Note OFF: D5, Velocity (0 - 127): 64
0    |  MIDI Event: Chan 6 Note OFF: D5, Velocity (0 - 127): 64
0    |  MIDI Event: Chan 6 Note OFF: D4, Velocity (0 - 127): 64
0    |  MIDI Event: Chan 1 Note OFF: D4, Velocity (0 - 127): 64
1    |  MIDI Event: Chan 1 Note ON: A3, Velocity (0 - 127): 69
0    |  MIDI Event: Chan 1 Note ON: D4, Velocity (0 - 127): 98
0    |  MIDI Event: Chan 1 Note ON: F#4, Velocity (0 - 127): 74
0    |  MIDI Event: Chan 5 Note ON: A2, Velocity (0 - 127): 100
0    |  MIDI Event: Chan 5 Note ON: D3, Velocity (0 - 127): 111
0    |  MIDI Event: Chan 5 Note ON: F#3, Velocity (0 - 127): 89
20   |  MIDI Event: Chan 6 Control/Mode Change: Channel Pan (0-127): 94
25   |  MIDI Event: Chan 1 Control/Mode Change: Sound Controller 5 (default: Brightness) (0-127): 56
0    |  MIDI Event: Chan 5 Control/Mode Change: Sound Controller 5 (default: Brightness) (0-127): 56
15   |  MIDI Event: Chan 6 Note ON: D4, Velocity (0 - 127): 119
0    |  MIDI Event: Chan 6 Note ON: D5, Velocity (0 - 127): 119
0    |  MIDI Event: Chan 6 Control/Mode Change: Channel Pan (0-127): 12
0    |  MIDI Event: Chan 7 Note ON: D5, Velocity (0 - 127): 120
0    |  MIDI Event: Chan 10 Note ON: B1, Velocity (0 - 127): 107
0    |  MIDI Event: Chan 10 Note ON: E2, Velocity (0 - 127): 101
29   |  MIDI Event: Chan 10 Note OFF: E2, Velocity (0 - 127): 64
0    |  MIDI Event: Chan 5 Note OFF: A2, Velocity (0 - 127): 64
0    |  MIDI Event: Chan 1 Note OFF: F#4, Velocity (0 - 127): 64
0    |  MIDI Event: Chan 10 Note OFF: B1, Velocity (0 - 127): 64
0    |  MIDI Event: Chan 1 Note OFF: A3, Velocity (0 - 127): 64
0    |  MIDI Event: Chan 5 Note OFF: F#3, Velocity (0 - 127): 64
0    |  MIDI Event: Chan 1 Note OFF: D4, Velocity (0 - 127): 64
0    |  MIDI Event: Chan 5 Note OFF: D3, Velocity (0 - 127): 64
1    |  MIDI Event: Chan 1 Note ON: F#3, Velocity (0 - 127): 44
0    |  MIDI Event: Chan 1 Note ON: A3, Velocity (0 - 127): 78
0    |  MIDI Event: Chan 1 Note ON: D4, Velocity (0 - 127): 58
0    |  MIDI Event: Chan 5 Note ON: A2, Velocity (0 - 127): 85
0    |  MIDI Event: Chan 5 Note ON: D3, Velocity (0 - 127): 105
0    |  MIDI Event: Chan 5 Note ON: F#3, Velocity (0 - 127): 81
6    |  MIDI Event: Chan 1 Control/Mode Change: Sound Controller 5 (default: Brightness) (0-127): 57
0    |  MIDI Event: Chan 5 Control/Mode Change: Sound Controller 5 (default: Brightness) (0-127): 57
4    |  MIDI Event: Chan 6 Control/Mode Change: Channel Pan (0-127): 115
19   |  MIDI Event: Chan 5 Note OFF: F#3, Velocity (0 - 127): 64
0    |  MIDI Event: Chan 1 Note OFF: F#3, Velocity (0 - 127): 64
0    |  MIDI Event: Chan 6 Note OFF: D4, Velocity (0 - 127): 64
0    |  MIDI Event: Chan 1 Note OFF: A3, Velocity (0 - 127): 64
0    |  MIDI Event: Chan 6 Note OFF: D5, Velocity (0 - 127): 64
0    |  MIDI Event: Chan 7 Note OFF: D5, Velocity (0 - 127): 64
0    |  MIDI Event: Chan 5 Note OFF: A2, Velocity (0 - 127): 64
0    |  MIDI Event: Chan 1 Note OFF: D4, Velocity (0 - 127): 64
0    |  MIDI Event: Chan 5 Note OFF: D3, Velocity (0 - 127): 64
1    |  MIDI Event: Chan 1 Note ON: A3, Velocity (0 - 127): 57
0    |  MIDI Event: Chan 1 Note ON: D4, Velocity (0 - 127): 91
0    |  MIDI Event: Chan 1 Note ON: F#4, Velocity (0 - 127): 77
0    |  MIDI Event: Chan 5 Note ON: D3, Velocity (0 - 127): 109
0    |  MIDI Event: Chan 5 Note ON: F#3, Velocity (0 - 127): 89
0    |  MIDI Event: Chan 5 Note ON: A3, Velocity (0 - 127): 109
20   |  MIDI Event: Chan 6 Control/Mode Change: Channel Pan (0-127): 34
7    |  MIDI Event: Chan 1 Control/Mode Change: Sound Controller 5 (default: Brightness) (0-127): 58
0    |  MIDI Event: Chan 5 Control/Mode Change: Sound Controller 5 (default: Brightness) (0-127): 58
2    |  MIDI Event: Chan 5 Note OFF: A3, Velocity (0 - 127): 64
0    |  MIDI Event: Chan 1 Note OFF: D4, Velocity (0 - 127): 64
0    |  MIDI Event: Chan 1 Note OFF: F#4, Velocity (0 - 127): 64
0    |  MIDI Event: Chan 1 Note OFF: A3, Velocity (0 - 127): 64
0    |  MIDI Event: Chan 5 Note OFF: F#3, Velocity (0 - 127): 64
0    |  MIDI Event: Chan 5 Note OFF: D3, Velocity (0 - 127): 64
1    |  MIDI Event: Chan 1 Note ON: F#3, Velocity (0 - 127): 35
0    |  MIDI Event: Chan 1 Note ON: A3, Velocity (0 - 127): 79
0    |  MIDI Event: Chan 1 Note ON: D4, Velocity (0 - 127): 56
0    |  MIDI Event: Chan 5 Note ON: D3, Velocity (0 - 127): 111
0    |  MIDI Event: Chan 5 Note ON: F#3, Velocity (0 - 127): 100
0    |  MIDI Event: Chan 5 Note ON: A3, Velocity (0 - 127): 100
0    |  MIDI Event: Chan 6 Note ON: D4, Velocity (0 - 127): 103
0    |  MIDI Event: Chan 6 Note ON: D5, Velocity (0 - 127): 103
0    |  MIDI Event: Chan 7 Note ON: D5, Velocity (0 - 127): 120
29   |  MIDI Event: Chan 7 Note OFF: D5, Velocity (0 - 127): 64
0    |  MIDI Event: Chan 5 Note OFF: D3, Velocity (0 - 127): 64
0    |  MIDI Event: Chan 1 Note OFF: F#3, Velocity (0 - 127): 64
0    |  MIDI Event: Chan 5 Note OFF: F#3, Velocity (0 - 127): 64
0    |  MIDI Event: Chan 1 Note OFF: A3, Velocity (0 - 127): 64
0    |  MIDI Event: Chan 1 Note OFF: D4, Velocity (0 - 127): 64
0    |  MIDI Event: Chan 6 Note OFF: D4, Velocity (0 - 127): 64
0    |  MIDI Event: Chan 5 Note OFF: A3, Velocity (0 - 127): 64
0    |  MIDI Event: Chan 6 Note OFF: D5, Velocity (0 - 127): 64
1    |  MIDI Event: Chan 1 Note ON: F#3, Velocity (0 - 127): 49
0    |  MIDI Event: Chan 1 Note ON: A3, Velocity (0 - 127): 85
0    |  MIDI Event: Chan 1 Note ON: D4, Velocity (0 - 127): 75
0    |  MIDI Event: Chan 5 Note ON: A2, Velocity (0 - 127): 105
0    |  MIDI Event: Chan 5 Note ON: D3, Velocity (0 - 127): 116
0    |  MIDI Event: Chan 6 Note ON: E4, Velocity (0 - 127): 95
0    |  MIDI Event: Chan 6 Note ON: E5, Velocity (0 - 127): 95
0    |  MIDI Event: Chan 6 Control/Mode Change: Channel Pan (0-127): 94
0    |  MIDI Event: Chan 7 Note ON: E5, Velocity (0 - 127): 120
0    |  MIDI Event: Chan 10 Note ON: B1, Velocity (0 - 127): 105
0    |  MIDI Event: Chan 10 Note ON: E2, Velocity (0 - 127): 101
18   |  MIDI Event: Chan 1 Control/Mode Change: Sound Controller 5 (default: Brightness) (0-127): 59
0    |  MIDI Event: Chan 5 Control/Mode Change: Sound Controller 5 (default: Brightness) (0-127): 59
11   |  MIDI Event: Chan 10 Note OFF: E2, Velocity (0 - 127): 64
0    |  MIDI Event: Chan 10 Note OFF: B1, Velocity (0 - 127): 64
0    |  MIDI Event: Chan 6 Note OFF: E5, Velocity (0 - 127): 64
0    |  MIDI Event: Chan 7 Note OFF: E5, Velocity (0 - 127): 64
0    |  MIDI Event: Chan 6 Note OFF: E4, Velocity (0 - 127): 64
1    |  MIDI Event: Chan 6 Note ON: D4, Velocity (0 - 127): 86
0    |  MIDI Event: Chan 6 Note ON: D5, Velocity (0 - 127): 86
0    |  MIDI Event: Chan 7 Note ON: D5, Velocity (0 - 127): 120
10   |  MIDI Event: Chan 6 Control/Mode Change: Channel Pan (0-127): 12
19   |  MIDI Event: Chan 7 Note OFF: D5, Velocity (0 - 127): 64
0    |  MIDI Event: Chan 1 Note OFF: D4, Velocity (0 - 127): 64
0    |  MIDI Event: Chan 1 Note OFF: A3, Velocity (0 - 127): 64
0    |  MIDI Event: Chan 5 Note OFF: D3, Velocity (0 - 127): 64
0    |  MIDI Event: Chan 5 Note OFF: A2, Velocity (0 - 127): 64
0    |  MIDI Event: Chan 1 Note OFF: F#3, Velocity (0 - 127): 64
0    |  MIDI Event: Chan 6 Note OFF: D4, Velocity (0 - 127): 64
0    |  MIDI Event: Chan 6 Note OFF: D5, Velocity (0 - 127): 64
1    |  MIDI Event: Chan 1 Note ON: A3, Velocity (0 - 127): 56
0    |  MIDI Event: Chan 1 Note ON: D4, Velocity (0 - 127): 84
0    |  MIDI Event: Chan 1 Note ON: F#4, Velocity (0 - 127): 49
0    |  MIDI Event: Chan 5 Note ON: D3, Velocity (0 - 127): 105
0    |  MIDI Event: Chan 5 Note ON: F#3, Velocity (0 - 127): 115
0    |  MIDI Event: Chan 6 Note ON: E4, Velocity (0 - 127): 98
0    |  MIDI Event: Chan 6 Note ON: E5, Velocity (0 - 127): 98
0    |  MIDI Event: Chan 7 Note ON: E5, Velocity (0 - 127): 120
9    |  MIDI Event: Chan 1 Control/Mode Change: Sound Controller 5 (default: Brightness) (0-127): 60
0    |  MIDI Event: Chan 5 Control/Mode Change: Sound Controller 5 (default: Brightness) (0-127): 60
11   |  MIDI Event: Chan 6 Control/Mode Change: Channel Pan (0-127): 115
9    |  MIDI Event: Chan 5 Note OFF: F#3, Velocity (0 - 127): 64
0    |  MIDI Event: Chan 5 Note OFF: D3, Velocity (0 - 127): 64
0    |  MIDI Event: Chan 1 Note OFF: A3, Velocity (0 - 127): 64
0    |  MIDI Event: Chan 1 Note OFF: F#4, Velocity (0 - 127): 64
0    |  MIDI Event: Chan 1 Note OFF: D4, Velocity (0 - 127): 64
1    |  MIDI Event: Chan 1 Note ON: A3, Velocity (0 - 127): 84
0    |  MIDI Event: Chan 1 Note ON: D4, Velocity (0 - 127): 94
0    |  MIDI Event: Chan 1 Note ON: F#4, Velocity (0 - 127): 76
0    |  MIDI Event: Chan 5 Note ON: D3, Velocity (0 - 127): 100
0    |  MIDI Event: Chan 5 Note ON: F#3, Velocity (0 - 127): 92
20   |  MIDI Event: Chan 6 Pitch Bend Change (0-16383): 8071 (factor==0.99804)
5    |  MIDI Event: Chan 6 Pitch Bend Change (0-16383): 6296 (factor==0.96972)
3    |  MIDI Event: Chan 6 Pitch Bend Change (0-16383): 4197 (factor==0.937266)
1    |  MIDI Event: Chan 5 Note OFF: F#3, Velocity (0 - 127): 64
0    |  MIDI Event: Chan 6 Note OFF: E4, Velocity (0 - 127): 64
0    |  MIDI Event: Chan 1 Note OFF: D4, Velocity (0 - 127): 64
0    |  MIDI Event: Chan 6 Note OFF: E5, Velocity (0 - 127): 64
0    |  MIDI Event: Chan 7 Note OFF: E5, Velocity (0 - 127): 64
0    |  MIDI Event: Chan 1 Note OFF: A3, Velocity (0 - 127): 64
0    |  MIDI Event: Chan 1 Note OFF: F#4, Velocity (0 - 127): 64
0    |  MIDI Event: Chan 5 Note OFF: D3, Velocity (0 - 127): 64
1    |  MIDI Event: Chan 1 Control/Mode Change: Sound Controller 5 (default: Brightness) (0-127): 61
0    |  MIDI Event: Chan 1 Note ON: E3, Velocity (0 - 127): 47
0    |  MIDI Event: Chan 1 Note ON: A3, Velocity (0 - 127): 89
0    |  MIDI Event: Chan 1 Note ON: C#4, Velocity (0 - 127): 52
0    |  MIDI Event: Chan 5 Control/Mode Change: Sound Controller 5 (default: Brightness) (0-127): 61
0    |  MIDI Event: Chan 5 Note ON: A2, Velocity (0 - 127): 101
0    |  MIDI Event: Chan 5 Note ON: E3, Velocity (0 - 127): 101
0    |  MIDI Event: Chan 6 Note ON: F#4, Velocity (0 - 127): 119
0    |  MIDI Event: Chan 6 Note ON: F#5, Velocity (0 - 127): 119
0    |  MIDI Event: Chan 6 Pitch Bend Change (0-16383): 1776 (factor==0.901179)
0    |  MIDI Event: Chan 6 Control/Mode Change: Channel Pan (0-127): 34
0    |  MIDI Event: Chan 7 Note ON: F#5, Velocity (0 - 127): 120
0    |  MIDI Event: Chan 10 Note ON: B1, Velocity (0 - 127): 105
0    |  MIDI Event: Chan 10 Note ON: E2, Velocity (0 - 127): 101
3    |  MIDI Event: Chan 6 Pitch Bend Change (0-16383): 0 (factor==0.875594)
17   |  MIDI Event: Chan 6 Pitch Bend Change (0-16383): 646 (factor==0.884815)
3    |  MIDI Event: Chan 6 Pitch Bend Change (0-16383): 2422 (factor==0.91067)
2    |  MIDI Event: Chan 6 Pitch Bend Change (0-16383): 4520 (factor==0.942188)
3    |  MIDI Event: Chan 6 Pitch Bend Change (0-16383): 6942 (factor==0.979932)
1    |  MIDI Event: Chan 10 Note OFF: E2, Velocity (0 - 127): 64
0    |  MIDI Event: Chan 10 Note OFF: B1, Velocity (0 - 127): 64
1    |  MIDI Event: Chan 6 Pitch Bend Change (0-16383): 8192 (factor==1)
10   |  MIDI Event: Chan 6 Control/Mode Change: Channel Pan (0-127): 94
11   |  MIDI Event: Chan 1 Control/Mode Change: Sound Controller 5 (default: Brightness) (0-127): 62
0    |  MIDI Event: Chan 5 Control/Mode Change: Sound Controller 5 (default: Brightness) (0-127): 62
8    |  MIDI Event: Chan 5 Note OFF: A2, Velocity (0 - 127): 64
0    |  MIDI Event: Chan 1 Note OFF: E3, Velocity (0 - 127): 64
0    |  MIDI Event: Chan 5 Note OFF: E3, Velocity (0 - 127): 64
0    |  MIDI Event: Chan 1 Note OFF: A3, Velocity (0 - 127): 64
0    |  MIDI Event: Chan 7 Note OFF: F#5, Velocity (0 - 127): 64
0    |  MIDI Event: Chan 6 Note OFF: F#5, Velocity (0 - 127): 64
0    |  MIDI Event: Chan 6 Note OFF: F#4, Velocity (0 - 127): 64
0    |  MIDI Event: Chan 1 Note OFF: C#4, Velocity (0 - 127): 64
1    |  MIDI Event: Chan 1 Note ON: A3, Velocity (0 - 127): 51
0    |  MIDI Event: Chan 1 Note ON: C#4, Velocity (0 - 127): 52
0    |  MIDI Event: Chan 1 Note ON: E4, Velocity (0 - 127): 78
0    |  MIDI Event: Chan 5 Note ON: C#3, Velocity (0 - 127): 89
0    |  MIDI Event: Chan 5 Note ON: E3, Velocity (0 - 127): 101
0    |  MIDI Event: Chan 5 Note ON: A3, Velocity (0 - 127): 89
0    |  MIDI Event: Chan 6 Note ON: D4, Velocity (0 - 127): 111
0    |  MIDI Event: Chan 6 Note ON: D5, Velocity (0 - 127): 111
0    |  MIDI Event: Chan 7 Note ON: D5, Velocity (0 - 127): 120
20   |  MIDI Event: Chan 6 Control/Mode Change: Channel Pan (0-127): 12
9    |  MIDI Event: Chan 5 Note OFF: A3, Velocity (0 - 127): 64
0    |  MIDI Event: Chan 5 Note OFF: C#3, Velocity (0 - 127): 64
0    |  MIDI Event: Chan 1 Note OFF: A3, Velocity (0 - 127): 64
0    |  MIDI Event: Chan 1 Note OFF: E4, Velocity (0 - 127): 64
0    |  MIDI Event: Chan 1 Note OFF: C#4, Velocity (0 - 127): 64
0    |  MIDI Event: Chan 5 Note OFF: E3, Velocity (0 - 127): 64
1    |  MIDI Event: Chan 1 Note ON: A3, Velocity (0 - 127): 73
0    |  MIDI Event: Chan 1 Note ON: C#4, Velocity (0 - 127): 52
0    |  MIDI Event: Chan 1 Note ON: E4, Velocity (0 - 127): 83
0    |  MIDI Event: Chan 5 Note ON: C#3, Velocity (0 - 127): 119
0    |  MIDI Event: Chan 5 Note ON: E3, Velocity (0 - 127): 118
0    |  MIDI Event: Chan 5 Note ON: A3, Velocity (0 - 127): 105
12   |  MIDI Event: Chan 1 Control/Mode Change: Sound Controller 5 (default: Brightness) (0-127): 63
0    |  MIDI Event: Chan 5 Control/Mode Change: Sound Controller 5 (default: Brightness) (0-127): 63
17   |  MIDI Event: Chan 5 Note OFF: A3, Velocity (0 - 127): 64
0    |  MIDI Event: Chan 1 Note OFF: A3, Velocity (0 - 127): 64
0    |  MIDI Event: Chan 6 Note OFF: D4, Velocity (0 - 127): 64
0    |  MIDI Event: Chan 1 Note OFF: C#4, Velocity (0 - 127): 64
0    |  MIDI Event: Chan 6 Note OFF: D5, Velocity (0 - 127): 64
0    |  MIDI Event: Chan 7 Note OFF: D5, Velocity (0 - 127): 64
0    |  MIDI Event: Chan 5 Note OFF: C#3, Velocity (0 - 127): 64
0    |  MIDI Event: Chan 1 Note OFF: E4, Velocity (0 - 127): 64
0    |  MIDI Event: Chan 5 Note OFF: E3, Velocity (0 - 127): 64
1    |  MIDI Event: Chan 1 Note ON: B3, Velocity (0 - 127): 58
0    |  MIDI Event: Chan 1 Note ON: D4, Velocity (0 - 127): 91
0    |  MIDI Event: Chan 5 Note ON: B2, Velocity (0 - 127): 85
0    |  MIDI Event: Chan 5 Note ON: F#3, Velocity (0 - 127): 120
0    |  MIDI Event: Chan 6 Note ON: B3, Velocity (0 - 127): 120
0    |  MIDI Event: Chan 6 Note ON: B4, Velocity (0 - 127): 120
0    |  MIDI Event: Chan 6 Control/Mode Change: Channel Pan (0-127): 115
0    |  MIDI Event: Chan 7 Note ON: B4, Velocity (0 - 127): 120
0    |  MIDI Event: Chan 10 Note ON: D#2, Velocity (0 - 127): 100
0    |  MIDI Event: Chan 10 Note ON: E2, Velocity (0 - 127): 100
0    |  MIDI Event: Chan 13 Control/Mode Change: Sound Controller 5 (default: Brightness) (0-127): 1
0    |  MIDI Event: Chan 13 Control/Mode Change: Expression Control (0-127): 32
0    |  MIDI Event: Chan 13 Note ON: C4, Velocity (0 - 127): 120
15   |  MIDI Event: Chan 13 Control/Mode Change: Sound Controller 5 (default: Brightness) (0-127): 2
0    |  MIDI Event: Chan 13 Control/Mode Change: Expression Control (0-127): 33
14   |  MIDI Event: Chan 10 Note OFF: E2, Velocity (0 - 127): 64
0    |  MIDI Event: Chan 10 Note OFF: D#2, Velocity (0 - 127): 64
1    |  MIDI Event: Chan 13 Control/Mode Change: Sound Controller 5 (default: Brightness) (0-127): 4
0    |  MIDI Event: Chan 13 Control/Mode Change: Expression Control (0-127): 34
10   |  MIDI Event: Chan 6 Control/Mode Change: Channel Pan (0-127): 34
5    |  MIDI Event: Chan 13 Control/Mode Change: Sound Controller 5 (default: Brightness) (0-127): 6
0    |  MIDI Event: Chan 13 Control/Mode Change: Expression Control (0-127): 35
14   |  MIDI Event: Chan 5 Note OFF: F#3, Velocity (0 - 127): 64
0    |  MIDI Event: Chan 7 Note OFF: B4, Velocity (0 - 127): 64
0    |  MIDI Event: Chan 6 Note OFF: B3, Velocity (0 - 127): 64
0    |  MIDI Event: Chan 1 Note OFF: D4, Velocity (0 - 127): 64
0    |  MIDI Event: Chan 5 Note OFF: B2, Velocity (0 - 127): 64
0    |  MIDI Event: Chan 1 Note OFF: B3, Velocity (0 - 127): 64
0    |  MIDI Event: Chan 6 Note OFF: B4, Velocity (0 - 127): 64
1    |  MIDI Event: Chan 1 Note ON: B3, Velocity (0 - 127): 79
0    |  MIDI Event: Chan 1 Note ON: D4, Velocity (0 - 127): 95
0    |  MIDI Event: Chan 1 Note ON: F#4, Velocity (0 - 127): 74
0    |  MIDI Event: Chan 5 Note ON: D3, Velocity (0 - 127): 92
0    |  MIDI Event: Chan 5 Note ON: F#3, Velocity (0 - 127): 87
0    |  MIDI Event: Chan 5 Note ON: D4, Velocity (0 - 127): 95
0    |  MIDI Event: Chan 13 Control/Mode Change: Sound Controller 5 (default: Brightness) (0-127): 8
0    |  MIDI Event: Chan 13 Control/Mode Change: Expression Control (0-127): 36
15   |  MIDI Event: Chan 13 Control/Mode Change: Sound Controller 5 (default: Brightness) (0-127): 9
0    |  MIDI Event: Chan 13 Control/Mode Change: Expression Control (0-127): 37
5    |  MIDI Event: Chan 6 Control/Mode Change: Channel Pan (0-127): 94
10   |  MIDI Event: Chan 13 Control/Mode Change: Sound Controller 5 (default: Brightness) (0-127): 11
0    |  MIDI Event: Chan 13 Control/Mode Change: Expression Control (0-127): 38
15   |  MIDI Event: Chan 13 Control/Mode Change: Sound Controller 5 (default: Brightness) (0-127): 13
0    |  MIDI Event: Chan 13 Control/Mode Change: Expression Control (0-127): 39
15   |  MIDI Event: Chan 6 Note ON: B3, Velocity (0 - 127): 120
0    |  MIDI Event: Chan 6 Note ON: B4, Velocity (0 - 127): 120
0    |  MIDI Event: Chan 6 Control/Mode Change: Channel Pan (0-127): 12
0    |  MIDI Event: Chan 7 Note ON: B4, Velocity (0 - 127): 120
0    |  MIDI Event: Chan 10 Note ON: D#2, Velocity (0 - 127): 87
0    |  MIDI Event: Chan 10 Note ON: E2, Velocity (0 - 127): 94
0    |  MIDI Event: Chan 13 Control/Mode Change: Sound Controller 5 (default: Brightness) (0-127): 15
0    |  MIDI Event: Chan 13 Control/Mode Change: Expression Control (0-127): 40
15   |  MIDI Event: Chan 13 Control/Mode Change: Sound Controller 5 (default: Brightness) (0-127): 16
0    |  MIDI Event: Chan 13 Control/Mode Change: Expression Control (0-127): 41
14   |  MIDI Event: Chan 10 Note OFF: E2, Velocity (0 - 127): 64
0    |  MIDI Event: Chan 1 Note OFF: B3, Velocity (0 - 127): 64
0    |  MIDI Event: Chan 1 Note OFF: D4, Velocity (0 - 127): 64
0    |  MIDI Event: Chan 5 Note OFF: D4, Velocity (0 - 127): 64
0    |  MIDI Event: Chan 1 Note OFF: F#4, Velocity (0 - 127): 64
0    |  MIDI Event: Chan 10 Note OFF: D#2, Velocity (0 - 127): 64
0    |  MIDI Event: Chan 5 Note OFF: D3, Velocity (0 - 127): 64
0    |  MIDI Event: Chan 5 Note OFF: F#3, Velocity (0 - 127): 64
1    |  MIDI Event: Chan 1 Note ON: B3, Velocity (0 - 127): 71
0    |  MIDI Event: Chan 1 Note ON: D4, Velocity (0 - 127): 91
0    |  MIDI Event: Chan 1 Note ON: F#4, Velocity (0 - 127): 60
0    |  MIDI Event: Chan 5 Note ON: F#3, Velocity (0 - 127): 109
0    |  MIDI Event: Chan 5 Note ON: B3, Velocity (0 - 127): 95
0    |  MIDI Event: Chan 13 Control/Mode Change: Sound Controller 5 (default: Brightness) (0-127): 18
0    |  MIDI Event: Chan 13 Control/Mode Change: Expression Control (0-127): 42
10   |  MIDI Event: Chan 6 Control/Mode Change: Channel Pan (0-127): 115
5    |  MIDI Event: Chan 13 Control/Mode Change: Sound Controller 5 (default: Brightness) (0-127): 20
0    |  MIDI Event: Chan 13 Control/Mode Change: Expression Control (0-127): 43
14   |  MIDI Event: Chan 5 Note OFF: B3, Velocity (0 - 127): 64
0    |  MIDI Event: Chan 7 Note OFF: B4, Velocity (0 - 127): 64
0    |  MIDI Event: Chan 6 Note OFF: B4, Velocity (0 - 127): 64
0    |  MIDI Event: Chan 1 Note OFF: B3, Velocity (0 - 127): 64
0    |  MIDI Event: Chan 5 Note OFF: F#3, Velocity (0 - 127): 64
0    |  MIDI Event: Chan 6 Note OFF: B3, Velocity (0 - 127): 64
0    |  MIDI Event: Chan 1 Note OFF: F#4, Velocity (0 - 127): 64
0    |  MIDI Event: Chan 1 Note OFF: D4, Velocity (0 - 127): 64
1    |  MIDI Event: Chan 1 Note ON: D4, Velocity (0 - 127): 80
0    |  MIDI Event: Chan 1 Note ON: F#4, Velocity (0 - 127): 62
0    |  MIDI Event: Chan 1 Note ON: B4, Velocity (0 - 127): 91
0    |  MIDI Event: Chan 5 Note ON: D3, Velocity (0 - 127): 103
0    |  MIDI Event: Chan 5 Note ON: F#3, Velocity (0 - 127): 115
0    |  MIDI Event: Chan 13 Control/Mode Change: Sound Controller 5 (default: Brightness) (0-127): 22
0    |  MIDI Event: Chan 13 Control/Mode Change: Expression Control (0-127): 44
15   |  MIDI Event: Chan 13 Control/Mode Change: Sound Controller 5 (default: Brightness) (0-127): 24
0    |  MIDI Event: Chan 13 Control/Mode Change: Expression Control (0-127): 45
5    |  MIDI Event: Chan 6 Control/Mode Change: Channel Pan (0-127): 34
9    |  MIDI Event: Chan 5 Note OFF: F#3, Velocity (0 - 127): 64
0    |  MIDI Event: Chan 1 Note OFF: D4, Velocity (0 - 127): 64
0    |  MIDI Event: Chan 1 Note OFF: F#4, Velocity (0 - 127): 64
0    |  MIDI Event: Chan 1 Note OFF: B4, Velocity (0 - 127): 64
0    |  MIDI Event: Chan 5 Note OFF: D3, Velocity (0 - 127): 64
1    |  MIDI Event: Chan 1 Note ON: B3, Velocity (0 - 127): 51
0    |  MIDI Event: Chan 1 Note ON: D4, Velocity (0 - 127): 85
0    |  MIDI Event: Chan 1 Note ON: F#4, Velocity (0 - 127): 59
0    |  MIDI Event: Chan 5 Note ON: B2, Velocity (0 - 127): 92
0    |  MIDI Event: Chan 5 Note ON: E3, Velocity (0 - 127): 98
0    |  MIDI Event: Chan 6 Note ON: A3, Velocity (0 - 127): 98
0    |  MIDI Event: Chan 6 Note ON: A4, Velocity (0 - 127): 98
0    |  MIDI Event: Chan 7 Note ON: A4, Velocity (0 - 127): 120
0    |  MIDI Event: Chan 13 Control/Mode Change: Sound Controller 5 (default: Brightness) (0-127): 25
0    |  MIDI Event: Chan 13 Control/Mode Change: Expression Control (0-127): 46
15   |  MIDI Event: Chan 13 Control/Mode Change: Sound Controller 5 (default: Brightness) (0-127): 27
0    |  MIDI Event: Chan 13 Control/Mode Change: Expression Control (0-127): 47
14   |  MIDI Event: Chan 7 Note OFF: A4, Velocity (0 - 127): 64
0    |  MIDI Event: Chan 1 Note OFF: F#4, Velocity (0 - 127): 64
0    |  MIDI Event: Chan 6 Note OFF: A4, Velocity (0 - 127): 64
0    |  MIDI Event: Chan 5 Note OFF: B2, Velocity (0 - 127): 64
0    |  MIDI Event: Chan 1 Note OFF: B3, Velocity (0 - 127): 64
0    |  MIDI Event: Chan 1 Note OFF: D4, Velocity (0 - 127): 64
0    |  MIDI Event: Chan 6 Note OFF: A3, Velocity (0 - 127): 64
0    |  MIDI Event: Chan 5 Note OFF: E3, Velocity (0 - 127): 64
1    |  MIDI Event: Chan 1 Note ON: G3, Velocity (0 - 127): 74
0    |  MIDI Event: Chan 1 Note ON: B3, Velocity (0 - 127): 94
0    |  MIDI Event: Chan 1 Note ON: D4, Velocity (0 - 127): 91
0    |  MIDI Event: Chan 5 Note ON: G2, Velocity (0 - 127): 98
0    |  MIDI Event: Chan 5 Note ON: D3, Velocity (0 - 127): 116
0    |  MIDI Event: Chan 6 Note ON: B3, Velocity (0 - 127): 98
0    |  MIDI Event: Chan 6 Note ON: B4, Velocity (0 - 127): 98
0    |  MIDI Event: Chan 6 Control/Mode Change: Channel Pan (0-127): 94
0    |  MIDI Event: Chan 7 Note ON: B4, Velocity (0 - 127): 120
0    |  MIDI Event: Chan 10 Note ON: D#2, Velocity (0 - 127): 89
0    |  MIDI Event: Chan 10 Note ON: E2, Velocity (0 - 127): 103
0    |  MIDI Event: Chan 13 Control/Mode Change: Sound Controller 5 (default: Brightness) (0-127): 29
0    |  MIDI Event: Chan 13 Control/Mode Change: Expression Control (0-127): 48
15   |  MIDI Event: Chan 13 Control/Mode Change: Sound Controller 5 (default: Brightness) (0-127): 31
0    |  MIDI Event: Chan 13 Control/Mode Change: Expression Control (0-127): 49
14   |  MIDI Event: Chan 10 Note OFF: E2, Velocity (0 - 127): 64
0    |  MIDI Event: Chan 6 Note OFF: B4, Velocity (0 - 127): 64
0    |  MIDI Event: Chan 10 Note OFF: D#2, Velocity (0 - 127): 64
0    |  MIDI Event: Chan 6 Note OFF: B3, Velocity (0 - 127): 64
0    |  MIDI Event: Chan 7 Note OFF: B4, Velocity (0 - 127): 64
1    |  MIDI Event: Chan 6 Note ON: D4, Velocity (0 - 127): 54
0    |  MIDI Event: Chan 6 Note ON: D5, Velocity (0 - 127): 54
0    |  MIDI Event: Chan 7 Note ON: D5, Velocity (0 - 127): 120
0    |  MIDI Event: Chan 13 Control/Mode Change: Sound Controller 5 (default: Brightness) (0-127): 32
0    |  MIDI Event: Chan 13 Control/Mode Change: Expression Control (0-127): 50
10   |  MIDI Event: Chan 6 Control/Mode Change: Channel Pan (0-127): 12
5    |  MIDI Event: Chan 13 Control/Mode Change: Sound Controller 5 (default: Brightness) (0-127): 34
0    |  MIDI Event: Chan 13 Control/Mode Change: Expression Control (0-127): 51
14   |  MIDI Event: Chan 7 Note OFF: D5, Velocity (0 - 127): 64
0    |  MIDI Event: Chan 1 Note OFF: B3, Velocity (0 - 127): 64
0    |  MIDI Event: Chan 6 Note OFF: D5, Velocity (0 - 127): 64
0    |  MIDI Event: Chan 5 Note OFF: D3, Velocity (0 - 127): 64
0    |  MIDI Event: Chan 1 Note OFF: G3, Velocity (0 - 127): 64
0    |  MIDI Event: Chan 1 Note OFF: D4, Velocity (0 - 127): 64
0    |  MIDI Event: Chan 6 Note OFF: D4, Velocity (0 - 127): 64
0    |  MIDI Event: Chan 5 Note OFF: G2, Velocity (0 - 127): 64
1    |  MIDI Event: Chan 1 Note ON: B3, Velocity (0 - 127): 70
0    |  MIDI Event: Chan 1 Note ON: D4, Velocity (0 - 127): 94
0    |  MIDI Event: Chan 1 Note ON: G4, Velocity (0 - 127): 101
0    |  MIDI Event: Chan 5 Note ON: D3, Velocity (0 - 127): 79
0    |  MIDI Event: Chan 5 Note ON: G3, Velocity (0 - 127): 111
0    |  MIDI Event: Chan 5 Note ON: B3, Velocity (0 - 127): 100
0    |  MIDI Event: Chan 6 Note ON: B3, Velocity (0 - 127): 116
0    |  MIDI Event: Chan 6 Note ON: B4, Velocity (0 - 127): 116
0    |  MIDI Event: Chan 7 Note ON: B4, Velocity (0 - 127): 120
0    |  MIDI Event: Chan 13 Control/Mode Change: Sound Controller 5 (default: Brightness) (0-127): 36
0    |  MIDI Event: Chan 13 Control/Mode Change: Expression Control (0-127): 52
15   |  MIDI Event: Chan 13 Control/Mode Change: Sound Controller 5 (default: Brightness) (0-127): 38
0    |  MIDI Event: Chan 13 Control/Mode Change: Expression Control (0-127): 53
5    |  MIDI Event: Chan 6 Control/Mode Change: Channel Pan (0-127): 115
10   |  MIDI Event: Chan 13 Control/Mode Change: Sound Controller 5 (default: Brightness) (0-127): 40
0    |  MIDI Event: Chan 13 Control/Mode Change: Expression Control (0-127): 54
15   |  MIDI Event: Chan 13 Control/Mode Change: Sound Controller 5 (default: Brightness) (0-127): 41
0    |  MIDI Event: Chan 13 Control/Mode Change: Expression Control (0-127): 55
14   |  MIDI Event: Chan 7 Note OFF: B4, Velocity (0 - 127): 64
0    |  MIDI Event: Chan 6 Note OFF: B4, Velocity (0 - 127): 64
0    |  MIDI Event: Chan 6 Note OFF: B3, Velocity (0 - 127): 64
1    |  MIDI Event: Chan 6 Control/Mode Change: Channel Pan (0-127): 34
0    |  MIDI Event: Chan 10 Note ON: D#2, Velocity (0 - 127): 86
0    |  MIDI Event: Chan 10 Note ON: E2, Velocity (0 - 127): 101
0    |  MIDI Event: Chan 13 Control/Mode Change: Sound Controller 5 (default: Brightness) (0-127): 43
0    |  MIDI Event: Chan 13 Control/Mode Change: Expression Control (0-127): 56
15   |  MIDI Event: Chan 13 Control/Mode Change: Sound Controller 5 (default: Brightness) (0-127): 45
0    |  MIDI Event: Chan 13 Control/Mode Change: Expression Control (0-127): 57
14   |  MIDI Event: Chan 10 Note OFF: E2, Velocity (0 - 127): 64
0    |  MIDI Event: Chan 5 Note OFF: B3, Velocity (0 - 127): 64
0    |  MIDI Event: Chan 10 Note OFF: D#2, Velocity (0 - 127): 64
0    |  MIDI Event: Chan 5 Note OFF: D3, Velocity (0 - 127): 64
0    |  MIDI Event: Chan 1 Note OFF: B3, Velocity (0 - 127): 64
0    |  MIDI Event: Chan 1 Note OFF: D4, Velocity (0 - 127): 64
0    |  MIDI Event: Chan 1 Note OFF: G4, Velocity (0 - 127): 64
0    |  MIDI Event: Chan 5 Note OFF: G3, Velocity (0 - 127): 64
1    |  MIDI Event: Chan 1 Note ON: B3, Velocity (0 - 127): 52
0    |  MIDI Event: Chan 1 Note ON: D4, Velocity (0 - 127): 85
0    |  MIDI Event: Chan 1 Note ON: G4, Velocity (0 - 127): 94
0    |  MIDI Event: Chan 5 Note ON: D3, Velocity (0 - 127): 82
0    |  MIDI Event: Chan 5 Note ON: G3, Velocity (0 - 127): 98
0    |  MIDI Event: Chan 5 Note ON: B3, Velocity (0 - 127): 85
0    |  MIDI Event: Chan 6 Note ON: A3, Velocity (0 - 127): 83
0    |  MIDI Event: Chan 6 Note ON: A4, Velocity (0 - 127): 83
0    |  MIDI Event: Chan 7 Note ON: A4, Velocity (0 - 127): 120
0    |  MIDI Event: Chan 13 Control/Mode Change: Sound Controller 5 (default: Brightness) (0-127): 47
0    |  MIDI Event: Chan 13 Control/Mode Change: Expression Control (0-127): 58
10   |  MIDI Event: Chan 6 Control/Mode Change: Channel Pan (0-127): 94
5    |  MIDI Event: Chan 13 Control/Mode Change: Sound Controller 5 (default: Brightness) (0-127): 48
0    |  MIDI Event: Chan 13 Control/Mode Change: Expression Control (0-127): 59
14   |  MIDI Event: Chan 7 Note OFF: A4, Velocity (0 - 127): 64
0    |  MIDI Event: Chan 1 Note OFF: D4, Velocity (0 - 127): 64
0    |  MIDI Event: Chan 1 Note OFF: G4, Velocity (0 - 127): 64
0    |  MIDI Event: Chan 6 Note OFF: A4, Velocity (0 - 127): 64
0    |  MIDI Event: Chan 5 Note OFF: D3, Velocity (0 - 127): 64
0    |  MIDI Event: Chan 1 Note OFF: B3, Velocity (0 - 127): 64
0    |  MIDI Event: Chan 6 Note OFF: A3, Velocity (0 - 127): 64
0    |  MIDI Event: Chan 5 Note OFF: B3, Velocity (0 - 127): 64
0    |  MIDI Event: Chan 5 Note OFF: G3, Velocity (0 - 127): 64
1    |  MIDI Event: Chan 1 Note ON: D4, Velocity (0 - 127): 78
0    |  MIDI Event: Chan 1 Note ON: G4, Velocity (0 - 127): 100
0    |  MIDI Event: Chan 1 Note ON: B4, Velocity (0 - 127): 46
0    |  MIDI Event: Chan 5 Note ON: G2, Velocity (0 - 127): 109
0    |  MIDI Event: Chan 5 Note ON: D3, Velocity (0 - 127): 109
0    |  MIDI Event: Chan 6 Note ON: B3, Velocity (0 - 127): 98
0    |  MIDI Event: Chan 6 Note ON: B4, Velocity (0 - 127): 98
0    |  MIDI Event: Chan 7 Note ON: B4, Velocity (0 - 127): 120
0    |  MIDI Event: Chan 13 Control/Mode Change: Sound Controller 5 (default: Brightness) (0-127): 50
0    |  MIDI Event: Chan 13 Control/Mode Change: Expression Control (0-127): 60
15   |  MIDI Event: Chan 13 Control/Mode Change: Sound Controller 5 (default: Brightness) (0-127): 52
0    |  MIDI Event: Chan 13 Control/Mode Change: Expression Control (0-127): 61
5    |  MIDI Event: Chan 6 Control/Mode Change: Channel Pan (0-127): 12
9    |  MIDI Event: Chan 7 Note OFF: B4, Velocity (0 - 127): 64
0    |  MIDI Event: Chan 1 Note OFF: B4, Velocity (0 - 127): 64
0    |  MIDI Event: Chan 6 Note OFF: B4, Velocity (0 - 127): 64
0    |  MIDI Event: Chan 5 Note OFF: G2, Velocity (0 - 127): 64
0    |  MIDI Event: Chan 1 Note OFF: D4, Velocity (0 - 127): 64
0    |  MIDI Event: Chan 1 Note OFF: G4, Velocity (0 - 127): 64
0    |  MIDI Event: Chan 6 Note OFF: B3, Velocity (0 - 127): 64
0    |  MIDI Event: Chan 5 Note OFF: D3, Velocity (0 - 127): 64
1    |  MIDI Event: Chan 1 Note ON: B3, Velocity (0 - 127): 45
0    |  MIDI Event: Chan 1 Note ON: D4, Velocity (0 - 127): 73
0    |  MIDI Event: Chan 1 Note ON: G4, Velocity (0 - 127): 86
0    |  MIDI Event: Chan 5 Note ON: G2, Velocity (0 - 127): 101
0    |  MIDI Event: Chan 5 Note ON: E3, Velocity (0 - 127): 116
0    |  MIDI Event: Chan 6 Note ON: A3, Velocity (0 - 127): 94
0    |  MIDI Event: Chan 6 Note ON: A4, Velocity (0 - 127): 94
0    |  MIDI Event: Chan 7 Note ON: A4, Velocity (0 - 127): 120
0    |  MIDI Event: Chan 13 Control/Mode Change: Sound Controller 5 (default: Brightness) (0-127): 54
0    |  MIDI Event: Chan 13 Control/Mode Change: Expression Control (0-127): 62
15   |  MIDI Event: Chan 13 Control/Mode Change: Sound Controller 5 (default: Brightness) (0-127): 56
0    |  MIDI Event: Chan 13 Control/Mode Change: Expression Control (0-127): 63
14   |  MIDI Event: Chan 7 Note OFF: A4, Velocity (0 - 127): 64
0    |  MIDI Event: Chan 1 Note OFF: G4, Velocity (0 - 127): 64
0    |  MIDI Event: Chan 6 Note OFF: A4, Velocity (0 - 127): 64
0    |  MIDI Event: Chan 5 Note OFF: G2, Velocity (0 - 127): 64
0    |  MIDI Event: Chan 1 Note OFF: B3, Velocity (0 - 127): 64
0    |  MIDI Event: Chan 1 Note OFF: D4, Velocity (0 - 127): 64
0    |  MIDI Event: Chan 6 Note OFF: A3, Velocity (0 - 127): 64
0    |  MIDI Event: Chan 5 Note OFF: E3, Velocity (0 - 127): 64
1    |  MIDI Event: Chan 1 Note ON: F#3, Velocity (0 - 127): 35
0    |  MIDI Event: Chan 1 Note ON: A3, Velocity (0 - 127): 85
0    |  MIDI Event: Chan 1 Note ON: D4, Velocity (0 - 127): 79
0    |  MIDI Event: Chan 5 Note ON: A2, Velocity (0 - 127): 90
0    |  MIDI Event: Chan 5 Note ON: D3, Velocity (0 - 127): 105
0    |  MIDI Event: Chan 6 Note ON: D4, Velocity (0 - 127): 120
0    |  MIDI Event: Chan 6 Note ON: D5, Velocity (0 - 127): 120
0    |  MIDI Event: Chan 6 Control/Mode Change: Channel Pan (0-127): 115
0    |  MIDI Event: Chan 7 Note ON: D5, Velocity (0 - 127): 120
0    |  MIDI Event: Chan 10 Note ON: D#2, Velocity (0 - 127): 86
0    |  MIDI Event: Chan 10 Note ON: E2, Velocity (0 - 127): 101
0    |  MIDI Event: Chan 13 Control/Mode Change: Sound Controller 5 (default: Brightness) (0-127): 57
0    |  MIDI Event: Chan 13 Control/Mode Change: Expression Control (0-127): 64
15   |  MIDI Event: Chan 13 Control/Mode Change: Sound Controller 5 (default: Brightness) (0-127): 59
0    |  MIDI Event: Chan 13 Control/Mode Change: Expression Control (0-127): 65
14   |  MIDI Event: Chan 10 Note OFF: E2, Velocity (0 - 127): 64
0    |  MIDI Event: Chan 10 Note OFF: D#2, Velocity (0 - 127): 64
1    |  MIDI Event: Chan 13 Control/Mode Change: Sound Controller 5 (default: Brightness) (0-127): 61
0    |  MIDI Event: Chan 13 Control/Mode Change: Expression Control (0-127): 66
10   |  MIDI Event: Chan 6 Control/Mode Change: Channel Pan (0-127): 34
5    |  MIDI Event: Chan 13 Control/Mode Change: Sound Controller 5 (default: Brightness) (0-127): 63
0    |  MIDI Event: Chan 13 Control/Mode Change: Expression Control (0-127): 67
14   |  MIDI Event: Chan 1 Note OFF: A3, Velocity (0 - 127): 64
0    |  MIDI Event: Chan 1 Note OFF: D4, Velocity (0 - 127): 64
0    |  MIDI Event: Chan 6 Note OFF: D5, Velocity (0 - 127): 64
0    |  MIDI Event: Chan 5 Note OFF: A2, Velocity (0 - 127): 64
0    |  MIDI Event: Chan 1 Note OFF: F#3, Velocity (0 - 127): 64
0    |  MIDI Event: Chan 7 Note OFF: D5, Velocity (0 - 127): 64
0    |  MIDI Event: Chan 6 Note OFF: D4, Velocity (0 - 127): 64
0    |  MIDI Event: Chan 5 Note OFF: D3, Velocity (0 - 127): 64
1    |  MIDI Event: Chan 1 Note ON: A3, Velocity (0 - 127): 69
0    |  MIDI Event: Chan 1 Note ON: D4, Velocity (0 - 127): 98
0    |  MIDI Event: Chan 1 Note ON: F#4, Velocity (0 - 127): 74
0    |  MIDI Event: Chan 5 Note ON: A2, Velocity (0 - 127): 100
0    |  MIDI Event: Chan 5 Note ON: D3, Velocity (0 - 127): 111
0    |  MIDI Event: Chan 5 Note ON: F#3, Velocity (0 - 127): 89
0    |  MIDI Event: Chan 13 Control/Mode Change: Sound Controller 5 (default: Brightness) (0-127): 64
0    |  MIDI Event: Chan 13 Control/Mode Change: Expression Control (0-127): 68
15   |  MIDI Event: Chan 13 Control/Mode Change: Sound Controller 5 (default: Brightness) (0-127): 66
0    |  MIDI Event: Chan 13 Control/Mode Change: Expression Control (0-127): 69
5    |  MIDI Event: Chan 6 Control/Mode Change: Channel Pan (0-127): 94
10   |  MIDI Event: Chan 13 Control/Mode Change: Sound Controller 5 (default: Brightness) (0-127): 68
0    |  MIDI Event: Chan 13 Control/Mode Change: Expression Control (0-127): 70
15   |  MIDI Event: Chan 13 Control/Mode Change: Sound Controller 5 (default: Brightness) (0-127): 70
0    |  MIDI Event: Chan 13 Control/Mode Change: Expression Control (0-127): 71
15   |  MIDI Event: Chan 6 Note ON: D4, Velocity (0 - 127): 120
0    |  MIDI Event: Chan 6 Note ON: D5, Velocity (0 - 127): 120
0    |  MIDI Event: Chan 6 Control/Mode Change: Channel Pan (0-127): 12
0    |  MIDI Event: Chan 7 Note ON: D5, Velocity (0 - 127): 120
0    |  MIDI Event: Chan 10 Note ON: D#2, Velocity (0 - 127): 87
0    |  MIDI Event: Chan 10 Note ON: E2, Velocity (0 - 127): 105
0    |  MIDI Event: Chan 13 Control/Mode Change: Sound Controller 5 (default: Brightness) (0-127): 71
0    |  MIDI Event: Chan 13 Control/Mode Change: Expression Control (0-127): 72
15   |  MIDI Event: Chan 13 Control/Mode Change: Sound Controller 5 (default: Brightness) (0-127): 73
0    |  MIDI Event: Chan 13 Control/Mode Change: Expression Control (0-127): 73
14   |  MIDI Event: Chan 10 Note OFF: E2, Velocity (0 - 127): 64
0    |  MIDI Event: Chan 1 Note OFF: A3, Velocity (0 - 127): 64
0    |  MIDI Event: Chan 1 Note OFF: D4, Velocity (0 - 127): 64
0    |  MIDI Event: Chan 5 Note OFF: F#3, Velocity (0 - 127): 64
0    |  MIDI Event: Chan 1 Note OFF: F#4, Velocity (0 - 127): 64
0    |  MIDI Event: Chan 10 Note OFF: D#2, Velocity (0 - 127): 64
0    |  MIDI Event: Chan 5 Note OFF: A2, Velocity (0 - 127): 64
0    |  MIDI Event: Chan 5 Note OFF: D3, Velocity (0 - 127): 64
1    |  MIDI Event: Chan 1 Note ON: F#3, Velocity (0 - 127): 44
0    |  MIDI Event: Chan 1 Note ON: A3, Velocity (0 - 127): 78
0    |  MIDI Event: Chan 1 Note ON: D4, Velocity (0 - 127): 58
0    |  MIDI Event: Chan 5 Note ON: A2, Velocity (0 - 127): 85
0    |  MIDI Event: Chan 5 Note ON: D3, Velocity (0 - 127): 105
0    |  MIDI Event: Chan 5 Note ON: F#3, Velocity (0 - 127): 81
0    |  MIDI Event: Chan 13 Control/Mode Change: Sound Controller 5 (default: Brightness) (0-127): 75
0    |  MIDI Event: Chan 13 Control/Mode Change: Expression Control (0-127): 74
10   |  MIDI Event: Chan 6 Control/Mode Change: Channel Pan (0-127): 115
5    |  MIDI Event: Chan 13 Control/Mode Change: Sound Controller 5 (default: Brightness) (0-127): 77
0    |  MIDI Event: Chan 13 Control/Mode Change: Expression Control (0-127): 75
14   |  MIDI Event: Chan 5 Note OFF: F#3, Velocity (0 - 127): 64
0    |  MIDI Event: Chan 6 Note OFF: D4, Velocity (0 - 127): 64
0    |  MIDI Event: Chan 7 Note OFF: D5, Velocity (0 - 127): 64
0    |  MIDI Event: Chan 6 Note OFF: D5, Velocity (0 - 127): 64
0    |  MIDI Event: Chan 1 Note OFF: F#3, Velocity (0 - 127): 64
0    |  MIDI Event: Chan 5 Note OFF: D3, Velocity (0 - 127): 64
0    |  MIDI Event: Chan 5 Note OFF: A2, Velocity (0 - 127): 64
0    |  MIDI Event: Chan 1 Note OFF: D4, Velocity (0 - 127): 64
0    |  MIDI Event: Chan 1 Note OFF: A3, Velocity (0 - 127): 64
1    |  MIDI Event: Chan 1 Note ON: A3, Velocity (0 - 127): 57
0    |  MIDI Event: Chan 1 Note ON: D4, Velocity (0 - 127): 91
0    |  MIDI Event: Chan 1 Note ON: F#4, Velocity (0 - 127): 77
0    |  MIDI Event: Chan 5 Note ON: D3, Velocity (0 - 127): 109
0    |  MIDI Event: Chan 5 Note ON: F#3, Velocity (0 - 127): 89
0    |  MIDI Event: Chan 5 Note ON: A3, Velocity (0 - 127): 109
0    |  MIDI Event: Chan 13 Control/Mode Change: Sound Controller 5 (default: Brightness) (0-127): 79
0    |  MIDI Event: Chan 13 Control/Mode Change: Expression Control (0-127): 76
15   |  MIDI Event: Chan 13 Control/Mode Change: Sound Controller 5 (default: Brightness) (0-127): 80
0    |  MIDI Event: Chan 13 Control/Mode Change: Expression Control (0-127): 77
5    |  MIDI Event: Chan 6 Control/Mode Change: Channel Pan (0-127): 34
9    |  MIDI Event: Chan 5 Note OFF: A3, Velocity (0 - 127): 64
0    |  MIDI Event: Chan 5 Note OFF: D3, Velocity (0 - 127): 64
0    |  MIDI Event: Chan 1 Note OFF: A3, Velocity (0 - 127): 64
0    |  MIDI Event: Chan 1 Note OFF: D4, Velocity (0 - 127): 64
0    |  MIDI Event: Chan 1 Note OFF: F#4, Velocity (0 - 127): 64
0    |  MIDI Event: Chan 5 Note OFF: F#3, Velocity (0 - 127): 64
1    |  MIDI Event: Chan 1 Note ON: F#3, Velocity (0 - 127): 35
0    |  MIDI Event: Chan 1 Note ON: A3, Velocity (0 - 127): 79
0    |  MIDI Event: Chan 1 Note ON: D4, Velocity (0 - 127): 56
0    |  MIDI Event: Chan 5 Note ON: D3, Velocity (0 - 127): 111
0    |  MIDI Event: Chan 5 Note ON: F#3, Velocity (0 - 127): 100
0    |  MIDI Event: Chan 5 Note ON: A3, Velocity (0 - 127): 100
0    |  MIDI Event: Chan 6 Note ON: D4, Velocity (0 - 127): 89
0    |  MIDI Event: Chan 6 Note ON: D5, Velocity (0 - 127): 89
0    |  MIDI Event: Chan 7 Note ON: D5, Velocity (0 - 127): 120
0    |  MIDI Event: Chan 13 Control/Mode Change: Sound Controller 5 (default: Brightness) (0-127): 82
0    |  MIDI Event: Chan 13 Control/Mode Change: Expression Control (0-127): 78
15   |  MIDI Event: Chan 13 Control/Mode Change: Sound Controller 5 (default: Brightness) (0-127): 84
0    |  MIDI Event: Chan 13 Control/Mode Change: Expression Control (0-127): 79
14   |  MIDI Event: Chan 7 Note OFF: D5, Velocity (0 - 127): 64
0    |  MIDI Event: Chan 1 Note OFF: A3, Velocity (0 - 127): 64
0    |  MIDI Event: Chan 1 Note OFF: D4, Velocity (0 - 127): 64
0    |  MIDI Event: Chan 6 Note OFF: D5, Velocity (0 - 127): 64
0    |  MIDI Event: Chan 5 Note OFF: D3, Velocity (0 - 127): 64
0    |  MIDI Event: Chan 1 Note OFF: F#3, Velocity (0 - 127): 64
0    |  MIDI Event: Chan 6 Note OFF: D4, Velocity (0 - 127): 64
0    |  MIDI Event: Chan 5 Note OFF: A3, Velocity (0 - 127): 64
0    |  MIDI Event: Chan 5 Note OFF: F#3, Velocity (0 - 127): 64
1    |  MIDI Event: Chan 1 Control/Mode Change: Sound Controller 5 (default: Brightness) (0-127): 68
0    |  MIDI Event: Chan 1 Note ON: F#3, Velocity (0 - 127): 49
0    |  MIDI Event: Chan 1 Note ON: A3, Velocity (0 - 127): 85
0    |  MIDI Event: Chan 1 Note ON: D4, Velocity (0 - 127): 75
0    |  MIDI Event: Chan 5 Control/Mode Change: Sound Controller 5 (default: Brightness) (0-127): 68
0    |  MIDI Event: Chan 5 Note ON: A2, Velocity (0 - 127): 105
0    |  MIDI Event: Chan 5 Note ON: D3, Velocity (0 - 127): 116
0    |  MIDI Event: Chan 6 Note ON: E4, Velocity (0 - 127): 81
0    |  MIDI Event: Chan 6 Note ON: E5, Velocity (0 - 127): 81
0    |  MIDI Event: Chan 6 Control/Mode Change: Channel Pan (0-127): 94
0    |  MIDI Event: Chan 7 Note ON: E5, Velocity (0 - 127): 120
0    |  MIDI Event: Chan 10 Note ON: D#2, Velocity (0 - 127): 87
0    |  MIDI Event: Chan 10 Note ON: E2, Velocity (0 - 127): 101
0    |  MIDI Event: Chan 13 Control/Mode Change: Sound Controller 5 (default: Brightness) (0-127): 86
0    |  MIDI Event: Chan 13 Control/Mode Change: Expression Control (0-127): 80
15   |  MIDI Event: Chan 1 Control/Mode Change: Sound Controller 5 (default: Brightness) (0-127): 70
0    |  MIDI Event: Chan 5 Control/Mode Change: Sound Controller 5 (default: Brightness) (0-127): 70
0    |  MIDI Event: Chan 13 Control/Mode Change: Sound Controller 5 (default: Brightness) (0-127): 87
0    |  MIDI Event: Chan 13 Control/Mode Change: Expression Control (0-127): 81
14   |  MIDI Event: Chan 10 Note OFF: E2, Velocity (0 - 127): 64
0    |  MIDI Event: Chan 6 Note OFF: E5, Velocity (0 - 127): 64
0    |  MIDI Event: Chan 10 Note OFF: D#2, Velocity (0 - 127): 64
0    |  MIDI Event: Chan 6 Note OFF: E4, Velocity (0 - 127): 64
0    |  MIDI Event: Chan 7 Note OFF: E5, Velocity (0 - 127): 64
1    |  MIDI Event: Chan 1 Control/Mode Change: Sound Controller 5 (default: Brightness) (0-127): 72
0    |  MIDI Event: Chan 5 Control/Mode Change: Sound Controller 5 (default: Brightness) (0-127): 72
0    |  MIDI Event: Chan 6 Note ON: D4, Velocity (0 - 127): 95
0    |  MIDI Event: Chan 6 Note ON: D5, Velocity (0 - 127): 95
0    |  MIDI Event: Chan 7 Note ON: D5, Velocity (0 - 127): 120
0    |  MIDI Event: Chan 13 Control/Mode Change: Sound Controller 5 (default: Brightness) (0-127): 89
0    |  MIDI Event: Chan 13 Control/Mode Change: Expression Control (0-127): 82
10   |  MIDI Event: Chan 6 Control/Mode Change: Channel Pan (0-127): 12
5    |  MIDI Event: Chan 1 Control/Mode Change: Sound Controller 5 (default: Brightness) (0-127): 74
0    |  MIDI Event: Chan 5 Control/Mode Change: Sound Controller 5 (default: Brightness) (0-127): 74
0    |  MIDI Event: Chan 13 Control/Mode Change: Sound Controller 5 (default: Brightness) (0-127): 91
0    |  MIDI Event: Chan 13 Control/Mode Change: Expression Control (0-127): 83
14   |  MIDI Event: Chan 7 Note OFF: D5, Velocity (0 - 127): 64
0    |  MIDI Event: Chan 1 Note OFF: A3, Velocity (0 - 127): 64
0    |  MIDI Event: Chan 6 Note OFF: D5, Velocity (0 - 127): 64
0    |  MIDI Event: Chan 5 Note OFF: D3, Velocity (0 - 127): 64
0    |  MIDI Event: Chan 1 Note OFF: F#3, Velocity (0 - 127): 64
0    |  MIDI Event: Chan 1 Note OFF: D4, Velocity (0 - 127): 64
0    |  MIDI Event: Chan 6 Note OFF: D4, Velocity (0 - 127): 64
0    |  MIDI Event: Chan 5 Note OFF: A2, Velocity (0 - 127): 64
1    |  MIDI Event: Chan 1 Control/Mode Change: Sound Controller 5 (default: Brightness) (0-127): 76
0    |  MIDI Event: Chan 1 Note ON: A3, Velocity (0 - 127): 56
0    |  MIDI Event: Chan 1 Note ON: D4, Velocity (0 - 127): 84
0    |  MIDI Event: Chan 1 Note ON: F#4, Velocity (0 - 127): 49
0    |  MIDI Event: Chan 5 Control/Mode Change: Sound Controller 5 (default: Brightness) (0-127): 76
0    |  MIDI Event: Chan 5 Note ON: D3, Velocity (0 - 127): 105
0    |  MIDI Event: Chan 5 Note ON: F#3, Velocity (0 - 127): 115
0    |  MIDI Event: Chan 6 Note ON: E4, Velocity (0 - 127): 111
0    |  MIDI Event: Chan 6 Note ON: E5, Velocity (0 - 127): 111
0    |  MIDI Event: Chan 7 Note ON: E5, Velocity (0 - 127): 120
0    |  MIDI Event: Chan 13 Control/Mode Change: Sound Controller 5 (default: Brightness) (0-127): 93
0    |  MIDI Event: Chan 13 Control/Mode Change: Expression Control (0-127): 84
15   |  MIDI Event: Chan 1 Control/Mode Change: Sound Controller 5 (default: Brightness) (0-127): 78
0    |  MIDI Event: Chan 5 Control/Mode Change: Sound Controller 5 (default: Brightness) (0-127): 78
0    |  MIDI Event: Chan 13 Control/Mode Change: Sound Controller 5 (default: Brightness) (0-127): 95
0    |  MIDI Event: Chan 13 Control/Mode Change: Expression Control (0-127): 85
5    |  MIDI Event: Chan 6 Control/Mode Change: Channel Pan (0-127): 115
9    |  MIDI Event: Chan 5 Note OFF: F#3, Velocity (0 - 127): 64
0    |  MIDI Event: Chan 1 Note OFF: F#4, Velocity (0 - 127): 64
0    |  MIDI Event: Chan 1 Note OFF: D4, Velocity (0 - 127): 64
0    |  MIDI Event: Chan 5 Note OFF: D3, Velocity (0 - 127): 64
0    |  MIDI Event: Chan 1 Note OFF: A3, Velocity (0 - 127): 64
1    |  MIDI Event: Chan 1 Control/Mode Change: Sound Controller 5 (default: Brightness) (0-127): 81
0    |  MIDI Event: Chan 1 Note ON: A3, Velocity (0 - 127): 84
0    |  MIDI Event: Chan 1 Note ON: D4, Velocity (0 - 127): 94
0    |  MIDI Event: Chan 1 Note ON: F#4, Velocity (0 - 127): 76
0    |  MIDI Event: Chan 5 Control/Mode Change: Sound Controller 5 (default: Brightness) (0-127): 81
0    |  MIDI Event: Chan 5 Note ON: D3, Velocity (0 - 127): 100
0    |  MIDI Event: Chan 5 Note ON: F#3, Velocity (0 - 127): 92
0    |  MIDI Event: Chan 13 Control/Mode Change: Sound Controller 5 (default: Brightness) (0-127): 96
0    |  MIDI Event: Chan 13 Control/Mode Change: Expression Control (0-127): 86
15   |  MIDI Event: Chan 1 Control/Mode Change: Sound Controller 5 (default: Brightness) (0-127): 83
0    |  MIDI Event: Chan 5 Control/Mode Change: Sound Controller 5 (default: Brightness) (0-127): 83
0    |  MIDI Event: Chan 13 Control/Mode Change: Sound Controller 5 (default: Brightness) (0-127): 98
0    |  MIDI Event: Chan 13 Control/Mode Change: Expression Control (0-127): 87
6    |  MIDI Event: Chan 6 Pitch Bend Change (0-16383): 7749 (factor==0.992841)
2    |  MIDI Event: Chan 6 Pitch Bend Change (0-16383): 6215 (factor==0.968447)
3    |  MIDI Event: Chan 6 Pitch Bend Change (0-16383): 4197 (factor==0.937266)
2    |  MIDI Event: Chan 6 Pitch Bend Change (0-16383): 2422 (factor==0.91067)
1    |  MIDI Event: Chan 5 Note OFF: F#3, Velocity (0 - 127): 64
0    |  MIDI Event: Chan 6 Note OFF: E5, Velocity (0 - 127): 64
0    |  MIDI Event: Chan 5 Note OFF: D3, Velocity (0 - 127): 64
0    |  MIDI Event: Chan 1 Note OFF: A3, Velocity (0 - 127): 64
0    |  MIDI Event: Chan 6 Note OFF: E4, Velocity (0 - 127): 64
0    |  MIDI Event: Chan 7 Note OFF: E5, Velocity (0 - 127): 64
0    |  MIDI Event: Chan 1 Note OFF: F#4, Velocity (0 - 127): 64
0    |  MIDI Event: Chan 1 Note OFF: D4, Velocity (0 - 127): 64
1    |  MIDI Event: Chan 1 Control/Mode Change: Sound Controller 5 (default: Brightness) (0-127): 85
0    |  MIDI Event: Chan 1 Note ON: E3, Velocity (0 - 127): 47
0    |  MIDI Event: Chan 1 Note ON: A3, Velocity (0 - 127): 89
0    |  MIDI Event: Chan 1 Note ON: C#4, Velocity (0 - 127): 52
0    |  MIDI Event: Chan 5 Control/Mode Change: Sound Controller 5 (default: Brightness) (0-127): 85
0    |  MIDI Event: Chan 5 Note ON: A2, Velocity (0 - 127): 101
0    |  MIDI Event: Chan 5 Note ON: E3, Velocity (0 - 127): 101
0    |  MIDI Event: Chan 6 Note ON: F#4, Velocity (0 - 127): 119
0    |  MIDI Event: Chan 6 Note ON: F#5, Velocity (0 - 127): 119
0    |  MIDI Event: Chan 6 Control/Mode Change: Channel Pan (0-127): 34
0    |  MIDI Event: Chan 7 Note ON: F#5, Velocity (0 - 127): 120
0    |  MIDI Event: Chan 10 Note ON: D#2, Velocity (0 - 127): 81
0    |  MIDI Event: Chan 10 Note ON: E2, Velocity (0 - 127): 98
0    |  MIDI Event: Chan 13 Control/Mode Change: Sound Controller 5 (default: Brightness) (0-127): 100
0    |  MIDI Event: Chan 13 Control/Mode Change: Expression Control (0-127): 88
1    |  MIDI Event: Chan 6 Pitch Bend Change (0-16383): 1211 (factor==0.89296)
2    |  MIDI Event: Chan 6 Pitch Bend Change (0-16383): 646 (factor==0.884815)
3    |  MIDI Event: Chan 6 Pitch Bend Change (0-16383): 565 (factor==0.883653)
2    |  MIDI Event: Chan 6 Pitch Bend Change (0-16383): 646 (factor==0.884815)
3    |  MIDI Event: Chan 6 Pitch Bend Change (0-16383): 1373 (factor==0.895309)
2    |  MIDI Event: Chan 6 Pitch Bend Change (0-16383): 2260 (factor==0.908281)
2    |  MIDI Event: Chan 1 Control/Mode Change: Sound Controller 5 (default: Brightness) (0-127): 87
0    |  MIDI Event: Chan 5 Control/Mode Change: Sound Controller 5 (default: Brightness) (0-127): 87
0    |  MIDI Event: Chan 13 Control/Mode Change: Sound Controller 5 (default: Brightness) (0-127): 102
0    |  MIDI Event: Chan 13 Control/Mode Change: Expression Control (0-127): 89
1    |  MIDI Event: Chan 6 Pitch Bend Change (0-16383): 3471 (factor==0.926295)
2    |  MIDI Event: Chan 6 Pitch Bend Change (0-16383): 5085 (factor==0.950861)
3    |  MIDI Event: Chan 6 Pitch Bend Change (0-16383): 6942 (factor==0.979932)
2    |  MIDI Event: Chan 6 Pitch Bend Change (0-16383): 8071 (factor==0.99804)
3    |  MIDI Event: Chan 6 Pitch Bend Change (0-16383): 8192 (factor==1)
3    |  MIDI Event: Chan 10 Note OFF: E2, Velocity (0 - 127): 64
0    |  MIDI Event: Chan 10 Note OFF: D#2, Velocity (0 - 127): 64
1    |  MIDI Event: Chan 1 Control/Mode Change: Sound Controller 5 (default: Brightness) (0-127): 89
0    |  MIDI Event: Chan 5 Control/Mode Change: Sound Controller 5 (default: Brightness) (0-127): 89
0    |  MIDI Event: Chan 13 Control/Mode Change: Sound Controller 5 (default: Brightness) (0-127): 103
0    |  MIDI Event: Chan 13 Control/Mode Change: Expression Control (0-127): 90
10   |  MIDI Event: Chan 6 Control/Mode Change: Channel Pan (0-127): 94
5    |  MIDI Event: Chan 1 Control/Mode Change: Sound Controller 5 (default: Brightness) (0-127): 92
0    |  MIDI Event: Chan 5 Control/Mode Change: Sound Controller 5 (default: Brightness) (0-127): 92
0    |  MIDI Event: Chan 13 Control/Mode Change: Sound Controller 5 (default: Brightness) (0-127): 105
0    |  MIDI Event: Chan 13 Control/Mode Change: Expression Control (0-127): 91
14   |  MIDI Event: Chan 1 Note OFF: A3, Velocity (0 - 127): 64
0    |  MIDI Event: Chan 1 Note OFF: C#4, Velocity (0 - 127): 64
0    |  MIDI Event: Chan 6 Note OFF: F#5, Velocity (0 - 127): 64
0    |  MIDI Event: Chan 5 Note OFF: A2, Velocity (0 - 127): 64
0    |  MIDI Event: Chan 1 Note OFF: E3, Velocity (0 - 127): 64
0    |  MIDI Event: Chan 7 Note OFF: F#5, Velocity (0 - 127): 64
0    |  MIDI Event: Chan 6 Note OFF: F#4, Velocity (0 - 127): 64
0    |  MIDI Event: Chan 5 Note OFF: E3, Velocity (0 - 127): 64
1    |  MIDI Event: Chan 1 Control/Mode Change: Sound Controller 5 (default: Brightness) (0-127): 94
0    |  MIDI Event: Chan 1 Note ON: A3, Velocity (0 - 127): 51
0    |  MIDI Event: Chan 1 Note ON: C#4, Velocity (0 - 127): 52
0    |  MIDI Event: Chan 1 Note ON: E4, Velocity (0 - 127): 78
0    |  MIDI Event: Chan 5 Control/Mode Change: Sound Controller 5 (default: Brightness) (0-127): 94
0    |  MIDI Event: Chan 5 Note ON: C#3, Velocity (0 - 127): 89
0    |  MIDI Event: Chan 5 Note ON: E3, Velocity (0 - 127): 101
0    |  MIDI Event: Chan 5 Note ON: A3, Velocity (0 - 127): 89
0    |  MIDI Event: Chan 6 Note ON: D4, Velocity (0 - 127): 98
0    |  MIDI Event: Chan 6 Note ON: D5, Velocity (0 - 127): 98
0    |  MIDI Event: Chan 7 Note ON: D5, Velocity (0 - 127): 120
0    |  MIDI Event: Chan 13 Control/Mode Change: Sound Controller 5 (default: Brightness) (0-127): 107
0    |  MIDI Event: Chan 13 Control/Mode Change: Expression Control (0-127): 92
15   |  MIDI Event: Chan 1 Control/Mode Change: Sound Controller 5 (default: Brightness) (0-127): 96
0    |  MIDI Event: Chan 5 Control/Mode Change: Sound Controller 5 (default: Brightness) (0-127): 96
0    |  MIDI Event: Chan 13 Control/Mode Change: Sound Controller 5 (default: Brightness) (0-127): 109
0    |  MIDI Event: Chan 13 Control/Mode Change: Expression Control (0-127): 93
5    |  MIDI Event: Chan 6 Control/Mode Change: Channel Pan (0-127): 12
9    |  MIDI Event: Chan 5 Note OFF: A3, Velocity (0 - 127): 64
0    |  MIDI Event: Chan 1 Note OFF: E4, Velocity (0 - 127): 64
0    |  MIDI Event: Chan 1 Note OFF: C#4, Velocity (0 - 127): 64
0    |  MIDI Event: Chan 5 Note OFF: E3, Velocity (0 - 127): 64
0    |  MIDI Event: Chan 5 Note OFF: C#3, Velocity (0 - 127): 64
0    |  MIDI Event: Chan 1 Note OFF: A3, Velocity (0 - 127): 64
1    |  MIDI Event: Chan 1 Control/Mode Change: Sound Controller 5 (default: Brightness) (0-127): 98
0    |  MIDI Event: Chan 1 Note ON: A3, Velocity (0 - 127): 73
0    |  MIDI Event: Chan 1 Note ON: C#4, Velocity (0 - 127): 52
0    |  MIDI Event: Chan 1 Note ON: E4, Velocity (0 - 127): 83
0    |  MIDI Event: Chan 5 Control/Mode Change: Sound Controller 5 (default: Brightness) (0-127): 98
0    |  MIDI Event: Chan 5 Note ON: C#3, Velocity (0 - 127): 119
0    |  MIDI Event: Chan 5 Note ON: E3, Velocity (0 - 127): 118
0    |  MIDI Event: Chan 5 Note ON: A3, Velocity (0 - 127): 105
0    |  MIDI Event: Chan 13 Control/Mode Change: Sound Controller 5 (default: Brightness) (0-127): 111
0    |  MIDI Event: Chan 13 Control/Mode Change: Expression Control (0-127): 94
15   |  MIDI Event: Chan 1 Control/Mode Change: Sound Controller 5 (default: Brightness) (0-127): 100
0    |  MIDI Event: Chan 5 Control/Mode Change: Sound Controller 5 (default: Brightness) (0-127): 100
0    |  MIDI Event: Chan 13 Control/Mode Change: Sound Controller 5 (default: Brightness) (0-127): 112
0    |  MIDI Event: Chan 13 Control/Mode Change: Expression Control (0-127): 95
14   |  MIDI Event: Chan 5 Note OFF: A3, Velocity (0 - 127): 64
0    |  MIDI Event: Chan 6 Note OFF: D4, Velocity (0 - 127): 64
0    |  MIDI Event: Chan 7 Note OFF: D5, Velocity (0 - 127): 64
0    |  MIDI Event: Chan 6 Note OFF: D5, Velocity (0 - 127): 64
0    |  MIDI Event: Chan 1 Note OFF: A3, Velocity (0 - 127): 64
0    |  MIDI Event: Chan 5 Note OFF: E3, Velocity (0 - 127): 64
0    |  MIDI Event: Chan 5 Note OFF: C#3, Velocity (0 - 127): 64
0    |  MIDI Event: Chan 1 Note OFF: E4, Velocity (0 - 127): 64
0    |  MIDI Event: Chan 1 Note OFF: C#4, Velocity (0 - 127): 64
1    |  MIDI Event: Chan 1 Control/Mode Change: Sound Controller 5 (default: Brightness) (0-127): 102
0    |  MIDI Event: Chan 1 Note ON: B3, Velocity (0 - 127): 58
0    |  MIDI Event: Chan 1 Note ON: D4, Velocity (0 - 127): 91
0    |  MIDI Event: Chan 5 Control/Mode Change: Sound Controller 5 (default: Brightness) (0-127): 102
0    |  MIDI Event: Chan 5 Note ON: B2, Velocity (0 - 127): 85
0    |  MIDI Event: Chan 5 Note ON: F#3, Velocity (0 - 127): 120
0    |  MIDI Event: Chan 6 Note ON: B3, Velocity (0 - 127): 105
0    |  MIDI Event: Chan 6 Note ON: B4, Velocity (0 - 127): 105
0    |  MIDI Event: Chan 6 Control/Mode Change: Channel Pan (0-127): 115
0    |  MIDI Event: Chan 7 Note ON: B4, Velocity (0 - 127): 120
0    |  MIDI Event: Chan 10 Note ON: D#2, Velocity (0 - 127): 84
0    |  MIDI Event: Chan 10 Note ON: E2, Velocity (0 - 127): 98
0    |  MIDI Event: Chan 13 Control/Mode Change: Sound Controller 5 (default: Brightness) (0-127): 114
0    |  MIDI Event: Chan 13 Control/Mode Change: Expression Control (0-127): 96
15   |  MIDI Event: Chan 1 Control/Mode Change: Sound Controller 5 (default: Brightness) (0-127): 105
0    |  MIDI Event: Chan 5 Control/Mode Change: Sound Controller 5 (default: Brightness) (0-127): 105
0    |  MIDI Event: Chan 13 Control/Mode Change: Sound Controller 5 (default: Brightness) (0-127): 116
0    |  MIDI Event: Chan 13 Control/Mode Change: Expression Control (0-127): 97
14   |  MIDI Event: Chan 10 Note OFF: E2, Velocity (0 - 127): 64
0    |  MIDI Event: Chan 10 Note OFF: D#2, Velocity (0 - 127): 64
1    |  MIDI Event: Chan 1 Control/Mode Change: Sound Controller 5 (default: Brightness) (0-127): 107
0    |  MIDI Event: Chan 5 Control/Mode Change: Sound Controller 5 (default: Brightness) (0-127): 107
0    |  MIDI Event: Chan 13 Control/Mode Change: Sound Controller 5 (default: Brightness) (0-127): 118
0    |  MIDI Event: Chan 13 Control/Mode Change: Expression Control (0-127): 98
10   |  MIDI Event: Chan 6 Control/Mode Change: Channel Pan (0-127): 34
5    |  MIDI Event: Chan 1 Control/Mode Change: Sound Controller 5 (default: Brightness) (0-127): 109
0    |  MIDI Event: Chan 5 Control/Mode Change: Sound Controller 5 (default: Brightness) (0-127): 109
0    |  MIDI Event: Chan 13 Control/Mode Change: Sound Controller 5 (default: Brightness) (0-127): 119
0    |  MIDI Event: Chan 13 Control/Mode Change: Expression Control (0-127): 99
14   |  MIDI Event: Chan 5 Note OFF: B2, Velocity (0 - 127): 64
0    |  MIDI Event: Chan 1 Note OFF: D4, Velocity (0 - 127): 64
0    |  MIDI Event: Chan 5 Note OFF: F#3, Velocity (0 - 127): 64
0    |  MIDI Event: Chan 1 Note OFF: B3, Velocity (0 - 127): 64
0    |  MIDI Event: Chan 7 Note OFF: B4, Velocity (0 - 127): 64
0    |  MIDI Event: Chan 6 Note OFF: B4, Velocity (0 - 127): 64
0    |  MIDI Event: Chan 6 Note OFF: B3, Velocity (0 - 127): 64
1    |  MIDI Event: Chan 1 Control/Mode Change: Sound Controller 5 (default: Brightness) (0-127): 111
0    |  MIDI Event: Chan 1 Note ON: B3, Velocity (0 - 127): 79
0    |  MIDI Event: Chan 1 Note ON: D4, Velocity (0 - 127): 95
0    |  MIDI Event: Chan 1 Note ON: F#4, Velocity (0 - 127): 74
0    |  MIDI Event: Chan 5 Control/Mode Change: Sound Controller 5 (default: Brightness) (0-127): 111
0    |  MIDI Event: Chan 5 Note ON: D3, Velocity (0 - 127): 92
0    |  MIDI Event: Chan 5 Note ON: F#3, Velocity (0 - 127): 87
0    |  MIDI Event: Chan 5 Note ON: D4, Velocity (0 - 127): 95
0    |  MIDI Event: Chan 10 Note ON: D#2, Velocity (0 - 127): 73
0    |  MIDI Event: Chan 10 Note ON: E2, Velocity (0 - 127): 91
0    |  MIDI Event: Chan 13 Control/Mode Change: Sound Controller 5 (default: Brightness) (0-127): 121
0    |  MIDI Event: Chan 13 Control/Mode Change: Expression Control (0-127): 100
15   |  MIDI Event: Chan 1 Control/Mode Change: Sound Controller 5 (default: Brightness) (0-127): 113
0    |  MIDI Event: Chan 5 Control/Mode Change: Sound Controller 5 (default: Brightness) (0-127): 113
0    |  MIDI Event: Chan 13 Control/Mode Change: Sound Controller 5 (default: Brightness) (0-127): 123
0    |  MIDI Event: Chan 13 Control/Mode Change: Expression Control (0-127): 101
5    |  MIDI Event: Chan 6 Control/Mode Change: Channel Pan (0-127): 94
9    |  MIDI Event: Chan 10 Note OFF: E2, Velocity (0 - 127): 64
0    |  MIDI Event: Chan 10 Note OFF: D#2, Velocity (0 - 127): 64
1    |  MIDI Event: Chan 1 Control/Mode Change: Sound Controller 5 (default: Brightness) (0-127): 116
0    |  MIDI Event: Chan 5 Control/Mode Change: Sound Controller 5 (default: Brightness) (0-127): 116
0    |  MIDI Event: Chan 13 Control/Mode Change: Sound Controller 5 (default: Brightness) (0-127): 125
0    |  MIDI Event: Chan 13 Control/Mode Change: Expression Control (0-127): 102
15   |  MIDI Event: Chan 1 Control/Mode Change: Sound Controller 5 (default: Brightness) (0-127): 118
0    |  MIDI Event: Chan 5 Control/Mode Change: Sound Controller 5 (default: Brightness) (0-127): 118
0    |  MIDI Event: Chan 13 Control/Mode Change: Sound Controller 5 (default: Brightness) (0-127): 127
0    |  MIDI Event: Chan 13 Control/Mode Change: Expression Control (0-127): 103
15   |  MIDI Event: Chan 1 Control/Mode Change: Sound Controller 5 (default: Brightness) (0-127): 120
0    |  MIDI Event: Chan 5 Control/Mode Change: Sound Controller 5 (default: Brightness) (0-127): 120
0    |  MIDI Event: Chan 6 Note ON: B3, Velocity (0 - 127): 119
0    |  MIDI Event: Chan 6 Note ON: B4, Velocity (0 - 127): 119
0    |  MIDI Event: Chan 6 Control/Mode Change: Channel Pan (0-127): 12
0    |  MIDI Event: Chan 7 Note ON: B4, Velocity (0 - 127): 120
0    |  MIDI Event: Chan 10 Note ON: D#2, Velocity (0 - 127): 81
0    |  MIDI Event: Chan 10 Note ON: E2, Velocity (0 - 127): 83
0    |  MIDI Event: Chan 13 Control/Mode Change: Expression Control (0-127): 104
15   |  MIDI Event: Chan 1 Control/Mode Change: Sound Controller 5 (default: Brightness) (0-127): 122
0    |  MIDI Event: Chan 5 Control/Mode Change: Sound Controller 5 (default: Brightness) (0-127): 122
0    |  MIDI Event: Chan 13 Control/Mode Change: Expression Control (0-127): 105
14   |  MIDI Event: Chan 10 Note OFF: E2, Velocity (0 - 127): 64
0    |  MIDI Event: Chan 1 Note OFF: B3, Velocity (0 - 127): 64
0    |  MIDI Event: Chan 1 Note OFF: D4, Velocity (0 - 127): 64
0    |  MIDI Event: Chan 1 Note OFF: F#4, Velocity (0 - 127): 64
0    |  MIDI Event: Chan 5 Note OFF: D4, Velocity (0 - 127): 64
0    |  MIDI Event: Chan 10 Note OFF: D#2, Velocity (0 - 127): 64
0    |  MIDI Event: Chan 5 Note OFF: D3, Velocity (0 - 127): 64
0    |  MIDI Event: Chan 5 Note OFF: F#3, Velocity (0 - 127): 64
1    |  MIDI Event: Chan 1 Control/Mode Change: Sound Controller 5 (default: Brightness) (0-127): 124
0    |  MIDI Event: Chan 1 Note ON: B3, Velocity (0 - 127): 71
0    |  MIDI Event: Chan 1 Note ON: D4, Velocity (0 - 127): 91
0    |  MIDI Event: Chan 1 Note ON: F#4, Velocity (0 - 127): 60
0    |  MIDI Event: Chan 5 Control/Mode Change: Sound Controller 5 (default: Brightness) (0-127): 124
0    |  MIDI Event: Chan 5 Note ON: F#3, Velocity (0 - 127): 109
0    |  MIDI Event: Chan 5 Note ON: B3, Velocity (0 - 127): 95
0    |  MIDI Event: Chan 13 Control/Mode Change: Expression Control (0-127): 106
10   |  MIDI Event: Chan 6 Control/Mode Change: Channel Pan (0-127): 115
5    |  MIDI Event: Chan 1 Control/Mode Change: Sound Controller 5 (default: Brightness) (0-127): 127
0    |  MIDI Event: Chan 5 Control/Mode Change: Sound Controller 5 (default: Brightness) (0-127): 127
0    |  MIDI Event: Chan 13 Control/Mode Change: Expression Control (0-127): 107
14   |  MIDI Event: Chan 5 Note OFF: B3, Velocity (0 - 127): 64
0    |  MIDI Event: Chan 7 Note OFF: B4, Velocity (0 - 127): 64
0    |  MIDI Event: Chan 6 Note OFF: B4, Velocity (0 - 127): 64
0    |  MIDI Event: Chan 1 Note OFF: B3, Velocity (0 - 127): 64
0    |  MIDI Event: Chan 5 Note OFF: F#3, Velocity (0 - 127): 64
0    |  MIDI Event: Chan 6 Note OFF: B3, Velocity (0 - 127): 64
0    |  MIDI Event: Chan 1 Note OFF: F#4, Velocity (0 - 127): 64
0    |  MIDI Event: Chan 1 Note OFF: D4, Velocity (0 - 127): 64
1    |  MIDI Event: Chan 1 Note ON: D4, Velocity (0 - 127): 80
0    |  MIDI Event: Chan 1 Note ON: F#4, Velocity (0 - 127): 62
0    |  MIDI Event: Chan 1 Note ON: B4, Velocity (0 - 127): 91
0    |  MIDI Event: Chan 5 Note ON: D3, Velocity (0 - 127): 103
0    |  MIDI Event: Chan 5 Note ON: F#3, Velocity (0 - 127): 115
0    |  MIDI Event: Chan 10 Note ON: D#2, Velocity (0 - 127): 86
0    |  MIDI Event: Chan 10 Note ON: E2, Velocity (0 - 127): 91
0    |  MIDI Event: Chan 13 Control/Mode Change: Expression Control (0-127): 108
15   |  MIDI Event: Chan 13 Control/Mode Change: Expression Control (0-127): 109
5    |  MIDI Event: Chan 6 Control/Mode Change: Channel Pan (0-127): 34
9    |  MIDI Event: Chan 10 Note OFF: E2, Velocity (0 - 127): 64
0    |  MIDI Event: Chan 10 Note OFF: D#2, Velocity (0 - 127): 64
0    |  MIDI Event: Chan 5 Note OFF: D3, Velocity (0 - 127): 64
0    |  MIDI Event: Chan 1 Note OFF: D4, Velocity (0 - 127): 64
0    |  MIDI Event: Chan 1 Note OFF: F#4, Velocity (0 - 127): 64
0    |  MIDI Event: Chan 1 Note OFF: B4, Velocity (0 - 127): 64
0    |  MIDI Event: Chan 5 Note OFF: F#3, Velocity (0 - 127): 64
1    |  MIDI Event: Chan 1 Note ON: B3, Velocity (0 - 127): 51
0    |  MIDI Event: Chan 1 Note ON: D4, Velocity (0 - 127): 85
0    |  MIDI Event: Chan 1 Note ON: F#4, Velocity (0 - 127): 59
0    |  MIDI Event: Chan 5 Note ON: B2, Velocity (0 - 127): 92
0    |  MIDI Event: Chan 5 Note ON: E3, Velocity (0 - 127): 98
0    |  MIDI Event: Chan 6 Note ON: A3, Velocity (0 - 127): 91
0    |  MIDI Event: Chan 6 Note ON: A4, Velocity (0 - 127): 91
0    |  MIDI Event: Chan 7 Note ON: A4, Velocity (0 - 127): 120
0    |  MIDI Event: Chan 13 Control/Mode Change: Expression Control (0-127): 110
15   |  MIDI Event: Chan 13 Control/Mode Change: Expression Control (0-127): 111
14   |  MIDI Event: Chan 7 Note OFF: A4, Velocity (0 - 127): 64
0    |  MIDI Event: Chan 1 Note OFF: F#4, Velocity (0 - 127): 64
0    |  MIDI Event: Chan 6 Note OFF: A4, Velocity (0 - 127): 64
0    |  MIDI Event: Chan 5 Note OFF: B2, Velocity (0 - 127): 64
0    |  MIDI Event: Chan 1 Note OFF: B3, Velocity (0 - 127): 64
0    |  MIDI Event: Chan 1 Note OFF: D4, Velocity (0 - 127): 64
0    |  MIDI Event: Chan 6 Note OFF: A3, Velocity (0 - 127): 64
0    |  MIDI Event: Chan 5 Note OFF: E3, Velocity (0 - 127): 64
1    |  MIDI Event: Chan 1 Control/Mode Change: Sound Controller 5 (default: Brightness) (0-127): 126
0    |  MIDI Event: Chan 1 Note ON: G3, Velocity (0 - 127): 74
0    |  MIDI Event: Chan 1 Note ON: B3, Velocity (0 - 127): 94
0    |  MIDI Event: Chan 1 Note ON: D4, Velocity (0 - 127): 91
0    |  MIDI Event: Chan 5 Control/Mode Change: Sound Controller 5 (default: Brightness) (0-127): 126
0    |  MIDI Event: Chan 5 Note ON: G2, Velocity (0 - 127): 98
0    |  MIDI Event: Chan 5 Note ON: D3, Velocity (0 - 127): 116
0    |  MIDI Event: Chan 6 Note ON: B3, Velocity (0 - 127): 97
0    |  MIDI Event: Chan 6 Note ON: B4, Velocity (0 - 127): 97
0    |  MIDI Event: Chan 6 Control/Mode Change: Channel Pan (0-127): 94
0    |  MIDI Event: Chan 7 Note ON: B4, Velocity (0 - 127): 120
0    |  MIDI Event: Chan 10 Note ON: D#2, Velocity (0 - 127): 89
0    |  MIDI Event: Chan 10 Note ON: E2, Velocity (0 - 127): 90
0    |  MIDI Event: Chan 13 Control/Mode Change: Expression Control (0-127): 112
15   |  MIDI Event: Chan 1 Control/Mode Change: Sound Controller 5 (default: Brightness) (0-127): 121
0    |  MIDI Event: Chan 5 Control/Mode Change: Sound Controller 5 (default: Brightness) (0-127): 121
0    |  MIDI Event: Chan 13 Control/Mode Change: Expression Control (0-127): 113
14   |  MIDI Event: Chan 10 Note OFF: E2, Velocity (0 - 127): 64
0    |  MIDI Event: Chan 6 Note OFF: B4, Velocity (0 - 127): 64
0    |  MIDI Event: Chan 10 Note OFF: D#2, Velocity (0 - 127): 64
0    |  MIDI Event: Chan 6 Note OFF: B3, Velocity (0 - 127): 64
0    |  MIDI Event: Chan 7 Note OFF: B4, Velocity (0 - 127): 64
1    |  MIDI Event: Chan 1 Control/Mode Change: Sound Controller 5 (default: Brightness) (0-127): 117
0    |  MIDI Event: Chan 5 Control/Mode Change: Sound Controller 5 (default: Brightness) (0-127): 117
0    |  MIDI Event: Chan 6 Note ON: D4, Velocity (0 - 127): 80
0    |  MIDI Event: Chan 6 Note ON: D5, Velocity (0 - 127): 80
0    |  MIDI Event: Chan 7 Note ON: D5, Velocity (0 - 127): 120
0    |  MIDI Event: Chan 13 Control/Mode Change: Expression Control (0-127): 114
10   |  MIDI Event: Chan 6 Control/Mode Change: Channel Pan (0-127): 12
5    |  MIDI Event: Chan 1 Control/Mode Change: Sound Controller 5 (default: Brightness) (0-127): 113
0    |  MIDI Event: Chan 5 Control/Mode Change: Sound Controller 5 (default: Brightness) (0-127): 113
0    |  MIDI Event: Chan 13 Control/Mode Change: Expression Control (0-127): 115
14   |  MIDI Event: Chan 7 Note OFF: D5, Velocity (0 - 127): 64
0    |  MIDI Event: Chan 1 Note OFF: B3, Velocity (0 - 127): 64
0    |  MIDI Event: Chan 6 Note OFF: D5, Velocity (0 - 127): 64
0    |  MIDI Event: Chan 5 Note OFF: D3, Velocity (0 - 127): 64
0    |  MIDI Event: Chan 1 Note OFF: G3, Velocity (0 - 127): 64
0    |  MIDI Event: Chan 1 Note OFF: D4, Velocity (0 - 127): 64
0    |  MIDI Event: Chan 6 Note OFF: D4, Velocity (0 - 127): 64
0    |  MIDI Event: Chan 5 Note OFF: G2, Velocity (0 - 127): 64
1    |  MIDI Event: Chan 1 Control/Mode Change: Sound Controller 5 (default: Brightness) (0-127): 109
0    |  MIDI Event: Chan 1 Note ON: B3, Velocity (0 - 127): 70
0    |  MIDI Event: Chan 1 Note ON: D4, Velocity (0 - 127): 94
0    |  MIDI Event: Chan 1 Note ON: G4, Velocity (0 - 127): 101
0    |  MIDI Event: Chan 5 Control/Mode Change: Sound Controller 5 (default: Brightness) (0-127): 109
0    |  MIDI Event: Chan 5 Note ON: D3, Velocity (0 - 127): 79
0    |  MIDI Event: Chan 5 Note ON: G3, Velocity (0 - 127): 111
0    |  MIDI Event: Chan 5 Note ON: B3, Velocity (0 - 127): 100
0    |  MIDI Event: Chan 6 Note ON: B3, Velocity (0 - 127): 113
0    |  MIDI Event: Chan 6 Note ON: B4, Velocity (0 - 127): 113
0    |  MIDI Event: Chan 7 Note ON: B4, Velocity (0 - 127): 120
0    |  MIDI Event: Chan 10 Note ON: D#2, Velocity (0 - 127): 81
0    |  MIDI Event: Chan 10 Note ON: E2, Velocity (0 - 127): 85
0    |  MIDI Event: Chan 13 Control/Mode Change: Expression Control (0-127): 116
15   |  MIDI Event: Chan 1 Control/Mode Change: Sound Controller 5 (default: Brightness) (0-127): 105
0    |  MIDI Event: Chan 5 Control/Mode Change: Sound Controller 5 (default: Brightness) (0-127): 105
0    |  MIDI Event: Chan 13 Control/Mode Change: Expression Control (0-127): 117
5    |  MIDI Event: Chan 6 Control/Mode Change: Channel Pan (0-127): 115
9    |  MIDI Event: Chan 10 Note OFF: E2, Velocity (0 - 127): 64
0    |  MIDI Event: Chan 10 Note OFF: D#2, Velocity (0 - 127): 64
1    |  MIDI Event: Chan 1 Control/Mode Change: Sound Controller 5 (default: Brightness) (0-127): 101
0    |  MIDI Event: Chan 5 Control/Mode Change: Sound Controller 5 (default: Brightness) (0-127): 101
0    |  MIDI Event: Chan 13 Control/Mode Change: Expression Control (0-127): 118
15   |  MIDI Event: Chan 1 Control/Mode Change: Sound Controller 5 (default: Brightness) (0-127): 97
0    |  MIDI Event: Chan 5 Control/Mode Change: Sound Controller 5 (default: Brightness) (0-127): 97
0    |  MIDI Event: Chan 13 Control/Mode Change: Expression Control (0-127): 119
14   |  MIDI Event: Chan 6 Note OFF: B3, Velocity (0 - 127): 64
0    |  MIDI Event: Chan 7 Note OFF: B4, Velocity (0 - 127): 64
0    |  MIDI Event: Chan 6 Note OFF: B4, Velocity (0 - 127): 64
1    |  MIDI Event: Chan 1 Control/Mode Change: Sound Controller 5 (default: Brightness) (0-127): 92
0    |  MIDI Event: Chan 5 Control/Mode Change: Sound Controller 5 (default: Brightness) (0-127): 92
0    |  MIDI Event: Chan 6 Control/Mode Change: Channel Pan (0-127): 34
0    |  MIDI Event: Chan 10 Note ON: D#2, Velocity (0 - 127): 80
0    |  MIDI Event: Chan 10 Note ON: E2, Velocity (0 - 127): 82
0    |  MIDI Event: Chan 13 Control/Mode Change: Expression Control (0-127): 120
15   |  MIDI Event: Chan 1 Control/Mode Change: Sound Controller 5 (default: Brightness) (0-127): 88
0    |  MIDI Event: Chan 5 Control/Mode Change: Sound Controller 5 (default: Brightness) (0-127): 88
0    |  MIDI Event: Chan 13 Control/Mode Change: Expression Control (0-127): 121
14   |  MIDI Event: Chan 10 Note OFF: E2, Velocity (0 - 127): 64
0    |  MIDI Event: Chan 5 Note OFF: B3, Velocity (0 - 127): 64
0    |  MIDI Event: Chan 10 Note OFF: D#2, Velocity (0 - 127): 64
0    |  MIDI Event: Chan 5 Note OFF: D3, Velocity (0 - 127): 64
0    |  MIDI Event: Chan 5 Note OFF: G3, Velocity (0 - 127): 64
0    |  MIDI Event: Chan 1 Note OFF: D4, Velocity (0 - 127): 64
0    |  MIDI Event: Chan 1 Note OFF: G4, Velocity (0 - 127): 64
0    |  MIDI Event: Chan 1 Note OFF: B3, Velocity (0 - 127): 64
1    |  MIDI Event: Chan 1 Control/Mode Change: Sound Controller 5 (default: Brightness) (0-127): 84
0    |  MIDI Event: Chan 1 Note ON: B3, Velocity (0 - 127): 52
0    |  MIDI Event: Chan 1 Note ON: D4, Velocity (0 - 127): 85
0    |  MIDI Event: Chan 1 Note ON: G4, Velocity (0 - 127): 94
0    |  MIDI Event: Chan 5 Control/Mode Change: Sound Controller 5 (default: Brightness) (0-127): 84
0    |  MIDI Event: Chan 5 Note ON: D3, Velocity (0 - 127): 82
0    |  MIDI Event: Chan 5 Note ON: G3, Velocity (0 - 127): 98
0    |  MIDI Event: Chan 5 Note ON: B3, Velocity (0 - 127): 85
0    |  MIDI Event: Chan 6 Note ON: A3, Velocity (0 - 127): 98
0    |  MIDI Event: Chan 6 Note ON: A4, Velocity (0 - 127): 98
0    |  MIDI Event: Chan 7 Note ON: A4, Velocity (0 - 127): 120
0    |  MIDI Event: Chan 13 Control/Mode Change: Expression Control (0-127): 122
10   |  MIDI Event: Chan 6 Control/Mode Change: Channel Pan (0-127): 94
5    |  MIDI Event: Chan 1 Control/Mode Change: Sound Controller 5 (default: Brightness) (0-127): 80
0    |  MIDI Event: Chan 5 Control/Mode Change: Sound Controller 5 (default: Brightness) (0-127): 80
0    |  MIDI Event: Chan 13 Control/Mode Change: Expression Control (0-127): 123
14   |  MIDI Event: Chan 7 Note OFF: A4, Velocity (0 - 127): 64
0    |  MIDI Event: Chan 1 Note OFF: D4, Velocity (0 - 127): 64
0    |  MIDI Event: Chan 1 Note OFF: G4, Velocity (0 - 127): 64
0    |  MIDI Event: Chan 6 Note OFF: A4, Velocity (0 - 127): 64
0    |  MIDI Event: Chan 5 Note OFF: D3, Velocity (0 - 127): 64
0    |  MIDI Event: Chan 1 Note OFF: B3, Velocity (0 - 127): 64
0    |  MIDI Event: Chan 6 Note OFF: A3, Velocity (0 - 127): 64
0    |  MIDI Event: Chan 5 Note OFF: B3, Velocity (0 - 127): 64
0    |  MIDI Event: Chan 5 Note OFF: G3, Velocity (0 - 127): 64
1    |  MIDI Event: Chan 1 Control/Mode Change: Sound Controller 5 (default: Brightness) (0-127): 76
0    |  MIDI Event: Chan 1 Note ON: D4, Velocity (0 - 127): 78
0    |  MIDI Event: Chan 1 Note ON: G4, Velocity (0 - 127): 100
0    |  MIDI Event: Chan 1 Note ON: B4, Velocity (0 - 127): 46
0    |  MIDI Event: Chan 5 Control/Mode Change: Sound Controller 5 (default: Brightness) (0-127): 76
0    |  MIDI Event: Chan 5 Note ON: G2, Velocity (0 - 127): 109
0    |  MIDI Event: Chan 5 Note ON: D3, Velocity (0 - 127): 109
0    |  MIDI Event: Chan 6 Note ON: B3, Velocity (0 - 127): 101
0    |  MIDI Event: Chan 6 Note ON: B4, Velocity (0 - 127): 101
0    |  MIDI Event: Chan 7 Note ON: B4, Velocity (0 - 127): 120
0    |  MIDI Event: Chan 10 Note ON: D#2, Velocity (0 - 127): 92
0    |  MIDI Event: Chan 10 Note ON: E2, Velocity (0 - 127): 101
0    |  MIDI Event: Chan 13 Control/Mode Change: Expression Control (0-127): 124
15   |  MIDI Event: Chan 1 Control/Mode Change: Sound Controller 5 (default: Brightness) (0-127): 72
0    |  MIDI Event: Chan 5 Control/Mode Change: Sound Controller 5 (default: Brightness) (0-127): 72
0    |  MIDI Event: Chan 13 Control/Mode Change: Expression Control (0-127): 125
5    |  MIDI Event: Chan 6 Control/Mode Change: Channel Pan (0-127): 12
9    |  MIDI Event: Chan 10 Note OFF: E2, Velocity (0 - 127): 64
0    |  MIDI Event: Chan 6 Note OFF: B4, Velocity (0 - 127): 64
0    |  MIDI Event: Chan 1 Note OFF: G4, Velocity (0 - 127): 64
0    |  MIDI Event: Chan 1 Note OFF: B4, Velocity (0 - 127): 64
0    |  MIDI Event: Chan 10 Note OFF: D#2, Velocity (0 - 127): 64
0    |  MIDI Event: Chan 5 Note OFF: G2, Velocity (0 - 127): 64
0    |  MIDI Event: Chan 1 Note OFF: D4, Velocity (0 - 127): 64
0    |  MIDI Event: Chan 7 Note OFF: B4, Velocity (0 - 127): 64
0    |  MIDI Event: Chan 6 Note OFF: B3, Velocity (0 - 127): 64
0    |  MIDI Event: Chan 5 Note OFF: D3, Velocity (0 - 127): 64
1    |  MIDI Event: Chan 1 Control/Mode Change: Sound Controller 5 (default: Brightness) (0-127): 68
0    |  MIDI Event: Chan 1 Note ON: B3, Velocity (0 - 127): 45
0    |  MIDI Event: Chan 1 Note ON: D4, Velocity (0 - 127): 73
0    |  MIDI Event: Chan 1 Note ON: G4, Velocity (0 - 127): 86
0    |  MIDI Event: Chan 5 Control/Mode Change: Sound Controller 5 (default: Brightness) (0-127): 68
0    |  MIDI Event: Chan 5 Note ON: G2, Velocity (0 - 127): 101
0    |  MIDI Event: Chan 5 Note ON: E3, Velocity (0 - 127): 116
0    |  MIDI Event: Chan 6 Note ON: A3, Velocity (0 - 127): 91
0    |  MIDI Event: Chan 6 Note ON: A4, Velocity (0 - 127): 91
0    |  MIDI Event: Chan 7 Note ON: A4, Velocity (0 - 127): 120
0    |  MIDI Event: Chan 13 Control/Mode Change: Expression Control (0-127): 126
15   |  MIDI Event: Chan 1 Control/Mode Change: Sound Controller 5 (default: Brightness) (0-127): 64
0    |  MIDI Event: Chan 5 Control/Mode Change: Sound Controller 5 (default: Brightness) (0-127): 64
0    |  MIDI Event: Chan 13 Control/Mode Change: Expression Control (0-127): 127
9    |  MIDI Event: Chan 5 Control/Mode Change: Effects 1 (Default==Reverb) Depth (0-127): 30
0    |  MIDI Event: Chan 6 Control/Mode Change: Effects 1 (Default==Reverb) Depth (0-127): 60
5    |  MIDI Event: Chan 7 Note OFF: A4, Velocity (0 - 127): 64
0    |  MIDI Event: Chan 1 Note OFF: G4, Velocity (0 - 127): 64
0    |  MIDI Event: Chan 13 Note OFF: C4, Velocity (0 - 127): 64
0    |  MIDI Event: Chan 5 Note OFF: G2, Velocity (0 - 127): 64
0    |  MIDI Event: Chan 1 Note OFF: B3, Velocity (0 - 127): 64
0    |  MIDI Event: Chan 1 Note OFF: D4, Velocity (0 - 127): 64
0    |  MIDI Event: Chan 6 Note OFF: A3, Velocity (0 - 127): 64
0    |  MIDI Event: Chan 5 Note OFF: E3, Velocity (0 - 127): 64
0    |  MIDI Event: Chan 6 Note OFF: A4, Velocity (0 - 127): 64
1    |  MIDI Event: Chan 6 Note ON: D4, Velocity (0 - 127): 105
0    |  MIDI Event: Chan 6 Note ON: D5, Velocity (0 - 127): 105
0    |  MIDI Event: Chan 6 Control/Mode Change: Channel Pan (0-127): 64
0    |  MIDI Event: Chan 13 Control/Mode Change: Expression Control (0-127): 0
59   |  MIDI Event: Chan 6 Note OFF: D5, Velocity (0 - 127): 64
0    |  MIDI Event: Chan 6 Note OFF: D4, Velocity (0 - 127): 64
61   |  MIDI Event: Chan 6 Note ON: D4, Velocity (0 - 127): 119
0    |  MIDI Event: Chan 6 Note ON: D5, Velocity (0 - 127): 119
59   |  MIDI Event: Chan 6 Note OFF: D5, Velocity (0 - 127): 64
0    |  MIDI Event: Chan 6 Note OFF: D4, Velocity (0 - 127): 64
31   |  MIDI Event: Chan 6 Note ON: D4, Velocity (0 - 127): 103
0    |  MIDI Event: Chan 6 Note ON: D5, Velocity (0 - 127): 103
0    |  MIDI Event: Chan 7 Note ON: D4, Velocity (0 - 127): 120
0    |  MIDI Event: Chan 7 Note ON: D5, Velocity (0 - 127): 120
29   |  MIDI Event: Chan 7 Note OFF: D5, Velocity (0 - 127): 64
0    |  MIDI Event: Chan 6 Note OFF: D4, Velocity (0 - 127): 64
0    |  MIDI Event: Chan 6 Note OFF: D5, Velocity (0 - 127): 64
0    |  MIDI Event: Chan 7 Note OFF: D4, Velocity (0 - 127): 64
1    |  MIDI Event: Chan 6 Note ON: E4, Velocity (0 - 127): 95
0    |  MIDI Event: Chan 6 Note ON: E5, Velocity (0 - 127): 95
0    |  MIDI Event: Chan 7 Note ON: E4, Velocity (0 - 127): 120
0    |  MIDI Event: Chan 7 Note ON: E5, Velocity (0 - 127): 120
29   |  MIDI Event: Chan 7 Note OFF: E5, Velocity (0 - 127): 64
0    |  MIDI Event: Chan 6 Note OFF: E4, Velocity (0 - 127): 64
0    |  MIDI Event: Chan 6 Note OFF: E5, Velocity (0 - 127): 64
0    |  MIDI Event: Chan 7 Note OFF: E4, Velocity (0 - 127): 64
1    |  MIDI Event: Chan 6 Note ON: D4, Velocity (0 - 127): 86
0    |  MIDI Event: Chan 6 Note ON: D5, Velocity (0 - 127): 86
0    |  MIDI Event: Chan 7 Note ON: D4, Velocity (0 - 127): 120
0    |  MIDI Event: Chan 7 Note ON: D5, Velocity (0 - 127): 120
29   |  MIDI Event: Chan 7 Note OFF: D5, Velocity (0 - 127): 64
0    |  MIDI Event: Chan 6 Note OFF: D4, Velocity (0 - 127): 64
0    |  MIDI Event: Chan 6 Note OFF: D5, Velocity (0 - 127): 64
0    |  MIDI Event: Chan 7 Note OFF: D4, Velocity (0 - 127): 64
1    |  MIDI Event: Chan 6 Note ON: E4, Velocity (0 - 127): 98
0    |  MIDI Event: Chan 6 Note ON: E5, Velocity (0 - 127): 98
0    |  MIDI Event: Chan 7 Note ON: E4, Velocity (0 - 127): 120
0    |  MIDI Event: Chan 7 Note ON: E5, Velocity (0 - 127): 120
50   |  MIDI Event: Chan 6 Pitch Bend Change (0-16383): 8071 (factor==0.99804)
0    |  MIDI Event: Chan 7 Pitch Bend Change (0-16383): 8071 (factor==0.99804)
5    |  MIDI Event: Chan 6 Pitch Bend Change (0-16383): 6296 (factor==0.96972)
0    |  MIDI Event: Chan 7 Pitch Bend Change (0-16383): 6296 (factor==0.96972)
3    |  MIDI Event: Chan 6 Pitch Bend Change (0-16383): 4197 (factor==0.937266)
0    |  MIDI Event: Chan 7 Pitch Bend Change (0-16383): 4197 (factor==0.937266)
1    |  MIDI Event: Chan 7 Note OFF: E5, Velocity (0 - 127): 64
0    |  MIDI Event: Chan 6 Note OFF: E4, Velocity (0 - 127): 64
0    |  MIDI Event: Chan 6 Note OFF: E5, Velocity (0 - 127): 64
0    |  MIDI Event: Chan 7 Note OFF: E4, Velocity (0 - 127): 64
1    |  MIDI Event: Chan 6 Note ON: F#4, Velocity (0 - 127): 119
0    |  MIDI Event: Chan 6 Note ON: F#5, Velocity (0 - 127): 119
0    |  MIDI Event: Chan 6 Pitch Bend Change (0-16383): 1776 (factor==0.901179)
0    |  MIDI Event: Chan 7 Note ON: F#4, Velocity (0 - 127): 120
0    |  MIDI Event: Chan 7 Note ON: F#5, Velocity (0 - 127): 120
0    |  MIDI Event: Chan 7 Pitch Bend Change (0-16383): 1776 (factor==0.901179)
0    |  MIDI Event: Chan 10 Note ON: C#3, Velocity (0 - 127): 120
3    |  MIDI Event: Chan 6 Pitch Bend Change (0-16383): 0 (factor==0.875594)
0    |  MIDI Event: Chan 7 Pitch Bend Change (0-16383): 0 (factor==0.875594)
17   |  MIDI Event: Chan 6 Pitch Bend Change (0-16383): 646 (factor==0.884815)
0    |  MIDI Event: Chan 7 Pitch Bend Change (0-16383): 646 (factor==0.884815)
3    |  MIDI Event: Chan 6 Pitch Bend Change (0-16383): 2422 (factor==0.91067)
0    |  MIDI Event: Chan 7 Pitch Bend Change (0-16383): 2422 (factor==0.91067)
2    |  MIDI Event: Chan 6 Pitch Bend Change (0-16383): 4520 (factor==0.942188)
0    |  MIDI Event: Chan 7 Pitch Bend Change (0-16383): 4520 (factor==0.942188)
3    |  MIDI Event: Chan 6 Pitch Bend Change (0-16383): 6942 (factor==0.979932)
0    |  MIDI Event: Chan 7 Pitch Bend Change (0-16383): 6942 (factor==0.979932)
1    |  MIDI Event: Chan 10 Note OFF: C#3, Velocity (0 - 127): 64
1    |  MIDI Event: Chan 6 Pitch Bend Change (0-16383): 8192 (factor==1)
0    |  MIDI Event: Chan 7 Pitch Bend Change (0-16383): 8192 (factor==1)
29   |  MIDI Event: Chan 7 Note OFF: F#4, Velocity (0 - 127): 64
0    |  MIDI Event: Chan 6 Note OFF: F#4, Velocity (0 - 127): 64
0    |  MIDI Event: Chan 6 Note OFF: F#5, Velocity (0 - 127): 64
0    |  MIDI Event: Chan 7 Note OFF: F#5, Velocity (0 - 127): 64
1    |  MIDI Event: Chan 6 Note ON: D4, Velocity (0 - 127): 111
0    |  MIDI Event: Chan 6 Note ON: D5, Velocity (0 - 127): 111
0    |  MIDI Event: Chan 7 Note ON: D4, Velocity (0 - 127): 120
0    |  MIDI Event: Chan 7 Note ON: D5, Velocity (0 - 127): 120
59   |  MIDI Event: Chan 7 Note OFF: D5, Velocity (0 - 127): 64
0    |  MIDI Event: Chan 6 Note OFF: D4, Velocity (0 - 127): 64
0    |  MIDI Event: Chan 6 Note OFF: D5, Velocity (0 - 127): 64
0    |  MIDI Event: Chan 7 Note OFF: D4, Velocity (0 - 127): 64
1    |  MIDI Event: Chan 1 Note ON: B3, Velocity (0 - 127): 58
0    |  MIDI Event: Chan 1 Note ON: D4, Velocity (0 - 127): 91
0    |  MIDI Event: Chan 2 Control/Mode Change: Expression Control (0-127): 64
0    |  MIDI Event: Chan 2 Note ON: B1, Velocity (0 - 127): 120
0    |  MIDI Event: Chan 3 Control/Mode Change: Expression Control (0-127): 64
0    |  MIDI Event: Chan 3 Note ON: B3, Velocity (0 - 127): 120
0    |  MIDI Event: Chan 3 Note ON: D4, Velocity (0 - 127): 120
0    |  MIDI Event: Chan 3 Note ON: F#4, Velocity (0 - 127): 120
0    |  MIDI Event: Chan 5 Note ON: B2, Velocity (0 - 127): 85
0    |  MIDI Event: Chan 5 Note ON: F#3, Velocity (0 - 127): 120
0    |  MIDI Event: Chan 6 Note ON: B3, Velocity (0 - 127): 120
0    |  MIDI Event: Chan 6 Note ON: B4, Velocity (0 - 127): 120
0    |  MIDI Event: Chan 7 Note ON: B4, Velocity (0 - 127): 120
0    |  MIDI Event: Chan 10 Note ON: B1, Velocity (0 - 127): 120
0    |  MIDI Event: Chan 10 Note ON: F#2, Velocity (0 - 127): 120
0    |  MIDI Event: Chan 10 Note ON: C#3, Velocity (0 - 127): 111
0    |  MIDI Event: Chan 10 Note ON: B3, Velocity (0 - 127): 120
0    |  MIDI Event: Chan 12 Note ON: B4, Velocity (0 - 127): 120
29   |  MIDI Event: Chan 10 Note OFF: B3, Velocity (0 - 127): 64
0    |  MIDI Event: Chan 10 Note OFF: F#2, Velocity (0 - 127): 64
0    |  MIDI Event: Chan 10 Note OFF: B1, Velocity (0 - 127): 64
30   |  MIDI Event: Chan 12 Note OFF: B4, Velocity (0 - 127): 64
0    |  MIDI Event: Chan 6 Note OFF: B4, Velocity (0 - 127): 64
0    |  MIDI Event: Chan 5 Note OFF: B2, Velocity (0 - 127): 64
0    |  MIDI Event: Chan 5 Note OFF: F#3, Velocity (0 - 127): 64
0    |  MIDI Event: Chan 1 Note OFF: B3, Velocity (0 - 127): 64
0    |  MIDI Event: Chan 6 Note OFF: B3, Velocity (0 - 127): 64
0    |  MIDI Event: Chan 7 Note OFF: B4, Velocity (0 - 127): 64
0    |  MIDI Event: Chan 1 Note OFF: D4, Velocity (0 - 127): 64
1    |  MIDI Event: Chan 1 Note ON: B3, Velocity (0 - 127): 79
0    |  MIDI Event: Chan 1 Note ON: D4, Velocity (0 - 127): 95
0    |  MIDI Event: Chan 1 Note ON: F#4, Velocity (0 - 127): 74
0    |  MIDI Event: Chan 2 Control/Mode Change: Expression Control (0-127): 127
0    |  MIDI Event: Chan 3 Control/Mode Change: Expression Control (0-127): 127
0    |  MIDI Event: Chan 5 Note ON: D3, Velocity (0 - 127): 92
0    |  MIDI Event: Chan 5 Note ON: F#3, Velocity (0 - 127): 87
0    |  MIDI Event: Chan 5 Note ON: D4, Velocity (0 - 127): 95
0    |  MIDI Event: Chan 10 Note ON: A#2, Velocity (0 - 127): 120
0    |  MIDI Event: Chan 10 Note ON: C#5, Velocity (0 - 127): 119
29   |  MIDI Event: Chan 10 Note OFF: C#5, Velocity (0 - 127): 64
0    |  MIDI Event: Chan 10 Note OFF: A#2, Velocity (0 - 127): 64
30   |  MIDI Event: Chan 2 Note OFF: B1, Velocity (0 - 127): 64
1    |  MIDI Event: Chan 2 Control/Mode Change: Expression Control (0-127): 64
0    |  MIDI Event: Chan 2 Note ON: B1, Velocity (0 - 127): 120
0    |  MIDI Event: Chan 3 Control/Mode Change: Expression Control (0-127): 73
0    |  MIDI Event: Chan 6 Note ON: B3, Velocity (0 - 127): 120
0    |  MIDI Event: Chan 6 Note ON: B4, Velocity (0 - 127): 120
0    |  MIDI Event: Chan 7 Note ON: B4, Velocity (0 - 127): 120
0    |  MIDI Event: Chan 10 Note ON: B1, Velocity (0 - 127): 120
0    |  MIDI Event: Chan 10 Note ON: F#2, Velocity (0 - 127): 120
0    |  MIDI Event: Chan 10 Note ON: B3, Velocity (0 - 127): 116
0    |  MIDI Event: Chan 12 Note ON: B4, Velocity (0 - 127): 120
29   |  MIDI Event: Chan 10 Note OFF: B3, Velocity (0 - 127): 64
0    |  MIDI Event: Chan 10 Note OFF: F#2, Velocity (0 - 127): 64
0    |  MIDI Event: Chan 10 Note OFF: B1, Velocity (0 - 127): 64
0    |  MIDI Event: Chan 5 Note OFF: D4, Velocity (0 - 127): 64
0    |  MIDI Event: Chan 1 Note OFF: B3, Velocity (0 - 127): 64
0    |  MIDI Event: Chan 1 Note OFF: F#4, Velocity (0 - 127): 64
0    |  MIDI Event: Chan 5 Note OFF: F#3, Velocity (0 - 127): 64
0    |  MIDI Event: Chan 5 Note OFF: D3, Velocity (0 - 127): 64
0    |  MIDI Event: Chan 1 Note OFF: D4, Velocity (0 - 127): 64
1    |  MIDI Event: Chan 1 Note ON: B3, Velocity (0 - 127): 71
0    |  MIDI Event: Chan 1 Note ON: D4, Velocity (0 - 127): 91
0    |  MIDI Event: Chan 1 Note ON: F#4, Velocity (0 - 127): 60
0    |  MIDI Event: Chan 5 Note ON: F#3, Velocity (0 - 127): 109
0    |  MIDI Event: Chan 5 Note ON: B3, Velocity (0 - 127): 95
29   |  MIDI Event: Chan 5 Note OFF: B3, Velocity (0 - 127): 64
0    |  MIDI Event: Chan 1 Note OFF: B3, Velocity (0 - 127): 64
0    |  MIDI Event: Chan 6 Note OFF: B4, Velocity (0 - 127): 64
0    |  MIDI Event: Chan 6 Note OFF: B3, Velocity (0 - 127): 64
0    |  MIDI Event: Chan 7 Note OFF: B4, Velocity (0 - 127): 64
0    |  MIDI Event: Chan 12 Note OFF: B4, Velocity (0 - 127): 64
0    |  MIDI Event: Chan 5 Note OFF: F#3, Velocity (0 - 127): 64
0    |  MIDI Event: Chan 1 Note OFF: D4, Velocity (0 - 127): 64
0    |  MIDI Event: Chan 1 Note OFF: F#4, Velocity (0 - 127): 64
1    |  MIDI Event: Chan 1 Note ON: D4, Velocity (0 - 127): 80
0    |  MIDI Event: Chan 1 Note ON: F#4, Velocity (0 - 127): 62
0    |  MIDI Event: Chan 1 Note ON: B4, Velocity (0 - 127): 91
0    |  MIDI Event: Chan 2 Control/Mode Change: Expression Control (0-127): 127
0    |  MIDI Event: Chan 3 Control/Mode Change: Expression Control (0-127): 127
0    |  MIDI Event: Chan 5 Note ON: D3, Velocity (0 - 127): 103
0    |  MIDI Event: Chan 5 Note ON: F#3, Velocity (0 - 127): 115
0    |  MIDI Event: Chan 10 Note ON: A#2, Velocity (0 - 127): 119
0    |  MIDI Event: Chan 10 Note ON: C#5, Velocity (0 - 127): 119
29   |  MIDI Event: Chan 10 Note OFF: C#5, Velocity (0 - 127): 64
0    |  MIDI Event: Chan 5 Note OFF: F#3, Velocity (0 - 127): 64
0    |  MIDI Event: Chan 1 Note OFF: B4, Velocity (0 - 127): 64
0    |  MIDI Event: Chan 1 Note OFF: F#4, Velocity (0 - 127): 64
0    |  MIDI Event: Chan 5 Note OFF: D3, Velocity (0 - 127): 64
0    |  MIDI Event: Chan 10 Note OFF: A#2, Velocity (0 - 127): 64
0    |  MIDI Event: Chan 1 Note OFF: D4, Velocity (0 - 127): 64
1    |  MIDI Event: Chan 1 Note ON: B3, Velocity (0 - 127): 51
0    |  MIDI Event: Chan 1 Note ON: D4, Velocity (0 - 127): 85
0    |  MIDI Event: Chan 1 Note ON: F#4, Velocity (0 - 127): 59
0    |  MIDI Event: Chan 5 Note ON: B2, Velocity (0 - 127): 92
0    |  MIDI Event: Chan 5 Note ON: E3, Velocity (0 - 127): 98
0    |  MIDI Event: Chan 6 Note ON: A3, Velocity (0 - 127): 98
0    |  MIDI Event: Chan 6 Note ON: A4, Velocity (0 - 127): 98
0    |  MIDI Event: Chan 7 Note ON: A4, Velocity (0 - 127): 120
0    |  MIDI Event: Chan 12 Note ON: A4, Velocity (0 - 127): 120
29   |  MIDI Event: Chan 12 Note OFF: A4, Velocity (0 - 127): 64
0    |  MIDI Event: Chan 3 Note OFF: D4, Velocity (0 - 127): 64
0    |  MIDI Event: Chan 1 Note OFF: B3, Velocity (0 - 127): 64
0    |  MIDI Event: Chan 3 Note OFF: F#4, Velocity (0 - 127): 64
0    |  MIDI Event: Chan 1 Note OFF: F#4, Velocity (0 - 127): 64
0    |  MIDI Event: Chan 2 Note OFF: B1, Velocity (0 - 127): 64
0    |  MIDI Event: Chan 10 Note OFF: C#3, Velocity (0 - 127): 64
0    |  MIDI Event: Chan 3 Note OFF: B3, Velocity (0 - 127): 64
0    |  MIDI Event: Chan 6 Note OFF: A4, Velocity (0 - 127): 64
0    |  MIDI Event: Chan 6 Note OFF: A3, Velocity (0 - 127): 64
0    |  MIDI Event: Chan 5 Note OFF: B2, Velocity (0 - 127): 64
0    |  MIDI Event: Chan 1 Note OFF: D4, Velocity (0 - 127): 64
0    |  MIDI Event: Chan 7 Note OFF: A4, Velocity (0 - 127): 64
0    |  MIDI Event: Chan 5 Note OFF: E3, Velocity (0 - 127): 64
1    |  MIDI Event: Chan 1 Note ON: G3, Velocity (0 - 127): 74
0    |  MIDI Event: Chan 1 Note ON: B3, Velocity (0 - 127): 94
0    |  MIDI Event: Chan 1 Note ON: D4, Velocity (0 - 127): 91
0    |  MIDI Event: Chan 2 Control/Mode Change: Expression Control (0-127): 64
0    |  MIDI Event: Chan 2 Note ON: G1, Velocity (0 - 127): 120
0    |  MIDI Event: Chan 3 Control/Mode Change: Expression Control (0-127): 71
0    |  MIDI Event: Chan 3 Note ON: B3, Velocity (0 - 127): 120
0    |  MIDI Event: Chan 3 Note ON: D4, Velocity (0 - 127): 120
0    |  MIDI Event: Chan 3 Note ON: G4, Velocity (0 - 127): 120
0    |  MIDI Event: Chan 5 Note ON: G2, Velocity (0 - 127): 98
0    |  MIDI Event: Chan 5 Note ON: D3, Velocity (0 - 127): 116
0    |  MIDI Event: Chan 6 Note ON: B3, Velocity (0 - 127): 98
0    |  MIDI Event: Chan 6 Note ON: B4, Velocity (0 - 127): 98
0    |  MIDI Event: Chan 7 Note ON: B4, Velocity (0 - 127): 120
0    |  MIDI Event: Chan 10 Note ON: B1, Velocity (0 - 127): 120
0    |  MIDI Event: Chan 10 Note ON: F#2, Velocity (0 - 127): 120
0    |  MIDI Event: Chan 10 Note ON: B3, Velocity (0 - 127): 118
0    |  MIDI Event: Chan 12 Note ON: B4, Velocity (0 - 127): 120
29   |  MIDI Event: Chan 12 Note OFF: B4, Velocity (0 - 127): 64
0    |  MIDI Event: Chan 10 Note OFF: B3, Velocity (0 - 127): 64
0    |  MIDI Event: Chan 7 Note OFF: B4, Velocity (0 - 127): 64
0    |  MIDI Event: Chan 6 Note OFF: B3, Velocity (0 - 127): 64
0    |  MIDI Event: Chan 10 Note OFF: F#2, Velocity (0 - 127): 64
0    |  MIDI Event: Chan 6 Note OFF: B4, Velocity (0 - 127): 64
0    |  MIDI Event: Chan 10 Note OFF: B1, Velocity (0 - 127): 64
1    |  MIDI Event: Chan 6 Note ON: D4, Velocity (0 - 127): 54
0    |  MIDI Event: Chan 6 Note ON: D5, Velocity (0 - 127): 54
0    |  MIDI Event: Chan 7 Note ON: D5, Velocity (0 - 127): 120
0    |  MIDI Event: Chan 12 Note ON: D5, Velocity (0 - 127): 120
29   |  MIDI Event: Chan 12 Note OFF: D5, Velocity (0 - 127): 64
0    |  MIDI Event: Chan 5 Note OFF: G2, Velocity (0 - 127): 64
0    |  MIDI Event: Chan 1 Note OFF: B3, Velocity (0 - 127): 64
0    |  MIDI Event: Chan 1 Note OFF: G3, Velocity (0 - 127): 64
0    |  MIDI Event: Chan 5 Note OFF: D3, Velocity (0 - 127): 64
0    |  MIDI Event: Chan 6 Note OFF: D4, Velocity (0 - 127): 64
0    |  MIDI Event: Chan 1 Note OFF: D4, Velocity (0 - 127): 64
0    |  MIDI Event: Chan 7 Note OFF: D5, Velocity (0 - 127): 64
0    |  MIDI Event: Chan 6 Note OFF: D5, Velocity (0 - 127): 64
1    |  MIDI Event: Chan 1 Note ON: B3, Velocity (0 - 127): 70
0    |  MIDI Event: Chan 1 Note ON: D4, Velocity (0 - 127): 94
0    |  MIDI Event: Chan 1 Note ON: G4, Velocity (0 - 127): 101
0    |  MIDI Event: Chan 2 Control/Mode Change: Expression Control (0-127): 127
0    |  MIDI Event: Chan 3 Control/Mode Change: Expression Control (0-127): 127
0    |  MIDI Event: Chan 5 Note ON: D3, Velocity (0 - 127): 79
0    |  MIDI Event: Chan 5 Note ON: G3, Velocity (0 - 127): 111
0    |  MIDI Event: Chan 5 Note ON: B3, Velocity (0 - 127): 100
0    |  MIDI Event: Chan 6 Note ON: B3, Velocity (0 - 127): 116
0    |  MIDI Event: Chan 6 Note ON: B4, Velocity (0 - 127): 116
0    |  MIDI Event: Chan 7 Note ON: B4, Velocity (0 - 127): 120
0    |  MIDI Event: Chan 10 Note ON: A#2, Velocity (0 - 127): 120
0    |  MIDI Event: Chan 10 Note ON: C#5, Velocity (0 - 127): 109
0    |  MIDI Event: Chan 12 Note ON: B4, Velocity (0 - 127): 120
29   |  MIDI Event: Chan 10 Note OFF: C#5, Velocity (0 - 127): 64
0    |  MIDI Event: Chan 10 Note OFF: A#2, Velocity (0 - 127): 64
30   |  MIDI Event: Chan 6 Note OFF: B4, Velocity (0 - 127): 64
0    |  MIDI Event: Chan 12 Note OFF: B4, Velocity (0 - 127): 64
0    |  MIDI Event: Chan 2 Note OFF: G1, Velocity (0 - 127): 64
0    |  MIDI Event: Chan 6 Note OFF: B3, Velocity (0 - 127): 64
0    |  MIDI Event: Chan 7 Note OFF: B4, Velocity (0 - 127): 64
1    |  MIDI Event: Chan 2 Control/Mode Change: Expression Control (0-127): 64
0    |  MIDI Event: Chan 2 Note ON: G1, Velocity (0 - 127): 120
0    |  MIDI Event: Chan 3 Control/Mode Change: Expression Control (0-127): 80
0    |  MIDI Event: Chan 10 Note ON: B1, Velocity (0 - 127): 120
0    |  MIDI Event: Chan 10 Note ON: F#2, Velocity (0 - 127): 120
0    |  MIDI Event: Chan 10 Note ON: B3, Velocity (0 - 127): 116
29   |  MIDI Event: Chan 10 Note OFF: B3, Velocity (0 - 127): 64
0    |  MIDI Event: Chan 5 Note OFF: G3, Velocity (0 - 127): 64
0    |  MIDI Event: Chan 1 Note OFF: G4, Velocity (0 - 127): 64
0    |  MIDI Event: Chan 5 Note OFF: B3, Velocity (0 - 127): 64
0    |  MIDI Event: Chan 1 Note OFF: D4, Velocity (0 - 127): 64
0    |  MIDI Event: Chan 1 Note OFF: B3, Velocity (0 - 127): 64
0    |  MIDI Event: Chan 5 Note OFF: D3, Velocity (0 - 127): 64
0    |  MIDI Event: Chan 10 Note OFF: F#2, Velocity (0 - 127): 64
0    |  MIDI Event: Chan 10 Note OFF: B1, Velocity (0 - 127): 64
1    |  MIDI Event: Chan 1 Note ON: B3, Velocity (0 - 127): 52
0    |  MIDI Event: Chan 1 Note ON: D4, Velocity (0 - 127): 85
0    |  MIDI Event: Chan 1 Note ON: G4, Velocity (0 - 127): 94
0    |  MIDI Event: Chan 5 Note ON: D3, Velocity (0 - 127): 82
0    |  MIDI Event: Chan 5 Note ON: G3, Velocity (0 - 127): 98
0    |  MIDI Event: Chan 5 Note ON: B3, Velocity (0 - 127): 85
0    |  MIDI Event: Chan 6 Note ON: A3, Velocity (0 - 127): 83
0    |  MIDI Event: Chan 6 Note ON: A4, Velocity (0 - 127): 83
0    |  MIDI Event: Chan 7 Note ON: A4, Velocity (0 - 127): 120
0    |  MIDI Event: Chan 12 Note ON: A4, Velocity (0 - 127): 120
29   |  MIDI Event: Chan 12 Note OFF: A4, Velocity (0 - 127): 64
0    |  MIDI Event: Chan 1 Note OFF: B3, Velocity (0 - 127): 64
0    |  MIDI Event: Chan 1 Note OFF: D4, Velocity (0 - 127): 64
0    |  MIDI Event: Chan 5 Note OFF: B3, Velocity (0 - 127): 64
0    |  MIDI Event: Chan 5 Note OFF: D3, Velocity (0 - 127): 64
0    |  MIDI Event: Chan 1 Note OFF: G4, Velocity (0 - 127): 64
0    |  MIDI Event: Chan 5 Note OFF: G3, Velocity (0 - 127): 64
0    |  MIDI Event: Chan 7 Note OFF: A4, Velocity (0 - 127): 64
0    |  MIDI Event: Chan 6 Note OFF: A4, Velocity (0 - 127): 64
0    |  MIDI Event: Chan 6 Note OFF: A3, Velocity (0 - 127): 64
1    |  MIDI Event: Chan 1 Note ON: D4, Velocity (0 - 127): 78
0    |  MIDI Event: Chan 1 Note ON: G4, Velocity (0 - 127): 100
0    |  MIDI Event: Chan 1 Note ON: B4, Velocity (0 - 127): 46
0    |  MIDI Event: Chan 2 Control/Mode Change: Expression Control (0-127): 127
0    |  MIDI Event: Chan 3 Control/Mode Change: Expression Control (0-127): 127
0    |  MIDI Event: Chan 5 Note ON: G2, Velocity (0 - 127): 109
0    |  MIDI Event: Chan 5 Note ON: D3, Velocity (0 - 127): 109
0    |  MIDI Event: Chan 6 Note ON: B3, Velocity (0 - 127): 98
0    |  MIDI Event: Chan 6 Note ON: B4, Velocity (0 - 127): 98
0    |  MIDI Event: Chan 7 Note ON: B4, Velocity (0 - 127): 120
0    |  MIDI Event: Chan 10 Note ON: A#2, Velocity (0 - 127): 120
0    |  MIDI Event: Chan 10 Note ON: C#5, Velocity (0 - 127): 115
0    |  MIDI Event: Chan 12 Note ON: B4, Velocity (0 - 127): 120
29   |  MIDI Event: Chan 12 Note OFF: B4, Velocity (0 - 127): 64
0    |  MIDI Event: Chan 7 Note OFF: B4, Velocity (0 - 127): 64
0    |  MIDI Event: Chan 1 Note OFF: D4, Velocity (0 - 127): 64
0    |  MIDI Event: Chan 1 Note OFF: G4, Velocity (0 - 127): 64
0    |  MIDI Event: Chan 6 Note OFF: B3, Velocity (0 - 127): 64
0    |  MIDI Event: Chan 5 Note OFF: G2, Velocity (0 - 127): 64
0    |  MIDI Event: Chan 1 Note OFF: B4, Velocity (0 - 127): 64
0    |  MIDI Event: Chan 5 Note OFF: D3, Velocity (0 - 127): 64
0    |  MIDI Event: Chan 10 Note OFF: C#5, Velocity (0 - 127): 64
0    |  MIDI Event: Chan 10 Note OFF: A#2, Velocity (0 - 127): 64
0    |  MIDI Event: Chan 6 Note OFF: B4, Velocity (0 - 127): 64
1    |  MIDI Event: Chan 1 Note ON: B3, Velocity (0 - 127): 45
0    |  MIDI Event: Chan 1 Note ON: D4, Velocity (0 - 127): 73
0    |  MIDI Event: Chan 1 Note ON: G4, Velocity (0 - 127): 86
0    |  MIDI Event: Chan 5 Note ON: G2, Velocity (0 - 127): 101
0    |  MIDI Event: Chan 5 Note ON: E3, Velocity (0 - 127): 116
0    |  MIDI Event: Chan 6 Note ON: A3, Velocity (0 - 127): 94
0    |  MIDI Event: Chan 6 Note ON: A4, Velocity (0 - 127): 94
0    |  MIDI Event: Chan 7 Note ON: A4, Velocity (0 - 127): 120
0    |  MIDI Event: Chan 12 Note ON: A4, Velocity (0 - 127): 120
29   |  MIDI Event: Chan 12 Note OFF: A4, Velocity (0 - 127): 64
0    |  MIDI Event: Chan 1 Note OFF: D4, Velocity (0 - 127): 64
0    |  MIDI Event: Chan 3 Note OFF: D4, Velocity (0 - 127): 64
0    |  MIDI Event: Chan 5 Note OFF: G2, Velocity (0 - 127): 64
0    |  MIDI Event: Chan 3 Note OFF: B3, Velocity (0 - 127): 64
0    |  MIDI Event: Chan 3 Note OFF: G4, Velocity (0 - 127): 64
0    |  MIDI Event: Chan 2 Note OFF: G1, Velocity (0 - 127): 64
0    |  MIDI Event: Chan 1 Note OFF: B3, Velocity (0 - 127): 64
0    |  MIDI Event: Chan 6 Note OFF: A4, Velocity (0 - 127): 64
0    |  MIDI Event: Chan 5 Note OFF: E3, Velocity (0 - 127): 64
0    |  MIDI Event: Chan 1 Note OFF: G4, Velocity (0 - 127): 64
0    |  MIDI Event: Chan 7 Note OFF: A4, Velocity (0 - 127): 64
0    |  MIDI Event: Chan 6 Note OFF: A3, Velocity (0 - 127): 64
1    |  MIDI Event: Chan 1 Note ON: F#3, Velocity (0 - 127): 35
0    |  MIDI Event: Chan 1 Note ON: A3, Velocity (0 - 127): 85
0    |  MIDI Event: Chan 1 Note ON: D4, Velocity (0 - 127): 79
0    |  MIDI Event: Chan 2 Control/Mode Change: Expression Control (0-127): 64
0    |  MIDI Event: Chan 2 Note ON: D2, Velocity (0 - 127): 120
0    |  MIDI Event: Chan 3 Control/Mode Change: Expression Control (0-127): 64
0    |  MIDI Event: Chan 3 Note ON: A3, Velocity (0 - 127): 120
0    |  MIDI Event: Chan 3 Note ON: D4, Velocity (0 - 127): 120
0    |  MIDI Event: Chan 3 Note ON: F#4, Velocity (0 - 127): 120
0    |  MIDI Event: Chan 5 Note ON: A2, Velocity (0 - 127): 90
0    |  MIDI Event: Chan 5 Note ON: D3, Velocity (0 - 127): 105
0    |  MIDI Event: Chan 6 Note ON: D4, Velocity (0 - 127): 120
0    |  MIDI Event: Chan 6 Note ON: D5, Velocity (0 - 127): 120
0    |  MIDI Event: Chan 7 Note ON: D5, Velocity (0 - 127): 120
0    |  MIDI Event: Chan 10 Note ON: B1, Velocity (0 - 127): 120
0    |  MIDI Event: Chan 10 Note ON: F#2, Velocity (0 - 127): 120
0    |  MIDI Event: Chan 10 Note ON: B3, Velocity (0 - 127): 116
0    |  MIDI Event: Chan 12 Note ON: D5, Velocity (0 - 127): 120
29   |  MIDI Event: Chan 10 Note OFF: B3, Velocity (0 - 127): 64
0    |  MIDI Event: Chan 10 Note OFF: F#2, Velocity (0 - 127): 64
0    |  MIDI Event: Chan 10 Note OFF: B1, Velocity (0 - 127): 64
30   |  MIDI Event: Chan 12 Note OFF: D5, Velocity (0 - 127): 64
0    |  MIDI Event: Chan 6 Note OFF: D4, Velocity (0 - 127): 64
0    |  MIDI Event: Chan 1 Note OFF: D4, Velocity (0 - 127): 64
0    |  MIDI Event: Chan 5 Note OFF: A2, Velocity (0 - 127): 64
0    |  MIDI Event: Chan 1 Note OFF: F#3, Velocity (0 - 127): 64
0    |  MIDI Event: Chan 5 Note OFF: D3, Velocity (0 - 127): 64
0    |  MIDI Event: Chan 6 Note OFF: D5, Velocity (0 - 127): 64
0    |  MIDI Event: Chan 7 Note OFF: D5, Velocity (0 - 127): 64
0    |  MIDI Event: Chan 1 Note OFF: A3, Velocity (0 - 127): 64
1    |  MIDI Event: Chan 1 Note ON: A3, Velocity (0 - 127): 69
0    |  MIDI Event: Chan 1 Note ON: D4, Velocity (0 - 127): 98
0    |  MIDI Event: Chan 1 Note ON: F#4, Velocity (0 - 127): 74
0    |  MIDI Event: Chan 2 Control/Mode Change: Expression Control (0-127): 127
0    |  MIDI Event: Chan 3 Control/Mode Change: Expression Control (0-127): 127
0    |  MIDI Event: Chan 5 Note ON: A2, Velocity (0 - 127): 100
0    |  MIDI Event: Chan 5 Note ON: D3, Velocity (0 - 127): 111
0    |  MIDI Event: Chan 5 Note ON: F#3, Velocity (0 - 127): 89
0    |  MIDI Event: Chan 10 Note ON: A#2, Velocity (0 - 127): 120
0    |  MIDI Event: Chan 10 Note ON: C#5, Velocity (0 - 127): 109
29   |  MIDI Event: Chan 10 Note OFF: C#5, Velocity (0 - 127): 64
0    |  MIDI Event: Chan 10 Note OFF: A#2, Velocity (0 - 127): 64
30   |  MIDI Event: Chan 2 Note OFF: D2, Velocity (0 - 127): 64
1    |  MIDI Event: Chan 2 Control/Mode Change: Expression Control (0-127): 64
0    |  MIDI Event: Chan 2 Note ON: D2, Velocity (0 - 127): 120
0    |  MIDI Event: Chan 3 Control/Mode Change: Expression Control (0-127): 73
0    |  MIDI Event: Chan 6 Note ON: D4, Velocity (0 - 127): 120
0    |  MIDI Event: Chan 6 Note ON: D5, Velocity (0 - 127): 120
0    |  MIDI Event: Chan 7 Note ON: D5, Velocity (0 - 127): 120
0    |  MIDI Event: Chan 10 Note ON: B1, Velocity (0 - 127): 120
0    |  MIDI Event: Chan 10 Note ON: F#2, Velocity (0 - 127): 120
0    |  MIDI Event: Chan 10 Note ON: B3, Velocity (0 - 127): 116
0    |  MIDI Event: Chan 12 Note ON: D5, Velocity (0 - 127): 120
29   |  MIDI Event: Chan 10 Note OFF: B3, Velocity (0 - 127): 64
0    |  MIDI Event: Chan 10 Note OFF: F#2, Velocity (0 - 127): 64
0    |  MIDI Event: Chan 5 Note OFF: A2, Velocity (0 - 127): 64
0    |  MIDI Event: Chan 1 Note OFF: F#4, Velocity (0 - 127): 64
0    |  MIDI Event: Chan 1 Note OFF: D4, Velocity (0 - 127): 64
0    |  MIDI Event: Chan 1 Note OFF: A3, Velocity (0 - 127): 64
0    |  MIDI Event: Chan 5 Note OFF: F#3, Velocity (0 - 127): 64
0    |  MIDI Event: Chan 10 Note OFF: B1, Velocity (0 - 127): 64
0    |  MIDI Event: Chan 5 Note OFF: D3, Velocity (0 - 127): 64
1    |  MIDI Event: Chan 1 Note ON: F#3, Velocity (0 - 127): 44
0    |  MIDI Event: Chan 1 Note ON: A3, Velocity (0 - 127): 78
0    |  MIDI Event: Chan 1 Note ON: D4, Velocity (0 - 127): 58
0    |  MIDI Event: Chan 5 Note ON: A2, Velocity (0 - 127): 85
0    |  MIDI Event: Chan 5 Note ON: D3, Velocity (0 - 127): 105
0    |  MIDI Event: Chan 5 Note ON: F#3, Velocity (0 - 127): 81
29   |  MIDI Event: Chan 5 Note OFF: F#3, Velocity (0 - 127): 64
0    |  MIDI Event: Chan 6 Note OFF: D4, Velocity (0 - 127): 64
0    |  MIDI Event: Chan 7 Note OFF: D5, Velocity (0 - 127): 64
0    |  MIDI Event: Chan 1 Note OFF: A3, Velocity (0 - 127): 64
0    |  MIDI Event: Chan 12 Note OFF: D5, Velocity (0 - 127): 64
0    |  MIDI Event: Chan 6 Note OFF: D5, Velocity (0 - 127): 64
0    |  MIDI Event: Chan 1 Note OFF: F#3, Velocity (0 - 127): 64
0    |  MIDI Event: Chan 5 Note OFF: D3, Velocity (0 - 127): 64
0    |  MIDI Event: Chan 5 Note OFF: A2, Velocity (0 - 127): 64
0    |  MIDI Event: Chan 1 Note OFF: D4, Velocity (0 - 127): 64
1    |  MIDI Event: Chan 1 Note ON: A3, Velocity (0 - 127): 57
0    |  MIDI Event: Chan 1 Note ON: D4, Velocity (0 - 127): 91
0    |  MIDI Event: Chan 1 Note ON: F#4, Velocity (0 - 127): 77
0    |  MIDI Event: Chan 2 Control/Mode Change: Expression Control (0-127): 127
0    |  MIDI Event: Chan 3 Control/Mode Change: Expression Control (0-127): 127
0    |  MIDI Event: Chan 5 Note ON: D3, Velocity (0 - 127): 109
0    |  MIDI Event: Chan 5 Note ON: F#3, Velocity (0 - 127): 89
0    |  MIDI Event: Chan 5 Note ON: A3, Velocity (0 - 127): 109
0    |  MIDI Event: Chan 10 Note ON: A#2, Velocity (0 - 127): 120
0    |  MIDI Event: Chan 10 Note ON: C#5, Velocity (0 - 127): 119
29   |  MIDI Event: Chan 10 Note OFF: C#5, Velocity (0 - 127): 64
0    |  MIDI Event: Chan 5 Note OFF: A3, Velocity (0 - 127): 64
0    |  MIDI Event: Chan 5 Note OFF: D3, Velocity (0 - 127): 64
0    |  MIDI Event: Chan 1 Note OFF: F#4, Velocity (0 - 127): 64
0    |  MIDI Event: Chan 5 Note OFF: F#3, Velocity (0 - 127): 64
0    |  MIDI Event: Chan 10 Note OFF: A#2, Velocity (0 - 127): 64
0    |  MIDI Event: Chan 1 Note OFF: A3, Velocity (0 - 127): 64
0    |  MIDI Event: Chan 1 Note OFF: D4, Velocity (0 - 127): 64
1    |  MIDI Event: Chan 1 Note ON: F#3, Velocity (0 - 127): 35
0    |  MIDI Event: Chan 1 Note ON: A3, Velocity (0 - 127): 79
0    |  MIDI Event: Chan 1 Note ON: D4, Velocity (0 - 127): 56
0    |  MIDI Event: Chan 5 Note ON: D3, Velocity (0 - 127): 111
0    |  MIDI Event: Chan 5 Note ON: F#3, Velocity (0 - 127): 100
0    |  MIDI Event: Chan 5 Note ON: A3, Velocity (0 - 127): 100
0    |  MIDI Event: Chan 6 Note ON: D4, Velocity (0 - 127): 89
0    |  MIDI Event: Chan 6 Note ON: D5, Velocity (0 - 127): 89
0    |  MIDI Event: Chan 7 Note ON: D5, Velocity (0 - 127): 120
0    |  MIDI Event: Chan 12 Note ON: D5, Velocity (0 - 127): 120
29   |  MIDI Event: Chan 12 Note OFF: D5, Velocity (0 - 127): 64
0    |  MIDI Event: Chan 1 Note OFF: F#3, Velocity (0 - 127): 64
0    |  MIDI Event: Chan 1 Note OFF: A3, Velocity (0 - 127): 64
0    |  MIDI Event: Chan 5 Note OFF: A3, Velocity (0 - 127): 64
0    |  MIDI Event: Chan 5 Note OFF: D3, Velocity (0 - 127): 64
0    |  MIDI Event: Chan 1 Note OFF: D4, Velocity (0 - 127): 64
0    |  MIDI Event: Chan 2 Note OFF: D2, Velocity (0 - 127): 64
0    |  MIDI Event: Chan 5 Note OFF: F#3, Velocity (0 - 127): 64
0    |  MIDI Event: Chan 6 Note OFF: D5, Velocity (0 - 127): 64
0    |  MIDI Event: Chan 6 Note OFF: D4, Velocity (0 - 127): 64
0    |  MIDI Event: Chan 7 Note OFF: D5, Velocity (0 - 127): 64
1    |  MIDI Event: Chan 1 Note ON: F#3, Velocity (0 - 127): 49
0    |  MIDI Event: Chan 1 Note ON: A3, Velocity (0 - 127): 85
0    |  MIDI Event: Chan 1 Note ON: D4, Velocity (0 - 127): 75
0    |  MIDI Event: Chan 2 Control/Mode Change: Expression Control (0-127): 64
0    |  MIDI Event: Chan 2 Note ON: D2, Velocity (0 - 127): 120
0    |  MIDI Event: Chan 3 Control/Mode Change: Expression Control (0-127): 71
0    |  MIDI Event: Chan 5 Note ON: A2, Velocity (0 - 127): 105
0    |  MIDI Event: Chan 5 Note ON: D3, Velocity (0 - 127): 116
0    |  MIDI Event: Chan 6 Note ON: E4, Velocity (0 - 127): 81
0    |  MIDI Event: Chan 6 Note ON: E5, Velocity (0 - 127): 81
0    |  MIDI Event: Chan 7 Note ON: E5, Velocity (0 - 127): 120
0    |  MIDI Event: Chan 10 Note ON: B1, Velocity (0 - 127): 120
0    |  MIDI Event: Chan 10 Note ON: F#2, Velocity (0 - 127): 120
0    |  MIDI Event: Chan 10 Note ON: B3, Velocity (0 - 127): 118
0    |  MIDI Event: Chan 12 Note ON: E5, Velocity (0 - 127): 120
29   |  MIDI Event: Chan 12 Note OFF: E5, Velocity (0 - 127): 64
0    |  MIDI Event: Chan 10 Note OFF: B3, Velocity (0 - 127): 64
0    |  MIDI Event: Chan 7 Note OFF: E5, Velocity (0 - 127): 64
0    |  MIDI Event: Chan 6 Note OFF: E4, Velocity (0 - 127): 64
0    |  MIDI Event: Chan 10 Note OFF: F#2, Velocity (0 - 127): 64
0    |  MIDI Event: Chan 6 Note OFF: E5, Velocity (0 - 127): 64
0    |  MIDI Event: Chan 10 Note OFF: B1, Velocity (0 - 127): 64
1    |  MIDI Event: Chan 6 Note ON: D4, Velocity (0 - 127): 95
0    |  MIDI Event: Chan 6 Note ON: D5, Velocity (0 - 127): 95
0    |  MIDI Event: Chan 7 Note ON: D5, Velocity (0 - 127): 120
0    |  MIDI Event: Chan 12 Note ON: D5, Velocity (0 - 127): 120
29   |  MIDI Event: Chan 12 Note OFF: D5, Velocity (0 - 127): 64
0    |  MIDI Event: Chan 5 Note OFF: A2, Velocity (0 - 127): 64
0    |  MIDI Event: Chan 1 Note OFF: A3, Velocity (0 - 127): 64
0    |  MIDI Event: Chan 1 Note OFF: F#3, Velocity (0 - 127): 64
0    |  MIDI Event: Chan 5 Note OFF: D3, Velocity (0 - 127): 64
0    |  MIDI Event: Chan 6 Note OFF: D4, Velocity (0 - 127): 64
0    |  MIDI Event: Chan 1 Note OFF: D4, Velocity (0 - 127): 64
0    |  MIDI Event: Chan 7 Note OFF: D5, Velocity (0 - 127): 64
0    |  MIDI Event: Chan 6 Note OFF: D5, Velocity (0 - 127): 64
1    |  MIDI Event: Chan 1 Note ON: A3, Velocity (0 - 127): 56
0    |  MIDI Event: Chan 1 Note ON: D4, Velocity (0 - 127): 84
0    |  MIDI Event: Chan 1 Note ON: F#4, Velocity (0 - 127): 49
0    |  MIDI Event: Chan 2 Control/Mode Change: Expression Control (0-127): 127
0    |  MIDI Event: Chan 3 Control/Mode Change: Expression Control (0-127): 127
0    |  MIDI Event: Chan 5 Note ON: D3, Velocity (0 - 127): 105
0    |  MIDI Event: Chan 5 Note ON: F#3, Velocity (0 - 127): 115
0    |  MIDI Event: Chan 6 Note ON: E4, Velocity (0 - 127): 111
0    |  MIDI Event: Chan 6 Note ON: E5, Velocity (0 - 127): 111
0    |  MIDI Event: Chan 7 Note ON: E5, Velocity (0 - 127): 120
0    |  MIDI Event: Chan 10 Note ON: A#2, Velocity (0 - 127): 120
0    |  MIDI Event: Chan 10 Note ON: C#5, Velocity (0 - 127): 115
0    |  MIDI Event: Chan 12 Note ON: E5, Velocity (0 - 127): 120
29   |  MIDI Event: Chan 10 Note OFF: C#5, Velocity (0 - 127): 64
0    |  MIDI Event: Chan 5 Note OFF: D3, Velocity (0 - 127): 64
0    |  MIDI Event: Chan 1 Note OFF: A3, Velocity (0 - 127): 64
0    |  MIDI Event: Chan 1 Note OFF: F#4, Velocity (0 - 127): 64
0    |  MIDI Event: Chan 10 Note OFF: A#2, Velocity (0 - 127): 64
0    |  MIDI Event: Chan 1 Note OFF: D4, Velocity (0 - 127): 64
0    |  MIDI Event: Chan 5 Note OFF: F#3, Velocity (0 - 127): 64
1    |  MIDI Event: Chan 1 Note ON: A3, Velocity (0 - 127): 84
0    |  MIDI Event: Chan 1 Note ON: D4, Velocity (0 - 127): 94
0    |  MIDI Event: Chan 1 Note ON: F#4, Velocity (0 - 127): 76
0    |  MIDI Event: Chan 5 Note ON: D3, Velocity (0 - 127): 100
0    |  MIDI Event: Chan 5 Note ON: F#3, Velocity (0 - 127): 92
21   |  MIDI Event: Chan 6 Pitch Bend Change (0-16383): 7749 (factor==0.992841)
2    |  MIDI Event: Chan 6 Pitch Bend Change (0-16383): 6215 (factor==0.968447)
3    |  MIDI Event: Chan 6 Pitch Bend Change (0-16383): 4197 (factor==0.937266)
2    |  MIDI Event: Chan 6 Pitch Bend Change (0-16383): 2422 (factor==0.91067)
1    |  MIDI Event: Chan 5 Note OFF: F#3, Velocity (0 - 127): 64
0    |  MIDI Event: Chan 3 Note OFF: D4, Velocity (0 - 127): 64
0    |  MIDI Event: Chan 3 Note OFF: F#4, Velocity (0 - 127): 64
0    |  MIDI Event: Chan 2 Note OFF: D2, Velocity (0 - 127): 64
0    |  MIDI Event: Chan 6 Note OFF: E5, Velocity (0 - 127): 64
0    |  MIDI Event: Chan 12 Note OFF: E5, Velocity (0 - 127): 64
0    |  MIDI Event: Chan 3 Note OFF: A3, Velocity (0 - 127): 64
0    |  MIDI Event: Chan 6 Note OFF: E4, Velocity (0 - 127): 64
0    |  MIDI Event: Chan 1 Note OFF: F#4, Velocity (0 - 127): 64
0    |  MIDI Event: Chan 1 Note OFF: A3, Velocity (0 - 127): 64
0    |  MIDI Event: Chan 7 Note OFF: E5, Velocity (0 - 127): 64
0    |  MIDI Event: Chan 5 Note OFF: D3, Velocity (0 - 127): 64
0    |  MIDI Event: Chan 1 Note OFF: D4, Velocity (0 - 127): 64
1    |  MIDI Event: Chan 1 Note ON: E3, Velocity (0 - 127): 47
0    |  MIDI Event: Chan 1 Note ON: A3, Velocity (0 - 127): 89
0    |  MIDI Event: Chan 1 Note ON: C#4, Velocity (0 - 127): 52
0    |  MIDI Event: Chan 2 Control/Mode Change: Expression Control (0-127): 64
0    |  MIDI Event: Chan 2 Note ON: A1, Velocity (0 - 127): 120
0    |  MIDI Event: Chan 3 Control/Mode Change: Expression Control (0-127): 80
0    |  MIDI Event: Chan 3 Note ON: A3, Velocity (0 - 127): 120
0    |  MIDI Event: Chan 3 Note ON: C#4, Velocity (0 - 127): 120
0    |  MIDI Event: Chan 3 Note ON: E4, Velocity (0 - 127): 120
0    |  MIDI Event: Chan 5 Note ON: A2, Velocity (0 - 127): 101
0    |  MIDI Event: Chan 5 Note ON: E3, Velocity (0 - 127): 101
0    |  MIDI Event: Chan 6 Note ON: F#4, Velocity (0 - 127): 119
0    |  MIDI Event: Chan 6 Note ON: F#5, Velocity (0 - 127): 119
0    |  MIDI Event: Chan 7 Note ON: F#5, Velocity (0 - 127): 120
0    |  MIDI Event: Chan 10 Note ON: B1, Velocity (0 - 127): 120
0    |  MIDI Event: Chan 10 Note ON: F#2, Velocity (0 - 127): 120
0    |  MIDI Event: Chan 10 Note ON: B3, Velocity (0 - 127): 119
0    |  MIDI Event: Chan 12 Note ON: F#5, Velocity (0 - 127): 120
1    |  MIDI Event: Chan 6 Pitch Bend Change (0-16383): 1211 (factor==0.89296)
2    |  MIDI Event: Chan 6 Pitch Bend Change (0-16383): 646 (factor==0.884815)
3    |  MIDI Event: Chan 6 Pitch Bend Change (0-16383): 565 (factor==0.883653)
2    |  MIDI Event: Chan 6 Pitch Bend Change (0-16383): 646 (factor==0.884815)
3    |  MIDI Event: Chan 6 Pitch Bend Change (0-16383): 1373 (factor==0.895309)
2    |  MIDI Event: Chan 6 Pitch Bend Change (0-16383): 2260 (factor==0.908281)
3    |  MIDI Event: Chan 6 Pitch Bend Change (0-16383): 3471 (factor==0.926295)
2    |  MIDI Event: Chan 6 Pitch Bend Change (0-16383): 5085 (factor==0.950861)
3    |  MIDI Event: Chan 6 Pitch Bend Change (0-16383): 6942 (factor==0.979932)
2    |  MIDI Event: Chan 6 Pitch Bend Change (0-16383): 8071 (factor==0.99804)
3    |  MIDI Event: Chan 6 Pitch Bend Change (0-16383): 8192 (factor==1)
3    |  MIDI Event: Chan 10 Note OFF: B3, Velocity (0 - 127): 64
0    |  MIDI Event: Chan 10 Note OFF: F#2, Velocity (0 - 127): 64
0    |  MIDI Event: Chan 10 Note OFF: B1, Velocity (0 - 127): 64
30   |  MIDI Event: Chan 12 Note OFF: F#5, Velocity (0 - 127): 64
0    |  MIDI Event: Chan 6 Note OFF: F#4, Velocity (0 - 127): 64
0    |  MIDI Event: Chan 1 Note OFF: C#4, Velocity (0 - 127): 64
0    |  MIDI Event: Chan 5 Note OFF: A2, Velocity (0 - 127): 64
0    |  MIDI Event: Chan 1 Note OFF: E3, Velocity (0 - 127): 64
0    |  MIDI Event: Chan 5 Note OFF: E3, Velocity (0 - 127): 64
0    |  MIDI Event: Chan 6 Note OFF: F#5, Velocity (0 - 127): 64
0    |  MIDI Event: Chan 7 Note OFF: F#5, Velocity (0 - 127): 64
0    |  MIDI Event: Chan 1 Note OFF: A3, Velocity (0 - 127): 64
1    |  MIDI Event: Chan 1 Note ON: A3, Velocity (0 - 127): 51
0    |  MIDI Event: Chan 1 Note ON: C#4, Velocity (0 - 127): 52
0    |  MIDI Event: Chan 1 Note ON: E4, Velocity (0 - 127): 78
0    |  MIDI Event: Chan 2 Control/Mode Change: Expression Control (0-127): 127
0    |  MIDI Event: Chan 3 Control/Mode Change: Expression Control (0-127): 127
0    |  MIDI Event: Chan 5 Note ON: C#3, Velocity (0 - 127): 89
0    |  MIDI Event: Chan 5 Note ON: E3, Velocity (0 - 127): 101
0    |  MIDI Event: Chan 5 Note ON: A3, Velocity (0 - 127): 89
0    |  MIDI Event: Chan 6 Note ON: D4, Velocity (0 - 127): 98
0    |  MIDI Event: Chan 6 Note ON: D5, Velocity (0 - 127): 98
0    |  MIDI Event: Chan 7 Note ON: D5, Velocity (0 - 127): 120
0    |  MIDI Event: Chan 10 Note ON: A#2, Velocity (0 - 127): 120
0    |  MIDI Event: Chan 10 Note ON: C#5, Velocity (0 - 127): 111
0    |  MIDI Event: Chan 12 Note ON: D5, Velocity (0 - 127): 120
29   |  MIDI Event: Chan 10 Note OFF: C#5, Velocity (0 - 127): 64
0    |  MIDI Event: Chan 5 Note OFF: E3, Velocity (0 - 127): 64
0    |  MIDI Event: Chan 1 Note OFF: C#4, Velocity (0 - 127): 64
0    |  MIDI Event: Chan 1 Note OFF: A3, Velocity (0 - 127): 64
0    |  MIDI Event: Chan 1 Note OFF: E4, Velocity (0 - 127): 64
0    |  MIDI Event: Chan 5 Note OFF: C#3, Velocity (0 - 127): 64
0    |  MIDI Event: Chan 10 Note OFF: A#2, Velocity (0 - 127): 64
0    |  MIDI Event: Chan 5 Note OFF: A3, Velocity (0 - 127): 64
1    |  MIDI Event: Chan 1 Note ON: A3, Velocity (0 - 127): 73
0    |  MIDI Event: Chan 1 Note ON: C#4, Velocity (0 - 127): 52
0    |  MIDI Event: Chan 1 Note ON: E4, Velocity (0 - 127): 83
0    |  MIDI Event: Chan 5 Note ON: C#3, Velocity (0 - 127): 119
0    |  MIDI Event: Chan 5 Note ON: E3, Velocity (0 - 127): 118
0    |  MIDI Event: Chan 5 Note ON: A3, Velocity (0 - 127): 105
29   |  MIDI Event: Chan 5 Note OFF: A3, Velocity (0 - 127): 64
0    |  MIDI Event: Chan 6 Note OFF: D4, Velocity (0 - 127): 64
0    |  MIDI Event: Chan 2 Note OFF: A1, Velocity (0 - 127): 64
0    |  MIDI Event: Chan 7 Note OFF: D5, Velocity (0 - 127): 64
0    |  MIDI Event: Chan 3 Note OFF: A3, Velocity (0 - 127): 64
0    |  MIDI Event: Chan 6 Note OFF: D5, Velocity (0 - 127): 64
0    |  MIDI Event: Chan 3 Note OFF: C#4, Velocity (0 - 127): 64
0    |  MIDI Event: Chan 12 Note OFF: D5, Velocity (0 - 127): 64
0    |  MIDI Event: Chan 5 Note OFF: C#3, Velocity (0 - 127): 64
0    |  MIDI Event: Chan 1 Note OFF: E4, Velocity (0 - 127): 64
0    |  MIDI Event: Chan 1 Note OFF: A3, Velocity (0 - 127): 64
0    |  MIDI Event: Chan 3 Note OFF: E4, Velocity (0 - 127): 64
0    |  MIDI Event: Chan 5 Note OFF: E3, Velocity (0 - 127): 64
0    |  MIDI Event: Chan 1 Note OFF: C#4, Velocity (0 - 127): 64
1    |  MIDI Event: Chan 1 Note ON: B3, Velocity (0 - 127): 58
0    |  MIDI Event: Chan 1 Note ON: D4, Velocity (0 - 127): 91
0    |  MIDI Event: Chan 2 Control/Mode Change: Expression Control (0-127): 64
0    |  MIDI Event: Chan 2 Note ON: B1, Velocity (0 - 127): 120
0    |  MIDI Event: Chan 3 Control/Mode Change: Expression Control (0-127): 64
0    |  MIDI Event: Chan 3 Note ON: B3, Velocity (0 - 127): 120
0    |  MIDI Event: Chan 3 Note ON: D4, Velocity (0 - 127): 120
0    |  MIDI Event: Chan 3 Note ON: F#4, Velocity (0 - 127): 120
0    |  MIDI Event: Chan 5 Note ON: B2, Velocity (0 - 127): 85
0    |  MIDI Event: Chan 5 Note ON: F#3, Velocity (0 - 127): 120
0    |  MIDI Event: Chan 6 Note ON: B3, Velocity (0 - 127): 105
0    |  MIDI Event: Chan 6 Note ON: B4, Velocity (0 - 127): 105
0    |  MIDI Event: Chan 7 Note ON: B4, Velocity (0 - 127): 120
0    |  MIDI Event: Chan 10 Note ON: B1, Velocity (0 - 127): 120
0    |  MIDI Event: Chan 10 Note ON: F#2, Velocity (0 - 127): 120
0    |  MIDI Event: Chan 10 Note ON: B3, Velocity (0 - 127): 119
0    |  MIDI Event: Chan 12 Note ON: B4, Velocity (0 - 127): 120
29   |  MIDI Event: Chan 10 Note OFF: B3, Velocity (0 - 127): 64
0    |  MIDI Event: Chan 10 Note OFF: F#2, Velocity (0 - 127): 64
0    |  MIDI Event: Chan 10 Note OFF: B1, Velocity (0 - 127): 64
30   |  MIDI Event: Chan 6 Note OFF: B4, Velocity (0 - 127): 64
0    |  MIDI Event: Chan 5 Note OFF: B2, Velocity (0 - 127): 64
0    |  MIDI Event: Chan 5 Note OFF: F#3, Velocity (0 - 127): 64
0    |  MIDI Event: Chan 1 Note OFF: B3, Velocity (0 - 127): 64
0    |  MIDI Event: Chan 6 Note OFF: B3, Velocity (0 - 127): 64
0    |  MIDI Event: Chan 7 Note OFF: B4, Velocity (0 - 127): 64
0    |  MIDI Event: Chan 12 Note OFF: B4, Velocity (0 - 127): 64
0    |  MIDI Event: Chan 1 Note OFF: D4, Velocity (0 - 127): 64
1    |  MIDI Event: Chan 1 Note ON: B3, Velocity (0 - 127): 79
0    |  MIDI Event: Chan 1 Note ON: D4, Velocity (0 - 127): 95
0    |  MIDI Event: Chan 1 Note ON: F#4, Velocity (0 - 127): 74
0    |  MIDI Event: Chan 2 Control/Mode Change: Expression Control (0-127): 127
0    |  MIDI Event: Chan 3 Control/Mode Change: Expression Control (0-127): 127
0    |  MIDI Event: Chan 5 Note ON: D3, Velocity (0 - 127): 92
0    |  MIDI Event: Chan 5 Note ON: F#3, Velocity (0 - 127): 87
0    |  MIDI Event: Chan 5 Note ON: D4, Velocity (0 - 127): 95
0    |  MIDI Event: Chan 10 Note ON: A#2, Velocity (0 - 127): 120
0    |  MIDI Event: Chan 10 Note ON: C#5, Velocity (0 - 127): 109
29   |  MIDI Event: Chan 10 Note OFF: C#5, Velocity (0 - 127): 64
0    |  MIDI Event: Chan 10 Note OFF: A#2, Velocity (0 - 127): 64
30   |  MIDI Event: Chan 2 Note OFF: B1, Velocity (0 - 127): 64
1    |  MIDI Event: Chan 2 Control/Mode Change: Expression Control (0-127): 64
0    |  MIDI Event: Chan 2 Note ON: B1, Velocity (0 - 127): 120
0    |  MIDI Event: Chan 3 Control/Mode Change: Expression Control (0-127): 73
0    |  MIDI Event: Chan 6 Note ON: B3, Velocity (0 - 127): 119
0    |  MIDI Event: Chan 6 Note ON: B4, Velocity (0 - 127): 119
0    |  MIDI Event: Chan 7 Note ON: B4, Velocity (0 - 127): 120
0    |  MIDI Event: Chan 10 Note ON: B1, Velocity (0 - 127): 120
0    |  MIDI Event: Chan 10 Note ON: F#2, Velocity (0 - 127): 120
0    |  MIDI Event: Chan 10 Note ON: B3, Velocity (0 - 127): 118
0    |  MIDI Event: Chan 12 Note ON: B4, Velocity (0 - 127): 120
29   |  MIDI Event: Chan 10 Note OFF: B3, Velocity (0 - 127): 64
0    |  MIDI Event: Chan 10 Note OFF: F#2, Velocity (0 - 127): 64
0    |  MIDI Event: Chan 5 Note OFF: D3, Velocity (0 - 127): 64
0    |  MIDI Event: Chan 1 Note OFF: F#4, Velocity (0 - 127): 64
0    |  MIDI Event: Chan 1 Note OFF: D4, Velocity (0 - 127): 64
0    |  MIDI Event: Chan 1 Note OFF: B3, Velocity (0 - 127): 64
0    |  MIDI Event: Chan 5 Note OFF: D4, Velocity (0 - 127): 64
0    |  MIDI Event: Chan 10 Note OFF: B1, Velocity (0 - 127): 64
0    |  MIDI Event: Chan 5 Note OFF: F#3, Velocity (0 - 127): 64
1    |  MIDI Event: Chan 1 Note ON: B3, Velocity (0 - 127): 71
0    |  MIDI Event: Chan 1 Note ON: D4, Velocity (0 - 127): 91
0    |  MIDI Event: Chan 1 Note ON: F#4, Velocity (0 - 127): 60
0    |  MIDI Event: Chan 5 Note ON: F#3, Velocity (0 - 127): 109
0    |  MIDI Event: Chan 5 Note ON: B3, Velocity (0 - 127): 95
29   |  MIDI Event: Chan 5 Note OFF: B3, Velocity (0 - 127): 64
0    |  MIDI Event: Chan 7 Note OFF: B4, Velocity (0 - 127): 64
0    |  MIDI Event: Chan 1 Note OFF: D4, Velocity (0 - 127): 64
0    |  MIDI Event: Chan 12 Note OFF: B4, Velocity (0 - 127): 64
0    |  MIDI Event: Chan 6 Note OFF: B4, Velocity (0 - 127): 64
0    |  MIDI Event: Chan 1 Note OFF: B3, Velocity (0 - 127): 64
0    |  MIDI Event: Chan 5 Note OFF: F#3, Velocity (0 - 127): 64
0    |  MIDI Event: Chan 6 Note OFF: B3, Velocity (0 - 127): 64
0    |  MIDI Event: Chan 1 Note OFF: F#4, Velocity (0 - 127): 64
1    |  MIDI Event: Chan 1 Note ON: D4, Velocity (0 - 127): 80
0    |  MIDI Event: Chan 1 Note ON: F#4, Velocity (0 - 127): 62
0    |  MIDI Event: Chan 1 Note ON: B4, Velocity (0 - 127): 91
0    |  MIDI Event: Chan 2 Control/Mode Change: Expression Control (0-127): 127
0    |  MIDI Event: Chan 3 Control/Mode Change: Expression Control (0-127): 127
0    |  MIDI Event: Chan 5 Note ON: D3, Velocity (0 - 127): 103
0    |  MIDI Event: Chan 5 Note ON: F#3, Velocity (0 - 127): 115
0    |  MIDI Event: Chan 10 Note ON: A#2, Velocity (0 - 127): 120
0    |  MIDI Event: Chan 10 Note ON: C#5, Velocity (0 - 127): 119
29   |  MIDI Event: Chan 10 Note OFF: C#5, Velocity (0 - 127): 64
0    |  MIDI Event: Chan 5 Note OFF: D3, Velocity (0 - 127): 64
0    |  MIDI Event: Chan 10 Note OFF: A#2, Velocity (0 - 127): 64
0    |  MIDI Event: Chan 1 Note OFF: B4, Velocity (0 - 127): 64
0    |  MIDI Event: Chan 5 Note OFF: F#3, Velocity (0 - 127): 64
0    |  MIDI Event: Chan 1 Note OFF: D4, Velocity (0 - 127): 64
0    |  MIDI Event: Chan 1 Note OFF: F#4, Velocity (0 - 127): 64
1    |  MIDI Event: Chan 1 Note ON: B3, Velocity (0 - 127): 51
0    |  MIDI Event: Chan 1 Note ON: D4, Velocity (0 - 127): 85
0    |  MIDI Event: Chan 1 Note ON: F#4, Velocity (0 - 127): 59
0    |  MIDI Event: Chan 5 Note ON: B2, Velocity (0 - 127): 92
0    |  MIDI Event: Chan 5 Note ON: E3, Velocity (0 - 127): 98
0    |  MIDI Event: Chan 6 Note ON: A3, Velocity (0 - 127): 91
0    |  MIDI Event: Chan 6 Note ON: A4, Velocity (0 - 127): 91
0    |  MIDI Event: Chan 7 Note ON: A4, Velocity (0 - 127): 120
0    |  MIDI Event: Chan 12 Note ON: A4, Velocity (0 - 127): 120
29   |  MIDI Event: Chan 12 Note OFF: A4, Velocity (0 - 127): 64
0    |  MIDI Event: Chan 1 Note OFF: D4, Velocity (0 - 127): 64
0    |  MIDI Event: Chan 3 Note OFF: F#4, Velocity (0 - 127): 64
0    |  MIDI Event: Chan 5 Note OFF: B2, Velocity (0 - 127): 64
0    |  MIDI Event: Chan 2 Note OFF: B1, Velocity (0 - 127): 64
0    |  MIDI Event: Chan 3 Note OFF: D4, Velocity (0 - 127): 64
0    |  MIDI Event: Chan 3 Note OFF: B3, Velocity (0 - 127): 64
0    |  MIDI Event: Chan 1 Note OFF: B3, Velocity (0 - 127): 64
0    |  MIDI Event: Chan 6 Note OFF: A4, Velocity (0 - 127): 64
0    |  MIDI Event: Chan 5 Note OFF: E3, Velocity (0 - 127): 64
0    |  MIDI Event: Chan 1 Note OFF: F#4, Velocity (0 - 127): 64
0    |  MIDI Event: Chan 7 Note OFF: A4, Velocity (0 - 127): 64
0    |  MIDI Event: Chan 6 Note OFF: A3, Velocity (0 - 127): 64
1    |  MIDI Event: Chan 1 Note ON: G3, Velocity (0 - 127): 74
0    |  MIDI Event: Chan 1 Note ON: B3, Velocity (0 - 127): 94
0    |  MIDI Event: Chan 1 Note ON: D4, Velocity (0 - 127): 91
0    |  MIDI Event: Chan 2 Control/Mode Change: Expression Control (0-127): 64
0    |  MIDI Event: Chan 2 Note ON: G1, Velocity (0 - 127): 120
0    |  MIDI Event: Chan 3 Control/Mode Change: Expression Control (0-127): 71
0    |  MIDI Event: Chan 3 Note ON: B3, Velocity (0 - 127): 120
0    |  MIDI Event: Chan 3 Note ON: D4, Velocity (0 - 127): 120
0    |  MIDI Event: Chan 3 Note ON: G4, Velocity (0 - 127): 120
0    |  MIDI Event: Chan 5 Note ON: G2, Velocity (0 - 127): 98
0    |  MIDI Event: Chan 5 Note ON: D3, Velocity (0 - 127): 116
0    |  MIDI Event: Chan 6 Note ON: B3, Velocity (0 - 127): 97
0    |  MIDI Event: Chan 6 Note ON: B4, Velocity (0 - 127): 97
0    |  MIDI Event: Chan 7 Note ON: B4, Velocity (0 - 127): 120
0    |  MIDI Event: Chan 10 Note ON: B1, Velocity (0 - 127): 120
0    |  MIDI Event: Chan 10 Note ON: F#2, Velocity (0 - 127): 120
0    |  MIDI Event: Chan 10 Note ON: B3, Velocity (0 - 127): 116
0    |  MIDI Event: Chan 12 Note ON: B4, Velocity (0 - 127): 120
29   |  MIDI Event: Chan 12 Note OFF: B4, Velocity (0 - 127): 64
0    |  MIDI Event: Chan 10 Note OFF: B3, Velocity (0 - 127): 64
0    |  MIDI Event: Chan 7 Note OFF: B4, Velocity (0 - 127): 64
0    |  MIDI Event: Chan 6 Note OFF: B3, Velocity (0 - 127): 64
0    |  MIDI Event: Chan 10 Note OFF: F#2, Velocity (0 - 127): 64
0    |  MIDI Event: Chan 6 Note OFF: B4, Velocity (0 - 127): 64
0    |  MIDI Event: Chan 10 Note OFF: B1, Velocity (0 - 127): 64
1    |  MIDI Event: Chan 6 Note ON: D4, Velocity (0 - 127): 80
0    |  MIDI Event: Chan 6 Note ON: D5, Velocity (0 - 127): 80
0    |  MIDI Event: Chan 7 Note ON: D5, Velocity (0 - 127): 120
0    |  MIDI Event: Chan 12 Note ON: D5, Velocity (0 - 127): 120
29   |  MIDI Event: Chan 12 Note OFF: D5, Velocity (0 - 127): 64
0    |  MIDI Event: Chan 5 Note OFF: G2, Velocity (0 - 127): 64
0    |  MIDI Event: Chan 1 Note OFF: B3, Velocity (0 - 127): 64
0    |  MIDI Event: Chan 1 Note OFF: G3, Velocity (0 - 127): 64
0    |  MIDI Event: Chan 5 Note OFF: D3, Velocity (0 - 127): 64
0    |  MIDI Event: Chan 6 Note OFF: D4, Velocity (0 - 127): 64
0    |  MIDI Event: Chan 1 Note OFF: D4, Velocity (0 - 127): 64
0    |  MIDI Event: Chan 7 Note OFF: D5, Velocity (0 - 127): 64
0    |  MIDI Event: Chan 6 Note OFF: D5, Velocity (0 - 127): 64
1    |  MIDI Event: Chan 1 Note ON: B3, Velocity (0 - 127): 70
0    |  MIDI Event: Chan 1 Note ON: D4, Velocity (0 - 127): 94
0    |  MIDI Event: Chan 1 Note ON: G4, Velocity (0 - 127): 101
0    |  MIDI Event: Chan 2 Control/Mode Change: Expression Control (0-127): 127
0    |  MIDI Event: Chan 3 Control/Mode Change: Expression Control (0-127): 127
0    |  MIDI Event: Chan 5 Note ON: D3, Velocity (0 - 127): 79
0    |  MIDI Event: Chan 5 Note ON: G3, Velocity (0 - 127): 111
0    |  MIDI Event: Chan 5 Note ON: B3, Velocity (0 - 127): 100
0    |  MIDI Event: Chan 6 Note ON: B3, Velocity (0 - 127): 113
0    |  MIDI Event: Chan 6 Note ON: B4, Velocity (0 - 127): 113
0    |  MIDI Event: Chan 7 Note ON: B4, Velocity (0 - 127): 120
0    |  MIDI Event: Chan 10 Note ON: A#2, Velocity (0 - 127): 120
0    |  MIDI Event: Chan 10 Note ON: C#5, Velocity (0 - 127): 119
0    |  MIDI Event: Chan 12 Note ON: B4, Velocity (0 - 127): 120
29   |  MIDI Event: Chan 10 Note OFF: C#5, Velocity (0 - 127): 64
0    |  MIDI Event: Chan 10 Note OFF: A#2, Velocity (0 - 127): 64
30   |  MIDI Event: Chan 6 Note OFF: B4, Velocity (0 - 127): 64
0    |  MIDI Event: Chan 12 Note OFF: B4, Velocity (0 - 127): 64
0    |  MIDI Event: Chan 2 Note OFF: G1, Velocity (0 - 127): 64
0    |  MIDI Event: Chan 6 Note OFF: B3, Velocity (0 - 127): 64
0    |  MIDI Event: Chan 7 Note OFF: B4, Velocity (0 - 127): 64
1    |  MIDI Event: Chan 2 Control/Mode Change: Expression Control (0-127): 64
0    |  MIDI Event: Chan 2 Note ON: G1, Velocity (0 - 127): 120
0    |  MIDI Event: Chan 3 Control/Mode Change: Expression Control (0-127): 80
0    |  MIDI Event: Chan 10 Note ON: B1, Velocity (0 - 127): 120
0    |  MIDI Event: Chan 10 Note ON: F#2, Velocity (0 - 127): 120
0    |  MIDI Event: Chan 10 Note ON: B3, Velocity (0 - 127): 120
29   |  MIDI Event: Chan 10 Note OFF: B3, Velocity (0 - 127): 64
0    |  MIDI Event: Chan 5 Note OFF: G3, Velocity (0 - 127): 64
0    |  MIDI Event: Chan 1 Note OFF: G4, Velocity (0 - 127): 64
0    |  MIDI Event: Chan 5 Note OFF: B3, Velocity (0 - 127): 64
0    |  MIDI Event: Chan 1 Note OFF: D4, Velocity (0 - 127): 64
0    |  MIDI Event: Chan 1 Note OFF: B3, Velocity (0 - 127): 64
0    |  MIDI Event: Chan 5 Note OFF: D3, Velocity (0 - 127): 64
0    |  MIDI Event: Chan 10 Note OFF: F#2, Velocity (0 - 127): 64
0    |  MIDI Event: Chan 10 Note OFF: B1, Velocity (0 - 127): 64
1    |  MIDI Event: Chan 1 Note ON: B3, Velocity (0 - 127): 52
0    |  MIDI Event: Chan 1 Note ON: D4, Velocity (0 - 127): 85
0    |  MIDI Event: Chan 1 Note ON: G4, Velocity (0 - 127): 94
0    |  MIDI Event: Chan 5 Note ON: D3, Velocity (0 - 127): 82
0    |  MIDI Event: Chan 5 Note ON: G3, Velocity (0 - 127): 98
0    |  MIDI Event: Chan 5 Note ON: B3, Velocity (0 - 127): 85
0    |  MIDI Event: Chan 6 Note ON: A3, Velocity (0 - 127): 98
0    |  MIDI Event: Chan 6 Note ON: A4, Velocity (0 - 127): 98
0    |  MIDI Event: Chan 7 Note ON: A4, Velocity (0 - 127): 120
0    |  MIDI Event: Chan 12 Note ON: A4, Velocity (0 - 127): 120
29   |  MIDI Event: Chan 12 Note OFF: A4, Velocity (0 - 127): 64
0    |  MIDI Event: Chan 1 Note OFF: B3, Velocity (0 - 127): 64
0    |  MIDI Event: Chan 1 Note OFF: D4, Velocity (0 - 127): 64
0    |  MIDI Event: Chan 5 Note OFF: B3, Velocity (0 - 127): 64
0    |  MIDI Event: Chan 5 Note OFF: D3, Velocity (0 - 127): 64
0    |  MIDI Event: Chan 1 Note OFF: G4, Velocity (0 - 127): 64
0    |  MIDI Event: Chan 5 Note OFF: G3, Velocity (0 - 127): 64
0    |  MIDI Event: Chan 7 Note OFF: A4, Velocity (0 - 127): 64
0    |  MIDI Event: Chan 6 Note OFF: A4, Velocity (0 - 127): 64
0    |  MIDI Event: Chan 6 Note OFF: A3, Velocity (0 - 127): 64
1    |  MIDI Event: Chan 1 Note ON: D4, Velocity (0 - 127): 78
0    |  MIDI Event: Chan 1 Note ON: G4, Velocity (0 - 127): 100
0    |  MIDI Event: Chan 1 Note ON: B4, Velocity (0 - 127): 46
0    |  MIDI Event: Chan 2 Control/Mode Change: Expression Control (0-127): 127
0    |  MIDI Event: Chan 3 Control/Mode Change: Expression Control (0-127): 127
0    |  MIDI Event: Chan 5 Note ON: G2, Velocity (0 - 127): 109
0    |  MIDI Event: Chan 5 Note ON: D3, Velocity (0 - 127): 109
0    |  MIDI Event: Chan 6 Note ON: B3, Velocity (0 - 127): 101
0    |  MIDI Event: Chan 6 Note ON: B4, Velocity (0 - 127): 101
0    |  MIDI Event: Chan 7 Note ON: B4, Velocity (0 - 127): 120
0    |  MIDI Event: Chan 10 Note ON: A#2, Velocity (0 - 127): 120
0    |  MIDI Event: Chan 10 Note ON: C#5, Velocity (0 - 127): 115
0    |  MIDI Event: Chan 12 Note ON: B4, Velocity (0 - 127): 120
29   |  MIDI Event: Chan 12 Note OFF: B4, Velocity (0 - 127): 64
0    |  MIDI Event: Chan 7 Note OFF: B4, Velocity (0 - 127): 64
0    |  MIDI Event: Chan 1 Note OFF: D4, Velocity (0 - 127): 64
0    |  MIDI Event: Chan 1 Note OFF: G4, Velocity (0 - 127): 64
0    |  MIDI Event: Chan 6 Note OFF: B3, Velocity (0 - 127): 64
0    |  MIDI Event: Chan 5 Note OFF: G2, Velocity (0 - 127): 64
0    |  MIDI Event: Chan 1 Note OFF: B4, Velocity (0 - 127): 64
0    |  MIDI Event: Chan 5 Note OFF: D3, Velocity (0 - 127): 64
0    |  MIDI Event: Chan 10 Note OFF: C#5, Velocity (0 - 127): 64
0    |  MIDI Event: Chan 10 Note OFF: A#2, Velocity (0 - 127): 64
0    |  MIDI Event: Chan 6 Note OFF: B4, Velocity (0 - 127): 64
1    |  MIDI Event: Chan 1 Note ON: B3, Velocity (0 - 127): 45
0    |  MIDI Event: Chan 1 Note ON: D4, Velocity (0 - 127): 73
0    |  MIDI Event: Chan 1 Note ON: G4, Velocity (0 - 127): 86
0    |  MIDI Event: Chan 5 Note ON: G2, Velocity (0 - 127): 101
0    |  MIDI Event: Chan 5 Note ON: E3, Velocity (0 - 127): 116
0    |  MIDI Event: Chan 6 Note ON: A3, Velocity (0 - 127): 91
0    |  MIDI Event: Chan 6 Note ON: A4, Velocity (0 - 127): 91
0    |  MIDI Event: Chan 7 Note ON: A4, Velocity (0 - 127): 120
0    |  MIDI Event: Chan 12 Note ON: A4, Velocity (0 - 127): 120
29   |  MIDI Event: Chan 12 Note OFF: A4, Velocity (0 - 127): 64
0    |  MIDI Event: Chan 1 Note OFF: D4, Velocity (0 - 127): 64
0    |  MIDI Event: Chan 3 Note OFF: D4, Velocity (0 - 127): 64
0    |  MIDI Event: Chan 5 Note OFF: G2, Velocity (0 - 127): 64
0    |  MIDI Event: Chan 3 Note OFF: B3, Velocity (0 - 127): 64
0    |  MIDI Event: Chan 3 Note OFF: G4, Velocity (0 - 127): 64
0    |  MIDI Event: Chan 2 Note OFF: G1, Velocity (0 - 127): 64
0    |  MIDI Event: Chan 1 Note OFF: B3, Velocity (0 - 127): 64
0    |  MIDI Event: Chan 6 Note OFF: A4, Velocity (0 - 127): 64
0    |  MIDI Event: Chan 5 Note OFF: E3, Velocity (0 - 127): 64
0    |  MIDI Event: Chan 1 Note OFF: G4, Velocity (0 - 127): 64
0    |  MIDI Event: Chan 7 Note OFF: A4, Velocity (0 - 127): 64
0    |  MIDI Event: Chan 6 Note OFF: A3, Velocity (0 - 127): 64
1    |  MIDI Event: Chan 1 Note ON: F#3, Velocity (0 - 127): 35
0    |  MIDI Event: Chan 1 Note ON: A3, Velocity (0 - 127): 85
0    |  MIDI Event: Chan 1 Note ON: D4, Velocity (0 - 127): 79
0    |  MIDI Event: Chan 2 Control/Mode Change: Expression Control (0-127): 64
0    |  MIDI Event: Chan 2 Note ON: D2, Velocity (0 - 127): 120
0    |  MIDI Event: Chan 3 Control/Mode Change: Expression Control (0-127): 64
0    |  MIDI Event: Chan 3 Note ON: A3, Velocity (0 - 127): 120
0    |  MIDI Event: Chan 3 Note ON: D4, Velocity (0 - 127): 120
0    |  MIDI Event: Chan 3 Note ON: F#4, Velocity (0 - 127): 120
0    |  MIDI Event: Chan 5 Note ON: A2, Velocity (0 - 127): 90
0    |  MIDI Event: Chan 5 Note ON: D3, Velocity (0 - 127): 105
0    |  MIDI Event: Chan 6 Note ON: D4, Velocity (0 - 127): 105
0    |  MIDI Event: Chan 6 Note ON: D5, Velocity (0 - 127): 105
0    |  MIDI Event: Chan 7 Note ON: D5, Velocity (0 - 127): 120
0    |  MIDI Event: Chan 10 Note ON: B1, Velocity (0 - 127): 120
0    |  MIDI Event: Chan 10 Note ON: F#2, Velocity (0 - 127): 120
0    |  MIDI Event: Chan 10 Note ON: B3, Velocity (0 - 127): 111
0    |  MIDI Event: Chan 12 Note ON: D5, Velocity (0 - 127): 120
29   |  MIDI Event: Chan 10 Note OFF: B3, Velocity (0 - 127): 64
0    |  MIDI Event: Chan 10 Note OFF: F#2, Velocity (0 - 127): 64
0    |  MIDI Event: Chan 10 Note OFF: B1, Velocity (0 - 127): 64
30   |  MIDI Event: Chan 12 Note OFF: D5, Velocity (0 - 127): 64
0    |  MIDI Event: Chan 6 Note OFF: D4, Velocity (0 - 127): 64
0    |  MIDI Event: Chan 1 Note OFF: D4, Velocity (0 - 127): 64
0    |  MIDI Event: Chan 5 Note OFF: A2, Velocity (0 - 127): 64
0    |  MIDI Event: Chan 1 Note OFF: F#3, Velocity (0 - 127): 64
0    |  MIDI Event: Chan 5 Note OFF: D3, Velocity (0 - 127): 64
0    |  MIDI Event: Chan 6 Note OFF: D5, Velocity (0 - 127): 64
0    |  MIDI Event: Chan 7 Note OFF: D5, Velocity (0 - 127): 64
0    |  MIDI Event: Chan 1 Note OFF: A3, Velocity (0 - 127): 64
1    |  MIDI Event: Chan 1 Note ON: A3, Velocity (0 - 127): 69
0    |  MIDI Event: Chan 1 Note ON: D4, Velocity (0 - 127): 98
0    |  MIDI Event: Chan 1 Note ON: F#4, Velocity (0 - 127): 74
0    |  MIDI Event: Chan 2 Control/Mode Change: Expression Control (0-127): 127
0    |  MIDI Event: Chan 3 Control/Mode Change: Expression Control (0-127): 127
0    |  MIDI Event: Chan 5 Note ON: A2, Velocity (0 - 127): 100
0    |  MIDI Event: Chan 5 Note ON: D3, Velocity (0 - 127): 111
0    |  MIDI Event: Chan 5 Note ON: F#3, Velocity (0 - 127): 89
0    |  MIDI Event: Chan 10 Note ON: A#2, Velocity (0 - 127): 120
0    |  MIDI Event: Chan 10 Note ON: C#5, Velocity (0 - 127): 119
29   |  MIDI Event: Chan 10 Note OFF: C#5, Velocity (0 - 127): 64
0    |  MIDI Event: Chan 10 Note OFF: A#2, Velocity (0 - 127): 64
30   |  MIDI Event: Chan 2 Note OFF: D2, Velocity (0 - 127): 64
1    |  MIDI Event: Chan 2 Control/Mode Change: Expression Control (0-127): 64
0    |  MIDI Event: Chan 2 Note ON: D2, Velocity (0 - 127): 120
0    |  MIDI Event: Chan 3 Control/Mode Change: Expression Control (0-127): 73
0    |  MIDI Event: Chan 6 Note ON: D4, Velocity (0 - 127): 119
0    |  MIDI Event: Chan 6 Note ON: D5, Velocity (0 - 127): 119
0    |  MIDI Event: Chan 7 Note ON: D5, Velocity (0 - 127): 120
0    |  MIDI Event: Chan 10 Note ON: B1, Velocity (0 - 127): 120
0    |  MIDI Event: Chan 10 Note ON: F#2, Velocity (0 - 127): 120
0    |  MIDI Event: Chan 10 Note ON: B3, Velocity (0 - 127): 119
0    |  MIDI Event: Chan 12 Note ON: D5, Velocity (0 - 127): 120
29   |  MIDI Event: Chan 10 Note OFF: B3, Velocity (0 - 127): 64
0    |  MIDI Event: Chan 10 Note OFF: F#2, Velocity (0 - 127): 64
0    |  MIDI Event: Chan 5 Note OFF: A2, Velocity (0 - 127): 64
0    |  MIDI Event: Chan 1 Note OFF: F#4, Velocity (0 - 127): 64
0    |  MIDI Event: Chan 1 Note OFF: D4, Velocity (0 - 127): 64
0    |  MIDI Event: Chan 1 Note OFF: A3, Velocity (0 - 127): 64
0    |  MIDI Event: Chan 5 Note OFF: F#3, Velocity (0 - 127): 64
0    |  MIDI Event: Chan 10 Note OFF: B1, Velocity (0 - 127): 64
0    |  MIDI Event: Chan 5 Note OFF: D3, Velocity (0 - 127): 64
1    |  MIDI Event: Chan 1 Note ON: F#3, Velocity (0 - 127): 44
0    |  MIDI Event: Chan 1 Note ON: A3, Velocity (0 - 127): 78
0    |  MIDI Event: Chan 1 Note ON: D4, Velocity (0 - 127): 58
0    |  MIDI Event: Chan 5 Note ON: A2, Velocity (0 - 127): 85
0    |  MIDI Event: Chan 5 Note ON: D3, Velocity (0 - 127): 105
0    |  MIDI Event: Chan 5 Note ON: F#3, Velocity (0 - 127): 81
29   |  MIDI Event: Chan 5 Note OFF: F#3, Velocity (0 - 127): 64
0    |  MIDI Event: Chan 6 Note OFF: D4, Velocity (0 - 127): 64
0    |  MIDI Event: Chan 7 Note OFF: D5, Velocity (0 - 127): 64
0    |  MIDI Event: Chan 1 Note OFF: A3, Velocity (0 - 127): 64
0    |  MIDI Event: Chan 12 Note OFF: D5, Velocity (0 - 127): 64
0    |  MIDI Event: Chan 6 Note OFF: D5, Velocity (0 - 127): 64
0    |  MIDI Event: Chan 1 Note OFF: F#3, Velocity (0 - 127): 64
0    |  MIDI Event: Chan 5 Note OFF: D3, Velocity (0 - 127): 64
0    |  MIDI Event: Chan 5 Note OFF: A2, Velocity (0 - 127): 64
0    |  MIDI Event: Chan 1 Note OFF: D4, Velocity (0 - 127): 64
1    |  MIDI Event: Chan 1 Note ON: A3, Velocity (0 - 127): 57
0    |  MIDI Event: Chan 1 Note ON: D4, Velocity (0 - 127): 91
0    |  MIDI Event: Chan 1 Note ON: F#4, Velocity (0 - 127): 77
0    |  MIDI Event: Chan 2 Control/Mode Change: Expression Control (0-127): 127
0    |  MIDI Event: Chan 3 Control/Mode Change: Expression Control (0-127): 127
0    |  MIDI Event: Chan 5 Note ON: D3, Velocity (0 - 127): 109
0    |  MIDI Event: Chan 5 Note ON: F#3, Velocity (0 - 127): 89
0    |  MIDI Event: Chan 5 Note ON: A3, Velocity (0 - 127): 109
0    |  MIDI Event: Chan 10 Note ON: A#2, Velocity (0 - 127): 120
0    |  MIDI Event: Chan 10 Note ON: C#5, Velocity (0 - 127): 119
29   |  MIDI Event: Chan 10 Note OFF: C#5, Velocity (0 - 127): 64
0    |  MIDI Event: Chan 5 Note OFF: A3, Velocity (0 - 127): 64
0    |  MIDI Event: Chan 5 Note OFF: D3, Velocity (0 - 127): 64
0    |  MIDI Event: Chan 1 Note OFF: F#4, Velocity (0 - 127): 64
0    |  MIDI Event: Chan 5 Note OFF: F#3, Velocity (0 - 127): 64
0    |  MIDI Event: Chan 10 Note OFF: A#2, Velocity (0 - 127): 64
0    |  MIDI Event: Chan 1 Note OFF: A3, Velocity (0 - 127): 64
0    |  MIDI Event: Chan 1 Note OFF: D4, Velocity (0 - 127): 64
1    |  MIDI Event: Chan 1 Note ON: F#3, Velocity (0 - 127): 35
0    |  MIDI Event: Chan 1 Note ON: A3, Velocity (0 - 127): 79
0    |  MIDI Event: Chan 1 Note ON: D4, Velocity (0 - 127): 56
0    |  MIDI Event: Chan 5 Note ON: D3, Velocity (0 - 127): 111
0    |  MIDI Event: Chan 5 Note ON: F#3, Velocity (0 - 127): 100
0    |  MIDI Event: Chan 5 Note ON: A3, Velocity (0 - 127): 100
0    |  MIDI Event: Chan 6 Note ON: D4, Velocity (0 - 127): 103
0    |  MIDI Event: Chan 6 Note ON: D5, Velocity (0 - 127): 103
0    |  MIDI Event: Chan 7 Note ON: D5, Velocity (0 - 127): 120
0    |  MIDI Event: Chan 12 Note ON: D5, Velocity (0 - 127): 120
29   |  MIDI Event: Chan 12 Note OFF: D5, Velocity (0 - 127): 64
0    |  MIDI Event: Chan 1 Note OFF: F#3, Velocity (0 - 127): 64
0    |  MIDI Event: Chan 1 Note OFF: A3, Velocity (0 - 127): 64
0    |  MIDI Event: Chan 5 Note OFF: A3, Velocity (0 - 127): 64
0    |  MIDI Event: Chan 5 Note OFF: D3, Velocity (0 - 127): 64
0    |  MIDI Event: Chan 1 Note OFF: D4, Velocity (0 - 127): 64
0    |  MIDI Event: Chan 2 Note OFF: D2, Velocity (0 - 127): 64
0    |  MIDI Event: Chan 5 Note OFF: F#3, Velocity (0 - 127): 64
0    |  MIDI Event: Chan 6 Note OFF: D5, Velocity (0 - 127): 64
0    |  MIDI Event: Chan 6 Note OFF: D4, Velocity (0 - 127): 64
0    |  MIDI Event: Chan 7 Note OFF: D5, Velocity (0 - 127): 64
1    |  MIDI Event: Chan 1 Note ON: F#3, Velocity (0 - 127): 49
0    |  MIDI Event: Chan 1 Note ON: A3, Velocity (0 - 127): 85
0    |  MIDI Event: Chan 1 Note ON: D4, Velocity (0 - 127): 75
0    |  MIDI Event: Chan 2 Control/Mode Change: Expression Control (0-127): 64
0    |  MIDI Event: Chan 2 Note ON: D2, Velocity (0 - 127): 120
0    |  MIDI Event: Chan 3 Control/Mode Change: Expression Control (0-127): 71
0    |  MIDI Event: Chan 5 Note ON: A2, Velocity (0 - 127): 105
0    |  MIDI Event: Chan 5 Note ON: D3, Velocity (0 - 127): 116
0    |  MIDI Event: Chan 6 Note ON: E4, Velocity (0 - 127): 95
0    |  MIDI Event: Chan 6 Note ON: E5, Velocity (0 - 127): 95
0    |  MIDI Event: Chan 7 Note ON: E5, Velocity (0 - 127): 120
0    |  MIDI Event: Chan 10 Note ON: B1, Velocity (0 - 127): 120
0    |  MIDI Event: Chan 10 Note ON: F#2, Velocity (0 - 127): 120
0    |  MIDI Event: Chan 10 Note ON: B3, Velocity (0 - 127): 116
0    |  MIDI Event: Chan 12 Note ON: E5, Velocity (0 - 127): 120
29   |  MIDI Event: Chan 12 Note OFF: E5, Velocity (0 - 127): 64
0    |  MIDI Event: Chan 10 Note OFF: B3, Velocity (0 - 127): 64
0    |  MIDI Event: Chan 7 Note OFF: E5, Velocity (0 - 127): 64
0    |  MIDI Event: Chan 6 Note OFF: E4, Velocity (0 - 127): 64
0    |  MIDI Event: Chan 10 Note OFF: F#2, Velocity (0 - 127): 64
0    |  MIDI Event: Chan 6 Note OFF: E5, Velocity (0 - 127): 64
0    |  MIDI Event: Chan 10 Note OFF: B1, Velocity (0 - 127): 64
1    |  MIDI Event: Chan 6 Note ON: D4, Velocity (0 - 127): 86
0    |  MIDI Event: Chan 6 Note ON: D5, Velocity (0 - 127): 86
0    |  MIDI Event: Chan 7 Note ON: D5, Velocity (0 - 127): 120
0    |  MIDI Event: Chan 12 Note ON: D5, Velocity (0 - 127): 120
29   |  MIDI Event: Chan 12 Note OFF: D5, Velocity (0 - 127): 64
0    |  MIDI Event: Chan 5 Note OFF: A2, Velocity (0 - 127): 64
0    |  MIDI Event: Chan 1 Note OFF: A3, Velocity (0 - 127): 64
0    |  MIDI Event: Chan 1 Note OFF: F#3, Velocity (0 - 127): 64
0    |  MIDI Event: Chan 5 Note OFF: D3, Velocity (0 - 127): 64
0    |  MIDI Event: Chan 6 Note OFF: D4, Velocity (0 - 127): 64
0    |  MIDI Event: Chan 1 Note OFF: D4, Velocity (0 - 127): 64
0    |  MIDI Event: Chan 7 Note OFF: D5, Velocity (0 - 127): 64
0    |  MIDI Event: Chan 6 Note OFF: D5, Velocity (0 - 127): 64
1    |  MIDI Event: Chan 1 Note ON: A3, Velocity (0 - 127): 56
0    |  MIDI Event: Chan 1 Note ON: D4, Velocity (0 - 127): 84
0    |  MIDI Event: Chan 1 Note ON: F#4, Velocity (0 - 127): 49
0    |  MIDI Event: Chan 2 Control/Mode Change: Expression Control (0-127): 127
0    |  MIDI Event: Chan 3 Control/Mode Change: Expression Control (0-127): 127
0    |  MIDI Event: Chan 5 Note ON: D3, Velocity (0 - 127): 105
0    |  MIDI Event: Chan 5 Note ON: F#3, Velocity (0 - 127): 115
0    |  MIDI Event: Chan 6 Note ON: E4, Velocity (0 - 127): 98
0    |  MIDI Event: Chan 6 Note ON: E5, Velocity (0 - 127): 98
0    |  MIDI Event: Chan 7 Note ON: E5, Velocity (0 - 127): 120
0    |  MIDI Event: Chan 10 Note ON: A#2, Velocity (0 - 127): 120
0    |  MIDI Event: Chan 10 Note ON: C#5, Velocity (0 - 127): 119
0    |  MIDI Event: Chan 12 Note ON: E5, Velocity (0 - 127): 120
29   |  MIDI Event: Chan 10 Note OFF: C#5, Velocity (0 - 127): 64
0    |  MIDI Event: Chan 5 Note OFF: D3, Velocity (0 - 127): 64
0    |  MIDI Event: Chan 1 Note OFF: A3, Velocity (0 - 127): 64
0    |  MIDI Event: Chan 1 Note OFF: F#4, Velocity (0 - 127): 64
0    |  MIDI Event: Chan 10 Note OFF: A#2, Velocity (0 - 127): 64
0    |  MIDI Event: Chan 1 Note OFF: D4, Velocity (0 - 127): 64
0    |  MIDI Event: Chan 5 Note OFF: F#3, Velocity (0 - 127): 64
1    |  MIDI Event: Chan 1 Note ON: A3, Velocity (0 - 127): 84
0    |  MIDI Event: Chan 1 Note ON: D4, Velocity (0 - 127): 94
0    |  MIDI Event: Chan 1 Note ON: F#4, Velocity (0 - 127): 76
0    |  MIDI Event: Chan 5 Note ON: D3, Velocity (0 - 127): 100
0    |  MIDI Event: Chan 5 Note ON: F#3, Velocity (0 - 127): 92
20   |  MIDI Event: Chan 6 Pitch Bend Change (0-16383): 8071 (factor==0.99804)
5    |  MIDI Event: Chan 6 Pitch Bend Change (0-16383): 6296 (factor==0.96972)
3    |  MIDI Event: Chan 6 Pitch Bend Change (0-16383): 4197 (factor==0.937266)
1    |  MIDI Event: Chan 5 Note OFF: F#3, Velocity (0 - 127): 64
0    |  MIDI Event: Chan 3 Note OFF: D4, Velocity (0 - 127): 64
0    |  MIDI Event: Chan 3 Note OFF: F#4, Velocity (0 - 127): 64
0    |  MIDI Event: Chan 2 Note OFF: D2, Velocity (0 - 127): 64
0    |  MIDI Event: Chan 6 Note OFF: E5, Velocity (0 - 127): 64
0    |  MIDI Event: Chan 12 Note OFF: E5, Velocity (0 - 127): 64
0    |  MIDI Event: Chan 3 Note OFF: A3, Velocity (0 - 127): 64
0    |  MIDI Event: Chan 6 Note OFF: E4, Velocity (0 - 127): 64
0    |  MIDI Event: Chan 1 Note OFF: F#4, Velocity (0 - 127): 64
0    |  MIDI Event: Chan 1 Note OFF: A3, Velocity (0 - 127): 64
0    |  MIDI Event: Chan 7 Note OFF: E5, Velocity (0 - 127): 64
0    |  MIDI Event: Chan 5 Note OFF: D3, Velocity (0 - 127): 64
0    |  MIDI Event: Chan 1 Note OFF: D4, Velocity (0 - 127): 64
1    |  MIDI Event: Chan 1 Note ON: E3, Velocity (0 - 127): 47
0    |  MIDI Event: Chan 1 Note ON: A3, Velocity (0 - 127): 89
0    |  MIDI Event: Chan 1 Note ON: C#4, Velocity (0 - 127): 52
0    |  MIDI Event: Chan 2 Control/Mode Change: Expression Control (0-127): 64
0    |  MIDI Event: Chan 2 Note ON: F#1, Velocity (0 - 127): 120
0    |  MIDI Event: Chan 3 Control/Mode Change: Expression Control (0-127): 80
0    |  MIDI Event: Chan 3 Note ON: A3, Velocity (0 - 127): 120
0    |  MIDI Event: Chan 3 Note ON: C#4, Velocity (0 - 127): 120
0    |  MIDI Event: Chan 3 Note ON: F#4, Velocity (0 - 127): 120
0    |  MIDI Event: Chan 5 Note ON: A2, Velocity (0 - 127): 101
0    |  MIDI Event: Chan 5 Note ON: E3, Velocity (0 - 127): 101
0    |  MIDI Event: Chan 6 Note ON: F#4, Velocity (0 - 127): 119
0    |  MIDI Event: Chan 6 Note ON: F#5, Velocity (0 - 127): 119
0    |  MIDI Event: Chan 6 Pitch Bend Change (0-16383): 1776 (factor==0.901179)
0    |  MIDI Event: Chan 7 Note ON: F#5, Velocity (0 - 127): 120
0    |  MIDI Event: Chan 10 Note ON: B1, Velocity (0 - 127): 120
0    |  MIDI Event: Chan 10 Note ON: F#2, Velocity (0 - 127): 120
0    |  MIDI Event: Chan 10 Note ON: B3, Velocity (0 - 127): 120
0    |  MIDI Event: Chan 12 Note ON: F#5, Velocity (0 - 127): 120
3    |  MIDI Event: Chan 6 Pitch Bend Change (0-16383): 0 (factor==0.875594)
17   |  MIDI Event: Chan 6 Pitch Bend Change (0-16383): 646 (factor==0.884815)
3    |  MIDI Event: Chan 6 Pitch Bend Change (0-16383): 2422 (factor==0.91067)
2    |  MIDI Event: Chan 6 Pitch Bend Change (0-16383): 4520 (factor==0.942188)
3    |  MIDI Event: Chan 6 Pitch Bend Change (0-16383): 6942 (factor==0.979932)
1    |  MIDI Event: Chan 10 Note OFF: B3, Velocity (0 - 127): 64
0    |  MIDI Event: Chan 10 Note OFF: F#2, Velocity (0 - 127): 64
0    |  MIDI Event: Chan 10 Note OFF: B1, Velocity (0 - 127): 64
1    |  MIDI Event: Chan 6 Pitch Bend Change (0-16383): 8192 (factor==1)
29   |  MIDI Event: Chan 12 Note OFF: F#5, Velocity (0 - 127): 64
0    |  MIDI Event: Chan 6 Note OFF: F#4, Velocity (0 - 127): 64
0    |  MIDI Event: Chan 1 Note OFF: C#4, Velocity (0 - 127): 64
0    |  MIDI Event: Chan 5 Note OFF: A2, Velocity (0 - 127): 64
0    |  MIDI Event: Chan 1 Note OFF: E3, Velocity (0 - 127): 64
0    |  MIDI Event: Chan 5 Note OFF: E3, Velocity (0 - 127): 64
0    |  MIDI Event: Chan 6 Note OFF: F#5, Velocity (0 - 127): 64
0    |  MIDI Event: Chan 7 Note OFF: F#5, Velocity (0 - 127): 64
0    |  MIDI Event: Chan 1 Note OFF: A3, Velocity (0 - 127): 64
1    |  MIDI Event: Chan 1 Note ON: A3, Velocity (0 - 127): 51
0    |  MIDI Event: Chan 1 Note ON: C#4, Velocity (0 - 127): 52
0    |  MIDI Event: Chan 1 Note ON: E4, Velocity (0 - 127): 78
0    |  MIDI Event: Chan 2 Control/Mode Change: Expression Control (0-127): 127
0    |  MIDI Event: Chan 3 Control/Mode Change: Expression Control (0-127): 127
0    |  MIDI Event: Chan 5 Note ON: C#3, Velocity (0 - 127): 89
0    |  MIDI Event: Chan 5 Note ON: E3, Velocity (0 - 127): 101
0    |  MIDI Event: Chan 5 Note ON: A3, Velocity (0 - 127): 89
0    |  MIDI Event: Chan 6 Note ON: D4, Velocity (0 - 127): 111
0    |  MIDI Event: Chan 6 Note ON: D5, Velocity (0 - 127): 111
0    |  MIDI Event: Chan 7 Note ON: D5, Velocity (0 - 127): 120
0    |  MIDI Event: Chan 10 Note ON: A#2, Velocity (0 - 127): 120
0    |  MIDI Event: Chan 10 Note ON: C#5, Velocity (0 - 127): 115
0    |  MIDI Event: Chan 12 Note ON: D5, Velocity (0 - 127): 120
29   |  MIDI Event: Chan 10 Note OFF: C#5, Velocity (0 - 127): 64
0    |  MIDI Event: Chan 5 Note OFF: E3, Velocity (0 - 127): 64
0    |  MIDI Event: Chan 1 Note OFF: C#4, Velocity (0 - 127): 64
0    |  MIDI Event: Chan 1 Note OFF: A3, Velocity (0 - 127): 64
0    |  MIDI Event: Chan 1 Note OFF: E4, Velocity (0 - 127): 64
0    |  MIDI Event: Chan 5 Note OFF: C#3, Velocity (0 - 127): 64
0    |  MIDI Event: Chan 10 Note OFF: A#2, Velocity (0 - 127): 64
0    |  MIDI Event: Chan 5 Note OFF: A3, Velocity (0 - 127): 64
1    |  MIDI Event: Chan 1 Note ON: A3, Velocity (0 - 127): 73
0    |  MIDI Event: Chan 1 Note ON: C#4, Velocity (0 - 127): 52
0    |  MIDI Event: Chan 1 Note ON: E4, Velocity (0 - 127): 83
0    |  MIDI Event: Chan 5 Note ON: C#3, Velocity (0 - 127): 119
0    |  MIDI Event: Chan 5 Note ON: E3, Velocity (0 - 127): 118
0    |  MIDI Event: Chan 5 Note ON: A3, Velocity (0 - 127): 105
29   |  MIDI Event: Chan 5 Note OFF: A3, Velocity (0 - 127): 64
0    |  MIDI Event: Chan 6 Note OFF: D4, Velocity (0 - 127): 64
0    |  MIDI Event: Chan 2 Note OFF: F#1, Velocity (0 - 127): 64
0    |  MIDI Event: Chan 7 Note OFF: D5, Velocity (0 - 127): 64
0    |  MIDI Event: Chan 3 Note OFF: A3, Velocity (0 - 127): 64
0    |  MIDI Event: Chan 6 Note OFF: D5, Velocity (0 - 127): 64
0    |  MIDI Event: Chan 3 Note OFF: C#4, Velocity (0 - 127): 64
0    |  MIDI Event: Chan 12 Note OFF: D5, Velocity (0 - 127): 64
0    |  MIDI Event: Chan 5 Note OFF: C#3, Velocity (0 - 127): 64
0    |  MIDI Event: Chan 1 Note OFF: E4, Velocity (0 - 127): 64
0    |  MIDI Event: Chan 1 Note OFF: A3, Velocity (0 - 127): 64
0    |  MIDI Event: Chan 3 Note OFF: F#4, Velocity (0 - 127): 64
0    |  MIDI Event: Chan 5 Note OFF: E3, Velocity (0 - 127): 64
0    |  MIDI Event: Chan 1 Note OFF: C#4, Velocity (0 - 127): 64
1    |  MIDI Event: Chan 1 Note ON: B3, Velocity (0 - 127): 58
0    |  MIDI Event: Chan 1 Note ON: D4, Velocity (0 - 127): 91
0    |  MIDI Event: Chan 2 Control/Mode Change: Expression Control (0-127): 64
0    |  MIDI Event: Chan 2 Note ON: B1, Velocity (0 - 127): 120
0    |  MIDI Event: Chan 3 Control/Mode Change: Expression Control (0-127): 64
0    |  MIDI Event: Chan 3 Note ON: B3, Velocity (0 - 127): 120
0    |  MIDI Event: Chan 3 Note ON: D4, Velocity (0 - 127): 120
0    |  MIDI Event: Chan 3 Note ON: F#4, Velocity (0 - 127): 120
0    |  MIDI Event: Chan 5 Note ON: B2, Velocity (0 - 127): 85
0    |  MIDI Event: Chan 5 Note ON: F#3, Velocity (0 - 127): 120
0    |  MIDI Event: Chan 6 Note ON: B3, Velocity (0 - 127): 120
0    |  MIDI Event: Chan 6 Note ON: B4, Velocity (0 - 127): 120
0    |  MIDI Event: Chan 7 Note ON: B4, Velocity (0 - 127): 120
0    |  MIDI Event: Chan 10 Note ON: B1, Velocity (0 - 127): 120
0    |  MIDI Event: Chan 10 Note ON: F#2, Velocity (0 - 127): 120
0    |  MIDI Event: Chan 10 Note ON: B3, Velocity (0 - 127): 120
0    |  MIDI Event: Chan 12 Note ON: B4, Velocity (0 - 127): 120
29   |  MIDI Event: Chan 10 Note OFF: B3, Velocity (0 - 127): 64
0    |  MIDI Event: Chan 10 Note OFF: F#2, Velocity (0 - 127): 64
0    |  MIDI Event: Chan 10 Note OFF: B1, Velocity (0 - 127): 64
30   |  MIDI Event: Chan 6 Note OFF: B4, Velocity (0 - 127): 64
0    |  MIDI Event: Chan 5 Note OFF: B2, Velocity (0 - 127): 64
0    |  MIDI Event: Chan 5 Note OFF: F#3, Velocity (0 - 127): 64
0    |  MIDI Event: Chan 1 Note OFF: B3, Velocity (0 - 127): 64
0    |  MIDI Event: Chan 6 Note OFF: B3, Velocity (0 - 127): 64
0    |  MIDI Event: Chan 7 Note OFF: B4, Velocity (0 - 127): 64
0    |  MIDI Event: Chan 12 Note OFF: B4, Velocity (0 - 127): 64
0    |  MIDI Event: Chan 1 Note OFF: D4, Velocity (0 - 127): 64
1    |  MIDI Event: Chan 1 Note ON: B3, Velocity (0 - 127): 79
0    |  MIDI Event: Chan 1 Note ON: D4, Velocity (0 - 127): 95
0    |  MIDI Event: Chan 1 Note ON: F#4, Velocity (0 - 127): 74
0    |  MIDI Event: Chan 2 Control/Mode Change: Expression Control (0-127): 127
0    |  MIDI Event: Chan 3 Control/Mode Change: Expression Control (0-127): 127
0    |  MIDI Event: Chan 5 Note ON: D3, Velocity (0 - 127): 92
0    |  MIDI Event: Chan 5 Note ON: F#3, Velocity (0 - 127): 87
0    |  MIDI Event: Chan 5 Note ON: D4, Velocity (0 - 127): 95
0    |  MIDI Event: Chan 10 Note ON: A#2, Velocity (0 - 127): 120
0    |  MIDI Event: Chan 10 Note ON: C#5, Velocity (0 - 127): 119
29   |  MIDI Event: Chan 10 Note OFF: C#5, Velocity (0 - 127): 64
0    |  MIDI Event: Chan 10 Note OFF: A#2, Velocity (0 - 127): 64
30   |  MIDI Event: Chan 2 Note OFF: B1, Velocity (0 - 127): 64
1    |  MIDI Event: Chan 2 Control/Mode Change: Expression Control (0-127): 64
0    |  MIDI Event: Chan 2 Note ON: B1, Velocity (0 - 127): 120
0    |  MIDI Event: Chan 3 Control/Mode Change: Expression Control (0-127): 73
0    |  MIDI Event: Chan 6 Note ON: B3, Velocity (0 - 127): 120
0    |  MIDI Event: Chan 6 Note ON: B4, Velocity (0 - 127): 120
0    |  MIDI Event: Chan 7 Note ON: B4, Velocity (0 - 127): 120
0    |  MIDI Event: Chan 10 Note ON: B1, Velocity (0 - 127): 120
0    |  MIDI Event: Chan 10 Note ON: F#2, Velocity (0 - 127): 120
0    |  MIDI Event: Chan 10 Note ON: B3, Velocity (0 - 127): 116
0    |  MIDI Event: Chan 12 Note ON: B4, Velocity (0 - 127): 120
29   |  MIDI Event: Chan 10 Note OFF: B3, Velocity (0 - 127): 64
0    |  MIDI Event: Chan 10 Note OFF: F#2, Velocity (0 - 127): 64
0    |  MIDI Event: Chan 5 Note OFF: D3, Velocity (0 - 127): 64
0    |  MIDI Event: Chan 1 Note OFF: F#4, Velocity (0 - 127): 64
0    |  MIDI Event: Chan 1 Note OFF: D4, Velocity (0 - 127): 64
0    |  MIDI Event: Chan 1 Note OFF: B3, Velocity (0 - 127): 64
0    |  MIDI Event: Chan 5 Note OFF: D4, Velocity (0 - 127): 64
0    |  MIDI Event: Chan 10 Note OFF: B1, Velocity (0 - 127): 64
0    |  MIDI Event: Chan 5 Note OFF: F#3, Velocity (0 - 127): 64
1    |  MIDI Event: Chan 1 Note ON: B3, Velocity (0 - 127): 71
0    |  MIDI Event: Chan 1 Note ON: D4, Velocity (0 - 127): 91
0    |  MIDI Event: Chan 1 Note ON: F#4, Velocity (0 - 127): 60
0    |  MIDI Event: Chan 5 Note ON: F#3, Velocity (0 - 127): 109
0    |  MIDI Event: Chan 5 Note ON: B3, Velocity (0 - 127): 95
29   |  MIDI Event: Chan 5 Note OFF: B3, Velocity (0 - 127): 64
0    |  MIDI Event: Chan 7 Note OFF: B4, Velocity (0 - 127): 64
0    |  MIDI Event: Chan 1 Note OFF: D4, Velocity (0 - 127): 64
0    |  MIDI Event: Chan 12 Note OFF: B4, Velocity (0 - 127): 64
0    |  MIDI Event: Chan 6 Note OFF: B4, Velocity (0 - 127): 64
0    |  MIDI Event: Chan 1 Note OFF: B3, Velocity (0 - 127): 64
0    |  MIDI Event: Chan 5 Note OFF: F#3, Velocity (0 - 127): 64
0    |  MIDI Event: Chan 6 Note OFF: B3, Velocity (0 - 127): 64
0    |  MIDI Event: Chan 1 Note OFF: F#4, Velocity (0 - 127): 64
1    |  MIDI Event: Chan 1 Note ON: D4, Velocity (0 - 127): 80
0    |  MIDI Event: Chan 1 Note ON: F#4, Velocity (0 - 127): 62
0    |  MIDI Event: Chan 1 Note ON: B4, Velocity (0 - 127): 91
0    |  MIDI Event: Chan 2 Control/Mode Change: Expression Control (0-127): 127
0    |  MIDI Event: Chan 3 Control/Mode Change: Expression Control (0-127): 127
0    |  MIDI Event: Chan 5 Note ON: D3, Velocity (0 - 127): 103
0    |  MIDI Event: Chan 5 Note ON: F#3, Velocity (0 - 127): 115
0    |  MIDI Event: Chan 10 Note ON: A#2, Velocity (0 - 127): 119
0    |  MIDI Event: Chan 10 Note ON: C#5, Velocity (0 - 127): 119
29   |  MIDI Event: Chan 10 Note OFF: C#5, Velocity (0 - 127): 64
0    |  MIDI Event: Chan 5 Note OFF: D3, Velocity (0 - 127): 64
0    |  MIDI Event: Chan 10 Note OFF: A#2, Velocity (0 - 127): 64
0    |  MIDI Event: Chan 1 Note OFF: B4, Velocity (0 - 127): 64
0    |  MIDI Event: Chan 5 Note OFF: F#3, Velocity (0 - 127): 64
0    |  MIDI Event: Chan 1 Note OFF: D4, Velocity (0 - 127): 64
0    |  MIDI Event: Chan 1 Note OFF: F#4, Velocity (0 - 127): 64
1    |  MIDI Event: Chan 1 Note ON: B3, Velocity (0 - 127): 51
0    |  MIDI Event: Chan 1 Note ON: D4, Velocity (0 - 127): 85
0    |  MIDI Event: Chan 1 Note ON: F#4, Velocity (0 - 127): 59
0    |  MIDI Event: Chan 5 Note ON: B2, Velocity (0 - 127): 92
0    |  MIDI Event: Chan 5 Note ON: E3, Velocity (0 - 127): 98
0    |  MIDI Event: Chan 6 Note ON: A3, Velocity (0 - 127): 98
0    |  MIDI Event: Chan 6 Note ON: A4, Velocity (0 - 127): 98
0    |  MIDI Event: Chan 7 Note ON: A4, Velocity (0 - 127): 120
0    |  MIDI Event: Chan 12 Note ON: A4, Velocity (0 - 127): 120
29   |  MIDI Event: Chan 12 Note OFF: A4, Velocity (0 - 127): 64
0    |  MIDI Event: Chan 1 Note OFF: D4, Velocity (0 - 127): 64
0    |  MIDI Event: Chan 3 Note OFF: F#4, Velocity (0 - 127): 64
0    |  MIDI Event: Chan 5 Note OFF: B2, Velocity (0 - 127): 64
0    |  MIDI Event: Chan 2 Note OFF: B1, Velocity (0 - 127): 64
0    |  MIDI Event: Chan 3 Note OFF: D4, Velocity (0 - 127): 64
0    |  MIDI Event: Chan 3 Note OFF: B3, Velocity (0 - 127): 64
0    |  MIDI Event: Chan 1 Note OFF: B3, Velocity (0 - 127): 64
0    |  MIDI Event: Chan 6 Note OFF: A4, Velocity (0 - 127): 64
0    |  MIDI Event: Chan 5 Note OFF: E3, Velocity (0 - 127): 64
0    |  MIDI Event: Chan 1 Note OFF: F#4, Velocity (0 - 127): 64
0    |  MIDI Event: Chan 7 Note OFF: A4, Velocity (0 - 127): 64
0    |  MIDI Event: Chan 6 Note OFF: A3, Velocity (0 - 127): 64
1    |  MIDI Event: Chan 1 Note ON: G3, Velocity (0 - 127): 74
0    |  MIDI Event: Chan 1 Note ON: B3, Velocity (0 - 127): 94
0    |  MIDI Event: Chan 1 Note ON: D4, Velocity (0 - 127): 91
0    |  MIDI Event: Chan 2 Control/Mode Change: Expression Control (0-127): 64
0    |  MIDI Event: Chan 2 Note ON: G1, Velocity (0 - 127): 120
0    |  MIDI Event: Chan 3 Control/Mode Change: Expression Control (0-127): 71
0    |  MIDI Event: Chan 3 Note ON: B3, Velocity (0 - 127): 120
0    |  MIDI Event: Chan 3 Note ON: D4, Velocity (0 - 127): 120
0    |  MIDI Event: Chan 3 Note ON: G4, Velocity (0 - 127): 120
0    |  MIDI Event: Chan 5 Note ON: G2, Velocity (0 - 127): 98
0    |  MIDI Event: Chan 5 Note ON: D3, Velocity (0 - 127): 116
0    |  MIDI Event: Chan 6 Note ON: B3, Velocity (0 - 127): 98
0    |  MIDI Event: Chan 6 Note ON: B4, Velocity (0 - 127): 98
0    |  MIDI Event: Chan 7 Note ON: B4, Velocity (0 - 127): 120
0    |  MIDI Event: Chan 10 Note ON: B1, Velocity (0 - 127): 120
0    |  MIDI Event: Chan 10 Note ON: F#2, Velocity (0 - 127): 120
0    |  MIDI Event: Chan 10 Note ON: B3, Velocity (0 - 127): 118
0    |  MIDI Event: Chan 12 Note ON: B4, Velocity (0 - 127): 120
29   |  MIDI Event: Chan 12 Note OFF: B4, Velocity (0 - 127): 64
0    |  MIDI Event: Chan 10 Note OFF: B3, Velocity (0 - 127): 64
0    |  MIDI Event: Chan 7 Note OFF: B4, Velocity (0 - 127): 64
0    |  MIDI Event: Chan 6 Note OFF: B3, Velocity (0 - 127): 64
0    |  MIDI Event: Chan 10 Note OFF: F#2, Velocity (0 - 127): 64
0    |  MIDI Event: Chan 6 Note OFF: B4, Velocity (0 - 127): 64
0    |  MIDI Event: Chan 10 Note OFF: B1, Velocity (0 - 127): 64
1    |  MIDI Event: Chan 6 Note ON: D4, Velocity (0 - 127): 54
0    |  MIDI Event: Chan 6 Note ON: D5, Velocity (0 - 127): 54
0    |  MIDI Event: Chan 7 Note ON: D5, Velocity (0 - 127): 120
0    |  MIDI Event: Chan 12 Note ON: D5, Velocity (0 - 127): 120
29   |  MIDI Event: Chan 12 Note OFF: D5, Velocity (0 - 127): 64
0    |  MIDI Event: Chan 5 Note OFF: G2, Velocity (0 - 127): 64
0    |  MIDI Event: Chan 1 Note OFF: B3, Velocity (0 - 127): 64
0    |  MIDI Event: Chan 1 Note OFF: G3, Velocity (0 - 127): 64
0    |  MIDI Event: Chan 5 Note OFF: D3, Velocity (0 - 127): 64
0    |  MIDI Event: Chan 6 Note OFF: D4, Velocity (0 - 127): 64
0    |  MIDI Event: Chan 1 Note OFF: D4, Velocity (0 - 127): 64
0    |  MIDI Event: Chan 7 Note OFF: D5, Velocity (0 - 127): 64
0    |  MIDI Event: Chan 6 Note OFF: D5, Velocity (0 - 127): 64
1    |  MIDI Event: Chan 1 Note ON: B3, Velocity (0 - 127): 70
0    |  MIDI Event: Chan 1 Note ON: D4, Velocity (0 - 127): 94
0    |  MIDI Event: Chan 1 Note ON: G4, Velocity (0 - 127): 101
0    |  MIDI Event: Chan 2 Control/Mode Change: Expression Control (0-127): 127
0    |  MIDI Event: Chan 3 Control/Mode Change: Expression Control (0-127): 127
0    |  MIDI Event: Chan 5 Note ON: D3, Velocity (0 - 127): 79
0    |  MIDI Event: Chan 5 Note ON: G3, Velocity (0 - 127): 111
0    |  MIDI Event: Chan 5 Note ON: B3, Velocity (0 - 127): 100
0    |  MIDI Event: Chan 6 Note ON: B3, Velocity (0 - 127): 116
0    |  MIDI Event: Chan 6 Note ON: B4, Velocity (0 - 127): 116
0    |  MIDI Event: Chan 7 Note ON: B4, Velocity (0 - 127): 120
0    |  MIDI Event: Chan 10 Note ON: A#2, Velocity (0 - 127): 120
0    |  MIDI Event: Chan 10 Note ON: C#5, Velocity (0 - 127): 109
0    |  MIDI Event: Chan 12 Note ON: B4, Velocity (0 - 127): 120
29   |  MIDI Event: Chan 10 Note OFF: C#5, Velocity (0 - 127): 64
0    |  MIDI Event: Chan 10 Note OFF: A#2, Velocity (0 - 127): 64
30   |  MIDI Event: Chan 6 Note OFF: B4, Velocity (0 - 127): 64
0    |  MIDI Event: Chan 12 Note OFF: B4, Velocity (0 - 127): 64
0    |  MIDI Event: Chan 2 Note OFF: G1, Velocity (0 - 127): 64
0    |  MIDI Event: Chan 6 Note OFF: B3, Velocity (0 - 127): 64
0    |  MIDI Event: Chan 7 Note OFF: B4, Velocity (0 - 127): 64
1    |  MIDI Event: Chan 2 Control/Mode Change: Expression Control (0-127): 64
0    |  MIDI Event: Chan 2 Note ON: G1, Velocity (0 - 127): 120
0    |  MIDI Event: Chan 3 Control/Mode Change: Expression Control (0-127): 80
0    |  MIDI Event: Chan 10 Note ON: B1, Velocity (0 - 127): 120
0    |  MIDI Event: Chan 10 Note ON: F#2, Velocity (0 - 127): 120
0    |  MIDI Event: Chan 10 Note ON: B3, Velocity (0 - 127): 116
29   |  MIDI Event: Chan 10 Note OFF: B3, Velocity (0 - 127): 64
0    |  MIDI Event: Chan 5 Note OFF: G3, Velocity (0 - 127): 64
0    |  MIDI Event: Chan 1 Note OFF: G4, Velocity (0 - 127): 64
0    |  MIDI Event: Chan 5 Note OFF: B3, Velocity (0 - 127): 64
0    |  MIDI Event: Chan 1 Note OFF: D4, Velocity (0 - 127): 64
0    |  MIDI Event: Chan 1 Note OFF: B3, Velocity (0 - 127): 64
0    |  MIDI Event: Chan 5 Note OFF: D3, Velocity (0 - 127): 64
0    |  MIDI Event: Chan 10 Note OFF: F#2, Velocity (0 - 127): 64
0    |  MIDI Event: Chan 10 Note OFF: B1, Velocity (0 - 127): 64
1    |  MIDI Event: Chan 1 Note ON: B3, Velocity (0 - 127): 52
0    |  MIDI Event: Chan 1 Note ON: D4, Velocity (0 - 127): 85
0    |  MIDI Event: Chan 1 Note ON: G4, Velocity (0 - 127): 94
0    |  MIDI Event: Chan 5 Note ON: D3, Velocity (0 - 127): 82
0    |  MIDI Event: Chan 5 Note ON: G3, Velocity (0 - 127): 98
0    |  MIDI Event: Chan 5 Note ON: B3, Velocity (0 - 127): 85
0    |  MIDI Event: Chan 6 Note ON: A3, Velocity (0 - 127): 83
0    |  MIDI Event: Chan 6 Note ON: A4, Velocity (0 - 127): 83
0    |  MIDI Event: Chan 7 Note ON: A4, Velocity (0 - 127): 120
0    |  MIDI Event: Chan 12 Note ON: A4, Velocity (0 - 127): 120
29   |  MIDI Event: Chan 12 Note OFF: A4, Velocity (0 - 127): 64
0    |  MIDI Event: Chan 1 Note OFF: B3, Velocity (0 - 127): 64
0    |  MIDI Event: Chan 1 Note OFF: D4, Velocity (0 - 127): 64
0    |  MIDI Event: Chan 5 Note OFF: B3, Velocity (0 - 127): 64
0    |  MIDI Event: Chan 5 Note OFF: D3, Velocity (0 - 127): 64
0    |  MIDI Event: Chan 1 Note OFF: G4, Velocity (0 - 127): 64
0    |  MIDI Event: Chan 5 Note OFF: G3, Velocity (0 - 127): 64
0    |  MIDI Event: Chan 7 Note OFF: A4, Velocity (0 - 127): 64
0    |  MIDI Event: Chan 6 Note OFF: A4, Velocity (0 - 127): 64
0    |  MIDI Event: Chan 6 Note OFF: A3, Velocity (0 - 127): 64
1    |  MIDI Event: Chan 1 Note ON: D4, Velocity (0 - 127): 78
0    |  MIDI Event: Chan 1 Note ON: G4, Velocity (0 - 127): 100
0    |  MIDI Event: Chan 1 Note ON: B4, Velocity (0 - 127): 46
0    |  MIDI Event: Chan 2 Control/Mode Change: Expression Control (0-127): 127
0    |  MIDI Event: Chan 3 Control/Mode Change: Expression Control (0-127): 127
0    |  MIDI Event: Chan 5 Note ON: G2, Velocity (0 - 127): 109
0    |  MIDI Event: Chan 5 Note ON: D3, Velocity (0 - 127): 109
0    |  MIDI Event: Chan 6 Note ON: B3, Velocity (0 - 127): 98
0    |  MIDI Event: Chan 6 Note ON: B4, Velocity (0 - 127): 98
0    |  MIDI Event: Chan 7 Note ON: B4, Velocity (0 - 127): 120
0    |  MIDI Event: Chan 10 Note ON: A#2, Velocity (0 - 127): 120
0    |  MIDI Event: Chan 10 Note ON: C#5, Velocity (0 - 127): 115
0    |  MIDI Event: Chan 12 Note ON: B4, Velocity (0 - 127): 120
29   |  MIDI Event: Chan 12 Note OFF: B4, Velocity (0 - 127): 64
0    |  MIDI Event: Chan 7 Note OFF: B4, Velocity (0 - 127): 64
0    |  MIDI Event: Chan 1 Note OFF: D4, Velocity (0 - 127): 64
0    |  MIDI Event: Chan 1 Note OFF: G4, Velocity (0 - 127): 64
0    |  MIDI Event: Chan 6 Note OFF: B3, Velocity (0 - 127): 64
0    |  MIDI Event: Chan 5 Note OFF: G2, Velocity (0 - 127): 64
0    |  MIDI Event: Chan 1 Note OFF: B4, Velocity (0 - 127): 64
0    |  MIDI Event: Chan 5 Note OFF: D3, Velocity (0 - 127): 64
0    |  MIDI Event: Chan 10 Note OFF: C#5, Velocity (0 - 127): 64
0    |  MIDI Event: Chan 10 Note OFF: A#2, Velocity (0 - 127): 64
0    |  MIDI Event: Chan 6 Note OFF: B4, Velocity (0 - 127): 64
1    |  MIDI Event: Chan 1 Note ON: B3, Velocity (0 - 127): 45
0    |  MIDI Event: Chan 1 Note ON: D4, Velocity (0 - 127): 73
0    |  MIDI Event: Chan 1 Note ON: G4, Velocity (0 - 127): 86
0    |  MIDI Event: Chan 5 Note ON: G2, Velocity (0 - 127): 101
0    |  MIDI Event: Chan 5 Note ON: E3, Velocity (0 - 127): 116
0    |  MIDI Event: Chan 6 Note ON: A3, Velocity (0 - 127): 94
0    |  MIDI Event: Chan 6 Note ON: A4, Velocity (0 - 127): 94
0    |  MIDI Event: Chan 7 Note ON: A4, Velocity (0 - 127): 120
0    |  MIDI Event: Chan 12 Note ON: A4, Velocity (0 - 127): 120
29   |  MIDI Event: Chan 12 Note OFF: A4, Velocity (0 - 127): 64
0    |  MIDI Event: Chan 1 Note OFF: D4, Velocity (0 - 127): 64
0    |  MIDI Event: Chan 3 Note OFF: D4, Velocity (0 - 127): 64
0    |  MIDI Event: Chan 5 Note OFF: G2, Velocity (0 - 127): 64
0    |  MIDI Event: Chan 3 Note OFF: B3, Velocity (0 - 127): 64
0    |  MIDI Event: Chan 3 Note OFF: G4, Velocity (0 - 127): 64
0    |  MIDI Event: Chan 2 Note OFF: G1, Velocity (0 - 127): 64
0    |  MIDI Event: Chan 1 Note OFF: B3, Velocity (0 - 127): 64
0    |  MIDI Event: Chan 6 Note OFF: A4, Velocity (0 - 127): 64
0    |  MIDI Event: Chan 5 Note OFF: E3, Velocity (0 - 127): 64
0    |  MIDI Event: Chan 1 Note OFF: G4, Velocity (0 - 127): 64
0    |  MIDI Event: Chan 7 Note OFF: A4, Velocity (0 - 127): 64
0    |  MIDI Event: Chan 6 Note OFF: A3, Velocity (0 - 127): 64
1    |  MIDI Event: Chan 1 Note ON: F#3, Velocity (0 - 127): 35
0    |  MIDI Event: Chan 1 Note ON: A3, Velocity (0 - 127): 85
0    |  MIDI Event: Chan 1 Note ON: D4, Velocity (0 - 127): 79
0    |  MIDI Event: Chan 2 Control/Mode Change: Expression Control (0-127): 64
0    |  MIDI Event: Chan 2 Note ON: D2, Velocity (0 - 127): 120
0    |  MIDI Event: Chan 3 Control/Mode Change: Expression Control (0-127): 64
0    |  MIDI Event: Chan 3 Note ON: A3, Velocity (0 - 127): 120
0    |  MIDI Event: Chan 3 Note ON: D4, Velocity (0 - 127): 120
0    |  MIDI Event: Chan 3 Note ON: F#4, Velocity (0 - 127): 120
0    |  MIDI Event: Chan 5 Note ON: A2, Velocity (0 - 127): 90
0    |  MIDI Event: Chan 5 Note ON: D3, Velocity (0 - 127): 105
0    |  MIDI Event: Chan 6 Note ON: D4, Velocity (0 - 127): 120
0    |  MIDI Event: Chan 6 Note ON: D5, Velocity (0 - 127): 120
0    |  MIDI Event: Chan 7 Note ON: D5, Velocity (0 - 127): 120
0    |  MIDI Event: Chan 10 Note ON: B1, Velocity (0 - 127): 120
0    |  MIDI Event: Chan 10 Note ON: F#2, Velocity (0 - 127): 120
0    |  MIDI Event: Chan 10 Note ON: B3, Velocity (0 - 127): 116
0    |  MIDI Event: Chan 12 Note ON: D5, Velocity (0 - 127): 120
29   |  MIDI Event: Chan 10 Note OFF: B3, Velocity (0 - 127): 64
0    |  MIDI Event: Chan 10 Note OFF: F#2, Velocity (0 - 127): 64
0    |  MIDI Event: Chan 10 Note OFF: B1, Velocity (0 - 127): 64
30   |  MIDI Event: Chan 12 Note OFF: D5, Velocity (0 - 127): 64
0    |  MIDI Event: Chan 6 Note OFF: D4, Velocity (0 - 127): 64
0    |  MIDI Event: Chan 1 Note OFF: D4, Velocity (0 - 127): 64
0    |  MIDI Event: Chan 5 Note OFF: A2, Velocity (0 - 127): 64
0    |  MIDI Event: Chan 1 Note OFF: F#3, Velocity (0 - 127): 64
0    |  MIDI Event: Chan 5 Note OFF: D3, Velocity (0 - 127): 64
0    |  MIDI Event: Chan 6 Note OFF: D5, Velocity (0 - 127): 64
0    |  MIDI Event: Chan 7 Note OFF: D5, Velocity (0 - 127): 64
0    |  MIDI Event: Chan 1 Note OFF: A3, Velocity (0 - 127): 64
1    |  MIDI Event: Chan 1 Note ON: A3, Velocity (0 - 127): 69
0    |  MIDI Event: Chan 1 Note ON: D4, Velocity (0 - 127): 98
0    |  MIDI Event: Chan 1 Note ON: F#4, Velocity (0 - 127): 74
0    |  MIDI Event: Chan 2 Control/Mode Change: Expression Control (0-127): 127
0    |  MIDI Event: Chan 3 Control/Mode Change: Expression Control (0-127): 127
0    |  MIDI Event: Chan 5 Note ON: A2, Velocity (0 - 127): 100
0    |  MIDI Event: Chan 5 Note ON: D3, Velocity (0 - 127): 111
0    |  MIDI Event: Chan 5 Note ON: F#3, Velocity (0 - 127): 89
0    |  MIDI Event: Chan 10 Note ON: A#2, Velocity (0 - 127): 120
0    |  MIDI Event: Chan 10 Note ON: C#5, Velocity (0 - 127): 109
29   |  MIDI Event: Chan 10 Note OFF: C#5, Velocity (0 - 127): 64
0    |  MIDI Event: Chan 10 Note OFF: A#2, Velocity (0 - 127): 64
30   |  MIDI Event: Chan 2 Note OFF: D2, Velocity (0 - 127): 64
1    |  MIDI Event: Chan 2 Control/Mode Change: Expression Control (0-127): 64
0    |  MIDI Event: Chan 2 Note ON: D2, Velocity (0 - 127): 120
0    |  MIDI Event: Chan 3 Control/Mode Change: Expression Control (0-127): 73
0    |  MIDI Event: Chan 6 Note ON: D4, Velocity (0 - 127): 120
0    |  MIDI Event: Chan 6 Note ON: D5, Velocity (0 - 127): 120
0    |  MIDI Event: Chan 7 Note ON: D5, Velocity (0 - 127): 120
0    |  MIDI Event: Chan 10 Note ON: B1, Velocity (0 - 127): 120
0    |  MIDI Event: Chan 10 Note ON: F#2, Velocity (0 - 127): 120
0    |  MIDI Event: Chan 10 Note ON: B3, Velocity (0 - 127): 116
0    |  MIDI Event: Chan 12 Note ON: D5, Velocity (0 - 127): 120
29   |  MIDI Event: Chan 10 Note OFF: B3, Velocity (0 - 127): 64
0    |  MIDI Event: Chan 10 Note OFF: F#2, Velocity (0 - 127): 64
0    |  MIDI Event: Chan 5 Note OFF: A2, Velocity (0 - 127): 64
0    |  MIDI Event: Chan 1 Note OFF: F#4, Velocity (0 - 127): 64
0    |  MIDI Event: Chan 1 Note OFF: D4, Velocity (0 - 127): 64
0    |  MIDI Event: Chan 1 Note OFF: A3, Velocity (0 - 127): 64
0    |  MIDI Event: Chan 5 Note OFF: F#3, Velocity (0 - 127): 64
0    |  MIDI Event: Chan 10 Note OFF: B1, Velocity (0 - 127): 64
0    |  MIDI Event: Chan 5 Note OFF: D3, Velocity (0 - 127): 64
1    |  MIDI Event: Chan 1 Note ON: F#3, Velocity (0 - 127): 44
0    |  MIDI Event: Chan 1 Note ON: A3, Velocity (0 - 127): 78
0    |  MIDI Event: Chan 1 Note ON: D4, Velocity (0 - 127): 58
0    |  MIDI Event: Chan 5 Note ON: A2, Velocity (0 - 127): 85
0    |  MIDI Event: Chan 5 Note ON: D3, Velocity (0 - 127): 105
0    |  MIDI Event: Chan 5 Note ON: F#3, Velocity (0 - 127): 81
29   |  MIDI Event: Chan 5 Note OFF: F#3, Velocity (0 - 127): 64
0    |  MIDI Event: Chan 6 Note OFF: D4, Velocity (0 - 127): 64
0    |  MIDI Event: Chan 7 Note OFF: D5, Velocity (0 - 127): 64
0    |  MIDI Event: Chan 1 Note OFF: A3, Velocity (0 - 127): 64
0    |  MIDI Event: Chan 12 Note OFF: D5, Velocity (0 - 127): 64
0    |  MIDI Event: Chan 6 Note OFF: D5, Velocity (0 - 127): 64
0    |  MIDI Event: Chan 1 Note OFF: F#3, Velocity (0 - 127): 64
0    |  MIDI Event: Chan 5 Note OFF: D3, Velocity (0 - 127): 64
0    |  MIDI Event: Chan 5 Note OFF: A2, Velocity (0 - 127): 64
0    |  MIDI Event: Chan 1 Note OFF: D4, Velocity (0 - 127): 64
1    |  MIDI Event: Chan 1 Note ON: A3, Velocity (0 - 127): 57
0    |  MIDI Event: Chan 1 Note ON: D4, Velocity (0 - 127): 91
0    |  MIDI Event: Chan 1 Note ON: F#4, Velocity (0 - 127): 77
0    |  MIDI Event: Chan 2 Control/Mode Change: Expression Control (0-127): 127
0    |  MIDI Event: Chan 3 Control/Mode Change: Expression Control (0-127): 127
0    |  MIDI Event: Chan 5 Note ON: D3, Velocity (0 - 127): 109
0    |  MIDI Event: Chan 5 Note ON: F#3, Velocity (0 - 127): 89
0    |  MIDI Event: Chan 5 Note ON: A3, Velocity (0 - 127): 109
0    |  MIDI Event: Chan 10 Note ON: A#2, Velocity (0 - 127): 120
0    |  MIDI Event: Chan 10 Note ON: C#5, Velocity (0 - 127): 119
29   |  MIDI Event: Chan 10 Note OFF: C#5, Velocity (0 - 127): 64
0    |  MIDI Event: Chan 5 Note OFF: A3, Velocity (0 - 127): 64
0    |  MIDI Event: Chan 5 Note OFF: D3, Velocity (0 - 127): 64
0    |  MIDI Event: Chan 1 Note OFF: F#4, Velocity (0 - 127): 64
0    |  MIDI Event: Chan 5 Note OFF: F#3, Velocity (0 - 127): 64
0    |  MIDI Event: Chan 10 Note OFF: A#2, Velocity (0 - 127): 64
0    |  MIDI Event: Chan 1 Note OFF: A3, Velocity (0 - 127): 64
0    |  MIDI Event: Chan 1 Note OFF: D4, Velocity (0 - 127): 64
1    |  MIDI Event: Chan 1 Note ON: F#3, Velocity (0 - 127): 35
0    |  MIDI Event: Chan 1 Note ON: A3, Velocity (0 - 127): 79
0    |  MIDI Event: Chan 1 Note ON: D4, Velocity (0 - 127): 56
0    |  MIDI Event: Chan 5 Note ON: D3, Velocity (0 - 127): 111
0    |  MIDI Event: Chan 5 Note ON: F#3, Velocity (0 - 127): 100
0    |  MIDI Event: Chan 5 Note ON: A3, Velocity (0 - 127): 100
0    |  MIDI Event: Chan 6 Note ON: D4, Velocity (0 - 127): 89
0    |  MIDI Event: Chan 6 Note ON: D5, Velocity (0 - 127): 89
0    |  MIDI Event: Chan 7 Note ON: D5, Velocity (0 - 127): 120
0    |  MIDI Event: Chan 12 Note ON: D5, Velocity (0 - 127): 120
29   |  MIDI Event: Chan 12 Note OFF: D5, Velocity (0 - 127): 64
0    |  MIDI Event: Chan 1 Note OFF: F#3, Velocity (0 - 127): 64
0    |  MIDI Event: Chan 1 Note OFF: A3, Velocity (0 - 127): 64
0    |  MIDI Event: Chan 5 Note OFF: A3, Velocity (0 - 127): 64
0    |  MIDI Event: Chan 5 Note OFF: D3, Velocity (0 - 127): 64
0    |  MIDI Event: Chan 1 Note OFF: D4, Velocity (0 - 127): 64
0    |  MIDI Event: Chan 2 Note OFF: D2, Velocity (0 - 127): 64
0    |  MIDI Event: Chan 5 Note OFF: F#3, Velocity (0 - 127): 64
0    |  MIDI Event: Chan 6 Note OFF: D5, Velocity (0 - 127): 64
0    |  MIDI Event: Chan 6 Note OFF: D4, Velocity (0 - 127): 64
0    |  MIDI Event: Chan 7 Note OFF: D5, Velocity (0 - 127): 64
1    |  MIDI Event: Chan 1 Note ON: F#3, Velocity (0 - 127): 49
0    |  MIDI Event: Chan 1 Note ON: A3, Velocity (0 - 127): 85
0    |  MIDI Event: Chan 1 Note ON: D4, Velocity (0 - 127): 75
0    |  MIDI Event: Chan 2 Control/Mode Change: Expression Control (0-127): 64
0    |  MIDI Event: Chan 2 Note ON: D2, Velocity (0 - 127): 120
0    |  MIDI Event: Chan 3 Control/Mode Change: Expression Control (0-127): 71
0    |  MIDI Event: Chan 5 Note ON: A2, Velocity (0 - 127): 105
0    |  MIDI Event: Chan 5 Note ON: D3, Velocity (0 - 127): 116
0    |  MIDI Event: Chan 6 Note ON: E4, Velocity (0 - 127): 81
0    |  MIDI Event: Chan 6 Note ON: E5, Velocity (0 - 127): 81
0    |  MIDI Event: Chan 7 Note ON: E5, Velocity (0 - 127): 120
0    |  MIDI Event: Chan 10 Note ON: B1, Velocity (0 - 127): 120
0    |  MIDI Event: Chan 10 Note ON: F#2, Velocity (0 - 127): 120
0    |  MIDI Event: Chan 10 Note ON: B3, Velocity (0 - 127): 118
0    |  MIDI Event: Chan 12 Note ON: E5, Velocity (0 - 127): 120
29   |  MIDI Event: Chan 12 Note OFF: E5, Velocity (0 - 127): 64
0    |  MIDI Event: Chan 10 Note OFF: B3, Velocity (0 - 127): 64
0    |  MIDI Event: Chan 7 Note OFF: E5, Velocity (0 - 127): 64
0    |  MIDI Event: Chan 6 Note OFF: E4, Velocity (0 - 127): 64
0    |  MIDI Event: Chan 10 Note OFF: F#2, Velocity (0 - 127): 64
0    |  MIDI Event: Chan 6 Note OFF: E5, Velocity (0 - 127): 64
0    |  MIDI Event: Chan 10 Note OFF: B1, Velocity (0 - 127): 64
1    |  MIDI Event: Chan 6 Note ON: D4, Velocity (0 - 127): 95
0    |  MIDI Event: Chan 6 Note ON: D5, Velocity (0 - 127): 95
0    |  MIDI Event: Chan 7 Note ON: D5, Velocity (0 - 127): 120
0    |  MIDI Event: Chan 12 Note ON: D5, Velocity (0 - 127): 120
29   |  MIDI Event: Chan 12 Note OFF: D5, Velocity (0 - 127): 64
0    |  MIDI Event: Chan 5 Note OFF: A2, Velocity (0 - 127): 64
0    |  MIDI Event: Chan 1 Note OFF: A3, Velocity (0 - 127): 64
0    |  MIDI Event: Chan 1 Note OFF: F#3, Velocity (0 - 127): 64
0    |  MIDI Event: Chan 5 Note OFF: D3, Velocity (0 - 127): 64
0    |  MIDI Event: Chan 6 Note OFF: D4, Velocity (0 - 127): 64
0    |  MIDI Event: Chan 1 Note OFF: D4, Velocity (0 - 127): 64
0    |  MIDI Event: Chan 7 Note OFF: D5, Velocity (0 - 127): 64
0    |  MIDI Event: Chan 6 Note OFF: D5, Velocity (0 - 127): 64
1    |  MIDI Event: Chan 1 Note ON: A3, Velocity (0 - 127): 56
0    |  MIDI Event: Chan 1 Note ON: D4, Velocity (0 - 127): 84
0    |  MIDI Event: Chan 1 Note ON: F#4, Velocity (0 - 127): 49
0    |  MIDI Event: Chan 2 Control/Mode Change: Expression Control (0-127): 127
0    |  MIDI Event: Chan 3 Control/Mode Change: Expression Control (0-127): 127
0    |  MIDI Event: Chan 5 Note ON: D3, Velocity (0 - 127): 105
0    |  MIDI Event: Chan 5 Note ON: F#3, Velocity (0 - 127): 115
0    |  MIDI Event: Chan 6 Note ON: E4, Velocity (0 - 127): 111
0    |  MIDI Event: Chan 6 Note ON: E5, Velocity (0 - 127): 111
0    |  MIDI Event: Chan 7 Note ON: E5, Velocity (0 - 127): 120
0    |  MIDI Event: Chan 10 Note ON: A#2, Velocity (0 - 127): 120
0    |  MIDI Event: Chan 10 Note ON: C#5, Velocity (0 - 127): 115
0    |  MIDI Event: Chan 12 Note ON: E5, Velocity (0 - 127): 120
29   |  MIDI Event: Chan 10 Note OFF: C#5, Velocity (0 - 127): 64
0    |  MIDI Event: Chan 5 Note OFF: D3, Velocity (0 - 127): 64
0    |  MIDI Event: Chan 1 Note OFF: A3, Velocity (0 - 127): 64
0    |  MIDI Event: Chan 1 Note OFF: F#4, Velocity (0 - 127): 64
0    |  MIDI Event: Chan 10 Note OFF: A#2, Velocity (0 - 127): 64
0    |  MIDI Event: Chan 1 Note OFF: D4, Velocity (0 - 127): 64
0    |  MIDI Event: Chan 5 Note OFF: F#3, Velocity (0 - 127): 64
1    |  MIDI Event: Chan 1 Note ON: A3, Velocity (0 - 127): 84
0    |  MIDI Event: Chan 1 Note ON: D4, Velocity (0 - 127): 94
0    |  MIDI Event: Chan 1 Note ON: F#4, Velocity (0 - 127): 76
0    |  MIDI Event: Chan 5 Note ON: D3, Velocity (0 - 127): 100
0    |  MIDI Event: Chan 5 Note ON: F#3, Velocity (0 - 127): 92
21   |  MIDI Event: Chan 6 Pitch Bend Change (0-16383): 7749 (factor==0.992841)
2    |  MIDI Event: Chan 6 Pitch Bend Change (0-16383): 6215 (factor==0.968447)
3    |  MIDI Event: Chan 6 Pitch Bend Change (0-16383): 4197 (factor==0.937266)
2    |  MIDI Event: Chan 6 Pitch Bend Change (0-16383): 2422 (factor==0.91067)
1    |  MIDI Event: Chan 5 Note OFF: F#3, Velocity (0 - 127): 64
0    |  MIDI Event: Chan 3 Note OFF: D4, Velocity (0 - 127): 64
0    |  MIDI Event: Chan 3 Note OFF: F#4, Velocity (0 - 127): 64
0    |  MIDI Event: Chan 2 Note OFF: D2, Velocity (0 - 127): 64
0    |  MIDI Event: Chan 6 Note OFF: E5, Velocity (0 - 127): 64
0    |  MIDI Event: Chan 12 Note OFF: E5, Velocity (0 - 127): 64
0    |  MIDI Event: Chan 3 Note OFF: A3, Velocity (0 - 127): 64
0    |  MIDI Event: Chan 6 Note OFF: E4, Velocity (0 - 127): 64
0    |  MIDI Event: Chan 1 Note OFF: F#4, Velocity (0 - 127): 64
0    |  MIDI Event: Chan 1 Note OFF: A3, Velocity (0 - 127): 64
0    |  MIDI Event: Chan 7 Note OFF: E5, Velocity (0 - 127): 64
0    |  MIDI Event: Chan 5 Note OFF: D3, Velocity (0 - 127): 64
0    |  MIDI Event: Chan 1 Note OFF: D4, Velocity (0 - 127): 64
1    |  MIDI Event: Chan 1 Note ON: E3, Velocity (0 - 127): 47
0    |  MIDI Event: Chan 1 Note ON: A3, Velocity (0 - 127): 89
0    |  MIDI Event: Chan 1 Note ON: C#4, Velocity (0 - 127): 52
0    |  MIDI Event: Chan 2 Control/Mode Change: Expression Control (0-127): 64
0    |  MIDI Event: Chan 2 Note ON: A1, Velocity (0 - 127): 120
0    |  MIDI Event: Chan 3 Control/Mode Change: Expression Control (0-127): 80
0    |  MIDI Event: Chan 3 Note ON: A3, Velocity (0 - 127): 120
0    |  MIDI Event: Chan 3 Note ON: C#4, Velocity (0 - 127): 120
0    |  MIDI Event: Chan 3 Note ON: E4, Velocity (0 - 127): 120
0    |  MIDI Event: Chan 5 Note ON: A2, Velocity (0 - 127): 101
0    |  MIDI Event: Chan 5 Note ON: E3, Velocity (0 - 127): 101
0    |  MIDI Event: Chan 6 Note ON: F#4, Velocity (0 - 127): 119
0    |  MIDI Event: Chan 6 Note ON: F#5, Velocity (0 - 127): 119
0    |  MIDI Event: Chan 7 Note ON: F#5, Velocity (0 - 127): 120
0    |  MIDI Event: Chan 10 Note ON: B1, Velocity (0 - 127): 120
0    |  MIDI Event: Chan 10 Note ON: F#2, Velocity (0 - 127): 120
0    |  MIDI Event: Chan 10 Note ON: B3, Velocity (0 - 127): 119
0    |  MIDI Event: Chan 12 Note ON: F#5, Velocity (0 - 127): 120
1    |  MIDI Event: Chan 6 Pitch Bend Change (0-16383): 1211 (factor==0.89296)
2    |  MIDI Event: Chan 6 Pitch Bend Change (0-16383): 646 (factor==0.884815)
3    |  MIDI Event: Chan 6 Pitch Bend Change (0-16383): 565 (factor==0.883653)
2    |  MIDI Event: Chan 6 Pitch Bend Change (0-16383): 646 (factor==0.884815)
3    |  MIDI Event: Chan 6 Pitch Bend Change (0-16383): 1373 (factor==0.895309)
2    |  MIDI Event: Chan 6 Pitch Bend Change (0-16383): 2260 (factor==0.908281)
3    |  MIDI Event: Chan 6 Pitch Bend Change (0-16383): 3471 (factor==0.926295)
2    |  MIDI Event: Chan 6 Pitch Bend Change (0-16383): 5085 (factor==0.950861)
3    |  MIDI Event: Chan 6 Pitch Bend Change (0-16383): 6942 (factor==0.979932)
2    |  MIDI Event: Chan 6 Pitch Bend Change (0-16383): 8071 (factor==0.99804)
3    |  MIDI Event: Chan 6 Pitch Bend Change (0-16383): 8192 (factor==1)
3    |  MIDI Event: Chan 10 Note OFF: B3, Velocity (0 - 127): 64
0    |  MIDI Event: Chan 10 Note OFF: F#2, Velocity (0 - 127): 64
0    |  MIDI Event: Chan 10 Note OFF: B1, Velocity (0 - 127): 64
30   |  MIDI Event: Chan 12 Note OFF: F#5, Velocity (0 - 127): 64
0    |  MIDI Event: Chan 6 Note OFF: F#4, Velocity (0 - 127): 64
0    |  MIDI Event: Chan 1 Note OFF: C#4, Velocity (0 - 127): 64
0    |  MIDI Event: Chan 5 Note OFF: A2, Velocity (0 - 127): 64
0    |  MIDI Event: Chan 1 Note OFF: E3, Velocity (0 - 127): 64
0    |  MIDI Event: Chan 5 Note OFF: E3, Velocity (0 - 127): 64
0    |  MIDI Event: Chan 6 Note OFF: F#5, Velocity (0 - 127): 64
0    |  MIDI Event: Chan 7 Note OFF: F#5, Velocity (0 - 127): 64
0    |  MIDI Event: Chan 1 Note OFF: A3, Velocity (0 - 127): 64
1    |  MIDI Event: Chan 1 Note ON: A3, Velocity (0 - 127): 51
0    |  MIDI Event: Chan 1 Note ON: C#4, Velocity (0 - 127): 52
0    |  MIDI Event: Chan 1 Note ON: E4, Velocity (0 - 127): 78
0    |  MIDI Event: Chan 2 Control/Mode Change: Expression Control (0-127): 127
0    |  MIDI Event: Chan 3 Control/Mode Change: Expression Control (0-127): 127
0    |  MIDI Event: Chan 5 Note ON: C#3, Velocity (0 - 127): 89
0    |  MIDI Event: Chan 5 Note ON: E3, Velocity (0 - 127): 101
0    |  MIDI Event: Chan 5 Note ON: A3, Velocity (0 - 127): 89
0    |  MIDI Event: Chan 6 Note ON: D4, Velocity (0 - 127): 98
0    |  MIDI Event: Chan 6 Note ON: D5, Velocity (0 - 127): 98
0    |  MIDI Event: Chan 7 Note ON: D5, Velocity (0 - 127): 120
0    |  MIDI Event: Chan 10 Note ON: A#2, Velocity (0 - 127): 120
0    |  MIDI Event: Chan 10 Note ON: C#5, Velocity (0 - 127): 111
0    |  MIDI Event: Chan 12 Note ON: D5, Velocity (0 - 127): 120
29   |  MIDI Event: Chan 10 Note OFF: C#5, Velocity (0 - 127): 64
0    |  MIDI Event: Chan 5 Note OFF: E3, Velocity (0 - 127): 64
0    |  MIDI Event: Chan 1 Note OFF: C#4, Velocity (0 - 127): 64
0    |  MIDI Event: Chan 1 Note OFF: A3, Velocity (0 - 127): 64
0    |  MIDI Event: Chan 1 Note OFF: E4, Velocity (0 - 127): 64
0    |  MIDI Event: Chan 5 Note OFF: C#3, Velocity (0 - 127): 64
0    |  MIDI Event: Chan 10 Note OFF: A#2, Velocity (0 - 127): 64
0    |  MIDI Event: Chan 5 Note OFF: A3, Velocity (0 - 127): 64
1    |  MIDI Event: Chan 1 Note ON: A3, Velocity (0 - 127): 73
0    |  MIDI Event: Chan 1 Note ON: C#4, Velocity (0 - 127): 52
0    |  MIDI Event: Chan 1 Note ON: E4, Velocity (0 - 127): 83
0    |  MIDI Event: Chan 5 Note ON: C#3, Velocity (0 - 127): 119
0    |  MIDI Event: Chan 5 Note ON: E3, Velocity (0 - 127): 118
0    |  MIDI Event: Chan 5 Note ON: A3, Velocity (0 - 127): 105
29   |  MIDI Event: Chan 5 Note OFF: A3, Velocity (0 - 127): 64
0    |  MIDI Event: Chan 6 Note OFF: D4, Velocity (0 - 127): 64
0    |  MIDI Event: Chan 2 Note OFF: A1, Velocity (0 - 127): 64
0    |  MIDI Event: Chan 7 Note OFF: D5, Velocity (0 - 127): 64
0    |  MIDI Event: Chan 3 Note OFF: A3, Velocity (0 - 127): 64
0    |  MIDI Event: Chan 6 Note OFF: D5, Velocity (0 - 127): 64
0    |  MIDI Event: Chan 3 Note OFF: C#4, Velocity (0 - 127): 64
0    |  MIDI Event: Chan 12 Note OFF: D5, Velocity (0 - 127): 64
0    |  MIDI Event: Chan 5 Note OFF: C#3, Velocity (0 - 127): 64
0    |  MIDI Event: Chan 1 Note OFF: E4, Velocity (0 - 127): 64
0    |  MIDI Event: Chan 1 Note OFF: A3, Velocity (0 - 127): 64
0    |  MIDI Event: Chan 3 Note OFF: E4, Velocity (0 - 127): 64
0    |  MIDI Event: Chan 5 Note OFF: E3, Velocity (0 - 127): 64
0    |  MIDI Event: Chan 1 Note OFF: C#4, Velocity (0 - 127): 64
1    |  MIDI Event: Chan 1 Note ON: B3, Velocity (0 - 127): 58
0    |  MIDI Event: Chan 1 Note ON: D4, Velocity (0 - 127): 91
0    |  MIDI Event: Chan 2 Control/Mode Change: Expression Control (0-127): 64
0    |  MIDI Event: Chan 2 Note ON: B1, Velocity (0 - 127): 120
0    |  MIDI Event: Chan 3 Control/Mode Change: Expression Control (0-127): 64
0    |  MIDI Event: Chan 3 Note ON: B3, Velocity (0 - 127): 120
0    |  MIDI Event: Chan 3 Note ON: D4, Velocity (0 - 127): 120
0    |  MIDI Event: Chan 3 Note ON: F#4, Velocity (0 - 127): 120
0    |  MIDI Event: Chan 5 Note ON: B2, Velocity (0 - 127): 85
0    |  MIDI Event: Chan 5 Note ON: F#3, Velocity (0 - 127): 120
0    |  MIDI Event: Chan 6 Note ON: B3, Velocity (0 - 127): 105
0    |  MIDI Event: Chan 6 Note ON: B4, Velocity (0 - 127): 105
0    |  MIDI Event: Chan 7 Note ON: B4, Velocity (0 - 127): 120
0    |  MIDI Event: Chan 10 Note ON: B1, Velocity (0 - 127): 120
0    |  MIDI Event: Chan 10 Note ON: F#2, Velocity (0 - 127): 120
0    |  MIDI Event: Chan 10 Note ON: B3, Velocity (0 - 127): 119
0    |  MIDI Event: Chan 12 Note ON: B4, Velocity (0 - 127): 120
29   |  MIDI Event: Chan 10 Note OFF: B3, Velocity (0 - 127): 64
0    |  MIDI Event: Chan 10 Note OFF: F#2, Velocity (0 - 127): 64
0    |  MIDI Event: Chan 10 Note OFF: B1, Velocity (0 - 127): 64
30   |  MIDI Event: Chan 6 Note OFF: B4, Velocity (0 - 127): 64
0    |  MIDI Event: Chan 5 Note OFF: B2, Velocity (0 - 127): 64
0    |  MIDI Event: Chan 5 Note OFF: F#3, Velocity (0 - 127): 64
0    |  MIDI Event: Chan 1 Note OFF: B3, Velocity (0 - 127): 64
0    |  MIDI Event: Chan 6 Note OFF: B3, Velocity (0 - 127): 64
0    |  MIDI Event: Chan 7 Note OFF: B4, Velocity (0 - 127): 64
0    |  MIDI Event: Chan 12 Note OFF: B4, Velocity (0 - 127): 64
0    |  MIDI Event: Chan 1 Note OFF: D4, Velocity (0 - 127): 64
1    |  MIDI Event: Chan 1 Note ON: B3, Velocity (0 - 127): 79
0    |  MIDI Event: Chan 1 Note ON: D4, Velocity (0 - 127): 95
0    |  MIDI Event: Chan 1 Note ON: F#4, Velocity (0 - 127): 74
0    |  MIDI Event: Chan 2 Control/Mode Change: Expression Control (0-127): 127
0    |  MIDI Event: Chan 3 Control/Mode Change: Expression Control (0-127): 127
0    |  MIDI Event: Chan 5 Note ON: D3, Velocity (0 - 127): 92
0    |  MIDI Event: Chan 5 Note ON: F#3, Velocity (0 - 127): 87
0    |  MIDI Event: Chan 5 Note ON: D4, Velocity (0 - 127): 95
0    |  MIDI Event: Chan 10 Note ON: A#2, Velocity (0 - 127): 120
0    |  MIDI Event: Chan 10 Note ON: C#5, Velocity (0 - 127): 109
29   |  MIDI Event: Chan 10 Note OFF: C#5, Velocity (0 - 127): 64
0    |  MIDI Event: Chan 10 Note OFF: A#2, Velocity (0 - 127): 64
30   |  MIDI Event: Chan 2 Note OFF: B1, Velocity (0 - 127): 64
1    |  MIDI Event: Chan 2 Control/Mode Change: Expression Control (0-127): 64
0    |  MIDI Event: Chan 2 Note ON: B1, Velocity (0 - 127): 120
0    |  MIDI Event: Chan 3 Control/Mode Change: Expression Control (0-127): 73
0    |  MIDI Event: Chan 6 Note ON: B3, Velocity (0 - 127): 119
0    |  MIDI Event: Chan 6 Note ON: B4, Velocity (0 - 127): 119
0    |  MIDI Event: Chan 7 Note ON: B4, Velocity (0 - 127): 120
0    |  MIDI Event: Chan 10 Note ON: B1, Velocity (0 - 127): 120
0    |  MIDI Event: Chan 10 Note ON: F#2, Velocity (0 - 127): 120
0    |  MIDI Event: Chan 10 Note ON: B3, Velocity (0 - 127): 118
0    |  MIDI Event: Chan 12 Note ON: B4, Velocity (0 - 127): 120
29   |  MIDI Event: Chan 10 Note OFF: B3, Velocity (0 - 127): 64
0    |  MIDI Event: Chan 10 Note OFF: F#2, Velocity (0 - 127): 64
0    |  MIDI Event: Chan 5 Note OFF: D3, Velocity (0 - 127): 64
0    |  MIDI Event: Chan 1 Note OFF: F#4, Velocity (0 - 127): 64
0    |  MIDI Event: Chan 1 Note OFF: D4, Velocity (0 - 127): 64
0    |  MIDI Event: Chan 1 Note OFF: B3, Velocity (0 - 127): 64
0    |  MIDI Event: Chan 5 Note OFF: D4, Velocity (0 - 127): 64
0    |  MIDI Event: Chan 10 Note OFF: B1, Velocity (0 - 127): 64
0    |  MIDI Event: Chan 5 Note OFF: F#3, Velocity (0 - 127): 64
1    |  MIDI Event: Chan 1 Note ON: B3, Velocity (0 - 127): 71
0    |  MIDI Event: Chan 1 Note ON: D4, Velocity (0 - 127): 91
0    |  MIDI Event: Chan 1 Note ON: F#4, Velocity (0 - 127): 60
0    |  MIDI Event: Chan 5 Note ON: F#3, Velocity (0 - 127): 109
0    |  MIDI Event: Chan 5 Note ON: B3, Velocity (0 - 127): 95
29   |  MIDI Event: Chan 5 Note OFF: B3, Velocity (0 - 127): 64
0    |  MIDI Event: Chan 7 Note OFF: B4, Velocity (0 - 127): 64
0    |  MIDI Event: Chan 1 Note OFF: D4, Velocity (0 - 127): 64
0    |  MIDI Event: Chan 12 Note OFF: B4, Velocity (0 - 127): 64
0    |  MIDI Event: Chan 6 Note OFF: B4, Velocity (0 - 127): 64
0    |  MIDI Event: Chan 1 Note OFF: B3, Velocity (0 - 127): 64
0    |  MIDI Event: Chan 5 Note OFF: F#3, Velocity (0 - 127): 64
0    |  MIDI Event: Chan 6 Note OFF: B3, Velocity (0 - 127): 64
0    |  MIDI Event: Chan 1 Note OFF: F#4, Velocity (0 - 127): 64
1    |  MIDI Event: Chan 1 Note ON: D4, Velocity (0 - 127): 80
0    |  MIDI Event: Chan 1 Note ON: F#4, Velocity (0 - 127): 62
0    |  MIDI Event: Chan 1 Note ON: B4, Velocity (0 - 127): 91
0    |  MIDI Event: Chan 2 Control/Mode Change: Expression Control (0-127): 127
0    |  MIDI Event: Chan 3 Control/Mode Change: Expression Control (0-127): 127
0    |  MIDI Event: Chan 5 Note ON: D3, Velocity (0 - 127): 103
0    |  MIDI Event: Chan 5 Note ON: F#3, Velocity (0 - 127): 115
0    |  MIDI Event: Chan 10 Note ON: A#2, Velocity (0 - 127): 120
0    |  MIDI Event: Chan 10 Note ON: C#5, Velocity (0 - 127): 119
29   |  MIDI Event: Chan 10 Note OFF: C#5, Velocity (0 - 127): 64
0    |  MIDI Event: Chan 5 Note OFF: D3, Velocity (0 - 127): 64
0    |  MIDI Event: Chan 10 Note OFF: A#2, Velocity (0 - 127): 64
0    |  MIDI Event: Chan 1 Note OFF: B4, Velocity (0 - 127): 64
0    |  MIDI Event: Chan 5 Note OFF: F#3, Velocity (0 - 127): 64
0    |  MIDI Event: Chan 1 Note OFF: D4, Velocity (0 - 127): 64
0    |  MIDI Event: Chan 1 Note OFF: F#4, Velocity (0 - 127): 64
1    |  MIDI Event: Chan 1 Note ON: B3, Velocity (0 - 127): 51
0    |  MIDI Event: Chan 1 Note ON: D4, Velocity (0 - 127): 85
0    |  MIDI Event: Chan 1 Note ON: F#4, Velocity (0 - 127): 59
0    |  MIDI Event: Chan 5 Note ON: B2, Velocity (0 - 127): 92
0    |  MIDI Event: Chan 5 Note ON: E3, Velocity (0 - 127): 98
0    |  MIDI Event: Chan 6 Note ON: A3, Velocity (0 - 127): 91
0    |  MIDI Event: Chan 6 Note ON: A4, Velocity (0 - 127): 91
0    |  MIDI Event: Chan 7 Note ON: A4, Velocity (0 - 127): 120
0    |  MIDI Event: Chan 12 Note ON: A4, Velocity (0 - 127): 120
29   |  MIDI Event: Chan 12 Note OFF: A4, Velocity (0 - 127): 64
0    |  MIDI Event: Chan 1 Note OFF: D4, Velocity (0 - 127): 64
0    |  MIDI Event: Chan 3 Note OFF: F#4, Velocity (0 - 127): 64
0    |  MIDI Event: Chan 5 Note OFF: B2, Velocity (0 - 127): 64
0    |  MIDI Event: Chan 2 Note OFF: B1, Velocity (0 - 127): 64
0    |  MIDI Event: Chan 3 Note OFF: D4, Velocity (0 - 127): 64
0    |  MIDI Event: Chan 3 Note OFF: B3, Velocity (0 - 127): 64
0    |  MIDI Event: Chan 1 Note OFF: B3, Velocity (0 - 127): 64
0    |  MIDI Event: Chan 6 Note OFF: A4, Velocity (0 - 127): 64
0    |  MIDI Event: Chan 5 Note OFF: E3, Velocity (0 - 127): 64
0    |  MIDI Event: Chan 1 Note OFF: F#4, Velocity (0 - 127): 64
0    |  MIDI Event: Chan 7 Note OFF: A4, Velocity (0 - 127): 64
0    |  MIDI Event: Chan 6 Note OFF: A3, Velocity (0 - 127): 64
1    |  MIDI Event: Chan 1 Note ON: G3, Velocity (0 - 127): 74
0    |  MIDI Event: Chan 1 Note ON: B3, Velocity (0 - 127): 94
0    |  MIDI Event: Chan 1 Note ON: D4, Velocity (0 - 127): 91
0    |  MIDI Event: Chan 2 Control/Mode Change: Expression Control (0-127): 64
0    |  MIDI Event: Chan 2 Note ON: G1, Velocity (0 - 127): 120
0    |  MIDI Event: Chan 3 Control/Mode Change: Expression Control (0-127): 71
0    |  MIDI Event: Chan 3 Note ON: B3, Velocity (0 - 127): 120
0    |  MIDI Event: Chan 3 Note ON: D4, Velocity (0 - 127): 120
0    |  MIDI Event: Chan 3 Note ON: G4, Velocity (0 - 127): 120
0    |  MIDI Event: Chan 5 Note ON: G2, Velocity (0 - 127): 98
0    |  MIDI Event: Chan 5 Note ON: D3, Velocity (0 - 127): 116
0    |  MIDI Event: Chan 6 Note ON: B3, Velocity (0 - 127): 97
0    |  MIDI Event: Chan 6 Note ON: B4, Velocity (0 - 127): 97
0    |  MIDI Event: Chan 7 Note ON: B4, Velocity (0 - 127): 120
0    |  MIDI Event: Chan 10 Note ON: B1, Velocity (0 - 127): 120
0    |  MIDI Event: Chan 10 Note ON: F#2, Velocity (0 - 127): 120
0    |  MIDI Event: Chan 10 Note ON: B3, Velocity (0 - 127): 116
0    |  MIDI Event: Chan 12 Note ON: B4, Velocity (0 - 127): 120
29   |  MIDI Event: Chan 12 Note OFF: B4, Velocity (0 - 127): 64
0    |  MIDI Event: Chan 10 Note OFF: B3, Velocity (0 - 127): 64
0    |  MIDI Event: Chan 7 Note OFF: B4, Velocity (0 - 127): 64
0    |  MIDI Event: Chan 6 Note OFF: B3, Velocity (0 - 127): 64
0    |  MIDI Event: Chan 10 Note OFF: F#2, Velocity (0 - 127): 64
0    |  MIDI Event: Chan 6 Note OFF: B4, Velocity (0 - 127): 64
0    |  MIDI Event: Chan 10 Note OFF: B1, Velocity (0 - 127): 64
1    |  MIDI Event: Chan 6 Note ON: D4, Velocity (0 - 127): 80
0    |  MIDI Event: Chan 6 Note ON: D5, Velocity (0 - 127): 80
0    |  MIDI Event: Chan 7 Note ON: D5, Velocity (0 - 127): 120
0    |  MIDI Event: Chan 12 Note ON: D5, Velocity (0 - 127): 120
29   |  MIDI Event: Chan 12 Note OFF: D5, Velocity (0 - 127): 64
0    |  MIDI Event: Chan 5 Note OFF: G2, Velocity (0 - 127): 64
0    |  MIDI Event: Chan 1 Note OFF: B3, Velocity (0 - 127): 64
0    |  MIDI Event: Chan 1 Note OFF: G3, Velocity (0 - 127): 64
0    |  MIDI Event: Chan 5 Note OFF: D3, Velocity (0 - 127): 64
0    |  MIDI Event: Chan 6 Note OFF: D4, Velocity (0 - 127): 64
0    |  MIDI Event: Chan 1 Note OFF: D4, Velocity (0 - 127): 64
0    |  MIDI Event: Chan 7 Note OFF: D5, Velocity (0 - 127): 64
0    |  MIDI Event: Chan 6 Note OFF: D5, Velocity (0 - 127): 64
1    |  MIDI Event: Chan 1 Note ON: B3, Velocity (0 - 127): 70
0    |  MIDI Event: Chan 1 Note ON: D4, Velocity (0 - 127): 94
0    |  MIDI Event: Chan 1 Note ON: G4, Velocity (0 - 127): 101
0    |  MIDI Event: Chan 2 Control/Mode Change: Expression Control (0-127): 127
0    |  MIDI Event: Chan 3 Control/Mode Change: Expression Control (0-127): 127
0    |  MIDI Event: Chan 5 Note ON: D3, Velocity (0 - 127): 79
0    |  MIDI Event: Chan 5 Note ON: G3, Velocity (0 - 127): 111
0    |  MIDI Event: Chan 5 Note ON: B3, Velocity (0 - 127): 100
0    |  MIDI Event: Chan 6 Note ON: B3, Velocity (0 - 127): 113
0    |  MIDI Event: Chan 6 Note ON: B4, Velocity (0 - 127): 113
0    |  MIDI Event: Chan 7 Note ON: B4, Velocity (0 - 127): 120
0    |  MIDI Event: Chan 10 Note ON: A#2, Velocity (0 - 127): 120
0    |  MIDI Event: Chan 10 Note ON: C#5, Velocity (0 - 127): 119
0    |  MIDI Event: Chan 12 Note ON: B4, Velocity (0 - 127): 120
29   |  MIDI Event: Chan 10 Note OFF: C#5, Velocity (0 - 127): 64
0    |  MIDI Event: Chan 10 Note OFF: A#2, Velocity (0 - 127): 64
30   |  MIDI Event: Chan 6 Note OFF: B4, Velocity (0 - 127): 64
0    |  MIDI Event: Chan 12 Note OFF: B4, Velocity (0 - 127): 64
0    |  MIDI Event: Chan 2 Note OFF: G1, Velocity (0 - 127): 64
0    |  MIDI Event: Chan 6 Note OFF: B3, Velocity (0 - 127): 64
0    |  MIDI Event: Chan 7 Note OFF: B4, Velocity (0 - 127): 64
1    |  MIDI Event: Chan 2 Control/Mode Change: Expression Control (0-127): 64
0    |  MIDI Event: Chan 2 Note ON: G1, Velocity (0 - 127): 120
0    |  MIDI Event: Chan 3 Control/Mode Change: Expression Control (0-127): 80
0    |  MIDI Event: Chan 10 Note ON: B1, Velocity (0 - 127): 120
0    |  MIDI Event: Chan 10 Note ON: F#2, Velocity (0 - 127): 120
0    |  MIDI Event: Chan 10 Note ON: B3, Velocity (0 - 127): 120
29   |  MIDI Event: Chan 10 Note OFF: B3, Velocity (0 - 127): 64
0    |  MIDI Event: Chan 5 Note OFF: G3, Velocity (0 - 127): 64
0    |  MIDI Event: Chan 1 Note OFF: G4, Velocity (0 - 127): 64
0    |  MIDI Event: Chan 5 Note OFF: B3, Velocity (0 - 127): 64
0    |  MIDI Event: Chan 1 Note OFF: D4, Velocity (0 - 127): 64
0    |  MIDI Event: Chan 1 Note OFF: B3, Velocity (0 - 127): 64
0    |  MIDI Event: Chan 5 Note OFF: D3, Velocity (0 - 127): 64
0    |  MIDI Event: Chan 10 Note OFF: F#2, Velocity (0 - 127): 64
0    |  MIDI Event: Chan 10 Note OFF: B1, Velocity (0 - 127): 64
1    |  MIDI Event: Chan 1 Note ON: B3, Velocity (0 - 127): 52
0    |  MIDI Event: Chan 1 Note ON: D4, Velocity (0 - 127): 85
0    |  MIDI Event: Chan 1 Note ON: G4, Velocity (0 - 127): 94
0    |  MIDI Event: Chan 5 Note ON: D3, Velocity (0 - 127): 82
0    |  MIDI Event: Chan 5 Note ON: G3, Velocity (0 - 127): 98
0    |  MIDI Event: Chan 5 Note ON: B3, Velocity (0 - 127): 85
0    |  MIDI Event: Chan 6 Note ON: A3, Velocity (0 - 127): 98
0    |  MIDI Event: Chan 6 Note ON: A4, Velocity (0 - 127): 98
0    |  MIDI Event: Chan 7 Note ON: A4, Velocity (0 - 127): 120
0    |  MIDI Event: Chan 12 Note ON: A4, Velocity (0 - 127): 120
29   |  MIDI Event: Chan 12 Note OFF: A4, Velocity (0 - 127): 64
0    |  MIDI Event: Chan 1 Note OFF: B3, Velocity (0 - 127): 64
0    |  MIDI Event: Chan 1 Note OFF: D4, Velocity (0 - 127): 64
0    |  MIDI Event: Chan 5 Note OFF: B3, Velocity (0 - 127): 64
0    |  MIDI Event: Chan 5 Note OFF: D3, Velocity (0 - 127): 64
0    |  MIDI Event: Chan 1 Note OFF: G4, Velocity (0 - 127): 64
0    |  MIDI Event: Chan 5 Note OFF: G3, Velocity (0 - 127): 64
0    |  MIDI Event: Chan 7 Note OFF: A4, Velocity (0 - 127): 64
0    |  MIDI Event: Chan 6 Note OFF: A4, Velocity (0 - 127): 64
0    |  MIDI Event: Chan 6 Note OFF: A3, Velocity (0 - 127): 64
1    |  MIDI Event: Chan 1 Note ON: D4, Velocity (0 - 127): 78
0    |  MIDI Event: Chan 1 Note ON: G4, Velocity (0 - 127): 100
0    |  MIDI Event: Chan 1 Note ON: B4, Velocity (0 - 127): 46
0    |  MIDI Event: Chan 2 Control/Mode Change: Expression Control (0-127): 127
0    |  MIDI Event: Chan 3 Control/Mode Change: Expression Control (0-127): 127
0    |  MIDI Event: Chan 5 Note ON: G2, Velocity (0 - 127): 109
0    |  MIDI Event: Chan 5 Note ON: D3, Velocity (0 - 127): 109
0    |  MIDI Event: Chan 6 Note ON: B3, Velocity (0 - 127): 101
0    |  MIDI Event: Chan 6 Note ON: B4, Velocity (0 - 127): 101
0    |  MIDI Event: Chan 7 Note ON: B4, Velocity (0 - 127): 120
0    |  MIDI Event: Chan 10 Note ON: A#2, Velocity (0 - 127): 120
0    |  MIDI Event: Chan 10 Note ON: C#5, Velocity (0 - 127): 115
0    |  MIDI Event: Chan 12 Note ON: B4, Velocity (0 - 127): 120
29   |  MIDI Event: Chan 12 Note OFF: B4, Velocity (0 - 127): 64
0    |  MIDI Event: Chan 7 Note OFF: B4, Velocity (0 - 127): 64
0    |  MIDI Event: Chan 1 Note OFF: D4, Velocity (0 - 127): 64
0    |  MIDI Event: Chan 1 Note OFF: G4, Velocity (0 - 127): 64
0    |  MIDI Event: Chan 6 Note OFF: B3, Velocity (0 - 127): 64
0    |  MIDI Event: Chan 5 Note OFF: G2, Velocity (0 - 127): 64
0    |  MIDI Event: Chan 1 Note OFF: B4, Velocity (0 - 127): 64
0    |  MIDI Event: Chan 5 Note OFF: D3, Velocity (0 - 127): 64
0    |  MIDI Event: Chan 10 Note OFF: C#5, Velocity (0 - 127): 64
0    |  MIDI Event: Chan 10 Note OFF: A#2, Velocity (0 - 127): 64
0    |  MIDI Event: Chan 6 Note OFF: B4, Velocity (0 - 127): 64
1    |  MIDI Event: Chan 1 Note ON: B3, Velocity (0 - 127): 45
0    |  MIDI Event: Chan 1 Note ON: D4, Velocity (0 - 127): 73
0    |  MIDI Event: Chan 1 Note ON: G4, Velocity (0 - 127): 86
0    |  MIDI Event: Chan 5 Note ON: G2, Velocity (0 - 127): 101
0    |  MIDI Event: Chan 5 Note ON: E3, Velocity (0 - 127): 116
0    |  MIDI Event: Chan 6 Note ON: A3, Velocity (0 - 127): 91
0    |  MIDI Event: Chan 6 Note ON: A4, Velocity (0 - 127): 91
0    |  MIDI Event: Chan 7 Note ON: A4, Velocity (0 - 127): 120
0    |  MIDI Event: Chan 12 Note ON: A4, Velocity (0 - 127): 120
29   |  MIDI Event: Chan 12 Note OFF: A4, Velocity (0 - 127): 64
0    |  MIDI Event: Chan 1 Note OFF: D4, Velocity (0 - 127): 64
0    |  MIDI Event: Chan 3 Note OFF: D4, Velocity (0 - 127): 64
0    |  MIDI Event: Chan 5 Note OFF: G2, Velocity (0 - 127): 64
0    |  MIDI Event: Chan 3 Note OFF: B3, Velocity (0 - 127): 64
0    |  MIDI Event: Chan 3 Note OFF: G4, Velocity (0 - 127): 64
0    |  MIDI Event: Chan 2 Note OFF: G1, Velocity (0 - 127): 64
0    |  MIDI Event: Chan 1 Note OFF: B3, Velocity (0 - 127): 64
0    |  MIDI Event: Chan 6 Note OFF: A4, Velocity (0 - 127): 64
0    |  MIDI Event: Chan 5 Note OFF: E3, Velocity (0 - 127): 64
0    |  MIDI Event: Chan 1 Note OFF: G4, Velocity (0 - 127): 64
0    |  MIDI Event: Chan 7 Note OFF: A4, Velocity (0 - 127): 64
0    |  MIDI Event: Chan 6 Note OFF: A3, Velocity (0 - 127): 64
1    |  MIDI Event: Chan 1 Note ON: F#3, Velocity (0 - 127): 35
0    |  MIDI Event: Chan 1 Note ON: A3, Velocity (0 - 127): 85
0    |  MIDI Event: Chan 1 Note ON: D4, Velocity (0 - 127): 79
0    |  MIDI Event: Chan 2 Control/Mode Change: Expression Control (0-127): 64
0    |  MIDI Event: Chan 3 Control/Mode Change: Expression Control (0-127): 64
0    |  MIDI Event: Chan 3 Note ON: A3, Velocity (0 - 127): 120
0    |  MIDI Event: Chan 3 Note ON: D4, Velocity (0 - 127): 120
0    |  MIDI Event: Chan 3 Note ON: F#4, Velocity (0 - 127): 120
0    |  MIDI Event: Chan 5 Note ON: A2, Velocity (0 - 127): 90
0    |  MIDI Event: Chan 5 Note ON: D3, Velocity (0 - 127): 105
0    |  MIDI Event: Chan 6 Note ON: D4, Velocity (0 - 127): 105
0    |  MIDI Event: Chan 6 Note ON: D5, Velocity (0 - 127): 105
0    |  MIDI Event: Chan 7 Note ON: D5, Velocity (0 - 127): 120
0    |  MIDI Event: Chan 9 Note ON: D3, Velocity (0 - 127): 120
0    |  MIDI Event: Chan 9 Note ON: D4, Velocity (0 - 127): 120
0    |  MIDI Event: Chan 10 Note ON: F#2, Velocity (0 - 127): 120
0    |  MIDI Event: Chan 10 Note ON: B3, Velocity (0 - 127): 111
0    |  MIDI Event: Chan 12 Note ON: D5, Velocity (0 - 127): 120
29   |  MIDI Event: Chan 10 Note OFF: B3, Velocity (0 - 127): 64
0    |  MIDI Event: Chan 10 Note OFF: F#2, Velocity (0 - 127): 64
30   |  MIDI Event: Chan 1 Note OFF: D4, Velocity (0 - 127): 64
0    |  MIDI Event: Chan 12 Note OFF: D5, Velocity (0 - 127): 64
0    |  MIDI Event: Chan 6 Note OFF: D5, Velocity (0 - 127): 64
0    |  MIDI Event: Chan 5 Note OFF: A2, Velocity (0 - 127): 64
0    |  MIDI Event: Chan 5 Note OFF: D3, Velocity (0 - 127): 64
0    |  MIDI Event: Chan 1 Note OFF: F#3, Velocity (0 - 127): 64
0    |  MIDI Event: Chan 6 Note OFF: D4, Velocity (0 - 127): 64
0    |  MIDI Event: Chan 7 Note OFF: D5, Velocity (0 - 127): 64
0    |  MIDI Event: Chan 1 Note OFF: A3, Velocity (0 - 127): 64
1    |  MIDI Event: Chan 1 Note ON: A3, Velocity (0 - 127): 69
0    |  MIDI Event: Chan 1 Note ON: D4, Velocity (0 - 127): 98
0    |  MIDI Event: Chan 1 Note ON: F#4, Velocity (0 - 127): 74
0    |  MIDI Event: Chan 2 Control/Mode Change: Expression Control (0-127): 127
0    |  MIDI Event: Chan 3 Control/Mode Change: Expression Control (0-127): 127
0    |  MIDI Event: Chan 5 Note ON: A2, Velocity (0 - 127): 100
0    |  MIDI Event: Chan 5 Note ON: D3, Velocity (0 - 127): 111
0    |  MIDI Event: Chan 5 Note ON: F#3, Velocity (0 - 127): 89
0    |  MIDI Event: Chan 10 Note ON: A#2, Velocity (0 - 127): 120
0    |  MIDI Event: Chan 10 Note ON: C#5, Velocity (0 - 127): 119
0    |  MIDI Event: Chan 13 Control/Mode Change: Expression Control (0-127): 95
29   |  MIDI Event: Chan 10 Note OFF: C#5, Velocity (0 - 127): 64
0    |  MIDI Event: Chan 10 Note OFF: A#2, Velocity (0 - 127): 64
31   |  MIDI Event: Chan 2 Control/Mode Change: Expression Control (0-127): 64
0    |  MIDI Event: Chan 3 Control/Mode Change: Expression Control (0-127): 73
0    |  MIDI Event: Chan 6 Note ON: D4, Velocity (0 - 127): 119
0    |  MIDI Event: Chan 6 Note ON: D5, Velocity (0 - 127): 119
0    |  MIDI Event: Chan 7 Note ON: D5, Velocity (0 - 127): 120
0    |  MIDI Event: Chan 10 Note ON: F#2, Velocity (0 - 127): 120
0    |  MIDI Event: Chan 10 Note ON: B3, Velocity (0 - 127): 119
0    |  MIDI Event: Chan 12 Note ON: D5, Velocity (0 - 127): 120
0    |  MIDI Event: Chan 13 Note ON: C5, Velocity (0 - 127): 120
15   |  MIDI Event: Chan 13 Control/Mode Change: Sound Controller 5 (default: Brightness) (0-127): 123
14   |  MIDI Event: Chan 10 Note OFF: B3, Velocity (0 - 127): 64
0    |  MIDI Event: Chan 10 Note OFF: F#2, Velocity (0 - 127): 64
0    |  MIDI Event: Chan 1 Note OFF: D4, Velocity (0 - 127): 64
0    |  MIDI Event: Chan 5 Note OFF: A2, Velocity (0 - 127): 64
0    |  MIDI Event: Chan 1 Note OFF: F#4, Velocity (0 - 127): 64
0    |  MIDI Event: Chan 5 Note OFF: D3, Velocity (0 - 127): 64
0    |  MIDI Event: Chan 5 Note OFF: F#3, Velocity (0 - 127): 64
0    |  MIDI Event: Chan 1 Note OFF: A3, Velocity (0 - 127): 64
1    |  MIDI Event: Chan 1 Note ON: F#3, Velocity (0 - 127): 44
0    |  MIDI Event: Chan 1 Note ON: A3, Velocity (0 - 127): 78
0    |  MIDI Event: Chan 1 Note ON: D4, Velocity (0 - 127): 58
0    |  MIDI Event: Chan 5 Note ON: A2, Velocity (0 - 127): 85
0    |  MIDI Event: Chan 5 Note ON: D3, Velocity (0 - 127): 105
0    |  MIDI Event: Chan 5 Note ON: F#3, Velocity (0 - 127): 81
0    |  MIDI Event: Chan 13 Control/Mode Change: Sound Controller 5 (default: Brightness) (0-127): 120
15   |  MIDI Event: Chan 13 Control/Mode Change: Sound Controller 5 (default: Brightness) (0-127): 117
14   |  MIDI Event: Chan 5 Note OFF: F#3, Velocity (0 - 127): 64
0    |  MIDI Event: Chan 5 Note OFF: D3, Velocity (0 - 127): 64
0    |  MIDI Event: Chan 1 Note OFF: A3, Velocity (0 - 127): 64
0    |  MIDI Event: Chan 6 Note OFF: D5, Velocity (0 - 127): 64
0    |  MIDI Event: Chan 6 Note OFF: D4, Velocity (0 - 127): 64
0    |  MIDI Event: Chan 7 Note OFF: D5, Velocity (0 - 127): 64
0    |  MIDI Event: Chan 12 Note OFF: D5, Velocity (0 - 127): 64
0    |  MIDI Event: Chan 5 Note OFF: A2, Velocity (0 - 127): 64
0    |  MIDI Event: Chan 1 Note OFF: F#3, Velocity (0 - 127): 64
0    |  MIDI Event: Chan 1 Note OFF: D4, Velocity (0 - 127): 64
1    |  MIDI Event: Chan 1 Note ON: A3, Velocity (0 - 127): 57
0    |  MIDI Event: Chan 1 Note ON: D4, Velocity (0 - 127): 91
0    |  MIDI Event: Chan 1 Note ON: F#4, Velocity (0 - 127): 77
0    |  MIDI Event: Chan 2 Control/Mode Change: Expression Control (0-127): 127
0    |  MIDI Event: Chan 3 Control/Mode Change: Expression Control (0-127): 127
0    |  MIDI Event: Chan 5 Note ON: D3, Velocity (0 - 127): 109
0    |  MIDI Event: Chan 5 Note ON: F#3, Velocity (0 - 127): 89
0    |  MIDI Event: Chan 5 Note ON: A3, Velocity (0 - 127): 109
0    |  MIDI Event: Chan 10 Note ON: A#2, Velocity (0 - 127): 120
0    |  MIDI Event: Chan 10 Note ON: C#5, Velocity (0 - 127): 119
0    |  MIDI Event: Chan 13 Control/Mode Change: Sound Controller 5 (default: Brightness) (0-127): 114
15   |  MIDI Event: Chan 13 Control/Mode Change: Sound Controller 5 (default: Brightness) (0-127): 111
14   |  MIDI Event: Chan 10 Note OFF: C#5, Velocity (0 - 127): 64
0    |  MIDI Event: Chan 5 Note OFF: D3, Velocity (0 - 127): 64
0    |  MIDI Event: Chan 1 Note OFF: A3, Velocity (0 - 127): 64
0    |  MIDI Event: Chan 1 Note OFF: F#4, Velocity (0 - 127): 64
0    |  MIDI Event: Chan 1 Note OFF: D4, Velocity (0 - 127): 64
0    |  MIDI Event: Chan 10 Note OFF: A#2, Velocity (0 - 127): 64
0    |  MIDI Event: Chan 5 Note OFF: F#3, Velocity (0 - 127): 64
0    |  MIDI Event: Chan 5 Note OFF: A3, Velocity (0 - 127): 64
1    |  MIDI Event: Chan 1 Note ON: F#3, Velocity (0 - 127): 35
0    |  MIDI Event: Chan 1 Note ON: A3, Velocity (0 - 127): 79
0    |  MIDI Event: Chan 1 Note ON: D4, Velocity (0 - 127): 56
0    |  MIDI Event: Chan 5 Note ON: D3, Velocity (0 - 127): 111
0    |  MIDI Event: Chan 5 Note ON: F#3, Velocity (0 - 127): 100
0    |  MIDI Event: Chan 5 Note ON: A3, Velocity (0 - 127): 100
0    |  MIDI Event: Chan 6 Note ON: D4, Velocity (0 - 127): 103
0    |  MIDI Event: Chan 6 Note ON: D5, Velocity (0 - 127): 103
0    |  MIDI Event: Chan 7 Note ON: D5, Velocity (0 - 127): 120
0    |  MIDI Event: Chan 12 Note ON: D5, Velocity (0 - 127): 120
0    |  MIDI Event: Chan 13 Control/Mode Change: Sound Controller 5 (default: Brightness) (0-127): 107
15   |  MIDI Event: Chan 13 Control/Mode Change: Sound Controller 5 (default: Brightness) (0-127): 104
14   |  MIDI Event: Chan 12 Note OFF: D5, Velocity (0 - 127): 64
0    |  MIDI Event: Chan 7 Note OFF: D5, Velocity (0 - 127): 64
0    |  MIDI Event: Chan 5 Note OFF: A3, Velocity (0 - 127): 64
0    |  MIDI Event: Chan 5 Note OFF: D3, Velocity (0 - 127): 64
0    |  MIDI Event: Chan 1 Note OFF: F#3, Velocity (0 - 127): 64
0    |  MIDI Event: Chan 1 Note OFF: D4, Velocity (0 - 127): 64
0    |  MIDI Event: Chan 1 Note OFF: A3, Velocity (0 - 127): 64
0    |  MIDI Event: Chan 6 Note OFF: D5, Velocity (0 - 127): 64
0    |  MIDI Event: Chan 5 Note OFF: F#3, Velocity (0 - 127): 64
0    |  MIDI Event: Chan 6 Note OFF: D4, Velocity (0 - 127): 64
1    |  MIDI Event: Chan 1 Note ON: F#3, Velocity (0 - 127): 49
0    |  MIDI Event: Chan 1 Note ON: A3, Velocity (0 - 127): 85
0    |  MIDI Event: Chan 1 Note ON: D4, Velocity (0 - 127): 75
0    |  MIDI Event: Chan 2 Control/Mode Change: Expression Control (0-127): 64
0    |  MIDI Event: Chan 3 Control/Mode Change: Expression Control (0-127): 71
0    |  MIDI Event: Chan 5 Note ON: A2, Velocity (0 - 127): 105
0    |  MIDI Event: Chan 5 Note ON: D3, Velocity (0 - 127): 116
0    |  MIDI Event: Chan 6 Note ON: E4, Velocity (0 - 127): 95
0    |  MIDI Event: Chan 6 Note ON: E5, Velocity (0 - 127): 95
0    |  MIDI Event: Chan 7 Note ON: E5, Velocity (0 - 127): 120
0    |  MIDI Event: Chan 10 Note ON: F#2, Velocity (0 - 127): 120
0    |  MIDI Event: Chan 10 Note ON: B3, Velocity (0 - 127): 116
0    |  MIDI Event: Chan 12 Note ON: E5, Velocity (0 - 127): 120
0    |  MIDI Event: Chan 13 Control/Mode Change: Sound Controller 5 (default: Brightness) (0-127): 101
15   |  MIDI Event: Chan 13 Control/Mode Change: Sound Controller 5 (default: Brightness) (0-127): 98
14   |  MIDI Event: Chan 12 Note OFF: E5, Velocity (0 - 127): 64
0    |  MIDI Event: Chan 10 Note OFF: B3, Velocity (0 - 127): 64
0    |  MIDI Event: Chan 10 Note OFF: F#2, Velocity (0 - 127): 64
0    |  MIDI Event: Chan 6 Note OFF: E4, Velocity (0 - 127): 64
0    |  MIDI Event: Chan 7 Note OFF: E5, Velocity (0 - 127): 64
0    |  MIDI Event: Chan 6 Note OFF: E5, Velocity (0 - 127): 64
1    |  MIDI Event: Chan 6 Note ON: D4, Velocity (0 - 127): 86
0    |  MIDI Event: Chan 6 Note ON: D5, Velocity (0 - 127): 86
0    |  MIDI Event: Chan 7 Note ON: D5, Velocity (0 - 127): 120
0    |  MIDI Event: Chan 12 Note ON: D5, Velocity (0 - 127): 120
0    |  MIDI Event: Chan 13 Control/Mode Change: Sound Controller 5 (default: Brightness) (0-127): 95
15   |  MIDI Event: Chan 13 Control/Mode Change: Sound Controller 5 (default: Brightness) (0-127): 92
14   |  MIDI Event: Chan 12 Note OFF: D5, Velocity (0 - 127): 64
0    |  MIDI Event: Chan 6 Note OFF: D4, Velocity (0 - 127): 64
0    |  MIDI Event: Chan 5 Note OFF: A2, Velocity (0 - 127): 64
0    |  MIDI Event: Chan 5 Note OFF: D3, Velocity (0 - 127): 64
0    |  MIDI Event: Chan 1 Note OFF: D4, Velocity (0 - 127): 64
0    |  MIDI Event: Chan 1 Note OFF: A3, Velocity (0 - 127): 64
0    |  MIDI Event: Chan 7 Note OFF: D5, Velocity (0 - 127): 64
0    |  MIDI Event: Chan 1 Note OFF: F#3, Velocity (0 - 127): 64
0    |  MIDI Event: Chan 6 Note OFF: D5, Velocity (0 - 127): 64
1    |  MIDI Event: Chan 1 Note ON: A3, Velocity (0 - 127): 56
0    |  MIDI Event: Chan 1 Note ON: D4, Velocity (0 - 127): 84
0    |  MIDI Event: Chan 1 Note ON: F#4, Velocity (0 - 127): 49
0    |  MIDI Event: Chan 2 Control/Mode Change: Expression Control (0-127): 127
0    |  MIDI Event: Chan 3 Control/Mode Change: Expression Control (0-127): 127
0    |  MIDI Event: Chan 5 Note ON: D3, Velocity (0 - 127): 105
0    |  MIDI Event: Chan 5 Note ON: F#3, Velocity (0 - 127): 115
0    |  MIDI Event: Chan 6 Note ON: E4, Velocity (0 - 127): 98
0    |  MIDI Event: Chan 6 Note ON: E5, Velocity (0 - 127): 98
0    |  MIDI Event: Chan 7 Note ON: E5, Velocity (0 - 127): 120
0    |  MIDI Event: Chan 10 Note ON: A#2, Velocity (0 - 127): 120
0    |  MIDI Event: Chan 10 Note ON: C#5, Velocity (0 - 127): 119
0    |  MIDI Event: Chan 12 Note ON: E5, Velocity (0 - 127): 120
0    |  MIDI Event: Chan 13 Control/Mode Change: Sound Controller 5 (default: Brightness) (0-127): 88
15   |  MIDI Event: Chan 13 Control/Mode Change: Sound Controller 5 (default: Brightness) (0-127): 85
14   |  MIDI Event: Chan 10 Note OFF: C#5, Velocity (0 - 127): 64
0    |  MIDI Event: Chan 10 Note OFF: A#2, Velocity (0 - 127): 64
0    |  MIDI Event: Chan 5 Note OFF: D3, Velocity (0 - 127): 64
0    |  MIDI Event: Chan 1 Note OFF: A3, Velocity (0 - 127): 64
0    |  MIDI Event: Chan 1 Note OFF: F#4, Velocity (0 - 127): 64
0    |  MIDI Event: Chan 1 Note OFF: D4, Velocity (0 - 127): 64
0    |  MIDI Event: Chan 5 Note OFF: F#3, Velocity (0 - 127): 64
1    |  MIDI Event: Chan 1 Note ON: A3, Velocity (0 - 127): 84
0    |  MIDI Event: Chan 1 Note ON: D4, Velocity (0 - 127): 94
0    |  MIDI Event: Chan 1 Note ON: F#4, Velocity (0 - 127): 76
0    |  MIDI Event: Chan 5 Note ON: D3, Velocity (0 - 127): 100
0    |  MIDI Event: Chan 5 Note ON: F#3, Velocity (0 - 127): 92
0    |  MIDI Event: Chan 13 Control/Mode Change: Sound Controller 5 (default: Brightness) (0-127): 82
15   |  MIDI Event: Chan 13 Control/Mode Change: Sound Controller 5 (default: Brightness) (0-127): 79
5    |  MIDI Event: Chan 6 Pitch Bend Change (0-16383): 8071 (factor==0.99804)
5    |  MIDI Event: Chan 6 Pitch Bend Change (0-16383): 6296 (factor==0.96972)
3    |  MIDI Event: Chan 6 Pitch Bend Change (0-16383): 4197 (factor==0.937266)
1    |  MIDI Event: Chan 5 Note OFF: F#3, Velocity (0 - 127): 64
0    |  MIDI Event: Chan 1 Note OFF: D4, Velocity (0 - 127): 64
0    |  MIDI Event: Chan 7 Note OFF: E5, Velocity (0 - 127): 64
0    |  MIDI Event: Chan 6 Note OFF: E4, Velocity (0 - 127): 64
0    |  MIDI Event: Chan 6 Note OFF: E5, Velocity (0 - 127): 64
0    |  MIDI Event: Chan 3 Note OFF: A3, Velocity (0 - 127): 64
0    |  MIDI Event: Chan 12 Note OFF: E5, Velocity (0 - 127): 64
0    |  MIDI Event: Chan 3 Note OFF: F#4, Velocity (0 - 127): 64
0    |  MIDI Event: Chan 3 Note OFF: D4, Velocity (0 - 127): 64
0    |  MIDI Event: Chan 1 Note OFF: F#4, Velocity (0 - 127): 64
0    |  MIDI Event: Chan 1 Note OFF: A3, Velocity (0 - 127): 64
0    |  MIDI Event: Chan 5 Note OFF: D3, Velocity (0 - 127): 64
1    |  MIDI Event: Chan 1 Note ON: E3, Velocity (0 - 127): 47
0    |  MIDI Event: Chan 1 Note ON: A3, Velocity (0 - 127): 89
0    |  MIDI Event: Chan 1 Note ON: C#4, Velocity (0 - 127): 52
0    |  MIDI Event: Chan 2 Control/Mode Change: Expression Control (0-127): 64
0    |  MIDI Event: Chan 3 Control/Mode Change: Expression Control (0-127): 80
0    |  MIDI Event: Chan 3 Note ON: A3, Velocity (0 - 127): 120
0    |  MIDI Event: Chan 3 Note ON: D4, Velocity (0 - 127): 120
0    |  MIDI Event: Chan 3 Note ON: F#4, Velocity (0 - 127): 120
0    |  MIDI Event: Chan 5 Note ON: A2, Velocity (0 - 127): 101
0    |  MIDI Event: Chan 5 Note ON: E3, Velocity (0 - 127): 101
0    |  MIDI Event: Chan 6 Note ON: F#4, Velocity (0 - 127): 119
0    |  MIDI Event: Chan 6 Note ON: F#5, Velocity (0 - 127): 119
0    |  MIDI Event: Chan 6 Pitch Bend Change (0-16383): 1776 (factor==0.901179)
0    |  MIDI Event: Chan 7 Note ON: F#5, Velocity (0 - 127): 120
0    |  MIDI Event: Chan 10 Note ON: F#2, Velocity (0 - 127): 120
0    |  MIDI Event: Chan 10 Note ON: B3, Velocity (0 - 127): 120
0    |  MIDI Event: Chan 12 Note ON: F#5, Velocity (0 - 127): 120
0    |  MIDI Event: Chan 13 Control/Mode Change: Sound Controller 5 (default: Brightness) (0-127): 76
3    |  MIDI Event: Chan 6 Pitch Bend Change (0-16383): 0 (factor==0.875594)
12   |  MIDI Event: Chan 13 Control/Mode Change: Sound Controller 5 (default: Brightness) (0-127): 73
5    |  MIDI Event: Chan 6 Pitch Bend Change (0-16383): 646 (factor==0.884815)
3    |  MIDI Event: Chan 6 Pitch Bend Change (0-16383): 2422 (factor==0.91067)
2    |  MIDI Event: Chan 6 Pitch Bend Change (0-16383): 4520 (factor==0.942188)
3    |  MIDI Event: Chan 6 Pitch Bend Change (0-16383): 6942 (factor==0.979932)
1    |  MIDI Event: Chan 10 Note OFF: B3, Velocity (0 - 127): 64
0    |  MIDI Event: Chan 10 Note OFF: F#2, Velocity (0 - 127): 64
1    |  MIDI Event: Chan 6 Pitch Bend Change (0-16383): 8192 (factor==1)
0    |  MIDI Event: Chan 13 Control/Mode Change: Sound Controller 5 (default: Brightness) (0-127): 69
15   |  MIDI Event: Chan 13 Control/Mode Change: Sound Controller 5 (default: Brightness) (0-127): 66
14   |  MIDI Event: Chan 12 Note OFF: F#5, Velocity (0 - 127): 64
0    |  MIDI Event: Chan 6 Note OFF: F#4, Velocity (0 - 127): 64
0    |  MIDI Event: Chan 5 Note OFF: A2, Velocity (0 - 127): 64
0    |  MIDI Event: Chan 1 Note OFF: A3, Velocity (0 - 127): 64
0    |  MIDI Event: Chan 1 Note OFF: C#4, Velocity (0 - 127): 64
0    |  MIDI Event: Chan 1 Note OFF: E3, Velocity (0 - 127): 64
0    |  MIDI Event: Chan 7 Note OFF: F#5, Velocity (0 - 127): 64
0    |  MIDI Event: Chan 5 Note OFF: E3, Velocity (0 - 127): 64
0    |  MIDI Event: Chan 6 Note OFF: F#5, Velocity (0 - 127): 64
1    |  MIDI Event: Chan 1 Note ON: A3, Velocity (0 - 127): 51
0    |  MIDI Event: Chan 1 Note ON: C#4, Velocity (0 - 127): 52
0    |  MIDI Event: Chan 1 Note ON: E4, Velocity (0 - 127): 78
0    |  MIDI Event: Chan 2 Control/Mode Change: Expression Control (0-127): 127
0    |  MIDI Event: Chan 3 Control/Mode Change: Expression Control (0-127): 127
0    |  MIDI Event: Chan 5 Note ON: C#3, Velocity (0 - 127): 89
0    |  MIDI Event: Chan 5 Note ON: E3, Velocity (0 - 127): 101
0    |  MIDI Event: Chan 5 Note ON: A3, Velocity (0 - 127): 89
0    |  MIDI Event: Chan 6 Note ON: D4, Velocity (0 - 127): 111
0    |  MIDI Event: Chan 6 Note ON: D5, Velocity (0 - 127): 111
0    |  MIDI Event: Chan 7 Note ON: D5, Velocity (0 - 127): 120
0    |  MIDI Event: Chan 10 Note ON: A#2, Velocity (0 - 127): 120
0    |  MIDI Event: Chan 10 Note ON: C#5, Velocity (0 - 127): 115
0    |  MIDI Event: Chan 12 Note ON: D5, Velocity (0 - 127): 120
0    |  MIDI Event: Chan 13 Control/Mode Change: Sound Controller 5 (default: Brightness) (0-127): 63
15   |  MIDI Event: Chan 13 Control/Mode Change: Sound Controller 5 (default: Brightness) (0-127): 60
14   |  MIDI Event: Chan 10 Note OFF: C#5, Velocity (0 - 127): 64
0    |  MIDI Event: Chan 10 Note OFF: A#2, Velocity (0 - 127): 64
0    |  MIDI Event: Chan 5 Note OFF: A3, Velocity (0 - 127): 64
0    |  MIDI Event: Chan 5 Note OFF: C#3, Velocity (0 - 127): 64
0    |  MIDI Event: Chan 1 Note OFF: A3, Velocity (0 - 127): 64
0    |  MIDI Event: Chan 1 Note OFF: E4, Velocity (0 - 127): 64
0    |  MIDI Event: Chan 1 Note OFF: C#4, Velocity (0 - 127): 64
0    |  MIDI Event: Chan 5 Note OFF: E3, Velocity (0 - 127): 64
1    |  MIDI Event: Chan 1 Note ON: A3, Velocity (0 - 127): 73
0    |  MIDI Event: Chan 1 Note ON: C#4, Velocity (0 - 127): 52
0    |  MIDI Event: Chan 1 Note ON: E4, Velocity (0 - 127): 83
0    |  MIDI Event: Chan 5 Note ON: C#3, Velocity (0 - 127): 119
0    |  MIDI Event: Chan 5 Note ON: E3, Velocity (0 - 127): 118
0    |  MIDI Event: Chan 5 Note ON: A3, Velocity (0 - 127): 105
0    |  MIDI Event: Chan 13 Control/Mode Change: Sound Controller 5 (default: Brightness) (0-127): 57
29   |  MIDI Event: Chan 5 Note OFF: A3, Velocity (0 - 127): 64
0    |  MIDI Event: Chan 3 Note OFF: A3, Velocity (0 - 127): 64
0    |  MIDI Event: Chan 1 Note OFF: C#4, Velocity (0 - 127): 64
0    |  MIDI Event: Chan 7 Note OFF: D5, Velocity (0 - 127): 64
0    |  MIDI Event: Chan 6 Note OFF: D4, Velocity (0 - 127): 64
0    |  MIDI Event: Chan 5 Note OFF: E3, Velocity (0 - 127): 64
0    |  MIDI Event: Chan 9 Note OFF: D3, Velocity (0 - 127): 64
0    |  MIDI Event: Chan 9 Note OFF: D4, Velocity (0 - 127): 64
0    |  MIDI Event: Chan 12 Note OFF: D5, Velocity (0 - 127): 64
0    |  MIDI Event: Chan 6 Note OFF: D5, Velocity (0 - 127): 64
0    |  MIDI Event: Chan 1 Note OFF: E4, Velocity (0 - 127): 64
0    |  MIDI Event: Chan 1 Note OFF: A3, Velocity (0 - 127): 64
0    |  MIDI Event: Chan 3 Note OFF: D4, Velocity (0 - 127): 64
0    |  MIDI Event: Chan 3 Note OFF: F#4, Velocity (0 - 127): 64
0    |  MIDI Event: Chan 5 Note OFF: C#3, Velocity (0 - 127): 64
1    |  MIDI Event: Chan 13 Note OFF: C5, Velocity (0 - 127): 64
0    |  MIDI Event: Chan 1 Note ON: B3, Velocity (0 - 127): 58
0    |  MIDI Event: Chan 1 Note ON: D4, Velocity (0 - 127): 91
0    |  MIDI Event: Chan 2 Control/Mode Change: Expression Control (0-127): 64
0    |  MIDI Event: Chan 2 Note ON: B1, Velocity (0 - 127): 120
0    |  MIDI Event: Chan 3 Control/Mode Change: Expression Control (0-127): 64
0    |  MIDI Event: Chan 3 Note ON: B3, Velocity (0 - 127): 120
0    |  MIDI Event: Chan 3 Note ON: D4, Velocity (0 - 127): 120
0    |  MIDI Event: Chan 3 Note ON: F#4, Velocity (0 - 127): 120
0    |  MIDI Event: Chan 5 Note ON: B2, Velocity (0 - 127): 85
0    |  MIDI Event: Chan 5 Note ON: F#3, Velocity (0 - 127): 120
0    |  MIDI Event: Chan 6 Note ON: B3, Velocity (0 - 127): 120
0    |  MIDI Event: Chan 6 Note ON: B4, Velocity (0 - 127): 120
0    |  MIDI Event: Chan 7 Note ON: B4, Velocity (0 - 127): 120
0    |  MIDI Event: Chan 10 Note ON: B1, Velocity (0 - 127): 120
0    |  MIDI Event: Chan 10 Note ON: F#2, Velocity (0 - 127): 120
0    |  MIDI Event: Chan 10 Note ON: C#3, Velocity (0 - 127): 111
0    |  MIDI Event: Chan 10 Note ON: B3, Velocity (0 - 127): 120
0    |  MIDI Event: Chan 12 Note ON: B4, Velocity (0 - 127): 120
29   |  MIDI Event: Chan 10 Note OFF: B3, Velocity (0 - 127): 64
0    |  MIDI Event: Chan 10 Note OFF: F#2, Velocity (0 - 127): 64
0    |  MIDI Event: Chan 10 Note OFF: B1, Velocity (0 - 127): 64
30   |  MIDI Event: Chan 12 Note OFF: B4, Velocity (0 - 127): 64
0    |  MIDI Event: Chan 6 Note OFF: B4, Velocity (0 - 127): 64
0    |  MIDI Event: Chan 5 Note OFF: B2, Velocity (0 - 127): 64
0    |  MIDI Event: Chan 5 Note OFF: F#3, Velocity (0 - 127): 64
0    |  MIDI Event: Chan 1 Note OFF: B3, Velocity (0 - 127): 64
0    |  MIDI Event: Chan 6 Note OFF: B3, Velocity (0 - 127): 64
0    |  MIDI Event: Chan 7 Note OFF: B4, Velocity (0 - 127): 64
0    |  MIDI Event: Chan 1 Note OFF: D4, Velocity (0 - 127): 64
1    |  MIDI Event: Chan 1 Note ON: B3, Velocity (0 - 127): 79
0    |  MIDI Event: Chan 1 Note ON: D4, Velocity (0 - 127): 95
0    |  MIDI Event: Chan 1 Note ON: F#4, Velocity (0 - 127): 74
0    |  MIDI Event: Chan 2 Control/Mode Change: Expression Control (0-127): 127
0    |  MIDI Event: Chan 3 Control/Mode Change: Expression Control (0-127): 127
0    |  MIDI Event: Chan 5 Note ON: D3, Velocity (0 - 127): 92
0    |  MIDI Event: Chan 5 Note ON: F#3, Velocity (0 - 127): 87
0    |  MIDI Event: Chan 5 Note ON: D4, Velocity (0 - 127): 95
0    |  MIDI Event: Chan 10 Note ON: A#2, Velocity (0 - 127): 120
0    |  MIDI Event: Chan 10 Note ON: C#5, Velocity (0 - 127): 119
29   |  MIDI Event: Chan 10 Note OFF: C#5, Velocity (0 - 127): 64
0    |  MIDI Event: Chan 10 Note OFF: A#2, Velocity (0 - 127): 64
30   |  MIDI Event: Chan 2 Note OFF: B1, Velocity (0 - 127): 64
1    |  MIDI Event: Chan 2 Control/Mode Change: Expression Control (0-127): 64
0    |  MIDI Event: Chan 2 Note ON: B1, Velocity (0 - 127): 120
0    |  MIDI Event: Chan 3 Control/Mode Change: Expression Control (0-127): 73
0    |  MIDI Event: Chan 6 Note ON: B3, Velocity (0 - 127): 120
0    |  MIDI Event: Chan 6 Note ON: B4, Velocity (0 - 127): 120
0    |  MIDI Event: Chan 7 Note ON: B4, Velocity (0 - 127): 120
0    |  MIDI Event: Chan 10 Note ON: B1, Velocity (0 - 127): 120
0    |  MIDI Event: Chan 10 Note ON: F#2, Velocity (0 - 127): 120
0    |  MIDI Event: Chan 10 Note ON: B3, Velocity (0 - 127): 116
0    |  MIDI Event: Chan 12 Note ON: B4, Velocity (0 - 127): 120
29   |  MIDI Event: Chan 10 Note OFF: B3, Velocity (0 - 127): 64
0    |  MIDI Event: Chan 10 Note OFF: F#2, Velocity (0 - 127): 64
0    |  MIDI Event: Chan 10 Note OFF: B1, Velocity (0 - 127): 64
0    |  MIDI Event: Chan 5 Note OFF: D4, Velocity (0 - 127): 64
0    |  MIDI Event: Chan 1 Note OFF: B3, Velocity (0 - 127): 64
0    |  MIDI Event: Chan 1 Note OFF: F#4, Velocity (0 - 127): 64
0    |  MIDI Event: Chan 5 Note OFF: F#3, Velocity (0 - 127): 64
0    |  MIDI Event: Chan 5 Note OFF: D3, Velocity (0 - 127): 64
0    |  MIDI Event: Chan 1 Note OFF: D4, Velocity (0 - 127): 64
1    |  MIDI Event: Chan 1 Note ON: B3, Velocity (0 - 127): 71
0    |  MIDI Event: Chan 1 Note ON: D4, Velocity (0 - 127): 91
0    |  MIDI Event: Chan 1 Note ON: F#4, Velocity (0 - 127): 60
0    |  MIDI Event: Chan 5 Note ON: F#3, Velocity (0 - 127): 109
0    |  MIDI Event: Chan 5 Note ON: B3, Velocity (0 - 127): 95
29   |  MIDI Event: Chan 5 Note OFF: B3, Velocity (0 - 127): 64
0    |  MIDI Event: Chan 1 Note OFF: B3, Velocity (0 - 127): 64
0    |  MIDI Event: Chan 6 Note OFF: B4, Velocity (0 - 127): 64
0    |  MIDI Event: Chan 6 Note OFF: B3, Velocity (0 - 127): 64
0    |  MIDI Event: Chan 7 Note OFF: B4, Velocity (0 - 127): 64
0    |  MIDI Event: Chan 12 Note OFF: B4, Velocity (0 - 127): 64
0    |  MIDI Event: Chan 5 Note OFF: F#3, Velocity (0 - 127): 64
0    |  MIDI Event: Chan 1 Note OFF: D4, Velocity (0 - 127): 64
0    |  MIDI Event: Chan 1 Note OFF: F#4, Velocity (0 - 127): 64
1    |  MIDI Event: Chan 1 Note ON: D4, Velocity (0 - 127): 80
0    |  MIDI Event: Chan 1 Note ON: F#4, Velocity (0 - 127): 62
0    |  MIDI Event: Chan 1 Note ON: B4, Velocity (0 - 127): 91
0    |  MIDI Event: Chan 2 Control/Mode Change: Expression Control (0-127): 127
0    |  MIDI Event: Chan 3 Control/Mode Change: Expression Control (0-127): 127
0    |  MIDI Event: Chan 5 Note ON: D3, Velocity (0 - 127): 103
0    |  MIDI Event: Chan 5 Note ON: F#3, Velocity (0 - 127): 115
0    |  MIDI Event: Chan 10 Note ON: A#2, Velocity (0 - 127): 119
0    |  MIDI Event: Chan 10 Note ON: C#5, Velocity (0 - 127): 119
29   |  MIDI Event: Chan 10 Note OFF: C#5, Velocity (0 - 127): 64
0    |  MIDI Event: Chan 5 Note OFF: F#3, Velocity (0 - 127): 64
0    |  MIDI Event: Chan 1 Note OFF: B4, Velocity (0 - 127): 64
0    |  MIDI Event: Chan 1 Note OFF: F#4, Velocity (0 - 127): 64
0    |  MIDI Event: Chan 5 Note OFF: D3, Velocity (0 - 127): 64
0    |  MIDI Event: Chan 10 Note OFF: A#2, Velocity (0 - 127): 64
0    |  MIDI Event: Chan 1 Note OFF: D4, Velocity (0 - 127): 64
1    |  MIDI Event: Chan 1 Note ON: B3, Velocity (0 - 127): 51
0    |  MIDI Event: Chan 1 Note ON: D4, Velocity (0 - 127): 85
0    |  MIDI Event: Chan 1 Note ON: F#4, Velocity (0 - 127): 59
0    |  MIDI Event: Chan 5 Note ON: B2, Velocity (0 - 127): 92
0    |  MIDI Event: Chan 5 Note ON: E3, Velocity (0 - 127): 98
0    |  MIDI Event: Chan 6 Note ON: A3, Velocity (0 - 127): 98
0    |  MIDI Event: Chan 6 Note ON: A4, Velocity (0 - 127): 98
0    |  MIDI Event: Chan 7 Note ON: A4, Velocity (0 - 127): 120
0    |  MIDI Event: Chan 12 Note ON: A4, Velocity (0 - 127): 120
29   |  MIDI Event: Chan 12 Note OFF: A4, Velocity (0 - 127): 64
0    |  MIDI Event: Chan 3 Note OFF: D4, Velocity (0 - 127): 64
0    |  MIDI Event: Chan 1 Note OFF: B3, Velocity (0 - 127): 64
0    |  MIDI Event: Chan 3 Note OFF: F#4, Velocity (0 - 127): 64
0    |  MIDI Event: Chan 1 Note OFF: F#4, Velocity (0 - 127): 64
0    |  MIDI Event: Chan 2 Note OFF: B1, Velocity (0 - 127): 64
0    |  MIDI Event: Chan 10 Note OFF: C#3, Velocity (0 - 127): 64
0    |  MIDI Event: Chan 3 Note OFF: B3, Velocity (0 - 127): 64
0    |  MIDI Event: Chan 6 Note OFF: A4, Velocity (0 - 127): 64
0    |  MIDI Event: Chan 6 Note OFF: A3, Velocity (0 - 127): 64
0    |  MIDI Event: Chan 5 Note OFF: B2, Velocity (0 - 127): 64
0    |  MIDI Event: Chan 1 Note OFF: D4, Velocity (0 - 127): 64
0    |  MIDI Event: Chan 7 Note OFF: A4, Velocity (0 - 127): 64
0    |  MIDI Event: Chan 5 Note OFF: E3, Velocity (0 - 127): 64
1    |  MIDI Event: Chan 1 Note ON: G3, Velocity (0 - 127): 74
0    |  MIDI Event: Chan 1 Note ON: B3, Velocity (0 - 127): 94
0    |  MIDI Event: Chan 1 Note ON: D4, Velocity (0 - 127): 91
0    |  MIDI Event: Chan 2 Control/Mode Change: Expression Control (0-127): 64
0    |  MIDI Event: Chan 2 Note ON: G1, Velocity (0 - 127): 120
0    |  MIDI Event: Chan 3 Control/Mode Change: Expression Control (0-127): 71
0    |  MIDI Event: Chan 3 Note ON: B3, Velocity (0 - 127): 120
0    |  MIDI Event: Chan 3 Note ON: D4, Velocity (0 - 127): 120
0    |  MIDI Event: Chan 3 Note ON: G4, Velocity (0 - 127): 120
0    |  MIDI Event: Chan 5 Note ON: G2, Velocity (0 - 127): 98
0    |  MIDI Event: Chan 5 Note ON: D3, Velocity (0 - 127): 116
0    |  MIDI Event: Chan 6 Note ON: B3, Velocity (0 - 127): 98
0    |  MIDI Event: Chan 6 Note ON: B4, Velocity (0 - 127): 98
0    |  MIDI Event: Chan 7 Note ON: B4, Velocity (0 - 127): 120
0    |  MIDI Event: Chan 10 Note ON: B1, Velocity (0 - 127): 120
0    |  MIDI Event: Chan 10 Note ON: F#2, Velocity (0 - 127): 120
0    |  MIDI Event: Chan 10 Note ON: B3, Velocity (0 - 127): 118
0    |  MIDI Event: Chan 12 Note ON: B4, Velocity (0 - 127): 120
29   |  MIDI Event: Chan 12 Note OFF: B4, Velocity (0 - 127): 64
0    |  MIDI Event: Chan 10 Note OFF: B3, Velocity (0 - 127): 64
0    |  MIDI Event: Chan 7 Note OFF: B4, Velocity (0 - 127): 64
0    |  MIDI Event: Chan 6 Note OFF: B3, Velocity (0 - 127): 64
0    |  MIDI Event: Chan 10 Note OFF: F#2, Velocity (0 - 127): 64
0    |  MIDI Event: Chan 6 Note OFF: B4, Velocity (0 - 127): 64
0    |  MIDI Event: Chan 10 Note OFF: B1, Velocity (0 - 127): 64
1    |  MIDI Event: Chan 6 Note ON: D4, Velocity (0 - 127): 54
0    |  MIDI Event: Chan 6 Note ON: D5, Velocity (0 - 127): 54
0    |  MIDI Event: Chan 7 Note ON: D5, Velocity (0 - 127): 120
0    |  MIDI Event: Chan 12 Note ON: D5, Velocity (0 - 127): 120
29   |  MIDI Event: Chan 12 Note OFF: D5, Velocity (0 - 127): 64
0    |  MIDI Event: Chan 5 Note OFF: G2, Velocity (0 - 127): 64
0    |  MIDI Event: Chan 1 Note OFF: B3, Velocity (0 - 127): 64
0    |  MIDI Event: Chan 1 Note OFF: G3, Velocity (0 - 127): 64
0    |  MIDI Event: Chan 5 Note OFF: D3, Velocity (0 - 127): 64
0    |  MIDI Event: Chan 6 Note OFF: D4, Velocity (0 - 127): 64
0    |  MIDI Event: Chan 1 Note OFF: D4, Velocity (0 - 127): 64
0    |  MIDI Event: Chan 7 Note OFF: D5, Velocity (0 - 127): 64
0    |  MIDI Event: Chan 6 Note OFF: D5, Velocity (0 - 127): 64
1    |  MIDI Event: Chan 1 Note ON: B3, Velocity (0 - 127): 70
0    |  MIDI Event: Chan 1 Note ON: D4, Velocity (0 - 127): 94
0    |  MIDI Event: Chan 1 Note ON: G4, Velocity (0 - 127): 101
0    |  MIDI Event: Chan 2 Control/Mode Change: Expression Control (0-127): 127
0    |  MIDI Event: Chan 3 Control/Mode Change: Expression Control (0-127): 127
0    |  MIDI Event: Chan 5 Note ON: D3, Velocity (0 - 127): 79
0    |  MIDI Event: Chan 5 Note ON: G3, Velocity (0 - 127): 111
0    |  MIDI Event: Chan 5 Note ON: B3, Velocity (0 - 127): 100
0    |  MIDI Event: Chan 6 Note ON: B3, Velocity (0 - 127): 116
0    |  MIDI Event: Chan 6 Note ON: B4, Velocity (0 - 127): 116
0    |  MIDI Event: Chan 7 Note ON: B4, Velocity (0 - 127): 120
0    |  MIDI Event: Chan 10 Note ON: A#2, Velocity (0 - 127): 120
0    |  MIDI Event: Chan 10 Note ON: C#5, Velocity (0 - 127): 109
0    |  MIDI Event: Chan 12 Note ON: B4, Velocity (0 - 127): 120
29   |  MIDI Event: Chan 10 Note OFF: C#5, Velocity (0 - 127): 64
0    |  MIDI Event: Chan 10 Note OFF: A#2, Velocity (0 - 127): 64
30   |  MIDI Event: Chan 6 Note OFF: B4, Velocity (0 - 127): 64
0    |  MIDI Event: Chan 12 Note OFF: B4, Velocity (0 - 127): 64
0    |  MIDI Event: Chan 2 Note OFF: G1, Velocity (0 - 127): 64
0    |  MIDI Event: Chan 6 Note OFF: B3, Velocity (0 - 127): 64
0    |  MIDI Event: Chan 7 Note OFF: B4, Velocity (0 - 127): 64
1    |  MIDI Event: Chan 2 Control/Mode Change: Expression Control (0-127): 64
0    |  MIDI Event: Chan 2 Note ON: G1, Velocity (0 - 127): 120
0    |  MIDI Event: Chan 3 Control/Mode Change: Expression Control (0-127): 80
0    |  MIDI Event: Chan 10 Note ON: B1, Velocity (0 - 127): 120
0    |  MIDI Event: Chan 10 Note ON: F#2, Velocity (0 - 127): 120
0    |  MIDI Event: Chan 10 Note ON: B3, Velocity (0 - 127): 116
29   |  MIDI Event: Chan 10 Note OFF: B3, Velocity (0 - 127): 64
0    |  MIDI Event: Chan 5 Note OFF: G3, Velocity (0 - 127): 64
0    |  MIDI Event: Chan 1 Note OFF: G4, Velocity (0 - 127): 64
0    |  MIDI Event: Chan 5 Note OFF: B3, Velocity (0 - 127): 64
0    |  MIDI Event: Chan 1 Note OFF: D4, Velocity (0 - 127): 64
0    |  MIDI Event: Chan 1 Note OFF: B3, Velocity (0 - 127): 64
0    |  MIDI Event: Chan 5 Note OFF: D3, Velocity (0 - 127): 64
0    |  MIDI Event: Chan 10 Note OFF: F#2, Velocity (0 - 127): 64
0    |  MIDI Event: Chan 10 Note OFF: B1, Velocity (0 - 127): 64
1    |  MIDI Event: Chan 1 Note ON: B3, Velocity (0 - 127): 52
0    |  MIDI Event: Chan 1 Note ON: D4, Velocity (0 - 127): 85
0    |  MIDI Event: Chan 1 Note ON: G4, Velocity (0 - 127): 94
0    |  MIDI Event: Chan 5 Note ON: D3, Velocity (0 - 127): 82
0    |  MIDI Event: Chan 5 Note ON: G3, Velocity (0 - 127): 98
0    |  MIDI Event: Chan 5 Note ON: B3, Velocity (0 - 127): 85
0    |  MIDI Event: Chan 6 Note ON: A3, Velocity (0 - 127): 83
0    |  MIDI Event: Chan 6 Note ON: A4, Velocity (0 - 127): 83
0    |  MIDI Event: Chan 7 Note ON: A4, Velocity (0 - 127): 120
0    |  MIDI Event: Chan 12 Note ON: A4, Velocity (0 - 127): 120
29   |  MIDI Event: Chan 12 Note OFF: A4, Velocity (0 - 127): 64
0    |  MIDI Event: Chan 1 Note OFF: B3, Velocity (0 - 127): 64
0    |  MIDI Event: Chan 1 Note OFF: D4, Velocity (0 - 127): 64
0    |  MIDI Event: Chan 5 Note OFF: B3, Velocity (0 - 127): 64
0    |  MIDI Event: Chan 5 Note OFF: D3, Velocity (0 - 127): 64
0    |  MIDI Event: Chan 1 Note OFF: G4, Velocity (0 - 127): 64
0    |  MIDI Event: Chan 5 Note OFF: G3, Velocity (0 - 127): 64
0    |  MIDI Event: Chan 7 Note OFF: A4, Velocity (0 - 127): 64
0    |  MIDI Event: Chan 6 Note OFF: A4, Velocity (0 - 127): 64
0    |  MIDI Event: Chan 6 Note OFF: A3, Velocity (0 - 127): 64
1    |  MIDI Event: Chan 1 Note ON: D4, Velocity (0 - 127): 78
0    |  MIDI Event: Chan 1 Note ON: G4, Velocity (0 - 127): 100
0    |  MIDI Event: Chan 1 Note ON: B4, Velocity (0 - 127): 46
0    |  MIDI Event: Chan 2 Control/Mode Change: Expression Control (0-127): 127
0    |  MIDI Event: Chan 3 Control/Mode Change: Expression Control (0-127): 127
0    |  MIDI Event: Chan 5 Note ON: G2, Velocity (0 - 127): 109
0    |  MIDI Event: Chan 5 Note ON: D3, Velocity (0 - 127): 109
0    |  MIDI Event: Chan 6 Note ON: B3, Velocity (0 - 127): 98
0    |  MIDI Event: Chan 6 Note ON: B4, Velocity (0 - 127): 98
0    |  MIDI Event: Chan 7 Note ON: B4, Velocity (0 - 127): 120
0    |  MIDI Event: Chan 10 Note ON: A#2, Velocity (0 - 127): 120
0    |  MIDI Event: Chan 10 Note ON: C#5, Velocity (0 - 127): 115
0    |  MIDI Event: Chan 12 Note ON: B4, Velocity (0 - 127): 120
29   |  MIDI Event: Chan 12 Note OFF: B4, Velocity (0 - 127): 64
0    |  MIDI Event: Chan 7 Note OFF: B4, Velocity (0 - 127): 64
0    |  MIDI Event: Chan 1 Note OFF: D4, Velocity (0 - 127): 64
0    |  MIDI Event: Chan 1 Note OFF: G4, Velocity (0 - 127): 64
0    |  MIDI Event: Chan 6 Note OFF: B3, Velocity (0 - 127): 64
0    |  MIDI Event: Chan 5 Note OFF: G2, Velocity (0 - 127): 64
0    |  MIDI Event: Chan 1 Note OFF: B4, Velocity (0 - 127): 64
0    |  MIDI Event: Chan 5 Note OFF: D3, Velocity (0 - 127): 64
0    |  MIDI Event: Chan 10 Note OFF: C#5, Velocity (0 - 127): 64
0    |  MIDI Event: Chan 10 Note OFF: A#2, Velocity (0 - 127): 64
0    |  MIDI Event: Chan 6 Note OFF: B4, Velocity (0 - 127): 64
1    |  MIDI Event: Chan 1 Note ON: B3, Velocity (0 - 127): 45
0    |  MIDI Event: Chan 1 Note ON: D4, Velocity (0 - 127): 73
0    |  MIDI Event: Chan 1 Note ON: G4, Velocity (0 - 127): 86
0    |  MIDI Event: Chan 5 Note ON: G2, Velocity (0 - 127): 101
0    |  MIDI Event: Chan 5 Note ON: E3, Velocity (0 - 127): 116
0    |  MIDI Event: Chan 6 Note ON: A3, Velocity (0 - 127): 94
0    |  MIDI Event: Chan 6 Note ON: A4, Velocity (0 - 127): 94
0    |  MIDI Event: Chan 7 Note ON: A4, Velocity (0 - 127): 120
0    |  MIDI Event: Chan 12 Note ON: A4, Velocity (0 - 127): 120
29   |  MIDI Event: Chan 12 Note OFF: A4, Velocity (0 - 127): 64
0    |  MIDI Event: Chan 1 Note OFF: D4, Velocity (0 - 127): 64
0    |  MIDI Event: Chan 3 Note OFF: D4, Velocity (0 - 127): 64
0    |  MIDI Event: Chan 5 Note OFF: G2, Velocity (0 - 127): 64
0    |  MIDI Event: Chan 3 Note OFF: B3, Velocity (0 - 127): 64
0    |  MIDI Event: Chan 3 Note OFF: G4, Velocity (0 - 127): 64
0    |  MIDI Event: Chan 2 Note OFF: G1, Velocity (0 - 127): 64
0    |  MIDI Event: Chan 1 Note OFF: B3, Velocity (0 - 127): 64
0    |  MIDI Event: Chan 6 Note OFF: A4, Velocity (0 - 127): 64
0    |  MIDI Event: Chan 5 Note OFF: E3, Velocity (0 - 127): 64
0    |  MIDI Event: Chan 1 Note OFF: G4, Velocity (0 - 127): 64
0    |  MIDI Event: Chan 7 Note OFF: A4, Velocity (0 - 127): 64
0    |  MIDI Event: Chan 6 Note OFF: A3, Velocity (0 - 127): 64
1    |  MIDI Event: Chan 1 Note ON: F#3, Velocity (0 - 127): 35
0    |  MIDI Event: Chan 1 Note ON: A3, Velocity (0 - 127): 85
0    |  MIDI Event: Chan 1 Note ON: D4, Velocity (0 - 127): 79
0    |  MIDI Event: Chan 2 Control/Mode Change: Expression Control (0-127): 64
0    |  MIDI Event: Chan 2 Note ON: D2, Velocity (0 - 127): 120
0    |  MIDI Event: Chan 3 Control/Mode Change: Expression Control (0-127): 64
0    |  MIDI Event: Chan 3 Note ON: A3, Velocity (0 - 127): 120
0    |  MIDI Event: Chan 3 Note ON: D4, Velocity (0 - 127): 120
0    |  MIDI Event: Chan 3 Note ON: F#4, Velocity (0 - 127): 120
0    |  MIDI Event: Chan 5 Note ON: A2, Velocity (0 - 127): 90
0    |  MIDI Event: Chan 5 Note ON: D3, Velocity (0 - 127): 105
0    |  MIDI Event: Chan 6 Note ON: D4, Velocity (0 - 127): 120
0    |  MIDI Event: Chan 6 Note ON: D5, Velocity (0 - 127): 120
0    |  MIDI Event: Chan 7 Note ON: D5, Velocity (0 - 127): 120
0    |  MIDI Event: Chan 10 Note ON: B1, Velocity (0 - 127): 120
0    |  MIDI Event: Chan 10 Note ON: F#2, Velocity (0 - 127): 120
0    |  MIDI Event: Chan 10 Note ON: B3, Velocity (0 - 127): 116
0    |  MIDI Event: Chan 12 Note ON: D5, Velocity (0 - 127): 120
29   |  MIDI Event: Chan 10 Note OFF: B3, Velocity (0 - 127): 64
0    |  MIDI Event: Chan 10 Note OFF: F#2, Velocity (0 - 127): 64
0    |  MIDI Event: Chan 10 Note OFF: B1, Velocity (0 - 127): 64
30   |  MIDI Event: Chan 12 Note OFF: D5, Velocity (0 - 127): 64
0    |  MIDI Event: Chan 6 Note OFF: D4, Velocity (0 - 127): 64
0    |  MIDI Event: Chan 1 Note OFF: D4, Velocity (0 - 127): 64
0    |  MIDI Event: Chan 5 Note OFF: A2, Velocity (0 - 127): 64
0    |  MIDI Event: Chan 1 Note OFF: F#3, Velocity (0 - 127): 64
0    |  MIDI Event: Chan 5 Note OFF: D3, Velocity (0 - 127): 64
0    |  MIDI Event: Chan 6 Note OFF: D5, Velocity (0 - 127): 64
0    |  MIDI Event: Chan 7 Note OFF: D5, Velocity (0 - 127): 64
0    |  MIDI Event: Chan 1 Note OFF: A3, Velocity (0 - 127): 64
1    |  MIDI Event: Chan 1 Note ON: A3, Velocity (0 - 127): 69
0    |  MIDI Event: Chan 1 Note ON: D4, Velocity (0 - 127): 98
0    |  MIDI Event: Chan 1 Note ON: F#4, Velocity (0 - 127): 74
0    |  MIDI Event: Chan 2 Control/Mode Change: Expression Control (0-127): 127
0    |  MIDI Event: Chan 3 Control/Mode Change: Expression Control (0-127): 127
0    |  MIDI Event: Chan 5 Note ON: A2, Velocity (0 - 127): 100
0    |  MIDI Event: Chan 5 Note ON: D3, Velocity (0 - 127): 111
0    |  MIDI Event: Chan 5 Note ON: F#3, Velocity (0 - 127): 89
0    |  MIDI Event: Chan 10 Note ON: A#2, Velocity (0 - 127): 120
0    |  MIDI Event: Chan 10 Note ON: C#5, Velocity (0 - 127): 109
29   |  MIDI Event: Chan 10 Note OFF: C#5, Velocity (0 - 127): 64
0    |  MIDI Event: Chan 10 Note OFF: A#2, Velocity (0 - 127): 64
30   |  MIDI Event: Chan 2 Note OFF: D2, Velocity (0 - 127): 64
1    |  MIDI Event: Chan 2 Control/Mode Change: Expression Control (0-127): 64
0    |  MIDI Event: Chan 2 Note ON: D2, Velocity (0 - 127): 120
0    |  MIDI Event: Chan 3 Control/Mode Change: Expression Control (0-127): 73
0    |  MIDI Event: Chan 6 Note ON: D4, Velocity (0 - 127): 120
0    |  MIDI Event: Chan 6 Note ON: D5, Velocity (0 - 127): 120
0    |  MIDI Event: Chan 7 Note ON: D5, Velocity (0 - 127): 120
0    |  MIDI Event: Chan 10 Note ON: B1, Velocity (0 - 127): 120
0    |  MIDI Event: Chan 10 Note ON: F#2, Velocity (0 - 127): 120
0    |  MIDI Event: Chan 10 Note ON: B3, Velocity (0 - 127): 116
0    |  MIDI Event: Chan 12 Note ON: D5, Velocity (0 - 127): 120
29   |  MIDI Event: Chan 10 Note OFF: B3, Velocity (0 - 127): 64
0    |  MIDI Event: Chan 10 Note OFF: F#2, Velocity (0 - 127): 64
0    |  MIDI Event: Chan 5 Note OFF: A2, Velocity (0 - 127): 64
0    |  MIDI Event: Chan 1 Note OFF: F#4, Velocity (0 - 127): 64
0    |  MIDI Event: Chan 1 Note OFF: D4, Velocity (0 - 127): 64
0    |  MIDI Event: Chan 1 Note OFF: A3, Velocity (0 - 127): 64
0    |  MIDI Event: Chan 5 Note OFF: F#3, Velocity (0 - 127): 64
0    |  MIDI Event: Chan 10 Note OFF: B1, Velocity (0 - 127): 64
0    |  MIDI Event: Chan 5 Note OFF: D3, Velocity (0 - 127): 64
1    |  MIDI Event: Chan 1 Note ON: F#3, Velocity (0 - 127): 44
0    |  MIDI Event: Chan 1 Note ON: A3, Velocity (0 - 127): 78
0    |  MIDI Event: Chan 1 Note ON: D4, Velocity (0 - 127): 58
0    |  MIDI Event: Chan 5 Note ON: A2, Velocity (0 - 127): 85
0    |  MIDI Event: Chan 5 Note ON: D3, Velocity (0 - 127): 105
0    |  MIDI Event: Chan 5 Note ON: F#3, Velocity (0 - 127): 81
29   |  MIDI Event: Chan 5 Note OFF: F#3, Velocity (0 - 127): 64
0    |  MIDI Event: Chan 6 Note OFF: D4, Velocity (0 - 127): 64
0    |  MIDI Event: Chan 7 Note OFF: D5, Velocity (0 - 127): 64
0    |  MIDI Event: Chan 1 Note OFF: A3, Velocity (0 - 127): 64
0    |  MIDI Event: Chan 12 Note OFF: D5, Velocity (0 - 127): 64
0    |  MIDI Event: Chan 6 Note OFF: D5, Velocity (0 - 127): 64
0    |  MIDI Event: Chan 1 Note OFF: F#3, Velocity (0 - 127): 64
0    |  MIDI Event: Chan 5 Note OFF: D3, Velocity (0 - 127): 64
0    |  MIDI Event: Chan 5 Note OFF: A2, Velocity (0 - 127): 64
0    |  MIDI Event: Chan 1 Note OFF: D4, Velocity (0 - 127): 64
1    |  MIDI Event: Chan 1 Note ON: A3, Velocity (0 - 127): 57
0    |  MIDI Event: Chan 1 Note ON: D4, Velocity (0 - 127): 91
0    |  MIDI Event: Chan 1 Note ON: F#4, Velocity (0 - 127): 77
0    |  MIDI Event: Chan 2 Control/Mode Change: Expression Control (0-127): 127
0    |  MIDI Event: Chan 3 Control/Mode Change: Expression Control (0-127): 127
0    |  MIDI Event: Chan 5 Note ON: D3, Velocity (0 - 127): 109
0    |  MIDI Event: Chan 5 Note ON: F#3, Velocity (0 - 127): 89
0    |  MIDI Event: Chan 5 Note ON: A3, Velocity (0 - 127): 109
0    |  MIDI Event: Chan 10 Note ON: A#2, Velocity (0 - 127): 120
0    |  MIDI Event: Chan 10 Note ON: C#5, Velocity (0 - 127): 119
29   |  MIDI Event: Chan 10 Note OFF: C#5, Velocity (0 - 127): 64
0    |  MIDI Event: Chan 5 Note OFF: A3, Velocity (0 - 127): 64
0    |  MIDI Event: Chan 5 Note OFF: D3, Velocity (0 - 127): 64
0    |  MIDI Event: Chan 1 Note OFF: F#4, Velocity (0 - 127): 64
0    |  MIDI Event: Chan 5 Note OFF: F#3, Velocity (0 - 127): 64
0    |  MIDI Event: Chan 10 Note OFF: A#2, Velocity (0 - 127): 64
0    |  MIDI Event: Chan 1 Note OFF: A3, Velocity (0 - 127): 64
0    |  MIDI Event: Chan 1 Note OFF: D4, Velocity (0 - 127): 64
1    |  MIDI Event: Chan 1 Note ON: F#3, Velocity (0 - 127): 35
0    |  MIDI Event: Chan 1 Note ON: A3, Velocity (0 - 127): 79
0    |  MIDI Event: Chan 1 Note ON: D4, Velocity (0 - 127): 56
0    |  MIDI Event: Chan 5 Note ON: D3, Velocity (0 - 127): 111
0    |  MIDI Event: Chan 5 Note ON: F#3, Velocity (0 - 127): 100
0    |  MIDI Event: Chan 5 Note ON: A3, Velocity (0 - 127): 100
0    |  MIDI Event: Chan 6 Note ON: D4, Velocity (0 - 127): 89
0    |  MIDI Event: Chan 6 Note ON: D5, Velocity (0 - 127): 89
0    |  MIDI Event: Chan 7 Note ON: D5, Velocity (0 - 127): 120
0    |  MIDI Event: Chan 12 Note ON: D5, Velocity (0 - 127): 120
29   |  MIDI Event: Chan 12 Note OFF: D5, Velocity (0 - 127): 64
0    |  MIDI Event: Chan 1 Note OFF: F#3, Velocity (0 - 127): 64
0    |  MIDI Event: Chan 1 Note OFF: A3, Velocity (0 - 127): 64
0    |  MIDI Event: Chan 5 Note OFF: A3, Velocity (0 - 127): 64
0    |  MIDI Event: Chan 5 Note OFF: D3, Velocity (0 - 127): 64
0    |  MIDI Event: Chan 1 Note OFF: D4, Velocity (0 - 127): 64
0    |  MIDI Event: Chan 2 Note OFF: D2, Velocity (0 - 127): 64
0    |  MIDI Event: Chan 5 Note OFF: F#3, Velocity (0 - 127): 64
0    |  MIDI Event: Chan 6 Note OFF: D5, Velocity (0 - 127): 64
0    |  MIDI Event: Chan 6 Note OFF: D4, Velocity (0 - 127): 64
0    |  MIDI Event: Chan 7 Note OFF: D5, Velocity (0 - 127): 64
1    |  MIDI Event: Chan 1 Note ON: F#3, Velocity (0 - 127): 49
0    |  MIDI Event: Chan 1 Note ON: A3, Velocity (0 - 127): 85
0    |  MIDI Event: Chan 1 Note ON: D4, Velocity (0 - 127): 75
0    |  MIDI Event: Chan 2 Control/Mode Change: Expression Control (0-127): 64
0    |  MIDI Event: Chan 2 Note ON: D2, Velocity (0 - 127): 120
0    |  MIDI Event: Chan 3 Control/Mode Change: Expression Control (0-127): 71
0    |  MIDI Event: Chan 5 Note ON: A2, Velocity (0 - 127): 105
0    |  MIDI Event: Chan 5 Note ON: D3, Velocity (0 - 127): 116
0    |  MIDI Event: Chan 6 Note ON: E4, Velocity (0 - 127): 81
0    |  MIDI Event: Chan 6 Note ON: E5, Velocity (0 - 127): 81
0    |  MIDI Event: Chan 7 Note ON: E5, Velocity (0 - 127): 120
0    |  MIDI Event: Chan 10 Note ON: B1, Velocity (0 - 127): 120
0    |  MIDI Event: Chan 10 Note ON: F#2, Velocity (0 - 127): 120
0    |  MIDI Event: Chan 10 Note ON: B3, Velocity (0 - 127): 118
0    |  MIDI Event: Chan 12 Note ON: E5, Velocity (0 - 127): 120
29   |  MIDI Event: Chan 12 Note OFF: E5, Velocity (0 - 127): 64
0    |  MIDI Event: Chan 10 Note OFF: B3, Velocity (0 - 127): 64
0    |  MIDI Event: Chan 7 Note OFF: E5, Velocity (0 - 127): 64
0    |  MIDI Event: Chan 6 Note OFF: E4, Velocity (0 - 127): 64
0    |  MIDI Event: Chan 10 Note OFF: F#2, Velocity (0 - 127): 64
0    |  MIDI Event: Chan 6 Note OFF: E5, Velocity (0 - 127): 64
0    |  MIDI Event: Chan 10 Note OFF: B1, Velocity (0 - 127): 64
1    |  MIDI Event: Chan 6 Note ON: D4, Velocity (0 - 127): 95
0    |  MIDI Event: Chan 6 Note ON: D5, Velocity (0 - 127): 95
0    |  MIDI Event: Chan 7 Note ON: D5, Velocity (0 - 127): 120
0    |  MIDI Event: Chan 12 Note ON: D5, Velocity (0 - 127): 120
29   |  MIDI Event: Chan 12 Note OFF: D5, Velocity (0 - 127): 64
0    |  MIDI Event: Chan 5 Note OFF: A2, Velocity (0 - 127): 64
0    |  MIDI Event: Chan 1 Note OFF: A3, Velocity (0 - 127): 64
0    |  MIDI Event: Chan 1 Note OFF: F#3, Velocity (0 - 127): 64
0    |  MIDI Event: Chan 5 Note OFF: D3, Velocity (0 - 127): 64
0    |  MIDI Event: Chan 6 Note OFF: D4, Velocity (0 - 127): 64
0    |  MIDI Event: Chan 1 Note OFF: D4, Velocity (0 - 127): 64
0    |  MIDI Event: Chan 7 Note OFF: D5, Velocity (0 - 127): 64
0    |  MIDI Event: Chan 6 Note OFF: D5, Velocity (0 - 127): 64
1    |  MIDI Event: Chan 1 Note ON: A3, Velocity (0 - 127): 56
0    |  MIDI Event: Chan 1 Note ON: D4, Velocity (0 - 127): 84
0    |  MIDI Event: Chan 1 Note ON: F#4, Velocity (0 - 127): 49
0    |  MIDI Event: Chan 2 Control/Mode Change: Expression Control (0-127): 127
0    |  MIDI Event: Chan 3 Control/Mode Change: Expression Control (0-127): 127
0    |  MIDI Event: Chan 5 Note ON: D3, Velocity (0 - 127): 105
0    |  MIDI Event: Chan 5 Note ON: F#3, Velocity (0 - 127): 115
0    |  MIDI Event: Chan 6 Note ON: E4, Velocity (0 - 127): 111
0    |  MIDI Event: Chan 6 Note ON: E5, Velocity (0 - 127): 111
0    |  MIDI Event: Chan 7 Note ON: E5, Velocity (0 - 127): 120
0    |  MIDI Event: Chan 10 Note ON: A#2, Velocity (0 - 127): 120
0    |  MIDI Event: Chan 10 Note ON: C#5, Velocity (0 - 127): 115
0    |  MIDI Event: Chan 12 Note ON: E5, Velocity (0 - 127): 120
29   |  MIDI Event: Chan 10 Note OFF: C#5, Velocity (0 - 127): 64
0    |  MIDI Event: Chan 5 Note OFF: D3, Velocity (0 - 127): 64
0    |  MIDI Event: Chan 1 Note OFF: A3, Velocity (0 - 127): 64
0    |  MIDI Event: Chan 1 Note OFF: F#4, Velocity (0 - 127): 64
0    |  MIDI Event: Chan 10 Note OFF: A#2, Velocity (0 - 127): 64
0    |  MIDI Event: Chan 1 Note OFF: D4, Velocity (0 - 127): 64
0    |  MIDI Event: Chan 5 Note OFF: F#3, Velocity (0 - 127): 64
1    |  MIDI Event: Chan 1 Note ON: A3, Velocity (0 - 127): 84
0    |  MIDI Event: Chan 1 Note ON: D4, Velocity (0 - 127): 94
0    |  MIDI Event: Chan 1 Note ON: F#4, Velocity (0 - 127): 76
0    |  MIDI Event: Chan 5 Note ON: D3, Velocity (0 - 127): 100
0    |  MIDI Event: Chan 5 Note ON: F#3, Velocity (0 - 127): 92
21   |  MIDI Event: Chan 6 Pitch Bend Change (0-16383): 7749 (factor==0.992841)
2    |  MIDI Event: Chan 6 Pitch Bend Change (0-16383): 6215 (factor==0.968447)
3    |  MIDI Event: Chan 6 Pitch Bend Change (0-16383): 4197 (factor==0.937266)
2    |  MIDI Event: Chan 6 Pitch Bend Change (0-16383): 2422 (factor==0.91067)
1    |  MIDI Event: Chan 5 Note OFF: F#3, Velocity (0 - 127): 64
0    |  MIDI Event: Chan 3 Note OFF: D4, Velocity (0 - 127): 64
0    |  MIDI Event: Chan 3 Note OFF: F#4, Velocity (0 - 127): 64
0    |  MIDI Event: Chan 2 Note OFF: D2, Velocity (0 - 127): 64
0    |  MIDI Event: Chan 6 Note OFF: E5, Velocity (0 - 127): 64
0    |  MIDI Event: Chan 12 Note OFF: E5, Velocity (0 - 127): 64
0    |  MIDI Event: Chan 3 Note OFF: A3, Velocity (0 - 127): 64
0    |  MIDI Event: Chan 6 Note OFF: E4, Velocity (0 - 127): 64
0    |  MIDI Event: Chan 1 Note OFF: F#4, Velocity (0 - 127): 64
0    |  MIDI Event: Chan 1 Note OFF: A3, Velocity (0 - 127): 64
0    |  MIDI Event: Chan 7 Note OFF: E5, Velocity (0 - 127): 64
0    |  MIDI Event: Chan 5 Note OFF: D3, Velocity (0 - 127): 64
0    |  MIDI Event: Chan 1 Note OFF: D4, Velocity (0 - 127): 64
1    |  MIDI Event: Chan 1 Note ON: E3, Velocity (0 - 127): 47
0    |  MIDI Event: Chan 1 Note ON: A3, Velocity (0 - 127): 89
0    |  MIDI Event: Chan 1 Note ON: C#4, Velocity (0 - 127): 52
0    |  MIDI Event: Chan 2 Control/Mode Change: Expression Control (0-127): 64
0    |  MIDI Event: Chan 2 Note ON: A1, Velocity (0 - 127): 120
0    |  MIDI Event: Chan 3 Control/Mode Change: Expression Control (0-127): 80
0    |  MIDI Event: Chan 3 Note ON: A3, Velocity (0 - 127): 120
0    |  MIDI Event: Chan 3 Note ON: C#4, Velocity (0 - 127): 120
0    |  MIDI Event: Chan 3 Note ON: E4, Velocity (0 - 127): 120
0    |  MIDI Event: Chan 5 Note ON: A2, Velocity (0 - 127): 101
0    |  MIDI Event: Chan 5 Note ON: E3, Velocity (0 - 127): 101
0    |  MIDI Event: Chan 6 Note ON: F#4, Velocity (0 - 127): 119
0    |  MIDI Event: Chan 6 Note ON: F#5, Velocity (0 - 127): 119
0    |  MIDI Event: Chan 7 Note ON: F#5, Velocity (0 - 127): 120
0    |  MIDI Event: Chan 10 Note ON: B1, Velocity (0 - 127): 120
0    |  MIDI Event: Chan 10 Note ON: F#2, Velocity (0 - 127): 120
0    |  MIDI Event: Chan 10 Note ON: B3, Velocity (0 - 127): 119
0    |  MIDI Event: Chan 12 Note ON: F#5, Velocity (0 - 127): 120
1    |  MIDI Event: Chan 6 Pitch Bend Change (0-16383): 1211 (factor==0.89296)
2    |  MIDI Event: Chan 6 Pitch Bend Change (0-16383): 646 (factor==0.884815)
3    |  MIDI Event: Chan 6 Pitch Bend Change (0-16383): 565 (factor==0.883653)
2    |  MIDI Event: Chan 6 Pitch Bend Change (0-16383): 646 (factor==0.884815)
3    |  MIDI Event: Chan 6 Pitch Bend Change (0-16383): 1373 (factor==0.895309)
2    |  MIDI Event: Chan 6 Pitch Bend Change (0-16383): 2260 (factor==0.908281)
3    |  MIDI Event: Chan 6 Pitch Bend Change (0-16383): 3471 (factor==0.926295)
2    |  MIDI Event: Chan 6 Pitch Bend Change (0-16383): 5085 (factor==0.950861)
3    |  MIDI Event: Chan 6 Pitch Bend Change (0-16383): 6942 (factor==0.979932)
2    |  MIDI Event: Chan 6 Pitch Bend Change (0-16383): 8071 (factor==0.99804)
3    |  MIDI Event: Chan 6 Pitch Bend Change (0-16383): 8192 (factor==1)
3    |  MIDI Event: Chan 10 Note OFF: B3, Velocity (0 - 127): 64
0    |  MIDI Event: Chan 10 Note OFF: F#2, Velocity (0 - 127): 64
0    |  MIDI Event: Chan 10 Note OFF: B1, Velocity (0 - 127): 64
30   |  MIDI Event: Chan 12 Note OFF: F#5, Velocity (0 - 127): 64
0    |  MIDI Event: Chan 6 Note OFF: F#4, Velocity (0 - 127): 64
0    |  MIDI Event: Chan 1 Note OFF: C#4, Velocity (0 - 127): 64
0    |  MIDI Event: Chan 5 Note OFF: A2, Velocity (0 - 127): 64
0    |  MIDI Event: Chan 1 Note OFF: E3, Velocity (0 - 127): 64
0    |  MIDI Event: Chan 5 Note OFF: E3, Velocity (0 - 127): 64
0    |  MIDI Event: Chan 6 Note OFF: F#5, Velocity (0 - 127): 64
0    |  MIDI Event: Chan 7 Note OFF: F#5, Velocity (0 - 127): 64
0    |  MIDI Event: Chan 1 Note OFF: A3, Velocity (0 - 127): 64
1    |  MIDI Event: Chan 1 Note ON: A3, Velocity (0 - 127): 51
0    |  MIDI Event: Chan 1 Note ON: C#4, Velocity (0 - 127): 52
0    |  MIDI Event: Chan 1 Note ON: E4, Velocity (0 - 127): 78
0    |  MIDI Event: Chan 2 Control/Mode Change: Expression Control (0-127): 127
0    |  MIDI Event: Chan 3 Control/Mode Change: Expression Control (0-127): 127
0    |  MIDI Event: Chan 5 Note ON: C#3, Velocity (0 - 127): 89
0    |  MIDI Event: Chan 5 Note ON: E3, Velocity (0 - 127): 101
0    |  MIDI Event: Chan 5 Note ON: A3, Velocity (0 - 127): 89
0    |  MIDI Event: Chan 6 Note ON: D4, Velocity (0 - 127): 98
0    |  MIDI Event: Chan 6 Note ON: D5, Velocity (0 - 127): 98
0    |  MIDI Event: Chan 7 Note ON: D5, Velocity (0 - 127): 120
0    |  MIDI Event: Chan 10 Note ON: A#2, Velocity (0 - 127): 120
0    |  MIDI Event: Chan 10 Note ON: C#5, Velocity (0 - 127): 111
0    |  MIDI Event: Chan 12 Note ON: D5, Velocity (0 - 127): 120
29   |  MIDI Event: Chan 10 Note OFF: C#5, Velocity (0 - 127): 64
0    |  MIDI Event: Chan 5 Note OFF: E3, Velocity (0 - 127): 64
0    |  MIDI Event: Chan 1 Note OFF: C#4, Velocity (0 - 127): 64
0    |  MIDI Event: Chan 1 Note OFF: A3, Velocity (0 - 127): 64
0    |  MIDI Event: Chan 1 Note OFF: E4, Velocity (0 - 127): 64
0    |  MIDI Event: Chan 5 Note OFF: C#3, Velocity (0 - 127): 64
0    |  MIDI Event: Chan 10 Note OFF: A#2, Velocity (0 - 127): 64
0    |  MIDI Event: Chan 5 Note OFF: A3, Velocity (0 - 127): 64
1    |  MIDI Event: Chan 1 Note ON: A3, Velocity (0 - 127): 73
0    |  MIDI Event: Chan 1 Note ON: C#4, Velocity (0 - 127): 52
0    |  MIDI Event: Chan 1 Note ON: E4, Velocity (0 - 127): 83
0    |  MIDI Event: Chan 5 Note ON: C#3, Velocity (0 - 127): 119
0    |  MIDI Event: Chan 5 Note ON: E3, Velocity (0 - 127): 118
0    |  MIDI Event: Chan 5 Note ON: A3, Velocity (0 - 127): 105
29   |  MIDI Event: Chan 5 Note OFF: A3, Velocity (0 - 127): 64
0    |  MIDI Event: Chan 6 Note OFF: D4, Velocity (0 - 127): 64
0    |  MIDI Event: Chan 2 Note OFF: A1, Velocity (0 - 127): 64
0    |  MIDI Event: Chan 7 Note OFF: D5, Velocity (0 - 127): 64
0    |  MIDI Event: Chan 3 Note OFF: A3, Velocity (0 - 127): 64
0    |  MIDI Event: Chan 6 Note OFF: D5, Velocity (0 - 127): 64
0    |  MIDI Event: Chan 3 Note OFF: C#4, Velocity (0 - 127): 64
0    |  MIDI Event: Chan 12 Note OFF: D5, Velocity (0 - 127): 64
0    |  MIDI Event: Chan 5 Note OFF: C#3, Velocity (0 - 127): 64
0    |  MIDI Event: Chan 1 Note OFF: E4, Velocity (0 - 127): 64
0    |  MIDI Event: Chan 1 Note OFF: A3, Velocity (0 - 127): 64
0    |  MIDI Event: Chan 3 Note OFF: E4, Velocity (0 - 127): 64
0    |  MIDI Event: Chan 5 Note OFF: E3, Velocity (0 - 127): 64
0    |  MIDI Event: Chan 1 Note OFF: C#4, Velocity (0 - 127): 64
1    |  MIDI Event: Chan 1 Note ON: B3, Velocity (0 - 127): 58
0    |  MIDI Event: Chan 1 Note ON: D4, Velocity (0 - 127): 91
0    |  MIDI Event: Chan 2 Control/Mode Change: Expression Control (0-127): 64
0    |  MIDI Event: Chan 2 Note ON: B1, Velocity (0 - 127): 120
0    |  MIDI Event: Chan 3 Control/Mode Change: Expression Control (0-127): 64
0    |  MIDI Event: Chan 3 Note ON: B3, Velocity (0 - 127): 120
0    |  MIDI Event: Chan 3 Note ON: D4, Velocity (0 - 127): 120
0    |  MIDI Event: Chan 3 Note ON: F#4, Velocity (0 - 127): 120
0    |  MIDI Event: Chan 5 Note ON: B2, Velocity (0 - 127): 85
0    |  MIDI Event: Chan 5 Note ON: F#3, Velocity (0 - 127): 120
0    |  MIDI Event: Chan 6 Note ON: B3, Velocity (0 - 127): 105
0    |  MIDI Event: Chan 6 Note ON: B4, Velocity (0 - 127): 105
0    |  MIDI Event: Chan 7 Note ON: B4, Velocity (0 - 127): 120
0    |  MIDI Event: Chan 10 Note ON: B1, Velocity (0 - 127): 120
0    |  MIDI Event: Chan 10 Note ON: F#2, Velocity (0 - 127): 120
0    |  MIDI Event: Chan 10 Note ON: B3, Velocity (0 - 127): 119
0    |  MIDI Event: Chan 12 Note ON: B4, Velocity (0 - 127): 120
29   |  MIDI Event: Chan 10 Note OFF: B3, Velocity (0 - 127): 64
0    |  MIDI Event: Chan 10 Note OFF: F#2, Velocity (0 - 127): 64
0    |  MIDI Event: Chan 10 Note OFF: B1, Velocity (0 - 127): 64
30   |  MIDI Event: Chan 6 Note OFF: B4, Velocity (0 - 127): 64
0    |  MIDI Event: Chan 5 Note OFF: B2, Velocity (0 - 127): 64
0    |  MIDI Event: Chan 5 Note OFF: F#3, Velocity (0 - 127): 64
0    |  MIDI Event: Chan 1 Note OFF: B3, Velocity (0 - 127): 64
0    |  MIDI Event: Chan 6 Note OFF: B3, Velocity (0 - 127): 64
0    |  MIDI Event: Chan 7 Note OFF: B4, Velocity (0 - 127): 64
0    |  MIDI Event: Chan 12 Note OFF: B4, Velocity (0 - 127): 64
0    |  MIDI Event: Chan 1 Note OFF: D4, Velocity (0 - 127): 64
1    |  MIDI Event: Chan 1 Note ON: B3, Velocity (0 - 127): 79
0    |  MIDI Event: Chan 1 Note ON: D4, Velocity (0 - 127): 95
0    |  MIDI Event: Chan 1 Note ON: F#4, Velocity (0 - 127): 74
0    |  MIDI Event: Chan 2 Control/Mode Change: Expression Control (0-127): 127
0    |  MIDI Event: Chan 3 Control/Mode Change: Expression Control (0-127): 127
0    |  MIDI Event: Chan 5 Note ON: D3, Velocity (0 - 127): 92
0    |  MIDI Event: Chan 5 Note ON: F#3, Velocity (0 - 127): 87
0    |  MIDI Event: Chan 5 Note ON: D4, Velocity (0 - 127): 95
0    |  MIDI Event: Chan 10 Note ON: A#2, Velocity (0 - 127): 120
0    |  MIDI Event: Chan 10 Note ON: C#5, Velocity (0 - 127): 109
29   |  MIDI Event: Chan 10 Note OFF: C#5, Velocity (0 - 127): 64
0    |  MIDI Event: Chan 10 Note OFF: A#2, Velocity (0 - 127): 64
30   |  MIDI Event: Chan 2 Note OFF: B1, Velocity (0 - 127): 64
1    |  MIDI Event: Chan 2 Control/Mode Change: Expression Control (0-127): 64
0    |  MIDI Event: Chan 2 Note ON: B1, Velocity (0 - 127): 120
0    |  MIDI Event: Chan 3 Control/Mode Change: Expression Control (0-127): 73
0    |  MIDI Event: Chan 6 Note ON: B3, Velocity (0 - 127): 119
0    |  MIDI Event: Chan 6 Note ON: B4, Velocity (0 - 127): 119
0    |  MIDI Event: Chan 7 Note ON: B4, Velocity (0 - 127): 120
0    |  MIDI Event: Chan 10 Note ON: B1, Velocity (0 - 127): 120
0    |  MIDI Event: Chan 10 Note ON: F#2, Velocity (0 - 127): 120
0    |  MIDI Event: Chan 10 Note ON: B3, Velocity (0 - 127): 118
0    |  MIDI Event: Chan 12 Note ON: B4, Velocity (0 - 127): 120
29   |  MIDI Event: Chan 10 Note OFF: B3, Velocity (0 - 127): 64
0    |  MIDI Event: Chan 10 Note OFF: F#2, Velocity (0 - 127): 64
0    |  MIDI Event: Chan 5 Note OFF: D3, Velocity (0 - 127): 64
0    |  MIDI Event: Chan 1 Note OFF: F#4, Velocity (0 - 127): 64
0    |  MIDI Event: Chan 1 Note OFF: D4, Velocity (0 - 127): 64
0    |  MIDI Event: Chan 1 Note OFF: B3, Velocity (0 - 127): 64
0    |  MIDI Event: Chan 5 Note OFF: D4, Velocity (0 - 127): 64
0    |  MIDI Event: Chan 10 Note OFF: B1, Velocity (0 - 127): 64
0    |  MIDI Event: Chan 5 Note OFF: F#3, Velocity (0 - 127): 64
1    |  MIDI Event: Chan 1 Note ON: B3, Velocity (0 - 127): 71
0    |  MIDI Event: Chan 1 Note ON: D4, Velocity (0 - 127): 91
0    |  MIDI Event: Chan 1 Note ON: F#4, Velocity (0 - 127): 60
0    |  MIDI Event: Chan 5 Note ON: F#3, Velocity (0 - 127): 109
0    |  MIDI Event: Chan 5 Note ON: B3, Velocity (0 - 127): 95
29   |  MIDI Event: Chan 5 Note OFF: B3, Velocity (0 - 127): 64
0    |  MIDI Event: Chan 7 Note OFF: B4, Velocity (0 - 127): 64
0    |  MIDI Event: Chan 1 Note OFF: D4, Velocity (0 - 127): 64
0    |  MIDI Event: Chan 12 Note OFF: B4, Velocity (0 - 127): 64
0    |  MIDI Event: Chan 6 Note OFF: B4, Velocity (0 - 127): 64
0    |  MIDI Event: Chan 1 Note OFF: B3, Velocity (0 - 127): 64
0    |  MIDI Event: Chan 5 Note OFF: F#3, Velocity (0 - 127): 64
0    |  MIDI Event: Chan 6 Note OFF: B3, Velocity (0 - 127): 64
0    |  MIDI Event: Chan 1 Note OFF: F#4, Velocity (0 - 127): 64
1    |  MIDI Event: Chan 1 Note ON: D4, Velocity (0 - 127): 80
0    |  MIDI Event: Chan 1 Note ON: F#4, Velocity (0 - 127): 62
0    |  MIDI Event: Chan 1 Note ON: B4, Velocity (0 - 127): 91
0    |  MIDI Event: Chan 2 Control/Mode Change: Expression Control (0-127): 127
0    |  MIDI Event: Chan 3 Control/Mode Change: Expression Control (0-127): 127
0    |  MIDI Event: Chan 5 Note ON: D3, Velocity (0 - 127): 103
0    |  MIDI Event: Chan 5 Note ON: F#3, Velocity (0 - 127): 115
0    |  MIDI Event: Chan 10 Note ON: A#2, Velocity (0 - 127): 120
0    |  MIDI Event: Chan 10 Note ON: C#5, Velocity (0 - 127): 119
29   |  MIDI Event: Chan 10 Note OFF: C#5, Velocity (0 - 127): 64
0    |  MIDI Event: Chan 5 Note OFF: D3, Velocity (0 - 127): 64
0    |  MIDI Event: Chan 10 Note OFF: A#2, Velocity (0 - 127): 64
0    |  MIDI Event: Chan 1 Note OFF: B4, Velocity (0 - 127): 64
0    |  MIDI Event: Chan 5 Note OFF: F#3, Velocity (0 - 127): 64
0    |  MIDI Event: Chan 1 Note OFF: D4, Velocity (0 - 127): 64
0    |  MIDI Event: Chan 1 Note OFF: F#4, Velocity (0 - 127): 64
1    |  MIDI Event: Chan 1 Note ON: B3, Velocity (0 - 127): 51
0    |  MIDI Event: Chan 1 Note ON: D4, Velocity (0 - 127): 85
0    |  MIDI Event: Chan 1 Note ON: F#4, Velocity (0 - 127): 59
0    |  MIDI Event: Chan 5 Note ON: B2, Velocity (0 - 127): 92
0    |  MIDI Event: Chan 5 Note ON: E3, Velocity (0 - 127): 98
0    |  MIDI Event: Chan 6 Note ON: A3, Velocity (0 - 127): 91
0    |  MIDI Event: Chan 6 Note ON: A4, Velocity (0 - 127): 91
0    |  MIDI Event: Chan 7 Note ON: A4, Velocity (0 - 127): 120
0    |  MIDI Event: Chan 12 Note ON: A4, Velocity (0 - 127): 120
29   |  MIDI Event: Chan 12 Note OFF: A4, Velocity (0 - 127): 64
0    |  MIDI Event: Chan 1 Note OFF: D4, Velocity (0 - 127): 64
0    |  MIDI Event: Chan 3 Note OFF: F#4, Velocity (0 - 127): 64
0    |  MIDI Event: Chan 5 Note OFF: B2, Velocity (0 - 127): 64
0    |  MIDI Event: Chan 2 Note OFF: B1, Velocity (0 - 127): 64
0    |  MIDI Event: Chan 3 Note OFF: D4, Velocity (0 - 127): 64
0    |  MIDI Event: Chan 3 Note OFF: B3, Velocity (0 - 127): 64
0    |  MIDI Event: Chan 1 Note OFF: B3, Velocity (0 - 127): 64
0    |  MIDI Event: Chan 6 Note OFF: A4, Velocity (0 - 127): 64
0    |  MIDI Event: Chan 5 Note OFF: E3, Velocity (0 - 127): 64
0    |  MIDI Event: Chan 1 Note OFF: F#4, Velocity (0 - 127): 64
0    |  MIDI Event: Chan 7 Note OFF: A4, Velocity (0 - 127): 64
0    |  MIDI Event: Chan 6 Note OFF: A3, Velocity (0 - 127): 64
1    |  MIDI Event: Chan 1 Note ON: G3, Velocity (0 - 127): 74
0    |  MIDI Event: Chan 1 Note ON: B3, Velocity (0 - 127): 94
0    |  MIDI Event: Chan 1 Note ON: D4, Velocity (0 - 127): 91
0    |  MIDI Event: Chan 2 Control/Mode Change: Expression Control (0-127): 64
0    |  MIDI Event: Chan 2 Note ON: G1, Velocity (0 - 127): 120
0    |  MIDI Event: Chan 3 Control/Mode Change: Expression Control (0-127): 71
0    |  MIDI Event: Chan 3 Note ON: B3, Velocity (0 - 127): 120
0    |  MIDI Event: Chan 3 Note ON: D4, Velocity (0 - 127): 120
0    |  MIDI Event: Chan 3 Note ON: G4, Velocity (0 - 127): 120
0    |  MIDI Event: Chan 5 Note ON: G2, Velocity (0 - 127): 98
0    |  MIDI Event: Chan 5 Note ON: D3, Velocity (0 - 127): 116
0    |  MIDI Event: Chan 6 Note ON: B3, Velocity (0 - 127): 97
0    |  MIDI Event: Chan 6 Note ON: B4, Velocity (0 - 127): 97
0    |  MIDI Event: Chan 7 Note ON: B4, Velocity (0 - 127): 120
0    |  MIDI Event: Chan 10 Note ON: B1, Velocity (0 - 127): 120
0    |  MIDI Event: Chan 10 Note ON: F#2, Velocity (0 - 127): 120
0    |  MIDI Event: Chan 10 Note ON: B3, Velocity (0 - 127): 116
0    |  MIDI Event: Chan 12 Note ON: B4, Velocity (0 - 127): 120
29   |  MIDI Event: Chan 12 Note OFF: B4, Velocity (0 - 127): 64
0    |  MIDI Event: Chan 10 Note OFF: B3, Velocity (0 - 127): 64
0    |  MIDI Event: Chan 7 Note OFF: B4, Velocity (0 - 127): 64
0    |  MIDI Event: Chan 6 Note OFF: B3, Velocity (0 - 127): 64
0    |  MIDI Event: Chan 10 Note OFF: F#2, Velocity (0 - 127): 64
0    |  MIDI Event: Chan 6 Note OFF: B4, Velocity (0 - 127): 64
0    |  MIDI Event: Chan 10 Note OFF: B1, Velocity (0 - 127): 64
1    |  MIDI Event: Chan 6 Note ON: D4, Velocity (0 - 127): 80
0    |  MIDI Event: Chan 6 Note ON: D5, Velocity (0 - 127): 80
0    |  MIDI Event: Chan 7 Note ON: D5, Velocity (0 - 127): 120
0    |  MIDI Event: Chan 12 Note ON: D5, Velocity (0 - 127): 120
29   |  MIDI Event: Chan 12 Note OFF: D5, Velocity (0 - 127): 64
0    |  MIDI Event: Chan 5 Note OFF: G2, Velocity (0 - 127): 64
0    |  MIDI Event: Chan 1 Note OFF: B3, Velocity (0 - 127): 64
0    |  MIDI Event: Chan 1 Note OFF: G3, Velocity (0 - 127): 64
0    |  MIDI Event: Chan 5 Note OFF: D3, Velocity (0 - 127): 64
0    |  MIDI Event: Chan 6 Note OFF: D4, Velocity (0 - 127): 64
0    |  MIDI Event: Chan 1 Note OFF: D4, Velocity (0 - 127): 64
0    |  MIDI Event: Chan 7 Note OFF: D5, Velocity (0 - 127): 64
0    |  MIDI Event: Chan 6 Note OFF: D5, Velocity (0 - 127): 64
1    |  MIDI Event: Chan 1 Note ON: B3, Velocity (0 - 127): 70
0    |  MIDI Event: Chan 1 Note ON: D4, Velocity (0 - 127): 94
0    |  MIDI Event: Chan 1 Note ON: G4, Velocity (0 - 127): 101
0    |  MIDI Event: Chan 2 Control/Mode Change: Expression Control (0-127): 127
0    |  MIDI Event: Chan 3 Control/Mode Change: Expression Control (0-127): 127
0    |  MIDI Event: Chan 5 Note ON: D3, Velocity (0 - 127): 79
0    |  MIDI Event: Chan 5 Note ON: G3, Velocity (0 - 127): 111
0    |  MIDI Event: Chan 5 Note ON: B3, Velocity (0 - 127): 100
0    |  MIDI Event: Chan 6 Note ON: B3, Velocity (0 - 127): 113
0    |  MIDI Event: Chan 6 Note ON: B4, Velocity (0 - 127): 113
0    |  MIDI Event: Chan 7 Note ON: B4, Velocity (0 - 127): 120
0    |  MIDI Event: Chan 10 Note ON: A#2, Velocity (0 - 127): 120
0    |  MIDI Event: Chan 10 Note ON: C#5, Velocity (0 - 127): 119
0    |  MIDI Event: Chan 12 Note ON: B4, Velocity (0 - 127): 120
29   |  MIDI Event: Chan 10 Note OFF: C#5, Velocity (0 - 127): 64
0    |  MIDI Event: Chan 10 Note OFF: A#2, Velocity (0 - 127): 64
30   |  MIDI Event: Chan 6 Note OFF: B4, Velocity (0 - 127): 64
0    |  MIDI Event: Chan 12 Note OFF: B4, Velocity (0 - 127): 64
0    |  MIDI Event: Chan 2 Note OFF: G1, Velocity (0 - 127): 64
0    |  MIDI Event: Chan 6 Note OFF: B3, Velocity (0 - 127): 64
0    |  MIDI Event: Chan 7 Note OFF: B4, Velocity (0 - 127): 64
1    |  MIDI Event: Chan 2 Control/Mode Change: Expression Control (0-127): 64
0    |  MIDI Event: Chan 2 Note ON: G1, Velocity (0 - 127): 120
0    |  MIDI Event: Chan 3 Control/Mode Change: Expression Control (0-127): 80
0    |  MIDI Event: Chan 10 Note ON: B1, Velocity (0 - 127): 120
0    |  MIDI Event: Chan 10 Note ON: F#2, Velocity (0 - 127): 120
0    |  MIDI Event: Chan 10 Note ON: B3, Velocity (0 - 127): 120
29   |  MIDI Event: Chan 10 Note OFF: B3, Velocity (0 - 127): 64
0    |  MIDI Event: Chan 5 Note OFF: G3, Velocity (0 - 127): 64
0    |  MIDI Event: Chan 1 Note OFF: G4, Velocity (0 - 127): 64
0    |  MIDI Event: Chan 5 Note OFF: B3, Velocity (0 - 127): 64
0    |  MIDI Event: Chan 1 Note OFF: D4, Velocity (0 - 127): 64
0    |  MIDI Event: Chan 1 Note OFF: B3, Velocity (0 - 127): 64
0    |  MIDI Event: Chan 5 Note OFF: D3, Velocity (0 - 127): 64
0    |  MIDI Event: Chan 10 Note OFF: F#2, Velocity (0 - 127): 64
0    |  MIDI Event: Chan 10 Note OFF: B1, Velocity (0 - 127): 64
1    |  MIDI Event: Chan 1 Note ON: B3, Velocity (0 - 127): 52
0    |  MIDI Event: Chan 1 Note ON: D4, Velocity (0 - 127): 85
0    |  MIDI Event: Chan 1 Note ON: G4, Velocity (0 - 127): 94
0    |  MIDI Event: Chan 5 Note ON: D3, Velocity (0 - 127): 82
0    |  MIDI Event: Chan 5 Note ON: G3, Velocity (0 - 127): 98
0    |  MIDI Event: Chan 5 Note ON: B3, Velocity (0 - 127): 85
0    |  MIDI Event: Chan 6 Note ON: A3, Velocity (0 - 127): 98
0    |  MIDI Event: Chan 6 Note ON: A4, Velocity (0 - 127): 98
0    |  MIDI Event: Chan 7 Note ON: A4, Velocity (0 - 127): 120
0    |  MIDI Event: Chan 12 Note ON: A4, Velocity (0 - 127): 120
29   |  MIDI Event: Chan 12 Note OFF: A4, Velocity (0 - 127): 64
0    |  MIDI Event: Chan 1 Note OFF: B3, Velocity (0 - 127): 64
0    |  MIDI Event: Chan 1 Note OFF: D4, Velocity (0 - 127): 64
0    |  MIDI Event: Chan 5 Note OFF: B3, Velocity (0 - 127): 64
0    |  MIDI Event: Chan 5 Note OFF: D3, Velocity (0 - 127): 64
0    |  MIDI Event: Chan 1 Note OFF: G4, Velocity (0 - 127): 64
0    |  MIDI Event: Chan 5 Note OFF: G3, Velocity (0 - 127): 64
0    |  MIDI Event: Chan 7 Note OFF: A4, Velocity (0 - 127): 64
0    |  MIDI Event: Chan 6 Note OFF: A4, Velocity (0 - 127): 64
0    |  MIDI Event: Chan 6 Note OFF: A3, Velocity (0 - 127): 64
1    |  MIDI Event: Chan 1 Note ON: D4, Velocity (0 - 127): 78
0    |  MIDI Event: Chan 1 Note ON: G4, Velocity (0 - 127): 100
0    |  MIDI Event: Chan 1 Note ON: B4, Velocity (0 - 127): 46
0    |  MIDI Event: Chan 2 Control/Mode Change: Expression Control (0-127): 127
0    |  MIDI Event: Chan 3 Control/Mode Change: Expression Control (0-127): 127
0    |  MIDI Event: Chan 5 Note ON: G2, Velocity (0 - 127): 109
0    |  MIDI Event: Chan 5 Note ON: D3, Velocity (0 - 127): 109
0    |  MIDI Event: Chan 6 Note ON: B3, Velocity (0 - 127): 101
0    |  MIDI Event: Chan 6 Note ON: B4, Velocity (0 - 127): 101
0    |  MIDI Event: Chan 7 Note ON: B4, Velocity (0 - 127): 120
0    |  MIDI Event: Chan 10 Note ON: A#2, Velocity (0 - 127): 120
0    |  MIDI Event: Chan 10 Note ON: C#5, Velocity (0 - 127): 115
0    |  MIDI Event: Chan 12 Note ON: B4, Velocity (0 - 127): 120
29   |  MIDI Event: Chan 12 Note OFF: B4, Velocity (0 - 127): 64
0    |  MIDI Event: Chan 7 Note OFF: B4, Velocity (0 - 127): 64
0    |  MIDI Event: Chan 1 Note OFF: D4, Velocity (0 - 127): 64
0    |  MIDI Event: Chan 1 Note OFF: G4, Velocity (0 - 127): 64
0    |  MIDI Event: Chan 6 Note OFF: B3, Velocity (0 - 127): 64
0    |  MIDI Event: Chan 5 Note OFF: G2, Velocity (0 - 127): 64
0    |  MIDI Event: Chan 1 Note OFF: B4, Velocity (0 - 127): 64
0    |  MIDI Event: Chan 5 Note OFF: D3, Velocity (0 - 127): 64
0    |  MIDI Event: Chan 10 Note OFF: C#5, Velocity (0 - 127): 64
0    |  MIDI Event: Chan 10 Note OFF: A#2, Velocity (0 - 127): 64
0    |  MIDI Event: Chan 6 Note OFF: B4, Velocity (0 - 127): 64
1    |  MIDI Event: Chan 1 Note ON: B3, Velocity (0 - 127): 45
0    |  MIDI Event: Chan 1 Note ON: D4, Velocity (0 - 127): 73
0    |  MIDI Event: Chan 1 Note ON: G4, Velocity (0 - 127): 86
0    |  MIDI Event: Chan 5 Note ON: G2, Velocity (0 - 127): 101
0    |  MIDI Event: Chan 5 Note ON: E3, Velocity (0 - 127): 116
0    |  MIDI Event: Chan 6 Note ON: A3, Velocity (0 - 127): 91
0    |  MIDI Event: Chan 6 Note ON: A4, Velocity (0 - 127): 91
0    |  MIDI Event: Chan 7 Note ON: A4, Velocity (0 - 127): 120
0    |  MIDI Event: Chan 12 Note ON: A4, Velocity (0 - 127): 120
29   |  MIDI Event: Chan 12 Note OFF: A4, Velocity (0 - 127): 64
0    |  MIDI Event: Chan 1 Note OFF: D4, Velocity (0 - 127): 64
0    |  MIDI Event: Chan 3 Note OFF: D4, Velocity (0 - 127): 64
0    |  MIDI Event: Chan 5 Note OFF: G2, Velocity (0 - 127): 64
0    |  MIDI Event: Chan 3 Note OFF: B3, Velocity (0 - 127): 64
0    |  MIDI Event: Chan 3 Note OFF: G4, Velocity (0 - 127): 64
0    |  MIDI Event: Chan 2 Note OFF: G1, Velocity (0 - 127): 64
0    |  MIDI Event: Chan 1 Note OFF: B3, Velocity (0 - 127): 64
0    |  MIDI Event: Chan 6 Note OFF: A4, Velocity (0 - 127): 64
0    |  MIDI Event: Chan 5 Note OFF: E3, Velocity (0 - 127): 64
0    |  MIDI Event: Chan 1 Note OFF: G4, Velocity (0 - 127): 64
0    |  MIDI Event: Chan 7 Note OFF: A4, Velocity (0 - 127): 64
0    |  MIDI Event: Chan 6 Note OFF: A3, Velocity (0 - 127): 64
1    |  MIDI Event: Chan 1 Note ON: F#3, Velocity (0 - 127): 35
0    |  MIDI Event: Chan 1 Note ON: A3, Velocity (0 - 127): 85
0    |  MIDI Event: Chan 1 Note ON: D4, Velocity (0 - 127): 79
0    |  MIDI Event: Chan 2 Control/Mode Change: Expression Control (0-127): 64
0    |  MIDI Event: Chan 2 Note ON: D2, Velocity (0 - 127): 120
0    |  MIDI Event: Chan 3 Control/Mode Change: Expression Control (0-127): 64
0    |  MIDI Event: Chan 3 Note ON: A3, Velocity (0 - 127): 120
0    |  MIDI Event: Chan 3 Note ON: D4, Velocity (0 - 127): 120
0    |  MIDI Event: Chan 3 Note ON: F#4, Velocity (0 - 127): 120
0    |  MIDI Event: Chan 5 Note ON: A2, Velocity (0 - 127): 90
0    |  MIDI Event: Chan 5 Note ON: D3, Velocity (0 - 127): 105
0    |  MIDI Event: Chan 6 Note ON: D4, Velocity (0 - 127): 105
0    |  MIDI Event: Chan 6 Note ON: D5, Velocity (0 - 127): 105
0    |  MIDI Event: Chan 7 Note ON: D5, Velocity (0 - 127): 120
0    |  MIDI Event: Chan 10 Note ON: B1, Velocity (0 - 127): 120
0    |  MIDI Event: Chan 10 Note ON: F#2, Velocity (0 - 127): 120
0    |  MIDI Event: Chan 10 Note ON: B3, Velocity (0 - 127): 111
0    |  MIDI Event: Chan 12 Note ON: D5, Velocity (0 - 127): 120
29   |  MIDI Event: Chan 10 Note OFF: B3, Velocity (0 - 127): 64
0    |  MIDI Event: Chan 10 Note OFF: F#2, Velocity (0 - 127): 64
0    |  MIDI Event: Chan 10 Note OFF: B1, Velocity (0 - 127): 64
30   |  MIDI Event: Chan 12 Note OFF: D5, Velocity (0 - 127): 64
0    |  MIDI Event: Chan 6 Note OFF: D4, Velocity (0 - 127): 64
0    |  MIDI Event: Chan 1 Note OFF: D4, Velocity (0 - 127): 64
0    |  MIDI Event: Chan 5 Note OFF: A2, Velocity (0 - 127): 64
0    |  MIDI Event: Chan 1 Note OFF: F#3, Velocity (0 - 127): 64
0    |  MIDI Event: Chan 5 Note OFF: D3, Velocity (0 - 127): 64
0    |  MIDI Event: Chan 6 Note OFF: D5, Velocity (0 - 127): 64
0    |  MIDI Event: Chan 7 Note OFF: D5, Velocity (0 - 127): 64
0    |  MIDI Event: Chan 1 Note OFF: A3, Velocity (0 - 127): 64
1    |  MIDI Event: Chan 1 Note ON: A3, Velocity (0 - 127): 69
0    |  MIDI Event: Chan 1 Note ON: D4, Velocity (0 - 127): 98
0    |  MIDI Event: Chan 1 Note ON: F#4, Velocity (0 - 127): 74
0    |  MIDI Event: Chan 2 Control/Mode Change: Expression Control (0-127): 127
0    |  MIDI Event: Chan 3 Control/Mode Change: Expression Control (0-127): 127
0    |  MIDI Event: Chan 5 Note ON: A2, Velocity (0 - 127): 100
0    |  MIDI Event: Chan 5 Note ON: D3, Velocity (0 - 127): 111
0    |  MIDI Event: Chan 5 Note ON: F#3, Velocity (0 - 127): 89
0    |  MIDI Event: Chan 10 Note ON: A#2, Velocity (0 - 127): 120
0    |  MIDI Event: Chan 10 Note ON: C#5, Velocity (0 - 127): 119
29   |  MIDI Event: Chan 10 Note OFF: C#5, Velocity (0 - 127): 64
0    |  MIDI Event: Chan 10 Note OFF: A#2, Velocity (0 - 127): 64
30   |  MIDI Event: Chan 2 Note OFF: D2, Velocity (0 - 127): 64
1    |  MIDI Event: Chan 2 Control/Mode Change: Expression Control (0-127): 64
0    |  MIDI Event: Chan 2 Note ON: D2, Velocity (0 - 127): 120
0    |  MIDI Event: Chan 3 Control/Mode Change: Expression Control (0-127): 73
0    |  MIDI Event: Chan 6 Note ON: D4, Velocity (0 - 127): 119
0    |  MIDI Event: Chan 6 Note ON: D5, Velocity (0 - 127): 119
0    |  MIDI Event: Chan 7 Note ON: D5, Velocity (0 - 127): 120
0    |  MIDI Event: Chan 10 Note ON: B1, Velocity (0 - 127): 120
0    |  MIDI Event: Chan 10 Note ON: F#2, Velocity (0 - 127): 120
0    |  MIDI Event: Chan 10 Note ON: B3, Velocity (0 - 127): 119
0    |  MIDI Event: Chan 12 Note ON: D5, Velocity (0 - 127): 120
29   |  MIDI Event: Chan 10 Note OFF: B3, Velocity (0 - 127): 64
0    |  MIDI Event: Chan 10 Note OFF: F#2, Velocity (0 - 127): 64
0    |  MIDI Event: Chan 5 Note OFF: A2, Velocity (0 - 127): 64
0    |  MIDI Event: Chan 1 Note OFF: F#4, Velocity (0 - 127): 64
0    |  MIDI Event: Chan 1 Note OFF: D4, Velocity (0 - 127): 64
0    |  MIDI Event: Chan 1 Note OFF: A3, Velocity (0 - 127): 64
0    |  MIDI Event: Chan 5 Note OFF: F#3, Velocity (0 - 127): 64
0    |  MIDI Event: Chan 10 Note OFF: B1, Velocity (0 - 127): 64
0    |  MIDI Event: Chan 5 Note OFF: D3, Velocity (0 - 127): 64
1    |  MIDI Event: Chan 1 Note ON: F#3, Velocity (0 - 127): 44
0    |  MIDI Event: Chan 1 Note ON: A3, Velocity (0 - 127): 78
0    |  MIDI Event: Chan 1 Note ON: D4, Velocity (0 - 127): 58
0    |  MIDI Event: Chan 5 Note ON: A2, Velocity (0 - 127): 85
0    |  MIDI Event: Chan 5 Note ON: D3, Velocity (0 - 127): 105
0    |  MIDI Event: Chan 5 Note ON: F#3, Velocity (0 - 127): 81
29   |  MIDI Event: Chan 5 Note OFF: F#3, Velocity (0 - 127): 64
0    |  MIDI Event: Chan 6 Note OFF: D4, Velocity (0 - 127): 64
0    |  MIDI Event: Chan 7 Note OFF: D5, Velocity (0 - 127): 64
0    |  MIDI Event: Chan 1 Note OFF: A3, Velocity (0 - 127): 64
0    |  MIDI Event: Chan 12 Note OFF: D5, Velocity (0 - 127): 64
0    |  MIDI Event: Chan 6 Note OFF: D5, Velocity (0 - 127): 64
0    |  MIDI Event: Chan 1 Note OFF: F#3, Velocity (0 - 127): 64
0    |  MIDI Event: Chan 5 Note OFF: D3, Velocity (0 - 127): 64
0    |  MIDI Event: Chan 5 Note OFF: A2, Velocity (0 - 127): 64
0    |  MIDI Event: Chan 1 Note OFF: D4, Velocity (0 - 127): 64
1    |  MIDI Event: Chan 1 Note ON: A3, Velocity (0 - 127): 57
0    |  MIDI Event: Chan 1 Note ON: D4, Velocity (0 - 127): 91
0    |  MIDI Event: Chan 1 Note ON: F#4, Velocity (0 - 127): 77
0    |  MIDI Event: Chan 2 Control/Mode Change: Expression Control (0-127): 127
0    |  MIDI Event: Chan 3 Control/Mode Change: Expression Control (0-127): 127
0    |  MIDI Event: Chan 5 Note ON: D3, Velocity (0 - 127): 109
0    |  MIDI Event: Chan 5 Note ON: F#3, Velocity (0 - 127): 89
0    |  MIDI Event: Chan 5 Note ON: A3, Velocity (0 - 127): 109
0    |  MIDI Event: Chan 10 Note ON: A#2, Velocity (0 - 127): 120
0    |  MIDI Event: Chan 10 Note ON: C#5, Velocity (0 - 127): 119
29   |  MIDI Event: Chan 10 Note OFF: C#5, Velocity (0 - 127): 64
0    |  MIDI Event: Chan 5 Note OFF: A3, Velocity (0 - 127): 64
0    |  MIDI Event: Chan 5 Note OFF: D3, Velocity (0 - 127): 64
0    |  MIDI Event: Chan 1 Note OFF: F#4, Velocity (0 - 127): 64
0    |  MIDI Event: Chan 5 Note OFF: F#3, Velocity (0 - 127): 64
0    |  MIDI Event: Chan 10 Note OFF: A#2, Velocity (0 - 127): 64
0    |  MIDI Event: Chan 1 Note OFF: A3, Velocity (0 - 127): 64
0    |  MIDI Event: Chan 1 Note OFF: D4, Velocity (0 - 127): 64
1    |  MIDI Event: Chan 1 Note ON: F#3, Velocity (0 - 127): 35
0    |  MIDI Event: Chan 1 Note ON: A3, Velocity (0 - 127): 79
0    |  MIDI Event: Chan 1 Note ON: D4, Velocity (0 - 127): 56
0    |  MIDI Event: Chan 5 Note ON: D3, Velocity (0 - 127): 111
0    |  MIDI Event: Chan 5 Note ON: F#3, Velocity (0 - 127): 100
0    |  MIDI Event: Chan 5 Note ON: A3, Velocity (0 - 127): 100
0    |  MIDI Event: Chan 6 Note ON: D4, Velocity (0 - 127): 103
0    |  MIDI Event: Chan 6 Note ON: D5, Velocity (0 - 127): 103
0    |  MIDI Event: Chan 7 Note ON: D5, Velocity (0 - 127): 120
0    |  MIDI Event: Chan 12 Note ON: D5, Velocity (0 - 127): 120
29   |  MIDI Event: Chan 12 Note OFF: D5, Velocity (0 - 127): 64
0    |  MIDI Event: Chan 1 Note OFF: F#3, Velocity (0 - 127): 64
0    |  MIDI Event: Chan 1 Note OFF: A3, Velocity (0 - 127): 64
0    |  MIDI Event: Chan 5 Note OFF: A3, Velocity (0 - 127): 64
0    |  MIDI Event: Chan 5 Note OFF: D3, Velocity (0 - 127): 64
0    |  MIDI Event: Chan 1 Note OFF: D4, Velocity (0 - 127): 64
0    |  MIDI Event: Chan 2 Note OFF: D2, Velocity (0 - 127): 64
0    |  MIDI Event: Chan 5 Note OFF: F#3, Velocity (0 - 127): 64
0    |  MIDI Event: Chan 6 Note OFF: D5, Velocity (0 - 127): 64
0    |  MIDI Event: Chan 6 Note OFF: D4, Velocity (0 - 127): 64
0    |  MIDI Event: Chan 7 Note OFF: D5, Velocity (0 - 127): 64
1    |  MIDI Event: Chan 1 Note ON: F#3, Velocity (0 - 127): 49
0    |  MIDI Event: Chan 1 Note ON: A3, Velocity (0 - 127): 85
0    |  MIDI Event: Chan 1 Note ON: D4, Velocity (0 - 127): 75
0    |  MIDI Event: Chan 2 Control/Mode Change: Expression Control (0-127): 64
0    |  MIDI Event: Chan 2 Note ON: D2, Velocity (0 - 127): 120
0    |  MIDI Event: Chan 3 Control/Mode Change: Expression Control (0-127): 71
0    |  MIDI Event: Chan 5 Note ON: A2, Velocity (0 - 127): 105
0    |  MIDI Event: Chan 5 Note ON: D3, Velocity (0 - 127): 116
0    |  MIDI Event: Chan 6 Note ON: E4, Velocity (0 - 127): 95
0    |  MIDI Event: Chan 6 Note ON: E5, Velocity (0 - 127): 95
0    |  MIDI Event: Chan 7 Note ON: E5, Velocity (0 - 127): 120
0    |  MIDI Event: Chan 10 Note ON: B1, Velocity (0 - 127): 120
0    |  MIDI Event: Chan 10 Note ON: F#2, Velocity (0 - 127): 120
0    |  MIDI Event: Chan 10 Note ON: B3, Velocity (0 - 127): 116
0    |  MIDI Event: Chan 12 Note ON: E5, Velocity (0 - 127): 120
29   |  MIDI Event: Chan 12 Note OFF: E5, Velocity (0 - 127): 64
0    |  MIDI Event: Chan 10 Note OFF: B3, Velocity (0 - 127): 64
0    |  MIDI Event: Chan 7 Note OFF: E5, Velocity (0 - 127): 64
0    |  MIDI Event: Chan 6 Note OFF: E4, Velocity (0 - 127): 64
0    |  MIDI Event: Chan 10 Note OFF: F#2, Velocity (0 - 127): 64
0    |  MIDI Event: Chan 6 Note OFF: E5, Velocity (0 - 127): 64
0    |  MIDI Event: Chan 10 Note OFF: B1, Velocity (0 - 127): 64
1    |  MIDI Event: Chan 6 Note ON: D4, Velocity (0 - 127): 86
0    |  MIDI Event: Chan 6 Note ON: D5, Velocity (0 - 127): 86
0    |  MIDI Event: Chan 7 Note ON: D5, Velocity (0 - 127): 120
0    |  MIDI Event: Chan 12 Note ON: D5, Velocity (0 - 127): 120
29   |  MIDI Event: Chan 12 Note OFF: D5, Velocity (0 - 127): 64
0    |  MIDI Event: Chan 5 Note OFF: A2, Velocity (0 - 127): 64
0    |  MIDI Event: Chan 1 Note OFF: A3, Velocity (0 - 127): 64
0    |  MIDI Event: Chan 1 Note OFF: F#3, Velocity (0 - 127): 64
0    |  MIDI Event: Chan 5 Note OFF: D3, Velocity (0 - 127): 64
0    |  MIDI Event: Chan 6 Note OFF: D4, Velocity (0 - 127): 64
0    |  MIDI Event: Chan 1 Note OFF: D4, Velocity (0 - 127): 64
0    |  MIDI Event: Chan 7 Note OFF: D5, Velocity (0 - 127): 64
0    |  MIDI Event: Chan 6 Note OFF: D5, Velocity (0 - 127): 64
1    |  MIDI Event: Chan 1 Note ON: A3, Velocity (0 - 127): 56
0    |  MIDI Event: Chan 1 Note ON: D4, Velocity (0 - 127): 84
0    |  MIDI Event: Chan 1 Note ON: F#4, Velocity (0 - 127): 49
0    |  MIDI Event: Chan 2 Control/Mode Change: Expression Control (0-127): 127
0    |  MIDI Event: Chan 3 Control/Mode Change: Expression Control (0-127): 127
0    |  MIDI Event: Chan 5 Note ON: D3, Velocity (0 - 127): 105
0    |  MIDI Event: Chan 5 Note ON: F#3, Velocity (0 - 127): 115
0    |  MIDI Event: Chan 6 Note ON: E4, Velocity (0 - 127): 98
0    |  MIDI Event: Chan 6 Note ON: E5, Velocity (0 - 127): 98
0    |  MIDI Event: Chan 7 Note ON: E5, Velocity (0 - 127): 120
0    |  MIDI Event: Chan 10 Note ON: A#2, Velocity (0 - 127): 120
0    |  MIDI Event: Chan 10 Note ON: C#5, Velocity (0 - 127): 119
0    |  MIDI Event: Chan 12 Note ON: E5, Velocity (0 - 127): 120
29   |  MIDI Event: Chan 10 Note OFF: C#5, Velocity (0 - 127): 64
0    |  MIDI Event: Chan 5 Note OFF: D3, Velocity (0 - 127): 64
0    |  MIDI Event: Chan 1 Note OFF: A3, Velocity (0 - 127): 64
0    |  MIDI Event: Chan 1 Note OFF: F#4, Velocity (0 - 127): 64
0    |  MIDI Event: Chan 10 Note OFF: A#2, Velocity (0 - 127): 64
0    |  MIDI Event: Chan 1 Note OFF: D4, Velocity (0 - 127): 64
0    |  MIDI Event: Chan 5 Note OFF: F#3, Velocity (0 - 127): 64
1    |  MIDI Event: Chan 1 Note ON: A3, Velocity (0 - 127): 84
0    |  MIDI Event: Chan 1 Note ON: D4, Velocity (0 - 127): 94
0    |  MIDI Event: Chan 1 Note ON: F#4, Velocity (0 - 127): 76
0    |  MIDI Event: Chan 5 Note ON: D3, Velocity (0 - 127): 100
0    |  MIDI Event: Chan 5 Note ON: F#3, Velocity (0 - 127): 92
20   |  MIDI Event: Chan 6 Pitch Bend Change (0-16383): 8071 (factor==0.99804)
5    |  MIDI Event: Chan 6 Pitch Bend Change (0-16383): 6296 (factor==0.96972)
3    |  MIDI Event: Chan 6 Pitch Bend Change (0-16383): 4197 (factor==0.937266)
1    |  MIDI Event: Chan 5 Note OFF: F#3, Velocity (0 - 127): 64
0    |  MIDI Event: Chan 3 Note OFF: D4, Velocity (0 - 127): 64
0    |  MIDI Event: Chan 3 Note OFF: F#4, Velocity (0 - 127): 64
0    |  MIDI Event: Chan 2 Note OFF: D2, Velocity (0 - 127): 64
0    |  MIDI Event: Chan 6 Note OFF: E5, Velocity (0 - 127): 64
0    |  MIDI Event: Chan 12 Note OFF: E5, Velocity (0 - 127): 64
0    |  MIDI Event: Chan 3 Note OFF: A3, Velocity (0 - 127): 64
0    |  MIDI Event: Chan 6 Note OFF: E4, Velocity (0 - 127): 64
0    |  MIDI Event: Chan 1 Note OFF: F#4, Velocity (0 - 127): 64
0    |  MIDI Event: Chan 1 Note OFF: A3, Velocity (0 - 127): 64
0    |  MIDI Event: Chan 7 Note OFF: E5, Velocity (0 - 127): 64
0    |  MIDI Event: Chan 5 Note OFF: D3, Velocity (0 - 127): 64
0    |  MIDI Event: Chan 1 Note OFF: D4, Velocity (0 - 127): 64
1    |  MIDI Event: Chan 1 Note ON: E3, Velocity (0 - 127): 47
0    |  MIDI Event: Chan 1 Note ON: A3, Velocity (0 - 127): 89
0    |  MIDI Event: Chan 1 Note ON: C#4, Velocity (0 - 127): 52
0    |  MIDI Event: Chan 2 Control/Mode Change: Expression Control (0-127): 64
0    |  MIDI Event: Chan 2 Note ON: F#1, Velocity (0 - 127): 120
0    |  MIDI Event: Chan 3 Control/Mode Change: Expression Control (0-127): 80
0    |  MIDI Event: Chan 3 Note ON: A3, Velocity (0 - 127): 120
0    |  MIDI Event: Chan 3 Note ON: C#4, Velocity (0 - 127): 120
0    |  MIDI Event: Chan 3 Note ON: F#4, Velocity (0 - 127): 120
0    |  MIDI Event: Chan 5 Note ON: A2, Velocity (0 - 127): 101
0    |  MIDI Event: Chan 5 Note ON: E3, Velocity (0 - 127): 101
0    |  MIDI Event: Chan 6 Note ON: F#4, Velocity (0 - 127): 119
0    |  MIDI Event: Chan 6 Note ON: F#5, Velocity (0 - 127): 119
0    |  MIDI Event: Chan 6 Pitch Bend Change (0-16383): 1776 (factor==0.901179)
0    |  MIDI Event: Chan 7 Note ON: F#5, Velocity (0 - 127): 120
0    |  MIDI Event: Chan 10 Note ON: B1, Velocity (0 - 127): 120
0    |  MIDI Event: Chan 10 Note ON: F#2, Velocity (0 - 127): 120
0    |  MIDI Event: Chan 10 Note ON: B3, Velocity (0 - 127): 120
0    |  MIDI Event: Chan 12 Note ON: F#5, Velocity (0 - 127): 120
3    |  MIDI Event: Chan 6 Pitch Bend Change (0-16383): 0 (factor==0.875594)
17   |  MIDI Event: Chan 6 Pitch Bend Change (0-16383): 646 (factor==0.884815)
3    |  MIDI Event: Chan 6 Pitch Bend Change (0-16383): 2422 (factor==0.91067)
2    |  MIDI Event: Chan 6 Pitch Bend Change (0-16383): 4520 (factor==0.942188)
3    |  MIDI Event: Chan 6 Pitch Bend Change (0-16383): 6942 (factor==0.979932)
1    |  MIDI Event: Chan 10 Note OFF: B3, Velocity (0 - 127): 64
0    |  MIDI Event: Chan 10 Note OFF: F#2, Velocity (0 - 127): 64
0    |  MIDI Event: Chan 10 Note OFF: B1, Velocity (0 - 127): 64
1    |  MIDI Event: Chan 6 Pitch Bend Change (0-16383): 8192 (factor==1)
29   |  MIDI Event: Chan 12 Note OFF: F#5, Velocity (0 - 127): 64
0    |  MIDI Event: Chan 6 Note OFF: F#4, Velocity (0 - 127): 64
0    |  MIDI Event: Chan 1 Note OFF: C#4, Velocity (0 - 127): 64
0    |  MIDI Event: Chan 5 Note OFF: A2, Velocity (0 - 127): 64
0    |  MIDI Event: Chan 1 Note OFF: E3, Velocity (0 - 127): 64
0    |  MIDI Event: Chan 5 Note OFF: E3, Velocity (0 - 127): 64
0    |  MIDI Event: Chan 6 Note OFF: F#5, Velocity (0 - 127): 64
0    |  MIDI Event: Chan 7 Note OFF: F#5, Velocity (0 - 127): 64
0    |  MIDI Event: Chan 1 Note OFF: A3, Velocity (0 - 127): 64
1    |  MIDI Event: Chan 1 Note ON: A3, Velocity (0 - 127): 51
0    |  MIDI Event: Chan 1 Note ON: C#4, Velocity (0 - 127): 52
0    |  MIDI Event: Chan 1 Note ON: E4, Velocity (0 - 127): 78
0    |  MIDI Event: Chan 2 Control/Mode Change: Expression Control (0-127): 127
0    |  MIDI Event: Chan 3 Control/Mode Change: Expression Control (0-127): 127
0    |  MIDI Event: Chan 5 Note ON: C#3, Velocity (0 - 127): 89
0    |  MIDI Event: Chan 5 Note ON: E3, Velocity (0 - 127): 101
0    |  MIDI Event: Chan 5 Note ON: A3, Velocity (0 - 127): 89
0    |  MIDI Event: Chan 6 Note ON: D4, Velocity (0 - 127): 111
0    |  MIDI Event: Chan 6 Note ON: D5, Velocity (0 - 127): 111
0    |  MIDI Event: Chan 7 Note ON: D5, Velocity (0 - 127): 120
0    |  MIDI Event: Chan 10 Note ON: A#2, Velocity (0 - 127): 120
0    |  MIDI Event: Chan 10 Note ON: C#5, Velocity (0 - 127): 115
0    |  MIDI Event: Chan 12 Note ON: D5, Velocity (0 - 127): 120
29   |  MIDI Event: Chan 10 Note OFF: C#5, Velocity (0 - 127): 64
0    |  MIDI Event: Chan 5 Note OFF: E3, Velocity (0 - 127): 64
0    |  MIDI Event: Chan 1 Note OFF: C#4, Velocity (0 - 127): 64
0    |  MIDI Event: Chan 1 Note OFF: A3, Velocity (0 - 127): 64
0    |  MIDI Event: Chan 1 Note OFF: E4, Velocity (0 - 127): 64
0    |  MIDI Event: Chan 5 Note OFF: C#3, Velocity (0 - 127): 64
0    |  MIDI Event: Chan 10 Note OFF: A#2, Velocity (0 - 127): 64
0    |  MIDI Event: Chan 5 Note OFF: A3, Velocity (0 - 127): 64
1    |  MIDI Event: Chan 1 Note ON: A3, Velocity (0 - 127): 73
0    |  MIDI Event: Chan 1 Note ON: C#4, Velocity (0 - 127): 52
0    |  MIDI Event: Chan 1 Note ON: E4, Velocity (0 - 127): 83
0    |  MIDI Event: Chan 5 Note ON: C#3, Velocity (0 - 127): 119
0    |  MIDI Event: Chan 5 Note ON: E3, Velocity (0 - 127): 118
0    |  MIDI Event: Chan 5 Note ON: A3, Velocity (0 - 127): 105
29   |  MIDI Event: Chan 5 Note OFF: A3, Velocity (0 - 127): 64
0    |  MIDI Event: Chan 6 Note OFF: D4, Velocity (0 - 127): 64
0    |  MIDI Event: Chan 2 Note OFF: F#1, Velocity (0 - 127): 64
0    |  MIDI Event: Chan 7 Note OFF: D5, Velocity (0 - 127): 64
0    |  MIDI Event: Chan 3 Note OFF: A3, Velocity (0 - 127): 64
0    |  MIDI Event: Chan 6 Note OFF: D5, Velocity (0 - 127): 64
0    |  MIDI Event: Chan 3 Note OFF: C#4, Velocity (0 - 127): 64
0    |  MIDI Event: Chan 12 Note OFF: D5, Velocity (0 - 127): 64
0    |  MIDI Event: Chan 5 Note OFF: C#3, Velocity (0 - 127): 64
0    |  MIDI Event: Chan 1 Note OFF: E4, Velocity (0 - 127): 64
0    |  MIDI Event: Chan 1 Note OFF: A3, Velocity (0 - 127): 64
0    |  MIDI Event: Chan 3 Note OFF: F#4, Velocity (0 - 127): 64
0    |  MIDI Event: Chan 5 Note OFF: E3, Velocity (0 - 127): 64
0    |  MIDI Event: Chan 1 Note OFF: C#4, Velocity (0 - 127): 64
1    |  MIDI Event: Chan 1 Note ON: B3, Velocity (0 - 127): 58
0    |  MIDI Event: Chan 1 Note ON: D4, Velocity (0 - 127): 91
0    |  MIDI Event: Chan 2 Control/Mode Change: Expression Control (0-127): 64
0    |  MIDI Event: Chan 2 Note ON: B1, Velocity (0 - 127): 120
0    |  MIDI Event: Chan 3 Control/Mode Change: Expression Control (0-127): 64
0    |  MIDI Event: Chan 3 Note ON: B3, Velocity (0 - 127): 120
0    |  MIDI Event: Chan 3 Note ON: D4, Velocity (0 - 127): 120
0    |  MIDI Event: Chan 3 Note ON: F#4, Velocity (0 - 127): 120
0    |  MIDI Event: Chan 5 Note ON: B2, Velocity (0 - 127): 85
0    |  MIDI Event: Chan 5 Note ON: F#3, Velocity (0 - 127): 120
0    |  MIDI Event: Chan 6 Note ON: B3, Velocity (0 - 127): 120
0    |  MIDI Event: Chan 6 Note ON: B4, Velocity (0 - 127): 120
0    |  MIDI Event: Chan 7 Note ON: B4, Velocity (0 - 127): 120
0    |  MIDI Event: Chan 10 Note ON: B1, Velocity (0 - 127): 120
0    |  MIDI Event: Chan 10 Note ON: F#2, Velocity (0 - 127): 120
0    |  MIDI Event: Chan 10 Note ON: B3, Velocity (0 - 127): 120
0    |  MIDI Event: Chan 12 Note ON: B4, Velocity (0 - 127): 120
29   |  MIDI Event: Chan 10 Note OFF: B3, Velocity (0 - 127): 64
0    |  MIDI Event: Chan 10 Note OFF: F#2, Velocity (0 - 127): 64
0    |  MIDI Event: Chan 10 Note OFF: B1, Velocity (0 - 127): 64
30   |  MIDI Event: Chan 6 Note OFF: B4, Velocity (0 - 127): 64
0    |  MIDI Event: Chan 5 Note OFF: B2, Velocity (0 - 127): 64
0    |  MIDI Event: Chan 5 Note OFF: F#3, Velocity (0 - 127): 64
0    |  MIDI Event: Chan 1 Note OFF: B3, Velocity (0 - 127): 64
0    |  MIDI Event: Chan 6 Note OFF: B3, Velocity (0 - 127): 64
0    |  MIDI Event: Chan 7 Note OFF: B4, Velocity (0 - 127): 64
0    |  MIDI Event: Chan 12 Note OFF: B4, Velocity (0 - 127): 64
0    |  MIDI Event: Chan 1 Note OFF: D4, Velocity (0 - 127): 64
1    |  MIDI Event: Chan 1 Note ON: B3, Velocity (0 - 127): 79
0    |  MIDI Event: Chan 1 Note ON: D4, Velocity (0 - 127): 95
0    |  MIDI Event: Chan 1 Note ON: F#4, Velocity (0 - 127): 74
0    |  MIDI Event: Chan 2 Control/Mode Change: Expression Control (0-127): 127
0    |  MIDI Event: Chan 3 Control/Mode Change: Expression Control (0-127): 127
0    |  MIDI Event: Chan 5 Note ON: D3, Velocity (0 - 127): 92
0    |  MIDI Event: Chan 5 Note ON: F#3, Velocity (0 - 127): 87
0    |  MIDI Event: Chan 5 Note ON: D4, Velocity (0 - 127): 95
0    |  MIDI Event: Chan 10 Note ON: A#2, Velocity (0 - 127): 120
0    |  MIDI Event: Chan 10 Note ON: C#5, Velocity (0 - 127): 119
29   |  MIDI Event: Chan 10 Note OFF: C#5, Velocity (0 - 127): 64
0    |  MIDI Event: Chan 10 Note OFF: A#2, Velocity (0 - 127): 64
30   |  MIDI Event: Chan 2 Note OFF: B1, Velocity (0 - 127): 64
1    |  MIDI Event: Chan 2 Control/Mode Change: Expression Control (0-127): 64
0    |  MIDI Event: Chan 2 Note ON: B1, Velocity (0 - 127): 120
0    |  MIDI Event: Chan 3 Control/Mode Change: Expression Control (0-127): 73
0    |  MIDI Event: Chan 6 Note ON: B3, Velocity (0 - 127): 120
0    |  MIDI Event: Chan 6 Note ON: B4, Velocity (0 - 127): 120
0    |  MIDI Event: Chan 7 Note ON: B4, Velocity (0 - 127): 120
0    |  MIDI Event: Chan 10 Note ON: B1, Velocity (0 - 127): 120
0    |  MIDI Event: Chan 10 Note ON: F#2, Velocity (0 - 127): 120
0    |  MIDI Event: Chan 10 Note ON: B3, Velocity (0 - 127): 116
0    |  MIDI Event: Chan 12 Note ON: B4, Velocity (0 - 127): 120
29   |  MIDI Event: Chan 10 Note OFF: B3, Velocity (0 - 127): 64
0    |  MIDI Event: Chan 10 Note OFF: F#2, Velocity (0 - 127): 64
0    |  MIDI Event: Chan 5 Note OFF: D3, Velocity (0 - 127): 64
0    |  MIDI Event: Chan 1 Note OFF: F#4, Velocity (0 - 127): 64
0    |  MIDI Event: Chan 1 Note OFF: D4, Velocity (0 - 127): 64
0    |  MIDI Event: Chan 1 Note OFF: B3, Velocity (0 - 127): 64
0    |  MIDI Event: Chan 5 Note OFF: D4, Velocity (0 - 127): 64
0    |  MIDI Event: Chan 10 Note OFF: B1, Velocity (0 - 127): 64
0    |  MIDI Event: Chan 5 Note OFF: F#3, Velocity (0 - 127): 64
1    |  MIDI Event: Chan 1 Note ON: B3, Velocity (0 - 127): 71
0    |  MIDI Event: Chan 1 Note ON: D4, Velocity (0 - 127): 91
0    |  MIDI Event: Chan 1 Note ON: F#4, Velocity (0 - 127): 60
0    |  MIDI Event: Chan 5 Note ON: F#3, Velocity (0 - 127): 109
0    |  MIDI Event: Chan 5 Note ON: B3, Velocity (0 - 127): 95
29   |  MIDI Event: Chan 5 Note OFF: B3, Velocity (0 - 127): 64
0    |  MIDI Event: Chan 7 Note OFF: B4, Velocity (0 - 127): 64
0    |  MIDI Event: Chan 1 Note OFF: D4, Velocity (0 - 127): 64
0    |  MIDI Event: Chan 12 Note OFF: B4, Velocity (0 - 127): 64
0    |  MIDI Event: Chan 6 Note OFF: B4, Velocity (0 - 127): 64
0    |  MIDI Event: Chan 1 Note OFF: B3, Velocity (0 - 127): 64
0    |  MIDI Event: Chan 5 Note OFF: F#3, Velocity (0 - 127): 64
0    |  MIDI Event: Chan 6 Note OFF: B3, Velocity (0 - 127): 64
0    |  MIDI Event: Chan 1 Note OFF: F#4, Velocity (0 - 127): 64
1    |  MIDI Event: Chan 1 Note ON: D4, Velocity (0 - 127): 80
0    |  MIDI Event: Chan 1 Note ON: F#4, Velocity (0 - 127): 62
0    |  MIDI Event: Chan 1 Note ON: B4, Velocity (0 - 127): 91
0    |  MIDI Event: Chan 2 Control/Mode Change: Expression Control (0-127): 127
0    |  MIDI Event: Chan 3 Control/Mode Change: Expression Control (0-127): 127
0    |  MIDI Event: Chan 5 Note ON: D3, Velocity (0 - 127): 103
0    |  MIDI Event: Chan 5 Note ON: F#3, Velocity (0 - 127): 115
0    |  MIDI Event: Chan 10 Note ON: A#2, Velocity (0 - 127): 119
0    |  MIDI Event: Chan 10 Note ON: C#5, Velocity (0 - 127): 119
29   |  MIDI Event: Chan 10 Note OFF: C#5, Velocity (0 - 127): 64
0    |  MIDI Event: Chan 5 Note OFF: D3, Velocity (0 - 127): 64
0    |  MIDI Event: Chan 10 Note OFF: A#2, Velocity (0 - 127): 64
0    |  MIDI Event: Chan 1 Note OFF: B4, Velocity (0 - 127): 64
0    |  MIDI Event: Chan 5 Note OFF: F#3, Velocity (0 - 127): 64
0    |  MIDI Event: Chan 1 Note OFF: D4, Velocity (0 - 127): 64
0    |  MIDI Event: Chan 1 Note OFF: F#4, Velocity (0 - 127): 64
1    |  MIDI Event: Chan 1 Note ON: B3, Velocity (0 - 127): 51
0    |  MIDI Event: Chan 1 Note ON: D4, Velocity (0 - 127): 85
0    |  MIDI Event: Chan 1 Note ON: F#4, Velocity (0 - 127): 59
0    |  MIDI Event: Chan 5 Note ON: B2, Velocity (0 - 127): 92
0    |  MIDI Event: Chan 5 Note ON: E3, Velocity (0 - 127): 98
0    |  MIDI Event: Chan 6 Note ON: A3, Velocity (0 - 127): 98
0    |  MIDI Event: Chan 6 Note ON: A4, Velocity (0 - 127): 98
0    |  MIDI Event: Chan 7 Note ON: A4, Velocity (0 - 127): 120
0    |  MIDI Event: Chan 12 Note ON: A4, Velocity (0 - 127): 120
29   |  MIDI Event: Chan 12 Note OFF: A4, Velocity (0 - 127): 64
0    |  MIDI Event: Chan 1 Note OFF: D4, Velocity (0 - 127): 64
0    |  MIDI Event: Chan 3 Note OFF: F#4, Velocity (0 - 127): 64
0    |  MIDI Event: Chan 5 Note OFF: B2, Velocity (0 - 127): 64
0    |  MIDI Event: Chan 2 Note OFF: B1, Velocity (0 - 127): 64
0    |  MIDI Event: Chan 3 Note OFF: D4, Velocity (0 - 127): 64
0    |  MIDI Event: Chan 3 Note OFF: B3, Velocity (0 - 127): 64
0    |  MIDI Event: Chan 1 Note OFF: B3, Velocity (0 - 127): 64
0    |  MIDI Event: Chan 6 Note OFF: A4, Velocity (0 - 127): 64
0    |  MIDI Event: Chan 5 Note OFF: E3, Velocity (0 - 127): 64
0    |  MIDI Event: Chan 1 Note OFF: F#4, Velocity (0 - 127): 64
0    |  MIDI Event: Chan 7 Note OFF: A4, Velocity (0 - 127): 64
0    |  MIDI Event: Chan 6 Note OFF: A3, Velocity (0 - 127): 64
1    |  MIDI Event: Chan 1 Note ON: G3, Velocity (0 - 127): 74
0    |  MIDI Event: Chan 1 Note ON: B3, Velocity (0 - 127): 94
0    |  MIDI Event: Chan 1 Note ON: D4, Velocity (0 - 127): 91
0    |  MIDI Event: Chan 2 Control/Mode Change: Expression Control (0-127): 64
0    |  MIDI Event: Chan 2 Note ON: G1, Velocity (0 - 127): 120
0    |  MIDI Event: Chan 3 Control/Mode Change: Expression Control (0-127): 71
0    |  MIDI Event: Chan 3 Note ON: B3, Velocity (0 - 127): 120
0    |  MIDI Event: Chan 3 Note ON: D4, Velocity (0 - 127): 120
0    |  MIDI Event: Chan 3 Note ON: G4, Velocity (0 - 127): 120
0    |  MIDI Event: Chan 5 Note ON: G2, Velocity (0 - 127): 98
0    |  MIDI Event: Chan 5 Note ON: D3, Velocity (0 - 127): 116
0    |  MIDI Event: Chan 6 Note ON: B3, Velocity (0 - 127): 98
0    |  MIDI Event: Chan 6 Note ON: B4, Velocity (0 - 127): 98
0    |  MIDI Event: Chan 7 Note ON: B4, Velocity (0 - 127): 120
0    |  MIDI Event: Chan 10 Note ON: B1, Velocity (0 - 127): 120
0    |  MIDI Event: Chan 10 Note ON: F#2, Velocity (0 - 127): 120
0    |  MIDI Event: Chan 10 Note ON: B3, Velocity (0 - 127): 118
0    |  MIDI Event: Chan 12 Note ON: B4, Velocity (0 - 127): 120
29   |  MIDI Event: Chan 12 Note OFF: B4, Velocity (0 - 127): 64
0    |  MIDI Event: Chan 10 Note OFF: B3, Velocity (0 - 127): 64
0    |  MIDI Event: Chan 7 Note OFF: B4, Velocity (0 - 127): 64
0    |  MIDI Event: Chan 6 Note OFF: B3, Velocity (0 - 127): 64
0    |  MIDI Event: Chan 10 Note OFF: F#2, Velocity (0 - 127): 64
0    |  MIDI Event: Chan 6 Note OFF: B4, Velocity (0 - 127): 64
0    |  MIDI Event: Chan 10 Note OFF: B1, Velocity (0 - 127): 64
1    |  MIDI Event: Chan 6 Note ON: D4, Velocity (0 - 127): 54
0    |  MIDI Event: Chan 6 Note ON: D5, Velocity (0 - 127): 54
0    |  MIDI Event: Chan 7 Note ON: D5, Velocity (0 - 127): 120
0    |  MIDI Event: Chan 12 Note ON: D5, Velocity (0 - 127): 120
29   |  MIDI Event: Chan 12 Note OFF: D5, Velocity (0 - 127): 64
0    |  MIDI Event: Chan 5 Note OFF: G2, Velocity (0 - 127): 64
0    |  MIDI Event: Chan 1 Note OFF: B3, Velocity (0 - 127): 64
0    |  MIDI Event: Chan 1 Note OFF: G3, Velocity (0 - 127): 64
0    |  MIDI Event: Chan 5 Note OFF: D3, Velocity (0 - 127): 64
0    |  MIDI Event: Chan 6 Note OFF: D4, Velocity (0 - 127): 64
0    |  MIDI Event: Chan 1 Note OFF: D4, Velocity (0 - 127): 64
0    |  MIDI Event: Chan 7 Note OFF: D5, Velocity (0 - 127): 64
0    |  MIDI Event: Chan 6 Note OFF: D5, Velocity (0 - 127): 64
1    |  MIDI Event: Chan 1 Note ON: B3, Velocity (0 - 127): 70
0    |  MIDI Event: Chan 1 Note ON: D4, Velocity (0 - 127): 94
0    |  MIDI Event: Chan 1 Note ON: G4, Velocity (0 - 127): 101
0    |  MIDI Event: Chan 2 Control/Mode Change: Expression Control (0-127): 127
0    |  MIDI Event: Chan 3 Control/Mode Change: Expression Control (0-127): 127
0    |  MIDI Event: Chan 5 Note ON: D3, Velocity (0 - 127): 79
0    |  MIDI Event: Chan 5 Note ON: G3, Velocity (0 - 127): 111
0    |  MIDI Event: Chan 5 Note ON: B3, Velocity (0 - 127): 100
0    |  MIDI Event: Chan 6 Note ON: B3, Velocity (0 - 127): 116
0    |  MIDI Event: Chan 6 Note ON: B4, Velocity (0 - 127): 116
0    |  MIDI Event: Chan 7 Note ON: B4, Velocity (0 - 127): 120
0    |  MIDI Event: Chan 10 Note ON: A#2, Velocity (0 - 127): 120
0    |  MIDI Event: Chan 10 Note ON: C#5, Velocity (0 - 127): 109
0    |  MIDI Event: Chan 12 Note ON: B4, Velocity (0 - 127): 120
29   |  MIDI Event: Chan 10 Note OFF: C#5, Velocity (0 - 127): 64
0    |  MIDI Event: Chan 10 Note OFF: A#2, Velocity (0 - 127): 64
30   |  MIDI Event: Chan 6 Note OFF: B4, Velocity (0 - 127): 64
0    |  MIDI Event: Chan 12 Note OFF: B4, Velocity (0 - 127): 64
0    |  MIDI Event: Chan 2 Note OFF: G1, Velocity (0 - 127): 64
0    |  MIDI Event: Chan 6 Note OFF: B3, Velocity (0 - 127): 64
0    |  MIDI Event: Chan 7 Note OFF: B4, Velocity (0 - 127): 64
1    |  MIDI Event: Chan 2 Control/Mode Change: Expression Control (0-127): 64
0    |  MIDI Event: Chan 2 Note ON: G1, Velocity (0 - 127): 120
0    |  MIDI Event: Chan 3 Control/Mode Change: Expression Control (0-127): 80
0    |  MIDI Event: Chan 10 Note ON: B1, Velocity (0 - 127): 120
0    |  MIDI Event: Chan 10 Note ON: F#2, Velocity (0 - 127): 120
0    |  MIDI Event: Chan 10 Note ON: B3, Velocity (0 - 127): 116
29   |  MIDI Event: Chan 10 Note OFF: B3, Velocity (0 - 127): 64
0    |  MIDI Event: Chan 5 Note OFF: G3, Velocity (0 - 127): 64
0    |  MIDI Event: Chan 1 Note OFF: G4, Velocity (0 - 127): 64
0    |  MIDI Event: Chan 5 Note OFF: B3, Velocity (0 - 127): 64
0    |  MIDI Event: Chan 1 Note OFF: D4, Velocity (0 - 127): 64
0    |  MIDI Event: Chan 1 Note OFF: B3, Velocity (0 - 127): 64
0    |  MIDI Event: Chan 5 Note OFF: D3, Velocity (0 - 127): 64
0    |  MIDI Event: Chan 10 Note OFF: F#2, Velocity (0 - 127): 64
0    |  MIDI Event: Chan 10 Note OFF: B1, Velocity (0 - 127): 64
1    |  MIDI Event: Chan 1 Note ON: B3, Velocity (0 - 127): 52
0    |  MIDI Event: Chan 1 Note ON: D4, Velocity (0 - 127): 85
0    |  MIDI Event: Chan 1 Note ON: G4, Velocity (0 - 127): 94
0    |  MIDI Event: Chan 5 Note ON: D3, Velocity (0 - 127): 82
0    |  MIDI Event: Chan 5 Note ON: G3, Velocity (0 - 127): 98
0    |  MIDI Event: Chan 5 Note ON: B3, Velocity (0 - 127): 85
0    |  MIDI Event: Chan 6 Note ON: A3, Velocity (0 - 127): 83
0    |  MIDI Event: Chan 6 Note ON: A4, Velocity (0 - 127): 83
0    |  MIDI Event: Chan 7 Note ON: A4, Velocity (0 - 127): 120
0    |  MIDI Event: Chan 12 Note ON: A4, Velocity (0 - 127): 120
29   |  MIDI Event: Chan 12 Note OFF: A4, Velocity (0 - 127): 64
0    |  MIDI Event: Chan 1 Note OFF: B3, Velocity (0 - 127): 64
0    |  MIDI Event: Chan 1 Note OFF: D4, Velocity (0 - 127): 64
0    |  MIDI Event: Chan 5 Note OFF: B3, Velocity (0 - 127): 64
0    |  MIDI Event: Chan 5 Note OFF: D3, Velocity (0 - 127): 64
0    |  MIDI Event: Chan 1 Note OFF: G4, Velocity (0 - 127): 64
0    |  MIDI Event: Chan 5 Note OFF: G3, Velocity (0 - 127): 64
0    |  MIDI Event: Chan 7 Note OFF: A4, Velocity (0 - 127): 64
0    |  MIDI Event: Chan 6 Note OFF: A4, Velocity (0 - 127): 64
0    |  MIDI Event: Chan 6 Note OFF: A3, Velocity (0 - 127): 64
1    |  MIDI Event: Chan 1 Note ON: D4, Velocity (0 - 127): 78
0    |  MIDI Event: Chan 1 Note ON: G4, Velocity (0 - 127): 100
0    |  MIDI Event: Chan 1 Note ON: B4, Velocity (0 - 127): 46
0    |  MIDI Event: Chan 2 Control/Mode Change: Expression Control (0-127): 127
0    |  MIDI Event: Chan 3 Control/Mode Change: Expression Control (0-127): 127
0    |  MIDI Event: Chan 5 Note ON: G2, Velocity (0 - 127): 109
0    |  MIDI Event: Chan 5 Note ON: D3, Velocity (0 - 127): 109
0    |  MIDI Event: Chan 6 Note ON: B3, Velocity (0 - 127): 98
0    |  MIDI Event: Chan 6 Note ON: B4, Velocity (0 - 127): 98
0    |  MIDI Event: Chan 7 Note ON: B4, Velocity (0 - 127): 120
0    |  MIDI Event: Chan 10 Note ON: A#2, Velocity (0 - 127): 120
0    |  MIDI Event: Chan 10 Note ON: C#5, Velocity (0 - 127): 115
0    |  MIDI Event: Chan 12 Note ON: B4, Velocity (0 - 127): 120
29   |  MIDI Event: Chan 12 Note OFF: B4, Velocity (0 - 127): 64
0    |  MIDI Event: Chan 7 Note OFF: B4, Velocity (0 - 127): 64
0    |  MIDI Event: Chan 1 Note OFF: D4, Velocity (0 - 127): 64
0    |  MIDI Event: Chan 1 Note OFF: G4, Velocity (0 - 127): 64
0    |  MIDI Event: Chan 6 Note OFF: B3, Velocity (0 - 127): 64
0    |  MIDI Event: Chan 5 Note OFF: G2, Velocity (0 - 127): 64
0    |  MIDI Event: Chan 1 Note OFF: B4, Velocity (0 - 127): 64
0    |  MIDI Event: Chan 5 Note OFF: D3, Velocity (0 - 127): 64
0    |  MIDI Event: Chan 10 Note OFF: C#5, Velocity (0 - 127): 64
0    |  MIDI Event: Chan 10 Note OFF: A#2, Velocity (0 - 127): 64
0    |  MIDI Event: Chan 6 Note OFF: B4, Velocity (0 - 127): 64
1    |  MIDI Event: Chan 1 Note ON: B3, Velocity (0 - 127): 45
0    |  MIDI Event: Chan 1 Note ON: D4, Velocity (0 - 127): 73
0    |  MIDI Event: Chan 1 Note ON: G4, Velocity (0 - 127): 86
0    |  MIDI Event: Chan 5 Note ON: G2, Velocity (0 - 127): 101
0    |  MIDI Event: Chan 5 Note ON: E3, Velocity (0 - 127): 116
0    |  MIDI Event: Chan 6 Note ON: A3, Velocity (0 - 127): 94
0    |  MIDI Event: Chan 6 Note ON: A4, Velocity (0 - 127): 94
0    |  MIDI Event: Chan 7 Note ON: A4, Velocity (0 - 127): 120
0    |  MIDI Event: Chan 12 Note ON: A4, Velocity (0 - 127): 120
29   |  MIDI Event: Chan 12 Note OFF: A4, Velocity (0 - 127): 64
0    |  MIDI Event: Chan 1 Note OFF: D4, Velocity (0 - 127): 64
0    |  MIDI Event: Chan 3 Note OFF: D4, Velocity (0 - 127): 64
0    |  MIDI Event: Chan 5 Note OFF: G2, Velocity (0 - 127): 64
0    |  MIDI Event: Chan 3 Note OFF: B3, Velocity (0 - 127): 64
0    |  MIDI Event: Chan 3 Note OFF: G4, Velocity (0 - 127): 64
0    |  MIDI Event: Chan 2 Note OFF: G1, Velocity (0 - 127): 64
0    |  MIDI Event: Chan 1 Note OFF: B3, Velocity (0 - 127): 64
0    |  MIDI Event: Chan 6 Note OFF: A4, Velocity (0 - 127): 64
0    |  MIDI Event: Chan 5 Note OFF: E3, Velocity (0 - 127): 64
0    |  MIDI Event: Chan 1 Note OFF: G4, Velocity (0 - 127): 64
0    |  MIDI Event: Chan 7 Note OFF: A4, Velocity (0 - 127): 64
0    |  MIDI Event: Chan 6 Note OFF: A3, Velocity (0 - 127): 64
1    |  MIDI Event: Chan 1 Note ON: F#3, Velocity (0 - 127): 35
0    |  MIDI Event: Chan 1 Note ON: A3, Velocity (0 - 127): 85
0    |  MIDI Event: Chan 1 Note ON: D4, Velocity (0 - 127): 79
0    |  MIDI Event: Chan 2 Control/Mode Change: Expression Control (0-127): 64
0    |  MIDI Event: Chan 2 Note ON: D2, Velocity (0 - 127): 120
0    |  MIDI Event: Chan 3 Control/Mode Change: Expression Control (0-127): 64
0    |  MIDI Event: Chan 3 Note ON: A3, Velocity (0 - 127): 120
0    |  MIDI Event: Chan 3 Note ON: D4, Velocity (0 - 127): 120
0    |  MIDI Event: Chan 3 Note ON: F#4, Velocity (0 - 127): 120
0    |  MIDI Event: Chan 5 Note ON: A2, Velocity (0 - 127): 90
0    |  MIDI Event: Chan 5 Note ON: D3, Velocity (0 - 127): 105
0    |  MIDI Event: Chan 6 Note ON: D4, Velocity (0 - 127): 120
0    |  MIDI Event: Chan 6 Note ON: D5, Velocity (0 - 127): 120
0    |  MIDI Event: Chan 7 Note ON: D5, Velocity (0 - 127): 120
0    |  MIDI Event: Chan 10 Note ON: B1, Velocity (0 - 127): 120
0    |  MIDI Event: Chan 10 Note ON: F#2, Velocity (0 - 127): 120
0    |  MIDI Event: Chan 10 Note ON: B3, Velocity (0 - 127): 116
0    |  MIDI Event: Chan 12 Note ON: D5, Velocity (0 - 127): 120
29   |  MIDI Event: Chan 10 Note OFF: B3, Velocity (0 - 127): 64
0    |  MIDI Event: Chan 10 Note OFF: F#2, Velocity (0 - 127): 64
0    |  MIDI Event: Chan 10 Note OFF: B1, Velocity (0 - 127): 64
30   |  MIDI Event: Chan 12 Note OFF: D5, Velocity (0 - 127): 64
0    |  MIDI Event: Chan 6 Note OFF: D4, Velocity (0 - 127): 64
0    |  MIDI Event: Chan 1 Note OFF: D4, Velocity (0 - 127): 64
0    |  MIDI Event: Chan 5 Note OFF: A2, Velocity (0 - 127): 64
0    |  MIDI Event: Chan 1 Note OFF: F#3, Velocity (0 - 127): 64
0    |  MIDI Event: Chan 5 Note OFF: D3, Velocity (0 - 127): 64
0    |  MIDI Event: Chan 6 Note OFF: D5, Velocity (0 - 127): 64
0    |  MIDI Event: Chan 7 Note OFF: D5, Velocity (0 - 127): 64
0    |  MIDI Event: Chan 1 Note OFF: A3, Velocity (0 - 127): 64
1    |  MIDI Event: Chan 1 Note ON: A3, Velocity (0 - 127): 69
0    |  MIDI Event: Chan 1 Note ON: D4, Velocity (0 - 127): 98
0    |  MIDI Event: Chan 1 Note ON: F#4, Velocity (0 - 127): 74
0    |  MIDI Event: Chan 2 Control/Mode Change: Expression Control (0-127): 127
0    |  MIDI Event: Chan 3 Control/Mode Change: Expression Control (0-127): 127
0    |  MIDI Event: Chan 5 Note ON: A2, Velocity (0 - 127): 100
0    |  MIDI Event: Chan 5 Note ON: D3, Velocity (0 - 127): 111
0    |  MIDI Event: Chan 5 Note ON: F#3, Velocity (0 - 127): 89
0    |  MIDI Event: Chan 10 Note ON: A#2, Velocity (0 - 127): 120
0    |  MIDI Event: Chan 10 Note ON: C#5, Velocity (0 - 127): 109
29   |  MIDI Event: Chan 10 Note OFF: C#5, Velocity (0 - 127): 64
0    |  MIDI Event: Chan 10 Note OFF: A#2, Velocity (0 - 127): 64
30   |  MIDI Event: Chan 2 Note OFF: D2, Velocity (0 - 127): 64
1    |  MIDI Event: Chan 2 Control/Mode Change: Expression Control (0-127): 64
0    |  MIDI Event: Chan 2 Note ON: D2, Velocity (0 - 127): 120
0    |  MIDI Event: Chan 3 Control/Mode Change: Expression Control (0-127): 73
0    |  MIDI Event: Chan 6 Note ON: D4, Velocity (0 - 127): 120
0    |  MIDI Event: Chan 6 Note ON: D5, Velocity (0 - 127): 120
0    |  MIDI Event: Chan 7 Note ON: D5, Velocity (0 - 127): 120
0    |  MIDI Event: Chan 10 Note ON: B1, Velocity (0 - 127): 120
0    |  MIDI Event: Chan 10 Note ON: F#2, Velocity (0 - 127): 120
0    |  MIDI Event: Chan 10 Note ON: B3, Velocity (0 - 127): 116
0    |  MIDI Event: Chan 12 Note ON: D5, Velocity (0 - 127): 120
29   |  MIDI Event: Chan 10 Note OFF: B3, Velocity (0 - 127): 64
0    |  MIDI Event: Chan 10 Note OFF: F#2, Velocity (0 - 127): 64
0    |  MIDI Event: Chan 5 Note OFF: A2, Velocity (0 - 127): 64
0    |  MIDI Event: Chan 1 Note OFF: F#4, Velocity (0 - 127): 64
0    |  MIDI Event: Chan 1 Note OFF: D4, Velocity (0 - 127): 64
0    |  MIDI Event: Chan 1 Note OFF: A3, Velocity (0 - 127): 64
0    |  MIDI Event: Chan 5 Note OFF: F#3, Velocity (0 - 127): 64
0    |  MIDI Event: Chan 10 Note OFF: B1, Velocity (0 - 127): 64
0    |  MIDI Event: Chan 5 Note OFF: D3, Velocity (0 - 127): 64
1    |  MIDI Event: Chan 1 Note ON: F#3, Velocity (0 - 127): 44
0    |  MIDI Event: Chan 1 Note ON: A3, Velocity (0 - 127): 78
0    |  MIDI Event: Chan 1 Note ON: D4, Velocity (0 - 127): 58
0    |  MIDI Event: Chan 5 Note ON: A2, Velocity (0 - 127): 85
0    |  MIDI Event: Chan 5 Note ON: D3, Velocity (0 - 127): 105
0    |  MIDI Event: Chan 5 Note ON: F#3, Velocity (0 - 127): 81
29   |  MIDI Event: Chan 5 Note OFF: F#3, Velocity (0 - 127): 64
0    |  MIDI Event: Chan 6 Note OFF: D4, Velocity (0 - 127): 64
0    |  MIDI Event: Chan 7 Note OFF: D5, Velocity (0 - 127): 64
0    |  MIDI Event: Chan 1 Note OFF: A3, Velocity (0 - 127): 64
0    |  MIDI Event: Chan 12 Note OFF: D5, Velocity (0 - 127): 64
0    |  MIDI Event: Chan 6 Note OFF: D5, Velocity (0 - 127): 64
0    |  MIDI Event: Chan 1 Note OFF: F#3, Velocity (0 - 127): 64
0    |  MIDI Event: Chan 5 Note OFF: D3, Velocity (0 - 127): 64
0    |  MIDI Event: Chan 5 Note OFF: A2, Velocity (0 - 127): 64
0    |  MIDI Event: Chan 1 Note OFF: D4, Velocity (0 - 127): 64
1    |  MIDI Event: Chan 1 Note ON: A3, Velocity (0 - 127): 57
0    |  MIDI Event: Chan 1 Note ON: D4, Velocity (0 - 127): 91
0    |  MIDI Event: Chan 1 Note ON: F#4, Velocity (0 - 127): 77
0    |  MIDI Event: Chan 2 Control/Mode Change: Expression Control (0-127): 127
0    |  MIDI Event: Chan 3 Control/Mode Change: Expression Control (0-127): 127
0    |  MIDI Event: Chan 5 Note ON: D3, Velocity (0 - 127): 109
0    |  MIDI Event: Chan 5 Note ON: F#3, Velocity (0 - 127): 89
0    |  MIDI Event: Chan 5 Note ON: A3, Velocity (0 - 127): 109
0    |  MIDI Event: Chan 10 Note ON: A#2, Velocity (0 - 127): 120
0    |  MIDI Event: Chan 10 Note ON: C#5, Velocity (0 - 127): 119
29   |  MIDI Event: Chan 10 Note OFF: C#5, Velocity (0 - 127): 64
0    |  MIDI Event: Chan 5 Note OFF: A3, Velocity (0 - 127): 64
0    |  MIDI Event: Chan 5 Note OFF: D3, Velocity (0 - 127): 64
0    |  MIDI Event: Chan 1 Note OFF: F#4, Velocity (0 - 127): 64
0    |  MIDI Event: Chan 5 Note OFF: F#3, Velocity (0 - 127): 64
0    |  MIDI Event: Chan 10 Note OFF: A#2, Velocity (0 - 127): 64
0    |  MIDI Event: Chan 1 Note OFF: A3, Velocity (0 - 127): 64
0    |  MIDI Event: Chan 1 Note OFF: D4, Velocity (0 - 127): 64
1    |  MIDI Event: Chan 1 Note ON: F#3, Velocity (0 - 127): 35
0    |  MIDI Event: Chan 1 Note ON: A3, Velocity (0 - 127): 79
0    |  MIDI Event: Chan 1 Note ON: D4, Velocity (0 - 127): 56
0    |  MIDI Event: Chan 5 Note ON: D3, Velocity (0 - 127): 111
0    |  MIDI Event: Chan 5 Note ON: F#3, Velocity (0 - 127): 100
0    |  MIDI Event: Chan 5 Note ON: A3, Velocity (0 - 127): 100
0    |  MIDI Event: Chan 6 Note ON: D4, Velocity (0 - 127): 89
0    |  MIDI Event: Chan 6 Note ON: D5, Velocity (0 - 127): 89
0    |  MIDI Event: Chan 7 Note ON: D5, Velocity (0 - 127): 120
0    |  MIDI Event: Chan 12 Note ON: D5, Velocity (0 - 127): 120
29   |  MIDI Event: Chan 12 Note OFF: D5, Velocity (0 - 127): 64
0    |  MIDI Event: Chan 1 Note OFF: F#3, Velocity (0 - 127): 64
0    |  MIDI Event: Chan 1 Note OFF: A3, Velocity (0 - 127): 64
0    |  MIDI Event: Chan 5 Note OFF: A3, Velocity (0 - 127): 64
0    |  MIDI Event: Chan 5 Note OFF: D3, Velocity (0 - 127): 64
0    |  MIDI Event: Chan 1 Note OFF: D4, Velocity (0 - 127): 64
0    |  MIDI Event: Chan 2 Note OFF: D2, Velocity (0 - 127): 64
0    |  MIDI Event: Chan 5 Note OFF: F#3, Velocity (0 - 127): 64
0    |  MIDI Event: Chan 6 Note OFF: D5, Velocity (0 - 127): 64
0    |  MIDI Event: Chan 6 Note OFF: D4, Velocity (0 - 127): 64
0    |  MIDI Event: Chan 7 Note OFF: D5, Velocity (0 - 127): 64
1    |  MIDI Event: Chan 1 Note ON: F#3, Velocity (0 - 127): 49
0    |  MIDI Event: Chan 1 Note ON: A3, Velocity (0 - 127): 85
0    |  MIDI Event: Chan 1 Note ON: D4, Velocity (0 - 127): 75
0    |  MIDI Event: Chan 2 Control/Mode Change: Expression Control (0-127): 64
0    |  MIDI Event: Chan 2 Note ON: D2, Velocity (0 - 127): 120
0    |  MIDI Event: Chan 3 Control/Mode Change: Expression Control (0-127): 71
0    |  MIDI Event: Chan 5 Note ON: A2, Velocity (0 - 127): 105
0    |  MIDI Event: Chan 5 Note ON: D3, Velocity (0 - 127): 116
0    |  MIDI Event: Chan 6 Note ON: E4, Velocity (0 - 127): 81
0    |  MIDI Event: Chan 6 Note ON: E5, Velocity (0 - 127): 81
0    |  MIDI Event: Chan 7 Note ON: E5, Velocity (0 - 127): 120
0    |  MIDI Event: Chan 10 Note ON: B1, Velocity (0 - 127): 120
0    |  MIDI Event: Chan 10 Note ON: F#2, Velocity (0 - 127): 120
0    |  MIDI Event: Chan 10 Note ON: B3, Velocity (0 - 127): 118
0    |  MIDI Event: Chan 12 Note ON: E5, Velocity (0 - 127): 120
29   |  MIDI Event: Chan 12 Note OFF: E5, Velocity (0 - 127): 64
0    |  MIDI Event: Chan 10 Note OFF: B3, Velocity (0 - 127): 64
0    |  MIDI Event: Chan 7 Note OFF: E5, Velocity (0 - 127): 64
0    |  MIDI Event: Chan 6 Note OFF: E4, Velocity (0 - 127): 64
0    |  MIDI Event: Chan 10 Note OFF: F#2, Velocity (0 - 127): 64
0    |  MIDI Event: Chan 6 Note OFF: E5, Velocity (0 - 127): 64
0    |  MIDI Event: Chan 10 Note OFF: B1, Velocity (0 - 127): 64
1    |  MIDI Event: Chan 6 Note ON: D4, Velocity (0 - 127): 95
0    |  MIDI Event: Chan 6 Note ON: D5, Velocity (0 - 127): 95
0    |  MIDI Event: Chan 7 Note ON: D5, Velocity (0 - 127): 120
0    |  MIDI Event: Chan 12 Note ON: D5, Velocity (0 - 127): 120
29   |  MIDI Event: Chan 12 Note OFF: D5, Velocity (0 - 127): 64
0    |  MIDI Event: Chan 5 Note OFF: A2, Velocity (0 - 127): 64
0    |  MIDI Event: Chan 1 Note OFF: A3, Velocity (0 - 127): 64
0    |  MIDI Event: Chan 1 Note OFF: F#3, Velocity (0 - 127): 64
0    |  MIDI Event: Chan 5 Note OFF: D3, Velocity (0 - 127): 64
0    |  MIDI Event: Chan 6 Note OFF: D4, Velocity (0 - 127): 64
0    |  MIDI Event: Chan 1 Note OFF: D4, Velocity (0 - 127): 64
0    |  MIDI Event: Chan 7 Note OFF: D5, Velocity (0 - 127): 64
0    |  MIDI Event: Chan 6 Note OFF: D5, Velocity (0 - 127): 64
1    |  MIDI Event: Chan 1 Note ON: A3, Velocity (0 - 127): 56
0    |  MIDI Event: Chan 1 Note ON: D4, Velocity (0 - 127): 84
0    |  MIDI Event: Chan 1 Note ON: F#4, Velocity (0 - 127): 49
0    |  MIDI Event: Chan 2 Control/Mode Change: Expression Control (0-127): 127
0    |  MIDI Event: Chan 3 Control/Mode Change: Expression Control (0-127): 127
0    |  MIDI Event: Chan 5 Note ON: D3, Velocity (0 - 127): 105
0    |  MIDI Event: Chan 5 Note ON: F#3, Velocity (0 - 127): 115
0    |  MIDI Event: Chan 6 Note ON: E4, Velocity (0 - 127): 111
0    |  MIDI Event: Chan 6 Note ON: E5, Velocity (0 - 127): 111
0    |  MIDI Event: Chan 7 Note ON: E5, Velocity (0 - 127): 120
0    |  MIDI Event: Chan 10 Note ON: A#2, Velocity (0 - 127): 120
0    |  MIDI Event: Chan 10 Note ON: C#5, Velocity (0 - 127): 115
0    |  MIDI Event: Chan 12 Note ON: E5, Velocity (0 - 127): 120
29   |  MIDI Event: Chan 10 Note OFF: C#5, Velocity (0 - 127): 64
0    |  MIDI Event: Chan 5 Note OFF: D3, Velocity (0 - 127): 64
0    |  MIDI Event: Chan 1 Note OFF: A3, Velocity (0 - 127): 64
0    |  MIDI Event: Chan 1 Note OFF: F#4, Velocity (0 - 127): 64
0    |  MIDI Event: Chan 10 Note OFF: A#2, Velocity (0 - 127): 64
0    |  MIDI Event: Chan 1 Note OFF: D4, Velocity (0 - 127): 64
0    |  MIDI Event: Chan 5 Note OFF: F#3, Velocity (0 - 127): 64
1    |  MIDI Event: Chan 1 Note ON: A3, Velocity (0 - 127): 84
0    |  MIDI Event: Chan 1 Note ON: D4, Velocity (0 - 127): 94
0    |  MIDI Event: Chan 1 Note ON: F#4, Velocity (0 - 127): 76
0    |  MIDI Event: Chan 5 Note ON: D3, Velocity (0 - 127): 100
0    |  MIDI Event: Chan 5 Note ON: F#3, Velocity (0 - 127): 92
21   |  MIDI Event: Chan 6 Pitch Bend Change (0-16383): 7749 (factor==0.992841)
2    |  MIDI Event: Chan 6 Pitch Bend Change (0-16383): 6215 (factor==0.968447)
3    |  MIDI Event: Chan 6 Pitch Bend Change (0-16383): 4197 (factor==0.937266)
2    |  MIDI Event: Chan 6 Pitch Bend Change (0-16383): 2422 (factor==0.91067)
1    |  MIDI Event: Chan 5 Note OFF: F#3, Velocity (0 - 127): 64
0    |  MIDI Event: Chan 3 Note OFF: D4, Velocity (0 - 127): 64
0    |  MIDI Event: Chan 3 Note OFF: F#4, Velocity (0 - 127): 64
0    |  MIDI Event: Chan 2 Note OFF: D2, Velocity (0 - 127): 64
0    |  MIDI Event: Chan 6 Note OFF: E5, Velocity (0 - 127): 64
0    |  MIDI Event: Chan 12 Note OFF: E5, Velocity (0 - 127): 64
0    |  MIDI Event: Chan 3 Note OFF: A3, Velocity (0 - 127): 64
0    |  MIDI Event: Chan 6 Note OFF: E4, Velocity (0 - 127): 64
0    |  MIDI Event: Chan 1 Note OFF: F#4, Velocity (0 - 127): 64
0    |  MIDI Event: Chan 1 Note OFF: A3, Velocity (0 - 127): 64
0    |  MIDI Event: Chan 7 Note OFF: E5, Velocity (0 - 127): 64
0    |  MIDI Event: Chan 5 Note OFF: D3, Velocity (0 - 127): 64
0    |  MIDI Event: Chan 1 Note OFF: D4, Velocity (0 - 127): 64
1    |  MIDI Event: Chan 1 Note ON: E3, Velocity (0 - 127): 47
0    |  MIDI Event: Chan 1 Note ON: A3, Velocity (0 - 127): 89
0    |  MIDI Event: Chan 1 Note ON: C#4, Velocity (0 - 127): 52
0    |  MIDI Event: Chan 2 Control/Mode Change: Expression Control (0-127): 64
0    |  MIDI Event: Chan 2 Note ON: A1, Velocity (0 - 127): 120
0    |  MIDI Event: Chan 3 Control/Mode Change: Expression Control (0-127): 80
0    |  MIDI Event: Chan 3 Note ON: A3, Velocity (0 - 127): 120
0    |  MIDI Event: Chan 3 Note ON: C#4, Velocity (0 - 127): 120
0    |  MIDI Event: Chan 3 Note ON: E4, Velocity (0 - 127): 120
0    |  MIDI Event: Chan 5 Note ON: A2, Velocity (0 - 127): 101
0    |  MIDI Event: Chan 5 Note ON: E3, Velocity (0 - 127): 101
0    |  MIDI Event: Chan 6 Note ON: F#4, Velocity (0 - 127): 119
0    |  MIDI Event: Chan 6 Note ON: F#5, Velocity (0 - 127): 119
0    |  MIDI Event: Chan 7 Note ON: F#5, Velocity (0 - 127): 120
0    |  MIDI Event: Chan 10 Note ON: B1, Velocity (0 - 127): 120
0    |  MIDI Event: Chan 10 Note ON: F#2, Velocity (0 - 127): 120
0    |  MIDI Event: Chan 10 Note ON: B3, Velocity (0 - 127): 119
0    |  MIDI Event: Chan 12 Note ON: F#5, Velocity (0 - 127): 120
1    |  MIDI Event: Chan 6 Pitch Bend Change (0-16383): 1211 (factor==0.89296)
2    |  MIDI Event: Chan 6 Pitch Bend Change (0-16383): 646 (factor==0.884815)
3    |  MIDI Event: Chan 6 Pitch Bend Change (0-16383): 565 (factor==0.883653)
2    |  MIDI Event: Chan 6 Pitch Bend Change (0-16383): 646 (factor==0.884815)
3    |  MIDI Event: Chan 6 Pitch Bend Change (0-16383): 1373 (factor==0.895309)
2    |  MIDI Event: Chan 6 Pitch Bend Change (0-16383): 2260 (factor==0.908281)
3    |  MIDI Event: Chan 6 Pitch Bend Change (0-16383): 3471 (factor==0.926295)
2    |  MIDI Event: Chan 6 Pitch Bend Change (0-16383): 5085 (factor==0.950861)
3    |  MIDI Event: Chan 6 Pitch Bend Change (0-16383): 6942 (factor==0.979932)
2    |  MIDI Event: Chan 6 Pitch Bend Change (0-16383): 8071 (factor==0.99804)
3    |  MIDI Event: Chan 6 Pitch Bend Change (0-16383): 8192 (factor==1)
3    |  MIDI Event: Chan 10 Note OFF: B3, Velocity (0 - 127): 64
0    |  MIDI Event: Chan 10 Note OFF: F#2, Velocity (0 - 127): 64
0    |  MIDI Event: Chan 10 Note OFF: B1, Velocity (0 - 127): 64
30   |  MIDI Event: Chan 12 Note OFF: F#5, Velocity (0 - 127): 64
0    |  MIDI Event: Chan 6 Note OFF: F#4, Velocity (0 - 127): 64
0    |  MIDI Event: Chan 1 Note OFF: C#4, Velocity (0 - 127): 64
0    |  MIDI Event: Chan 5 Note OFF: A2, Velocity (0 - 127): 64
0    |  MIDI Event: Chan 1 Note OFF: E3, Velocity (0 - 127): 64
0    |  MIDI Event: Chan 5 Note OFF: E3, Velocity (0 - 127): 64
0    |  MIDI Event: Chan 6 Note OFF: F#5, Velocity (0 - 127): 64
0    |  MIDI Event: Chan 7 Note OFF: F#5, Velocity (0 - 127): 64
0    |  MIDI Event: Chan 1 Note OFF: A3, Velocity (0 - 127): 64
1    |  MIDI Event: Chan 1 Note ON: A3, Velocity (0 - 127): 51
0    |  MIDI Event: Chan 1 Note ON: C#4, Velocity (0 - 127): 52
0    |  MIDI Event: Chan 1 Note ON: E4, Velocity (0 - 127): 78
0    |  MIDI Event: Chan 2 Control/Mode Change: Expression Control (0-127): 127
0    |  MIDI Event: Chan 3 Control/Mode Change: Expression Control (0-127): 127
0    |  MIDI Event: Chan 5 Note ON: C#3, Velocity (0 - 127): 89
0    |  MIDI Event: Chan 5 Note ON: E3, Velocity (0 - 127): 101
0    |  MIDI Event: Chan 5 Note ON: A3, Velocity (0 - 127): 89
0    |  MIDI Event: Chan 6 Note ON: D4, Velocity (0 - 127): 98
0    |  MIDI Event: Chan 6 Note ON: D5, Velocity (0 - 127): 98
0    |  MIDI Event: Chan 7 Note ON: D5, Velocity (0 - 127): 120
0    |  MIDI Event: Chan 10 Note ON: A#2, Velocity (0 - 127): 120
0    |  MIDI Event: Chan 10 Note ON: C#5, Velocity (0 - 127): 111
0    |  MIDI Event: Chan 12 Note ON: D5, Velocity (0 - 127): 120
29   |  MIDI Event: Chan 10 Note OFF: C#5, Velocity (0 - 127): 64
0    |  MIDI Event: Chan 5 Note OFF: E3, Velocity (0 - 127): 64
0    |  MIDI Event: Chan 1 Note OFF: C#4, Velocity (0 - 127): 64
0    |  MIDI Event: Chan 1 Note OFF: A3, Velocity (0 - 127): 64
0    |  MIDI Event: Chan 1 Note OFF: E4, Velocity (0 - 127): 64
0    |  MIDI Event: Chan 5 Note OFF: C#3, Velocity (0 - 127): 64
0    |  MIDI Event: Chan 10 Note OFF: A#2, Velocity (0 - 127): 64
0    |  MIDI Event: Chan 5 Note OFF: A3, Velocity (0 - 127): 64
1    |  MIDI Event: Chan 1 Note ON: A3, Velocity (0 - 127): 73
0    |  MIDI Event: Chan 1 Note ON: C#4, Velocity (0 - 127): 52
0    |  MIDI Event: Chan 1 Note ON: E4, Velocity (0 - 127): 83
0    |  MIDI Event: Chan 5 Note ON: C#3, Velocity (0 - 127): 119
0    |  MIDI Event: Chan 5 Note ON: E3, Velocity (0 - 127): 118
0    |  MIDI Event: Chan 5 Note ON: A3, Velocity (0 - 127): 105
29   |  MIDI Event: Chan 5 Note OFF: A3, Velocity (0 - 127): 64
0    |  MIDI Event: Chan 6 Note OFF: D4, Velocity (0 - 127): 64
0    |  MIDI Event: Chan 2 Note OFF: A1, Velocity (0 - 127): 64
0    |  MIDI Event: Chan 7 Note OFF: D5, Velocity (0 - 127): 64
0    |  MIDI Event: Chan 3 Note OFF: A3, Velocity (0 - 127): 64
0    |  MIDI Event: Chan 6 Note OFF: D5, Velocity (0 - 127): 64
0    |  MIDI Event: Chan 3 Note OFF: C#4, Velocity (0 - 127): 64
0    |  MIDI Event: Chan 12 Note OFF: D5, Velocity (0 - 127): 64
0    |  MIDI Event: Chan 5 Note OFF: C#3, Velocity (0 - 127): 64
0    |  MIDI Event: Chan 1 Note OFF: E4, Velocity (0 - 127): 64
0    |  MIDI Event: Chan 1 Note OFF: A3, Velocity (0 - 127): 64
0    |  MIDI Event: Chan 3 Note OFF: E4, Velocity (0 - 127): 64
0    |  MIDI Event: Chan 5 Note OFF: E3, Velocity (0 - 127): 64
0    |  MIDI Event: Chan 1 Note OFF: C#4, Velocity (0 - 127): 64
1    |  MIDI Event: Chan 1 Note ON: B3, Velocity (0 - 127): 58
0    |  MIDI Event: Chan 1 Note ON: D4, Velocity (0 - 127): 91
0    |  MIDI Event: Chan 3 Control/Mode Change: Expression Control (0-127): 64
0    |  MIDI Event: Chan 3 Note ON: B3, Velocity (0 - 127): 120
0    |  MIDI Event: Chan 3 Note ON: D4, Velocity (0 - 127): 120
0    |  MIDI Event: Chan 3 Note ON: F#4, Velocity (0 - 127): 120
0    |  MIDI Event: Chan 5 Note ON: B2, Velocity (0 - 127): 85
0    |  MIDI Event: Chan 5 Note ON: F#3, Velocity (0 - 127): 120
0    |  MIDI Event: Chan 6 Note ON: B3, Velocity (0 - 127): 105
0    |  MIDI Event: Chan 6 Note ON: B4, Velocity (0 - 127): 105
0    |  MIDI Event: Chan 7 Note ON: B4, Velocity (0 - 127): 120
0    |  MIDI Event: Chan 10 Note ON: F#2, Velocity (0 - 127): 120
0    |  MIDI Event: Chan 10 Note ON: B3, Velocity (0 - 127): 119
0    |  MIDI Event: Chan 12 Note ON: B4, Velocity (0 - 127): 120
29   |  MIDI Event: Chan 10 Note OFF: B3, Velocity (0 - 127): 64
0    |  MIDI Event: Chan 10 Note OFF: F#2, Velocity (0 - 127): 64
30   |  MIDI Event: Chan 7 Note OFF: B4, Velocity (0 - 127): 64
0    |  MIDI Event: Chan 6 Note OFF: B3, Velocity (0 - 127): 64
0    |  MIDI Event: Chan 5 Note OFF: F#3, Velocity (0 - 127): 64
0    |  MIDI Event: Chan 1 Note OFF: B3, Velocity (0 - 127): 64
0    |  MIDI Event: Chan 6 Note OFF: B4, Velocity (0 - 127): 64
0    |  MIDI Event: Chan 1 Note OFF: D4, Velocity (0 - 127): 64
0    |  MIDI Event: Chan 12 Note OFF: B4, Velocity (0 - 127): 64
0    |  MIDI Event: Chan 5 Note OFF: B2, Velocity (0 - 127): 64
1    |  MIDI Event: Chan 1 Note ON: B3, Velocity (0 - 127): 79
0    |  MIDI Event: Chan 1 Note ON: D4, Velocity (0 - 127): 95
0    |  MIDI Event: Chan 1 Note ON: F#4, Velocity (0 - 127): 74
0    |  MIDI Event: Chan 3 Control/Mode Change: Expression Control (0-127): 127
0    |  MIDI Event: Chan 5 Note ON: D3, Velocity (0 - 127): 92
0    |  MIDI Event: Chan 5 Note ON: F#3, Velocity (0 - 127): 87
0    |  MIDI Event: Chan 5 Note ON: D4, Velocity (0 - 127): 95
0    |  MIDI Event: Chan 10 Note ON: A#2, Velocity (0 - 127): 120
0    |  MIDI Event: Chan 10 Note ON: C#5, Velocity (0 - 127): 109
29   |  MIDI Event: Chan 10 Note OFF: C#5, Velocity (0 - 127): 64
0    |  MIDI Event: Chan 10 Note OFF: A#2, Velocity (0 - 127): 64
31   |  MIDI Event: Chan 3 Control/Mode Change: Expression Control (0-127): 73
0    |  MIDI Event: Chan 6 Note ON: B3, Velocity (0 - 127): 119
0    |  MIDI Event: Chan 6 Note ON: B4, Velocity (0 - 127): 119
0    |  MIDI Event: Chan 7 Note ON: B4, Velocity (0 - 127): 120
0    |  MIDI Event: Chan 10 Note ON: F#2, Velocity (0 - 127): 120
0    |  MIDI Event: Chan 10 Note ON: B3, Velocity (0 - 127): 118
0    |  MIDI Event: Chan 12 Note ON: B4, Velocity (0 - 127): 120
29   |  MIDI Event: Chan 10 Note OFF: B3, Velocity (0 - 127): 64
0    |  MIDI Event: Chan 5 Note OFF: D3, Velocity (0 - 127): 64
0    |  MIDI Event: Chan 1 Note OFF: D4, Velocity (0 - 127): 64
0    |  MIDI Event: Chan 1 Note OFF: B3, Velocity (0 - 127): 64
0    |  MIDI Event: Chan 5 Note OFF: D4, Velocity (0 - 127): 64
0    |  MIDI Event: Chan 10 Note OFF: F#2, Velocity (0 - 127): 64
0    |  MIDI Event: Chan 1 Note OFF: F#4, Velocity (0 - 127): 64
0    |  MIDI Event: Chan 5 Note OFF: F#3, Velocity (0 - 127): 64
1    |  MIDI Event: Chan 1 Note ON: B3, Velocity (0 - 127): 71
0    |  MIDI Event: Chan 1 Note ON: D4, Velocity (0 - 127): 91
0    |  MIDI Event: Chan 1 Note ON: F#4, Velocity (0 - 127): 60
0    |  MIDI Event: Chan 5 Note ON: F#3, Velocity (0 - 127): 109
0    |  MIDI Event: Chan 5 Note ON: B3, Velocity (0 - 127): 95
29   |  MIDI Event: Chan 5 Note OFF: B3, Velocity (0 - 127): 64
0    |  MIDI Event: Chan 1 Note OFF: F#4, Velocity (0 - 127): 64
0    |  MIDI Event: Chan 1 Note OFF: B3, Velocity (0 - 127): 64
0    |  MIDI Event: Chan 12 Note OFF: B4, Velocity (0 - 127): 64
0    |  MIDI Event: Chan 7 Note OFF: B4, Velocity (0 - 127): 64
0    |  MIDI Event: Chan 1 Note OFF: D4, Velocity (0 - 127): 64
0    |  MIDI Event: Chan 6 Note OFF: B3, Velocity (0 - 127): 64
0    |  MIDI Event: Chan 6 Note OFF: B4, Velocity (0 - 127): 64
0    |  MIDI Event: Chan 5 Note OFF: F#3, Velocity (0 - 127): 64
1    |  MIDI Event: Chan 1 Note ON: D4, Velocity (0 - 127): 80
0    |  MIDI Event: Chan 1 Note ON: F#4, Velocity (0 - 127): 62
0    |  MIDI Event: Chan 1 Note ON: B4, Velocity (0 - 127): 91
0    |  MIDI Event: Chan 3 Control/Mode Change: Expression Control (0-127): 127
0    |  MIDI Event: Chan 5 Note ON: D3, Velocity (0 - 127): 103
0    |  MIDI Event: Chan 5 Note ON: F#3, Velocity (0 - 127): 115
0    |  MIDI Event: Chan 10 Note ON: A#2, Velocity (0 - 127): 120
0    |  MIDI Event: Chan 10 Note ON: C#5, Velocity (0 - 127): 119
29   |  MIDI Event: Chan 10 Note OFF: C#5, Velocity (0 - 127): 64
0    |  MIDI Event: Chan 10 Note OFF: A#2, Velocity (0 - 127): 64
0    |  MIDI Event: Chan 5 Note OFF: D3, Velocity (0 - 127): 64
0    |  MIDI Event: Chan 1 Note OFF: D4, Velocity (0 - 127): 64
0    |  MIDI Event: Chan 1 Note OFF: F#4, Velocity (0 - 127): 64
0    |  MIDI Event: Chan 5 Note OFF: F#3, Velocity (0 - 127): 64
0    |  MIDI Event: Chan 1 Note OFF: B4, Velocity (0 - 127): 64
1    |  MIDI Event: Chan 1 Note ON: B3, Velocity (0 - 127): 51
0    |  MIDI Event: Chan 1 Note ON: D4, Velocity (0 - 127): 85
0    |  MIDI Event: Chan 1 Note ON: F#4, Velocity (0 - 127): 59
0    |  MIDI Event: Chan 5 Note ON: B2, Velocity (0 - 127): 92
0    |  MIDI Event: Chan 5 Note ON: E3, Velocity (0 - 127): 98
0    |  MIDI Event: Chan 6 Note ON: A3, Velocity (0 - 127): 91
0    |  MIDI Event: Chan 6 Note ON: A4, Velocity (0 - 127): 91
0    |  MIDI Event: Chan 7 Note ON: A4, Velocity (0 - 127): 120
0    |  MIDI Event: Chan 12 Note ON: A4, Velocity (0 - 127): 120
29   |  MIDI Event: Chan 12 Note OFF: A4, Velocity (0 - 127): 64
0    |  MIDI Event: Chan 3 Note OFF: B3, Velocity (0 - 127): 64
0    |  MIDI Event: Chan 5 Note OFF: E3, Velocity (0 - 127): 64
0    |  MIDI Event: Chan 3 Note OFF: D4, Velocity (0 - 127): 64
0    |  MIDI Event: Chan 1 Note OFF: B3, Velocity (0 - 127): 64
0    |  MIDI Event: Chan 3 Note OFF: F#4, Velocity (0 - 127): 64
0    |  MIDI Event: Chan 1 Note OFF: D4, Velocity (0 - 127): 64
0    |  MIDI Event: Chan 1 Note OFF: F#4, Velocity (0 - 127): 64
0    |  MIDI Event: Chan 6 Note OFF: A3, Velocity (0 - 127): 64
0    |  MIDI Event: Chan 5 Note OFF: B2, Velocity (0 - 127): 64
0    |  MIDI Event: Chan 7 Note OFF: A4, Velocity (0 - 127): 64
0    |  MIDI Event: Chan 6 Note OFF: A4, Velocity (0 - 127): 64
1    |  MIDI Event: Chan 1 Note ON: G3, Velocity (0 - 127): 74
0    |  MIDI Event: Chan 1 Note ON: B3, Velocity (0 - 127): 94
0    |  MIDI Event: Chan 1 Note ON: D4, Velocity (0 - 127): 91
0    |  MIDI Event: Chan 3 Control/Mode Change: Expression Control (0-127): 71
0    |  MIDI Event: Chan 3 Note ON: B3, Velocity (0 - 127): 120
0    |  MIDI Event: Chan 3 Note ON: D4, Velocity (0 - 127): 120
0    |  MIDI Event: Chan 3 Note ON: G4, Velocity (0 - 127): 120
0    |  MIDI Event: Chan 5 Note ON: G2, Velocity (0 - 127): 98
0    |  MIDI Event: Chan 5 Note ON: D3, Velocity (0 - 127): 116
0    |  MIDI Event: Chan 6 Note ON: B3, Velocity (0 - 127): 97
0    |  MIDI Event: Chan 6 Note ON: B4, Velocity (0 - 127): 97
0    |  MIDI Event: Chan 7 Note ON: B4, Velocity (0 - 127): 120
0    |  MIDI Event: Chan 10 Note ON: F#2, Velocity (0 - 127): 120
0    |  MIDI Event: Chan 10 Note ON: B3, Velocity (0 - 127): 116
0    |  MIDI Event: Chan 12 Note ON: B4, Velocity (0 - 127): 120
29   |  MIDI Event: Chan 12 Note OFF: B4, Velocity (0 - 127): 64
0    |  MIDI Event: Chan 6 Note OFF: B4, Velocity (0 - 127): 64
0    |  MIDI Event: Chan 6 Note OFF: B3, Velocity (0 - 127): 64
0    |  MIDI Event: Chan 10 Note OFF: B3, Velocity (0 - 127): 64
0    |  MIDI Event: Chan 7 Note OFF: B4, Velocity (0 - 127): 64
0    |  MIDI Event: Chan 10 Note OFF: F#2, Velocity (0 - 127): 64
1    |  MIDI Event: Chan 6 Note ON: D4, Velocity (0 - 127): 80
0    |  MIDI Event: Chan 6 Note ON: D5, Velocity (0 - 127): 80
0    |  MIDI Event: Chan 7 Note ON: D5, Velocity (0 - 127): 120
0    |  MIDI Event: Chan 12 Note ON: D5, Velocity (0 - 127): 120
29   |  MIDI Event: Chan 12 Note OFF: D5, Velocity (0 - 127): 64
0    |  MIDI Event: Chan 6 Note OFF: D5, Velocity (0 - 127): 64
0    |  MIDI Event: Chan 1 Note OFF: G3, Velocity (0 - 127): 64
0    |  MIDI Event: Chan 1 Note OFF: B3, Velocity (0 - 127): 64
0    |  MIDI Event: Chan 1 Note OFF: D4, Velocity (0 - 127): 64
0    |  MIDI Event: Chan 5 Note OFF: G2, Velocity (0 - 127): 64
0    |  MIDI Event: Chan 6 Note OFF: D4, Velocity (0 - 127): 64
0    |  MIDI Event: Chan 5 Note OFF: D3, Velocity (0 - 127): 64
0    |  MIDI Event: Chan 7 Note OFF: D5, Velocity (0 - 127): 64
1    |  MIDI Event: Chan 1 Note ON: B3, Velocity (0 - 127): 70
0    |  MIDI Event: Chan 1 Note ON: D4, Velocity (0 - 127): 94
0    |  MIDI Event: Chan 1 Note ON: G4, Velocity (0 - 127): 101
0    |  MIDI Event: Chan 3 Control/Mode Change: Expression Control (0-127): 127
0    |  MIDI Event: Chan 5 Note ON: D3, Velocity (0 - 127): 79
0    |  MIDI Event: Chan 5 Note ON: G3, Velocity (0 - 127): 111
0    |  MIDI Event: Chan 5 Note ON: B3, Velocity (0 - 127): 100
0    |  MIDI Event: Chan 6 Note ON: B3, Velocity (0 - 127): 113
0    |  MIDI Event: Chan 6 Note ON: B4, Velocity (0 - 127): 113
0    |  MIDI Event: Chan 7 Note ON: B4, Velocity (0 - 127): 120
0    |  MIDI Event: Chan 10 Note ON: A#2, Velocity (0 - 127): 120
0    |  MIDI Event: Chan 10 Note ON: C#5, Velocity (0 - 127): 119
0    |  MIDI Event: Chan 12 Note ON: B4, Velocity (0 - 127): 120
29   |  MIDI Event: Chan 10 Note OFF: C#5, Velocity (0 - 127): 64
0    |  MIDI Event: Chan 10 Note OFF: A#2, Velocity (0 - 127): 64
30   |  MIDI Event: Chan 6 Note OFF: B3, Velocity (0 - 127): 64
0    |  MIDI Event: Chan 7 Note OFF: B4, Velocity (0 - 127): 64
0    |  MIDI Event: Chan 6 Note OFF: B4, Velocity (0 - 127): 64
0    |  MIDI Event: Chan 12 Note OFF: B4, Velocity (0 - 127): 64
1    |  MIDI Event: Chan 3 Control/Mode Change: Expression Control (0-127): 80
0    |  MIDI Event: Chan 10 Note ON: F#2, Velocity (0 - 127): 120
0    |  MIDI Event: Chan 10 Note ON: B3, Velocity (0 - 127): 120
29   |  MIDI Event: Chan 10 Note OFF: B3, Velocity (0 - 127): 64
0    |  MIDI Event: Chan 5 Note OFF: D3, Velocity (0 - 127): 64
0    |  MIDI Event: Chan 5 Note OFF: B3, Velocity (0 - 127): 64
0    |  MIDI Event: Chan 10 Note OFF: F#2, Velocity (0 - 127): 64
0    |  MIDI Event: Chan 1 Note OFF: B3, Velocity (0 - 127): 64
0    |  MIDI Event: Chan 1 Note OFF: D4, Velocity (0 - 127): 64
0    |  MIDI Event: Chan 1 Note OFF: G4, Velocity (0 - 127): 64
0    |  MIDI Event: Chan 5 Note OFF: G3, Velocity (0 - 127): 64
1    |  MIDI Event: Chan 1 Note ON: B3, Velocity (0 - 127): 52
0    |  MIDI Event: Chan 1 Note ON: D4, Velocity (0 - 127): 85
0    |  MIDI Event: Chan 1 Note ON: G4, Velocity (0 - 127): 94
0    |  MIDI Event: Chan 5 Note ON: D3, Velocity (0 - 127): 82
0    |  MIDI Event: Chan 5 Note ON: G3, Velocity (0 - 127): 98
0    |  MIDI Event: Chan 5 Note ON: B3, Velocity (0 - 127): 85
0    |  MIDI Event: Chan 6 Note ON: A3, Velocity (0 - 127): 98
0    |  MIDI Event: Chan 6 Note ON: A4, Velocity (0 - 127): 98
0    |  MIDI Event: Chan 7 Note ON: A4, Velocity (0 - 127): 120
0    |  MIDI Event: Chan 12 Note ON: A4, Velocity (0 - 127): 120
29   |  MIDI Event: Chan 12 Note OFF: A4, Velocity (0 - 127): 64
0    |  MIDI Event: Chan 1 Note OFF: G4, Velocity (0 - 127): 64
0    |  MIDI Event: Chan 6 Note OFF: A3, Velocity (0 - 127): 64
0    |  MIDI Event: Chan 5 Note OFF: G3, Velocity (0 - 127): 64
0    |  MIDI Event: Chan 5 Note OFF: D3, Velocity (0 - 127): 64
0    |  MIDI Event: Chan 1 Note OFF: B3, Velocity (0 - 127): 64
0    |  MIDI Event: Chan 5 Note OFF: B3, Velocity (0 - 127): 64
0    |  MIDI Event: Chan 1 Note OFF: D4, Velocity (0 - 127): 64
0    |  MIDI Event: Chan 6 Note OFF: A4, Velocity (0 - 127): 64
0    |  MIDI Event: Chan 7 Note OFF: A4, Velocity (0 - 127): 64
1    |  MIDI Event: Chan 1 Note ON: D4, Velocity (0 - 127): 78
0    |  MIDI Event: Chan 1 Note ON: G4, Velocity (0 - 127): 100
0    |  MIDI Event: Chan 1 Note ON: B4, Velocity (0 - 127): 46
0    |  MIDI Event: Chan 3 Control/Mode Change: Expression Control (0-127): 127
0    |  MIDI Event: Chan 5 Note ON: G2, Velocity (0 - 127): 109
0    |  MIDI Event: Chan 5 Note ON: D3, Velocity (0 - 127): 109
0    |  MIDI Event: Chan 6 Note ON: B3, Velocity (0 - 127): 101
0    |  MIDI Event: Chan 6 Note ON: B4, Velocity (0 - 127): 101
0    |  MIDI Event: Chan 7 Note ON: B4, Velocity (0 - 127): 120
0    |  MIDI Event: Chan 10 Note ON: A#2, Velocity (0 - 127): 120
0    |  MIDI Event: Chan 10 Note ON: C#5, Velocity (0 - 127): 115
0    |  MIDI Event: Chan 12 Note ON: B4, Velocity (0 - 127): 120
29   |  MIDI Event: Chan 12 Note OFF: B4, Velocity (0 - 127): 64
0    |  MIDI Event: Chan 1 Note OFF: G4, Velocity (0 - 127): 64
0    |  MIDI Event: Chan 1 Note OFF: B4, Velocity (0 - 127): 64
0    |  MIDI Event: Chan 6 Note OFF: B4, Velocity (0 - 127): 64
0    |  MIDI Event: Chan 5 Note OFF: D3, Velocity (0 - 127): 64
0    |  MIDI Event: Chan 5 Note OFF: G2, Velocity (0 - 127): 64
0    |  MIDI Event: Chan 1 Note OFF: D4, Velocity (0 - 127): 64
0    |  MIDI Event: Chan 6 Note OFF: B3, Velocity (0 - 127): 64
0    |  MIDI Event: Chan 10 Note OFF: A#2, Velocity (0 - 127): 64
0    |  MIDI Event: Chan 7 Note OFF: B4, Velocity (0 - 127): 64
0    |  MIDI Event: Chan 10 Note OFF: C#5, Velocity (0 - 127): 64
1    |  MIDI Event: Chan 1 Note ON: B3, Velocity (0 - 127): 45
0    |  MIDI Event: Chan 1 Note ON: D4, Velocity (0 - 127): 73
0    |  MIDI Event: Chan 1 Note ON: G4, Velocity (0 - 127): 86
0    |  MIDI Event: Chan 5 Note ON: G2, Velocity (0 - 127): 101
0    |  MIDI Event: Chan 5 Note ON: E3, Velocity (0 - 127): 116
0    |  MIDI Event: Chan 6 Note ON: A3, Velocity (0 - 127): 91
0    |  MIDI Event: Chan 6 Note ON: A4, Velocity (0 - 127): 91
0    |  MIDI Event: Chan 7 Note ON: A4, Velocity (0 - 127): 120
0    |  MIDI Event: Chan 12 Note ON: A4, Velocity (0 - 127): 120
29   |  MIDI Event: Chan 12 Note OFF: A4, Velocity (0 - 127): 64
0    |  MIDI Event: Chan 3 Note OFF: D4, Velocity (0 - 127): 64
0    |  MIDI Event: Chan 5 Note OFF: E3, Velocity (0 - 127): 64
0    |  MIDI Event: Chan 3 Note OFF: G4, Velocity (0 - 127): 64
0    |  MIDI Event: Chan 1 Note OFF: B3, Velocity (0 - 127): 64
0    |  MIDI Event: Chan 3 Note OFF: B3, Velocity (0 - 127): 64
0    |  MIDI Event: Chan 1 Note OFF: D4, Velocity (0 - 127): 64
0    |  MIDI Event: Chan 1 Note OFF: G4, Velocity (0 - 127): 64
0    |  MIDI Event: Chan 6 Note OFF: A3, Velocity (0 - 127): 64
0    |  MIDI Event: Chan 5 Note OFF: G2, Velocity (0 - 127): 64
0    |  MIDI Event: Chan 7 Note OFF: A4, Velocity (0 - 127): 64
0    |  MIDI Event: Chan 6 Note OFF: A4, Velocity (0 - 127): 64
1    |  MIDI Event: Chan 1 Note ON: F#3, Velocity (0 - 127): 35
0    |  MIDI Event: Chan 1 Note ON: A3, Velocity (0 - 127): 85
0    |  MIDI Event: Chan 1 Note ON: D4, Velocity (0 - 127): 79
0    |  MIDI Event: Chan 3 Control/Mode Change: Sound Controller 5 (default: Brightness) (0-127): 65
0    |  MIDI Event: Chan 3 Control/Mode Change: Expression Control (0-127): 64
0    |  MIDI Event: Chan 3 Note ON: A3, Velocity (0 - 127): 120
0    |  MIDI Event: Chan 3 Note ON: D4, Velocity (0 - 127): 120
0    |  MIDI Event: Chan 3 Note ON: F#4, Velocity (0 - 127): 120
0    |  MIDI Event: Chan 5 Note ON: A2, Velocity (0 - 127): 90
0    |  MIDI Event: Chan 5 Note ON: D3, Velocity (0 - 127): 105
0    |  MIDI Event: Chan 6 Note ON: D4, Velocity (0 - 127): 105
0    |  MIDI Event: Chan 6 Note ON: D5, Velocity (0 - 127): 105
0    |  MIDI Event: Chan 7 Note ON: D5, Velocity (0 - 127): 120
0    |  MIDI Event: Chan 9 Note ON: D3, Velocity (0 - 127): 120
0    |  MIDI Event: Chan 9 Note ON: D4, Velocity (0 - 127): 120
0    |  MIDI Event: Chan 10 Note ON: F#2, Velocity (0 - 127): 120
0    |  MIDI Event: Chan 10 Note ON: B3, Velocity (0 - 127): 111
0    |  MIDI Event: Chan 12 Note ON: D5, Velocity (0 - 127): 120
29   |  MIDI Event: Chan 10 Note OFF: B3, Velocity (0 - 127): 64
0    |  MIDI Event: Chan 10 Note OFF: F#2, Velocity (0 - 127): 64
1    |  MIDI Event: Chan 3 Control/Mode Change: Sound Controller 5 (default: Brightness) (0-127): 70
15   |  MIDI Event: Chan 3 Control/Mode Change: Sound Controller 5 (default: Brightness) (0-127): 74
14   |  MIDI Event: Chan 1 Note OFF: D4, Velocity (0 - 127): 64
0    |  MIDI Event: Chan 12 Note OFF: D5, Velocity (0 - 127): 64
0    |  MIDI Event: Chan 6 Note OFF: D5, Velocity (0 - 127): 64
0    |  MIDI Event: Chan 5 Note OFF: A2, Velocity (0 - 127): 64
0    |  MIDI Event: Chan 5 Note OFF: D3, Velocity (0 - 127): 64
0    |  MIDI Event: Chan 1 Note OFF: F#3, Velocity (0 - 127): 64
0    |  MIDI Event: Chan 6 Note OFF: D4, Velocity (0 - 127): 64
0    |  MIDI Event: Chan 7 Note OFF: D5, Velocity (0 - 127): 64
0    |  MIDI Event: Chan 1 Note OFF: A3, Velocity (0 - 127): 64
1    |  MIDI Event: Chan 1 Note ON: A3, Velocity (0 - 127): 69
0    |  MIDI Event: Chan 1 Note ON: D4, Velocity (0 - 127): 98
0    |  MIDI Event: Chan 1 Note ON: F#4, Velocity (0 - 127): 74
0    |  MIDI Event: Chan 3 Control/Mode Change: Sound Controller 5 (default: Brightness) (0-127): 78
0    |  MIDI Event: Chan 3 Control/Mode Change: Expression Control (0-127): 127
0    |  MIDI Event: Chan 5 Note ON: A2, Velocity (0 - 127): 100
0    |  MIDI Event: Chan 5 Note ON: D3, Velocity (0 - 127): 111
0    |  MIDI Event: Chan 5 Note ON: F#3, Velocity (0 - 127): 89
0    |  MIDI Event: Chan 10 Note ON: A#2, Velocity (0 - 127): 120
0    |  MIDI Event: Chan 10 Note ON: C#5, Velocity (0 - 127): 119
0    |  MIDI Event: Chan 13 Control/Mode Change: Expression Control (0-127): 95
15   |  MIDI Event: Chan 3 Control/Mode Change: Sound Controller 5 (default: Brightness) (0-127): 83
14   |  MIDI Event: Chan 10 Note OFF: C#5, Velocity (0 - 127): 64
0    |  MIDI Event: Chan 10 Note OFF: A#2, Velocity (0 - 127): 64
1    |  MIDI Event: Chan 3 Control/Mode Change: Sound Controller 5 (default: Brightness) (0-127): 87
15   |  MIDI Event: Chan 3 Control/Mode Change: Sound Controller 5 (default: Brightness) (0-127): 91
15   |  MIDI Event: Chan 3 Control/Mode Change: Sound Controller 5 (default: Brightness) (0-127): 96
0    |  MIDI Event: Chan 3 Control/Mode Change: Expression Control (0-127): 73
0    |  MIDI Event: Chan 6 Note ON: D4, Velocity (0 - 127): 119
0    |  MIDI Event: Chan 6 Note ON: D5, Velocity (0 - 127): 119
0    |  MIDI Event: Chan 7 Note ON: D5, Velocity (0 - 127): 120
0    |  MIDI Event: Chan 10 Note ON: F#2, Velocity (0 - 127): 120
0    |  MIDI Event: Chan 10 Note ON: B3, Velocity (0 - 127): 119
0    |  MIDI Event: Chan 12 Note ON: D5, Velocity (0 - 127): 120
0    |  MIDI Event: Chan 13 Control/Mode Change: Sound Controller 5 (default: Brightness) (0-127): 127
0    |  MIDI Event: Chan 13 Note ON: C5, Velocity (0 - 127): 120
15   |  MIDI Event: Chan 3 Control/Mode Change: Sound Controller 5 (default: Brightness) (0-127): 100
0    |  MIDI Event: Chan 13 Control/Mode Change: Expression Control (0-127): 90
0    |  MIDI Event: Chan 13 Control/Mode Change: Sound Controller 5 (default: Brightness) (0-127): 123
14   |  MIDI Event: Chan 10 Note OFF: B3, Velocity (0 - 127): 64
0    |  MIDI Event: Chan 10 Note OFF: F#2, Velocity (0 - 127): 64
0    |  MIDI Event: Chan 1 Note OFF: D4, Velocity (0 - 127): 64
0    |  MIDI Event: Chan 5 Note OFF: A2, Velocity (0 - 127): 64
0    |  MIDI Event: Chan 1 Note OFF: F#4, Velocity (0 - 127): 64
0    |  MIDI Event: Chan 5 Note OFF: D3, Velocity (0 - 127): 64
0    |  MIDI Event: Chan 5 Note OFF: F#3, Velocity (0 - 127): 64
0    |  MIDI Event: Chan 1 Note OFF: A3, Velocity (0 - 127): 64
1    |  MIDI Event: Chan 1 Note ON: F#3, Velocity (0 - 127): 44
0    |  MIDI Event: Chan 1 Note ON: A3, Velocity (0 - 127): 78
0    |  MIDI Event: Chan 1 Note ON: D4, Velocity (0 - 127): 58
0    |  MIDI Event: Chan 3 Control/Mode Change: Sound Controller 5 (default: Brightness) (0-127): 105
0    |  MIDI Event: Chan 5 Note ON: A2, Velocity (0 - 127): 85
0    |  MIDI Event: Chan 5 Note ON: D3, Velocity (0 - 127): 105
0    |  MIDI Event: Chan 5 Note ON: F#3, Velocity (0 - 127): 81
0    |  MIDI Event: Chan 13 Control/Mode Change: Sound Controller 5 (default: Brightness) (0-127): 120
0    |  MIDI Event: Chan 13 Control/Mode Change: Expression Control (0-127): 86
15   |  MIDI Event: Chan 3 Control/Mode Change: Sound Controller 5 (default: Brightness) (0-127): 109
0    |  MIDI Event: Chan 13 Control/Mode Change: Sound Controller 5 (default: Brightness) (0-127): 117
0    |  MIDI Event: Chan 13 Control/Mode Change: Expression Control (0-127): 82
14   |  MIDI Event: Chan 5 Note OFF: F#3, Velocity (0 - 127): 64
0    |  MIDI Event: Chan 5 Note OFF: D3, Velocity (0 - 127): 64
0    |  MIDI Event: Chan 1 Note OFF: A3, Velocity (0 - 127): 64
0    |  MIDI Event: Chan 6 Note OFF: D5, Velocity (0 - 127): 64
0    |  MIDI Event: Chan 6 Note OFF: D4, Velocity (0 - 127): 64
0    |  MIDI Event: Chan 7 Note OFF: D5, Velocity (0 - 127): 64
0    |  MIDI Event: Chan 12 Note OFF: D5, Velocity (0 - 127): 64
0    |  MIDI Event: Chan 5 Note OFF: A2, Velocity (0 - 127): 64
0    |  MIDI Event: Chan 1 Note OFF: F#3, Velocity (0 - 127): 64
0    |  MIDI Event: Chan 1 Note OFF: D4, Velocity (0 - 127): 64
1    |  MIDI Event: Chan 1 Note ON: A3, Velocity (0 - 127): 57
0    |  MIDI Event: Chan 1 Note ON: D4, Velocity (0 - 127): 91
0    |  MIDI Event: Chan 1 Note ON: F#4, Velocity (0 - 127): 77
0    |  MIDI Event: Chan 3 Control/Mode Change: Sound Controller 5 (default: Brightness) (0-127): 113
0    |  MIDI Event: Chan 3 Control/Mode Change: Expression Control (0-127): 127
0    |  MIDI Event: Chan 5 Note ON: D3, Velocity (0 - 127): 109
0    |  MIDI Event: Chan 5 Note ON: F#3, Velocity (0 - 127): 89
0    |  MIDI Event: Chan 5 Note ON: A3, Velocity (0 - 127): 109
0    |  MIDI Event: Chan 10 Note ON: A#2, Velocity (0 - 127): 120
0    |  MIDI Event: Chan 10 Note ON: C#5, Velocity (0 - 127): 119
0    |  MIDI Event: Chan 13 Control/Mode Change: Expression Control (0-127): 78
0    |  MIDI Event: Chan 13 Control/Mode Change: Sound Controller 5 (default: Brightness) (0-127): 114
15   |  MIDI Event: Chan 3 Control/Mode Change: Sound Controller 5 (default: Brightness) (0-127): 118
0    |  MIDI Event: Chan 13 Control/Mode Change: Expression Control (0-127): 74
0    |  MIDI Event: Chan 13 Control/Mode Change: Sound Controller 5 (default: Brightness) (0-127): 111
14   |  MIDI Event: Chan 10 Note OFF: C#5, Velocity (0 - 127): 64
0    |  MIDI Event: Chan 5 Note OFF: D3, Velocity (0 - 127): 64
0    |  MIDI Event: Chan 1 Note OFF: A3, Velocity (0 - 127): 64
0    |  MIDI Event: Chan 1 Note OFF: F#4, Velocity (0 - 127): 64
0    |  MIDI Event: Chan 1 Note OFF: D4, Velocity (0 - 127): 64
0    |  MIDI Event: Chan 10 Note OFF: A#2, Velocity (0 - 127): 64
0    |  MIDI Event: Chan 5 Note OFF: F#3, Velocity (0 - 127): 64
0    |  MIDI Event: Chan 5 Note OFF: A3, Velocity (0 - 127): 64
1    |  MIDI Event: Chan 1 Note ON: F#3, Velocity (0 - 127): 35
0    |  MIDI Event: Chan 1 Note ON: A3, Velocity (0 - 127): 79
0    |  MIDI Event: Chan 1 Note ON: D4, Velocity (0 - 127): 56
0    |  MIDI Event: Chan 3 Control/Mode Change: Sound Controller 5 (default: Brightness) (0-127): 122
0    |  MIDI Event: Chan 5 Note ON: D3, Velocity (0 - 127): 111
0    |  MIDI Event: Chan 5 Note ON: F#3, Velocity (0 - 127): 100
0    |  MIDI Event: Chan 5 Note ON: A3, Velocity (0 - 127): 100
0    |  MIDI Event: Chan 6 Note ON: D4, Velocity (0 - 127): 103
0    |  MIDI Event: Chan 6 Note ON: D5, Velocity (0 - 127): 103
0    |  MIDI Event: Chan 7 Note ON: D3, Velocity (0 - 127): 120
0    |  MIDI Event: Chan 7 Note ON: D5, Velocity (0 - 127): 120
0    |  MIDI Event: Chan 12 Note ON: D3, Velocity (0 - 127): 120
0    |  MIDI Event: Chan 12 Note ON: D5, Velocity (0 - 127): 120
0    |  MIDI Event: Chan 13 Control/Mode Change: Sound Controller 5 (default: Brightness) (0-127): 107
0    |  MIDI Event: Chan 13 Control/Mode Change: Expression Control (0-127): 70
15   |  MIDI Event: Chan 3 Control/Mode Change: Sound Controller 5 (default: Brightness) (0-127): 127
0    |  MIDI Event: Chan 13 Control/Mode Change: Sound Controller 5 (default: Brightness) (0-127): 104
0    |  MIDI Event: Chan 13 Control/Mode Change: Expression Control (0-127): 66
14   |  MIDI Event: Chan 12 Note OFF: D5, Velocity (0 - 127): 64
0    |  MIDI Event: Chan 12 Note OFF: D3, Velocity (0 - 127): 64
0    |  MIDI Event: Chan 7 Note OFF: D5, Velocity (0 - 127): 64
0    |  MIDI Event: Chan 5 Note OFF: D3, Velocity (0 - 127): 64
0    |  MIDI Event: Chan 5 Note OFF: A3, Velocity (0 - 127): 64
0    |  MIDI Event: Chan 1 Note OFF: F#3, Velocity (0 - 127): 64
0    |  MIDI Event: Chan 7 Note OFF: D3, Velocity (0 - 127): 64
0    |  MIDI Event: Chan 1 Note OFF: D4, Velocity (0 - 127): 64
0    |  MIDI Event: Chan 1 Note OFF: A3, Velocity (0 - 127): 64
0    |  MIDI Event: Chan 6 Note OFF: D5, Velocity (0 - 127): 64
0    |  MIDI Event: Chan 5 Note OFF: F#3, Velocity (0 - 127): 64
0    |  MIDI Event: Chan 6 Note OFF: D4, Velocity (0 - 127): 64
1    |  MIDI Event: Chan 1 Note ON: F#3, Velocity (0 - 127): 49
0    |  MIDI Event: Chan 1 Note ON: A3, Velocity (0 - 127): 85
0    |  MIDI Event: Chan 1 Note ON: D4, Velocity (0 - 127): 75
0    |  MIDI Event: Chan 3 Control/Mode Change: Expression Control (0-127): 71
0    |  MIDI Event: Chan 5 Note ON: A2, Velocity (0 - 127): 105
0    |  MIDI Event: Chan 5 Note ON: D3, Velocity (0 - 127): 116
0    |  MIDI Event: Chan 6 Note ON: E4, Velocity (0 - 127): 95
0    |  MIDI Event: Chan 6 Note ON: E5, Velocity (0 - 127): 95
0    |  MIDI Event: Chan 7 Note ON: E3, Velocity (0 - 127): 120
0    |  MIDI Event: Chan 7 Note ON: E5, Velocity (0 - 127): 120
0    |  MIDI Event: Chan 10 Note ON: F#2, Velocity (0 - 127): 120
0    |  MIDI Event: Chan 10 Note ON: B3, Velocity (0 - 127): 116
0    |  MIDI Event: Chan 12 Note ON: E3, Velocity (0 - 127): 120
0    |  MIDI Event: Chan 12 Note ON: E5, Velocity (0 - 127): 120
0    |  MIDI Event: Chan 13 Control/Mode Change: Expression Control (0-127): 61
0    |  MIDI Event: Chan 13 Control/Mode Change: Sound Controller 5 (default: Brightness) (0-127): 101
15   |  MIDI Event: Chan 13 Control/Mode Change: Sound Controller 5 (default: Brightness) (0-127): 98
0    |  MIDI Event: Chan 13 Control/Mode Change: Expression Control (0-127): 57
14   |  MIDI Event: Chan 12 Note OFF: E5, Velocity (0 - 127): 64
0    |  MIDI Event: Chan 7 Note OFF: E5, Velocity (0 - 127): 64
0    |  MIDI Event: Chan 12 Note OFF: E3, Velocity (0 - 127): 64
0    |  MIDI Event: Chan 10 Note OFF: B3, Velocity (0 - 127): 64
0    |  MIDI Event: Chan 10 Note OFF: F#2, Velocity (0 - 127): 64
0    |  MIDI Event: Chan 6 Note OFF: E4, Velocity (0 - 127): 64
0    |  MIDI Event: Chan 7 Note OFF: E3, Velocity (0 - 127): 64
0    |  MIDI Event: Chan 6 Note OFF: E5, Velocity (0 - 127): 64
1    |  MIDI Event: Chan 6 Note ON: D4, Velocity (0 - 127): 86
0    |  MIDI Event: Chan 6 Note ON: D5, Velocity (0 - 127): 86
0    |  MIDI Event: Chan 7 Note ON: D3, Velocity (0 - 127): 120
0    |  MIDI Event: Chan 7 Note ON: D5, Velocity (0 - 127): 120
0    |  MIDI Event: Chan 12 Note ON: D3, Velocity (0 - 127): 120
0    |  MIDI Event: Chan 12 Note ON: D5, Velocity (0 - 127): 120
0    |  MIDI Event: Chan 13 Control/Mode Change: Sound Controller 5 (default: Brightness) (0-127): 95
0    |  MIDI Event: Chan 13 Control/Mode Change: Expression Control (0-127): 53
15   |  MIDI Event: Chan 13 Control/Mode Change: Expression Control (0-127): 49
0    |  MIDI Event: Chan 13 Control/Mode Change: Sound Controller 5 (default: Brightness) (0-127): 92
14   |  MIDI Event: Chan 12 Note OFF: D5, Velocity (0 - 127): 64
0    |  MIDI Event: Chan 12 Note OFF: D3, Velocity (0 - 127): 64
0    |  MIDI Event: Chan 7 Note OFF: D5, Velocity (0 - 127): 64
0    |  MIDI Event: Chan 6 Note OFF: D4, Velocity (0 - 127): 64
0    |  MIDI Event: Chan 5 Note OFF: A2, Velocity (0 - 127): 64
0    |  MIDI Event: Chan 5 Note OFF: D3, Velocity (0 - 127): 64
0    |  MIDI Event: Chan 1 Note OFF: D4, Velocity (0 - 127): 64
0    |  MIDI Event: Chan 1 Note OFF: A3, Velocity (0 - 127): 64
0    |  MIDI Event: Chan 7 Note OFF: D3, Velocity (0 - 127): 64
0    |  MIDI Event: Chan 1 Note OFF: F#3, Velocity (0 - 127): 64
0    |  MIDI Event: Chan 6 Note OFF: D5, Velocity (0 - 127): 64
1    |  MIDI Event: Chan 1 Note ON: A3, Velocity (0 - 127): 56
0    |  MIDI Event: Chan 1 Note ON: D4, Velocity (0 - 127): 84
0    |  MIDI Event: Chan 1 Note ON: F#4, Velocity (0 - 127): 49
0    |  MIDI Event: Chan 3 Control/Mode Change: Expression Control (0-127): 127
0    |  MIDI Event: Chan 5 Note ON: D3, Velocity (0 - 127): 105
0    |  MIDI Event: Chan 5 Note ON: F#3, Velocity (0 - 127): 115
0    |  MIDI Event: Chan 6 Note ON: E4, Velocity (0 - 127): 98
0    |  MIDI Event: Chan 6 Note ON: E5, Velocity (0 - 127): 98
0    |  MIDI Event: Chan 7 Note ON: E3, Velocity (0 - 127): 120
0    |  MIDI Event: Chan 7 Note ON: E5, Velocity (0 - 127): 120
0    |  MIDI Event: Chan 10 Note ON: A#2, Velocity (0 - 127): 120
0    |  MIDI Event: Chan 10 Note ON: C#5, Velocity (0 - 127): 119
0    |  MIDI Event: Chan 12 Note ON: E3, Velocity (0 - 127): 120
0    |  MIDI Event: Chan 12 Note ON: E5, Velocity (0 - 127): 120
0    |  MIDI Event: Chan 13 Control/Mode Change: Sound Controller 5 (default: Brightness) (0-127): 88
0    |  MIDI Event: Chan 13 Control/Mode Change: Expression Control (0-127): 45
15   |  MIDI Event: Chan 3 Control/Mode Change: Sound Controller 5 (default: Brightness) (0-127): 121
0    |  MIDI Event: Chan 13 Control/Mode Change: Sound Controller 5 (default: Brightness) (0-127): 85
0    |  MIDI Event: Chan 13 Control/Mode Change: Expression Control (0-127): 41
14   |  MIDI Event: Chan 10 Note OFF: C#5, Velocity (0 - 127): 64
0    |  MIDI Event: Chan 10 Note OFF: A#2, Velocity (0 - 127): 64
0    |  MIDI Event: Chan 5 Note OFF: F#3, Velocity (0 - 127): 64
0    |  MIDI Event: Chan 5 Note OFF: D3, Velocity (0 - 127): 64
0    |  MIDI Event: Chan 1 Note OFF: A3, Velocity (0 - 127): 64
0    |  MIDI Event: Chan 1 Note OFF: F#4, Velocity (0 - 127): 64
0    |  MIDI Event: Chan 1 Note OFF: D4, Velocity (0 - 127): 64
1    |  MIDI Event: Chan 1 Note ON: A3, Velocity (0 - 127): 84
0    |  MIDI Event: Chan 1 Note ON: D4, Velocity (0 - 127): 94
0    |  MIDI Event: Chan 1 Note ON: F#4, Velocity (0 - 127): 76
0    |  MIDI Event: Chan 3 Control/Mode Change: Sound Controller 5 (default: Brightness) (0-127): 116
0    |  MIDI Event: Chan 5 Note ON: D3, Velocity (0 - 127): 100
0    |  MIDI Event: Chan 5 Note ON: F#3, Velocity (0 - 127): 92
0    |  MIDI Event: Chan 13 Control/Mode Change: Sound Controller 5 (default: Brightness) (0-127): 82
0    |  MIDI Event: Chan 13 Control/Mode Change: Expression Control (0-127): 37
15   |  MIDI Event: Chan 3 Control/Mode Change: Sound Controller 5 (default: Brightness) (0-127): 111
0    |  MIDI Event: Chan 13 Control/Mode Change: Expression Control (0-127): 33
0    |  MIDI Event: Chan 13 Control/Mode Change: Sound Controller 5 (default: Brightness) (0-127): 79
5    |  MIDI Event: Chan 6 Pitch Bend Change (0-16383): 8071 (factor==0.99804)
5    |  MIDI Event: Chan 6 Pitch Bend Change (0-16383): 6296 (factor==0.96972)
3    |  MIDI Event: Chan 6 Pitch Bend Change (0-16383): 4197 (factor==0.937266)
1    |  MIDI Event: Chan 5 Note OFF: F#3, Velocity (0 - 127): 64
0    |  MIDI Event: Chan 12 Note OFF: E3, Velocity (0 - 127): 64
0    |  MIDI Event: Chan 3 Note OFF: F#4, Velocity (0 - 127): 64
0    |  MIDI Event: Chan 3 Note OFF: D4, Velocity (0 - 127): 64
0    |  MIDI Event: Chan 7 Note OFF: E3, Velocity (0 - 127): 64
0    |  MIDI Event: Chan 6 Note OFF: E4, Velocity (0 - 127): 64
0    |  MIDI Event: Chan 5 Note OFF: D3, Velocity (0 - 127): 64
0    |  MIDI Event: Chan 1 Note OFF: F#4, Velocity (0 - 127): 64
0    |  MIDI Event: Chan 3 Note OFF: A3, Velocity (0 - 127): 64
0    |  MIDI Event: Chan 12 Note OFF: E5, Velocity (0 - 127): 64
0    |  MIDI Event: Chan 6 Note OFF: E5, Velocity (0 - 127): 64
0    |  MIDI Event: Chan 1 Note OFF: A3, Velocity (0 - 127): 64
0    |  MIDI Event: Chan 7 Note OFF: E5, Velocity (0 - 127): 64
0    |  MIDI Event: Chan 1 Note OFF: D4, Velocity (0 - 127): 64
1    |  MIDI Event: Chan 1 Note ON: E3, Velocity (0 - 127): 47
0    |  MIDI Event: Chan 1 Note ON: A3, Velocity (0 - 127): 89
0    |  MIDI Event: Chan 1 Note ON: C#4, Velocity (0 - 127): 52
0    |  MIDI Event: Chan 3 Control/Mode Change: Sound Controller 5 (default: Brightness) (0-127): 106
0    |  MIDI Event: Chan 3 Control/Mode Change: Expression Control (0-127): 80
0    |  MIDI Event: Chan 3 Note ON: A3, Velocity (0 - 127): 120
0    |  MIDI Event: Chan 3 Note ON: D4, Velocity (0 - 127): 120
0    |  MIDI Event: Chan 3 Note ON: F#4, Velocity (0 - 127): 120
0    |  MIDI Event: Chan 5 Note ON: A2, Velocity (0 - 127): 101
0    |  MIDI Event: Chan 5 Note ON: E3, Velocity (0 - 127): 101
0    |  MIDI Event: Chan 6 Note ON: F#4, Velocity (0 - 127): 119
0    |  MIDI Event: Chan 6 Note ON: F#5, Velocity (0 - 127): 119
0    |  MIDI Event: Chan 6 Pitch Bend Change (0-16383): 1776 (factor==0.901179)
0    |  MIDI Event: Chan 7 Note ON: F#3, Velocity (0 - 127): 120
0    |  MIDI Event: Chan 7 Note ON: F#5, Velocity (0 - 127): 120
0    |  MIDI Event: Chan 10 Note ON: F#2, Velocity (0 - 127): 120
0    |  MIDI Event: Chan 10 Note ON: B3, Velocity (0 - 127): 120
0    |  MIDI Event: Chan 12 Note ON: F#3, Velocity (0 - 127): 120
0    |  MIDI Event: Chan 12 Note ON: F#5, Velocity (0 - 127): 120
0    |  MIDI Event: Chan 13 Control/Mode Change: Sound Controller 5 (default: Brightness) (0-127): 76
0    |  MIDI Event: Chan 13 Control/Mode Change: Expression Control (0-127): 28
3    |  MIDI Event: Chan 6 Pitch Bend Change (0-16383): 0 (factor==0.875594)
12   |  MIDI Event: Chan 3 Control/Mode Change: Sound Controller 5 (default: Brightness) (0-127): 100
0    |  MIDI Event: Chan 13 Control/Mode Change: Expression Control (0-127): 24
0    |  MIDI Event: Chan 13 Control/Mode Change: Sound Controller 5 (default: Brightness) (0-127): 73
5    |  MIDI Event: Chan 6 Pitch Bend Change (0-16383): 646 (factor==0.884815)
3    |  MIDI Event: Chan 6 Pitch Bend Change (0-16383): 2422 (factor==0.91067)
2    |  MIDI Event: Chan 6 Pitch Bend Change (0-16383): 4520 (factor==0.942188)
3    |  MIDI Event: Chan 6 Pitch Bend Change (0-16383): 6942 (factor==0.979932)
1    |  MIDI Event: Chan 10 Note OFF: B3, Velocity (0 - 127): 64
0    |  MIDI Event: Chan 10 Note OFF: F#2, Velocity (0 - 127): 64
1    |  MIDI Event: Chan 3 Control/Mode Change: Sound Controller 5 (default: Brightness) (0-127): 95
0    |  MIDI Event: Chan 6 Pitch Bend Change (0-16383): 8192 (factor==1)
0    |  MIDI Event: Chan 13 Control/Mode Change: Sound Controller 5 (default: Brightness) (0-127): 69
0    |  MIDI Event: Chan 13 Control/Mode Change: Expression Control (0-127): 20
15   |  MIDI Event: Chan 3 Control/Mode Change: Sound Controller 5 (default: Brightness) (0-127): 90
0    |  MIDI Event: Chan 13 Control/Mode Change: Expression Control (0-127): 16
0    |  MIDI Event: Chan 13 Control/Mode Change: Sound Controller 5 (default: Brightness) (0-127): 66
14   |  MIDI Event: Chan 7 Note OFF: F#5, Velocity (0 - 127): 64
0    |  MIDI Event: Chan 12 Note OFF: F#5, Velocity (0 - 127): 64
0    |  MIDI Event: Chan 5 Note OFF: A2, Velocity (0 - 127): 64
0    |  MIDI Event: Chan 6 Note OFF: F#4, Velocity (0 - 127): 64
0    |  MIDI Event: Chan 12 Note OFF: F#3, Velocity (0 - 127): 64
0    |  MIDI Event: Chan 1 Note OFF: A3, Velocity (0 - 127): 64
0    |  MIDI Event: Chan 1 Note OFF: C#4, Velocity (0 - 127): 64
0    |  MIDI Event: Chan 1 Note OFF: E3, Velocity (0 - 127): 64
0    |  MIDI Event: Chan 7 Note OFF: F#3, Velocity (0 - 127): 64
0    |  MIDI Event: Chan 5 Note OFF: E3, Velocity (0 - 127): 64
0    |  MIDI Event: Chan 6 Note OFF: F#5, Velocity (0 - 127): 64
1    |  MIDI Event: Chan 1 Note ON: A3, Velocity (0 - 127): 51
0    |  MIDI Event: Chan 1 Note ON: C#4, Velocity (0 - 127): 52
0    |  MIDI Event: Chan 1 Note ON: E4, Velocity (0 - 127): 78
0    |  MIDI Event: Chan 3 Control/Mode Change: Sound Controller 5 (default: Brightness) (0-127): 85
0    |  MIDI Event: Chan 3 Control/Mode Change: Expression Control (0-127): 127
0    |  MIDI Event: Chan 5 Note ON: C#3, Velocity (0 - 127): 89
0    |  MIDI Event: Chan 5 Note ON: E3, Velocity (0 - 127): 101
0    |  MIDI Event: Chan 5 Note ON: A3, Velocity (0 - 127): 89
0    |  MIDI Event: Chan 6 Note ON: D4, Velocity (0 - 127): 111
0    |  MIDI Event: Chan 6 Note ON: D5, Velocity (0 - 127): 111
0    |  MIDI Event: Chan 7 Note ON: D3, Velocity (0 - 127): 120
0    |  MIDI Event: Chan 7 Note ON: D5, Velocity (0 - 127): 120
0    |  MIDI Event: Chan 10 Note ON: A#2, Velocity (0 - 127): 120
0    |  MIDI Event: Chan 10 Note ON: C#5, Velocity (0 - 127): 115
0    |  MIDI Event: Chan 12 Note ON: D3, Velocity (0 - 127): 120
0    |  MIDI Event: Chan 12 Note ON: D5, Velocity (0 - 127): 120
0    |  MIDI Event: Chan 13 Control/Mode Change: Sound Controller 5 (default: Brightness) (0-127): 63
0    |  MIDI Event: Chan 13 Control/Mode Change: Expression Control (0-127): 12
15   |  MIDI Event: Chan 3 Control/Mode Change: Sound Controller 5 (default: Brightness) (0-127): 79
0    |  MIDI Event: Chan 13 Control/Mode Change: Sound Controller 5 (default: Brightness) (0-127): 60
0    |  MIDI Event: Chan 13 Control/Mode Change: Expression Control (0-127): 8
14   |  MIDI Event: Chan 10 Note OFF: C#5, Velocity (0 - 127): 64
0    |  MIDI Event: Chan 10 Note OFF: A#2, Velocity (0 - 127): 64
0    |  MIDI Event: Chan 5 Note OFF: A3, Velocity (0 - 127): 64
0    |  MIDI Event: Chan 1 Note OFF: A3, Velocity (0 - 127): 64
0    |  MIDI Event: Chan 5 Note OFF: C#3, Velocity (0 - 127): 64
0    |  MIDI Event: Chan 1 Note OFF: E4, Velocity (0 - 127): 64
0    |  MIDI Event: Chan 1 Note OFF: C#4, Velocity (0 - 127): 64
0    |  MIDI Event: Chan 5 Note OFF: E3, Velocity (0 - 127): 64
1    |  MIDI Event: Chan 1 Note ON: A3, Velocity (0 - 127): 73
0    |  MIDI Event: Chan 1 Note ON: C#4, Velocity (0 - 127): 52
0    |  MIDI Event: Chan 1 Note ON: E4, Velocity (0 - 127): 83
0    |  MIDI Event: Chan 3 Control/Mode Change: Sound Controller 5 (default: Brightness) (0-127): 74
0    |  MIDI Event: Chan 5 Note ON: C#3, Velocity (0 - 127): 119
0    |  MIDI Event: Chan 5 Note ON: E3, Velocity (0 - 127): 118
0    |  MIDI Event: Chan 5 Note ON: A3, Velocity (0 - 127): 105
0    |  MIDI Event: Chan 13 Control/Mode Change: Sound Controller 5 (default: Brightness) (0-127): 57
0    |  MIDI Event: Chan 13 Control/Mode Change: Expression Control (0-127): 4
15   |  MIDI Event: Chan 3 Control/Mode Change: Sound Controller 5 (default: Brightness) (0-127): 69
0    |  MIDI Event: Chan 13 Control/Mode Change: Expression Control (0-127): 0
14   |  MIDI Event: Chan 5 Note OFF: A3, Velocity (0 - 127): 64
0    |  MIDI Event: Chan 12 Note OFF: D3, Velocity (0 - 127): 64
0    |  MIDI Event: Chan 3 Note OFF: A3, Velocity (0 - 127): 64
0    |  MIDI Event: Chan 9 Note OFF: D4, Velocity (0 - 127): 64
0    |  MIDI Event: Chan 3 Note OFF: F#4, Velocity (0 - 127): 64
0    |  MIDI Event: Chan 7 Note OFF: D3, Velocity (0 - 127): 64
0    |  MIDI Event: Chan 6 Note OFF: D4, Velocity (0 - 127): 64
0    |  MIDI Event: Chan 5 Note OFF: E3, Velocity (0 - 127): 64
0    |  MIDI Event: Chan 7 Note OFF: D5, Velocity (0 - 127): 64
0    |  MIDI Event: Chan 12 Note OFF: D5, Velocity (0 - 127): 64
0    |  MIDI Event: Chan 1 Note OFF: E4, Velocity (0 - 127): 64
0    |  MIDI Event: Chan 5 Note OFF: C#3, Velocity (0 - 127): 64
0    |  MIDI Event: Chan 1 Note OFF: A3, Velocity (0 - 127): 64
0    |  MIDI Event: Chan 9 Note OFF: D3, Velocity (0 - 127): 64
0    |  MIDI Event: Chan 3 Note OFF: D4, Velocity (0 - 127): 64
0    |  MIDI Event: Chan 6 Note OFF: D5, Velocity (0 - 127): 64
0    |  MIDI Event: Chan 1 Note OFF: C#4, Velocity (0 - 127): 64
1    |  MIDI Event: Chan 13 Note OFF: C5, Velocity (0 - 127): 64
0    |  MIDI Event: Chan 1 Note ON: B3, Velocity (0 - 127): 111
0    |  MIDI Event: Chan 1 Note ON: D4, Velocity (0 - 127): 109
0    |  MIDI Event: Chan 1 Note ON: F#4, Velocity (0 - 127): 72
0    |  MIDI Event: Chan 3 Note ON: B3, Velocity (0 - 127): 120
0    |  MIDI Event: Chan 3 Note ON: D4, Velocity (0 - 127): 120
0    |  MIDI Event: Chan 3 Note ON: F#4, Velocity (0 - 127): 120
0    |  MIDI Event: Chan 5 Note ON: B2, Velocity (0 - 127): 94
0    |  MIDI Event: Chan 5 Note ON: F#3, Velocity (0 - 127): 87
0    |  MIDI Event: Chan 5 Note ON: B3, Velocity (0 - 127): 105
0    |  MIDI Event: Chan 7 Note ON: B2, Velocity (0 - 127): 120
0    |  MIDI Event: Chan 7 Note ON: B4, Velocity (0 - 127): 120
0    |  MIDI Event: Chan 12 Note ON: B2, Velocity (0 - 127): 120
0    |  MIDI Event: Chan 12 Note ON: B3, Velocity (0 - 127): 120
29   |  MIDI Event: Chan 1 Note OFF: F#4, Velocity (0 - 127): 64
0    |  MIDI Event: Chan 1 Note OFF: B3, Velocity (0 - 127): 64
0    |  MIDI Event: Chan 1 Note OFF: D4, Velocity (0 - 127): 64
30   |  MIDI Event: Chan 5 Note OFF: B3, Velocity (0 - 127): 64
0    |  MIDI Event: Chan 3 Note OFF: B3, Velocity (0 - 127): 64
0    |  MIDI Event: Chan 5 Note OFF: F#3, Velocity (0 - 127): 64
0    |  MIDI Event: Chan 3 Note OFF: D4, Velocity (0 - 127): 64
0    |  MIDI Event: Chan 5 Note OFF: B2, Velocity (0 - 127): 64
0    |  MIDI Event: Chan 3 Note OFF: F#4, Velocity (0 - 127): 64
30   |  MIDI Event: Chan 7 Note OFF: B4, Velocity (0 - 127): 64
0    |  MIDI Event: Chan 7 Note OFF: B2, Velocity (0 - 127): 64
0    |  MIDI Event: Chan 12 Note OFF: B2, Velocity (0 - 127): 64
0    |  MIDI Event: Chan 12 Note OFF: B3, Velocity (0 - 127): 64
391  |  SysEx Event: 5 byte message: 0x7e7f91fff7
0    |  SysEx Event: 10 byte message: 0x411042124007f041fff7
0    |  Meta Event: End of Track
Total channels used: 10
